<svg width="143" height="143" viewBox="0 0 143 143" fill="none" xmlns="http://www.w3.org/2000/svg">
<rect width="143" height="143" rx="4" fill="#008386"/>
<path d="M58.4726 53.8845C59.2916 53.8845 59.9561 54.549 59.9561 55.368V80.0933C59.9561 80.9154 59.2916 81.5768 58.4726 81.5768H57.4836C56.6646 81.5768 56.0001 80.9154 56.0001 80.0933V55.368C56.0001 54.549 56.6646 53.8845 57.4836 53.8845H58.4726ZM63.9121 54.8735V80.5878C63.9121 81.1318 63.4671 81.5768 62.9231 81.5768C62.3792 81.5768 61.9341 81.1318 61.9341 80.5878V54.8735C61.9341 54.3271 62.3792 53.8845 62.9231 53.8845C63.4671 53.8845 63.9121 54.3271 63.9121 54.8735ZM68.3627 53.8845C69.1848 53.8845 69.8462 54.549 69.8462 55.368V80.0933C69.8462 80.9154 69.1848 81.5768 68.3627 81.5768H67.3737C66.5516 81.5768 65.8902 80.9154 65.8902 80.0933V55.368C65.8902 54.549 66.5516 53.8845 67.3737 53.8845H68.3627ZM74.2968 53.8845C75.1189 53.8845 75.7803 54.549 75.7803 55.368V80.0933C75.7803 80.9154 75.1189 81.5768 74.2968 81.5768H73.3078C72.4856 81.5768 71.8242 80.9154 71.8242 80.0933V55.368C71.8242 54.549 72.4856 53.8845 73.3078 53.8845H74.2968ZM83.6924 55.368C83.6924 54.549 84.3538 53.8845 85.1759 53.8845H86.1649C86.987 53.8845 87.6484 54.549 87.6484 55.368V80.0933C87.6484 80.9154 86.987 81.5768 86.1649 81.5768H85.1759C84.3538 81.5768 83.6924 80.9154 83.6924 80.0933V55.368ZM79.7363 54.8735C79.7363 54.3271 80.1814 53.8845 80.7253 53.8845C81.2693 53.8845 81.7143 54.3271 81.7143 54.8735V80.5878C81.7143 81.1318 81.2693 81.5768 80.7253 81.5768C80.1814 81.5768 79.7363 81.1318 79.7363 80.5878V54.8735Z" fill="white"/>
<rect x="47.5" y="32.5" width="49" height="79" rx="2.5" stroke="white" stroke-width="3"/>
<path d="M64.3846 41.077H81V46.6155H64.3846V41.077ZM69.9231 95.077H75.4616V100.615H69.9231V95.077Z" fill="white"/>
</svg>
