<svg width="322" height="543" viewBox="0 0 322 543" fill="none" xmlns="http://www.w3.org/2000/svg">
<path d="M45.5039 487.1C45.7812 486.253 46.4295 483.468 47.1129 480.519C47.7573 477.758 48.4838 474.626 48.7338 473.868L48.7962 473.513C48.9681 467.553 53.6586 463.339 58.6265 458.879C60.3644 457.316 62.1649 455.7 63.7467 454.008C75.7562 441.163 75.9593 422.877 76.1546 405.193C76.2327 398.39 76.3068 391.36 77.0645 384.775C80.2358 357.291 97.678 329.882 124.915 309.577C127.087 307.964 129.301 306.394 131.524 304.821C138.354 299.989 145.415 294.994 151.09 288.612C157.159 281.778 161.452 273.572 165.595 265.64C176.574 244.656 187.923 222.952 195.11 199.605C202.936 174.164 204.292 145.998 198.734 124.255L196.32 124.872C201.765 146.189 200.421 173.852 192.727 198.871C185.608 222.003 174.313 243.601 163.389 264.484C159.311 272.283 155.093 280.352 149.223 286.957C143.748 293.119 136.8 298.037 130.086 302.79C127.844 304.371 125.611 305.949 123.427 307.578C95.6394 328.293 77.8418 356.327 74.5924 384.494C73.8152 391.199 73.737 398.304 73.6628 405.17C73.4636 423.166 73.2761 440.171 61.9227 452.306C60.4191 453.919 58.6616 455.496 56.9588 457.023C51.862 461.601 46.5935 466.334 46.3083 473.267C45.9959 474.306 45.3593 477.055 44.6837 479.953C44.0393 482.722 43.3714 485.585 43.1332 486.339L45.5039 487.1Z" fill="#E4C26D"/>
<path d="M244.585 224.925C245.136 215.797 246.932 209.189 246.753 200.214C246.729 194.227 246.257 188.267 246.155 182.315C246.233 178.101 246.608 173.879 245.96 169.692C245.733 167.997 245.112 164.709 244.511 162.963C245.308 164.514 245.854 166.154 246.405 167.822C248.702 174.856 248.1 182.389 249.326 189.642C251.217 201.163 249.42 212.462 248.276 222.753C247.854 229.338 247.428 235.966 245.386 242.304C242.542 251.084 237.778 259.137 233.693 267.386C238.82 252.978 244.737 239.438 244.585 224.925Z" fill="#E4C26D"/>
<path d="M170.575 4.15152C178.062 47.4601 198.14 89.3354 227.248 122.267C234.712 130.711 242.874 138.729 250.768 146.481C258.411 153.992 266.312 161.756 273.552 169.876C284.172 181.787 292.705 195.316 298.314 208.841C289.921 192.918 278.368 178.643 264.378 167.692C255.177 160.483 244.925 154.542 235.009 148.797C229.365 145.524 223.522 142.142 217.957 138.569C200.46 127.356 189.146 116.131 182.667 103.501C184.17 104.274 185.674 105.04 187.174 105.805L195.875 110.25L190.521 104.79C183.233 97.3535 178.011 88.3121 173.449 79.6496C167.583 68.5149 162.073 56.4273 161.479 43.4413C160.936 31.6974 161.471 11.5486 170.575 4.15152ZM107.922 497.422L73.198 484.948C95.1784 484.979 115.964 486.299 136.109 487.662L137.839 487.779C151.227 488.693 166.408 489.74 177.792 481.733L181.983 478.792L176.91 479.48C174.586 479.796 172.465 479.917 170.61 479.851C189.376 476.933 205.627 465.139 221.398 453.691C226.311 450.13 231.388 446.443 236.419 443.127C242.847 438.893 249.666 434.996 256.259 431.227C266.116 425.587 276.306 419.76 285.468 412.675C296.013 404.513 313.869 387.344 315.025 364.024L315.272 359.127L312.717 363.317C310.561 366.863 308.734 370.289 306.968 373.604C303.715 379.701 300.735 385.298 296.529 389.801C307.273 375.182 310.858 355.198 313.518 335.631L320.001 288.053C322.45 270.135 323.895 254.165 316.685 240.164L313.287 233.559L314.342 240.913C315.693 250.302 315.447 259.902 313.647 269.186C313.666 255.688 311.315 242.003 306.906 228.896L306.953 228.888C303.246 208.658 291.748 186.544 275.415 168.216C268.12 160.037 260.188 152.242 252.513 144.704C244.651 136.983 236.52 128.992 229.115 120.615C199.882 87.5427 179.847 45.3472 172.707 1.80038L172.411 -3.05176e-05L170.841 0.93335C159.721 7.53763 158.257 27.7567 158.987 43.5585C159.604 57.0287 165.244 69.4249 171.247 80.8135C174.918 87.7966 179.027 95.0297 184.299 101.536C183.041 100.888 181.784 100.24 180.534 99.5875L177.394 97.955L178.812 101.2C185.158 115.667 197.168 128.207 216.61 140.666C222.222 144.271 228.088 147.669 233.759 150.953C243.601 156.659 253.775 162.557 262.844 169.653C295.873 195.504 315.022 240.234 310.495 280.961L309.265 292.029L312.913 281.508C316.463 271.264 318.056 260.336 317.627 249.471C320.743 260.879 319.45 273.681 317.529 287.718L311.05 335.295C307.828 358.962 303.25 383.235 286.117 397.213L278.887 403.099L287.409 399.319C298.778 394.265 303.59 385.231 309.167 374.772C310.042 373.136 310.929 371.468 311.866 369.773C308.382 389.129 293.229 403.513 283.941 410.699C274.919 417.682 264.804 423.467 255.021 429.063C248.393 432.852 241.539 436.769 235.048 441.045C229.97 444.396 224.87 448.095 219.933 451.676C202.495 464.334 184.455 477.426 163.361 478.015L159.471 478.125L162.697 480.296C165.041 481.87 168.376 482.229 171.715 482.358C161.784 486.92 149.723 486.096 138.007 485.291L136.276 485.174C113.98 483.663 90.9175 482.097 66.2071 482.522L59.4036 482.643L87.918 492.888C71.6319 491.759 54.6662 492.212 41.8443 494.215L42.2271 496.68C57.4313 494.301 78.5565 494.133 97.3578 496.239L107.922 497.422Z" fill="#E4C26D"/>
<path d="M13.9859 520.829C21.5157 511.823 29.8932 503.5 38.7705 495.845C45.1561 490.682 51.4674 485.421 57.8451 480.282C65.3047 474.974 72.9362 469.932 80.3411 464.597C99.2674 450.283 116.792 437.723 133.894 423.405C154.996 405.526 174.894 385.982 189.255 363.537C196.058 352.27 203.666 341.471 209.103 329.407C210.923 325.786 212.321 322.541 213.665 319.205C210.302 324.99 206.881 330.75 202.971 336.21C200.175 340.475 197.929 345.06 195.035 349.274C190.274 355.562 185.213 361.592 180.225 367.681C172.899 376.781 164.291 384.686 156.117 393.012C149.883 400.394 142.822 407.002 136.042 413.856C130.859 418.918 124.548 425.901 119.787 429.115C115.222 432.665 110.457 436.477 104.477 439.664C100.412 442.132 94.9517 446.471 92.3116 448.299C81.212 456.071 70.3859 466.546 58.5912 476.814C47.5502 486.523 36.224 495.916 25.5072 506.019C18.7975 512.971 11.8144 518.357 7.75261 526.34C6.70593 528.136 5.92874 530.159 5.22964 532.296C7.83075 528.183 10.7755 524.368 13.9859 520.829ZM0.000167847 542.595C1.11325 536.815 1.84741 530.874 4.40945 525.488C8.42435 516.619 16.3097 510.554 22.914 503.672C33.0606 493.975 43.957 485.125 54.4082 475.767C59.3683 471.557 64.5588 466.87 69.6711 462.305C70.0187 461.68 70.339 461.059 70.6671 460.41C75.2287 450.561 80.6379 441.133 86.547 432.064C82.7352 441.73 78.1188 451.139 72.4089 459.836C72.3816 459.887 72.3582 459.91 72.3113 459.965C78.3688 454.626 84.2818 449.615 89.5699 446.026C94.9712 442.089 100.162 437.793 106.122 434.7C111.957 431.107 114.972 428.299 119.557 424.96C130.457 415.172 144.072 401.097 155.121 389.095C165.22 379.222 175.121 369.126 183.795 357.956C187.162 353.691 190.798 349.532 192.696 346.775C195.687 342.272 198.183 337.456 201.276 333.043C205.443 327.653 208.603 321.623 212.442 316.034C215.438 311.5 218.18 306.786 220.769 302.025C223.413 295.667 226.108 288.684 228.08 281.806C227.381 285.422 226.58 289.008 225.682 292.577C226.604 290.734 226.596 286.438 227.518 284.598C226.295 288.082 225.862 293.921 224.413 297.33C218.781 318.057 210.001 337.979 198.082 355.812C185.99 377.004 169.782 395.485 152.027 412.114C129.133 433.111 106.571 449.139 81.8603 467.768C75.0295 472.627 65.4063 479.192 59.919 483.023C52.9906 488.733 45.9762 494.346 39.0712 500.102C25.1791 512.85 12.7439 525.766 3.2417 541.2C2.91753 541.696 2.61685 542.243 2.31613 542.821L0.000167847 542.595Z" fill="#E4C26D"/>
<path d="M169.509 320.595C169.559 311.198 170.5 301.825 169.958 292.424C170.532 280.606 171.125 268.788 170.43 256.942C172.422 268.964 172.524 281.055 172.598 293.198C173.418 302.547 172.445 311.87 172 321.196C171.274 329.875 171.227 338.607 170.329 347.258C170.231 347.75 170.157 348.629 170.231 348.777C170.028 348.332 170.133 347.801 170.133 347.332C169.907 338.428 169.18 329.523 169.509 320.595Z" fill="#E4C26D"/>
<path d="M181.277 283.797C181.277 283.816 181.3 283.816 181.327 283.816H181.3C181.3 283.816 181.3 283.816 181.277 283.797Z" fill="#E4C26D"/>
<path d="M182.022 240.559C181.674 250.585 181.026 260.634 181.874 270.632C182.124 275.022 181.327 279.435 181.549 283.817C181.503 283.872 181.401 283.872 181.327 283.817C180.725 277.388 180.706 272.53 179.905 266.367C179.284 257.744 180.577 249.065 182.022 240.559Z" fill="#E4C26D"/>
<path d="M186.084 245.272C186.435 237.84 187.931 231.833 188.431 224.549C188.954 232.63 187.56 240.632 187.787 248.709C187.834 254.372 189.029 258.762 189.603 264.897C189.626 265.421 189.661 266.139 189.626 266.495C189.579 266.12 189.529 265.741 189.458 265.343C187.88 258.734 185.787 252.154 186.084 245.272Z" fill="#E4C26D"/>
<path d="M110.785 322.993C111.133 330.375 110.211 337.709 109.891 345.04C108.891 337.756 109.938 330.277 110.785 322.993Z" fill="#E4C26D"/>
<path d="M100.81 396.449C101.611 386.876 103.63 373.738 105.176 363.041C105.075 374.359 104.426 385.732 103.329 396.999C102.353 404.631 100.763 415.125 101.458 423.706C99.2673 414.832 99.8335 405.455 100.81 396.449Z" fill="#E4C26D"/>
<path d="M95.1746 396.249C95.5534 408.997 95.7995 423.803 94.7059 435.449C94.0263 430.809 94.1318 426.052 93.6045 421.362C93.2062 412.961 94.3271 404.611 95.1746 396.249Z" fill="#E4C26D"/>
<path d="M109.016 414.355C109.141 402.814 109.64 391.238 111.582 379.846C111.257 392.062 112.281 404.431 110.429 416.55C109.762 420.412 108.617 424.181 108.363 427.845C107.867 423.334 108.691 418.842 109.016 414.355Z" fill="#E4C26D"/>
<path d="M222.894 242.801C228.377 248.386 229.65 257.013 229.271 264.547C227.803 257.24 226.557 249.284 222.968 243C222.894 242.875 222.589 242.606 222.589 242.582C222.694 242.676 222.792 242.734 222.894 242.801Z" fill="#E4C26D"/>
<path d="M237.277 252.557C234.036 245.051 232.142 237.068 230.447 229.116C233.985 236.494 235.86 244.523 237.277 252.557Z" fill="#E4C26D"/>
<path d="M216.461 210.143C214.391 202.836 212.892 195.302 210.849 188.045C214.641 194.736 216.11 202.535 216.461 210.143Z" fill="#E4C26D"/>
<path d="M280.118 304.122C282.684 299.603 286.351 295.916 289.546 291.85C292.787 287.367 297.372 279.634 299.688 273.377C298.419 280.606 295.529 287.761 291.065 293.592C287.495 297.709 283.234 301.149 279.794 305.364C279.391 305.813 278.895 306.387 278.599 306.711C279.122 305.84 279.622 304.961 280.118 304.122Z" fill="#E4C26D"/>
<path d="M297.7 292.994C294.783 301.575 289.342 309.152 282.906 315.467C287.671 307.863 292.881 300.552 297.7 292.994Z" fill="#E4C26D"/>
<path d="M210.548 349.695C214.192 347.301 218.851 347.504 222.862 346.012C230.568 342.868 239.352 336.311 247.276 331.421C239.726 338.174 231.919 346.305 221.695 348.531C218.203 349.273 213.864 348.797 210.872 350.199C209.927 350.597 208.927 351.168 208.08 351.621C208.853 350.949 209.677 350.273 210.548 349.695Z" fill="#E4C26D"/>
<path d="M235.258 326.605C231.794 329.007 227.885 330.827 223.913 332.101C227.627 329.722 231.271 328.031 235.258 326.605Z" fill="#E4C26D"/>
<path d="M196.433 362.56C198.855 361.096 201.3 359.6 203.971 358.655C206.533 357.725 209.9 357.577 211.724 357.307C217.18 356.354 222.522 354.808 227.955 353.64C237.551 351.847 246.452 347.801 255.806 345.161C264.46 343.142 273.287 341.873 282.09 340.599C272.662 343.322 263.062 345.462 253.841 348.75C245.034 352.191 236.258 355.761 226.858 357.159C221.566 358.022 216.309 359.252 210.974 359.471C205.982 359.221 201.722 360.397 197.336 362.47C196.562 362.81 195.387 363.267 194.762 363.369C195.344 363.138 195.891 362.869 196.433 362.56Z" fill="#E4C26D"/>
<path d="M193.024 373.562C210.673 362.111 232.591 362.638 252.865 362.618C240.316 364.513 229.154 365.18 217.086 367.551C209.279 368.25 201.722 370.203 193.868 373.538C193.243 373.761 191.973 374.21 191.696 374.136C192.173 374.011 192.594 373.78 193.024 373.562Z" fill="#E4C26D"/>
<path d="M220.523 412.813C228.447 411.563 236.508 412.583 244.483 412.032C254.888 411.118 266.698 407.646 278.094 405.455C265.132 410.188 251.74 416.297 237.602 414.676C231.364 414.129 227.002 413.231 220.347 413.079C219.902 413.059 219.429 413.059 218.976 413.032C219.499 412.961 220.027 412.879 220.523 412.813Z" fill="#E4C26D"/>
<path d="M184.467 427.498C187.708 427.548 193.594 427.748 195.516 427.396C207.955 424.432 221.05 423.205 233.661 425.873C224.065 425.576 215.707 426.72 207.51 427.994C202.921 428.618 198.41 430.013 193.739 429.939C190.848 429.911 187.459 429.239 185.318 428.966C182.823 428.548 178.382 428.298 176.39 427.369C179.03 427.798 181.776 427.451 184.467 427.498Z" fill="#E4C26D"/>
<path d="M150.411 426.673C141.756 431.512 132.676 436.144 123.154 438.839C131.805 433.98 140.78 429.391 150.411 426.673Z" fill="#E4C26D"/>
<path d="M119.885 446.772C121.931 446.541 123.978 447.119 126.02 447.119C134.823 447.221 143.599 446.92 152.395 447.1C143.252 448.642 133.894 450.361 124.599 449.388C119.065 448.045 113.999 449.013 107.992 450.185C111.007 448.763 115.971 447.143 119.885 446.772Z" fill="#E4C26D"/>
<path d="M193.645 461.081C180.803 460.959 165.911 461.28 154.917 454.847C167.286 458.562 180.627 457.941 193.645 461.081Z" fill="#E4C26D"/>
<path d="M83.7506 475.016C91.0383 475.247 105.747 472.029 116.616 471.829C105.747 474.7 94.4518 477.395 83.1843 475.368C82.6571 475.192 83.8287 474.973 83.7506 475.016Z" fill="#E4C26D"/>
<path d="M92.8114 476.642C103.575 476.744 114.276 479.462 125.071 478.263C114.651 481.657 101.904 479.888 93.2333 478.712C88.613 478.29 83.7818 478.54 79.4154 476.744C83.8287 477.615 88.3435 476.744 92.8114 476.642Z" fill="#E4C26D"/>
<path d="M88.7462 469.134C96.073 465.697 103.599 462.604 110.457 458.261C100.881 467.115 87.1996 473.946 74.5847 474.325C80.2125 473.001 83.7314 471.45 88.7462 469.134Z" fill="#E4C26D"/>
<path d="M58.9973 467.569C60.6142 463.776 62.0124 461.581 63.1138 458.07C67.0545 446.346 73.1589 435.52 79.7671 425.123C75.6506 435.176 71.8623 444.151 66.9686 454.177C64.8752 458.988 62.3601 463.523 59.2473 467.737C58.9505 468.194 58.5716 468.939 58.4232 469.135C58.5912 468.615 58.8021 468.088 58.9973 467.569Z" fill="#E4C26D"/>
</svg>
