<svg width="268" height="146" viewBox="0 0 268 146" fill="none" xmlns="http://www.w3.org/2000/svg">
<path d="M123.382 74.6135C154.259 80.6234 186.895 76.4675 215.28 62.9132L214.961 62.2463C186.718 75.7327 154.246 79.8677 123.523 73.8872L123.382 74.6135Z" fill="#46413B"/>
<path d="M177.837 71.3121C177.815 71.2393 177.793 71.1669 177.769 71.0979C176.563 67.5618 176.987 63.3421 178.988 58.476C180.163 55.6168 181.435 53.5357 182.993 51.9282C184.815 50.05 187.02 48.898 189.24 48.6546C189.183 53.3901 188.241 57.7196 186.438 61.527C184.475 65.6717 181.43 69.132 177.837 71.3121ZM176.803 70.4495C176.881 70.7478 176.97 71.0449 177.07 71.339C177.118 71.4737 177.158 71.6217 177.193 71.7556L177.265 72.0373C177.299 72.1666 177.389 72.5116 177.73 72.4586C177.977 72.4204 178.038 72.2386 178.049 72.0469C181.839 69.7984 185.05 66.1833 187.106 61.8429C189.007 57.8286 189.975 53.2564 189.981 48.252L189.982 47.8587L189.589 47.8828C187.052 48.0372 184.522 49.2923 182.462 51.4138C180.837 53.0913 179.516 55.2457 178.304 58.1944C176.397 62.8343 175.892 66.9574 176.803 70.4495Z" fill="#46413B"/>
<path d="M172.466 50.9058C173.343 56.093 171.082 61.4365 168.999 65.0448C166.243 69.8155 163.029 72.9034 159.434 74.2366C159.465 73.936 159.475 73.5668 159.486 73.1251C159.494 72.8189 159.503 72.494 159.52 72.1724C159.82 66.7065 162.954 61.8365 165.719 57.5397C167.617 54.5861 169.565 51.8586 172.466 50.9058ZM158.622 74.5466C158.629 74.5333 158.663 74.4949 158.725 74.4757L158.935 75.184L158.945 75.1812C163.011 73.9483 166.608 70.6624 169.638 65.4139C172.795 59.9496 173.997 54.7434 173.115 50.362L173.039 49.9768L172.659 50.0775C169.291 50.9758 167.077 54.0593 165.097 57.1397C162.422 61.2971 159.093 66.4706 158.782 72.1323C158.763 72.4605 158.755 72.792 158.747 73.1054C158.733 73.6474 158.714 74.3903 158.622 74.5466Z" fill="#46413B"/>
<path d="M157.693 53.974C157.441 62.0062 152.859 70.0206 145.862 74.7163C146.246 72.8269 146.658 71.0476 147.059 69.3196C147.823 66.0286 148.613 62.6243 150.35 59.6662C152.151 56.6031 154.871 54.5045 157.693 53.974ZM144.803 76.2646L145.524 75.8159C153.27 70.9853 158.34 62.2429 158.442 53.5433L158.447 53.1172L158.024 53.1728C154.826 53.592 151.719 55.8798 149.712 59.2917C147.919 62.3472 147.115 65.807 146.339 69.1529C145.877 71.1451 145.399 73.2055 144.966 75.4314L144.803 76.2646Z" fill="#46413B"/>
<path d="M193.652 66.9669C193.555 66.7134 193.471 66.4494 193.401 66.1801C192.575 63.0162 193.622 59.0943 194.764 55.3499C195.152 54.0851 195.549 52.7929 196.276 51.7223C196.894 50.8159 197.755 50.0667 198.594 49.392C201.481 47.0718 204.672 45.1705 208.086 43.7381C208.098 43.7596 208.108 43.7774 208.116 43.7932C206.266 52.7993 201.01 61.2135 193.652 66.9669ZM192.686 66.3665C192.808 66.8347 192.968 67.2866 193.162 67.7066L193.354 68.1264L193.721 67.8467C201.448 61.9578 206.968 53.2036 208.863 43.8279L208.859 43.6615C208.834 43.5651 208.802 43.4893 208.559 43.0838L208.396 42.8093L208.101 42.931C204.51 44.404 201.156 46.3844 198.131 48.8159C197.248 49.5268 196.338 50.3205 195.665 51.3065C194.875 52.4688 194.461 53.8161 194.062 55.1189C192.884 58.9802 191.812 63.0159 192.686 66.3665Z" fill="#46413B"/>
<path d="M218.884 42.8713C219.24 48.4086 217.568 54.0798 214.251 58.5254C213.252 59.862 211.842 61.4483 209.643 62.1379C209.767 60.9951 209.701 59.8431 209.638 58.7239C209.58 57.695 209.519 56.6316 209.611 55.6059C209.902 52.3989 211.673 49.6941 213.107 47.9906C214.567 46.2601 216.461 44.5813 218.884 42.8713ZM208.744 63.129L209.285 63.0018C212.021 62.36 213.692 60.5087 214.843 58.9673C218.396 54.2069 220.119 48.0831 219.571 42.1667L219.513 41.5397L218.994 41.8957C216.259 43.771 214.149 45.6084 212.542 47.5138C210.387 50.0744 209.119 52.8491 208.875 55.5396C208.778 56.6198 208.839 57.7108 208.9 58.7662C208.975 60.0874 209.046 61.3351 208.837 62.5802L208.744 63.129Z" fill="#46413B"/>
<path d="M243.61 52.1233C242.945 52.5861 242.388 53.1881 241.846 53.7741C241.343 54.3169 240.824 54.8774 240.238 55.2999C238.68 56.4238 236.635 56.6338 234.657 56.836L234.211 56.882C227.86 57.5464 221.706 59.2049 215.894 61.816C218.662 58.4866 221.579 55.1478 225.258 52.7305C229.844 49.7168 235.069 48.8087 239.235 50.3023C239.892 50.5375 240.547 50.839 241.181 51.1303C241.965 51.4905 242.768 51.8594 243.61 52.1233ZM213.198 63.9126L214.723 63.1774C220.892 60.2007 227.475 58.3297 234.288 57.6169L234.733 57.5711C236.806 57.3585 238.952 57.1387 240.67 55.8997C241.316 55.4336 241.86 54.8455 242.388 54.2765C243.122 53.4836 243.815 52.734 244.734 52.3327L245.809 51.8626L244.659 51.6316C243.563 51.4118 242.556 50.9496 241.49 50.4589C240.842 50.1608 240.172 49.8526 239.484 49.6073C235.101 48.0349 229.631 48.9725 224.852 52.1134C220.713 54.8321 217.555 58.6481 214.5 62.3382L213.198 63.9126Z" fill="#46413B"/>
<path d="M239.502 69.7032C237.301 71.248 235.104 72.501 232.732 72.3675C230.546 72.2449 228.702 71.0067 226.75 69.6957C226.06 69.2318 225.346 68.7531 224.624 68.3344C222.344 67.0141 219.802 66.2172 217.188 65.9947C220.254 64.8099 223.049 64.1553 225.69 63.9998C229.744 63.7623 233.318 64.8226 235.756 66.9835C235.984 67.1877 236.214 67.4055 236.446 67.6253C237.34 68.473 238.325 69.4073 239.502 69.7032ZM213.624 66.6925L215.468 66.6706C218.551 66.6345 221.588 67.4302 224.254 68.9734C224.954 69.3806 225.658 69.8525 226.338 70.309C228.288 71.6183 230.303 72.9718 232.69 73.1056C235.601 73.2685 238.167 71.5949 240.758 69.7137L241.875 68.9027L240.502 69.0477C239.167 69.1875 238.043 68.1214 236.955 67.089C236.717 66.8634 236.481 66.6397 236.245 66.4308C233.661 64.1384 229.897 63.0133 225.646 63.2628C222.472 63.4486 219.094 64.3315 215.318 65.9615L213.624 66.6925Z" fill="#46413B"/>
<path d="M223.942 82.2253C216.107 82.1532 207.779 79.4449 200.814 74.6931C203.796 73.7132 207.524 73.1501 211.406 73.1012C212.708 73.0836 214.078 73.1296 215.3 73.5789C217.529 74.3962 218.974 76.3208 220.504 78.3588C221.538 79.7371 222.601 81.152 223.942 82.2253ZM199.218 74.477L199.793 74.8834C207.34 80.2197 216.567 83.1617 225.107 82.9565L226.372 82.9257L225.29 82.2708C223.592 81.2431 222.323 79.5512 221.095 77.9154C219.568 75.8806 217.989 73.7769 215.555 72.8848C214.221 72.3947 212.768 72.3432 211.396 72.3611C207.131 72.4158 203.041 73.0809 199.88 74.235L199.218 74.477Z" fill="#46413B"/>
<path d="M204.766 89.984C200.551 90.8066 196.499 91.3449 193.123 89.6023C190.464 88.2306 188.637 85.6188 187.025 83.316C185.549 81.2109 184.027 79.0391 182.989 76.974C187.343 77.6029 191.81 78.3117 195.853 80.2351C200.378 82.3881 203.612 85.9295 204.766 89.984ZM181.738 76.047L182.02 76.6631C183.077 78.9723 184.777 81.3959 186.42 83.7402C188.08 86.1129 189.962 88.8035 192.784 90.2584C196.475 92.1641 200.809 91.5229 205.298 90.6321L205.679 90.5572L205.555 90.0634C204.413 85.687 200.992 81.8617 196.171 79.568C191.813 77.4947 186.816 76.777 182.409 76.1433L181.738 76.047Z" fill="#46413B"/>
<path d="M173.169 85.2529C172.93 84.3387 172.646 83.4358 172.212 82.7073C177.886 85.1406 183.185 89.547 188.352 96.122C186.961 96.8556 185.348 97.5544 183.652 97.6062C181.131 97.6848 178.521 96.2904 176.67 93.8775C174.968 91.6533 174.119 88.9521 173.57 86.8469C173.512 86.6258 173.457 86.4049 173.402 86.184L173.374 86.0696C173.307 85.8001 173.24 85.5252 173.169 85.2529ZM170.508 82.0375C171.76 82.6201 172.229 84.5183 172.656 86.246L172.684 86.3596C172.739 86.5848 172.796 86.8093 172.855 87.0335C173.421 89.206 174.301 91.9979 176.084 94.3277C178.079 96.9294 180.917 98.431 183.675 98.3462C185.684 98.2836 187.54 97.4098 189.09 96.5642L189.471 96.3569L189.205 96.0137C183.36 88.4848 177.335 83.6895 170.788 81.3541L170.508 82.0375Z" fill="#46413B"/>
<path d="M170.203 103.069C166.612 102.3 163.329 99.2405 161.149 94.6024C160.281 92.7591 159.596 90.7892 158.932 88.8846C158.225 86.854 157.498 84.7633 156.54 82.7876C157.183 83.0096 157.827 83.2174 158.455 83.4204C161.246 84.3232 163.882 85.1764 165.926 86.9751C167.629 88.4802 168.898 90.691 169.595 93.3646C169.702 93.7761 169.795 94.1915 169.873 94.6076C170.384 97.3805 170.306 100.265 170.203 103.069ZM155.013 81.4489L155.466 82.3023C156.612 84.4674 157.437 86.8366 158.235 89.127C158.904 91.0505 159.596 93.0385 160.48 94.9174C162.85 99.9555 166.501 103.221 170.496 103.877L170.91 103.945L170.926 103.525C171.036 100.548 171.151 97.4679 170.599 94.4728C170.518 94.0397 170.423 93.6061 170.311 93.1778C169.576 90.3611 168.228 88.0248 166.414 86.4203C164.255 84.5195 161.548 83.6446 158.683 82.7172C157.776 82.4243 156.838 82.1207 155.92 81.7827L155.013 81.4489Z" fill="#46413B"/>
<path d="M152.856 92.9851C152.311 92.8543 151.752 92.8188 151.209 92.7831C150.406 92.7304 149.649 92.6821 148.997 92.344C148.28 91.9705 147.769 91.2965 147.221 90.5186C146.052 88.8514 144.857 87.0282 144.039 85.0053C143.772 84.343 143.539 83.6374 143.349 82.9091C143.053 81.7755 142.856 80.5792 142.761 79.3457C145.243 80.3477 147.667 82.0727 150.152 84.6051C151.212 85.6864 152.381 87.0032 153.013 88.5616C153.115 88.8183 153.203 89.0799 153.271 89.3408C153.517 90.2871 153.635 91.6667 152.856 92.9851ZM142.634 83.0956C142.832 83.8544 143.074 84.5904 143.354 85.2828C144.2 87.3745 145.422 89.2396 146.616 90.9436C147.198 91.7707 147.792 92.5504 148.655 92.9993C149.445 93.41 150.318 93.4667 151.161 93.5204C151.781 93.5614 152.366 93.5991 152.914 93.7667L153.176 93.847L153.329 93.6199C154.327 92.1355 154.457 90.1595 153.697 88.2842C153.018 86.6058 151.79 85.2209 150.68 84.0873C147.937 81.2937 145.256 79.4488 142.481 78.4481L141.959 78.2592L141.988 78.8145C142.062 80.2993 142.28 81.74 142.634 83.0956Z" fill="#46413B"/>
<path d="M175.652 74.5953L176.232 75.0551C176.978 74.1146 177.589 73.0729 178.048 71.9587L177.364 71.6771C176.932 72.7279 176.356 73.7091 175.652 74.5953Z" fill="#46413B"/>
<path d="M156.27 76.4457L156.634 77.0895C157.692 76.4923 158.661 75.7395 159.514 74.8535L158.98 74.3414C158.178 75.1759 157.265 75.8838 156.27 76.4457Z" fill="#46413B"/>
<path d="M143.966 76.4358L144.487 76.9609C144.966 76.4847 145.42 75.9739 145.82 75.5231L145.267 75.0325C144.875 75.4748 144.429 75.9768 143.966 76.4358Z" fill="#46413B"/>
<path d="M149.424 77.3164C149.986 77.5187 150.487 77.9738 150.889 78.3389C152.473 79.7719 154.062 81.2025 155.651 82.6326L156.145 82.0838C154.557 80.6532 152.969 79.2236 151.385 77.7919C150.935 77.3831 150.374 76.8726 149.674 76.6205L149.424 77.3164Z" fill="#46413B"/>
<path d="M139.913 76.8081C140.644 77.5905 141.357 78.4225 142.034 79.281L142.614 78.8233C141.925 77.949 141.198 77.101 140.453 76.3027L139.913 76.8081Z" fill="#46413B"/>
<path d="M162.244 76.8336C162.912 77.1462 163.566 77.4634 164.221 77.7812L164.294 77.8161C164.927 78.1241 165.581 78.4436 166.187 78.8067C167.006 79.299 167.78 79.8962 168.529 80.4736L171.182 82.5194L171.633 81.9343L168.98 79.8878C168.215 79.2981 167.424 78.6884 166.568 78.1723C165.933 77.793 165.264 77.4673 164.617 77.1516L164.544 77.1167C163.886 76.7974 163.229 76.4785 162.557 76.1644L162.244 76.8336Z" fill="#46413B"/>
<path d="M177.173 74.3507L177.398 74.707L177.35 75.0097C179.135 75.2988 180.814 76.1486 182.436 76.9695L182.771 76.3096C181.096 75.4628 179.365 74.5875 177.468 74.2802L177.253 74.3036L177.173 74.3507Z" fill="#46413B"/>
<path d="M191.277 71.2051L191.978 71.4371C192.431 70.0606 193.176 68.7585 193.896 67.4986L193.255 67.1323C192.517 68.4239 191.753 69.7581 191.277 71.2051Z" fill="#46413B"/>
<path d="M191.512 71.7474C193.018 71.9087 194.378 72.5864 195.819 73.3038C197.187 73.9861 198.602 74.6897 200.154 74.9116L200.257 74.1786C198.825 73.9747 197.525 73.3278 196.149 72.6425C194.712 71.9274 193.228 71.188 191.591 71.012L191.512 71.7474Z" fill="#46413B"/>
<path d="M204.123 66.9091L204.578 67.4914C205.101 67.0828 205.547 66.598 205.978 66.1292C206.268 65.8133 206.558 65.4966 206.873 65.2054C207.22 64.8812 207.607 64.5783 207.983 64.2851C208.64 63.772 209.32 63.24 209.853 62.5519L209.269 62.0998C208.792 62.7152 208.178 63.1941 207.528 63.7028C207.141 64.0055 206.74 64.3185 206.369 64.6644C206.037 64.9715 205.731 65.3057 205.433 65.6291C205.004 66.0958 204.598 66.5383 204.123 66.9091Z" fill="#46413B"/>
<path d="M205.18 67.1871C206.063 67.0506 206.963 67.0684 207.852 67.2384C208.033 67.2738 208.212 67.3145 208.392 67.3558C208.683 67.4228 208.975 67.4896 209.271 67.5317C209.97 67.6369 210.671 67.6069 211.324 67.559C213.232 67.4142 215.117 67.0343 216.929 66.4309L216.695 65.7295C214.941 66.3145 213.115 66.6816 211.269 66.8217C210.659 66.8663 210.008 66.8957 209.378 66.8011C209.1 66.7608 208.829 66.6984 208.557 66.6352C208.37 66.5927 208.183 66.5491 207.993 66.5121C207.019 66.3257 206.035 66.307 205.067 66.4567L205.18 67.1871Z" fill="#463C3B"/>
<path d="M155.011 57.5303C155.081 57.8143 154.891 58.1083 154.834 58.3862C154.167 60.4737 153.295 62.489 152.325 64.4488C150.403 68.2658 148.091 71.897 145.436 75.2451C147.266 72.9156 148.597 70.0582 149.838 67.3129C150.819 64.9724 152.044 62.7 152.863 60.3066C152.509 60.9676 152.183 61.6491 151.844 62.3103C151.459 63.0937 151.11 63.8916 150.766 64.6955C151.001 63.545 151.296 62.3798 151.824 61.3301C152.534 60.2739 153.373 59.3026 154.178 58.3164C154.425 58.05 154.649 57.7547 154.945 57.5402C154.965 57.5277 154.995 57.5124 155.011 57.5303Z" fill="#46413B"/>
<path d="M185.57 55.2755C184.128 61.3162 180.712 66.5918 177.75 71.9751C179.707 67.3539 181.911 62.8457 183.816 58.2014C184.085 57.5502 184.411 56.9112 184.624 56.2363C184.511 56.4185 184.403 56.5997 184.285 56.78C183.898 57.3728 183.5 57.9579 183.1 58.5441C183.681 57.6555 184.158 56.6978 184.742 55.8167C184.728 55.8122 184.716 55.8235 184.707 55.8332C184.755 55.7707 184.804 55.7081 184.853 55.6464C185.082 55.3112 185.33 54.9859 185.611 54.6847C185.86 54.3518 185.605 55.178 185.57 55.2755Z" fill="#46413B"/>
<path d="M167.294 60.5163C165.907 63.6022 164.342 66.604 162.636 69.5239C161.669 71.1046 160.759 72.7826 159.536 74.1826C160.305 73.2066 161.019 71.6721 161.865 70.0533C163.633 66.5976 165.555 63.2202 167.52 59.8731C167.612 59.7151 167.706 59.5615 167.799 59.4074C167.633 59.7784 167.466 60.1512 167.294 60.5163Z" fill="#46413B"/>
<path d="M159.536 74.1864C159.367 74.4013 159.194 74.5886 159.017 74.7451C159.195 74.5615 159.367 74.3751 159.536 74.1864Z" fill="#46413B"/>
<path d="M203.252 51.2929C199.837 56.3394 197.027 61.7885 193.534 66.7836C193.43 66.9593 193.331 67.1331 193.226 67.3065C193.257 67.2339 193.292 67.1596 193.322 67.0872C193.262 67.1674 193.212 67.2492 193.153 67.333C193.222 67.2311 193.285 67.123 193.35 67.0186C195.191 62.73 197.339 58.56 199.967 54.7009C198.756 56.9541 197.61 59.2352 196.429 61.5025C198.627 57.7165 201.087 54.0915 203.73 50.6022C204.189 49.9906 203.412 51.052 203.252 51.2929Z" fill="#46413B"/>
<path d="M145.451 82.9745C146.047 83.8658 146.786 84.6623 147.335 85.5854C146.375 84.666 145.302 83.847 144.532 82.7454C143.572 81.4377 142.87 79.8562 142.121 78.4788C143.395 79.8523 144.402 81.4386 145.451 82.9745Z" fill="#46413B"/>
<path d="M155.904 81.9899C157.445 82.948 158.646 83.7451 159.858 85.0107C161.652 86.9374 163.093 89.2233 164.114 91.6459C163.187 90.2724 162.04 88.9825 160.91 87.5624C159.314 85.6152 157.841 83.822 156 82.24C155.812 82.0634 155.577 81.8463 155.416 81.7011C155.575 81.797 155.74 81.891 155.904 81.9899Z" fill="#46413B"/>
<path d="M177.295 86.702C179.237 89.1939 180.584 91.676 183.015 93.7044C180.13 92.078 178.146 89.3487 176.23 86.7282C175.572 85.8034 173.343 83.2645 171.698 81.8334C173.196 82.6985 175.885 84.8664 177.295 86.702Z" fill="#46413B"/>
<path d="M183.157 76.4837C184.122 76.7966 185.774 77.0683 186.974 77.511C190.879 79.0096 195.035 81.9394 198.13 85.2646C195.858 83.4094 193.304 81.9368 190.783 80.4564C187.911 78.7331 185.765 77.7627 183.233 77.0066C183.263 77.0437 183.296 77.0856 183.337 77.1396C183.842 77.7749 184.365 78.414 184.866 79.0473C184.841 79.0236 184.816 79.0029 184.791 78.9794C184.034 78.2863 183.224 77.6422 182.557 76.8617C182.491 76.7833 182.455 76.6857 182.48 76.5796C182.565 76.2748 183.046 76.4482 183.157 76.4837Z" fill="#46413B"/>
<path d="M200.655 74.4322C204.694 74.5769 212.18 75.1454 215.106 78.0742C213.427 76.8634 211.208 76.693 209.177 76.2989C206.317 75.8196 203.504 75.0949 200.645 74.5907C200.357 74.54 199.94 74.4618 199.736 74.4113C200.038 74.4125 200.347 74.4128 200.655 74.4322Z" fill="#46413B"/>
<path d="M208.501 77.468C207.217 76.8977 205.825 76.6423 204.492 76.2302C203.162 75.8176 201.482 75.1446 200.385 74.6889C203.19 75.2071 206.105 75.8554 208.501 77.468Z" fill="#46413B"/>
<path d="M214.33 52.3482C213.243 56.217 211.986 60.3304 208.868 63.0762C209.837 61.9188 210.54 60.5434 211.196 59.1801C212.225 57.0781 212.859 55.4396 213.715 53.4932C213.931 53.0129 214.174 52.5147 214.413 52.0659C214.386 52.157 214.358 52.2526 214.33 52.3482Z" fill="#46413B"/>
<path d="M231.177 54.1242C228.874 55.0158 226.699 56.2973 224.499 57.4514C221.646 58.959 218.723 60.3342 215.806 61.7091C215.627 61.7899 215.424 61.9009 215.281 61.98C215.483 61.8055 215.697 61.6459 215.913 61.4907C220.532 58.2193 225.586 55.2936 231.177 54.1242Z" fill="#46413B"/>
<path d="M219.789 65.765C222.162 65.6966 224.511 66.1824 226.83 66.6404C227.755 66.7694 228.588 67.0635 229.536 66.8202C228.965 67.1227 228.296 67.1169 227.664 67.1402C224.939 67.2245 222.335 66.3613 219.686 65.8841C219.586 65.8637 219.264 65.8332 219.168 65.8166C219.377 65.7964 219.583 65.777 219.789 65.765Z" fill="#46413B"/>
<path d="M143.712 74.6135C112.835 80.6234 80.1983 76.4675 51.8142 62.9132L52.1328 62.2463C80.3753 75.7327 112.848 79.8677 143.571 73.8872L143.712 74.6135Z" fill="#46413B"/>
<path d="M89.2568 71.3121C89.2783 71.2393 89.3012 71.1669 89.325 71.0979C90.531 67.5618 90.1065 63.3421 88.1062 58.476C86.9305 55.6168 85.6588 53.5357 84.1009 51.9282C82.2787 50.05 80.0742 48.898 77.854 48.6546C77.9103 53.3901 78.8528 57.7196 80.6562 61.527C82.6192 65.6717 85.6636 69.132 89.2568 71.3121ZM90.2907 70.4495C90.2129 70.7478 90.124 71.0449 90.0235 71.339C89.9761 71.4737 89.9359 71.6217 89.901 71.7556L89.8283 72.0373C89.7946 72.1666 89.7046 72.5116 89.3638 72.4586C89.1172 72.4204 89.056 72.2386 89.0447 72.0469C85.2552 69.7984 82.0437 66.1833 79.988 61.8429C78.0866 57.8286 77.1191 53.2564 77.1126 48.252L77.1114 47.8587L77.5047 47.8828C80.0414 48.0372 82.572 49.2923 84.6314 51.4138C86.2568 53.0913 87.578 55.2457 88.79 58.1944C90.6965 62.8343 91.2018 66.9574 90.2907 70.4495Z" fill="#46413B"/>
<path d="M94.6282 50.9058C93.7504 56.093 96.0117 61.4365 98.0951 65.0448C100.851 69.8155 104.065 72.9034 107.659 74.2366C107.628 73.936 107.619 73.5668 107.608 73.1251C107.599 72.8189 107.591 72.494 107.574 72.1724C107.273 66.7065 104.14 61.8365 101.375 57.5397C99.4772 54.5861 97.5285 51.8586 94.6282 50.9058ZM108.472 74.5466C108.464 74.5333 108.43 74.4949 108.369 74.4757L108.159 75.184L108.148 75.1812C104.083 73.9483 100.486 70.6624 97.4554 65.4139C94.299 59.9496 93.0967 54.7434 93.9783 50.362L94.0551 49.9768L94.4349 50.0775C97.8029 50.9758 100.017 54.0593 101.997 57.1397C104.672 61.2971 108.001 66.4706 108.312 72.1323C108.33 72.4605 108.339 72.792 108.347 73.1054C108.361 73.6474 108.38 74.3903 108.472 74.5466Z" fill="#46413B"/>
<path d="M109.401 53.974C109.653 62.0062 114.235 70.0206 121.232 74.7163C120.848 72.8269 120.436 71.0476 120.035 69.3196C119.271 66.0286 118.48 62.6243 116.744 59.6662C114.943 56.6031 112.223 54.5045 109.401 53.974ZM122.291 76.2646L121.569 75.8159C113.824 70.9853 108.754 62.2429 108.652 53.5433L108.647 53.1172L109.07 53.1728C112.268 53.592 115.374 55.8798 117.381 59.2917C119.175 62.3472 119.979 65.807 120.755 69.1529C121.217 71.1451 121.695 73.2055 122.128 75.4314L122.291 76.2646Z" fill="#46413B"/>
<path d="M73.442 66.9669C73.5383 66.7134 73.6227 66.4494 73.693 66.1801C74.5184 63.0162 73.4721 59.0943 72.3295 55.3499C71.9413 54.0851 71.5448 52.7929 70.8175 51.7223C70.1993 50.8159 69.3383 50.0667 68.4996 49.392C65.6129 47.0718 62.4216 45.1705 59.0074 43.7381C58.9961 43.7596 58.9858 43.7774 58.9775 43.7932C60.8275 52.7993 66.0837 61.2135 73.442 66.9669ZM74.4075 66.3665C74.2853 66.8347 74.1258 67.2866 73.932 67.7066L73.74 68.1264L73.3726 67.8467C65.6453 61.9578 60.1256 53.2036 58.2307 43.8279L58.2349 43.6615C58.26 43.5651 58.292 43.4893 58.5351 43.0838L58.6982 42.8093L58.9925 42.931C62.584 44.404 65.9376 46.3844 68.9628 48.8159C69.846 49.5268 70.7559 50.3205 71.4284 51.3065C72.2192 52.4688 72.6325 53.8161 73.032 55.1189C74.2094 58.9802 75.2816 63.0159 74.4075 66.3665Z" fill="#46413B"/>
<path d="M48.2099 42.8713C47.8535 48.4086 49.5261 54.0798 52.8428 58.5254C53.8414 59.862 55.2521 61.4483 57.4506 62.1379C57.3263 60.9951 57.3923 59.8431 57.4556 58.7239C57.514 57.695 57.575 56.6316 57.4831 55.6059C57.1914 52.3989 55.4206 49.6941 53.9866 47.9906C52.5271 46.2601 50.6332 44.5813 48.2099 42.8713ZM58.3497 63.129L57.8085 63.0018C55.073 62.36 53.4015 60.5087 52.2504 58.9673C48.6979 54.2069 46.9751 48.0831 47.5227 42.1667L47.5809 41.5397L48.1 41.8957C50.8348 43.771 52.9447 45.6084 54.5514 47.5138C56.7063 50.0744 57.9744 52.8491 58.2186 55.5396C58.3159 56.6198 58.2543 57.7108 58.1938 58.7662C58.1187 60.0874 58.0473 61.3351 58.2568 62.5802L58.3497 63.129Z" fill="#46413B"/>
<path d="M23.4835 52.1233C24.1487 52.5861 24.7057 53.1881 25.2482 53.7741C25.7504 54.3169 26.2701 54.8774 26.856 55.2999C28.4142 56.4238 30.4592 56.6338 32.4368 56.836L32.8824 56.882C39.234 57.5464 45.3875 59.2049 51.1993 61.816C48.4313 58.4866 45.5145 55.1478 41.836 52.7305C37.2494 49.7168 32.0244 48.8087 27.8592 50.3023C27.2013 50.5375 26.5466 50.839 25.9126 51.1303C25.1291 51.4905 24.3261 51.8594 23.4835 52.1233ZM53.896 63.9126L52.3712 63.1774C46.2013 60.2007 39.6187 58.3297 32.8058 57.6169L32.361 57.5711C30.2873 57.3585 28.1419 57.1387 26.4241 55.8997C25.7777 55.4336 25.2334 54.8455 24.7061 54.2765C23.9718 53.4836 23.2784 52.734 22.3602 52.3327L21.285 51.8626L22.4352 51.6316C23.531 51.4118 24.5373 50.9496 25.6033 50.4589C26.2522 50.1608 26.9217 49.8526 27.6099 49.6073C31.9926 48.0349 37.4624 48.9725 42.2422 52.1134C46.3804 54.8321 49.5387 58.6481 52.5934 62.3382L53.896 63.9126Z" fill="#46413B"/>
<path d="M27.5917 69.7032C29.7926 71.248 31.9896 72.501 34.362 72.3675C36.5477 72.2449 38.3913 71.0067 40.3437 69.6957C41.0334 69.2318 41.7474 68.7531 42.4694 68.3344C44.7494 67.0141 47.2916 66.2172 49.9054 65.9947C46.8393 64.8099 44.045 64.1553 41.4041 63.9998C37.3497 63.7623 33.7755 64.8226 31.3382 66.9835C31.1093 67.1877 30.8793 67.4055 30.6479 67.6253C29.7535 68.473 28.7687 69.4073 27.5917 69.7032ZM53.4695 66.6925L51.6254 66.6706C48.5432 66.6345 45.5053 67.4302 42.8395 68.9734C42.1393 69.3806 41.436 69.8525 40.7556 70.309C38.8061 71.6183 36.7911 72.9718 34.4039 73.1056C31.4927 73.2685 28.9267 71.5949 26.3356 69.7137L25.2187 68.9027L26.5919 69.0477C27.9264 69.1875 29.0511 68.1214 30.1391 67.089C30.3769 66.8634 30.6125 66.6397 30.8484 66.4308C33.4327 64.1384 37.1971 63.0133 41.4477 63.2628C44.6216 63.4486 47.9993 64.3315 51.7761 65.9615L53.4695 66.6925Z" fill="#46413B"/>
<path d="M43.1518 82.2253C50.9864 82.1532 59.3144 79.4449 66.28 74.6931C63.2977 73.7132 59.5702 73.1501 55.6873 73.1012C54.3862 73.0836 53.0155 73.1296 51.7936 73.5789C49.5647 74.3962 48.1197 76.3208 46.5896 78.3588C45.5559 79.7371 44.4931 81.152 43.1518 82.2253ZM67.8757 74.477L67.3007 74.8834C59.7537 80.2197 50.5272 83.1617 41.9863 82.9565L40.7222 82.9257L41.804 82.2708C43.502 81.2431 44.7711 79.5512 45.9985 77.9154C47.5254 75.8806 49.1045 73.7769 51.5384 72.8848C52.873 72.3947 54.3261 72.3432 55.6974 72.3611C59.9628 72.4158 64.0526 73.0809 67.2142 74.235L67.8757 74.477Z" fill="#46413B"/>
<path d="M62.3278 89.984C66.5424 90.8066 70.5943 91.3449 73.9707 89.6023C76.6302 88.2306 78.4571 85.6188 80.0685 83.316C81.5451 81.2109 83.0669 79.0391 84.1048 76.974C79.751 77.6029 75.2839 78.3117 71.241 80.2351C66.7158 82.3881 63.4821 85.9295 62.3278 89.984ZM85.3558 76.047L85.0741 76.6631C84.0165 78.9723 82.3172 81.3959 80.6736 83.7402C79.0137 86.1129 77.1319 88.8035 74.3093 90.2584C70.6183 92.1641 66.2845 91.5229 61.796 90.6321L61.4152 90.5572L61.5391 90.0634C62.6809 85.687 66.1014 81.8617 70.9232 79.568C75.2805 77.4947 80.2777 76.777 84.6851 76.1433L85.3558 76.047Z" fill="#46413B"/>
<path d="M93.9251 85.2529C94.1636 84.3387 94.4482 83.4358 94.8817 82.7073C89.2074 85.1406 83.9088 89.547 78.7422 96.122C80.1326 96.8556 81.7462 97.5544 83.4419 97.6062C85.9632 97.6848 88.5731 96.2904 90.4233 93.8775C92.1262 91.6533 92.9747 88.9521 93.524 86.8469C93.5816 86.6258 93.6368 86.4049 93.692 86.184L93.7202 86.0696C93.7864 85.8001 93.8541 85.5252 93.9251 85.2529ZM96.586 82.0375C95.3334 82.6201 94.8644 84.5183 94.4373 86.246L94.4093 86.3596C94.3546 86.5848 94.2977 86.8093 94.2392 87.0335C93.6724 89.206 92.7928 91.9979 91.0093 94.3277C89.0151 96.9294 86.1771 98.431 83.4188 98.3462C81.4097 98.2836 79.5542 97.4098 78.0042 96.5642L77.6228 96.3569L77.8889 96.0137C83.7333 88.4848 89.7584 83.6895 96.3059 81.3541L96.586 82.0375Z" fill="#46413B"/>
<path d="M96.8908 103.069C100.482 102.3 103.764 99.2405 105.945 94.6024C106.812 92.7591 107.498 90.7892 108.162 88.8846C108.869 86.854 109.595 84.7633 110.554 82.7876C109.911 83.0096 109.267 83.2174 108.639 83.4204C105.848 84.3232 103.212 85.1764 101.168 86.9751C99.465 88.4802 98.1962 90.691 97.4986 93.3646C97.3913 93.7761 97.2984 94.1915 97.2209 94.6076C96.7099 97.3805 96.7882 100.265 96.8908 103.069ZM112.08 81.4489L111.628 82.3023C110.481 84.4674 109.657 86.8366 108.859 89.127C108.19 91.0505 107.498 93.0385 106.614 94.9174C104.244 99.9555 100.592 103.221 96.5976 103.877L96.1837 103.945L96.168 103.525C96.0576 100.548 95.9428 97.4679 96.4946 94.4728C96.5757 94.0397 96.6708 93.6061 96.7826 93.1778C97.5175 90.3611 98.8656 88.0248 100.68 86.4203C102.839 84.5195 105.546 83.6446 108.411 82.7172C109.318 82.4243 110.255 82.1207 111.174 81.7827L112.08 81.4489Z" fill="#46413B"/>
<path d="M114.238 92.9851C114.782 92.8543 115.342 92.8188 115.884 92.7831C116.687 92.7304 117.445 92.6821 118.097 92.344C118.814 91.9705 119.325 91.2965 119.873 90.5186C121.042 88.8514 122.237 87.0282 123.055 85.0053C123.322 84.343 123.555 83.6374 123.745 82.9091C124.041 81.7755 124.238 80.5792 124.333 79.3457C121.85 80.3477 119.427 82.0727 116.942 84.6051C115.882 85.6864 114.712 87.0032 114.081 88.5616C113.978 88.8183 113.891 89.0799 113.823 89.3408C113.576 90.2871 113.459 91.6667 114.238 92.9851ZM124.46 83.0956C124.262 83.8544 124.02 84.5904 123.739 85.2828C122.894 87.3745 121.672 89.2396 120.477 90.9436C119.896 91.7707 119.302 92.5504 118.439 92.9993C117.648 93.41 116.776 93.4667 115.932 93.5204C115.313 93.5614 114.728 93.5991 114.18 93.7667L113.918 93.847L113.765 93.6199C112.766 92.1355 112.636 90.1595 113.397 88.2842C114.076 86.6058 115.303 85.2209 116.414 84.0873C119.157 81.2937 121.837 79.4488 124.612 78.4481L125.135 78.2592L125.106 78.8145C125.032 80.2993 124.813 81.74 124.46 83.0956Z" fill="#46413B"/>
<path d="M91.4413 74.5953L90.8613 75.0551C90.1156 74.1146 89.505 73.0729 89.0456 71.9587L89.7294 71.6771C90.162 72.7279 90.7378 73.7091 91.4413 74.5953Z" fill="#46413B"/>
<path d="M110.823 76.4457L110.46 77.0895C109.402 76.4923 108.433 75.7395 107.58 74.8535L108.113 74.3414C108.916 75.1759 109.829 75.8838 110.823 76.4457Z" fill="#46413B"/>
<path d="M123.128 76.4358L122.607 76.9609C122.128 76.4847 121.674 75.9739 121.273 75.5231L121.826 75.0325C122.219 75.4748 122.665 75.9768 123.128 76.4358Z" fill="#46413B"/>
<path d="M117.67 77.3164C117.108 77.5187 116.607 77.9738 116.205 78.3389C114.62 79.7719 113.032 81.2025 111.442 82.6326L110.948 82.0838C112.536 80.6532 114.125 79.2236 115.709 77.7919C116.159 77.3831 116.72 76.8726 117.42 76.6205L117.67 77.3164Z" fill="#46413B"/>
<path d="M127.181 76.8081C126.45 77.5905 125.737 78.4225 125.06 79.281L124.48 78.8233C125.169 77.949 125.895 77.101 126.641 76.3027L127.181 76.8081Z" fill="#46413B"/>
<path d="M104.85 76.8336C104.181 77.1462 103.528 77.4634 102.873 77.7812L102.8 77.8161C102.167 78.1241 101.513 78.4436 100.906 78.8067C100.088 79.299 99.3141 79.8962 98.5646 80.4736L95.9115 82.5194L95.4603 81.9343L98.1136 79.8878C98.8786 79.2981 99.6701 78.6884 100.526 78.1723C101.161 77.793 101.829 77.4673 102.476 77.1516L102.549 77.1167C103.208 76.7974 103.865 76.4785 104.536 76.1644L104.85 76.8336Z" fill="#46413B"/>
<path d="M89.9209 74.3507L89.6956 74.707L89.7441 75.0097C87.9586 75.2988 86.2801 76.1486 84.6573 76.9695L84.3229 76.3096C85.9974 75.4628 87.7283 74.5875 89.6256 74.2802L89.8409 74.3036L89.9209 74.3507Z" fill="#46413B"/>
<path d="M75.8172 71.2051L75.1153 71.4371C74.6623 70.0606 73.9178 68.7585 73.1974 67.4986L73.8387 67.1323C74.577 68.4239 75.3409 69.7581 75.8172 71.2051Z" fill="#46413B"/>
<path d="M75.5814 71.7474C74.076 71.9087 72.7153 72.5864 71.2748 73.3038C69.9064 73.9861 68.4915 74.6897 66.94 74.9116L66.8363 74.1786C68.2687 73.9747 69.5691 73.3278 70.9449 72.6425C72.3815 71.9274 73.8661 71.188 75.5028 71.012L75.5814 71.7474Z" fill="#46413B"/>
<path d="M62.971 66.9091L62.516 67.4914C61.9927 67.0828 61.5472 66.598 61.1155 66.1292C60.8254 65.8133 60.5354 65.4966 60.2209 65.2054C59.874 64.8812 59.4865 64.5783 59.1112 64.2851C58.4534 63.772 57.7735 63.24 57.2406 62.5519L57.825 62.0998C58.3018 62.7152 58.9162 63.1941 59.5662 63.7028C59.953 64.0055 60.3542 64.3185 60.7248 64.6644C61.0564 64.9715 61.3631 65.3057 61.6603 65.6291C62.09 66.0958 62.4958 66.5383 62.971 66.9091Z" fill="#46413B"/>
<path d="M61.9138 67.1871C61.0303 67.0506 60.131 67.0684 59.2418 67.2384C59.061 67.2738 58.882 67.3145 58.7021 67.3558C58.4109 67.4228 58.119 67.4896 57.8228 67.5317C57.1238 67.6369 56.4232 67.6069 55.7698 67.559C53.8622 67.4142 51.9767 67.0343 50.1651 66.4309L50.3987 65.7295C52.1523 66.3145 53.979 66.6816 55.825 66.8217C56.4343 66.8663 57.0859 66.8957 57.716 66.8011C57.9937 66.7608 58.2649 66.6984 58.5363 66.6352C58.7239 66.5927 58.911 66.5491 59.1012 66.5121C60.0747 66.3257 61.0584 66.307 62.0268 66.4567L61.9138 67.1871Z" fill="#463C3B"/>
<path d="M112.082 57.5303C112.012 57.8143 112.203 58.1083 112.259 58.3862C112.927 60.4737 113.799 62.489 114.769 64.4488C116.691 68.2658 119.002 71.897 121.658 75.2451C119.828 72.9156 118.497 70.0582 117.256 67.3129C116.274 64.9724 115.049 62.7 114.231 60.3066C114.585 60.9676 114.911 61.6491 115.25 62.3103C115.635 63.0937 115.984 63.8916 116.328 64.6955C116.093 63.545 115.798 62.3798 115.269 61.3301C114.56 60.2739 113.721 59.3026 112.916 58.3164C112.668 58.05 112.445 57.7547 112.148 57.5402C112.129 57.5277 112.099 57.5124 112.082 57.5303Z" fill="#46413B"/>
<path d="M81.5241 55.2755C82.9655 61.3162 86.3819 66.5918 89.3438 71.9751C87.3866 67.3539 85.1827 62.8457 83.2781 58.2014C83.0085 57.5502 82.6825 56.9112 82.4696 56.2363C82.5823 56.4185 82.691 56.5997 82.809 56.78C83.1961 57.3728 83.5941 57.9579 83.9935 58.5441C83.4124 57.6555 82.9359 56.6978 82.352 55.8167C82.3662 55.8122 82.378 55.8235 82.3869 55.8332C82.3386 55.7707 82.2896 55.7081 82.2412 55.6464C82.0116 55.3112 81.7639 54.9859 81.483 54.6847C81.2341 54.3518 81.4883 55.178 81.5241 55.2755Z" fill="#46413B"/>
<path d="M99.7993 60.5163C101.186 63.6022 102.752 66.604 104.458 69.5239C105.425 71.1046 106.335 72.7826 107.558 74.1826C106.789 73.2066 106.075 71.6721 105.228 70.0533C103.461 66.5976 101.538 63.2202 99.5733 59.8731C99.4813 59.7151 99.3874 59.5615 99.2945 59.4074C99.4608 59.7784 99.6274 60.1512 99.7993 60.5163Z" fill="#46413B"/>
<path d="M107.557 74.1864C107.727 74.4013 107.899 74.5886 108.077 74.7451C107.899 74.5615 107.726 74.3751 107.557 74.1864Z" fill="#46413B"/>
<path d="M63.8416 51.2929C67.2565 56.3394 70.0664 61.7885 73.56 66.7836C73.6637 66.9593 73.763 67.1331 73.8673 67.3065C73.8364 67.2339 73.8018 67.1596 73.7717 67.0872C73.8317 67.1674 73.8822 67.2492 73.9404 67.333C73.8722 67.2311 73.8089 67.123 73.7438 67.0186C71.9026 62.73 69.755 58.56 67.1268 54.7009C68.338 56.9541 69.484 59.2352 70.6647 61.5025C68.4668 57.7165 66.0063 54.0915 63.3641 50.6022C62.9052 49.9906 63.6822 51.052 63.8416 51.2929Z" fill="#46413B"/>
<path d="M121.642 82.9745C121.047 83.8658 120.307 84.6623 119.758 85.5854C120.719 84.666 121.792 83.847 122.562 82.7454C123.521 81.4377 124.224 79.8562 124.973 78.4788C123.699 79.8523 122.692 81.4386 121.642 82.9745Z" fill="#46413B"/>
<path d="M111.19 81.9899C109.648 82.948 108.448 83.7451 107.236 85.0107C105.442 86.9374 104 89.2233 102.979 91.6459C103.906 90.2724 105.053 88.9825 106.184 87.5624C107.78 85.6152 109.253 83.822 111.094 82.24C111.281 82.0634 111.517 81.8463 111.677 81.7011C111.519 81.797 111.353 81.891 111.19 81.9899Z" fill="#46413B"/>
<path d="M89.7986 86.702C87.8567 89.1939 86.5098 91.676 84.0785 93.7044C86.9638 92.078 88.9479 89.3487 90.8637 86.7282C91.5217 85.8034 93.7503 83.2645 95.3959 81.8334C93.898 82.6985 91.2089 84.8664 89.7986 86.702Z" fill="#46413B"/>
<path d="M83.9363 76.4837C82.9715 76.7966 81.3196 77.0683 80.1199 77.511C76.2148 79.0096 72.0588 81.9394 68.964 85.2646C71.2357 83.4094 73.79 81.9368 76.3112 80.4564C79.1825 78.7331 81.3288 77.7627 83.8612 77.0066C83.8311 77.0437 83.7973 77.0856 83.757 77.1396C83.2514 77.7749 82.7292 78.414 82.2282 79.0473C82.2532 79.0236 82.2774 79.0029 82.3031 78.9794C83.06 78.2863 83.8702 77.6422 84.5363 76.8617C84.6025 76.7833 84.6386 76.6857 84.614 76.5796C84.5292 76.2748 84.0477 76.4482 83.9363 76.4837Z" fill="#46413B"/>
<path d="M66.4392 74.4322C62.3996 74.5769 54.9142 75.1454 51.9882 78.0742C53.6669 76.8634 55.8855 76.693 57.9166 76.2989C60.7771 75.8196 63.5897 75.0949 66.4485 74.5907C66.7363 74.54 67.1538 74.4618 67.3581 74.4113C67.0555 74.4125 66.7466 74.4128 66.4392 74.4322Z" fill="#46413B"/>
<path d="M58.5927 77.468C59.8764 76.8977 61.2683 76.6423 62.6014 76.2302C63.9322 75.8176 65.6119 75.1446 66.7088 74.6889C63.9035 75.2071 60.9891 75.8554 58.5927 77.468Z" fill="#46413B"/>
<path d="M52.7638 52.3482C53.851 56.217 55.108 60.3304 58.2261 63.0762C57.2567 61.9188 56.5542 60.5434 55.8976 59.1801C54.8683 57.0781 54.2344 55.4396 53.3786 53.4932C53.1631 53.0129 52.9197 52.5147 52.6806 52.0659C52.7075 52.157 52.7356 52.2526 52.7638 52.3482Z" fill="#46413B"/>
<path d="M35.9169 54.1242C38.2196 55.0158 40.3944 56.2973 42.5943 57.4514C45.4479 58.959 48.3704 60.3342 51.288 61.7091C51.4663 61.7899 51.6694 61.9009 51.813 61.98C51.6109 61.8055 51.3968 61.6459 51.1808 61.4907C46.5617 58.2193 41.5076 55.2936 35.9169 54.1242Z" fill="#46413B"/>
<path d="M47.305 65.765C44.9322 65.6966 42.5823 66.1824 40.2633 66.6404C39.3391 66.7694 38.5057 67.0635 37.5577 66.8202C38.1283 67.1227 38.7982 67.1169 39.4294 67.1402C42.1543 67.2245 44.7587 66.3613 47.4079 65.8841C47.508 65.8637 47.8297 65.8332 47.9256 65.8166C47.7168 65.7964 47.511 65.777 47.305 65.765Z" fill="#46413B"/>
</svg>
