<svg width="88" height="88" viewBox="0 0 88 88" fill="none" xmlns="http://www.w3.org/2000/svg">
<circle cx="44" cy="44.0001" r="44" fill="#444444"/>
<path d="M21.375 64.2501C21.375 66.1169 22.8832 67.6251 24.75 67.6251H41.625V50.7501H21.375V64.2501ZM48.375 67.6251H65.25C67.1168 67.6251 68.625 66.1169 68.625 64.2501V50.7501H48.375V67.6251ZM68.625 33.8751H64.1848C64.8387 32.599 65.25 31.1857 65.25 29.6564C65.25 24.5411 61.084 20.3751 55.9688 20.3751C51.5812 20.3751 48.7441 22.6216 45.1055 27.5786C41.4668 22.6216 38.6297 20.3751 34.2422 20.3751C29.127 20.3751 24.9609 24.5411 24.9609 29.6564C24.9609 31.1857 25.3617 32.599 26.0262 33.8751H21.375C19.5082 33.8751 18 35.3833 18 37.2501V45.6876C18 46.6157 18.7594 47.3751 19.6875 47.3751H70.3125C71.2406 47.3751 72 46.6157 72 45.6876V37.2501C72 35.3833 70.4918 33.8751 68.625 33.8751ZM34.2316 33.8751C31.9008 33.8751 30.0129 31.9872 30.0129 29.6564C30.0129 27.3255 31.9008 25.4376 34.2316 25.4376C36.3305 25.4376 37.8809 25.7857 43.3125 33.8751H34.2316ZM55.9688 33.8751H46.8879C52.309 25.8068 53.8172 25.4376 55.9688 25.4376C58.2996 25.4376 60.1875 27.3255 60.1875 29.6564C60.1875 31.9872 58.2996 33.8751 55.9688 33.8751Z" fill="white"/>
</svg>
