<svg width="82" height="82" viewBox="0 0 82 82" fill="none" xmlns="http://www.w3.org/2000/svg">
<rect y="0.00012207" width="82" height="82" rx="5" fill="#5B5752"/>
<path d="M21.0703 49.1076V31.0921C26.6728 28.5648 37.9067 23.5104 40.9204 23.5104C43.9342 23.5104 55.6511 28.5648 60.7705 31.0921V49.0526C60.7705 49.6857 60.5109 50.3084 60.0511 50.7435C44.3573 65.5925 28.4392 57.3413 21.7251 50.7176C21.2957 50.2941 21.0703 49.7107 21.0703 49.1076Z" stroke="white" stroke-width="1.78111" stroke-linejoin="round"/>
<path d="M14.3216 30.7209C14.3026 29.6443 15.4006 28.9063 16.3903 29.3305L20.7715 31.2081V46.771L15.2051 43.2131C14.7862 42.9453 14.5292 42.4857 14.5205 41.9886L14.3216 30.7209Z" stroke="white" stroke-width="1.78111"/>
<path d="M67.5182 30.7209C67.5372 29.6443 66.4393 28.9063 65.4495 29.3305L61.0684 31.2081V46.771L66.6347 43.2131C67.0536 42.9453 67.3106 42.4857 67.3194 41.9886L67.5182 30.7209Z" stroke="white" stroke-width="1.78111"/>
<path d="M41.2158 35.3615V47.2123" stroke="white" stroke-width="1.78111" stroke-linecap="round"/>
<path d="M35.2903 41.2866H47.1411" stroke="white" stroke-width="1.78111" stroke-linecap="round"/>
</svg>
