<svg width="82" height="82" viewBox="0 0 82 82" fill="none" xmlns="http://www.w3.org/2000/svg">
<rect y="0.00012207" width="82" height="82" rx="2.1238" fill="#5B5752"/>
<path d="M16 60.5001H65.5405C63.2568 63.6623 58.6892 65.9461 55.1757 66.8244H26.3649C21.7838 66.8244 17.3468 62.6082 16 60.5001Z" stroke="white" stroke-width="2.10811" stroke-linejoin="round"/>
<path d="M16 53.8243H65.5405C63.2568 56.9865 58.6892 59.2703 55.1757 60.1487H26.3649C21.7838 60.1487 17.3468 55.9324 16 53.8243Z" stroke="white" stroke-width="2.10811" stroke-linejoin="round"/>
<path d="M18.3776 53.8244C16.2277 50.0402 15 45.6635 15 41.0001C15 26.6407 26.6406 15.0001 41 15.0001C55.3594 15.0001 67 26.6407 67 41.0001C67 45.6635 65.7723 50.0402 63.6224 53.8244" stroke="white" stroke-width="2.10811"/>
<path d="M26.0675 53.7022C23.1098 50.2356 21.3242 45.7386 21.3242 40.8245C21.3242 29.8609 30.212 20.9731 41.1756 20.9731C52.1392 20.9731 61.0269 29.8609 61.0269 40.8245C61.0269 45.7386 59.2414 50.2356 56.2837 53.7022" stroke="white" stroke-width="2.10811"/>
<path d="M55.5811 40.8245C55.7568 36.7254 53.8243 28.0353 44.6892 26.0677" stroke="white" stroke-width="1.40541" stroke-linecap="round"/>
<circle cx="41.3514" cy="25.8921" r="1.05405" fill="white"/>
</svg>
