<svg width="82" height="82" viewBox="0 0 82 82" fill="none" xmlns="http://www.w3.org/2000/svg">
<rect y="0.00012207" width="82" height="82" rx="2.19704" fill="#5B5752"/>
<g clip-path="url(#clip0_943_118279)">
<path d="M58.697 40.3481C58.6871 40.4415 58.6576 40.5301 58.6133 40.6186C58.5641 40.8252 58.5395 41.0614 58.5395 41.3221C58.5395 41.3467 58.5445 41.3713 58.5445 41.3959V58.4855C58.7609 59.0217 59.0266 59.425 59.3463 59.6759C59.6415 59.912 60.0055 60.0252 60.4482 60.0055C60.4777 60.0006 60.5122 60.0006 60.5417 60.0006H65.4413C65.4511 60.0006 65.4659 60.0006 65.4806 60.0006C66.2431 60.0399 66.7941 59.8333 67.163 59.4103C67.5812 58.9282 67.8222 58.1559 67.9058 57.1179V57.1031L69.3964 41.6861C69.3964 41.6615 69.3964 41.6369 69.4013 41.6123C69.5046 40.7367 69.3128 40.1661 68.8799 39.8316C68.383 39.4478 67.5615 39.2904 66.494 39.2904C66.4694 39.2904 66.4448 39.2954 66.4202 39.2954H60.9008V39.2904C60.0596 39.2904 59.4398 39.4577 59.061 39.802C58.9036 39.9447 58.7855 40.1267 58.697 40.3481ZM53.2956 59.2529C53.1775 59.1397 53.0939 58.9921 53.0595 58.8298L45.1886 44.6623C44.313 43.2013 43.5259 43.1668 42.7634 43.6194C42.2223 43.9391 41.6517 44.4606 41.081 44.982C40.7367 45.2969 40.3923 45.6117 40.1021 45.8527L38.7493 46.9694L38.7395 46.9743C37.7556 47.7663 36.6438 48.1943 35.5911 48.278C34.8975 48.337 34.2285 48.2484 33.6185 48.0172C32.9937 47.7811 32.4428 47.4023 32.0296 46.8858C31.5819 46.3299 31.2867 45.6215 31.2179 44.7853H31.2228C31.208 44.5836 31.2671 44.3819 31.4048 44.2146L35.7043 39.0986C34.7991 39.0838 33.9973 39.2068 33.2446 39.4429C32.0984 39.802 31.026 40.4219 29.8552 41.2237C29.7224 41.327 29.5502 41.391 29.3682 41.391H24.4145V50.7523L24.4342 56.7391H27.3169C27.5924 56.7391 27.858 56.8818 28.0007 57.1376L31.5819 63.3801C32.1033 64.2902 32.5658 65.0773 33.1413 65.5938C33.6824 66.0808 34.3908 66.3809 35.4829 66.4104C35.8912 66.4202 36.2847 66.3514 36.6537 66.1989C36.88 66.1054 37.1063 65.9775 37.3276 65.8152L35.0057 61.4764C34.7991 61.0927 34.9467 60.6155 35.3304 60.4138C35.7141 60.2072 36.1913 60.3548 36.393 60.7385L38.9165 65.4561C39.8561 65.9332 40.7072 66.0808 41.4697 65.9185C42.1682 65.766 42.8274 65.3478 43.4472 64.669L39.8119 58.9626C39.5806 58.5986 39.684 58.1116 40.0529 57.8755C40.4169 57.6443 40.9039 57.7476 41.1401 58.1165L44.9673 64.1279C45.6412 64.4033 46.2856 64.4624 46.9005 64.2951C47.4859 64.1328 48.0762 63.7589 48.6616 63.1489L45.1935 56.6161C44.9869 56.2324 45.1345 55.7503 45.5231 55.5486C45.9068 55.342 46.3889 55.4896 46.5906 55.8782L50.1817 62.6373C50.649 62.9079 51.1901 62.9768 51.7067 62.8931C52.1592 62.8193 52.5971 62.6226 52.9562 62.3422C53.3005 62.0667 53.5711 61.7125 53.699 61.3091C53.8416 60.8713 53.8269 60.3597 53.5957 59.8038L53.2956 59.2529ZM54.3385 57.8853H56.9654V41.3959C56.9654 41.3762 56.9654 41.3516 56.9703 41.3319C56.9703 41.0761 56.9851 40.8302 57.0195 40.599L54.3434 38.8231C54.3286 38.8133 54.3139 38.8034 54.2991 38.7936C53.9499 38.5624 53.5317 38.2672 53.1136 37.9721C51.5935 36.9095 50.0341 35.8125 48.3468 35.3698C47.4367 35.1287 46.384 34.9713 45.3116 34.9516C44.372 34.932 43.4177 35.0205 42.5175 35.2566C41.9813 35.3944 41.4598 35.5862 40.9777 35.842C40.5497 36.0683 40.1513 36.3438 39.7971 36.6783L38.0065 38.8083C37.9524 38.9166 37.8737 39.0051 37.7802 39.0789L32.8412 44.9624C32.915 45.3362 33.0626 45.6511 33.2643 45.9069C33.5004 46.1971 33.8153 46.4135 34.1744 46.5513C34.5581 46.6939 35.0008 46.7481 35.4632 46.7087C36.2159 46.6448 37.0226 46.3348 37.7458 45.7544L39.0986 44.6377C39.4429 44.3524 39.7331 44.0867 40.0234 43.826C40.658 43.2455 41.2876 42.67 41.9567 42.2715C43.4964 41.3516 45.0312 41.3221 46.5463 43.8654L46.5611 43.89L54.3385 57.8853ZM57.2605 59.4644H55.16C55.4453 60.2957 55.4306 61.0828 55.2043 61.7814C54.9731 62.4996 54.5205 63.1096 53.94 63.572C53.3743 64.0196 52.6856 64.3296 51.9625 64.4476C51.259 64.5657 50.5211 64.5017 49.8324 64.2164C49.0355 65.0478 48.1943 65.5741 47.3187 65.8152C46.4381 66.0562 45.5477 66.007 44.6475 65.6922C43.7915 66.6416 42.847 67.2368 41.8042 67.4582C40.7416 67.6894 39.6151 67.5271 38.4197 66.9663C38.0458 67.2565 37.6572 67.4877 37.2489 67.655C36.6734 67.896 36.0683 68.0043 35.4337 67.9846C33.9186 67.9403 32.9003 67.4926 32.0886 66.7646C31.3113 66.071 30.7948 65.1855 30.2045 64.1623L26.8545 58.3182H24.2571C24.1046 59.0708 23.8439 59.7104 23.4503 60.222C22.7862 61.0779 21.8171 61.5305 20.4693 61.501C20.4545 61.501 20.4397 61.501 20.425 61.501H15.973C14.8514 61.683 13.8922 61.4075 13.1395 60.5368C12.4705 59.7645 12.0179 58.51 11.8212 56.6702C11.8163 56.6506 11.8163 56.626 11.8113 56.6014L10.6405 42.0895C10.4093 40.5252 10.6651 39.4183 11.2948 38.6608C11.9294 37.8983 12.8887 37.5539 14.0644 37.4998C14.0988 37.4949 14.1283 37.4949 14.1627 37.4949H20.1593V37.4998C21.2908 37.4851 22.2648 37.6769 23.0027 38.1541C23.5979 38.5378 24.0259 39.0789 24.2423 39.8168H29.1272C30.357 38.9904 31.5032 38.341 32.7724 37.9426C34.0219 37.5539 35.355 37.4162 36.9538 37.608L38.6017 35.66C38.6312 35.6207 38.6607 35.5862 38.7001 35.5518C39.1674 35.109 39.6889 34.745 40.2497 34.4499C40.84 34.1399 41.4697 33.9038 42.1288 33.7316C43.1717 33.4611 44.2687 33.3578 45.3411 33.3775C46.5562 33.4021 47.7368 33.5792 48.7551 33.8448C50.7031 34.3613 52.3855 35.537 54.0187 36.6832C54.3828 36.939 54.7468 37.1948 55.1797 37.4801C55.1944 37.49 55.2092 37.4998 55.2239 37.5097L57.595 39.0937C57.7131 38.9264 57.8508 38.7739 58.0083 38.6362C58.6871 38.0262 59.6562 37.7261 60.9057 37.7261V37.7212H66.4251C66.4448 37.7212 66.4694 37.7212 66.4891 37.7261C67.9009 37.7212 69.052 37.977 69.849 38.5919C70.7344 39.2757 71.1526 40.3136 70.9755 41.8042C70.9755 41.8189 70.9706 41.8288 70.9706 41.8435L69.48 57.2458C69.3718 58.6232 69.0028 59.7005 68.3535 60.4482C67.6599 61.2452 66.7006 61.6387 65.4413 61.5846H60.5417H60.5368C59.6907 61.6289 58.9675 61.3977 58.3624 60.9156C57.9197 60.5565 57.5508 60.0744 57.2605 59.4644ZM17.4488 53.4776C18.0391 53.4776 18.5163 53.9548 18.5163 54.5451C18.5163 55.1354 18.0391 55.6126 17.4488 55.6126C16.8585 55.6126 16.3813 55.1354 16.3813 54.5451C16.3813 53.9548 16.8585 53.4776 17.4488 53.4776ZM63.9114 53.4776C64.5017 53.4776 64.9789 53.9548 64.9789 54.5451C64.9789 55.1354 64.5017 55.6126 63.9114 55.6126C63.3211 55.6126 62.8439 55.1354 62.8439 54.5451C62.8439 53.9548 63.3211 53.4776 63.9114 53.4776ZM22.8354 48.9322L22.8059 40.6039C22.8059 40.5891 22.8059 40.5744 22.8059 40.5547C22.7223 40.0332 22.496 39.684 22.1615 39.4675C21.704 39.1724 21.0202 39.0592 20.179 39.0691H20.1692V39.074H14.1677C14.1578 39.074 14.148 39.074 14.1381 39.074C13.3953 39.1084 12.8296 39.2855 12.5099 39.6692C12.1655 40.0775 12.0475 40.7859 12.2098 41.8829C12.2147 41.9075 12.2147 41.9272 12.2147 41.9518L13.3855 56.4784V56.503C13.5429 58.0083 13.8676 58.9725 14.3251 59.5037C14.6891 59.9268 15.186 60.0449 15.7812 59.9366C15.8255 59.9268 15.8747 59.9219 15.9189 59.9219V59.917H20.4201C20.4496 59.917 20.4791 59.917 20.5037 59.9219C21.3006 59.9366 21.8516 59.7005 22.1959 59.2529C22.5993 58.7314 22.7961 57.9148 22.8256 56.8621H22.8207V48.9322H22.8354Z" fill="white"/>
</g>
<circle cx="38.7278" cy="23.5" r="7.7482" stroke="white" stroke-width="1.5036"/>
<path d="M34.9998 23.853L37.032 25.8853C37.363 26.2162 37.9061 26.1936 38.2084 25.8363L42.4998 20.7648" stroke="white" stroke-width="1.5" stroke-linecap="round"/>
<defs>
<clipPath id="clip0_943_118279">
<rect width="60.4481" height="34.612" fill="white" transform="translate(10.5615 33.3777)"/>
</clipPath>
</defs>
</svg>
