<svg width="82" height="82" viewBox="0 0 82 82" fill="none" xmlns="http://www.w3.org/2000/svg">
<rect y="0.00012207" width="82" height="82" rx="5.07508" fill="#5B5752"/>
<path d="M34.6806 37.716V37.14C34.6806 35.3927 34.0539 33.7034 32.9143 32.3789L29.7355 28.6844H21.4938L18.0226 32.3154C16.724 33.6737 15.9993 35.4806 15.9993 37.3598V63.3502C15.9993 65.366 17.6334 67.0001 19.6492 67.0001H31.0306C33.0465 67.0001 34.6806 65.366 34.6806 63.3502V61.8001" stroke="white" stroke-width="1.65116" stroke-linecap="round" stroke-linejoin="round"/>
<path d="M22.0458 25.0966C22.0458 24.2087 22.7656 23.4889 23.6535 23.4889H27.0287C27.9166 23.4889 28.6364 24.2087 28.6364 25.0966V28.4061H22.0458V25.0966Z" fill="#5B5752" stroke="white" stroke-width="1.65116"/>
<rect x="23.693" y="19.6575" width="3.29389" height="3.27513" fill="#5B5752" stroke="white" stroke-width="1.65116"/>
<path d="M35.6417 15.0001H18.8639C18.1919 15.0001 17.6472 15.5448 17.6472 16.2168V17.8887C17.6472 18.5607 18.1919 19.1054 18.8639 19.1054H35.4455C35.7815 19.1054 36.0538 19.3777 36.0538 19.7137V22.0549C36.0538 22.3909 36.3262 22.6633 36.6621 22.6633H39.2916C39.6276 22.6633 39.9 22.3909 39.9 22.0549V19.2584C39.9 16.9066 37.9935 15.0001 35.6417 15.0001Z" fill="#5B5752" stroke="white" stroke-width="1.65116" stroke-linecap="round" stroke-linejoin="round"/>
<path d="M38.51 33.3681C36.7406 30.8887 37.1281 27.5264 39.2925 25.5003L41.496 28.5879C43.0277 30.7343 42.5251 33.7097 40.3732 35.2337C40.1781 35.3719 39.9074 35.3262 39.7685 35.1316L38.51 33.3681Z" fill="#5B5752" stroke="white" stroke-width="1.65116"/>
<path d="M65.9987 56.3264L58.3846 48.3372C56.9328 45.251 52.6138 40.776 46.952 47.5656C44.2434 47.5656 42.124 47.5656 40.546 47.5656C38.6711 47.5656 37.1526 49.0856 37.1526 50.9605V50.9605C37.1526 52.2105 38.1659 53.2237 39.4158 53.2237H47.7686" stroke="white" stroke-width="1.65116" stroke-linecap="round" stroke-linejoin="round"/>
<path d="M59.9562 67.0003L54.2529 61.3187C53.6828 60.7507 52.9109 60.4319 52.1063 60.4319H38.6342C36.9858 60.4319 35.408 59.7629 34.2619 58.5781L23.2236 47.1667C22.2885 46.2 22.3676 44.6434 23.396 43.7765V43.7765C24.3345 42.9855 25.7264 43.0612 26.5734 43.9494L34.6068 52.3736C35.1808 52.9755 35.9763 53.3161 36.808 53.3161H41.8243" stroke="white" stroke-width="1.65116" stroke-linecap="round" stroke-linejoin="round"/>
<path d="M27.2634 44.0106L27.864 43.4123C29.0509 42.2299 30.9705 42.2299 32.1573 43.4123L37.703 48.9369" stroke="white" stroke-width="1.65116" stroke-linecap="round" stroke-linejoin="round"/>
<path d="M31.6589 42.9155L32.5716 42.0064C33.7437 40.8386 35.6343 40.8221 36.8268 41.969L42.6479 47.5682" stroke="white" stroke-width="1.65116" stroke-linecap="round" stroke-linejoin="round"/>
</svg>
