<svg width="88" height="88" viewBox="0 0 88 88" fill="none" xmlns="http://www.w3.org/2000/svg">
<circle cx="44" cy="44" r="44" fill="#444444"/>
<path d="M21.375 64.25C21.375 66.1168 22.8832 67.625 24.75 67.625H41.625V50.75H21.375V64.25ZM48.375 67.625H65.25C67.1168 67.625 68.625 66.1168 68.625 64.25V50.75H48.375V67.625ZM68.625 33.875H64.1848C64.8387 32.5988 65.25 31.1855 65.25 29.6562C65.25 24.541 61.084 20.375 55.9688 20.375C51.5812 20.375 48.7441 22.6215 45.1055 27.5785C41.4668 22.6215 38.6297 20.375 34.2422 20.375C29.127 20.375 24.9609 24.541 24.9609 29.6562C24.9609 31.1855 25.3617 32.5988 26.0262 33.875H21.375C19.5082 33.875 18 35.3832 18 37.25V45.6875C18 46.6156 18.7594 47.375 19.6875 47.375H70.3125C71.2406 47.375 72 46.6156 72 45.6875V37.25C72 35.3832 70.4918 33.875 68.625 33.875ZM34.2316 33.875C31.9008 33.875 30.0129 31.9871 30.0129 29.6562C30.0129 27.3254 31.9008 25.4375 34.2316 25.4375C36.3305 25.4375 37.8809 25.7855 43.3125 33.875H34.2316ZM55.9688 33.875H46.8879C52.309 25.8066 53.8172 25.4375 55.9688 25.4375C58.2996 25.4375 60.1875 27.3254 60.1875 29.6562C60.1875 31.9871 58.2996 33.875 55.9688 33.875Z" fill="white"/>
</svg>
