<svg width="82" height="82" viewBox="0 0 82 82" fill="none" xmlns="http://www.w3.org/2000/svg">
<rect width="82" height="82" rx="5" fill="#5B5752"/>
<path d="M21.0703 49.1075V31.0919C26.6728 28.5647 37.9067 23.5103 40.9204 23.5103C43.9342 23.5103 55.6511 28.5647 60.7705 31.0919V49.0525C60.7705 49.6856 60.5109 50.3083 60.0511 50.7434C44.3573 65.5924 28.4392 57.3411 21.7251 50.7175C21.2957 50.294 21.0703 49.7106 21.0703 49.1075Z" stroke="white" stroke-width="1.78111" stroke-linejoin="round"/>
<path d="M14.3216 30.7209C14.3026 29.6443 15.4006 28.9063 16.3903 29.3305L20.7715 31.2081V46.771L15.2051 43.2131C14.7862 42.9453 14.5292 42.4857 14.5205 41.9886L14.3216 30.7209Z" stroke="white" stroke-width="1.78111"/>
<path d="M67.5182 30.7209C67.5372 29.6443 66.4393 28.9063 65.4495 29.3305L61.0684 31.2081V46.771L66.6347 43.2131C67.0536 42.9453 67.3106 42.4857 67.3194 41.9886L67.5182 30.7209Z" stroke="white" stroke-width="1.78111"/>
<path d="M41.2158 35.3613V47.2121" stroke="white" stroke-width="1.78111" stroke-linecap="round"/>
<path d="M35.2903 41.2864H47.1411" stroke="white" stroke-width="1.78111" stroke-linecap="round"/>
</svg>
