<svg width="82" height="82" viewBox="0 0 82 82" fill="none" xmlns="http://www.w3.org/2000/svg">
<rect width="82" height="82" rx="5.07508" fill="#5B5752"/>
<path d="M34.6806 37.7159V37.1399C34.6806 35.3926 34.0539 33.7033 32.9143 32.3788L29.7355 28.6843H21.4938L18.0226 32.3152C16.724 33.6736 15.9993 35.4804 15.9993 37.3597V63.35C15.9993 65.3658 17.6334 67 19.6492 67H31.0306C33.0465 67 34.6806 65.3658 34.6806 63.35V61.8" stroke="white" stroke-width="1.65116" stroke-linecap="round" stroke-linejoin="round"/>
<path d="M22.0458 25.0965C22.0458 24.2086 22.7656 23.4888 23.6535 23.4888H27.0287C27.9166 23.4888 28.6364 24.2086 28.6364 25.0965V28.406H22.0458V25.0965Z" fill="#5B5752" stroke="white" stroke-width="1.65116"/>
<rect x="23.693" y="19.6574" width="3.29389" height="3.27513" fill="#5B5752" stroke="white" stroke-width="1.65116"/>
<path d="M35.6417 15H18.8639C18.1919 15 17.6472 15.5447 17.6472 16.2166V17.8886C17.6472 18.5605 18.1919 19.1052 18.8639 19.1052H35.4455C35.7815 19.1052 36.0538 19.3776 36.0538 19.7136V22.0548C36.0538 22.3908 36.3262 22.6631 36.6621 22.6631H39.2916C39.6276 22.6631 39.9 22.3908 39.9 22.0548V19.2583C39.9 16.9065 37.9935 15 35.6417 15Z" fill="#5B5752" stroke="white" stroke-width="1.65116" stroke-linecap="round" stroke-linejoin="round"/>
<path d="M38.51 33.3679C36.7406 30.8886 37.1281 27.5263 39.2925 25.5002L41.496 28.5878C43.0277 30.7341 42.5251 33.7096 40.3732 35.2336C40.1781 35.3718 39.9074 35.326 39.7685 35.1315L38.51 33.3679Z" fill="#5B5752" stroke="white" stroke-width="1.65116"/>
<path d="M65.9987 56.3262L58.3846 48.3371C56.9328 45.2509 52.6138 40.7759 46.952 47.5655C44.2434 47.5655 42.124 47.5655 40.546 47.5655C38.6711 47.5655 37.1526 49.0855 37.1526 50.9604V50.9604C37.1526 52.2103 38.1659 53.2236 39.4158 53.2236H47.7686" stroke="white" stroke-width="1.65116" stroke-linecap="round" stroke-linejoin="round"/>
<path d="M59.9562 67.0001L54.2529 61.3185C53.6828 60.7506 52.9109 60.4317 52.1063 60.4317H38.6342C36.9858 60.4317 35.408 59.7628 34.2619 58.5779L23.2236 47.1666C22.2885 46.1998 22.3676 44.6433 23.396 43.7764V43.7764C24.3345 42.9853 25.7264 43.0611 26.5734 43.9493L34.6068 52.3735C35.1808 52.9754 35.9763 53.316 36.808 53.316H41.8243" stroke="white" stroke-width="1.65116" stroke-linecap="round" stroke-linejoin="round"/>
<path d="M27.2634 44.0105L27.864 43.4122C29.0509 42.2298 30.9705 42.2298 32.1573 43.4122L37.703 48.9368" stroke="white" stroke-width="1.65116" stroke-linecap="round" stroke-linejoin="round"/>
<path d="M31.6589 42.9154L32.5716 42.0062C33.7437 40.8385 35.6343 40.8219 36.8268 41.9689L42.6479 47.568" stroke="white" stroke-width="1.65116" stroke-linecap="round" stroke-linejoin="round"/>
</svg>
