<svg width="82" height="82" viewBox="0 0 82 82" fill="none" xmlns="http://www.w3.org/2000/svg">
<rect width="82" height="82" rx="2.1238" fill="#5B5752"/>
<path d="M16 60.5H65.5405C63.2568 63.6622 58.6892 65.9459 55.1757 66.8243H26.3649C21.7838 66.8243 17.3468 62.6081 16 60.5Z" stroke="white" stroke-width="2.10811" stroke-linejoin="round"/>
<path d="M16 53.8242H65.5405C63.2568 56.9864 58.6892 59.2702 55.1757 60.1485H26.3649C21.7838 60.1485 17.3468 55.9323 16 53.8242Z" stroke="white" stroke-width="2.10811" stroke-linejoin="round"/>
<path d="M18.3776 53.8243C16.2277 50.04 15 45.6634 15 41C15 26.6406 26.6406 15 41 15C55.3594 15 67 26.6406 67 41C67 45.6634 65.7723 50.04 63.6224 53.8243" stroke="white" stroke-width="2.10811"/>
<path d="M26.0675 53.702C23.1098 50.2354 21.3242 45.7383 21.3242 40.8243C21.3242 29.8607 30.212 20.9729 41.1756 20.9729C52.1392 20.9729 61.0269 29.8607 61.0269 40.8243C61.0269 45.7383 59.2414 50.2354 56.2837 53.702" stroke="white" stroke-width="2.10811"/>
<path d="M55.5811 40.8244C55.7568 36.7253 53.8243 28.0352 44.6892 26.0676" stroke="white" stroke-width="1.40541" stroke-linecap="round"/>
<circle cx="41.3514" cy="25.8919" r="1.05405" fill="white"/>
</svg>
