<svg width="82" height="82" viewBox="0 0 82 82" fill="none" xmlns="http://www.w3.org/2000/svg">
<rect width="82" height="82" rx="2.19704" fill="#5B5752"/>
<g clip-path="url(#clip0_943_118279)">
<path d="M58.697 40.3482C58.6871 40.4417 58.6576 40.5302 58.6133 40.6188C58.5641 40.8254 58.5395 41.0615 58.5395 41.3222C58.5395 41.3468 58.5445 41.3714 58.5445 41.396V58.4856C58.7609 59.0218 59.0266 59.4252 59.3463 59.676C59.6415 59.9122 60.0055 60.0253 60.4482 60.0056C60.4777 60.0007 60.5122 60.0007 60.5417 60.0007H65.4413C65.4511 60.0007 65.4659 60.0007 65.4806 60.0007C66.2431 60.0401 66.7941 59.8335 67.163 59.4104C67.5812 58.9283 67.8222 58.156 67.9058 57.118V57.1033L69.3964 41.6862C69.3964 41.6616 69.3964 41.637 69.4013 41.6125C69.5046 40.7368 69.3128 40.1662 68.8799 39.8317C68.383 39.448 67.5615 39.2906 66.494 39.2906C66.4694 39.2906 66.4448 39.2955 66.4202 39.2955H60.9008V39.2906C60.0596 39.2906 59.4398 39.4578 59.061 39.8022C58.9036 39.9448 58.7855 40.1268 58.697 40.3482ZM53.2956 59.253C53.1775 59.1398 53.0939 58.9923 53.0595 58.8299L45.1886 44.6624C44.313 43.2014 43.5259 43.1669 42.7634 43.6195C42.2223 43.9393 41.6517 44.4607 41.081 44.9822C40.7367 45.297 40.3923 45.6118 40.1021 45.8529L38.7493 46.9695L38.7395 46.9745C37.7556 47.7665 36.6438 48.1944 35.5911 48.2781C34.8975 48.3371 34.2285 48.2486 33.6185 48.0174C32.9937 47.7812 32.4428 47.4024 32.0296 46.8859C31.5819 46.33 31.2867 45.6217 31.2179 44.7854H31.2228C31.208 44.5837 31.2671 44.382 31.4048 44.2148L35.7043 39.0987C34.7991 39.0839 33.9973 39.2069 33.2446 39.4431C32.0984 39.8022 31.026 40.422 29.8552 41.2238C29.7224 41.3271 29.5502 41.3911 29.3682 41.3911H24.4145V50.7525L24.4342 56.7392H27.3169C27.5924 56.7392 27.858 56.8819 28.0007 57.1377L31.5819 63.3803C32.1033 64.2903 32.5658 65.0774 33.1413 65.5939C33.6824 66.0809 34.3908 66.381 35.4829 66.4105C35.8912 66.4204 36.2847 66.3515 36.6537 66.199C36.88 66.1055 37.1063 65.9776 37.3276 65.8153L35.0057 61.4765C34.7991 61.0928 34.9467 60.6156 35.3304 60.4139C35.7141 60.2073 36.1913 60.3549 36.393 60.7386L38.9165 65.4562C39.8561 65.9334 40.7072 66.0809 41.4697 65.9186C42.1682 65.7661 42.8274 65.348 43.4472 64.6691L39.8119 58.9627C39.5806 58.5987 39.684 58.1117 40.0529 57.8756C40.4169 57.6444 40.9039 57.7477 41.1401 58.1166L44.9673 64.128C45.6412 64.4035 46.2856 64.4625 46.9005 64.2952C47.4859 64.1329 48.0762 63.759 48.6616 63.149L45.1935 56.6162C44.9869 56.2325 45.1345 55.7505 45.5231 55.5488C45.9068 55.3422 46.3889 55.4897 46.5906 55.8784L50.1817 62.6374C50.649 62.908 51.1901 62.9769 51.7067 62.8932C52.1592 62.8195 52.5971 62.6227 52.9562 62.3423C53.3005 62.0668 53.5711 61.7126 53.699 61.3092C53.8416 60.8714 53.8269 60.3598 53.5957 59.8039L53.2956 59.253ZM54.3385 57.8854H56.9654V41.396C56.9654 41.3763 56.9654 41.3517 56.9703 41.3321C56.9703 41.0763 56.9851 40.8303 57.0195 40.5991L54.3434 38.8232C54.3286 38.8134 54.3139 38.8035 54.2991 38.7937C53.9499 38.5625 53.5317 38.2673 53.1136 37.9722C51.5935 36.9096 50.0341 35.8126 48.3468 35.3699C47.4367 35.1288 46.384 34.9714 45.3116 34.9518C44.372 34.9321 43.4177 35.0206 42.5175 35.2567C41.9813 35.3945 41.4598 35.5863 40.9777 35.8421C40.5497 36.0684 40.1513 36.3439 39.7971 36.6784L38.0065 38.8085C37.9524 38.9167 37.8737 39.0052 37.7802 39.079L32.8412 44.9625C32.915 45.3363 33.0626 45.6512 33.2643 45.907C33.5004 46.1972 33.8153 46.4137 34.1744 46.5514C34.5581 46.6941 35.0008 46.7482 35.4632 46.7088C36.2159 46.6449 37.0226 46.335 37.7458 45.7545L39.0986 44.6378C39.4429 44.3525 39.7331 44.0869 40.0234 43.8261C40.658 43.2457 41.2876 42.6701 41.9567 42.2716C43.4964 41.3517 45.0312 41.3222 46.5463 43.8655L46.5611 43.8901L54.3385 57.8854ZM57.2605 59.4645H55.16C55.4453 60.2959 55.4306 61.083 55.2043 61.7815C54.9731 62.4997 54.5205 63.1097 53.94 63.5721C53.3743 64.0198 52.6856 64.3297 51.9625 64.4477C51.259 64.5658 50.5211 64.5019 49.8324 64.2165C49.0355 65.0479 48.1943 65.5743 47.3187 65.8153C46.4381 66.0563 45.5477 66.0072 44.6475 65.6923C43.7915 66.6417 42.847 67.237 41.8042 67.4583C40.7416 67.6895 39.6151 67.5272 38.4197 66.9664C38.0458 67.2566 37.6572 67.4879 37.2489 67.6551C36.6734 67.8962 36.0683 68.0044 35.4337 67.9847C33.9186 67.9404 32.9003 67.4928 32.0886 66.7647C31.3113 66.0711 30.7948 65.1856 30.2045 64.1624L26.8545 58.3183H24.2571C24.1046 59.071 23.8439 59.7105 23.4503 60.2221C22.7862 61.078 21.8171 61.5306 20.4693 61.5011C20.4545 61.5011 20.4397 61.5011 20.425 61.5011H15.973C14.8514 61.6831 13.8922 61.4076 13.1395 60.5369C12.4705 59.7646 12.0179 58.5102 11.8212 56.6704C11.8163 56.6507 11.8163 56.6261 11.8113 56.6015L10.6405 42.0896C10.4093 40.5253 10.6651 39.4185 11.2948 38.6609C11.9294 37.8984 12.8887 37.554 14.0644 37.4999C14.0988 37.495 14.1283 37.495 14.1627 37.495H20.1593V37.4999C21.2908 37.4852 22.2648 37.677 23.0027 38.1542C23.5979 38.5379 24.0259 39.079 24.2423 39.8169H29.1272C30.357 38.9905 31.5032 38.3411 32.7724 37.9427C34.0219 37.554 35.355 37.4163 36.9538 37.6082L38.6017 35.6601C38.6312 35.6208 38.6607 35.5863 38.7001 35.5519C39.1674 35.1092 39.6889 34.7451 40.2497 34.45C40.84 34.1401 41.4697 33.9039 42.1288 33.7318C43.1717 33.4612 44.2687 33.3579 45.3411 33.3776C46.5562 33.4022 47.7368 33.5793 48.7551 33.8449C50.7031 34.3614 52.3855 35.5371 54.0187 36.6833C54.3828 36.9391 54.7468 37.1949 55.1797 37.4803C55.1944 37.4901 55.2092 37.4999 55.2239 37.5098L57.595 39.0938C57.7131 38.9265 57.8508 38.774 58.0083 38.6363C58.6871 38.0263 59.6562 37.7262 60.9057 37.7262V37.7213H66.4251C66.4448 37.7213 66.4694 37.7213 66.4891 37.7262C67.9009 37.7213 69.052 37.9771 69.849 38.592C70.7344 39.2758 71.1526 40.3138 70.9755 41.8043C70.9755 41.8191 70.9706 41.8289 70.9706 41.8437L69.48 57.2459C69.3718 58.6233 69.0028 59.7006 68.3535 60.4484C67.6599 61.2453 66.7006 61.6388 65.4413 61.5847H60.5417H60.5368C59.6907 61.629 58.9675 61.3978 58.3624 60.9157C57.9197 60.5566 57.5508 60.0745 57.2605 59.4645ZM17.4488 53.4778C18.0391 53.4778 18.5163 53.9549 18.5163 54.5452C18.5163 55.1355 18.0391 55.6127 17.4488 55.6127C16.8585 55.6127 16.3813 55.1355 16.3813 54.5452C16.3813 53.9549 16.8585 53.4778 17.4488 53.4778ZM63.9114 53.4778C64.5017 53.4778 64.9789 53.9549 64.9789 54.5452C64.9789 55.1355 64.5017 55.6127 63.9114 55.6127C63.3211 55.6127 62.8439 55.1355 62.8439 54.5452C62.8439 53.9549 63.3211 53.4778 63.9114 53.4778ZM22.8354 48.9323L22.8059 40.604C22.8059 40.5892 22.8059 40.5745 22.8059 40.5548C22.7223 40.0334 22.496 39.6841 22.1615 39.4676C21.704 39.1725 21.0202 39.0593 20.179 39.0692H20.1692V39.0741H14.1677C14.1578 39.0741 14.148 39.0741 14.1381 39.0741C13.3953 39.1085 12.8296 39.2856 12.5099 39.6693C12.1655 40.0776 12.0475 40.786 12.2098 41.883C12.2147 41.9076 12.2147 41.9273 12.2147 41.9519L13.3855 56.4785V56.5031C13.5429 58.0084 13.8676 58.9726 14.3251 59.5039C14.6891 59.9269 15.186 60.045 15.7812 59.9368C15.8255 59.9269 15.8747 59.922 15.9189 59.922V59.9171H20.4201C20.4496 59.9171 20.4791 59.9171 20.5037 59.922C21.3006 59.9368 21.8516 59.7006 22.1959 59.253C22.5993 58.7315 22.7961 57.9149 22.8256 56.8622H22.8207V48.9323H22.8354Z" fill="white"/>
</g>
<circle cx="38.7278" cy="23.5" r="7.7482" stroke="white" stroke-width="1.5036"/>
<path d="M34.9998 23.8531L37.032 25.8854C37.363 26.2163 37.9061 26.1938 38.2084 25.8365L42.4998 20.7649" stroke="white" stroke-width="1.5" stroke-linecap="round"/>
<defs>
<clipPath id="clip0_943_118279">
<rect width="60.4481" height="34.612" fill="white" transform="translate(10.5615 33.3777)"/>
</clipPath>
</defs>
</svg>
