<?xml version="1.0" standalone="no"?>
<!DOCTYPE svg PUBLIC "-//W3C//DTD SVG 20010904//EN"
 "http://www.w3.org/TR/2001/REC-SVG-20010904/DTD/svg10.dtd">
<svg version="1.0" xmlns="http://www.w3.org/2000/svg"
 width="2754.000000pt" height="2754.000000pt" viewBox="0 0 2754.000000 2754.000000"
 preserveAspectRatio="xMidYMid meet">
<metadata>
Created by potrace 1.14, written by Peter Selinger 2001-2017
</metadata>
<g transform="translate(0.000000,2754.000000) scale(0.100000,-0.100000)"
fill="#000000" stroke="none">
<path d="M7487 21623 c-1 0 -51 -4 -112 -7 -133 -8 -232 -15 -265 -21 -14 -2
-50 -7 -80 -10 -47 -5 -99 -13 -265 -41 -16 -3 -82 -16 -145 -30 -63 -14 -124
-27 -135 -30 -23 -5 -150 -40 -275 -77 -77 -22 -225 -74 -275 -96 -11 -5 -36
-14 -55 -21 -19 -7 -59 -23 -88 -36 -29 -13 -55 -24 -57 -24 -17 0 -373 -176
-435 -215 -22 -14 -42 -25 -44 -25 -8 0 -249 -152 -331 -208 -44 -30 -124 -89
-179 -131 -54 -42 -108 -83 -120 -91 -11 -8 -28 -22 -37 -30 -8 -8 -42 -37
-74 -65 -183 -156 -436 -412 -565 -574 -19 -24 -40 -48 -46 -55 -60 -64 -364
-501 -364 -524 0 -6 -4 -12 -8 -14 -11 -4 -109 -181 -185 -333 -116 -232 -225
-506 -292 -735 -20 -69 -42 -145 -50 -170 -16 -53 -66 -274 -70 -310 -2 -14
-10 -59 -18 -100 -8 -41 -18 -100 -21 -131 -4 -31 -9 -67 -11 -80 -3 -13 -7
-53 -11 -89 -3 -36 -8 -78 -10 -95 -21 -162 -21 -680 1 -860 2 -16 6 -57 9
-90 4 -33 8 -71 10 -85 4 -25 14 -96 22 -155 2 -16 11 -64 19 -105 21 -106 25
-121 30 -152 11 -60 86 -341 95 -359 6 -10 9 -19 6 -19 -5 0 55 -181 102 -305
78 -208 206 -477 325 -685 55 -97 242 -389 256 -400 4 -3 24 -30 45 -60 22
-30 78 -102 125 -160 90 -111 113 -137 201 -234 90 -99 6348 -6354 6440 -6437
47 -42 101 -90 120 -105 19 -16 40 -33 46 -39 104 -98 451 -338 654 -453 25
-14 59 -33 75 -43 60 -36 352 -178 450 -219 55 -22 109 -45 120 -50 88 -39
489 -167 578 -184 12 -3 52 -12 90 -20 127 -31 389 -77 517 -92 300 -35 760
-39 1035 -10 109 12 218 26 320 41 22 4 96 18 165 32 69 14 132 27 140 28 8 2
15 4 15 5 0 1 9 3 20 5 118 22 508 146 660 210 64 27 108 46 145 62 19 8 37
15 40 16 7 0 324 161 376 190 84 47 192 113 283 174 51 35 96 63 98 63 2 0 9
5 16 10 7 6 62 48 122 92 61 45 112 84 115 88 3 3 32 28 65 54 33 27 94 78
135 114 78 68 6436 6423 6505 6502 108 123 162 186 180 211 11 15 47 62 81
106 366 473 659 1076 814 1678 34 128 46 184 76 330 2 11 6 37 9 59 3 21 7 41
9 45 2 3 7 31 10 61 4 30 8 66 11 80 48 294 53 866 10 1200 -3 25 -8 60 -10
78 -22 178 -77 455 -124 622 -33 118 -109 350 -143 435 -22 55 -40 105 -42
110 -1 6 -4 15 -8 20 -3 6 -22 48 -41 95 -94 229 -288 575 -462 825 -54 77
-101 142 -104 145 -4 3 -29 34 -56 70 -159 209 -469 530 -675 700 -30 25 -61
51 -68 58 -8 7 -30 25 -50 40 -21 15 -39 29 -42 32 -28 30 -382 273 -460 316
-19 10 -36 22 -38 27 -2 4 -7 7 -11 7 -4 0 -61 30 -127 67 -293 163 -639 305
-984 403 -129 36 -329 86 -385 95 -11 1 -76 12 -145 24 -69 11 -150 23 -180
26 -30 3 -66 8 -80 10 -191 31 -758 37 -965 10 -16 -3 -57 -7 -90 -10 -33 -3
-87 -10 -120 -15 -33 -5 -80 -12 -105 -15 -97 -13 -347 -66 -473 -101 -73 -20
-145 -40 -162 -44 -62 -16 -285 -95 -415 -147 -162 -65 -432 -197 -590 -288
-134 -77 -399 -252 -490 -323 -86 -67 -211 -169 -270 -220 -36 -30 -718 -707
-1515 -1504 -798 -796 -1454 -1448 -1458 -1448 -4 0 -637 629 -1406 1398
-1597 1596 -1522 1523 -1743 1697 -180 142 -207 161 -353 257 -329 216 -714
403 -1075 523 -80 27 -154 52 -165 56 -42 17 -386 102 -456 113 -20 3 -42 7
-50 10 -8 3 -34 7 -59 10 -25 4 -70 10 -100 16 -30 5 -80 12 -110 15 -30 3
-66 8 -80 10 -27 5 -98 11 -255 21 -88 6 -424 12 -428 7z"/>
</g>
</svg>
