<svg width="90" height="90" viewBox="0 0 90 90" fill="none" xmlns="http://www.w3.org/2000/svg">
<circle cx="45" cy="45" r="45" fill="#F4CE96"/>
<g clip-path="url(#clip0_1043_388)">
<path d="M38.5536 25.9688C38.5536 24.8777 37.6699 24 36.5714 24C35.473 24 34.5893 24.8777 34.5893 25.9688V29.25H31.2857C28.3703 29.25 26 31.6043 26 34.5V35.8125V39.75V60.75C26 63.6457 28.3703 66 31.2857 66H57.7143C60.6297 66 63 63.6457 63 60.75V39.75V35.8125V34.5C63 31.6043 60.6297 29.25 57.7143 29.25H54.4107V25.9688C54.4107 24.8777 53.527 24 52.4286 24C51.3301 24 50.4464 24.8777 50.4464 25.9688V29.25H38.5536V25.9688ZM29.9643 39.75H59.0357V60.75C59.0357 61.4719 58.4411 62.0625 57.7143 62.0625H31.2857C30.5589 62.0625 29.9643 61.4719 29.9643 60.75V39.75Z" fill="#853F42"/>
</g>
<defs>
<clipPath id="clip0_1043_388">
<rect width="37" height="42" fill="white" transform="translate(26 24)"/>
</clipPath>
</defs>
</svg>
