<svg width="322" height="329" viewBox="0 0 322 329" fill="none" xmlns="http://www.w3.org/2000/svg">
<g clip-path="url(#clip0_1043_393)">
<path d="M68.1015 79.9417C66.7457 67.2852 67.8616 54.278 71.106 41.9694M71.106 41.9694C72.4091 45.3883 74.2587 48.8083 76.1134 51.9621C77.4328 54.165 78.8516 56.3911 79.1179 58.957C79.2103 60.6243 78.5536 62.3417 78.1164 63.9534C77.257 67.9717 76.6282 71.7622 74.1105 74.9454C72.8605 76.7854 72.0722 78.9374 71.106 80.941M71.106 41.9694C70.1013 45.0558 66.5165 46.7978 64.0955 48.9643C60.9567 51.9152 58.6932 55.6913 58.0866 59.9563M76.1134 83.9388C79.5847 84.422 82.9099 84.3266 86.1284 82.9395C89.3468 81.5524 92.1081 78.7997 94.1403 75.9446C98.0743 70.2923 99.6248 63.0601 105.157 58.957C99.9154 60.3852 93.4332 58.8428 88.1313 59.9563C85.3692 60.6027 83.2358 62.0629 81.1209 63.9534C79.006 65.8439 77.0641 68.2758 76.1134 70.9483M76.1134 85.9373C79.0879 87.9941 82.5119 89.9258 86.1284 89.9344C89.8032 90.1974 93.6173 88.999 97.1448 87.9359C100.276 86.6585 102.533 85.0727 105.157 82.9395L112.167 77.9432M112.167 77.9432C109.419 77.6527 107.505 75.3622 105.157 73.9461C102.518 72.3605 99.2179 72.9589 96.1433 72.9468M86.1284 108.921C87.5256 110.047 88.4022 110.449 90.1343 110.919C91.9304 111.322 94.3232 111.194 96.1433 110.919C97.6079 110.629 98.6967 110.235 100.149 109.92C101.656 109.615 103.668 109.535 105.157 109.92C101.392 104.667 99.0427 98.083 94.1403 93.9315C91.8767 91.9828 88.9366 90.9269 86.1284 89.9344M66.0985 78.9424C66.3077 75.3708 65.3284 72.3084 64.0955 68.9497C62.8627 65.591 60.5568 62.5446 58.0866 59.9563M58.0866 59.9563C56.9493 58.7437 55.5692 57.699 54.0806 56.9585C51.5481 55.8888 49.7752 55.4509 47.0702 54.9599C44.4071 54.2943 41.0313 52.8752 39.0582 50.9629C40.285 52.8887 41.3193 55.7988 42.0627 57.9578C42.6074 59.8096 42.58 61.1023 43.0642 62.9541C44.4801 67.2126 47.1895 70.7026 51.0761 72.9468M69.103 111.918C72.7344 115.949 77.3773 118.322 82.1224 120.912C82.9852 121.484 83.206 121.435 84.1254 121.911C83.1812 117.711 86.1284 113.217 86.1284 108.921C86.0735 106.659 85.0376 104.995 84.1254 102.925C81.9432 98.156 78.5067 93.7939 74.1105 90.9337M62.0925 80.941C56.5726 75.4836 49.7634 71.9278 42.0627 70.9483C39.7054 70.5291 37.3543 70.2902 35.0523 70.9483C31.4209 72.1586 28.4872 75.2252 25.0374 76.9439C27.8143 79.5228 30.6598 82.9958 33.0493 85.9373C34.6592 87.8981 36.7341 89.917 39.0582 90.9337C40.7938 91.5929 42.2158 91.091 44.0657 90.9337C50.8368 90.4156 57.8291 89.5533 64.0955 86.9366M66.0985 87.9359C60.7588 90.0205 55.6382 93.799 53.0791 98.9279C50.52 104.057 50.532 110.396 52.0776 115.915C52.8402 118.651 54.3558 121.15 55.0821 123.91C55.3977 122.753 55.3435 121.855 56.0836 120.912C56.8237 119.968 58.0397 119.496 59.0881 118.913C61.1217 117.63 63.1119 116.272 65.097 114.916C67.5526 113.195 69.8708 110.653 71.106 107.921C72.3412 105.189 72.4377 101.908 72.1075 98.9279C71.6475 96.0393 71.4173 93.5476 70.1045 90.9337M42.0627 90.9337C38.9868 92.9383 36.631 96.6127 35.0523 99.9271C34.5239 101.206 33.7143 101.712 33.0493 102.925C31.914 104.746 30.0477 106.16 28.0418 106.922C31.9274 107.951 36.041 109.666 40.0597 109.92C44.1152 110.037 47.6861 109.151 51.0761 106.922M104.155 58.957C91.6389 63.8589 82.7749 75.3681 71.106 81.9403M89.1328 80.941C93.0701 80.1605 97.1374 79.8774 101.151 79.9417C104.915 80.1354 108.766 79.5771 112.167 77.9432M64.0955 80.941C60.2947 72.6985 55.3466 65.3786 48.0717 59.9563C46.4981 58.746 44.5531 57.2422 43.0642 55.9592C41.4011 54.5045 40.3047 52.7871 39.0582 50.9629M25.0374 76.9439C37.2994 76.5203 48.8411 83.6173 61.0911 82.9395M28.0418 106.922C31.5346 107.407 35.8688 107.426 39.0582 105.923C45.6069 102.788 49.296 95.2304 55.0821 90.9337C57.2078 89.4276 59.7324 89.0389 62.0925 87.9359M84.1254 121.911C83.3022 120.217 82.1135 119.524 81.1209 117.914C77.5742 112.165 80.2258 103.932 77.1149 97.9286C76.0149 96.025 74.6759 94.4745 73.109 92.9322C71.6806 91.3709 69.542 89.4972 68.1015 87.9359C68.0168 87.8512 68.2104 87.8754 68.1015 87.9359C68.3653 87.9382 68.865 88.0497 69.103 87.9359C68.0741 93.455 64.0083 98.132 61.0911 102.925C57.1936 109.32 54.49 116.432 54.0806 123.91M104.155 109.92C100.291 108.122 97.2263 105.864 94.1403 102.925C92.373 101.23 90.9485 98.5512 89.1328 96.9293C84.8841 93.1409 79.2792 91.3074 74.1105 88.9351M75.1119 88.9351C77.9939 89.5249 81.3668 89.9121 84.1254 90.9337C90.128 93.3935 94.8868 98.3159 98.1463 103.924M71.106 49.9636C70.9365 60.5299 67.9894 71.3861 69.103 81.9403C69.4398 80.8234 69.6351 80.0103 70.1045 78.9424C70.7339 77.5021 71.4659 75.3743 72.1075 73.9461C73.9032 69.8046 75.2122 65.4684 75.1119 60.9556C75.0116 56.4427 74.0854 52.0227 72.1075 47.965M96.1433 61.9548L87.1298 65.9519C84.7283 67.2309 83.0975 69.0785 81.1209 70.9483C80.2615 71.8318 78.9395 73.0746 78.1164 73.9461C77.2933 74.8175 76.9608 75.0853 76.1134 75.9446C74.2279 77.8718 72.6988 80.3091 72.1075 82.9395C74.8841 82.6408 77.4925 81.8885 80.1194 80.941C82.6228 79.8111 84.9787 78.6514 87.1298 76.9439C89.4966 75.3395 91.1771 74.0277 93.1388 71.9475C94.7926 69.9359 96.9015 67.2401 98.1463 64.9526M45.0672 60.9556C45.8661 64.5261 49.2209 66.6743 52.0776 68.9497C54.9479 71.2308 57.6937 74.1688 60.0896 76.9439C61.6716 78.8027 64.1261 80.5022 66.0985 81.9403C65.7297 77.8333 64.2553 73.4599 62.0925 69.949C60.9079 68.0955 59.5682 66.5786 58.0866 64.9526C54.8667 61.3216 50.6685 57.6174 46.0687 55.9592M66.0985 48.9643C62.7818 54.6045 62.764 62.5349 64.0955 68.9497M34.0508 75.9446C44.3796 76.4719 55.0255 78.9696 64.0955 83.9388C59.6863 80.0281 53.7147 76.6464 48.0717 74.9454C42.4287 73.2443 36.8825 73.1239 31.0463 73.9461M36.0538 85.9373C41.3773 88.9099 47.2062 89.575 53.0791 87.9359C55.3255 87.2327 57.9765 85.9752 60.0896 84.9381C61.7116 84.1877 63.4992 83.6899 65.097 82.9395C57.4787 84.2448 49.6519 84.4049 42.0627 82.9395C39.0123 82.3465 35.3371 82.0235 33.0493 79.9417M53.0791 89.9344C48.673 93.0571 43.2465 96.4655 39.0582 99.9271C36.9515 101.438 35.1942 103.596 34.0508 105.923M38.0567 107.921C42.8347 107.154 47.7401 105.07 52.0776 102.925M45.0672 102.925C49.3575 100.757 53.7295 98.3724 57.0851 94.9308M58.0866 115.915C61.7134 112.296 64.3241 107.731 66.0985 102.925C67.8729 98.1185 68.5066 93.0433 68.1015 87.9359C61.7337 93.1975 56.7601 100.108 54.0806 107.921C53.3531 109.611 53.6917 112.119 54.0806 113.917M72.1075 99.9271C72.5437 106.071 75.4065 111.999 79.1179 116.915M82.1224 114.916C82.1224 108.961 81.772 102.564 78.1164 97.9286C75.877 95.0601 72.7732 92.5178 72.1075 88.9351M79.1179 95.93C82.6767 97.8424 84.7783 102.672 88.1313 104.923C90.2285 106.138 92.7397 106.602 95.1418 106.922M76.1134 84.9381C78.4306 86.2255 81.4804 86.7588 84.1254 86.9366C86.7703 87.1144 88.6671 86.903 91.1358 85.9373C92.9636 85.199 95.3533 84.7618 97.1448 83.9388C98.6242 83.2563 99.5704 82.3367 101.151 81.9403M104.155 76.9439C100.524 75.4189 95.5993 76.1156 92.1373 77.9432" stroke="url(#paint0_linear_1043_393)" stroke-width="0.604096" stroke-linecap="round" stroke-linejoin="round"/>
<path d="M67.0831 79.1137C66.2601 79.5025 64.9661 79.8087 64.0918 80.0923C63.5299 80.1222 62.641 79.9599 62.0976 80.0923C61.0633 80.4918 61.1498 82.0074 61.1005 83.0284C61.0019 83.6348 61.699 84.4892 62.0976 84.9857C62.5101 85.3071 62.5528 85.91 63.0947 85.9644C64.6708 86.2751 66.6398 86.5457 67.0831 87.9217C67.2924 88.5654 67.5384 89.413 68.0802 89.8791C68.6219 90.3452 69.1755 89.9013 70.0743 89.8791C71.5889 89.8791 73.6315 91.2683 75.0598 90.8577C75.4596 90.7195 75.7573 90.1548 76.0569 89.8791C76.3565 89.6033 75.9119 89.2635 76.0569 88.9004C76.3352 88.1849 77.0055 87.7 77.054 86.943C77.2141 85.567 77.1158 84.0271 76.0569 83.0284C74.998 82.0296 73.2629 81.9588 72.0685 81.071C71.7233 80.7431 71.4797 80.3549 71.0714 80.0923C70.4804 79.8038 69.7545 79.2357 69.0772 79.1137C68.2646 78.9694 67.9942 78.814 67.0831 79.1137Z" fill="url(#paint1_linear_1043_393)"/>
<path d="M30.0449 166.878C30.4577 161.818 31.1735 156.902 32.0478 151.889C34.8409 135.96 40.6692 120.356 51.0762 107.921M30.0449 166.878C33.1732 170.099 35.6691 174.614 37.0553 178.869C38.8768 185.159 37.3896 191.482 36.0538 197.856M30.0449 166.878C27.0333 172.059 25.9353 177.95 27.0404 183.866C28.1454 189.782 31.3664 194.012 36.0538 197.856M36.0538 135.901C40.1311 137.119 43.8419 139.295 46.0687 142.896C48.3031 146.643 48.8125 151.573 48.0717 155.886C44.3072 153.031 40.0726 149.196 38.0568 144.894C36.7932 141.91 35.8852 139.134 36.0538 135.901ZM36.0538 135.901C40.9112 141.829 43.6515 149.681 48.0717 155.886M36.0538 139.898C36.2496 138.874 36.7255 137.89 37.0553 136.9C37.4549 136.724 37.6197 136.9 38.0568 136.9C38.4939 136.9 39.6601 136.724 40.0598 136.9M37.0553 142.896C37.0922 141.301 37.3886 139.35 38.0568 137.899C38.8575 137.694 39.2755 138.638 40.0598 138.899C40.8297 139.139 42.3562 138.514 43.0643 138.899M38.0568 144.894C38.0949 142.859 38.5318 140.866 39.0583 138.899C41.1292 139.205 43.245 139.874 45.0672 140.897M39.0583 147.892C38.7296 145.69 39.4509 143.04 40.0598 140.897C42.316 141.628 43.9604 142.813 46.0687 143.895M40.0598 148.891C40.0598 147.867 40.0234 146.918 40.0598 145.894C40.1083 144.894 40.819 143.867 41.0613 142.896C41.4076 142.907 41.7426 142.764 42.0628 142.896C43.9846 143.472 45.3921 144.8 47.0702 145.894M42.0628 150.89C41.7229 148.992 41.7953 146.804 42.0628 144.894C44.021 145.294 45.2984 145.974 47.0702 146.893M43.0643 151.889C42.9914 150.407 43.0764 149.374 43.0643 147.892C44.8044 148.228 46.6072 148.899 48.0717 149.891M45.0672 152.888C44.9701 151.9 44.1265 150.879 44.0657 149.891C45.359 150.001 46.9705 151.207 48.0717 151.889M15.0225 137.899C19.7099 138.707 24.4896 139.357 29.0434 137.899C32.1081 136.787 34.7808 135.225 37.0553 132.903M15.0225 137.899C17.7062 134.429 20.7022 131.832 25.0374 130.904C29.2001 130.095 33.3918 130.781 37.0553 132.903M15.0225 137.899C22.6122 136.899 29.3685 133.445 37.0553 132.903M34.0508 130.904C34.4549 131.067 34.7473 131.595 35.0523 131.904C35.3574 132.213 35.8986 132.499 36.0538 132.903C35.543 133.817 34.6723 135.057 34.0508 135.901M30.0449 129.905C30.8119 130.158 31.345 130.508 32.0478 130.904C32.7657 131.289 33.668 132.188 34.0508 132.903C33.4376 134.378 32.1958 135.784 31.0464 136.9M28.0419 129.905C30.0341 130.531 31.422 131.602 33.0493 132.903C31.9554 134.634 30.5302 136.486 29.0434 137.899M25.0374 130.904C27.267 131.711 28.9761 132.752 31.0464 133.902C29.8813 135.808 27.8842 137.627 26.0389 138.899M22.0329 131.904C23.9855 132.388 26.3056 132.892 28.0419 133.902C28.3579 134.048 28.7971 133.658 29.0434 133.902C28.5076 134.755 27.74 136.174 27.0404 136.9C26.3118 137.623 25.8267 138.248 25.0374 138.899M21.0314 131.904C22.9086 132.575 25.4121 133.757 27.0404 134.902C25.8163 136.397 23.6648 137.855 22.0329 138.899M19.0285 133.902C20.7829 134.292 22.587 134.845 24.0359 135.901C22.9309 136.901 22.1729 137.947 21.0314 138.899M18.027 134.902C19.2742 135.235 20.0762 136.038 21.0314 136.9C20.2219 137.527 19.838 137.297 19.0285 137.899M32.0478 151.889C37.7431 153.841 42.9843 156.689 46.0687 161.882V161.882C49.1532 167.063 49.1039 172.881 48.0717 178.869C42.8379 174.929 36.8317 170.832 34.0508 164.88C32.3003 160.762 31.8158 156.352 32.0478 151.889ZM32.0478 151.889C38.6782 160.071 41.915 170.303 48.0717 178.869M32.0478 157.885C32.3148 156.472 32.5886 155.251 33.0493 153.888C33.6033 153.657 34.4516 153.873 35.0523 153.888C35.6531 153.902 36.5134 153.63 37.0553 153.888M33.0493 161.882C33.099 159.679 34.1247 157.888 35.0523 155.886C36.1451 155.601 36.988 155.522 38.0568 155.886C39.1229 156.21 40.0846 156.352 41.0613 156.886M34.0508 164.88C34.1154 162.058 35.3118 159.61 36.0538 156.886C38.9145 157.298 41.5491 158.472 44.0657 159.883M36.0538 167.878C35.6113 164.837 36.2205 161.842 37.0553 158.884C40.1725 159.893 43.1477 161.404 46.0687 162.881M38.0568 169.876C37.9457 168.473 38.0104 167.285 38.0568 165.879C38.1144 164.497 37.7187 163.224 38.0568 161.882C38.5374 161.893 39.618 161.694 40.0598 161.882C42.7091 162.674 44.7587 164.37 47.0702 165.879M40.0598 172.874C39.5864 170.252 39.6829 167.517 40.0598 164.88C42.7503 165.449 45.6284 166.623 48.0717 167.878M42.0628 173.873C41.9656 171.837 42.0749 169.914 42.0628 167.878C44.4892 168.337 46.028 169.499 48.0717 170.875M44.0657 175.872C43.92 174.51 43.1493 173.248 43.0643 171.875C44.8374 172.019 46.5658 172.933 48.0717 173.873M5.00757 155.886C11.5772 155.754 18.2556 156.069 24.0359 152.888C27.8919 150.582 31.5844 147.632 34.0508 143.895M5.00757 155.886C7.77629 150.488 11.4516 146.305 17.0255 143.895C22.5993 141.485 28.307 142.136 34.0508 143.895M5.00757 155.886C15.026 152.537 23.8381 146.63 34.0508 143.895M29.0434 141.896C29.6327 142.012 29.5516 142.556 30.0449 142.896C30.5381 143.236 31.7337 143.387 32.0478 143.895C31.6095 145.267 30.6658 146.592 30.0449 147.892M24.0359 141.896C25.1439 142.039 25.9843 142.534 27.0404 142.896C28.1167 143.225 29.3313 144.029 30.0449 144.894C29.6045 147.056 28.3065 149.077 27.0404 150.89M20.0299 142.896C22.8978 143.233 25.4826 143.567 28.0419 144.894C27.0157 147.529 25.6714 150.577 24.0359 152.888M16.024 143.895C19.2789 144.411 22.9086 145.869 26.0389 146.893C24.9602 149.775 23.2029 151.694 21.0314 153.888M13.0195 145.894C15.7814 146.026 19.4232 145.986 22.0329 146.893C22.5026 147.003 22.6374 147.62 23.0344 147.892C22.5087 149.158 21.7979 150.751 21.0314 151.889C20.2421 153.094 18.9256 153.803 18.027 154.887M12.018 146.893C14.7379 147.316 17.5193 147.771 20.0299 148.891C18.757 151.241 16.9675 154.045 15.0225 155.886M9.01354 148.891C11.4952 148.987 14.7897 149.817 17.0255 150.89C15.8111 152.541 14.3674 154.332 13.0195 155.886M8.01204 150.89C9.78803 151.023 11.4991 151.968 13.0195 152.888C12.133 153.937 10.9501 154.862 10.015 155.886M36.0538 197.856C35.0095 187.409 30.5063 177.373 30.0449 166.878M28.0419 171.875C28.2883 171.331 28.5983 171.275 29.0434 170.875C29.4885 170.475 29.4755 170.066 30.0449 169.876C31.291 170.6 32.9114 170.994 34.0508 171.875M27.0404 176.871C27.429 175.833 27.4534 174.814 28.0419 173.873C28.6145 172.908 30.0343 172.371 31.0464 171.875C33.0688 172.787 34.5592 173.241 36.0538 174.872M26.0389 179.869C27.0041 177.167 29.1623 175.046 31.0464 172.874C33.4021 174.461 35.1523 176.768 37.0553 178.869M27.0404 184.865C28.2633 181.845 29.3515 178.658 31.0464 175.872C33.6315 177.567 36.3819 179.28 38.0568 181.867M28.0419 186.864C28.7921 184.223 29.5737 182.191 31.0464 179.869C31.2594 179.441 31.6912 179.19 32.0478 178.869C33.1875 179.663 34.0923 180.866 35.0523 181.867C36.0238 182.891 37.1946 183.757 38.0568 184.865M29.0434 188.862C30.0609 186.326 31.3835 184.04 33.0493 181.867C35.0717 183.59 36.6849 185.595 38.0568 187.863M31.0464 191.86C31.6767 189.493 32.5262 187.79 34.0508 185.864C35.3988 187.419 36.7817 188.259 38.0568 189.861M32.0478 193.859C32.5758 192.17 33.8083 191.127 35.0523 189.861C35.8902 190.958 36.2781 191.739 37.0553 192.859M42.0628 122.91C31.0812 123.305 20.1515 125.695 10.015 129.905M14.021 113.917C17.3119 114.941 20.5814 115.48 23.0344 117.914C24.6464 119.632 26.3511 121.664 27.0404 123.91C23.9721 124.068 20.4377 123.801 18.027 121.911C15.6974 119.849 14.3824 116.993 14.021 113.917V113.917ZM14.021 113.917C18.587 117.062 22.2923 121.042 27.0404 123.91M24.0359 123.91C24.3519 123.939 24.7363 124.009 25.0374 123.91C25.3385 123.81 25.8039 124.121 26.0389 123.91C26.0148 123.151 25.1589 121.661 25.0374 120.912M21.0314 123.91C21.6098 123.998 22.4502 123.942 23.0344 123.91C23.6262 123.902 24.5533 123.248 25.0374 122.91C25.1315 121.758 24.4025 121.01 24.0359 119.913M20.0299 122.91C21.5276 123.166 22.549 123.221 24.0359 122.91C23.9066 121.433 23.5181 119.317 23.0344 117.914M18.027 120.912C19.7349 121.117 21.3148 121.964 23.0344 121.911C22.9094 120.301 22.7969 118.34 22.0329 116.915M17.0255 119.913C18.441 120.242 19.5798 120.994 21.0314 120.912C21.2863 120.928 21.7906 120.992 22.0329 120.912C21.9499 120.189 21.2473 118.61 21.0314 117.914C20.8007 117.215 21.3229 116.59 21.0314 115.915M16.024 119.913C17.458 120.111 19.5974 120.111 21.0314 119.913C20.7381 118.543 19.7406 117.124 19.0285 115.915M15.0225 117.914C16.28 118.234 17.7474 118.123 19.0285 117.914C18.652 116.914 18.4641 115.904 18.027 114.916M15.0225 116.915C15.9391 117.104 16.1222 117.159 17.0255 116.915C16.734 116.252 17.3412 115.567 17.0255 114.916M9.01354 136.9C11.5238 132.5 14.6882 128.558 19.0285 125.908M43.0643 119.913C45.7103 131.265 51.9717 141.55 61.0911 148.891M75.112 155.886C71.6754 155.609 68.0358 155.695 65.0971 153.888C63.1474 152.556 61.2654 150.93 60.0896 148.891C61.5567 148.429 63.5633 147.762 65.0971 147.892C66.6308 148.022 67.7363 149.188 69.103 149.891C70.4698 150.593 72.1174 150.721 73.109 151.889C74.1006 153.057 74.6467 154.43 75.112 155.886V155.886ZM75.112 155.886C69.9631 153.814 65.3599 150.651 60.0896 148.891M63.0941 147.892C62.7806 147.934 62.3624 148.727 62.0926 148.891C61.8228 149.055 61.271 148.633 61.0911 148.891C61.2823 149.621 61.8066 150.191 62.0926 150.89M66.0986 147.892C65.5154 147.938 64.6594 148.737 64.0956 148.891C63.5162 149.028 62.4945 149.455 62.0926 149.891C62.2674 151.043 63.4695 151.903 64.0956 152.888M68.1016 148.891C66.5856 148.974 64.4749 149.264 63.0941 149.891C63.55 151.303 64.3109 152.627 65.0971 153.888M70.1045 149.891C68.3913 150.059 66.7625 150.457 65.0971 150.89C65.5499 152.453 66.0401 153.646 67.1001 154.887M71.106 150.89C69.6532 150.874 68.4984 150.498 67.1001 150.89C66.8509 150.935 66.315 150.759 66.0986 150.89C66.3308 151.577 66.7347 152.261 67.1001 152.888C67.4765 153.527 67.7008 154.248 68.1016 154.887M72.1075 150.89C70.6644 151.022 68.4529 151.373 67.1001 151.889C67.6947 153.16 69.1462 154.858 70.1045 155.886M73.109 152.888C71.8098 152.85 70.3113 152.413 69.103 152.888C69.6981 153.792 70.4867 155.019 71.106 155.886M74.1105 153.888C73.1747 153.898 71.934 153.455 71.106 153.888C71.5432 154.478 71.6582 155.368 72.1075 155.886M70.1045 142.896C66.8501 144.101 63.5262 144.389 60.0896 143.895C57.7598 143.485 54.9925 143.278 53.0792 141.896M70.1045 142.896V142.896C67.9803 140.683 65.1593 139.18 62.0926 138.899C58.9877 138.813 55.4473 139.902 53.0792 141.896M70.1045 142.896C64.5428 143.113 58.6045 141.342 53.0792 141.896M56.0836 139.898C55.8137 140.063 55.262 140.638 55.0822 140.897C54.9023 141.157 55.1412 141.587 55.0822 141.896C55.5608 142.486 55.5351 142.37 56.0836 142.896M58.0866 138.899C57.5709 139.178 57.5387 139.528 57.0851 139.898C56.6226 140.262 56.2709 141.341 56.0836 141.896C56.7136 142.88 57.1145 143.241 58.0866 143.895M60.0896 138.899C58.7445 139.591 57.0818 140.765 56.0836 141.896C57.0814 142.997 58.8533 144.066 60.0896 144.894M62.0926 138.899C60.5988 139.746 59.4216 140.819 58.0866 141.896C59.1601 143.112 60.6123 144.22 62.0926 144.894M64.0956 138.899C62.78 139.485 61.1908 139.973 60.0896 140.897C59.8787 141.042 60.2405 141.691 60.0896 141.896C60.5934 142.425 60.4963 142.47 61.0911 142.896C61.6983 143.33 62.4019 144.485 63.0941 144.894M65.0971 138.899C63.8362 139.605 62.1103 140.876 61.0911 141.896C62.1527 142.813 63.8014 143.351 65.0971 143.895M67.1001 139.898C65.9017 140.398 63.9947 140.966 63.0941 141.896C64.0049 142.475 65.1635 143.353 66.0986 143.895M68.1016 140.897C67.2561 141.292 66.6743 142.166 66.0986 142.896C66.73 143.257 66.4443 143.558 67.1001 143.895M55.0822 156.886C52.6638 153.383 50.8092 149.077 50.0747 144.894C49.3484 140.726 48.2129 136.979 47.0702 132.903M45.0672 127.907C47.6902 127.69 49.7947 129.651 52.0777 130.904C54.6981 132.329 58.1769 133.248 61.0911 133.902M9.01354 130.904C8.80738 130.974 9.2091 130.999 9.01354 130.904C8.81797 130.81 8.08377 130.109 8.01204 129.905C7.94119 129.702 7.91753 130.098 8.01204 129.905C8.10655 129.712 8.80902 128.976 9.01354 128.906C9.21805 128.836 8.81882 128.812 9.01354 128.906C9.20825 129 9.94417 129.702 10.015 129.905C10.0854 130.108 10.1081 129.711 10.015 129.905C9.92192 130.099 9.2168 130.831 9.01354 130.904ZM9.01354 136.9C8.97845 136.8 9.0847 136.98 9.01354 136.9C8.94237 136.821 9.10995 136.947 9.01354 136.9C8.91712 136.854 8.11903 136.906 8.01204 136.9C7.90506 136.894 8.11331 136.865 8.01204 136.9C7.91078 136.935 8.09217 136.83 8.01204 136.9C7.93191 136.971 7.05735 136.804 7.01055 136.9C6.96376 136.996 7.01689 137.793 7.01055 137.899C7.00421 138.006 6.97547 137.799 7.01055 137.899C7.08141 138.102 7.81733 137.806 8.01204 137.899C8.20676 137.993 7.80753 138.969 8.01204 138.899C8.21656 138.828 8.91903 138.093 9.01354 137.899C9.10805 137.706 9.08439 137.103 9.01354 136.9ZM55.0822 157.885C54.9302 157.938 55.2383 157.924 55.0822 157.885C54.926 157.845 55.1897 158.004 55.0822 157.885C54.9746 157.766 54.1033 157.044 54.0807 156.886C54.0581 156.727 54.0106 157.03 54.0807 156.886C54.1507 156.741 54.9432 156.967 55.0822 156.886C55.2211 156.804 54.9212 155.877 55.0822 155.886C55.2431 155.896 55.9552 156.789 56.0836 156.886C56.2121 156.982 56.0311 156.734 56.0836 156.886C56.1221 156.985 56.0874 156.779 56.0836 156.886C56.0799 156.992 56.129 157.788 56.0836 157.885C56.0383 157.981 56.1634 157.813 56.0836 157.885C56.0039 157.956 56.1852 157.85 56.0836 157.885H55.0822ZM62.0926 134.902C61.9406 134.952 61.2457 134.943 61.0911 134.902C60.9365 134.86 61.1966 135.021 61.0911 134.902C60.9856 134.782 61.1122 134.06 61.0911 133.902C61.07 133.745 61.0208 134.045 61.0911 133.902C61.1614 133.759 60.9529 132.983 61.0911 132.903C61.2293 132.823 60.9311 132.894 61.0911 132.903C61.2511 132.912 61.9644 132.808 62.0926 132.903C62.2208 132.998 62.039 133.752 62.0926 133.902C62.1293 134.004 62.0978 133.795 62.0926 133.902C62.0874 134.01 62.1388 133.805 62.0926 133.902C62.0464 134 62.1729 134.829 62.0926 134.902C62.0123 134.974 62.1947 134.865 62.0926 134.902V134.902Z" stroke="url(#paint2_linear_1043_393)" stroke-width="0.604096" stroke-linecap="round" stroke-linejoin="round"/>
<path d="M95.1419 57.9577C104.38 49.7135 114.612 43.3955 126.188 38.9716C130.917 37.0831 136.277 35.4187 141.21 33.9752M133.199 52.9614C129.58 49.894 125.813 47.025 121.181 45.9665C117.979 45.3531 114.315 45.1236 111.166 45.9665C113.202 49.6652 117.195 52.5454 121.181 53.9606C125.318 55.3199 129.121 54.5612 133.199 52.9614V52.9614ZM133.199 52.9614C126.202 49.9662 117.969 49.3826 111.166 45.9665M114.17 49.9636C113.91 49.6253 113.268 48.3794 113.169 47.965C113.069 47.5506 113.091 47.3848 113.169 46.9657C114.068 46.4363 115.209 46.3661 116.173 45.9665M116.173 51.9621C115.653 51.3541 115.566 50.6597 115.172 49.9636C114.762 49.269 114.138 48.7704 114.17 47.965C115.442 46.9896 116.622 46.3641 118.176 45.9665M118.176 52.9614C116.799 51.4087 115.891 49.9102 115.172 47.965C117 47.0468 119.187 46.4307 121.181 45.9665M121.181 54.9599C119.694 53.1555 118.346 50.9866 117.175 48.9643C119.145 47.9328 121.964 47.1079 124.185 46.9657M123.184 54.9599C121.751 53.5699 121.146 51.708 120.179 49.9636C119.98 49.6802 119.258 49.3008 119.178 48.9643C120.079 48.5308 121.214 48.2196 122.182 47.965C123.171 47.7124 124.173 48.1214 125.187 47.965M125.187 54.9599C123.93 53.4358 122.983 51.768 122.182 49.9636C123.993 49.3009 125.261 49.0267 127.19 48.9643M127.19 54.9599C125.899 53.7413 124.867 52.5992 124.185 50.9628C125.633 50.6621 127.733 50.2041 129.193 49.9636M129.193 54.9599C128.307 54.035 127.556 52.1884 127.19 50.9628C128.167 50.8185 129.193 51.0711 130.194 50.9628M108.161 47.965C105.312 44.8504 104.212 41.1889 104.155 36.973C104.191 32.6186 106.328 29.301 109.163 25.9811M108.161 47.965C109.972 45.2854 111.724 42.1723 112.167 38.9716C112.662 34.2563 110.924 30.3475 109.163 25.9811M108.161 47.965C107.124 40.447 109.742 33.5471 109.163 25.9811M110.164 43.9679C109.475 44.7513 108.958 45.2923 108.161 45.9665C107.733 45.9053 107.526 46.1965 107.16 45.9665C106.794 45.7364 106.398 45.3261 106.158 44.9672M111.166 41.9694C110.313 43.3166 109.481 44.0688 108.161 44.9672C107.381 44.7439 106.684 44.584 106.158 43.9679C105.623 43.3722 105.56 42.6613 105.157 41.9694M112.167 38.9716C111.085 40.7216 109.627 42.5217 108.161 43.9679C106.515 42.6483 105.204 40.7996 104.155 38.9716M112.167 35.9738C111.314 38.0254 109.781 40.4447 108.161 41.9694C106.604 40.2037 105.4 37.9706 104.155 35.9738M112.167 34.9745C111.712 35.8865 110.713 36.114 110.164 36.973C109.615 37.807 108.864 39.2609 108.161 39.9709C107.864 39.7907 107.364 39.252 107.16 38.9716C105.819 37.5039 105.022 35.7624 104.155 33.9752M111.166 31.9767C110.476 33.7738 109.366 35.4701 108.161 36.973C106.704 35.6313 106.197 34.6593 105.157 32.976M111.166 30.9774C110.478 32.2765 109.911 33.6995 109.163 34.9745C107.837 33.7976 105.899 31.5859 105.157 29.9781M110.164 28.9789C109.73 29.881 109.621 31.0986 109.163 31.9767C108.142 31.2266 106.724 30.1103 106.158 28.9789M156.233 48.9643C151.287 44.7181 146.602 40.4271 140.209 38.9716C135.808 38.1194 130.518 37.8107 126.188 38.9716C129.276 44.0838 133.55 48.063 139.208 49.9636C144.865 51.8641 150.612 51.1656 156.233 48.9643V48.9643ZM156.233 48.9643C146.583 44.8264 135.573 43.6869 126.188 38.9716M129.193 42.9687C128.832 42.4933 129.332 42.549 129.193 41.9694C129.053 41.3897 128.085 40.5575 128.191 39.9709C129.441 39.2505 130.868 38.5338 132.197 37.9723M133.199 46.9657C132.477 46.1299 131.733 44.9318 131.196 43.9679C130.621 43.0111 130.139 42.0839 130.194 40.9701C131.962 39.653 134.056 38.4802 136.203 37.9723M136.203 48.9643C134.289 46.8256 133.2 44.656 132.197 41.9694C134.714 40.6878 137.454 39.5992 140.209 38.9716M140.209 49.9636C138.151 47.4515 135.835 44.7737 134.2 41.9694C136.929 40.5698 140.151 40.1578 143.213 39.9709M143.213 50.9628C141.253 49.043 139.525 47.3703 138.206 44.9672C137.929 44.5748 137.318 43.4347 137.205 42.9687C138.454 42.3677 139.869 42.3205 141.21 41.9694C142.579 41.64 143.821 41.1536 145.216 40.9701M145.216 50.9628C143.481 48.8575 141.315 46.4603 140.209 43.9679C142.713 43.0542 145.556 43.0509 148.221 42.9687M148.221 50.9628C146.44 49.2647 145.163 47.2356 144.215 44.9672C146.217 44.5582 148.209 44.2927 150.224 43.9679M151.225 50.9628C150 49.6885 148.732 47.6571 148.221 45.9665C149.584 45.774 150.864 46.1108 152.227 45.9665M118.176 42.9687C115.269 37.7602 113.965 31.8631 115.172 25.9811C116.366 20.087 120.458 15.7563 125.187 11.9913M118.176 42.9687C121.333 39.8068 123.723 35.194 125.187 30.9774C127.105 24.7225 126.405 18.3906 125.187 11.9913M118.176 42.9687C118.755 32.5037 123.968 22.4082 125.187 11.9913M122.182 37.9723C121.034 38.8574 120.439 39.2541 119.178 39.9709C118.613 39.7662 117.609 39.3858 117.175 38.9716C116.741 38.5574 116.403 38.5258 116.173 37.9723M124.185 34.9745C122.675 36.5769 121.201 37.099 119.178 37.9723C118.161 37.4707 116.728 36.9609 116.173 35.9738C115.606 35.0335 115.535 34.0113 115.172 32.976M125.187 30.9774C123.26 33.0361 121.538 35.428 119.178 36.973C117.338 34.7753 116.082 31.6937 115.172 28.9789M126.188 27.9796C124.491 30.5127 122.754 32.3356 120.179 33.9752C118.552 31.1661 116.339 28.0096 115.172 24.9818M126.188 24.9818C125.327 26.0987 124.155 26.9568 123.184 27.9796C122.213 28.9607 121.319 30.1983 120.179 30.9774C119.833 30.6287 119.382 30.425 119.178 29.9781C117.747 27.6368 116.87 24.636 116.173 21.984M126.188 21.984C124.785 24.2504 123.222 26.2617 121.181 27.9796C119.563 25.7593 118.142 23.554 117.175 20.9847M126.188 18.9862C124.901 20.59 123.541 22.4749 122.182 23.9825C120.691 22.0386 119.755 20.3658 119.178 17.9869M126.188 16.9876C125.368 18.1063 124.028 18.9029 123.184 19.9854C121.964 18.7032 121.673 17.6859 121.181 15.9884M141.21 33.9752C145.65 29.9817 150.201 27.1367 156.233 26.9803V26.9803C162.264 26.8119 167.48 30.1982 172.257 33.9752C166.286 36.5614 159.779 38.4294 153.228 37.9723C148.779 37.5034 145.009 36.3324 141.21 33.9752ZM141.21 33.9752C151.56 32.1829 161.774 35.13 172.257 33.9752M146.218 36.973C145.109 36.0515 144.193 35.0323 143.213 33.9752C143.283 33.3845 143.914 32.4901 144.215 31.9767C144.516 31.4633 144.734 31.3273 145.216 30.9774M150.224 37.9723C148.337 36.8561 146.513 35.7402 145.216 33.9752C145.499 32.893 146.392 31.7324 147.219 30.9774C148.02 30.2178 148.29 29.5714 149.222 28.9789M153.228 38.9716C150.784 37.56 149.263 35.9198 147.219 33.9752C148.957 31.6957 150.78 29.4762 153.228 27.9796M157.234 37.9723C154.353 36.8976 151.406 36.1354 149.222 33.9752C151.598 31.7705 154.536 28.7787 157.234 26.9803M159.237 37.9723C157.959 37.3588 157.439 36.7316 156.233 35.9738C155.048 35.2592 153.24 34.9163 152.227 33.9752C152.473 33.5649 152.853 33.2736 153.228 32.976C155.195 31.0611 157.806 29.2556 160.239 27.9796M163.243 36.973C160.718 36.1242 158.357 35.5801 156.233 33.9752C158.053 31.8696 159.916 29.5133 162.242 27.9796M165.246 36.973C163.413 36.0709 161.071 34.9616 159.237 33.9752C160.805 32.0985 163.059 30.0776 165.246 28.9789M167.249 35.9738C165.963 35.4445 165.507 34.5686 164.245 33.9752C165.228 32.5127 165.71 30.8406 167.249 29.9781M99.1478 21.984C97.132 32.6862 97.2676 44.2332 99.1478 54.9599M98.1463 39.9709C97.6914 36.9492 96.4978 33.9286 94.1404 31.9767C91.6578 30.1821 88.1793 29.6874 85.127 29.9781C86.8037 32.9613 88.2408 36.1079 91.1359 37.9723C93.1462 39.1652 95.815 39.7787 98.1463 39.9709ZM98.1463 39.9709C94.3707 35.9653 89.1439 33.7552 85.127 29.9781M95.1419 38.9716C95.8992 38.9376 96.4003 39.1138 97.1449 38.9716C97.3029 38.7016 97.1095 38.283 97.1449 37.9723C97.1802 37.6616 97.2383 37.2715 97.1449 36.973M93.1389 37.9723C94.2934 38.1092 95.0304 38.3075 96.1434 37.9723C96.3792 37.427 97.2549 36.5574 97.1449 35.9738C97.0541 35.4026 96.3493 35.5151 96.1434 34.9745M91.1359 37.9723C92.6101 38.1528 94.6692 38.1528 96.1434 37.9723C96.1309 36.4688 95.6955 34.3745 95.1419 32.976M90.1344 35.9738C91.699 36.4337 93.526 37.1951 95.1419 36.973C94.8425 35.2899 93.6987 33.5924 93.1389 31.9767M89.1329 34.9745C89.8567 35.1188 90.4001 35.9016 91.1359 35.9738C91.8619 36.046 92.4129 36.046 93.1389 35.9738C93.1861 35.7274 93.1861 35.2209 93.1389 34.9745C92.9004 33.546 92.7787 32.2767 92.1374 30.9774M88.1314 33.9752C89.4636 34.4076 90.7365 34.9765 92.1374 34.9745C92.0416 33.5422 91.6164 31.3313 91.1359 29.9781M87.1299 32.976C88.1794 33.1684 89.0729 33.8189 90.1344 33.9752C90.0783 32.6901 89.7129 31.1272 89.1329 29.9781M86.1284 31.9767C86.8402 32.1451 88.4212 31.8323 89.1329 31.9767C89.1812 31.0524 88.5049 30.8255 88.1314 29.9781M98.1463 31.9767C99.8629 27.2104 103.338 23.3211 107.16 19.9854M129.193 67.9504C120.122 60.6528 108.798 56.1529 97.1449 55.9592M129.193 66.9512C128.973 70.0063 129.313 73.524 131.196 75.9446V75.9446C133.209 78.3002 136.132 79.5241 139.208 79.9417C138.218 76.6578 137.614 73.354 135.202 70.9482C133.491 69.3055 131.451 67.6831 129.193 66.9512ZM129.193 66.9512C131.991 71.7627 136.107 75.3708 139.208 79.9417M132.197 67.9504C131.452 67.816 129.949 67.9762 129.193 67.9504C128.978 68.1771 129.296 68.6554 129.193 68.9497C129.089 69.244 129.167 69.638 129.193 69.949M133.199 69.949C132.104 69.5643 131.351 68.8666 130.194 68.9497C129.858 69.4317 129.219 70.3616 129.193 70.9482C129.162 71.5266 129.114 71.3737 129.193 71.9475M135.202 70.9482C133.803 70.4497 131.672 70.0975 130.194 69.949C129.869 71.4188 129.964 72.4584 130.194 73.9461M136.203 71.9475C134.784 71.172 132.808 71.0931 131.196 70.9482C131.116 72.6541 132.005 74.2477 132.197 75.9446M137.205 72.9468C136.517 72.6461 135.901 73.1753 135.202 72.9468C134.512 72.7195 132.919 72.0322 132.197 71.9475C132.114 72.1873 132.194 72.6931 132.197 72.9468C132.103 74.383 132.881 75.54 133.199 76.9439M138.206 74.9453C137.006 74.23 135.565 73.2514 134.2 72.9468C133.979 74.3639 134.035 76.5184 134.2 77.9431M138.206 75.9446C137.217 75.5236 136.215 75.3182 135.202 74.9453C134.986 76.2122 134.899 77.6934 135.202 78.9424M138.206 76.9439C137.555 76.6191 136.866 77.2326 136.203 76.9439C135.95 77.8367 136.021 78.0325 136.203 78.9424M121.181 61.9548C119.708 64.6471 118.482 67.9611 119.178 70.9482V70.9482C120.051 73.8985 122.564 76.3227 125.187 77.9431C125.645 74.5631 126.393 71.1741 125.187 67.9504C124.302 65.8186 122.893 63.5063 121.181 61.9548ZM121.181 61.9548C121.784 67.4279 124.258 72.5182 125.187 77.9431M123.184 63.9534C122.559 63.5104 121.858 63.3122 121.181 62.9541C120.899 63.0769 120.387 63.7276 120.179 63.9534C119.971 64.1791 120.278 64.6624 120.179 64.9526M124.185 65.9519C123.321 65.1042 122.32 64.3659 121.181 63.9534C120.67 64.2296 120.456 64.4438 120.179 64.9526C119.91 65.4632 119.341 66.3978 119.178 66.9512M125.187 67.9504C124.114 66.928 122.464 65.6962 121.181 64.9526C120.284 66.1602 119.58 67.5015 119.178 68.9497M125.187 68.9497C124.217 67.656 122.597 66.7356 121.181 65.9519C120.406 67.4701 119.704 69.3278 119.178 70.9482M125.187 70.9482C124.692 70.3949 124.728 69.4549 124.185 68.9497C123.649 68.4628 122.801 68.3277 122.182 67.9504C122.006 68.1349 122.277 67.7138 122.182 67.9504C121.494 69.2176 120.467 71.5344 120.179 72.9468M125.187 72.9468C124.387 71.8013 123.301 70.7875 122.182 69.949C121.394 71.1468 121.618 71.5823 121.181 72.9468M125.187 73.9461C124.463 73.1522 123.932 71.7061 123.184 70.9482C122.456 72.0087 122.417 73.6819 122.182 74.9453M125.187 74.9453C124.728 74.384 124.668 73.4921 124.185 72.9468C123.603 73.6455 123.395 75.0608 123.184 75.9446M110.164 57.9577C114.393 58.2264 118.95 58.1222 123.184 57.9577C127.434 57.7999 131.273 58.3322 135.202 59.9563M114.17 70.9482C112.92 68.2565 112.115 65.1935 110.164 62.9541C108.451 60.9814 105.482 59.5567 105.157 56.9585M100.149 21.984C100.044 21.9706 100.242 22.0366 100.149 21.984C100.057 21.9314 99.2128 22.0678 99.1478 21.984C99.0829 21.9002 99.1757 21.0869 99.1478 20.9847C99.12 20.8825 99.1343 21.0898 99.1478 20.9847C99.1598 20.8801 99.0964 21.0766 99.1478 20.9847C99.1993 20.8928 99.0648 21.0496 99.1478 20.9847C99.2309 20.9198 100.048 20.0133 100.149 19.9854C100.251 19.9575 100.045 19.972 100.149 19.9854C100.362 20.0096 101.017 20.8178 101.151 20.9847C101.284 21.1516 101.175 20.7726 101.151 20.9847C101.139 21.1024 101.211 21.882 101.151 21.984C101.091 22.086 100.247 21.9165 100.149 21.984C100.052 22.0514 100.266 21.9634 100.149 21.984C100.032 22.0045 100.264 22.0141 100.149 21.984V21.984ZM108.161 18.9862C108.185 18.7727 108.294 18.1557 108.161 17.9869C108.028 17.8181 108.375 18.014 108.161 17.9869C108.055 17.9714 107.264 17.9598 107.16 17.9869C107.055 18.014 107.245 17.9215 107.16 17.9869C107.074 18.0522 107.213 18.8928 107.16 18.9862C107.106 19.0795 107.173 18.8794 107.16 18.9862C107.147 19.0929 107.13 18.8828 107.16 18.9862C107.189 19.0895 107.092 18.9024 107.16 18.9862C107.227 19.0699 107.065 19.9345 107.16 19.9854C107.255 20.0364 107.052 19.9752 107.16 19.9854C107.344 19.9705 108.027 20.1124 108.161 19.9854C108.295 19.8585 108.137 19.1688 108.161 18.9862V18.9862ZM136.203 60.9555C136.018 60.9186 135.319 61.1032 135.202 60.9555C135.084 60.8079 135.195 60.1444 135.202 59.9563C135.226 59.7442 136.036 60.0893 136.203 59.9563C136.37 59.8232 135.99 59.9326 136.203 59.9563C136.417 59.9834 137.071 59.7875 137.205 59.9563C137.338 60.1251 137.228 60.7421 137.205 60.9555C137.193 61.0652 137.259 60.8595 137.205 60.9555C137.15 61.0516 137.293 60.889 137.205 60.9555C137.116 61.0221 136.31 60.9295 136.203 60.9555C136.096 60.9816 136.312 60.9743 136.203 60.9555V60.9555ZM114.17 71.9475C114.063 71.9373 114.265 71.9985 114.17 71.9475C114.075 71.8966 114.238 72.0312 114.17 71.9475C114.103 71.8638 114.2 71.0516 114.17 70.9482C114.141 70.8449 114.157 71.055 114.17 70.9482C114.183 70.8415 114.117 71.0416 114.17 70.9482C114.224 70.8549 114.085 71.0136 114.17 70.9482C114.256 70.8829 114.066 69.976 114.17 69.949C114.275 69.9219 115.065 69.9335 115.172 69.949C115.277 69.9623 115.08 70.8957 115.172 70.9482C115.264 71.0008 115.107 70.8645 115.172 70.9482C115.237 71.032 115.144 70.846 115.172 70.9482C115.2 71.0505 115.185 70.8432 115.172 70.9482C115.17 71.0578 115.217 71.8476 115.172 71.9475C115.127 72.0474 115.253 71.8741 115.172 71.9475C115.09 72.021 115.276 71.9129 115.172 71.9475C115.067 71.9822 114.28 71.9575 114.17 71.9475V71.9475Z" stroke="url(#paint3_linear_1043_393)" stroke-width="0.604096" stroke-linecap="round" stroke-linejoin="round"/>
<path d="M167.196 41.0024C169.011 40.9297 171.364 41.0024 173.203 41.0024C200.603 41.005 227.167 48.2871 250.288 63.0003C273.409 77.7134 291.724 99.1649 303.346 123.994C314.969 148.824 319.866 175.794 316.361 202.987C312.855 230.18 301.864 255.914 284.325 276.98C266.787 298.046 243.346 313.615 217.251 321.976C191.157 330.336 162.666 330.93 136.162 323.975C109.658 317.02 85.7229 303.078 67.0861 282.979C48.4493 262.88 35.997 237.953 31.0464 210.986" stroke="url(#paint4_linear_1043_393)" stroke-width="0.604096" stroke-linecap="round" stroke-linejoin="round"/>
<path d="M31.0464 207.809C46.665 292.051 145.094 348.329 224.262 320.637C241.104 314.767 256.947 305.466 270.313 293.678C337.627 234.046 326.713 125.736 257.298 73.0146C240.988 60.6194 221.943 50.7084 202.237 45.0572C189.085 41.2013 175.891 39.5418 162.192 40.0648" stroke="url(#paint5_linear_1043_393)" stroke-width="0.604096" stroke-linecap="round" stroke-linejoin="round"/>
<path d="M110.223 246.652C109.174 246.652 108.261 246.382 107.482 245.841C106.671 245.333 106.095 244.555 105.757 243.506C105.757 243.439 105.757 243.371 105.757 243.303C105.723 243.236 105.706 243.168 105.706 243.1C105.706 242.864 105.74 242.661 105.808 242.491C105.876 242.322 105.96 242.238 106.062 242.238C106.298 242.238 106.484 242.559 106.62 243.202C106.958 244.048 107.466 244.589 108.142 244.826C108.819 245.096 109.58 245.232 110.426 245.232C110.696 245.232 110.967 245.215 111.237 245.181C111.508 245.147 111.762 245.096 111.999 245.029C113.521 244.555 114.959 243.692 116.312 242.441C117.631 241.223 118.866 239.751 120.016 238.026C121.166 236.267 122.215 234.389 123.162 232.393C124.143 230.364 125.023 228.334 125.801 226.304C126.579 224.24 127.256 222.295 127.831 220.468C128.44 218.608 128.947 217.001 129.353 215.648C128.406 216.527 127.34 217.187 126.156 217.627C124.972 218.067 123.873 218.354 122.858 218.489H122.807C122.435 218.489 122.249 218.354 122.249 218.083C122.249 217.813 122.452 217.661 122.858 217.627C123.839 217.525 124.837 217.153 125.852 216.51C126.867 215.834 127.814 214.988 128.693 213.973C129.607 212.925 130.334 211.791 130.875 210.573C130.943 210.404 131.163 210.269 131.535 210.167C131.941 210.032 132.347 209.964 132.753 209.964C133.125 209.964 133.447 210.015 133.717 210.117C134.022 210.218 134.14 210.37 134.072 210.573C132.719 213.855 131.4 217.187 130.114 220.57C128.863 223.953 127.442 227.285 125.852 230.567C126.528 229.721 127.222 228.892 127.932 228.08C128.677 227.234 129.505 226.338 130.419 225.391V224.731C130.419 224.46 130.419 224.224 130.419 224.021C130.419 223.818 130.436 223.615 130.47 223.412C130.537 223.242 130.639 223.04 130.774 222.803C130.909 222.566 131.045 222.447 131.18 222.447C131.315 222.447 131.434 222.667 131.535 223.107C131.535 223.242 131.535 223.361 131.535 223.462C131.569 223.564 131.603 223.682 131.637 223.818L131.738 223.716C132.043 223.412 132.618 222.887 133.463 222.143C134.309 221.399 135.307 220.519 136.457 219.504C137.641 218.489 138.876 217.458 140.162 216.409C141.447 215.326 142.665 214.312 143.815 213.364C144.965 212.383 145.963 211.571 146.809 210.929C147.655 210.286 148.213 209.897 148.484 209.761C148.991 209.491 149.448 209.305 149.854 209.203C150.294 209.102 150.666 209.051 150.97 209.051C151.511 209.051 151.9 209.169 152.137 209.406C152.408 209.609 152.543 209.863 152.543 210.167C152.543 210.776 152.154 211.284 151.376 211.69C150.361 212.163 149.16 212.806 147.773 213.618C146.386 214.396 144.932 215.276 143.409 216.257C141.887 217.204 140.398 218.202 138.944 219.251C137.489 220.265 136.153 221.263 134.935 222.245C133.717 223.226 132.736 224.122 131.992 224.934C132.499 226.727 132.99 228.266 133.463 229.552C133.937 230.837 134.512 232.072 135.189 233.256C135.899 234.406 136.829 235.709 137.98 237.163C138.758 238.077 139.553 238.804 140.365 239.345C141.177 239.887 141.904 240.157 142.547 240.157C143.122 240.157 143.511 240.039 143.714 239.802C143.951 239.531 144.069 239.21 144.069 238.838C144.069 238.364 143.951 237.874 143.714 237.366C143.477 236.859 143.24 236.436 143.003 236.098C142.834 235.827 142.75 235.641 142.75 235.539C142.75 235.404 142.834 235.336 143.003 235.336C143.342 235.336 143.663 235.489 143.967 235.793C144.137 235.962 144.356 236.334 144.627 236.91C144.932 237.485 145.084 237.992 145.084 238.432C145.084 239.108 144.847 239.684 144.373 240.157C143.9 240.631 143.359 240.969 142.75 241.172C142.141 241.409 141.616 241.527 141.177 241.527C139.587 241.527 138.183 241.071 136.965 240.157C135.781 239.244 134.766 238.06 133.92 236.605C133.108 235.117 132.432 233.51 131.89 231.784C131.349 230.025 130.926 228.317 130.622 226.659C129.167 228.351 127.729 230.059 126.309 231.784C124.888 233.51 123.737 234.964 122.858 236.148C122.215 237.231 121.454 238.381 120.574 239.599C119.695 240.817 118.714 241.95 117.631 242.999C116.583 244.081 115.449 244.961 114.231 245.638C112.98 246.314 111.643 246.652 110.223 246.652ZM149.936 240.512C149.665 240.512 149.598 240.394 149.733 240.157C149.801 239.954 149.97 239.447 150.24 238.635C150.545 237.823 150.9 236.842 151.306 235.692C151.712 234.542 152.135 233.374 152.575 232.19C153.014 230.973 153.42 229.89 153.792 228.943C153.556 229.247 153.183 229.687 152.676 230.262C152.202 230.837 151.695 231.446 151.154 232.089C150.612 232.732 150.105 233.29 149.631 233.763C149.53 233.865 149.462 233.916 149.428 233.916C149.327 233.916 149.276 233.814 149.276 233.611C149.276 233.205 149.378 232.833 149.581 232.495C150.325 231.548 151.035 230.668 151.712 229.856C152.422 229.01 153.065 228.215 153.64 227.471C153.302 227.268 153.133 227.014 153.133 226.71C153.133 226.236 153.37 226 153.843 226C154.046 226 154.198 226.033 154.3 226.101C154.334 226.135 154.367 226.152 154.401 226.152C154.435 226.152 154.469 226.186 154.503 226.253C154.672 226.016 154.807 225.797 154.909 225.594C155.044 225.391 155.162 225.171 155.264 224.934C155.399 224.629 155.67 224.054 156.076 223.209C156.516 222.329 157.057 221.297 157.7 220.113C158.342 218.929 159.07 217.711 159.882 216.46C160.727 215.174 161.624 213.99 162.571 212.908C163.552 211.791 164.55 210.895 165.565 210.218C166.614 209.542 167.679 209.203 168.762 209.203C168.897 209.203 169.033 209.22 169.168 209.254C169.303 209.254 169.438 209.271 169.574 209.305C170.42 209.474 171.012 209.778 171.35 210.218C171.688 210.624 171.857 211.115 171.857 211.69C171.857 212.096 171.773 212.535 171.604 213.009C171.468 213.449 171.265 213.889 170.995 214.328C170.318 215.512 169.422 216.713 168.305 217.931C167.189 219.115 165.937 220.299 164.55 221.483C163.197 222.634 161.827 223.767 160.44 224.883C159.087 225.966 157.818 226.998 156.634 227.979C155.822 229.704 155.196 231.243 154.757 232.596C154.317 233.916 153.978 234.981 153.742 235.793C154.114 235.32 154.672 234.643 155.416 233.763C156.16 232.884 157.006 231.937 157.953 230.922C158.901 229.907 159.882 228.943 160.897 228.029C161.911 227.082 162.876 226.321 163.789 225.746C164.702 225.137 165.48 224.832 166.123 224.832C166.935 224.832 167.341 225.255 167.341 226.101C167.341 226.913 167.054 227.809 166.478 228.791C165.903 229.772 165.43 230.6 165.058 231.277C164.584 232.258 164.195 233.205 163.89 234.119C163.62 234.998 163.451 235.726 163.383 236.301C163.349 236.436 163.332 236.571 163.332 236.707C163.332 236.808 163.332 236.926 163.332 237.062C163.332 238.415 163.806 239.092 164.753 239.092C165.261 239.092 165.937 238.787 166.783 238.178C167.629 237.569 168.491 236.842 169.371 235.996C170.25 235.15 171.045 234.339 171.756 233.56C172.5 232.749 173.007 232.14 173.278 231.734C173.38 231.632 173.498 231.581 173.633 231.581C173.769 231.581 173.87 231.632 173.938 231.734C174.005 231.835 174.005 231.97 173.938 232.14C173.599 232.715 173.075 233.442 172.365 234.322C171.654 235.167 170.859 236.03 169.98 236.91C169.1 237.755 168.238 238.483 167.392 239.092C166.952 239.43 166.377 239.717 165.667 239.954C164.99 240.225 164.313 240.36 163.637 240.36C163.095 240.36 162.571 240.225 162.064 239.954C161.556 239.684 161.184 239.176 160.947 238.432C160.846 238.127 160.795 237.705 160.795 237.163C160.795 236.994 160.795 236.825 160.795 236.656C160.795 236.453 160.812 236.25 160.846 236.047C160.981 234.964 161.336 233.831 161.911 232.647C162.52 231.429 163.079 230.347 163.586 229.399C163.721 229.129 163.823 228.892 163.89 228.689C163.992 228.486 164.043 228.317 164.043 228.182C164.043 227.911 163.924 227.776 163.687 227.776C163.451 227.776 163.079 227.928 162.571 228.232C162.064 228.537 161.387 229.061 160.541 229.805C159.797 230.448 159.002 231.294 158.156 232.343C157.344 233.357 156.533 234.406 155.721 235.489C154.943 236.571 154.249 237.502 153.64 238.28C153.065 239.058 152.659 239.514 152.422 239.65C152.253 239.751 151.864 239.92 151.255 240.157C150.646 240.394 150.206 240.512 149.936 240.512ZM157.598 225.695C158.951 224.782 160.423 223.648 162.013 222.295C163.603 220.908 165.091 219.437 166.478 217.881C167.899 216.291 168.982 214.785 169.726 213.364C170.132 212.586 170.335 211.943 170.335 211.436C170.335 210.861 170.081 210.573 169.574 210.573C169.337 210.573 169.066 210.641 168.762 210.776C168.457 210.878 168.102 211.081 167.696 211.385C165.43 213.144 163.518 215.242 161.962 217.678C160.406 220.079 158.951 222.752 157.598 225.695ZM182.67 222.194C182.23 222.194 181.773 222.16 181.3 222.092C180.826 221.991 180.589 221.669 180.589 221.128C180.589 221.027 180.809 220.79 181.249 220.418C181.723 220.046 182.196 219.673 182.67 219.301C183.177 218.895 183.482 218.659 183.583 218.591C184.158 218.117 184.513 217.881 184.649 217.881C184.818 217.881 184.818 218.1 184.649 218.54C184.48 218.98 184.395 219.369 184.395 219.707C184.395 219.876 184.294 220.164 184.091 220.57C183.888 220.976 183.651 221.348 183.38 221.686C183.11 222.025 182.873 222.194 182.67 222.194ZM177.139 240.36C176.53 240.36 175.972 240.225 175.464 239.954C174.99 239.684 174.635 239.176 174.398 238.432C174.365 238.33 174.331 238.229 174.297 238.127C174.297 238.026 174.297 237.908 174.297 237.772C174.297 237.096 174.449 236.25 174.754 235.235C175.058 234.22 175.43 233.239 175.87 232.292C175.667 232.562 175.43 232.901 175.16 233.307C174.889 233.679 174.5 234.169 173.992 234.778C173.857 234.914 173.705 234.981 173.536 234.981C173.299 234.981 173.181 234.846 173.181 234.575C173.181 234.372 173.248 234.203 173.384 234.068C174.263 232.952 175.041 231.954 175.718 231.074C176.428 230.194 176.953 229.45 177.291 228.841C177.291 228.807 177.274 228.791 177.24 228.791C177.24 228.757 177.24 228.723 177.24 228.689C177.24 228.588 177.291 228.435 177.392 228.232C177.663 227.42 177.934 226.744 178.204 226.203C178.509 225.627 178.83 225.306 179.168 225.238C179.236 225.238 179.304 225.238 179.371 225.238C179.439 225.205 179.507 225.188 179.574 225.188C179.946 225.188 180.285 225.272 180.589 225.441C180.894 225.611 181.046 225.864 181.046 226.203C181.046 226.507 180.928 226.879 180.691 227.319C180.488 227.759 180.217 228.3 179.879 228.943C179.135 230.499 178.458 231.92 177.849 233.205C177.274 234.457 176.953 235.489 176.885 236.301C176.851 236.436 176.834 236.571 176.834 236.707C176.834 236.808 176.834 236.926 176.834 237.062C176.834 238.415 177.274 239.092 178.154 239.092C178.695 239.092 179.388 238.804 180.234 238.229C181.08 237.62 181.942 236.893 182.822 236.047C183.702 235.167 184.497 234.339 185.207 233.56C185.951 232.749 186.459 232.14 186.729 231.734C186.831 231.632 186.932 231.581 187.034 231.581C187.169 231.581 187.271 231.632 187.338 231.734C187.44 231.835 187.457 231.97 187.389 232.14C187.084 232.715 186.56 233.442 185.816 234.322C185.105 235.167 184.294 236.03 183.38 236.91C182.501 237.755 181.638 238.483 180.792 239.092C180.352 239.43 179.794 239.717 179.118 239.954C178.475 240.225 177.815 240.36 177.139 240.36ZM190.616 240.36C190.007 240.36 189.448 240.225 188.941 239.954C188.467 239.684 188.112 239.176 187.875 238.432C187.842 238.33 187.808 238.229 187.774 238.127C187.774 238.026 187.774 237.908 187.774 237.772C187.774 237.096 187.926 236.25 188.231 235.235C188.535 234.22 188.907 233.239 189.347 232.292C189.144 232.562 188.907 232.901 188.637 233.307C188.366 233.679 187.977 234.169 187.469 234.778C187.334 234.914 187.182 234.981 187.013 234.981C186.776 234.981 186.658 234.846 186.658 234.575C186.658 234.372 186.725 234.203 186.86 234.068C187.74 232.952 188.518 231.954 189.195 231.074C189.905 230.194 190.429 229.45 190.768 228.841C190.768 228.774 190.869 228.571 191.072 228.232C191.275 227.86 191.546 227.353 191.884 226.71C191.614 226.744 191.377 226.778 191.174 226.811C191.005 226.811 190.852 226.811 190.717 226.811C190.48 226.811 190.277 226.71 190.108 226.507C189.939 226.304 189.922 226.05 190.057 225.746C190.227 225.272 190.599 225.002 191.174 224.934C191.749 224.866 192.256 224.816 192.696 224.782C192.73 224.714 192.798 224.68 192.899 224.68C193.305 223.936 193.694 223.209 194.066 222.498C194.438 221.788 194.743 221.196 194.98 220.722C195.25 220.249 195.385 219.995 195.385 219.961C196.062 218.878 196.502 218.168 196.705 217.83C196.908 217.458 197.178 217.238 197.517 217.17C197.889 217.136 198.278 217.153 198.684 217.221C199.124 217.289 199.411 217.441 199.547 217.678C199.648 217.813 199.699 217.982 199.699 218.185C199.699 218.489 199.631 218.794 199.496 219.098C199.36 219.369 199.225 219.589 199.09 219.758C198.955 219.995 198.768 220.164 198.532 220.265C198.329 220.333 198.143 220.536 197.973 220.874C197.635 221.517 197.263 222.211 196.857 222.955C196.451 223.699 196.028 224.41 195.588 225.086L196.197 225.035C197.009 224.968 197.77 224.883 198.481 224.782C199.225 224.68 200.071 224.646 201.018 224.68C201.187 224.68 201.356 224.714 201.526 224.782C201.729 224.816 201.83 224.883 201.83 224.985C201.83 225.12 201.39 225.306 200.511 225.543C200.172 225.678 199.428 225.83 198.278 226C197.162 226.135 196.011 226.27 194.827 226.406C194.489 227.048 194.185 227.59 193.914 228.029C193.643 228.435 193.457 228.74 193.356 228.943C192.611 230.499 191.935 231.92 191.326 233.205C190.751 234.457 190.429 235.489 190.362 236.301C190.328 236.436 190.311 236.571 190.311 236.707C190.311 236.808 190.311 236.926 190.311 237.062C190.311 238.415 190.751 239.092 191.63 239.092C192.172 239.092 192.865 238.804 193.711 238.229C194.557 237.62 195.419 236.893 196.299 236.047C197.178 235.167 197.973 234.339 198.684 233.56C199.428 232.749 199.936 232.14 200.206 231.734C200.308 231.632 200.409 231.581 200.511 231.581C200.646 231.581 200.747 231.632 200.815 231.734C200.917 231.835 200.934 231.97 200.866 232.14C200.561 232.715 200.037 233.442 199.293 234.322C198.582 235.167 197.77 236.03 196.857 236.91C195.978 237.755 195.115 238.483 194.269 239.092C193.829 239.43 193.271 239.717 192.595 239.954C191.952 240.225 191.292 240.36 190.616 240.36ZM215.764 240.36C215.189 240.36 214.647 240.225 214.14 239.954C213.666 239.684 213.311 239.176 213.074 238.432C212.973 238.127 212.922 237.705 212.922 237.163C212.922 236.419 213.023 235.59 213.226 234.677C213.429 233.763 213.649 232.985 213.886 232.343C213.717 232.41 213.396 232.715 212.922 233.256C212.482 233.763 211.924 234.389 211.247 235.134C210.605 235.844 209.877 236.571 209.065 237.316C208.287 238.026 207.475 238.618 206.63 239.092C205.784 239.565 204.955 239.802 204.143 239.802C203.602 239.802 203.027 239.65 202.418 239.345C201.809 239.007 201.318 238.584 200.946 238.077C200.439 237.4 200.185 236.707 200.185 235.996C200.185 235.083 200.49 234.136 201.099 233.155C201.741 232.173 202.553 231.226 203.534 230.313C204.549 229.366 205.615 228.52 206.731 227.776C207.881 226.998 208.964 226.355 209.979 225.847C211.028 225.306 211.873 224.951 212.516 224.782C213.193 224.579 213.954 224.477 214.799 224.477C215.273 224.477 215.764 224.545 216.271 224.68C216.779 224.782 217.201 224.968 217.54 225.238C217.81 225.374 218.03 225.56 218.199 225.797C218.368 226.033 218.453 226.287 218.453 226.558C218.453 226.828 218.335 226.913 218.098 226.811C217.827 226.406 217.455 226.152 216.981 226.05C216.542 225.915 216.085 225.847 215.611 225.847C214.258 225.847 212.77 226.287 211.146 227.167C209.522 228.046 208.067 229.078 206.782 230.262C206.376 230.6 205.818 231.192 205.107 232.038C204.431 232.85 203.805 233.747 203.23 234.728C202.655 235.709 202.367 236.605 202.367 237.417C202.367 237.857 202.486 238.246 202.722 238.584C202.858 238.821 203.078 238.939 203.382 238.939C203.856 238.939 204.482 238.686 205.26 238.178C206.071 237.671 206.9 237.062 207.746 236.351C208.592 235.607 209.353 234.897 210.03 234.22C210.74 233.544 211.247 233.053 211.552 232.749C211.721 232.579 212.042 232.241 212.516 231.734C213.023 231.192 213.565 230.617 214.14 230.008C214.715 229.399 215.222 228.875 215.662 228.435C216.136 227.996 216.44 227.776 216.576 227.776C216.745 227.776 217.015 227.826 217.387 227.928C217.793 227.996 218.132 228.114 218.402 228.283C218.673 228.452 218.724 228.672 218.555 228.943C217.675 230.228 216.965 231.581 216.423 233.002C215.916 234.389 215.611 235.489 215.51 236.301C215.476 236.436 215.459 236.571 215.459 236.707C215.459 236.808 215.459 236.926 215.459 237.062C215.459 238.415 215.933 239.092 216.88 239.092C217.387 239.092 218.064 238.787 218.91 238.178C219.755 237.569 220.618 236.842 221.498 235.996C222.377 235.15 223.172 234.339 223.883 233.56C224.627 232.749 225.134 232.14 225.405 231.734C225.506 231.632 225.608 231.581 225.709 231.581C225.845 231.581 225.963 231.649 226.065 231.784C226.166 231.886 226.166 232.021 226.065 232.19C225.693 232.799 225.151 233.527 224.441 234.372C223.73 235.218 222.935 236.064 222.056 236.91C221.176 237.755 220.314 238.483 219.468 239.092C219.028 239.43 218.47 239.717 217.793 239.954C217.117 240.225 216.44 240.36 215.764 240.36ZM224.498 240.512C224.261 240.512 224.193 240.394 224.295 240.157C224.396 239.954 224.583 239.498 224.853 238.787C225.124 238.043 225.428 237.163 225.767 236.148C226.139 235.134 226.511 234.085 226.883 233.002C227.255 231.92 227.593 230.905 227.898 229.958C228.236 229.01 228.507 228.266 228.71 227.725C228.777 227.522 228.845 227.234 228.913 226.862C228.98 226.456 229.116 226.101 229.319 225.797C229.555 225.458 229.944 225.289 230.486 225.289C231.501 225.289 232.008 225.526 232.008 226C232.008 226.169 231.924 226.456 231.754 226.862C231.348 227.776 230.909 228.824 230.435 230.008C229.961 231.192 229.539 232.309 229.166 233.357C228.794 234.406 228.507 235.218 228.304 235.793C228.642 235.32 229.183 234.643 229.928 233.763C230.706 232.884 231.568 231.937 232.516 230.922C233.463 229.907 234.444 228.926 235.459 227.979C236.507 227.031 237.472 226.27 238.351 225.695C239.264 225.086 240.043 224.782 240.685 224.782C241.497 224.782 241.903 225.222 241.903 226.101C241.903 226.406 241.819 226.862 241.649 227.471C241.345 228.317 240.956 229.146 240.482 229.958C240.009 230.736 239.586 231.565 239.214 232.444C238.571 234.034 238.199 235.32 238.097 236.301C238.064 236.436 238.047 236.571 238.047 236.707C238.047 236.808 238.047 236.926 238.047 237.062C238.047 238.415 238.503 239.092 239.417 239.092C239.924 239.092 240.601 238.787 241.446 238.178C242.292 237.569 243.155 236.842 244.034 235.996C244.948 235.15 245.76 234.339 246.47 233.56C247.181 232.749 247.671 232.14 247.942 231.734C248.043 231.632 248.145 231.581 248.246 231.581C248.382 231.581 248.483 231.632 248.551 231.734C248.652 231.835 248.669 231.97 248.601 232.14C248.297 232.715 247.773 233.442 247.028 234.322C246.318 235.167 245.523 236.03 244.643 236.91C243.764 237.755 242.901 238.483 242.055 239.092C241.548 239.43 240.922 239.734 240.178 240.005C239.434 240.276 238.689 240.394 237.945 240.36C236.998 240.259 236.321 239.937 235.915 239.396C235.509 238.821 235.306 238.144 235.306 237.366C235.306 236.453 235.476 235.489 235.814 234.474C236.186 233.425 236.592 232.444 237.032 231.531C237.472 230.617 237.827 229.924 238.097 229.45C238.368 228.909 238.503 228.486 238.503 228.182C238.503 227.911 238.385 227.776 238.148 227.776C237.911 227.776 237.556 227.928 237.082 228.232C236.609 228.537 235.966 229.061 235.154 229.805C234.41 230.448 233.615 231.294 232.769 232.343C231.924 233.357 231.095 234.406 230.283 235.489C229.505 236.571 228.811 237.502 228.202 238.28C227.627 239.058 227.221 239.514 226.984 239.65C226.815 239.751 226.426 239.92 225.817 240.157C225.242 240.394 224.802 240.512 224.498 240.512ZM263.332 240.36C262.757 240.36 262.216 240.225 261.708 239.954C261.235 239.684 260.88 239.176 260.643 238.432C260.541 238.127 260.491 237.705 260.491 237.163C260.491 236.419 260.592 235.59 260.795 234.677C260.998 233.763 261.218 232.985 261.455 232.343C261.286 232.41 260.964 232.715 260.491 233.256C260.051 233.763 259.493 234.389 258.816 235.134C258.173 235.844 257.446 236.571 256.634 237.316C255.856 238.026 255.044 238.618 254.198 239.092C253.353 239.565 252.524 239.802 251.712 239.802C251.171 239.802 250.595 239.65 249.987 239.345C249.378 239.007 248.887 238.584 248.515 238.077C248.008 237.4 247.754 236.707 247.754 235.996C247.754 235.083 248.058 234.136 248.667 233.155C249.31 232.173 250.122 231.226 251.103 230.313C252.118 229.366 253.183 228.52 254.3 227.776C255.45 226.998 256.533 226.355 257.547 225.847C258.596 225.306 259.442 224.951 260.085 224.782C260.761 224.579 261.522 224.477 262.368 224.477C262.842 224.477 263.332 224.545 263.84 224.68C264.347 224.782 264.77 224.968 265.108 225.238C265.379 225.374 265.599 225.56 265.768 225.797C265.937 226.033 266.022 226.287 266.022 226.558C266.022 226.828 265.903 226.913 265.666 226.811C265.396 226.406 265.024 226.152 264.55 226.05C264.11 225.915 263.654 225.847 263.18 225.847C261.827 225.847 260.338 226.287 258.715 227.167C257.091 228.046 255.636 229.078 254.351 230.262C253.945 230.6 253.386 231.192 252.676 232.038C251.999 232.85 251.374 233.747 250.798 234.728C250.223 235.709 249.936 236.605 249.936 237.417C249.936 237.857 250.054 238.246 250.291 238.584C250.426 238.821 250.646 238.939 250.951 238.939C251.424 238.939 252.05 238.686 252.828 238.178C253.64 237.671 254.469 237.062 255.315 236.351C256.16 235.607 256.922 234.897 257.598 234.22C258.309 233.544 258.816 233.053 259.12 232.749C259.29 232.579 259.611 232.241 260.085 231.734C260.592 231.192 261.133 230.617 261.708 230.008C262.284 229.399 262.791 228.875 263.231 228.435C263.704 227.996 264.009 227.776 264.144 227.776C264.313 227.776 264.584 227.826 264.956 227.928C265.362 227.996 265.7 228.114 265.971 228.283C266.242 228.452 266.292 228.672 266.123 228.943C265.244 230.228 264.533 231.581 263.992 233.002C263.484 234.389 263.18 235.489 263.079 236.301C263.045 236.436 263.028 236.571 263.028 236.707C263.028 236.808 263.028 236.926 263.028 237.062C263.028 238.415 263.501 239.092 264.449 239.092C264.956 239.092 265.633 238.787 266.478 238.178C267.324 237.569 268.187 236.842 269.066 235.996C269.946 235.15 270.741 234.339 271.451 233.56C272.196 232.749 272.703 232.14 272.974 231.734C273.075 231.632 273.177 231.581 273.278 231.581C273.413 231.581 273.532 231.649 273.633 231.784C273.735 231.886 273.735 232.021 273.633 232.19C273.261 232.799 272.72 233.527 272.009 234.372C271.299 235.218 270.504 236.064 269.625 236.91C268.745 237.755 267.882 238.483 267.037 239.092C266.597 239.43 266.039 239.717 265.362 239.954C264.685 240.225 264.009 240.36 263.332 240.36ZM272.067 240.512C271.83 240.512 271.762 240.394 271.864 240.157C271.965 239.954 272.151 239.498 272.422 238.787C272.692 238.043 272.997 237.163 273.335 236.148C273.707 235.134 274.079 234.085 274.452 233.002C274.824 231.92 275.162 230.905 275.466 229.958C275.805 229.01 276.075 228.266 276.278 227.725C276.346 227.522 276.414 227.234 276.481 226.862C276.549 226.456 276.684 226.101 276.887 225.797C277.124 225.458 277.513 225.289 278.054 225.289C279.069 225.289 279.577 225.526 279.577 226C279.577 226.169 279.492 226.456 279.323 226.862C278.917 227.776 278.477 228.824 278.004 230.008C277.53 231.192 277.107 232.309 276.735 233.357C276.363 234.406 276.075 235.218 275.872 235.793C276.211 235.32 276.752 234.643 277.496 233.763C278.274 232.884 279.137 231.937 280.084 230.922C281.031 229.907 282.012 228.926 283.027 227.979C284.076 227.031 285.04 226.27 285.92 225.695C286.833 225.086 287.611 224.782 288.254 224.782C289.066 224.782 289.472 225.222 289.472 226.101C289.472 226.406 289.387 226.862 289.218 227.471C288.914 228.317 288.525 229.146 288.051 229.958C287.577 230.736 287.155 231.565 286.782 232.444C286.14 234.034 285.767 235.32 285.666 236.301C285.632 236.436 285.615 236.571 285.615 236.707C285.615 236.808 285.615 236.926 285.615 237.062C285.615 238.415 286.072 239.092 286.985 239.092C287.493 239.092 288.169 238.787 289.015 238.178C289.861 237.569 290.724 236.842 291.603 235.996C292.516 235.15 293.328 234.339 294.039 233.56C294.749 232.749 295.24 232.14 295.51 231.734C295.612 231.632 295.713 231.581 295.815 231.581C295.95 231.581 296.052 231.632 296.119 231.734C296.221 231.835 296.238 231.97 296.17 232.14C295.866 232.715 295.341 233.442 294.597 234.322C293.887 235.167 293.092 236.03 292.212 236.91C291.332 237.755 290.47 238.483 289.624 239.092C289.117 239.43 288.491 239.734 287.747 240.005C287.002 240.276 286.258 240.394 285.514 240.36C284.567 240.259 283.89 239.937 283.484 239.396C283.078 238.821 282.875 238.144 282.875 237.366C282.875 236.453 283.044 235.489 283.383 234.474C283.755 233.425 284.161 232.444 284.6 231.531C285.04 230.617 285.395 229.924 285.666 229.45C285.937 228.909 286.072 228.486 286.072 228.182C286.072 227.911 285.954 227.776 285.717 227.776C285.48 227.776 285.125 227.928 284.651 228.232C284.178 228.537 283.535 229.061 282.723 229.805C281.979 230.448 281.184 231.294 280.338 232.343C279.492 233.357 278.663 234.406 277.851 235.489C277.073 236.571 276.38 237.502 275.771 238.28C275.196 239.058 274.79 239.514 274.553 239.65C274.384 239.751 273.995 239.92 273.386 240.157C272.811 240.394 272.371 240.512 272.067 240.512Z" fill="#F4CE96"/>
<path d="M135.1 207.513C134.694 207.411 134.339 207.31 134.035 207.209C133.392 206.87 132.935 206.481 132.664 206.041C132.394 205.635 132.259 205.196 132.259 204.722C132.259 203.944 132.529 203.098 133.07 202.185C133.578 201.305 134.254 200.392 135.1 199.445C135.946 198.43 137.012 197.398 138.297 196.349C139.616 195.301 140.986 194.286 142.407 193.305C143.828 192.357 145.08 191.529 146.162 190.818C146.737 189.634 147.33 188.366 147.938 187.012C148.581 185.659 149.19 184.357 149.765 183.105C150.34 181.82 150.831 180.652 151.237 179.604C151.677 178.555 151.998 177.743 152.201 177.168C151.66 177.811 151.034 178.623 150.323 179.604C149.613 180.551 148.835 181.566 147.989 182.648C147.143 183.697 146.264 184.695 145.35 185.642C144.471 186.589 143.558 187.368 142.61 187.976C141.663 188.552 140.733 188.839 139.819 188.839C138.466 188.839 137.519 188.501 136.978 187.824C136.47 187.114 136.217 186.285 136.217 185.338C136.217 184.661 136.301 183.985 136.47 183.308C136.673 182.631 136.927 182.006 137.231 181.431C137.434 181.025 137.756 180.483 138.196 179.807C138.635 179.13 139.143 178.437 139.718 177.726C140.293 177.016 140.868 176.424 141.443 175.95C142.052 175.477 142.627 175.24 143.168 175.24C143.811 175.24 144.302 175.477 144.64 175.95C144.978 176.39 145.012 176.694 144.742 176.864C144.2 177.236 143.524 177.811 142.712 178.589C141.934 179.333 141.156 180.196 140.378 181.177C140.175 181.447 139.921 181.87 139.616 182.445C139.346 183.02 139.092 183.646 138.855 184.323C138.618 184.966 138.5 185.558 138.5 186.099C138.5 186.336 138.534 186.573 138.602 186.809C138.669 187.012 138.788 187.165 138.957 187.266C139.227 187.469 139.532 187.571 139.87 187.571C140.344 187.571 140.868 187.418 141.443 187.114C142.052 186.809 142.627 186.42 143.168 185.947C145.063 184.12 146.754 182.209 148.243 180.213C149.731 178.217 151.304 176.238 152.962 174.276C153.064 173.937 153.351 173.768 153.825 173.768C154.366 173.768 154.924 173.937 155.499 174.276C156.108 174.58 156.362 174.834 156.26 175.037C155.956 175.713 155.55 176.61 155.043 177.726C154.569 178.843 154.045 180.044 153.47 181.329C152.894 182.615 152.319 183.9 151.744 185.186C151.169 186.437 150.645 187.571 150.171 188.585C150.577 188.382 151.304 187.875 152.353 187.063C153.402 186.251 154.552 185.27 155.804 184.12C157.055 182.936 158.189 181.718 159.204 180.466C159.407 180.263 159.559 180.162 159.66 180.162C159.863 180.162 159.965 180.297 159.965 180.568C159.965 180.805 159.863 181.075 159.66 181.38C159.153 182.056 158.442 182.851 157.529 183.765C156.65 184.678 155.685 185.608 154.637 186.556C153.622 187.469 152.624 188.298 151.643 189.042C150.662 189.82 149.816 190.412 149.106 190.818C148.057 193.051 147.042 195.148 146.061 197.11C145.08 199.106 144.183 200.713 143.371 201.931C142.83 202.777 142.171 203.64 141.392 204.519C140.614 205.399 139.769 206.126 138.855 206.701C137.942 207.31 136.978 207.614 135.963 207.614C135.828 207.614 135.692 207.598 135.557 207.564C135.422 207.564 135.269 207.547 135.1 207.513ZM135.252 206.397C135.523 206.397 135.844 206.312 136.217 206.143C136.622 205.974 137.045 205.703 137.485 205.331C138.771 204.282 139.853 203.047 140.733 201.627C141.612 200.24 142.39 198.768 143.067 197.212C143.777 195.656 144.488 194.167 145.198 192.746C143.879 193.727 142.39 194.878 140.733 196.197C139.075 197.55 137.57 198.886 136.217 200.206C135.405 201.018 134.813 201.813 134.44 202.591C134.068 203.403 133.882 204.113 133.882 204.722C133.882 205.838 134.339 206.397 135.252 206.397ZM173.871 189.397C173.262 189.397 172.72 189.262 172.247 188.991C171.773 188.721 171.418 188.213 171.181 187.469C171.147 187.3 171.097 187.114 171.029 186.911C170.995 186.674 170.978 186.437 170.978 186.2C170.978 185.389 171.08 184.475 171.283 183.46C171.52 182.445 171.773 181.6 172.044 180.923C171.909 181.025 171.672 181.363 171.333 181.938C170.995 182.513 170.572 183.19 170.065 183.968C169.557 184.712 168.982 185.473 168.34 186.251C167.731 186.995 167.054 187.621 166.31 188.129C165.599 188.602 164.838 188.839 164.026 188.839C163.485 188.839 162.825 188.687 162.047 188.382C161.303 188.078 160.762 187.655 160.423 187.114C160.085 186.573 159.916 185.896 159.916 185.084C159.916 184.103 160.136 183.037 160.576 181.887C161.015 180.703 161.574 179.604 162.25 178.589C162.487 178.251 162.758 177.845 163.062 177.371C163.367 176.897 163.671 176.491 163.976 176.153C164.28 175.781 164.5 175.578 164.635 175.544C165.041 175.409 165.515 175.341 166.056 175.341C166.631 175.341 167.054 175.409 167.325 175.544C167.561 175.646 167.68 175.764 167.68 175.899C167.68 176.069 167.545 176.288 167.274 176.559C166.902 176.897 166.394 177.405 165.752 178.081C165.109 178.758 164.466 179.57 163.823 180.517C163.214 181.464 162.707 182.513 162.301 183.663C161.963 184.577 161.794 185.372 161.794 186.048C161.794 187.232 162.267 187.824 163.214 187.824C164.026 187.824 164.889 187.486 165.802 186.809C166.716 186.133 167.595 185.304 168.441 184.323C169.321 183.342 170.099 182.378 170.775 181.431C171.486 180.449 172.027 179.671 172.399 179.096C172.737 178.623 173.109 178.014 173.515 177.269C173.955 176.525 174.378 175.798 174.784 175.087C175.19 174.377 175.511 173.853 175.748 173.514C175.985 173.514 176.34 173.565 176.814 173.667C177.321 173.734 177.744 173.87 178.082 174.073C178.455 174.276 178.556 174.529 178.387 174.834C178.184 175.172 177.863 175.696 177.423 176.407C177.017 177.117 176.594 177.845 176.154 178.589C175.748 179.299 175.427 179.874 175.19 180.314C174.378 181.87 173.854 183.545 173.617 185.338C173.583 185.473 173.566 185.608 173.566 185.744C173.566 185.845 173.566 185.964 173.566 186.099C173.566 187.452 174.023 188.129 174.936 188.129C175.444 188.129 176.12 187.824 176.966 187.215C177.812 186.606 178.674 185.879 179.554 185.033C180.467 184.188 181.279 183.376 181.99 182.598C182.734 181.786 183.241 181.177 183.512 180.771C183.58 180.669 183.681 180.619 183.816 180.619C183.952 180.619 184.053 180.669 184.121 180.771C184.222 180.872 184.222 181.008 184.121 181.177C183.816 181.752 183.292 182.479 182.548 183.359C181.837 184.205 181.042 185.067 180.163 185.947C179.283 186.792 178.421 187.52 177.575 188.129C177.135 188.467 176.577 188.755 175.9 188.991C175.224 189.262 174.547 189.397 173.871 189.397ZM202.558 196.704C201.306 196.704 200.105 196.248 198.955 195.334C197.839 194.455 196.807 193.271 195.86 191.782C194.913 190.328 194.101 188.738 193.424 187.012C192.781 185.253 192.308 183.545 192.003 181.887C190.853 183.511 189.855 185 189.009 186.353C188.198 187.706 187.606 188.484 187.233 188.687C187.064 188.788 186.675 188.958 186.066 189.194C185.457 189.431 185.001 189.55 184.696 189.55C184.459 189.55 184.392 189.431 184.493 189.194C184.561 189.059 184.73 188.636 185.001 187.926C185.271 187.182 185.593 186.268 185.965 185.186C186.337 184.103 186.726 182.97 187.132 181.786C187.572 180.602 187.995 179.485 188.401 178.437C188.062 178.809 187.673 179.282 187.233 179.857C186.794 180.399 186.286 181.092 185.711 181.938C185.61 182.107 185.44 182.192 185.204 182.192C184.967 182.192 184.848 182.09 184.848 181.887C184.848 181.684 184.967 181.447 185.204 181.177C185.677 180.602 186.185 179.942 186.726 179.198C187.267 178.454 187.792 177.726 188.299 177.016C188.806 176.305 189.212 175.73 189.517 175.29C189.009 175.02 188.756 174.665 188.756 174.225C188.756 173.954 188.857 173.751 189.06 173.616C189.297 173.447 189.534 173.447 189.771 173.616C189.906 173.684 190.024 173.717 190.126 173.717C190.701 172.195 191.428 170.554 192.308 168.795C193.187 167.002 194.202 165.311 195.352 163.721C196.503 162.097 197.737 160.778 199.057 159.763C200.41 158.748 201.831 158.24 203.319 158.24C203.488 158.24 203.658 158.257 203.827 158.291C204.03 158.291 204.216 158.308 204.385 158.342C204.588 158.376 204.774 158.443 204.943 158.545C205.146 158.646 205.332 158.731 205.501 158.799C206.279 159.238 206.668 159.881 206.668 160.727C206.668 161.336 206.499 162.012 206.161 162.757C205.823 163.467 205.4 164.178 204.892 164.888C204.419 165.598 203.945 166.241 203.472 166.816C202.998 167.391 202.626 167.831 202.355 168.136C200.698 169.827 198.905 171.366 196.976 172.753C195.082 174.14 193.424 175.121 192.003 175.696C191.462 176.847 190.955 178.031 190.481 179.249C190.007 180.433 189.601 181.532 189.263 182.547C188.959 183.528 188.722 184.289 188.553 184.83C189.128 184.12 189.669 183.41 190.177 182.699C190.718 181.955 191.259 181.228 191.8 180.517C191.8 180.382 191.783 180.246 191.75 180.111C191.75 179.976 191.75 179.841 191.75 179.705C191.75 179.502 191.75 179.316 191.75 179.147C191.783 178.944 191.817 178.758 191.851 178.589C191.885 178.386 191.97 178.183 192.105 177.98C192.24 177.777 192.375 177.675 192.511 177.675C192.714 177.675 192.832 177.878 192.866 178.284C192.9 178.386 192.934 178.504 192.967 178.64C193.001 178.775 193.035 178.91 193.069 179.046C193.509 178.538 194.05 177.912 194.693 177.168C195.369 176.424 196.063 175.713 196.773 175.037C197.484 174.36 198.126 173.887 198.702 173.616C199.175 173.379 199.649 173.261 200.122 173.261C200.596 173.261 200.985 173.379 201.29 173.616C201.594 173.819 201.746 174.073 201.746 174.377C201.746 174.851 201.391 175.257 200.681 175.595C200.139 175.832 199.412 176.17 198.499 176.61C197.619 177.05 196.706 177.574 195.758 178.183C194.811 178.792 193.999 179.451 193.323 180.162C193.83 181.955 194.321 183.494 194.794 184.78C195.302 186.065 195.894 187.3 196.57 188.484C197.281 189.634 198.211 190.937 199.361 192.391C200.139 193.271 200.934 193.981 201.746 194.522C202.558 195.064 203.285 195.334 203.928 195.334C204.503 195.334 204.892 195.199 205.095 194.928C205.332 194.692 205.451 194.387 205.451 194.015C205.451 193.575 205.332 193.085 205.095 192.543C204.892 192.036 204.672 191.613 204.436 191.275C204.267 191.072 204.182 190.886 204.182 190.717C204.182 190.615 204.25 190.564 204.385 190.564C204.689 190.564 205.011 190.7 205.349 190.97C205.518 191.173 205.738 191.562 206.009 192.138C206.313 192.746 206.465 193.271 206.465 193.711C206.465 194.387 206.229 194.945 205.755 195.385C205.281 195.859 204.74 196.197 204.131 196.4C203.522 196.603 202.998 196.704 202.558 196.704ZM192.612 173.971C194.067 173.328 195.539 172.449 197.027 171.332C198.516 170.216 199.903 168.897 201.188 167.374C201.357 167.171 201.645 166.799 202.051 166.258C202.457 165.683 202.896 165.04 203.37 164.33C203.877 163.619 204.3 162.909 204.639 162.198C204.977 161.488 205.146 160.896 205.146 160.422C205.146 160.084 205.045 159.847 204.842 159.712C204.74 159.611 204.588 159.56 204.385 159.56C203.844 159.56 203.218 159.847 202.507 160.422C200.241 162.182 198.346 164.161 196.824 166.36C195.336 168.525 193.932 171.062 192.612 173.971ZM217.921 189.397C217.312 189.397 216.771 189.262 216.297 188.991C215.823 188.721 215.468 188.213 215.231 187.469C215.198 187.3 215.147 187.114 215.079 186.911C215.045 186.674 215.028 186.437 215.028 186.2C215.028 185.389 215.13 184.475 215.333 183.46C215.57 182.445 215.823 181.6 216.094 180.923C215.959 181.025 215.722 181.363 215.384 181.938C215.045 182.513 214.623 183.19 214.115 183.968C213.608 184.712 213.033 185.473 212.39 186.251C211.781 186.995 211.104 187.621 210.36 188.129C209.65 188.602 208.888 188.839 208.077 188.839C207.535 188.839 206.876 188.687 206.098 188.382C205.353 188.078 204.812 187.655 204.474 187.114C204.135 186.573 203.966 185.896 203.966 185.084C203.966 184.103 204.186 183.037 204.626 181.887C205.066 180.703 205.624 179.604 206.3 178.589C206.537 178.251 206.808 177.845 207.112 177.371C207.417 176.897 207.721 176.491 208.026 176.153C208.33 175.781 208.55 175.578 208.685 175.544C209.091 175.409 209.565 175.341 210.106 175.341C210.681 175.341 211.104 175.409 211.375 175.544C211.612 175.646 211.73 175.764 211.73 175.899C211.73 176.069 211.595 176.288 211.324 176.559C210.952 176.897 210.445 177.405 209.802 178.081C209.159 178.758 208.516 179.57 207.874 180.517C207.265 181.464 206.757 182.513 206.351 183.663C206.013 184.577 205.844 185.372 205.844 186.048C205.844 187.232 206.317 187.824 207.265 187.824C208.077 187.824 208.939 187.486 209.853 186.809C210.766 186.133 211.646 185.304 212.491 184.323C213.371 183.342 214.149 182.378 214.826 181.431C215.536 180.449 216.077 179.671 216.449 179.096C216.788 178.623 217.16 178.014 217.566 177.269C218.005 176.525 218.428 175.798 218.834 175.087C219.24 174.377 219.562 173.853 219.798 173.514C220.035 173.514 220.39 173.565 220.864 173.667C221.371 173.734 221.794 173.87 222.133 174.073C222.505 174.276 222.606 174.529 222.437 174.834C222.234 175.172 221.913 175.696 221.473 176.407C221.067 177.117 220.644 177.845 220.204 178.589C219.798 179.299 219.477 179.874 219.24 180.314C218.428 181.87 217.904 183.545 217.667 185.338C217.633 185.473 217.616 185.608 217.616 185.744C217.616 185.845 217.616 185.964 217.616 186.099C217.616 187.452 218.073 188.129 218.987 188.129C219.494 188.129 220.171 187.824 221.016 187.215C221.862 186.606 222.725 185.879 223.604 185.033C224.518 184.188 225.33 183.376 226.04 182.598C226.784 181.786 227.292 181.177 227.562 180.771C227.63 180.669 227.731 180.619 227.867 180.619C228.002 180.619 228.104 180.669 228.171 180.771C228.273 180.872 228.273 181.008 228.171 181.177C227.867 181.752 227.342 182.479 226.598 183.359C225.888 184.205 225.093 185.067 224.213 185.947C223.334 186.792 222.471 187.52 221.625 188.129C221.185 188.467 220.627 188.755 219.951 188.991C219.274 189.262 218.597 189.397 217.921 189.397ZM235.648 189.499C235.073 189.499 234.565 189.364 234.125 189.093C233.686 188.856 233.381 188.382 233.212 187.672C233.11 187.3 233.06 186.928 233.06 186.556C233.06 185.541 233.313 184.56 233.821 183.613C234.362 182.631 234.988 181.735 235.698 180.923C236.409 180.077 237.018 179.367 237.525 178.792C237.796 178.521 238.1 178.166 238.439 177.726C238.811 177.286 238.997 176.847 238.997 176.407C238.997 176.136 238.861 175.882 238.591 175.646C238.32 175.375 237.83 175.189 237.119 175.087C236.713 175.02 236.324 174.969 235.952 174.935C235.614 174.868 235.259 174.834 234.886 174.834C233.939 176.119 233.009 177.422 232.096 178.741C231.216 180.027 230.269 181.295 229.254 182.547C229.017 182.784 228.814 182.902 228.645 182.902C228.442 182.902 228.34 182.801 228.34 182.598C228.34 182.395 228.442 182.192 228.645 181.989C230.472 179.756 232.045 177.371 233.364 174.834C233.195 174.834 232.941 174.834 232.603 174.834C232.265 174.8 231.994 174.766 231.791 174.732C231.554 174.665 231.368 174.563 231.233 174.428C231.098 174.293 231.03 174.157 231.03 174.022C231.03 173.819 231.114 173.7 231.284 173.667C231.723 173.531 232.197 173.328 232.704 173.058C233.212 172.787 233.686 172.432 234.125 171.992C234.599 171.518 235.039 171.028 235.445 170.521C235.851 169.979 236.172 169.573 236.409 169.303C236.646 169.134 236.899 169.049 237.17 169.049C237.339 169.049 237.491 169.1 237.627 169.201C237.796 169.303 237.88 169.455 237.88 169.658C237.88 169.895 237.779 170.199 237.576 170.571C237.271 171.045 236.933 171.569 236.561 172.144C236.223 172.719 235.901 173.244 235.597 173.717C236.206 173.751 236.815 173.785 237.424 173.819C238.033 173.853 238.658 173.87 239.301 173.87C239.64 173.87 239.961 173.87 240.265 173.87C240.604 173.836 240.942 173.819 241.28 173.819C242.295 173.819 242.803 174.073 242.803 174.58C242.803 174.918 242.616 175.341 242.244 175.849C241.906 176.322 241.483 176.847 240.976 177.422C239.826 178.741 238.845 180.128 238.033 181.583C237.221 183.037 236.679 184.154 236.409 184.932C236.138 185.744 236.003 186.353 236.003 186.759C236.003 187.571 236.324 187.976 236.967 187.976C237.542 187.976 238.236 187.689 239.047 187.114C239.893 186.539 240.756 185.845 241.635 185.033C242.515 184.188 243.31 183.376 244.02 182.598C244.731 181.786 245.238 181.177 245.543 180.771C245.61 180.669 245.712 180.619 245.847 180.619C245.983 180.619 246.101 180.686 246.202 180.822C246.304 180.923 246.304 181.058 246.202 181.228C245.83 181.803 245.289 182.53 244.579 183.41C243.868 184.255 243.073 185.101 242.194 185.947C241.314 186.792 240.451 187.52 239.606 188.129C239.166 188.467 238.557 188.771 237.779 189.042C237.035 189.347 236.324 189.499 235.648 189.499ZM261.093 189.397C260.518 189.397 259.977 189.262 259.47 188.991C258.996 188.721 258.641 188.213 258.404 187.469C258.303 187.165 258.252 186.742 258.252 186.2C258.252 185.456 258.353 184.627 258.556 183.714C258.759 182.801 258.979 182.023 259.216 181.38C259.047 181.447 258.725 181.752 258.252 182.293C257.812 182.801 257.254 183.426 256.577 184.171C255.934 184.881 255.207 185.608 254.395 186.353C253.617 187.063 252.805 187.655 251.959 188.129C251.114 188.602 250.285 188.839 249.473 188.839C248.932 188.839 248.357 188.687 247.748 188.382C247.139 188.044 246.648 187.621 246.276 187.114C245.769 186.437 245.515 185.744 245.515 185.033C245.515 184.12 245.819 183.173 246.428 182.192C247.071 181.211 247.883 180.263 248.864 179.35C249.879 178.403 250.945 177.557 252.061 176.813C253.211 176.035 254.294 175.392 255.309 174.885C256.357 174.343 257.203 173.988 257.846 173.819C258.522 173.616 259.284 173.514 260.129 173.514C260.603 173.514 261.093 173.582 261.601 173.717C262.108 173.819 262.531 174.005 262.869 174.276C263.14 174.411 263.36 174.597 263.529 174.834C263.698 175.071 263.783 175.324 263.783 175.595C263.783 175.866 263.664 175.95 263.428 175.849C263.157 175.443 262.785 175.189 262.311 175.087C261.872 174.952 261.415 174.885 260.941 174.885C259.588 174.885 258.1 175.324 256.476 176.204C254.852 177.083 253.397 178.115 252.112 179.299C251.706 179.638 251.148 180.23 250.437 181.075C249.761 181.887 249.135 182.784 248.56 183.765C247.985 184.746 247.697 185.642 247.697 186.454C247.697 186.894 247.815 187.283 248.052 187.621C248.188 187.858 248.407 187.976 248.712 187.976C249.185 187.976 249.811 187.723 250.589 187.215C251.401 186.708 252.23 186.099 253.076 185.389C253.922 184.644 254.683 183.934 255.359 183.257C256.07 182.581 256.577 182.09 256.882 181.786C257.051 181.617 257.372 181.278 257.846 180.771C258.353 180.23 258.895 179.654 259.47 179.046C260.045 178.437 260.552 177.912 260.992 177.472C261.466 177.033 261.77 176.813 261.905 176.813C262.074 176.813 262.345 176.864 262.717 176.965C263.123 177.033 263.461 177.151 263.732 177.32C264.003 177.489 264.054 177.709 263.884 177.98C263.005 179.265 262.294 180.619 261.753 182.039C261.246 183.426 260.941 184.526 260.84 185.338C260.806 185.473 260.789 185.608 260.789 185.744C260.789 185.845 260.789 185.964 260.789 186.099C260.789 187.452 261.263 188.129 262.21 188.129C262.717 188.129 263.394 187.824 264.24 187.215C265.085 186.606 265.948 185.879 266.828 185.033C267.707 184.188 268.502 183.376 269.212 182.598C269.957 181.786 270.464 181.177 270.735 180.771C270.836 180.669 270.938 180.619 271.039 180.619C271.175 180.619 271.293 180.686 271.394 180.822C271.496 180.923 271.496 181.058 271.394 181.228C271.022 181.836 270.481 182.564 269.771 183.41C269.06 184.255 268.265 185.101 267.386 185.947C266.506 186.792 265.643 187.52 264.798 188.129C264.358 188.467 263.8 188.755 263.123 188.991C262.447 189.262 261.77 189.397 261.093 189.397ZM269.828 189.55C269.591 189.55 269.523 189.431 269.625 189.194C269.726 188.991 269.912 188.535 270.183 187.824C270.454 187.08 270.758 186.2 271.096 185.186C271.468 184.171 271.841 183.122 272.213 182.039C272.585 180.957 272.923 179.942 273.228 178.995C273.566 178.048 273.837 177.303 274.04 176.762C274.107 176.559 274.175 176.272 274.242 175.899C274.31 175.493 274.445 175.138 274.648 174.834C274.885 174.495 275.274 174.326 275.816 174.326C276.83 174.326 277.338 174.563 277.338 175.037C277.338 175.206 277.253 175.493 277.084 175.899C276.678 176.813 276.238 177.862 275.765 179.046C275.291 180.23 274.868 181.346 274.496 182.395C274.124 183.443 273.837 184.255 273.634 184.83C273.972 184.357 274.513 183.68 275.257 182.801C276.035 181.921 276.898 180.974 277.845 179.959C278.793 178.944 279.774 177.963 280.788 177.016C281.837 176.069 282.801 175.307 283.681 174.732C284.594 174.123 285.372 173.819 286.015 173.819C286.827 173.819 287.233 174.259 287.233 175.138C287.233 175.443 287.148 175.899 286.979 176.508C286.675 177.354 286.286 178.183 285.812 178.995C285.339 179.773 284.916 180.602 284.544 181.481C283.901 183.071 283.529 184.357 283.427 185.338C283.393 185.473 283.376 185.608 283.376 185.744C283.376 185.845 283.376 185.964 283.376 186.099C283.376 187.452 283.833 188.129 284.747 188.129C285.254 188.129 285.931 187.824 286.776 187.215C287.622 186.606 288.485 185.879 289.364 185.033C290.278 184.188 291.09 183.376 291.8 182.598C292.51 181.786 293.001 181.177 293.272 180.771C293.373 180.669 293.475 180.619 293.576 180.619C293.711 180.619 293.813 180.669 293.88 180.771C293.982 180.872 293.999 181.008 293.931 181.177C293.627 181.752 293.102 182.479 292.358 183.359C291.648 184.205 290.853 185.067 289.973 185.947C289.094 186.792 288.231 187.52 287.385 188.129C286.878 188.467 286.252 188.771 285.508 189.042C284.763 189.313 284.019 189.431 283.275 189.397C282.328 189.296 281.651 188.974 281.245 188.433C280.839 187.858 280.636 187.182 280.636 186.403C280.636 185.49 280.805 184.526 281.144 183.511C281.516 182.462 281.922 181.481 282.362 180.568C282.801 179.654 283.157 178.961 283.427 178.487C283.698 177.946 283.833 177.523 283.833 177.219C283.833 176.948 283.715 176.813 283.478 176.813C283.241 176.813 282.886 176.965 282.412 177.269C281.939 177.574 281.296 178.098 280.484 178.843C279.74 179.485 278.945 180.331 278.099 181.38C277.253 182.395 276.424 183.443 275.613 184.526C274.835 185.608 274.141 186.539 273.532 187.317C272.957 188.095 272.551 188.552 272.314 188.687C272.145 188.788 271.756 188.958 271.147 189.194C270.572 189.431 270.132 189.55 269.828 189.55Z" fill="#F4CE96"/>
<path d="M89.1646 203C84.1355 203 80.1841 202.134 77.3104 200.401C74.4366 198.741 72.9998 196.359 72.9998 193.255C72.9998 190.079 73.9337 187.155 75.8017 184.484C77.6696 181.741 80.0764 179.395 83.0219 177.446C86.0394 175.425 89.1646 173.873 92.3975 172.79C95.7023 171.635 98.7557 171.058 101.558 171.058C102.994 171.058 103.713 171.274 103.713 171.707C103.713 172.357 102.959 172.682 101.45 172.682C98.7916 172.682 95.882 173.331 92.7208 174.631C89.6316 175.93 86.8656 177.735 84.4229 180.045C82.4831 181.777 81.0103 183.546 80.0045 185.351C79.0705 187.083 78.6036 188.707 78.6036 190.223C78.6036 192.461 79.6453 194.338 81.7288 195.854C83.8122 197.297 86.9374 198.019 91.1043 198.019C93.547 198.019 96.0256 197.839 98.5402 197.478C101.055 197.045 103.318 196.576 105.329 196.07C107.413 195.565 108.993 195.168 110.071 194.879C112.729 194.013 115.387 192.966 118.046 191.739C120.776 190.512 123.218 189.14 125.374 187.624C127.529 186.036 129.11 184.448 130.115 182.86C130.69 181.994 131.085 181.164 131.301 180.37C131.588 179.576 131.732 178.818 131.732 178.096C131.732 176.074 130.834 174.378 129.038 173.007C127.242 171.563 124.943 170.263 122.141 169.108C119.339 167.953 116.357 166.871 113.196 165.86C110.035 164.777 107.054 163.658 104.252 162.503C101.45 161.348 99.1508 160.049 97.3547 158.605C95.5587 157.089 94.6606 155.285 94.6606 153.191C94.6606 150.809 95.5227 148.68 97.247 146.803C99.0431 144.854 101.306 143.157 104.036 141.714C106.838 140.198 109.82 138.97 112.981 138.032C116.142 137.021 119.159 136.263 122.033 135.758C124.907 135.253 127.278 135 129.146 135C137.048 135 141 136.985 141 140.956C141 142.544 140.353 144.384 139.06 146.478C138.485 147.561 137.659 148.607 136.581 149.618C135.504 150.556 134.678 151.026 134.103 151.026C133.672 151.026 133.456 150.773 133.456 150.268C133.456 150.051 133.851 149.618 134.642 148.968C135.432 148.246 136.222 147.38 137.012 146.37C137.803 145.359 138.198 144.348 138.198 143.338C138.198 141.822 137.336 140.667 135.611 139.873C133.959 139.079 131.768 138.682 129.038 138.682C127.745 138.682 125.877 138.898 123.434 139.331C120.991 139.692 118.333 140.306 115.459 141.172C112.586 142.038 109.82 143.193 107.161 144.637C102.204 147.38 99.7256 149.726 99.7256 151.675C99.7256 153.119 101.127 154.491 103.928 155.79C106.012 156.728 108.419 157.703 111.149 158.714C113.879 159.724 116.645 160.807 119.447 161.962C122.249 163.117 124.835 164.416 127.206 165.86C129.648 167.304 131.588 168.928 133.025 170.733C134.534 172.465 135.288 174.45 135.288 176.688C135.288 179.72 133.636 182.824 130.331 186C127.745 188.455 124.727 190.728 121.279 192.822C117.902 194.915 114.31 196.72 110.502 198.236C106.766 199.752 103.066 200.907 99.4023 201.701C95.7383 202.567 92.3257 203 89.1646 203Z" fill="#F4CE96"/>
<path d="M149.07 115.075C147.306 115.075 146.004 114.607 145.164 113.671C144.336 112.723 143.922 111.259 143.922 109.279V102.673L142.644 102.457V101.557H147.45V102.457L145.92 102.691V109.477C145.92 111.109 146.208 112.285 146.784 113.005C147.372 113.725 148.212 114.085 149.304 114.085C150.396 114.085 151.212 113.701 151.752 112.933C152.304 112.165 152.58 111.049 152.58 109.585V102.691L151.068 102.457V101.557H155.262V102.457L153.948 102.673V109.495C153.948 111.367 153.504 112.765 152.616 113.689C151.728 114.613 150.546 115.075 149.07 115.075ZM157.426 106.327L156.13 106.003V105.031L158.704 104.707H158.758L159.136 105.031V105.787L159.118 106.219C159.55 105.835 160.12 105.487 160.828 105.175C161.536 104.863 162.214 104.707 162.862 104.707C163.618 104.707 164.2 104.851 164.608 105.139C165.028 105.427 165.322 105.871 165.49 106.471C165.658 107.059 165.742 107.857 165.742 108.865V113.905L167.002 114.031V114.931H162.736V114.049L163.852 113.905V108.847C163.852 108.139 163.804 107.587 163.708 107.191C163.612 106.783 163.432 106.483 163.168 106.291C162.904 106.087 162.52 105.985 162.016 105.985C161.584 105.985 161.122 106.093 160.63 106.309C160.138 106.525 159.7 106.777 159.316 107.065V113.887L160.54 114.049V114.931H156.292V114.049L157.426 113.887V106.327ZM172.187 115.129C171.467 115.129 170.807 114.949 170.207 114.589C169.607 114.229 169.127 113.677 168.767 112.933C168.419 112.189 168.245 111.271 168.245 110.179C168.245 109.159 168.455 108.229 168.875 107.389C169.295 106.549 169.895 105.889 170.675 105.409C171.467 104.917 172.397 104.671 173.465 104.671C174.077 104.671 174.635 104.737 175.139 104.869V101.503L173.303 101.287V100.513L176.543 100.189H176.597L176.993 100.477V114.013H178.037V114.841C177.653 114.925 177.317 114.991 177.029 115.039C176.753 115.087 176.459 115.111 176.147 115.111C175.835 115.111 175.613 115.057 175.481 114.949C175.349 114.841 175.283 114.613 175.283 114.265V113.689C174.947 114.097 174.503 114.439 173.951 114.715C173.411 114.991 172.823 115.129 172.187 115.129ZM172.907 113.851C173.375 113.851 173.813 113.749 174.221 113.545C174.629 113.329 174.935 113.083 175.139 112.807V106.219C175.043 106.075 174.815 105.949 174.455 105.841C174.107 105.721 173.735 105.661 173.339 105.661C172.403 105.661 171.653 106.021 171.089 106.741C170.537 107.449 170.261 108.547 170.261 110.035C170.261 111.331 170.507 112.291 170.999 112.915C171.491 113.539 172.127 113.851 172.907 113.851ZM179.479 112.231C179.479 111.103 180.043 110.275 181.171 109.747C182.299 109.207 183.727 108.919 185.455 108.883V108.379C185.455 107.815 185.395 107.371 185.275 107.047C185.155 106.723 184.945 106.489 184.645 106.345C184.357 106.189 183.943 106.111 183.403 106.111C182.791 106.111 182.239 106.201 181.747 106.381C181.267 106.549 180.787 106.759 180.307 107.011L179.857 106.075C180.013 105.943 180.301 105.769 180.721 105.553C181.141 105.337 181.627 105.145 182.179 104.977C182.731 104.809 183.283 104.725 183.835 104.725C184.687 104.725 185.359 104.845 185.851 105.085C186.355 105.313 186.715 105.685 186.931 106.201C187.147 106.717 187.255 107.407 187.255 108.271V114.049H188.317V114.841C188.077 114.901 187.771 114.961 187.399 115.021C187.039 115.081 186.721 115.111 186.445 115.111C186.109 115.111 185.881 115.057 185.761 114.949C185.641 114.853 185.581 114.631 185.581 114.283V113.689C185.221 114.049 184.777 114.379 184.249 114.679C183.733 114.979 183.145 115.129 182.485 115.129C181.621 115.129 180.901 114.883 180.325 114.391C179.761 113.887 179.479 113.167 179.479 112.231ZM183.259 113.905C183.571 113.905 183.931 113.809 184.339 113.617C184.747 113.425 185.119 113.197 185.455 112.933V109.837C184.147 109.837 183.157 110.041 182.485 110.449C181.825 110.845 181.495 111.367 181.495 112.015C181.495 112.663 181.651 113.143 181.963 113.455C182.287 113.755 182.719 113.905 183.259 113.905ZM190.649 106.327L189.353 106.003V105.031L191.927 104.707H191.981L192.359 105.031V105.787L192.341 106.219C192.773 105.835 193.343 105.487 194.051 105.175C194.759 104.863 195.437 104.707 196.085 104.707C196.841 104.707 197.423 104.851 197.831 105.139C198.251 105.427 198.545 105.871 198.713 106.471C198.881 107.059 198.965 107.857 198.965 108.865V113.905L200.225 114.031V114.931H195.959V114.049L197.075 113.905V108.847C197.075 108.139 197.027 107.587 196.931 107.191C196.835 106.783 196.655 106.483 196.391 106.291C196.127 106.087 195.743 105.985 195.239 105.985C194.807 105.985 194.345 106.093 193.853 106.309C193.361 106.525 192.923 106.777 192.539 107.065V113.887L193.763 114.049V114.931H189.515V114.049L190.649 113.887V106.327ZM205.824 119.791C204.288 119.791 203.172 119.545 202.476 119.053C201.792 118.573 201.45 117.907 201.45 117.055C201.45 116.527 201.612 116.041 201.936 115.597C202.272 115.153 202.668 114.817 203.124 114.589C202.572 114.277 202.296 113.773 202.296 113.077C202.296 112.645 202.422 112.237 202.674 111.853C202.926 111.469 203.256 111.175 203.664 110.971C203.064 110.707 202.602 110.329 202.278 109.837C201.966 109.345 201.81 108.763 201.81 108.091C201.81 107.395 202.002 106.789 202.386 106.273C202.782 105.757 203.298 105.361 203.934 105.085C204.582 104.809 205.266 104.671 205.986 104.671C207.198 104.671 208.146 104.923 208.83 105.427C209.01 105.247 209.286 105.073 209.658 104.905C210.03 104.737 210.426 104.653 210.846 104.653H211.458V106.237H209.478C209.766 106.681 209.91 107.197 209.91 107.785C209.91 108.493 209.73 109.123 209.37 109.675C209.022 110.215 208.53 110.635 207.894 110.935C207.27 111.235 206.562 111.385 205.77 111.385C205.254 111.385 204.792 111.331 204.384 111.223C204.216 111.391 204.078 111.577 203.97 111.781C203.862 111.985 203.808 112.183 203.808 112.375C203.808 112.807 203.952 113.107 204.24 113.275C204.528 113.431 205.044 113.509 205.788 113.509H207.822C208.986 113.509 209.85 113.731 210.414 114.175C210.978 114.619 211.26 115.249 211.26 116.065C211.26 116.749 211.014 117.373 210.522 117.937C210.03 118.513 209.364 118.963 208.524 119.287C207.696 119.623 206.796 119.791 205.824 119.791ZM205.95 110.395C207.318 110.395 208.002 109.585 208.002 107.965C208.002 107.161 207.822 106.573 207.462 106.201C207.114 105.817 206.586 105.625 205.878 105.625C205.218 105.625 204.696 105.811 204.312 106.183C203.928 106.543 203.736 107.125 203.736 107.929C203.736 108.685 203.916 109.285 204.276 109.729C204.648 110.173 205.206 110.395 205.95 110.395ZM205.986 118.747C206.574 118.747 207.126 118.657 207.642 118.477C208.17 118.309 208.596 118.051 208.92 117.703C209.244 117.367 209.406 116.971 209.406 116.515C209.406 115.975 209.262 115.579 208.974 115.327C208.686 115.087 208.128 114.967 207.3 114.967H205.176C204.696 114.967 204.318 114.937 204.042 114.877C203.55 115.417 203.304 116.023 203.304 116.695C203.304 117.367 203.508 117.877 203.916 118.225C204.324 118.573 205.014 118.747 205.986 118.747ZM212.456 112.231C212.456 111.103 213.02 110.275 214.148 109.747C215.276 109.207 216.704 108.919 218.432 108.883V108.379C218.432 107.815 218.372 107.371 218.252 107.047C218.132 106.723 217.922 106.489 217.622 106.345C217.334 106.189 216.92 106.111 216.38 106.111C215.768 106.111 215.216 106.201 214.724 106.381C214.244 106.549 213.764 106.759 213.284 107.011L212.834 106.075C212.99 105.943 213.278 105.769 213.698 105.553C214.118 105.337 214.604 105.145 215.156 104.977C215.708 104.809 216.26 104.725 216.812 104.725C217.664 104.725 218.336 104.845 218.828 105.085C219.332 105.313 219.692 105.685 219.908 106.201C220.124 106.717 220.232 107.407 220.232 108.271V114.049H221.294V114.841C221.054 114.901 220.748 114.961 220.376 115.021C220.016 115.081 219.698 115.111 219.422 115.111C219.086 115.111 218.858 115.057 218.738 114.949C218.618 114.853 218.558 114.631 218.558 114.283V113.689C218.198 114.049 217.754 114.379 217.226 114.679C216.71 114.979 216.122 115.129 215.462 115.129C214.598 115.129 213.878 114.883 213.302 114.391C212.738 113.887 212.456 113.167 212.456 112.231ZM216.236 113.905C216.548 113.905 216.908 113.809 217.316 113.617C217.724 113.425 218.096 113.197 218.432 112.933V109.837C217.124 109.837 216.134 110.041 215.462 110.449C214.802 110.845 214.472 111.367 214.472 112.015C214.472 112.663 214.628 113.143 214.94 113.455C215.264 113.755 215.696 113.905 216.236 113.905ZM223.625 106.327L222.329 106.003V105.031L224.903 104.707H224.957L225.335 105.031V105.787L225.317 106.219C225.749 105.835 226.319 105.487 227.027 105.175C227.735 104.863 228.413 104.707 229.061 104.707C229.817 104.707 230.399 104.851 230.807 105.139C231.227 105.427 231.521 105.871 231.689 106.471C231.857 107.059 231.941 107.857 231.941 108.865V113.905L233.201 114.031V114.931H228.935V114.049L230.051 113.905V108.847C230.051 108.139 230.003 107.587 229.907 107.191C229.811 106.783 229.631 106.483 229.367 106.291C229.103 106.087 228.719 105.985 228.215 105.985C227.783 105.985 227.321 106.093 226.829 106.309C226.337 106.525 225.899 106.777 225.515 107.065V113.887L226.739 114.049V114.931H222.491V114.049L223.625 113.887V106.327Z" fill="#F8E4E4"/>
</g>
<defs>
<linearGradient id="paint0_linear_1043_393" x1="24.7347" y1="82.9395" x2="112.47" y2="82.9395" gradientUnits="userSpaceOnUse">
<stop offset="0.01" stop-color="#D8C383"/>
<stop offset="0.19" stop-color="#CFBB83"/>
<stop offset="0.6" stop-color="#A48032"/>
<stop offset="0.87" stop-color="#D7C188"/>
<stop offset="1" stop-color="#E7DFCB"/>
</linearGradient>
<linearGradient id="paint1_linear_1043_393" x1="61.1065" y1="84.9547" x2="77.1176" y2="84.9547" gradientUnits="userSpaceOnUse">
<stop offset="0.01" stop-color="#D8C383"/>
<stop offset="0.19" stop-color="#CFBB83"/>
<stop offset="0.6" stop-color="#A48032"/>
<stop offset="0.87" stop-color="#D7C188"/>
<stop offset="1" stop-color="#E7DFCB"/>
</linearGradient>
<linearGradient id="paint2_linear_1043_393" x1="6.77897" y1="162.063" x2="69.8087" y2="140.141" gradientUnits="userSpaceOnUse">
<stop offset="0.01" stop-color="#D8C383"/>
<stop offset="0.19" stop-color="#CFBB83"/>
<stop offset="0.6" stop-color="#A48032"/>
<stop offset="0.87" stop-color="#D7C188"/>
<stop offset="1" stop-color="#E7DFCB"/>
</linearGradient>
<linearGradient id="paint3_linear_1043_393" x1="133.677" y1="11.9089" x2="125.76" y2="77.4108" gradientUnits="userSpaceOnUse">
<stop offset="0.01" stop-color="#D8C383"/>
<stop offset="0.19" stop-color="#CFBB83"/>
<stop offset="0.6" stop-color="#A48032"/>
<stop offset="0.87" stop-color="#D7C188"/>
<stop offset="1" stop-color="#E7DFCB"/>
</linearGradient>
<linearGradient id="paint4_linear_1043_393" x1="30.7434" y1="184.865" x2="317.789" y2="184.865" gradientUnits="userSpaceOnUse">
<stop offset="0.01" stop-color="#D8C383"/>
<stop offset="0.19" stop-color="#CFBB83"/>
<stop offset="0.6" stop-color="#A48032"/>
<stop offset="0.87" stop-color="#D7C188"/>
<stop offset="1" stop-color="#E7DFCB"/>
</linearGradient>
<linearGradient id="paint5_linear_1043_393" x1="30.744" y1="183.822" x2="315.763" y2="183.822" gradientUnits="userSpaceOnUse">
<stop offset="0.01" stop-color="#D8C383"/>
<stop offset="0.19" stop-color="#CFBB83"/>
<stop offset="0.6" stop-color="#A48032"/>
<stop offset="0.87" stop-color="#D7C188"/>
<stop offset="1" stop-color="#E7DFCB"/>
</linearGradient>
<clipPath id="clip0_1043_393">
<rect width="322" height="329" fill="white"/>
</clipPath>
</defs>
</svg>
