<svg width="83" height="82" viewBox="0 0 83 82" fill="none" xmlns="http://www.w3.org/2000/svg">
<rect x="0.831787" y="0.00488281" width="82" height="82" rx="5.07508" fill="#6E826B"/>
<path d="M35.5124 37.7208V37.1448C35.5124 35.3975 34.8856 33.7081 33.746 32.3837L30.5673 28.6892H22.3256L18.8544 32.3201C17.5558 33.6785 16.8311 35.4853 16.8311 37.3645V63.3549C16.8311 65.3707 18.4652 67.0049 20.481 67.0049H31.8624C33.8782 67.0049 35.5124 65.3707 35.5124 63.3549V61.8049" stroke="white" stroke-width="1.65116" stroke-linecap="round" stroke-linejoin="round"/>
<path d="M22.8776 25.1014C22.8776 24.2135 23.5974 23.4937 24.4853 23.4937H27.8605C28.7484 23.4937 29.4682 24.2135 29.4682 25.1014V28.411H22.8776V25.1014Z" fill="#6E826B" stroke="white" stroke-width="1.65116"/>
<rect x="24.5248" y="19.6623" width="3.29389" height="3.27513" fill="#6E826B" stroke="white" stroke-width="1.65116"/>
<path d="M36.4735 15.0049H19.6956C19.0237 15.0049 18.479 15.5496 18.479 16.2215V17.8935C18.479 18.5654 19.0237 19.1101 19.6956 19.1101H36.2773C36.6132 19.1101 36.8856 19.3825 36.8856 19.7185V22.0597C36.8856 22.3957 37.1579 22.668 37.4939 22.668H40.1234C40.4594 22.668 40.7317 22.3957 40.7317 22.0597V19.2631C40.7317 16.9114 38.8253 15.0049 36.4735 15.0049Z" fill="#6E826B" stroke="white" stroke-width="1.65116" stroke-linecap="round" stroke-linejoin="round"/>
<path d="M39.3418 33.3728C37.5724 30.8934 37.9598 27.5312 40.1243 25.5051L42.3278 28.5927C43.8595 30.739 43.3569 33.7145 41.205 35.2385C41.0099 35.3767 40.7392 35.3309 40.6003 35.1363L39.3418 33.3728Z" fill="#6E826B" stroke="white" stroke-width="1.65116"/>
<path d="M66.8305 56.3311L59.2164 48.342C57.7646 45.2558 53.4456 40.7808 47.7838 47.5704C45.0752 47.5704 42.9558 47.5704 41.3778 47.5704C39.5029 47.5704 37.9844 49.0903 37.9844 50.9653V50.9653C37.9844 52.2152 38.9977 53.2285 40.2476 53.2285H48.6004" stroke="white" stroke-width="1.65116" stroke-linecap="round" stroke-linejoin="round"/>
<path d="M60.7879 67.005L55.0847 61.3234C54.5146 60.7555 53.7427 60.4366 52.938 60.4366H39.466C37.8176 60.4366 36.2397 59.7676 35.0937 58.5828L24.0554 47.1715C23.1202 46.2047 23.1994 44.6482 24.2278 43.7813V43.7813C25.1662 42.9902 26.5582 43.066 27.4052 43.9542L35.4386 52.3783C36.0126 52.9803 36.8081 53.3209 37.6398 53.3209H42.6561" stroke="white" stroke-width="1.65116" stroke-linecap="round" stroke-linejoin="round"/>
<path d="M28.0952 44.0153L28.6958 43.417C29.8827 42.2346 31.8022 42.2346 32.9891 43.417L38.5348 48.9416" stroke="white" stroke-width="1.65116" stroke-linecap="round" stroke-linejoin="round"/>
<path d="M32.4907 42.9203L33.4034 42.0111C34.5755 40.8434 36.4661 40.8268 37.6586 41.9738L43.4797 47.5729" stroke="white" stroke-width="1.65116" stroke-linecap="round" stroke-linejoin="round"/>
</svg>
