<svg width="83" height="82" viewBox="0 0 83 82" fill="none" xmlns="http://www.w3.org/2000/svg">
<rect x="0.831787" width="82" height="82" rx="2.1238" fill="#6E826B"/>
<path d="M16.8318 60.5H66.3723C64.0885 63.6622 59.521 65.9459 56.0075 66.8243H27.1967C22.6156 66.8243 18.1786 62.6081 16.8318 60.5Z" stroke="white" stroke-width="2.10811" stroke-linejoin="round"/>
<path d="M16.8318 53.8242H66.3723C64.0885 56.9864 59.521 59.2702 56.0075 60.1485H27.1967C22.6156 60.1485 18.1786 55.9323 16.8318 53.8242Z" stroke="white" stroke-width="2.10811" stroke-linejoin="round"/>
<path d="M19.2094 53.8243C17.0595 50.04 15.8318 45.6634 15.8318 41C15.8318 26.6406 27.4724 15 41.8318 15C56.1912 15 67.8318 26.6406 67.8318 41C67.8318 45.6634 66.604 50.04 64.4542 53.8243" stroke="white" stroke-width="2.10811"/>
<path d="M26.8992 53.7021C23.9416 50.2354 22.156 45.7384 22.156 40.8243C22.156 29.8607 31.0438 20.973 42.0074 20.973C52.971 20.973 61.8587 29.8607 61.8587 40.8243C61.8587 45.7384 60.0732 50.2354 57.1155 53.7021" stroke="white" stroke-width="2.10811"/>
<path d="M56.4129 40.8243C56.5886 36.7252 54.6561 28.0351 45.521 26.0675" stroke="white" stroke-width="1.40541" stroke-linecap="round"/>
<circle cx="42.1832" cy="25.8919" r="1.05405" fill="white"/>
</svg>
