<svg width="83" height="82" viewBox="0 0 83 82" fill="none" xmlns="http://www.w3.org/2000/svg">
<rect x="0.831787" width="82" height="82" rx="2.19704" fill="#6E826B"/>
<g clip-path="url(#clip0_902_25230)">
<path d="M59.5287 40.3481C59.5189 40.4416 59.4894 40.5302 59.4451 40.6187C59.3959 40.8253 59.3713 41.0614 59.3713 41.3222C59.3713 41.3468 59.3762 41.3713 59.3762 41.3959V58.4855C59.5927 59.0217 59.8583 59.4251 60.1781 59.676C60.4732 59.9121 60.8373 60.0252 61.28 60.0056C61.3095 60.0007 61.344 60.0007 61.3735 60.0007H66.2731C66.2829 60.0007 66.2977 60.0007 66.3124 60.0007C67.0749 60.04 67.6259 59.8334 67.9948 59.4103C68.413 58.9282 68.654 58.1559 68.7376 57.118V57.1032L70.2282 41.6862C70.2282 41.6616 70.2282 41.637 70.2331 41.6124C70.3364 40.7368 70.1445 40.1661 69.7117 39.8316C69.2148 39.4479 68.3933 39.2905 67.3258 39.2905C67.3012 39.2905 67.2766 39.2954 67.252 39.2954H61.7326V39.2905C60.8914 39.2905 60.2716 39.4577 59.8928 39.8021C59.7354 39.9448 59.6173 40.1268 59.5287 40.3481ZM54.1274 59.2529C54.0093 59.1398 53.9257 58.9922 53.8913 58.8299L46.0204 44.6623C45.1448 43.2013 44.3577 43.1669 43.5952 43.6195C43.0541 43.9392 42.4835 44.4607 41.9128 44.9821C41.5685 45.2969 41.2241 45.6118 40.9339 45.8528L39.5811 46.9695L39.5712 46.9744C38.5874 47.7664 37.4756 48.1944 36.4229 48.278C35.7293 48.337 35.0603 48.2485 34.4503 48.0173C33.8255 47.7812 33.2746 47.4024 32.8613 46.8859C32.4137 46.33 32.1185 45.6216 32.0497 44.7853H32.0546C32.0398 44.5836 32.0989 44.3819 32.2366 44.2147L36.536 39.0986C35.6309 39.0839 34.8291 39.2069 34.0764 39.443C32.9302 39.8021 31.8578 40.4219 30.687 41.2238C30.5542 41.3271 30.382 41.391 30.2 41.391H25.2463V50.7524L25.266 56.7392H28.1487C28.4242 56.7392 28.6898 56.8818 28.8325 57.1376L32.4137 63.3802C32.9351 64.2903 33.3975 65.0773 33.9731 65.5939C34.5142 66.0809 35.2226 66.381 36.3147 66.4105C36.723 66.4203 37.1165 66.3514 37.4855 66.1989C37.7118 66.1055 37.938 65.9776 38.1594 65.8152L35.8375 61.4764C35.6309 61.0927 35.7785 60.6156 36.1622 60.4139C36.5459 60.2073 37.0231 60.3548 37.2247 60.7385L39.7483 65.4561C40.6879 65.9333 41.539 66.0809 42.3014 65.9185C43 65.766 43.6592 65.3479 44.279 64.669L40.6436 58.9627C40.4124 58.5987 40.5157 58.1116 40.8847 57.8755C41.2487 57.6443 41.7357 57.7476 41.9718 58.1166L45.799 64.1279C46.473 64.4034 47.1174 64.4624 47.7323 64.2952C48.3177 64.1328 48.908 63.759 49.4934 63.149L46.0253 56.6162C45.8187 56.2325 45.9663 55.7504 46.3549 55.5487C46.7386 55.3421 47.2207 55.4897 47.4224 55.8783L51.0135 62.6374C51.4808 62.9079 52.0219 62.9768 52.5385 62.8932C52.991 62.8194 53.4288 62.6226 53.7879 62.3422C54.1323 62.0667 54.4029 61.7126 54.5308 61.3092C54.6734 60.8714 54.6587 60.3598 54.4275 59.8039L54.1274 59.2529ZM55.1703 57.8854H57.7972V41.3959C57.7972 41.3763 57.7972 41.3517 57.8021 41.332C57.8021 41.0762 57.8168 40.8302 57.8513 40.599L55.1752 38.8232C55.1604 38.8133 55.1457 38.8035 55.1309 38.7936C54.7816 38.5624 54.3635 38.2673 53.9454 37.9721C52.4253 36.9096 50.8659 35.8126 49.1786 35.3698C48.2685 35.1288 47.2158 34.9714 46.1434 34.9517C45.2038 34.932 44.2495 35.0206 43.3492 35.2567C42.813 35.3944 42.2916 35.5863 41.8095 35.8421C41.3815 36.0684 40.9831 36.3438 40.6289 36.6784L38.8383 38.8084C38.7842 38.9166 38.7054 39.0052 38.612 39.079L33.673 44.9624C33.7468 45.3363 33.8944 45.6511 34.0961 45.9069C34.3322 46.1972 34.647 46.4136 35.0062 46.5513C35.3899 46.694 35.8326 46.7481 36.295 46.7088C37.0476 46.6448 37.8544 46.3349 38.5775 45.7544L39.9303 44.6377C40.2747 44.3524 40.5649 44.0868 40.8552 43.8261C41.4898 43.2456 42.1194 42.67 42.7884 42.2716C44.3282 41.3517 45.863 41.3222 47.3781 43.8654L47.3929 43.89L55.1703 57.8854ZM58.0923 59.4644H55.9918C56.2771 60.2958 56.2623 61.0829 56.0361 61.7814C55.8049 62.4996 55.3523 63.1096 54.7718 63.572C54.2061 64.0197 53.5174 64.3296 52.7943 64.4477C52.0908 64.5657 51.3529 64.5018 50.6642 64.2165C49.8673 65.0478 49.0261 65.5742 48.1505 65.8152C47.2699 66.0563 46.3795 66.0071 45.4793 65.6923C44.6233 66.6417 43.6788 67.2369 42.6359 67.4583C41.5734 67.6895 40.4469 67.5271 39.2515 66.9663C38.8776 67.2566 38.489 67.4878 38.0807 67.655C37.5051 67.8961 36.9001 68.0043 36.2655 67.9846C34.7503 67.9404 33.7321 67.4927 32.9204 66.7647C32.1431 66.071 31.6266 65.1856 31.0363 64.1624L27.6863 58.3183H25.0889C24.9364 59.0709 24.6757 59.7104 24.2821 60.222C23.618 61.078 22.6489 61.5305 21.301 61.501C21.2863 61.501 21.2715 61.501 21.2568 61.501H16.8048C15.6832 61.683 14.724 61.4076 13.9713 60.5369C13.3023 59.7645 12.8497 58.5101 12.653 56.6703C12.648 56.6506 12.648 56.626 12.6431 56.6014L11.4723 42.0896C11.2411 40.5252 11.4969 39.4184 12.1266 38.6608C12.7612 37.8983 13.7204 37.554 14.8961 37.4999C14.9306 37.495 14.9601 37.495 14.9945 37.495H20.9911V37.4999C22.1226 37.4851 23.0966 37.677 23.8345 38.1541C24.4297 38.5378 24.8577 39.079 25.0741 39.8169H29.959C31.1888 38.9904 32.335 38.3411 33.6042 37.9426C34.8537 37.554 36.1868 37.4162 37.7855 37.6081L39.4335 35.6601C39.463 35.6207 39.4925 35.5863 39.5319 35.5518C39.9992 35.1091 40.5207 34.7451 41.0815 34.4499C41.6718 34.14 42.3014 33.9039 42.9606 33.7317C44.0035 33.4611 45.1005 33.3578 46.1729 33.3775C47.388 33.4021 48.5686 33.5792 49.5869 33.8449C51.5349 34.3614 53.2173 35.5371 54.8505 36.6833C55.2145 36.9391 55.5786 37.1949 56.0115 37.4802C56.0262 37.49 56.041 37.4999 56.0557 37.5097L58.4268 39.0937C58.5449 38.9265 58.6826 38.774 58.84 38.6362C59.5189 38.0262 60.488 37.7262 61.7375 37.7262V37.7212H67.2569C67.2766 37.7212 67.3012 37.7212 67.3209 37.7262C68.7327 37.7212 69.8838 37.977 70.6807 38.592C71.5662 39.2757 71.9844 40.3137 71.8073 41.8042C71.8073 41.819 71.8023 41.8288 71.8023 41.8436L70.3118 57.2459C70.2036 58.6233 69.8346 59.7006 69.1853 60.4483C68.4917 61.2452 67.5324 61.6388 66.2731 61.5847H61.3735H61.3686C60.5224 61.6289 59.7993 61.3977 59.1942 60.9156C58.7515 60.5565 58.3826 60.0744 58.0923 59.4644ZM18.2806 53.4777C18.8709 53.4777 19.3481 53.9549 19.3481 54.5452C19.3481 55.1355 18.8709 55.6127 18.2806 55.6127C17.6903 55.6127 17.2131 55.1355 17.2131 54.5452C17.2131 53.9549 17.6903 53.4777 18.2806 53.4777ZM64.7432 53.4777C65.3335 53.4777 65.8107 53.9549 65.8107 54.5452C65.8107 55.1355 65.3335 55.6127 64.7432 55.6127C64.1529 55.6127 63.6757 55.1355 63.6757 54.5452C63.6757 53.9549 64.1529 53.4777 64.7432 53.4777ZM23.6672 48.9323L23.6377 40.6039C23.6377 40.5892 23.6377 40.5744 23.6377 40.5547C23.5541 40.0333 23.3278 39.684 22.9933 39.4676C22.5358 39.1724 21.852 39.0593 21.0108 39.0691H21.001V39.074H14.9995C14.9896 39.074 14.9798 39.074 14.9699 39.074C14.2271 39.1085 13.6614 39.2856 13.3417 39.6693C12.9973 40.0776 12.8792 40.786 13.0416 41.883C13.0465 41.9075 13.0465 41.9272 13.0465 41.9518L14.2173 56.4784V56.503C14.3747 58.0083 14.6994 58.9725 15.1569 59.5038C15.5209 59.9269 16.0177 60.0449 16.613 59.9367C16.6572 59.9269 16.7064 59.9219 16.7507 59.9219V59.917H21.2519C21.2814 59.917 21.3109 59.917 21.3355 59.9219C22.1324 59.9367 22.6834 59.7006 23.0277 59.2529C23.4311 58.7315 23.6279 57.9149 23.6574 56.8622H23.6525V48.9323H23.6672Z" fill="white"/>
</g>
<circle cx="39.5596" cy="23.4999" r="7.7482" stroke="white" stroke-width="1.5036"/>
<path d="M35.8315 23.853L37.8638 25.8853C38.1948 26.2162 38.7379 26.1936 39.0402 25.8363L43.3315 20.7648" stroke="white" stroke-width="1.5" stroke-linecap="round"/>
<defs>
<clipPath id="clip0_902_25230">
<rect width="60.4481" height="34.612" fill="white" transform="translate(11.3933 33.3777)"/>
</clipPath>
</defs>
</svg>
