<svg width="83" height="82" viewBox="0 0 83 82" fill="none" xmlns="http://www.w3.org/2000/svg">
<rect x="0.831787" y="0.00488281" width="82" height="82" rx="5" fill="#6E826B"/>
<path d="M21.9021 49.1123V31.0968C27.5046 28.5696 38.7385 23.5151 41.7522 23.5151C44.766 23.5151 56.4828 28.5696 61.6023 31.0968V49.0574C61.6023 49.6905 61.3427 50.3132 60.8829 50.7483C45.1891 65.5973 29.271 57.346 22.5569 50.7224C22.1275 50.2989 21.9021 49.7154 21.9021 49.1123Z" stroke="white" stroke-width="1.78111" stroke-linejoin="round"/>
<path d="M15.1534 30.7258C15.1344 29.6491 16.2323 28.9111 17.2221 29.3353L21.6033 31.213V46.7758L16.0369 43.2179C15.618 42.9501 15.361 42.4905 15.3522 41.9935L15.1534 30.7258Z" stroke="white" stroke-width="1.78111"/>
<path d="M68.35 30.7258C68.369 29.6491 67.2711 28.9111 66.2813 29.3353L61.9002 31.213V46.7758L67.4665 43.2179C67.8854 42.9501 68.1424 42.4905 68.1512 41.9935L68.35 30.7258Z" stroke="white" stroke-width="1.78111"/>
<path d="M42.0476 35.3662V47.217" stroke="white" stroke-width="1.78111" stroke-linecap="round"/>
<path d="M36.1221 41.2913H47.9729" stroke="white" stroke-width="1.78111" stroke-linecap="round"/>
</svg>
