<svg width="83" height="82" viewBox="0 0 83 82" fill="none" xmlns="http://www.w3.org/2000/svg">
<rect x="0.831787" width="82" height="82" rx="5.07508" fill="#6E826B"/>
<path d="M18.8672 55.194L52.9553 38.6169" stroke="white" stroke-width="1.89589"/>
<path d="M41.5148 62.1984L29.8408 49.8239" stroke="white" stroke-width="1.89589"/>
<path d="M24.7045 39.2288L16.3166 61.3814C16.0818 62.0016 16.54 62.665 17.2031 62.665H67.4076C68.0843 62.665 68.5431 61.9764 68.2824 61.3519L59.0342 39.1993C58.8869 38.8464 58.5419 38.6166 58.1594 38.6166H25.591C25.1969 38.6166 24.844 38.8603 24.7045 39.2288Z" stroke="white" stroke-width="1.89589"/>
<path d="M48.2849 62.4319L64.1616 53.5597" stroke="white" stroke-width="1.89589"/>
<path d="M41.7973 50.8095C39.7414 47.8292 37.994 45.3399 36.509 43.2245C33.8554 39.4445 32.0399 36.8582 30.8002 34.7969C29.8454 33.2093 29.2681 31.9886 28.9231 30.8238C28.5803 29.6663 28.4536 28.5183 28.4536 27.0596C28.4536 19.266 34.7715 12.9481 42.5651 12.9481C50.3587 12.9481 56.6766 19.266 56.6766 27.0596C56.6766 28.5183 56.5498 29.6663 56.207 30.8238C55.8621 31.9886 55.2847 33.2093 54.33 34.7969C53.0903 36.8582 51.2748 39.4445 48.6212 43.2245C47.1362 45.3399 45.3888 47.8292 43.333 50.8095C42.9621 51.3445 42.1682 51.3445 41.7973 50.8095ZM42.5651 34.2823C46.5541 34.2823 49.7878 31.0486 49.7878 27.0596C49.7878 23.0706 46.5541 19.8369 42.5651 19.8369C38.5761 19.8369 35.3424 23.0706 35.3424 27.0596C35.3424 31.0486 38.5761 34.2823 42.5651 34.2823Z" fill="#6E826B" stroke="white" stroke-width="1.89589"/>
</svg>
