<svg width="82" height="83" viewBox="0 0 82 83" fill="none" xmlns="http://www.w3.org/2000/svg">
<rect y="0.837158" width="82" height="82" rx="5.07508" fill="#805D43"/>
<path d="M18.0354 56.0312L52.1235 39.4541" stroke="#F8E4E4" stroke-width="1.89589"/>
<path d="M40.683 63.0355L29.009 50.661" stroke="#F8E4E4" stroke-width="1.89589"/>
<path d="M23.8727 40.066L15.4848 62.2186C15.25 62.8388 15.7082 63.5022 16.3713 63.5022H66.5758C67.2525 63.5022 67.7113 62.8135 67.4506 62.1891L58.2024 40.0365C58.0551 39.6836 57.7101 39.4537 57.3276 39.4537H24.7592C24.3652 39.4537 24.0122 39.6975 23.8727 40.066Z" stroke="#F8E4E4" stroke-width="1.89589"/>
<path d="M47.4531 63.2691L63.3298 54.3969" stroke="#F8E4E4" stroke-width="1.89589"/>
<path d="M41.7334 13.7855C49.527 13.7856 55.8447 20.1033 55.8447 27.8969C55.8447 29.3554 55.7177 30.5031 55.375 31.6605C55.0301 32.8253 54.4528 34.0466 53.498 35.6342C51.5647 38.8488 48.2309 43.3406 42.502 51.6459C42.131 52.1817 41.3357 52.1816 40.9648 51.6459C35.2359 43.3406 31.9021 38.8488 29.9688 35.6342C29.014 34.0466 28.4367 32.8253 28.0918 31.6605C27.7491 30.5031 27.6221 29.3554 27.6221 27.8969C27.6221 20.1032 33.9398 13.7855 41.7334 13.7855ZM41.7334 20.6742C37.7444 20.6742 34.5107 23.9078 34.5107 27.8969C34.5108 31.8858 37.7444 35.1195 41.7334 35.1195C45.7223 35.1195 48.956 31.8858 48.9561 27.8969C48.9561 23.9079 45.7224 20.6742 41.7334 20.6742Z" fill="#805D43" stroke="#F8E4E4" stroke-width="1.89589"/>
</svg>
