<svg width="82" height="83" viewBox="0 0 82 83" fill="none" xmlns="http://www.w3.org/2000/svg">
<rect y="0.837158" width="82" height="82" rx="2.19704" fill="#805D43"/>
<g clip-path="url(#clip0_902_25230)">
<path d="M58.697 41.1851C58.6871 41.2786 58.6576 41.3671 58.6133 41.4557C58.5641 41.6623 58.5395 41.8984 58.5395 42.1591C58.5395 42.1837 58.5445 42.2083 58.5445 42.2329V59.3225C58.7609 59.8587 59.0266 60.2621 59.3463 60.513C59.6415 60.7491 60.0055 60.8622 60.4482 60.8425C60.4777 60.8376 60.5122 60.8376 60.5417 60.8376H65.4413C65.4511 60.8376 65.4659 60.8376 65.4806 60.8376C66.2431 60.877 66.7941 60.6704 67.163 60.2473C67.5812 59.7652 67.8222 58.9929 67.9058 57.9549V57.9402L69.3964 42.5232C69.3964 42.4986 69.3964 42.474 69.4013 42.4494C69.5046 41.5737 69.3128 41.0031 68.8799 40.6686C68.383 40.2849 67.5615 40.1275 66.494 40.1275C66.4694 40.1275 66.4448 40.1324 66.4202 40.1324H60.9008V40.1275C60.0596 40.1275 59.4398 40.2947 59.061 40.6391C58.9036 40.7817 58.7855 40.9637 58.697 41.1851ZM53.2956 60.0899C53.1775 59.9768 53.0939 59.8292 53.0595 59.6668L45.1886 45.4993C44.313 44.0383 43.5259 44.0039 42.7634 44.4564C42.2223 44.7762 41.6517 45.2976 41.081 45.8191C40.7367 46.1339 40.3923 46.4487 40.1021 46.6898L38.7493 47.8065L38.7395 47.8114C37.7556 48.6034 36.6438 49.0314 35.5911 49.115C34.8975 49.174 34.2285 49.0855 33.6185 48.8543C32.9937 48.6181 32.4428 48.2394 32.0296 47.7228C31.5819 47.167 31.2867 46.4586 31.2179 45.6223H31.2228C31.208 45.4206 31.2671 45.2189 31.4048 45.0517L35.7043 39.9356C34.7991 39.9209 33.9973 40.0438 33.2446 40.28C32.0984 40.6391 31.026 41.2589 29.8552 42.0607C29.7224 42.164 29.5502 42.228 29.3682 42.228H24.4145V51.5894L24.4342 57.5761H27.3169C27.5924 57.5761 27.858 57.7188 28.0007 57.9746L31.5819 64.2172C32.1033 65.1272 32.5658 65.9143 33.1413 66.4308C33.6824 66.9179 34.3908 67.2179 35.4829 67.2474C35.8912 67.2573 36.2847 67.1884 36.6537 67.0359C36.88 66.9425 37.1063 66.8145 37.3276 66.6522L35.0057 62.3134C34.7991 61.9297 34.9467 61.4525 35.3304 61.2508C35.7141 61.0442 36.1913 61.1918 36.393 61.5755L38.9165 66.2931C39.8561 66.7703 40.7072 66.9179 41.4697 66.7555C42.1682 66.603 42.8274 66.1849 43.4472 65.506L39.8119 59.7997C39.5806 59.4356 39.684 58.9486 40.0529 58.7125C40.4169 58.4813 40.9039 58.5846 41.1401 58.9535L44.9673 64.9649C45.6412 65.2404 46.2856 65.2994 46.9005 65.1322C47.4859 64.9698 48.0762 64.596 48.6616 63.986L45.1935 57.4532C44.9869 57.0695 45.1345 56.5874 45.5231 56.3857C45.9068 56.1791 46.3889 56.3266 46.5906 56.7153L50.1817 63.4744C50.649 63.7449 51.1901 63.8138 51.7067 63.7302C52.1592 63.6564 52.5971 63.4596 52.9562 63.1792C53.3005 62.9037 53.5711 62.5495 53.699 62.1462C53.8416 61.7083 53.8269 61.1967 53.5957 60.6409L53.2956 60.0899ZM54.3385 58.7223H56.9654V42.2329C56.9654 42.2132 56.9654 42.1886 56.9703 42.169C56.9703 41.9132 56.9851 41.6672 57.0195 41.436L54.3434 39.6601C54.3286 39.6503 54.3139 39.6405 54.2991 39.6306C53.9499 39.3994 53.5317 39.1043 53.1136 38.8091C51.5935 37.7465 50.0341 36.6495 48.3468 36.2068C47.4367 35.9658 46.384 35.8083 45.3116 35.7887C44.372 35.769 43.4177 35.8575 42.5175 36.0937C41.9813 36.2314 41.4598 36.4233 40.9777 36.6791C40.5497 36.9053 40.1513 37.1808 39.7971 37.5153L38.0065 39.6454C37.9524 39.7536 37.8737 39.8422 37.7802 39.9159L32.8412 45.7994C32.915 46.1733 33.0626 46.4881 33.2643 46.7439C33.5004 47.0341 33.8153 47.2506 34.1744 47.3883C34.5581 47.531 35.0008 47.5851 35.4632 47.5457C36.2159 47.4818 37.0226 47.1719 37.7458 46.5914L39.0986 45.4747C39.4429 45.1894 39.7331 44.9238 40.0234 44.663C40.658 44.0826 41.2876 43.507 41.9567 43.1086C43.4964 42.1886 45.0312 42.1591 46.5463 44.7024L46.5611 44.727L54.3385 58.7223ZM57.2605 60.3014H55.16C55.4453 61.1328 55.4306 61.9199 55.2043 62.6184C54.9731 63.3366 54.5205 63.9466 53.94 64.409C53.3743 64.8567 52.6856 65.1666 51.9625 65.2847C51.259 65.4027 50.5211 65.3388 49.8324 65.0534C49.0355 65.8848 48.1943 66.4112 47.3187 66.6522C46.4381 66.8933 45.5477 66.8441 44.6475 66.5292C43.7915 67.4787 42.847 68.0739 41.8042 68.2952C40.7416 68.5265 39.6151 68.3641 38.4197 67.8033C38.0458 68.0936 37.6572 68.3248 37.2489 68.492C36.6734 68.7331 36.0683 68.8413 35.4337 68.8216C33.9186 68.7773 32.9003 68.3297 32.0886 67.6016C31.3113 66.908 30.7948 66.0225 30.2045 64.9993L26.8545 59.1552H24.2571C24.1046 59.9079 23.8439 60.5474 23.4503 61.059C22.7862 61.9149 21.8171 62.3675 20.4693 62.338C20.4545 62.338 20.4397 62.338 20.425 62.338H15.973C14.8514 62.52 13.8922 62.2445 13.1395 61.3738C12.4705 60.6015 12.0179 59.3471 11.8212 57.5073C11.8163 57.4876 11.8163 57.463 11.8113 57.4384L10.6405 42.9265C10.4093 41.3622 10.6651 40.2554 11.2948 39.4978C11.9294 38.7353 12.8887 38.391 14.0644 38.3369C14.0988 38.3319 14.1283 38.3319 14.1627 38.3319H20.1593V38.3369C21.2908 38.3221 22.2648 38.5139 23.0027 38.9911C23.5979 39.3748 24.0259 39.9159 24.2423 40.6538H29.1272C30.357 39.8274 31.5032 39.178 32.7724 38.7796C34.0219 38.391 35.355 38.2532 36.9538 38.4451L38.6017 36.497C38.6312 36.4577 38.6607 36.4233 38.7001 36.3888C39.1674 35.9461 39.6889 35.5821 40.2497 35.2869C40.84 34.977 41.4697 34.7409 42.1288 34.5687C43.1717 34.2981 44.2687 34.1948 45.3411 34.2145C46.5562 34.2391 47.7368 34.4162 48.7551 34.6818C50.7031 35.1984 52.3855 36.3741 54.0187 37.5203C54.3828 37.7761 54.7468 38.0319 55.1797 38.3172C55.1944 38.327 55.2092 38.3369 55.2239 38.3467L57.595 39.9307C57.7131 39.7634 57.8508 39.6109 58.0083 39.4732C58.6871 38.8632 59.6562 38.5631 60.9057 38.5631V38.5582H66.4251C66.4448 38.5582 66.4694 38.5582 66.4891 38.5631C67.9009 38.5582 69.052 38.814 69.849 39.4289C70.7344 40.1127 71.1526 41.1507 70.9755 42.6412C70.9755 42.656 70.9706 42.6658 70.9706 42.6806L69.48 58.0828C69.3718 59.4602 69.0028 60.5375 68.3535 61.2853C67.6599 62.0822 66.7006 62.4757 65.4413 62.4216H60.5417H60.5368C59.6907 62.4659 58.9675 62.2347 58.3624 61.7526C57.9197 61.3935 57.5508 60.9114 57.2605 60.3014ZM17.4488 54.3147C18.0391 54.3147 18.5163 54.7918 18.5163 55.3821C18.5163 55.9725 18.0391 56.4496 17.4488 56.4496C16.8585 56.4496 16.3813 55.9725 16.3813 55.3821C16.3813 54.7918 16.8585 54.3147 17.4488 54.3147ZM63.9114 54.3147C64.5017 54.3147 64.9789 54.7918 64.9789 55.3821C64.9789 55.9725 64.5017 56.4496 63.9114 56.4496C63.3211 56.4496 62.8439 55.9725 62.8439 55.3821C62.8439 54.7918 63.3211 54.3147 63.9114 54.3147ZM22.8354 49.7693L22.8059 41.4409C22.8059 41.4262 22.8059 41.4114 22.8059 41.3917C22.7223 40.8703 22.496 40.521 22.1615 40.3046C21.704 40.0094 21.0202 39.8963 20.179 39.9061H20.1692V39.911H14.1677C14.1578 39.911 14.148 39.911 14.1381 39.911C13.3953 39.9455 12.8296 40.1225 12.5099 40.5063C12.1655 40.9146 12.0475 41.6229 12.2098 42.7199C12.2147 42.7445 12.2147 42.7642 12.2147 42.7888L13.3855 57.3154V57.34C13.5429 58.8453 13.8676 59.8095 14.3251 60.3408C14.6891 60.7638 15.186 60.8819 15.7812 60.7737C15.8255 60.7638 15.8747 60.7589 15.9189 60.7589V60.754H20.4201C20.4496 60.754 20.4791 60.754 20.5037 60.7589C21.3006 60.7737 21.8516 60.5375 22.1959 60.0899C22.5993 59.5685 22.7961 58.7519 22.8256 57.6991H22.8207V49.7693H22.8354Z" fill="#F8E4E4"/>
</g>
<circle cx="38.7278" cy="24.337" r="7.7482" stroke="#F8E4E4" stroke-width="1.5036"/>
<path d="M34.9998 24.69L37.032 26.7223C37.363 27.0533 37.9061 27.0307 38.2084 26.6734L42.4998 21.6018" stroke="#F8E4E4" stroke-width="1.5" stroke-linecap="round"/>
<defs>
<clipPath id="clip0_902_25230">
<rect width="60.4481" height="34.612" fill="white" transform="translate(10.5615 34.2147)"/>
</clipPath>
</defs>
</svg>
