<svg width="82" height="83" viewBox="0 0 82 83" fill="none" xmlns="http://www.w3.org/2000/svg">
<rect y="0.837158" width="82" height="82" rx="2.1238" fill="#805D43"/>
<path d="M16 61.3372H65.5405C63.2568 64.4993 58.6892 66.7831 55.1757 67.6615H26.3649C21.7838 67.6615 17.3468 63.4453 16 61.3372Z" stroke="white" stroke-width="2.10811" stroke-linejoin="round"/>
<path d="M16 54.6614H65.5405C63.2568 57.8235 58.6892 60.1073 55.1757 60.9857H26.3649C21.7838 60.9857 17.3468 56.7695 16 54.6614Z" stroke="white" stroke-width="2.10811" stroke-linejoin="round"/>
<path d="M18.3776 54.6615C16.2277 50.8772 15 46.5006 15 41.8372C15 27.4778 26.6406 15.8372 41 15.8372C55.3594 15.8372 67 27.4778 67 41.8372C67 46.5006 65.7723 50.8772 63.6224 54.6615" stroke="white" stroke-width="2.10811"/>
<path d="M26.0675 54.5393C23.1098 51.0727 21.3242 46.5756 21.3242 41.6615C21.3242 30.6979 30.212 21.8102 41.1756 21.8102C52.1392 21.8102 61.0269 30.6979 61.0269 41.6615C61.0269 46.5756 59.2414 51.0727 56.2837 54.5393" stroke="white" stroke-width="2.10811"/>
<path d="M55.5811 41.6615C55.7568 37.5624 53.8243 28.8724 44.6892 26.9048" stroke="white" stroke-width="1.40541" stroke-linecap="round"/>
<circle cx="41.3514" cy="26.7291" r="1.05405" fill="white"/>
</svg>
