<svg width="82" height="82" viewBox="0 0 82 82" fill="none" xmlns="http://www.w3.org/2000/svg">
<rect y="-0.00366211" width="82" height="82" rx="2.19704" fill="#E06E44"/>
<g clip-path="url(#clip0_3301_8931)">
<path d="M58.697 40.3443C58.6871 40.4378 58.6576 40.5263 58.6133 40.6149C58.5641 40.8215 58.5395 41.0576 58.5395 41.3183C58.5395 41.3429 58.5445 41.3675 58.5445 41.3921V58.4817C58.7609 59.0179 59.0266 59.4212 59.3463 59.6721C59.6415 59.9083 60.0055 60.0214 60.4482 60.0017C60.4777 59.9968 60.5122 59.9968 60.5417 59.9968H65.4413C65.4511 59.9968 65.4659 59.9968 65.4806 59.9968C66.2431 60.0362 66.7941 59.8295 67.163 59.4065C67.5812 58.9244 67.8222 58.1521 67.9058 57.1141V57.0993L69.3964 41.6823C69.3964 41.6577 69.3964 41.6331 69.4013 41.6085C69.5046 40.7329 69.3128 40.1623 68.8799 39.8278C68.383 39.4441 67.5615 39.2866 66.494 39.2866C66.4694 39.2866 66.4448 39.2916 66.4202 39.2916H60.9008V39.2866C60.0596 39.2866 59.4398 39.4539 59.061 39.7983C58.9036 39.9409 58.7855 40.1229 58.697 40.3443ZM53.2956 59.2491C53.1775 59.1359 53.0939 58.9884 53.0595 58.826L45.1886 44.6585C44.313 43.1975 43.5259 43.163 42.7634 43.6156C42.2223 43.9354 41.6517 44.4568 41.081 44.9783C40.7367 45.2931 40.3923 45.6079 40.1021 45.849L38.7493 46.9656L38.7395 46.9706C37.7556 47.7626 36.6438 48.1905 35.5911 48.2742C34.8975 48.3332 34.2285 48.2447 33.6185 48.0134C32.9937 47.7773 32.4428 47.3985 32.0296 46.882C31.5819 46.3261 31.2867 45.6178 31.2179 44.7815H31.2228C31.208 44.5798 31.2671 44.3781 31.4048 44.2108L35.7043 39.0948C34.7991 39.08 33.9973 39.203 33.2446 39.4391C32.0984 39.7983 31.026 40.4181 29.8552 41.2199C29.7224 41.3232 29.5502 41.3872 29.3682 41.3872H24.4145V50.7486L24.4342 56.7353H27.3169C27.5924 56.7353 27.858 56.878 28.0007 57.1338L31.5819 63.3764C32.1033 64.2864 32.5658 65.0735 33.1413 65.59C33.6824 66.077 34.3908 66.3771 35.4829 66.4066C35.8912 66.4165 36.2847 66.3476 36.6537 66.1951C36.88 66.1016 37.1063 65.9737 37.3276 65.8114L35.0057 61.4726C34.7991 61.0889 34.9467 60.6117 35.3304 60.41C35.7141 60.2034 36.1913 60.351 36.393 60.7347L38.9165 65.4523C39.8561 65.9295 40.7072 66.077 41.4697 65.9147C42.1682 65.7622 42.8274 65.3441 43.4472 64.6652L39.8119 58.9588C39.5806 58.5948 39.684 58.1078 40.0529 57.8717C40.4169 57.6405 40.9039 57.7438 41.1401 58.1127L44.9673 64.1241C45.6412 64.3996 46.2856 64.4586 46.9005 64.2913C47.4859 64.129 48.0762 63.7551 48.6616 63.1451L45.1935 56.6123C44.9869 56.2286 45.1345 55.7465 45.5231 55.5449C45.9068 55.3382 46.3889 55.4858 46.5906 55.8745L50.1817 62.6335C50.649 62.9041 51.1901 62.973 51.7067 62.8893C52.1592 62.8156 52.5971 62.6188 52.9562 62.3384C53.3005 62.0629 53.5711 61.7087 53.699 61.3053C53.8416 60.8675 53.8269 60.3559 53.5957 59.8L53.2956 59.2491ZM54.3385 57.8815H56.9654V41.3921C56.9654 41.3724 56.9654 41.3478 56.9703 41.3281C56.9703 41.0723 56.9851 40.8264 57.0195 40.5952L54.3434 38.8193C54.3286 38.8095 54.3139 38.7996 54.2991 38.7898C53.9499 38.5586 53.5317 38.2634 53.1136 37.9683C51.5935 36.9057 50.0341 35.8087 48.3468 35.366C47.4367 35.1249 46.384 34.9675 45.3116 34.9478C44.372 34.9282 43.4177 35.0167 42.5175 35.2528C41.9813 35.3906 41.4598 35.5824 40.9777 35.8382C40.5497 36.0645 40.1513 36.34 39.7971 36.6745L38.0065 38.8046C37.9524 38.9128 37.8737 39.0013 37.7802 39.0751L32.8412 44.9586C32.915 45.3324 33.0626 45.6473 33.2643 45.9031C33.5004 46.1933 33.8153 46.4098 34.1744 46.5475C34.5581 46.6902 35.0008 46.7443 35.4632 46.7049C36.2159 46.641 37.0226 46.3311 37.7458 45.7506L39.0986 44.6339C39.4429 44.3486 39.7331 44.0829 40.0234 43.8222C40.658 43.2417 41.2876 42.6662 41.9567 42.2677C43.4964 41.3478 45.0312 41.3183 46.5463 43.8616L46.5611 43.8862L54.3385 57.8815ZM57.2605 59.4606H55.16C55.4453 60.292 55.4306 61.079 55.2043 61.7776C54.9731 62.4958 54.5205 63.1058 53.94 63.5682C53.3743 64.0159 52.6856 64.3258 51.9625 64.4438C51.259 64.5619 50.5211 64.4979 49.8324 64.2126C49.0355 65.044 48.1943 65.5703 47.3187 65.8114C46.4381 66.0524 45.5477 66.0032 44.6475 65.6884C43.7915 66.6378 42.847 67.2331 41.8042 67.4544C40.7416 67.6856 39.6151 67.5233 38.4197 66.9625C38.0458 67.2527 37.6572 67.4839 37.2489 67.6512C36.6734 67.8922 36.0683 68.0005 35.4337 67.9808C33.9186 67.9365 32.9003 67.4889 32.0886 66.7608C31.3113 66.0672 30.7948 65.1817 30.2045 64.1585L26.8545 58.3144H24.2571C24.1046 59.0671 23.8439 59.7066 23.4503 60.2182C22.7862 61.0741 21.8171 61.5267 20.4693 61.4972C20.4545 61.4972 20.4397 61.4972 20.425 61.4972H15.973C14.8514 61.6792 13.8922 61.4037 13.1395 60.533C12.4705 59.7607 12.0179 58.5063 11.8212 56.6665C11.8163 56.6468 11.8163 56.6222 11.8113 56.5976L10.6405 42.0857C10.4093 40.5214 10.6651 39.4145 11.2948 38.657C11.9294 37.8945 12.8887 37.5501 14.0644 37.496C14.0988 37.4911 14.1283 37.4911 14.1627 37.4911H20.1593V37.496C21.2908 37.4813 22.2648 37.6731 23.0027 38.1503C23.5979 38.534 24.0259 39.0751 24.2423 39.813H29.1272C30.357 38.9866 31.5032 38.3372 32.7724 37.9388C34.0219 37.5501 35.355 37.4124 36.9538 37.6043L38.6017 35.6562C38.6312 35.6169 38.6607 35.5824 38.7001 35.548C39.1674 35.1053 39.6889 34.7412 40.2497 34.4461C40.84 34.1362 41.4697 33.9 42.1288 33.7279C43.1717 33.4573 44.2687 33.354 45.3411 33.3737C46.5562 33.3983 47.7368 33.5754 48.7551 33.841C50.7031 34.3575 52.3855 35.5332 54.0187 36.6794C54.3828 36.9352 54.7468 37.191 55.1797 37.4764C55.1944 37.4862 55.2092 37.496 55.2239 37.5059L57.595 39.0899C57.7131 38.9226 57.8508 38.7701 58.0083 38.6324C58.6871 38.0224 59.6562 37.7223 60.9057 37.7223V37.7174H66.4251C66.4448 37.7174 66.4694 37.7174 66.4891 37.7223C67.9009 37.7174 69.052 37.9732 69.849 38.5881C70.7344 39.2719 71.1526 40.3099 70.9755 41.8004C70.9755 41.8152 70.9706 41.825 70.9706 41.8398L69.48 57.242C69.3718 58.6194 69.0028 59.6967 68.3535 60.4445C67.6599 61.2414 66.7006 61.6349 65.4413 61.5808H60.5417H60.5368C59.6907 61.6251 58.9675 61.3939 58.3624 60.9118C57.9197 60.5527 57.5508 60.0706 57.2605 59.4606ZM17.4488 53.4738C18.0391 53.4738 18.5163 53.951 18.5163 54.5413C18.5163 55.1316 18.0391 55.6088 17.4488 55.6088C16.8585 55.6088 16.3813 55.1316 16.3813 54.5413C16.3813 53.951 16.8585 53.4738 17.4488 53.4738ZM63.9114 53.4738C64.5017 53.4738 64.9789 53.951 64.9789 54.5413C64.9789 55.1316 64.5017 55.6088 63.9114 55.6088C63.3211 55.6088 62.8439 55.1316 62.8439 54.5413C62.8439 53.951 63.3211 53.4738 63.9114 53.4738ZM22.8354 48.9284L22.8059 40.6001C22.8059 40.5853 22.8059 40.5706 22.8059 40.5509C22.7223 40.0295 22.496 39.6802 22.1615 39.4637C21.704 39.1686 21.0202 39.0554 20.179 39.0653H20.1692V39.0702H14.1677C14.1578 39.0702 14.148 39.0702 14.1381 39.0702C13.3953 39.1046 12.8296 39.2817 12.5099 39.6654C12.1655 40.0737 12.0475 40.7821 12.2098 41.8791C12.2147 41.9037 12.2147 41.9234 12.2147 41.948L13.3855 56.4746V56.4992C13.5429 58.0045 13.8676 58.9687 14.3251 59.5C14.6891 59.923 15.186 60.0411 15.7812 59.9329C15.8255 59.923 15.8747 59.9181 15.9189 59.9181V59.9132H20.4201C20.4496 59.9132 20.4791 59.9132 20.5037 59.9181C21.3006 59.9329 21.8516 59.6967 22.1959 59.2491C22.5993 58.7276 22.7961 57.911 22.8256 56.8583H22.8207V48.9284H22.8354Z" fill="#FEF9F8"/>
</g>
<circle cx="38.7278" cy="23.4962" r="7.7482" stroke="#FEF9F8" stroke-width="1.5036"/>
<path d="M34.9998 23.8492L37.032 25.8815C37.363 26.2124 37.9061 26.1899 38.2084 25.8326L42.4998 20.761" stroke="#FEF9F8" stroke-width="1.5" stroke-linecap="round"/>
<defs>
<clipPath id="clip0_3301_8931">
<rect width="60.4481" height="34.612" fill="white" transform="translate(10.5615 33.3739)"/>
</clipPath>
</defs>
</svg>
