<svg width="82" height="82" viewBox="0 0 82 82" fill="none" xmlns="http://www.w3.org/2000/svg">
<rect y="-0.00366211" width="82" height="82" rx="2.1238" fill="#E06E44"/>
<path d="M16 60.4963H65.5405C63.2568 63.6585 58.6892 65.9423 55.1757 66.8207H26.3649C21.7838 66.8207 17.3468 62.6044 16 60.4963Z" stroke="white" stroke-width="2.10811" stroke-linejoin="round"/>
<path d="M16 53.8206H65.5405C63.2568 56.9827 58.6892 59.2665 55.1757 60.1449H26.3649C21.7838 60.1449 17.3468 55.9287 16 53.8206Z" stroke="white" stroke-width="2.10811" stroke-linejoin="round"/>
<path d="M18.3776 53.8207C16.2277 50.0364 15 45.6597 15 40.9963C15 26.6369 26.6406 14.9963 41 14.9963C55.3594 14.9963 67 26.6369 67 40.9963C67 45.6597 65.7723 50.0364 63.6224 53.8207" stroke="white" stroke-width="2.10811"/>
<path d="M26.0675 53.6985C23.1098 50.2318 21.3242 45.7348 21.3242 40.8207C21.3242 29.8571 30.212 20.9694 41.1756 20.9694C52.1392 20.9694 61.0269 29.8571 61.0269 40.8207C61.0269 45.7348 59.2414 50.2318 56.2837 53.6985" stroke="white" stroke-width="2.10811"/>
<path d="M55.5811 40.8207C55.7568 36.7216 53.8243 28.0315 44.6892 26.064" stroke="white" stroke-width="1.40541" stroke-linecap="round"/>
<circle cx="41.3514" cy="25.8883" r="1.05405" fill="white"/>
</svg>
