<svg width="136" height="30" viewBox="0 0 136 30" fill="none" xmlns="http://www.w3.org/2000/svg">
<g clip-path="url(#clip0_1043_369)">
<path d="M30.4343 3.04057H30.5347C31.404 4.86491 31.8405 5.91314 31.8405 6.18248L31.6396 6.28384L31.3383 6.18248H31.1374C31.1374 6.7906 31.572 8.81764 32.4431 12.2636C32.9782 14.4252 33.2467 16.0136 33.2467 17.0272C33.2467 19.1206 32.0067 20.4384 29.5303 20.9799C28.7925 21.2493 28.4254 21.6544 28.4254 22.1964C27.9561 23.1415 27.7223 24.155 27.7223 25.237C27.7223 26.385 28.2245 26.9597 29.229 26.9597H29.5303C31.2034 26.9597 33.5134 25.5063 36.4609 22.6018C39.5399 19.9666 41.4155 18.5127 42.0857 18.2436V18.1426C41.8848 17.8035 41.1141 17.2636 39.7755 16.5209C39.4397 15.8446 39.2733 15.2697 39.2733 14.7979C39.2733 13.7844 40.2102 13.2095 42.0857 13.0749H42.1861L42.8892 13.1763H42.9897C45.1319 13.1763 47.8438 13.5467 51.1256 14.2912V14.5952C51.1256 15.6751 50.1211 16.4528 48.1123 16.9263C46.2367 17.6692 44.9639 18.3105 44.2954 18.852L44.8981 20.1698V21.3858L44.6972 21.4872C44.0945 21.4872 43.4919 21.1482 42.8892 20.4737H42.6883C41.6164 22.5673 41.0812 24.0542 41.0812 24.9331C41.0812 25.2707 41.2477 25.5413 41.5835 25.7442H42.1861C42.9897 25.7442 44.261 24.7307 46.003 22.7037C47.1407 21.8247 49.082 20.9804 51.8287 20.1698C52.2965 19.899 52.866 19.4254 53.5362 18.7507C53.4686 18.2773 53.4011 17.8717 53.3353 17.5344C51.8616 10.9797 51.0251 6.96062 50.8242 5.47353V5.06761C50.8903 4.25679 51.0251 3.85138 51.226 3.85138C52.0953 5.20368 52.5318 6.2172 52.5318 6.89195L52.3309 6.9933L52.0295 6.89195V6.9933L54.0384 15.9123L54.1389 17.3312V17.6355C54.0713 19.865 52.9993 21.284 50.9247 21.8921C48.3131 22.5668 46.2699 23.7831 44.7976 25.5408C43.7932 26.4861 43.0226 26.9597 42.4874 26.9597H42.1861C41.5835 26.9597 41.0812 26.2505 40.6795 24.8315C40.6795 23.6817 41.3482 22.0601 42.6883 19.9666V19.6628C41.8848 19.7292 39.1728 21.8244 34.5524 25.9464C32.4085 27.7029 30.6681 28.5816 29.3294 28.5816C27.9232 28.5816 27.2201 27.7026 27.2201 25.9464V25.3381C27.2201 24.3912 27.5214 23.1747 28.1241 21.6896H27.9232C26.9188 21.6896 25.1108 22.9056 22.4993 25.3381C21.8966 25.7437 21.4273 25.9459 21.0931 25.9459C20.0211 25.7435 19.486 25.1685 19.486 24.2232L19.3855 23.6151C19.3855 22.128 19.9882 20.5061 21.1935 18.7502L21.3944 17.8377C20.5233 17.5671 19.9206 17.1617 19.5864 16.6218L18.8833 15.2028L18.7829 15.0001H18.6824C18.3467 15.2028 18.0451 15.743 17.7784 16.6218L16.774 17.8377C17.2418 17.8377 17.6436 18.5475 17.9793 19.9661V20.3715C17.9793 21.1826 17.51 21.588 16.5731 21.588C15.233 21.588 14.3287 20.9117 13.8612 19.561V19.358C13.6603 19.358 13.3243 20.0328 12.8567 21.3851C10.9136 23.3442 8.50301 24.8977 5.62482 26.0473C3.14663 26.925 1.27136 27.3651 0 27.3651V27.061C0 26.925 2.10931 26.0128 6.32792 24.3245C8.80434 23.1747 10.9812 21.6896 12.8567 19.8648C13.5927 18.0407 14.062 17.0936 14.2629 17.0272C16.0709 17.0272 17.4771 15.9452 18.4815 13.7839L19.0842 13.4798C19.7529 15.1015 20.2551 15.9123 20.5908 15.9123H20.7917V15.8109L20.4904 14.2907C20.4904 12.3303 21.4948 11.3514 23.5037 11.3514C23.9713 11.3514 25.613 11.7219 28.4254 12.4663C29.8316 12.8717 30.5347 13.1411 30.5347 13.2771C30.5347 14.1546 29.797 14.7293 28.325 15.0001C25.9143 16.5536 23.7706 17.5339 21.8966 17.9393C21.8966 18.6138 21.4948 19.4596 20.6913 20.4731C20.0886 21.6212 19.7873 22.5002 19.7873 23.1083V23.6151C19.7873 24.2896 20.0542 24.6286 20.5908 24.6286H20.7917C21.5953 24.6286 22.8335 23.7828 24.5081 22.0948C25.0432 21.284 27.3205 20.2355 31.3383 18.9529C32.1418 18.2768 32.5436 17.8712 32.5436 17.7366C32.2751 15.5069 31.6396 12.3982 30.6352 8.41223L29.9321 4.35814C29.9321 3.75003 30.0983 3.31143 30.4343 3.04057ZM10.5465 25.7437H10.7474V25.8448C10.5465 26.1142 9.30681 26.722 7.03102 27.6692H6.93058V27.4662C9.27366 26.3166 10.479 25.7437 10.5465 25.7437ZM12.5554 12.8717C12.8896 12.8717 13.1581 13.0063 13.3589 13.2771V13.5812H13.2585V13.7839C12.5885 13.5133 12.2541 13.3103 12.2541 13.1758V13.0744L12.5554 12.8717ZM13.0576 24.6286C13.3918 24.6286 13.7936 24.8647 14.2629 25.3381C14.2629 25.7437 13.9947 26.1489 13.4594 26.5543L12.3545 25.9462V25.8448C12.3545 25.506 12.5883 25.1006 13.0576 24.6286ZM14.062 12.4663H14.2629L14.4638 12.669V12.7704C14.4638 12.9049 14.2958 12.9731 13.9616 12.9731V13.5812L13.6603 13.8853L13.5598 13.7839C13.6259 12.9049 13.7936 12.4663 14.062 12.4663ZM14.5643 18.7502V18.9529C14.966 19.6958 15.702 20.0677 16.774 20.0677H16.8744V19.9664C16.8744 19.561 16.1038 19.1558 14.5643 18.7502ZM15.4682 24.2234H15.5687C15.7696 24.2234 16.1713 24.4259 16.774 24.8313V25.034C16.6392 25.7769 16.4383 26.1489 16.1713 26.1489C15.8356 26.1489 15.4336 25.8783 14.966 25.3381C15.0994 24.5939 15.2674 24.2234 15.4682 24.2234ZM15.9705 9.02035H16.0709C16.5385 9.02035 16.774 9.22305 16.774 9.62846C16.5058 9.96596 16.2042 10.1352 15.87 10.1352H15.4682C15.534 9.39104 15.702 9.02035 15.9705 9.02035ZM17.9793 26.6556H18.4815L19.0842 27.2637C19.0842 27.5331 18.5473 27.7021 17.4771 27.7705L18.1802 30H17.9793L17.3767 27.973V27.6692C17.5775 27.3985 17.8442 27.2637 18.1802 27.2637C18.1802 27.1274 18.0798 27.0608 17.8789 27.0608V26.8583L17.9793 26.6556ZM27.9232 4.15544V4.35814C27.7223 4.69691 26.0148 5.54093 22.8006 6.89195C21.0584 7.70277 20.054 8.27769 19.7873 8.61494L19.5864 8.41223C19.6525 8.07498 22.4317 6.65605 27.9232 4.15544ZM20.9926 13.7839C21.3268 15.4722 21.6282 16.3177 21.8966 16.3177C23.4361 16.3177 25.3446 15.5403 27.6219 13.9869C26.0806 13.3787 24.4735 12.9733 22.8006 12.7706C21.6613 12.9731 21.0584 13.3103 20.9926 13.7839ZM23.1019 26.9594H23.3028C23.7046 27.0263 23.9055 27.1274 23.9055 27.2637V27.3651L23.3028 28.1759V28.2773H23.5037L24.9099 28.1759V28.2773C24.9099 28.5466 24.4406 28.7156 23.5037 28.784H23.2024L23.1019 28.5813V27.9732L23.5037 27.4664V27.3651H23.3028H23.0015L22.8006 27.264L23.1019 26.9594ZM24.8095 17.8377H24.9099C25.5783 18.3098 25.9143 18.8165 25.9143 19.358L25.8139 19.561H25.7134C25.445 19.0192 25.1108 18.5475 24.709 18.142L24.8095 17.8377ZM27.9232 7.60142L28.325 8.81764C28.325 9.15489 28.0568 9.3244 27.5214 9.3244L27.0192 9.62846C26.6835 9.62846 26.517 9.22305 26.517 8.41223V8.31088H26.7179L27.0192 9.02035H27.421L27.1196 7.90547L27.2201 7.80412C27.487 7.80412 27.6219 8.04179 27.6219 8.51358L27.9232 8.81764L27.6219 7.70277L27.7223 7.60142H27.9232ZM32.1418 0C32.2078 0 32.4431 0.372216 32.8449 1.11487H33.0458L34.0502 0.202704L34.452 0C34.9196 0.270864 35.1551 0.541728 35.1551 0.810818C34.7533 1.28439 34.2167 1.52028 33.548 1.52028C33.548 1.72299 33.3125 1.82434 32.8449 1.82434L32.5436 1.52028C32.2078 1.72299 31.8734 1.82434 31.5391 1.82434H31.3383L31.1374 1.62164V1.52028C31.8061 1.38574 32.1418 1.25094 32.1418 1.11487L32.0414 0.202704L32.1418 0ZM32.5436 20.7772C33.3471 21.1145 33.7489 21.3174 33.7489 21.3851V21.8918C33.6138 22.432 33.4476 22.7029 33.2467 22.7029H32.9453C32.3427 22.3639 32.0414 22.0948 32.0414 21.8918L32.5436 20.7772ZM33.7489 1.11487H33.8493C34.2511 1.04849 34.452 0.947136 34.452 0.810818V0.709465H34.1507L33.7489 1.11487ZM34.9542 2.83786H35.0547C35.7907 4.39286 36.1595 5.30503 36.1595 5.57437L35.9586 5.77708L35.6573 5.57437V5.77708C36.3933 8.95371 36.8955 11.6208 37.164 13.7839C37.3648 13.7839 37.5311 15.0668 37.6662 17.6355C37.6662 18.3782 37.5311 18.9529 37.2644 19.3583L36.8626 19.1558V18.4461L36.9631 18.2434H36.8626V17.5339C36.5944 15.3708 35.9915 11.8232 35.0547 6.89195C34.9196 6.01475 34.7533 5.57437 34.5524 5.57437H34.6529V5.37167L34.3516 3.95274C34.4849 3.21008 34.6858 2.83786 34.9542 2.83786ZM39.4742 25.3381V25.4392C36.8626 27.1274 35.3213 27.973 34.8538 27.973H34.6529V27.7705C35.3216 27.2288 36.9287 26.4182 39.4742 25.3381ZM38.068 7.60142C38.4697 7.87228 38.6706 8.54855 38.6706 9.62846H38.4697L37.8671 7.70277L37.9675 7.60142H38.068ZM46.1034 2.53381C46.3043 2.53381 46.4047 2.60196 46.4047 2.73651L46.2038 3.04057H46.1034L46.003 2.93921C44.5968 3.75003 42.955 4.15544 41.0812 4.15544H39.7755C39.7755 4.35814 39.7079 4.4595 39.5746 4.4595C39.1728 3.91954 38.9719 3.51413 38.9719 3.24327C39.7755 3.58204 40.411 3.75003 40.8804 3.75003C42.5532 3.75003 44.2954 3.34462 46.1034 2.53381ZM40.2777 15.0001C40.3437 15.2028 41.0812 15.8107 42.4874 16.8242C42.8892 17.1617 43.0901 17.4323 43.0901 17.6353L48.0118 15.5069C48.0118 15.1679 45.8679 14.932 41.5835 14.7974H41.2821L40.2777 15.0001ZM48.8154 5.37167L48.9158 5.47302V5.57437C48.0447 6.18248 46.0359 6.96011 42.8892 7.90547L40.8804 8.81764V9.3244H40.7799C40.6448 9.3244 40.579 9.22305 40.579 9.02035C40.579 8.27769 41.8848 7.60142 44.4963 6.9933C47.0403 5.91314 48.4796 5.37167 48.8154 5.37167ZM43.0901 10.0339C43.4243 10.0339 43.6581 10.2019 43.7932 10.5406V10.7433L43.4919 11.1487H42.8892C42.7544 11.1487 42.6883 11.0124 42.6883 10.7433C42.8217 10.3379 42.9553 10.1005 43.0901 10.0339ZM48.8154 9.62846C48.8154 9.96596 48.3792 10.2698 47.5096 10.5406C47.1078 10.3379 46.9069 9.93252 46.9069 9.3244V9.1217L47.0074 9.02035L47.4092 9.83116H47.7105L47.5096 9.02035V8.81764H47.7105C47.9114 8.8858 48.0118 9.15489 48.0118 9.62846H48.3131L48.0118 8.81764L48.1123 8.61494C48.3792 8.6831 48.6145 9.02035 48.8154 9.62846ZM47.7105 25.5408C48.3792 25.8101 48.7149 26.0128 48.7149 26.1489C48.7149 26.5543 48.2456 26.757 47.3087 26.757C47.7765 28.1075 48.0118 28.9865 48.0118 29.3919H47.7105L47.0074 27.0608V26.757C47.1407 26.3513 47.2743 26.1489 47.4092 26.1489L47.3087 26.0475V25.9462L47.7105 25.5408ZM51.226 24.2234C51.6278 24.358 51.8287 24.4928 51.8287 24.6288V24.8313C51.3593 25.1685 51.1256 25.4726 51.1256 25.7437H51.8287L53.3353 25.3381C52.7987 26.0128 52.0953 26.3516 51.226 26.3516C50.9576 26.3516 50.7567 26.2153 50.6233 25.9459L51.0251 24.8313H50.9247H50.5229C50.6562 24.4256 50.8903 24.2234 51.226 24.2234ZM53.2349 0.709465L53.8375 1.82434H54.1389L55.2437 1.01352H55.7459C56.1477 1.01352 56.3486 1.11487 56.3486 1.31758V1.52028C56.3486 2.19656 55.7459 2.53381 54.5406 2.53381L54.0384 2.63516L53.8375 2.73651C53.8375 2.46717 53.77 2.3311 53.6366 2.3311C53.3682 2.60196 53.0669 2.73651 52.7326 2.73651H52.5318V2.53381L53.4357 2.1284C53.1676 1.52028 53.034 1.08168 53.034 0.810818L53.1344 0.709465H53.2349ZM61.9734 23.8178V23.9189C61.9734 24.3245 60.3992 24.9993 57.2526 25.9459C56.5148 26.3516 56.1477 26.6207 56.1477 26.757L55.5451 26.6556L54.4402 27.061V26.8583C54.4402 26.5196 56.1477 25.7767 59.5628 24.6286C60.8341 24.0871 61.6374 23.8178 61.9734 23.8178ZM54.9424 1.82434H55.1433H55.6455V1.52028H55.4446L54.9424 1.82434ZM55.8464 3.75003C56.5151 5.23712 56.8508 6.2172 56.8508 6.68925H56.449C57.4535 12.1623 57.9557 15.5733 57.9557 16.9258C57.8208 18.0739 57.62 18.6491 57.353 18.6491L57.2526 18.4461L57.353 17.0272L55.8464 8.81764L55.9468 8.41223L55.2437 5.06761C55.4446 4.19041 55.6455 3.75003 55.8464 3.75003ZM67.096 13.4798C67.8996 14.4934 68.3013 15.1679 68.3013 15.5069V15.6082C68.1004 15.6082 68 15.6746 68 15.8107C68.7362 17.6353 69.1049 18.8165 69.1049 19.358V19.6623C68.9698 21.2837 68.4347 22.0948 67.4978 22.0948H67.1965C66.2578 22.0948 65.5547 21.5531 65.0872 20.4731V20.3718H64.8863C64.8863 21.4522 64.1485 22.2628 62.6765 22.8045H61.873C61.0019 22.8045 60.3992 21.9937 60.065 20.3718L60.2659 18.4461C59.7966 18.9861 59.3948 20.3371 59.0606 22.5002C58.6588 23.1083 58.2899 23.4456 57.9557 23.5137C57.0846 23.5137 56.449 22.2296 56.0473 19.6626C56.1131 18.7152 56.2482 18.2434 56.449 18.2434C56.5824 18.2434 56.6499 19.0874 56.6499 20.7772C57.0517 21.6544 57.4864 22.0948 57.9557 22.0948C58.3575 22.0948 58.8597 20.8106 59.4623 18.2434C59.9302 17.0272 60.3992 16.3509 60.8685 16.2164C61.0694 16.4857 61.1699 16.7566 61.1699 17.0272L60.8685 19.561C60.9346 20.709 61.4368 21.284 62.3752 21.284H62.5761C63.5805 21.284 64.249 20.7422 64.5849 19.6626L63.9823 15.5071V15.2028C63.9823 14.5268 64.0827 14.1893 64.2836 14.1893C64.8863 15.0665 65.3209 16.5536 65.5894 18.6491C65.9236 19.9319 66.5263 20.5747 67.3973 20.5747H67.4978L68.6027 20.1693C67.3973 17.1288 66.7947 15.3042 66.7947 14.6961V13.9866C66.8607 13.6478 66.9612 13.4798 67.096 13.4798ZM132.183 10.0339C132.651 10.3711 132.886 11.1819 132.886 12.4663C133.823 14.4934 134.292 15.8776 134.292 16.6218V17.1285C134.292 18.6136 133.723 19.4594 132.585 19.6623C132.048 19.6623 131.413 19.2901 130.677 18.5475H130.576C130.576 19.222 130.039 19.6955 128.969 19.9664H128.768C128.231 19.9664 127.83 19.6626 127.563 19.0542C126.893 19.7971 125.821 20.1691 124.349 20.1691C123.678 20.1691 123.244 19.6623 123.043 18.6488H122.942C120.13 19.5263 114.639 20.5745 106.47 21.7907C101.112 22.4655 96.4583 22.8042 92.5081 22.8042C87.15 22.8042 82.5972 22.2625 78.8479 21.1829H78.647C78.647 22.0601 78.2781 22.5002 77.5421 22.5002C76.7386 22.2975 75.8675 21.9253 74.9308 21.3853C74.1273 23.2099 72.1513 24.9326 69.0044 26.5543C66.7274 27.9053 63.4457 28.8507 59.161 29.3921H58.3575V29.1894L67.3973 25.8448C70.4764 24.2896 72.586 22.9053 73.7253 21.6896C74.9966 19.3236 75.9353 18.1423 76.5377 18.1423H76.7386L79.1494 19.5612C82.3636 20.7093 86.8836 21.2842 92.7093 21.2842H94.5172C101.882 21.2842 110.955 20.068 121.737 17.6358C122.607 17.2968 123.31 17.129 123.846 17.129V17.3315L123.746 17.6358V17.7366C123.746 18.2768 124.047 18.5806 124.65 18.6491H125.253C126.189 18.6491 127.127 18.1423 128.065 17.1288C128.198 17.1288 128.299 17.4326 128.366 18.0409C128.633 18.1755 128.935 18.2436 129.27 18.2436H129.371C129.838 18.2436 130.375 17.7019 130.978 16.6223H131.078C131.144 16.6223 131.211 16.8582 131.279 17.3315C131.613 17.669 132.115 17.9396 132.786 18.1426C133.388 18.0062 133.69 17.8382 133.69 17.6358L131.681 11.352C131.882 10.4727 132.048 10.0339 132.183 10.0339ZM61.4712 10.4393H61.6721C62.1397 10.4393 62.4756 10.7765 62.6765 11.4528V11.8582C62.6765 11.9246 62.4081 12.0259 61.873 12.1623C61.4037 13.0395 60.7681 13.4798 59.9646 13.4798V13.1758C60.6333 12.9049 61.203 12.4998 61.6721 11.9596V11.8582C61.3364 11.8582 61.1699 11.79 61.1699 11.6555C61.1699 10.8447 61.2703 10.4393 61.4712 10.4393ZM68 4.86491L68.1004 4.96626V5.06761C68.1004 5.27031 66.4934 6.08113 63.2792 7.50006C62.5414 7.70277 61.8386 8.14314 61.1699 8.81764L61.2703 9.02035L61.1699 9.1217L60.8685 8.81764V8.41223C61.0694 7.94019 63.4457 6.7574 68 4.86491ZM61.9734 2.83786H62.4756L62.8774 3.34462V3.54733C62.6765 3.95274 62.3408 4.15544 61.873 4.15544L61.6721 3.64868C61.7379 3.10873 61.8386 2.83786 61.9734 2.83786ZM66.192 9.52711C66.5263 9.86436 66.6942 10.2698 66.6942 10.7433C66.6942 11.0127 66.2578 11.2154 65.3885 11.3514C64.9867 11.2151 64.7858 10.946 64.7858 10.5406V10.1352L64.8863 10.0339C65.0872 10.5057 65.2534 10.7433 65.3885 10.7433H65.5894L65.3885 9.62846H65.5894L65.8907 10.5406H66.192L65.8907 9.62846L65.9911 9.52711H66.192ZM72.0177 2.73651H72.2186C72.6864 2.73651 72.922 2.90577 72.922 3.24327C72.922 4.05409 72.3851 4.4595 71.3149 4.4595L69.9087 4.15544V4.6622H69.7075L69.5066 4.4595C69.5066 3.85138 69.7407 3.51413 70.2098 3.44597L70.8124 3.75003C71.0133 3.41278 71.4151 3.07553 72.0177 2.73651ZM70.2098 5.77708C71.0133 7.19601 71.4153 8.10818 71.4153 8.51358V8.81764L71.3149 9.02035L71.114 8.81764H71.0135V9.02035C71.8171 14.0198 72.2189 17.2633 72.2189 18.7502V19.358C72.2189 20.1691 71.9833 20.6758 71.5158 20.8783H71.4151V20.6758L71.5153 18.8513L71.013 15.5069L69.8077 7.90547L69.7073 7.29736V6.89195C69.8409 6.14929 70.0089 5.77708 70.2098 5.77708ZM71.4151 3.75003V3.85138L72.2184 3.64868V3.34462H72.1182C71.6489 3.41278 71.4151 3.54733 71.4151 3.75003ZM81.3589 23.007C80.9572 23.2763 78.4461 24.3245 73.8257 26.1489L73.7253 26.0475V25.9462C73.8586 25.5408 76.3368 24.4925 81.1581 22.8042L81.3589 23.007ZM74.2275 15.0001C74.6953 15.0001 74.9308 15.2695 74.9308 15.8107V15.912L74.7297 16.2164C74.7297 16.0136 74.4942 15.8776 74.0266 15.8107L73.8257 15.6082V15.5069C73.8917 15.1679 74.0266 15.0001 74.2275 15.0001ZM74.9306 10.7433L75.2319 11.1487V11.3514C75.2319 11.4178 75.0642 11.4528 74.7297 11.4528L74.9306 11.6555H75.8346V11.8582C75.8346 12.2636 75.2319 12.6009 74.0266 12.8717V12.7704L74.4286 12.2636L74.0266 11.8582V11.6555C74.1599 11.0474 74.4613 10.7433 74.9306 10.7433ZM75.6337 14.5947L76.0355 14.7974V15.0001C76.0355 15.2028 75.9006 15.3039 75.6337 15.3039V15.8107L75.4328 16.3175H75.3324V15.0001L75.6337 14.5947ZM75.6337 20.0677C76.2361 20.5395 76.839 20.7772 77.4417 20.7772C77.1732 20.1693 76.8043 19.8648 76.3368 19.8648C75.8675 19.9317 75.6337 19.9996 75.6337 20.0677ZM77.9439 25.5408H78.1448C78.6799 25.5408 78.9483 25.8101 78.9483 26.3516C78.9483 26.5543 78.5463 26.6888 77.7427 26.7572V27.061L78.245 28.8854H78.1448C78.0772 28.8854 77.7759 28.2091 77.2405 26.8583C77.2405 26.5875 77.407 26.3516 77.7427 26.1489V26.0475V25.9462L77.9439 25.5408ZM127.864 22.6015H128.065V22.7029C128.065 23.2428 127.729 23.5135 127.061 23.5135L126.759 23.6148H126.157H126.056C124.65 24.7629 123.746 25.3378 123.344 25.3378V25.2367L125.052 23.9189L126.157 23.0067L127.161 23.108V23.0067L127.362 22.7029L127.563 23.007L127.864 22.6015ZM126.86 9.3244C127.194 9.45895 127.362 9.69484 127.362 10.0339V10.1352C127.362 10.4046 127.093 10.6073 126.558 10.7433H126.458C126.257 10.7433 126.157 10.5406 126.157 10.1352C126.424 9.66165 126.659 9.39104 126.86 9.3244ZM126.558 9.83116L126.458 10.0339L126.659 10.1352H126.759L126.96 10.0339L126.558 9.83116ZM126.86 13.2771C127.327 13.4798 127.563 13.8171 127.563 14.2907H127.362H127.261C127.261 14.2225 127.061 14.1214 126.659 13.9866V13.4798L126.86 13.2771ZM128.366 13.1758L128.467 13.4798V13.7839C128.198 13.7839 128.065 13.9519 128.065 14.2907H127.763C127.897 13.5462 128.098 13.1758 128.366 13.1758ZM136 24.8313C135.732 25.237 132.987 26.2834 127.764 27.973V27.7705C128.165 27.4317 130.91 26.4527 136 24.8313ZM131.882 22.5002H131.982C132.45 22.5002 132.919 22.8042 133.388 23.4124C133.388 23.8844 133.188 24.2566 132.786 24.5272H132.685C132.349 24.5272 131.948 24.2566 131.48 23.7167V23.6153L131.882 22.5002Z" fill="#F4CE96"/>
</g>
<defs>
<clipPath id="clip0_1043_369">
<rect width="136" height="30" fill="white"/>
</clipPath>
</defs>
</svg>
