<svg width="94" height="40" viewBox="0 0 94 40" fill="none" xmlns="http://www.w3.org/2000/svg">
<path d="M45.8638 4.09951C46.5948 3.51965 46.5516 2.44805 45.8913 1.82312C45.3018 1.26375 44.4135 1.37644 43.824 1.87434C43.2345 2.37224 43.1539 3.20616 43.6275 3.88437C44.1384 4.59126 45.3214 4.52774 45.8638 4.09951ZM44.1895 2.32101C44.3539 2.15789 44.5667 2.05804 44.7928 2.03793C45.019 2.01782 45.2449 2.07864 45.4334 2.21037C45.8736 2.56484 45.9365 3.23485 45.4767 3.58932C45.2741 3.74516 45.0256 3.82209 44.7743 3.80674C44.523 3.79139 44.2848 3.68474 44.1011 3.50531C43.765 3.17953 43.7965 2.69802 44.1895 2.32101Z" fill="#F4CE96"/>
<path d="M29.1742 12.9674C29.9052 12.3876 29.862 11.3282 29.2017 10.691C28.6121 10.1317 27.7239 10.2443 27.1324 10.7443C26.5409 11.2442 26.4643 12.0761 26.9359 12.7543C27.4468 13.4633 28.6318 13.4018 29.1742 12.9674ZM27.494 11.1889C27.6586 11.0261 27.8713 10.9265 28.0974 10.9064C28.3234 10.8863 28.5493 10.9469 28.7379 11.0783C29.1761 11.4348 29.241 12.1028 28.7811 12.4572C28.5786 12.6131 28.3301 12.69 28.0788 12.6746C27.8275 12.6593 27.5893 12.5526 27.4056 12.3732C27.0735 12.0495 27.0911 11.568 27.494 11.1889Z" fill="#F4CE96"/>
<path d="M29.5037 30.2775C28.9142 30.7733 28.8336 31.6093 29.3072 32.2875C29.8102 32.9985 30.9933 32.9309 31.5356 32.5026C32.2667 31.9228 32.2234 30.8512 31.5631 30.2262C30.9815 29.6669 30.0932 29.7775 29.5037 30.2775ZM31.1505 31.9924C30.9473 32.1468 30.6991 32.2227 30.4482 32.2074C30.1973 32.1921 29.9593 32.0864 29.7749 31.9084C29.4388 31.5826 29.4624 31.1011 29.8574 30.7241C30.0216 30.5607 30.2343 30.4605 30.4604 30.44C30.6865 30.4195 30.9126 30.48 31.1013 30.6114C31.5474 30.968 31.6123 31.638 31.1505 31.9924Z" fill="#F4CE96"/>
<path d="M44.8982 37.2374C44.3087 37.7332 44.2281 38.5692 44.7017 39.2474C45.2048 39.9584 46.3878 39.8908 46.9302 39.4625C47.6612 38.8827 47.618 37.8111 46.9577 37.1861C46.376 36.6268 45.4878 36.7374 44.8982 37.2374ZM46.545 38.9503C46.3372 39.1093 46.0802 39.1823 45.8238 39.1552C45.5815 39.1376 45.3525 39.0334 45.1753 38.8601C44.8393 38.5343 44.8628 38.0528 45.2578 37.6758C45.422 37.5124 45.6347 37.4122 45.8608 37.3917C46.0869 37.3712 46.313 37.4317 46.5018 37.5631C46.938 37.9279 47.0048 38.604 46.545 38.9503Z" fill="#F4CE96"/>
<path d="M63.0201 9.42718C63.7511 8.84733 63.7079 7.77572 63.0476 7.15079C62.4581 6.59142 61.5698 6.70207 60.9783 7.20201C60.3868 7.70196 60.3102 8.53383 60.7916 9.21204C61.2849 9.91893 62.4777 9.85541 63.0201 9.42718ZM61.3399 7.64868C61.5043 7.48556 61.7171 7.38571 61.9432 7.3656C62.1693 7.34549 62.3953 7.40631 62.5838 7.53804C63.022 7.89251 63.0869 8.56252 62.6271 8.91699C62.4245 9.07283 62.176 9.14976 61.9247 9.13441C61.6734 9.11907 61.4352 9.01241 61.2515 8.83298C60.9194 8.5072 60.9449 8.02569 61.3399 7.64868Z" fill="#F4CE96"/>
<path d="M61.3037 30.1031C60.7141 30.599 60.6355 31.435 61.1071 32.1132C61.6102 32.8242 62.7932 32.7565 63.3356 32.3283C64.0686 31.7484 64.0234 30.6768 63.3651 30.0519C62.7814 29.4925 61.8932 29.6032 61.3037 30.1031ZM62.9504 31.8181C62.7418 31.9754 62.4855 32.0482 62.2292 32.023C61.9871 32.0032 61.7585 31.8985 61.5807 31.7259C61.2447 31.4001 61.2683 30.9186 61.6633 30.5416C61.8277 30.3785 62.0405 30.2786 62.2666 30.2585C62.4927 30.2384 62.7187 30.2992 62.9072 30.431C63.3474 30.7936 63.4103 31.4616 62.9504 31.8181Z" fill="#F4CE96"/>
<path d="M93.4997 21.0262C92.7844 19.5591 91.4913 18.5264 89.9939 17.8667C90.3291 17.787 90.6441 17.6333 90.9175 17.4159C91.6426 16.8319 92.185 15.7603 92.0769 14.7891C91.9 13.2053 88.8855 11.8079 88.4296 13.8589C88.4177 13.9107 88.422 13.9651 88.442 14.0141C88.462 14.0631 88.4966 14.1041 88.5407 14.131C88.5848 14.1579 88.636 14.1693 88.6868 14.1635C88.7376 14.1576 88.7852 14.1349 88.8227 14.0986C89.4456 13.4368 90.2159 13.3897 90.9057 14.0146C91.4815 14.5371 91.5188 15.2256 91.2103 15.9304C90.6443 17.2233 89.5301 17.3647 88.3235 17.3012C86.9687 16.9584 85.5673 16.862 84.181 17.0164C81.4004 17.3503 78.7533 18.4199 76.1731 19.637C76.2399 19.5735 76.3107 19.512 76.3696 19.4485C77.2775 18.5818 78.1874 17.3257 78.1736 15.9652C78.154 13.8118 75.1473 14.0741 75.1061 16.0656C75.1061 16.2972 75.45 16.4222 75.5482 16.1906C75.9766 15.1661 77.6313 14.2585 77.535 16.2623C77.4898 17.2049 76.8275 18.1064 76.2183 18.7539C75.3163 19.6984 74.098 20.2885 73.1134 21.1163C72.5082 21.4114 71.9049 21.7044 71.3035 21.981C66.4851 24.2123 61.3462 26.0318 56.5002 23.6898C61.924 24.5893 67.9137 19.5058 70.5706 15.0842C70.5946 15.0496 70.6106 15.0096 70.6172 14.9674C70.6238 14.9253 70.6209 14.8821 70.6087 14.8413C70.5965 14.8005 70.5753 14.7633 70.5468 14.7325C70.5184 14.7018 70.4834 14.6783 70.4448 14.6642C70.4265 14.6378 70.4016 14.6172 70.3728 14.6046C70.3441 14.5919 70.3126 14.5877 70.2817 14.5924C68.2835 14.8745 66.2494 14.6279 64.3666 13.8753C62.8496 13.3036 61.3541 12.6295 59.7368 12.441C58.2338 12.2668 56.714 12.5336 55.3487 13.2114C57.019 9.16065 56.2959 4.74105 56.0306 0.454631V0.442338C56.1858 0.173925 55.7967 -0.172349 55.6041 0.0981133C53.3089 3.17155 49.1448 3.43996 46.6491 6.31055C45.8207 7.27392 45.2435 8.44297 44.9728 9.70568C44.6441 8.75251 44.1364 7.87724 43.4795 7.13104C42.8225 6.38485 42.0295 5.78271 41.1467 5.35984C39.7711 4.69802 38.2324 4.48493 36.7311 4.3497C34.7227 4.16734 32.8283 3.93991 30.8691 3.44611C30.8302 3.4382 30.7901 3.43991 30.7519 3.4511C30.7138 3.46229 30.6787 3.48264 30.6494 3.51054C30.6202 3.53843 30.5976 3.57308 30.5836 3.61171C30.5695 3.65034 30.5643 3.69187 30.5684 3.73296C30.5435 3.77061 30.5301 3.81527 30.5301 3.86102C30.5301 3.90677 30.5435 3.95144 30.5684 3.98908C31.6905 5.70816 32.9148 7.11989 33.6576 9.09508C34.2609 10.7015 34.6834 12.3734 35.7151 13.7585C35.9752 14.1038 36.2618 14.4265 36.5719 14.7236C30.7944 13.0168 24.8303 17.1557 20.0648 20.3725C17.009 22.4338 13.8393 24.7491 10.2608 25.6875C7.46442 26.4231 3.3239 26.0543 1.47275 23.4337C-0.117039 21.1798 0.934304 17.6966 3.78767 17.4815C5.23007 17.3708 6.65676 18.0449 6.79628 19.6902C6.90633 21.0016 6.09866 21.9298 4.896 22.1367C4.53049 22.1982 4.62285 22.8088 4.98443 22.8026C8.44895 22.7432 8.12864 17.5102 5.06304 16.8094C1.08955 15.8976 -1.41402 20.5733 0.86749 23.8517C1.77538 25.1548 3.19027 25.958 4.74665 26.3821C4.33601 26.5474 3.97652 26.8265 3.7071 27.1894C3.16079 27.9127 2.83065 29.0335 3.16472 29.9289C3.69727 31.3632 6.67641 32.1377 6.84148 30.0887C6.86309 29.8223 6.52509 29.7916 6.40325 29.9658C5.94538 30.6194 5.29492 30.8489 4.56782 30.4596C3.84073 30.0703 3.56954 29.3941 3.78177 28.5602C4.13157 27.1587 5.23204 26.8206 6.44649 26.7018C7.67162 26.8308 8.90852 26.7617 10.1134 26.4969C12.9157 25.8515 15.4782 24.3701 17.9346 22.7309C17.0425 23.9357 16.4588 25.3064 16.7202 26.6239C17.1132 28.6298 19.9135 27.8533 19.717 25.9723C19.6895 25.7101 19.324 25.6179 19.2513 25.9047C18.8582 27.3964 17.1486 27.8205 17.3235 25.6138C17.4021 24.6303 17.9955 23.7185 18.591 22.987C19.2768 22.1449 20.1631 21.479 20.9157 20.6881C21.4286 20.3336 21.9395 19.9832 22.4485 19.6472C26.7286 16.8217 31.382 14.2318 36.2948 15.3731C34.5501 15.4793 32.8988 16.2305 31.6375 17.4917C30.5881 18.5326 29.7863 19.805 28.9609 21.0344C27.9632 22.5139 26.7727 23.8414 25.4237 24.9786C25.3842 25.0052 25.3552 25.0456 25.3418 25.0926C25.3285 25.1396 25.3318 25.19 25.351 25.2347C25.3463 25.2695 25.3486 25.305 25.3578 25.3389C25.3669 25.3727 25.3827 25.4042 25.4042 25.4314C25.4256 25.4585 25.4522 25.4807 25.4823 25.4966C25.5124 25.5125 25.5453 25.5217 25.579 25.5236C29.2066 25.5482 33.2607 25.874 37.014 25.2081C33.691 28.1238 36.3813 35.625 36.3636 39.1861C36.3636 39.2311 36.3759 39.2751 36.399 39.3131C36.3086 39.5016 36.5385 39.77 36.733 39.6286C39.7004 37.4752 45.2656 35.1435 46.2403 30.9534C46.6767 32.0578 47.3339 33.0525 48.1681 33.8711C50.9488 36.6536 54.653 38.0325 57.9544 39.9708C58.0048 39.9986 58.063 40.0069 58.1187 39.9942C58.1744 39.9816 58.224 39.9489 58.2588 39.9018C58.2935 39.8548 58.3113 39.7964 58.3088 39.7371C58.3063 39.6777 58.2838 39.6212 58.2453 39.5774C58.2217 39.5487 58.1942 39.5262 58.1706 39.4996C58.2001 37.6289 57.868 35.7049 57.6833 33.8465C57.5142 32.1459 57.3885 30.4309 57.1035 28.7466C56.8048 26.9681 56.2585 25.1487 55.2622 23.6755C60.8314 27.6545 67.7506 24.495 73.2824 21.8621C76.633 20.2701 80.0562 18.4301 83.733 17.8359C86.7927 17.3421 91.1847 18.1781 92.8079 21.2802C94.0361 23.6263 92.6979 26.8739 89.9565 26.8657C88.7244 26.8657 87.337 26.2612 87.0658 24.8843C86.7632 23.3558 87.7517 22.1039 89.2039 22.0711C89.6343 22.0609 89.6087 21.4462 89.2039 21.3929C87.6632 21.188 86.4979 22.4072 86.321 23.9644C86.1363 25.6035 87.0619 26.8882 88.5279 27.3759C92.2322 28.5991 95.2231 24.5647 93.4997 21.0262ZM51.8232 30.1112C52.2398 30.4206 52.515 31.0169 52.7704 31.4717C52.9199 31.7349 53.0513 32.0088 53.1635 32.2913C53.2656 32.5515 53.5781 32.9962 53.1222 32.949C52.515 32.8876 52.0826 32.0188 51.9254 31.5148C51.8098 31.0684 51.7264 30.6136 51.6759 30.1543L51.8232 30.1112ZM51.6424 29.4392C48.5513 30.519 46.3111 27.5296 46.4722 24.5975C46.6687 24.6364 46.8534 24.6651 47.0499 24.6856C47.5019 26.0646 48.8657 27.0337 50.2865 26.7346C51.9431 26.3862 52.6879 24.7532 52.3813 23.1222C52.6156 22.918 52.8319 22.6924 53.0279 22.4481L53.077 22.4584C54.5744 24.7696 54.6393 28.3922 51.6424 29.4392ZM41.6478 28.4434C41.0583 28.0602 40.4412 27.3677 40.2329 26.6649C39.9539 25.7326 40.3646 24.8618 40.8028 24.0689C41.3435 23.8319 41.8687 23.5582 42.3749 23.2493C41.7264 24.1795 41.4906 25.4663 42.5557 26.2141C43.6876 27.0091 45.0671 26.1731 45.7746 25.0647C45.654 25.8671 45.5961 26.6784 45.6016 27.4906C44.4619 28.5745 43.1551 29.4105 41.6478 28.4434ZM41.4513 29.1359L41.4631 29.1236C41.4539 29.1412 41.4466 29.1597 41.4415 29.179C41.3393 29.7445 41.3432 30.31 41.1467 30.8591C41.017 31.2259 40.2369 32.8302 39.8045 32.527C39.3722 32.2237 39.893 31.0251 40.0777 30.6563C40.4024 30.0333 40.8772 29.5094 41.4552 29.1359H41.4513ZM41.5948 16.9037C41.87 16.9144 42.1456 16.9082 42.4201 16.8852C42.2931 17.194 42.1912 17.5134 42.1155 17.84C42.0998 17.9077 42.088 17.9753 42.0742 18.0449C41.3884 17.9281 40.7458 17.9363 40.1347 18.3728C39.8439 18.5745 39.6104 18.8539 39.4586 19.1819C39.3068 19.5099 39.2424 19.8744 39.272 20.2373C39.4547 21.7085 41.2371 22.0281 42.3454 21.4442C42.4554 21.7062 42.5869 21.9577 42.7385 22.1961L42.5026 22.3559C40.8991 22.6674 38.7041 22.9706 37.4346 21.7412C36.1651 20.5119 36.9964 18.6207 38.1833 17.795C39.1541 17.1188 40.3449 16.9754 41.4906 16.9405C41.5289 16.9375 41.566 16.9248 41.5987 16.9037H41.5948ZM39.889 12.0312C40.4786 9.89213 43.609 9.259 44.7468 11.3674L44.7606 11.3838C44.7763 11.4432 44.7901 11.5047 44.8058 11.5641C44.8202 12.0678 44.8861 12.5686 45.0023 13.0578C44.6177 12.8711 44.1924 12.7945 43.77 12.8359C43.3476 12.8773 42.9434 13.0352 42.5989 13.2934C41.7362 14.0351 41.579 15.619 42.5046 16.3463C42.2452 16.3463 41.9917 16.3197 41.7421 16.2931C40.3842 15.5432 39.4724 13.5823 39.893 12.0312H39.889ZM39.2111 9.3676C38.8632 9.10328 37.9789 8.40049 38.144 7.8903C38.1224 7.67516 38.1912 7.62393 38.3503 7.73868C38.458 7.75153 38.558 7.80295 38.6333 7.88415C38.7484 7.97217 38.8551 8.07167 38.9517 8.18125C39.1736 8.41935 39.376 8.67637 39.5569 8.94961C39.7473 9.2536 39.9142 9.57288 40.0561 9.90442C39.7649 9.74538 39.4839 9.56674 39.215 9.36965L39.2111 9.3676ZM51.1433 7.77146C51.163 7.71819 51.8586 6.19171 52.0984 6.5175C52.2379 6.706 51.7879 7.70179 51.7053 7.88825C51.5078 8.33912 51.2569 8.76244 50.9586 9.14836L50.933 9.13606C50.9268 8.67226 50.9993 8.21096 51.1472 7.77351L51.1433 7.77146ZM52.2811 15.1743C52.0031 14.7854 51.6766 14.4367 51.3103 14.1376C51.3103 14.1376 51.3221 14.1232 51.3261 14.113C51.837 12.984 51.0097 11.5272 49.9053 11.2055C49.614 11.1302 49.3111 11.1179 49.0151 11.1695C48.7192 11.2211 48.4365 11.3353 48.1846 11.5053C47.9326 11.6752 47.7168 11.8972 47.5504 12.1575C47.3839 12.4179 47.2705 12.711 47.217 13.0188C47.214 13.0406 47.214 13.0627 47.217 13.0844C46.7592 13.1563 46.3104 13.2807 45.8787 13.4553C46.4349 11.351 47.9244 8.96395 50.3671 9.61962C52.7468 10.2589 52.739 13.1746 52.285 15.1764L52.2811 15.1743ZM60.2654 17.715V17.7028C60.6664 17.6229 61.0711 17.5654 61.4779 17.5306C61.6744 17.5142 61.8709 17.5061 62.0576 17.4958C62.3858 17.4774 62.6098 17.3237 62.6786 17.7007C62.7474 18.0777 62.5568 17.9876 62.2856 18.0019C62.0594 18.0111 61.833 18.005 61.6076 17.9835C61.1596 17.9303 60.7161 17.8412 60.2811 17.7171L60.2654 17.715ZM59.6877 18.4404C59.8193 21.8191 56.1347 21.8335 53.7314 21.9236L53.472 21.7966C53.5701 21.6258 53.6587 21.4493 53.7373 21.2679C53.7674 21.2849 53.8013 21.2934 53.8355 21.2925C55.3212 21.2331 56.6378 19.9832 56.2782 18.3564C56.207 18.0503 56.0736 17.7638 55.8871 17.5161C55.7005 17.2685 55.4652 17.0654 55.1969 16.9207C54.9287 16.776 54.6338 16.693 54.3321 16.6774C54.0305 16.6617 53.7291 16.7137 53.4484 16.8299C53.3504 16.6546 53.2414 16.4862 53.1222 16.3259C55.219 14.5351 59.556 14.908 59.6916 18.4424L59.6877 18.4404ZM50.483 23.4706C47.5353 24.7368 43.0038 23.8045 42.6874 19.8849C42.5756 18.6161 42.8794 17.3452 43.5492 16.2795C44.2191 15.2138 45.2155 14.4161 46.3759 14.0167C48.0797 13.4225 49.5967 13.7257 50.8387 14.7297C47.891 14.0474 44.3341 16.9692 45.8728 20.3008C46.6353 21.9523 49.1723 22.1592 50.0134 20.4647C50.7798 18.9219 49.64 17.5716 48.1013 17.963C47.8439 18.0265 47.891 18.4855 48.1642 18.4527C49.3609 18.3174 50.1018 19.4628 49.2234 20.477C48.345 21.4913 46.765 20.9176 46.3523 19.7599C45.5938 17.6351 47.6906 15.2522 49.6577 15.1723C51.7152 15.0944 53.3914 17.127 53.4484 19.1842C53.4995 21.188 52.1711 22.7493 50.4869 23.4726L50.483 23.4706ZM51.8586 23.532C51.8468 24.0115 51.8586 24.4807 51.6464 24.9356C51.4929 25.2567 51.2643 25.5322 50.9816 25.7367C50.6989 25.9412 50.3713 26.0681 50.0291 26.1055C48.9876 26.2244 48.1878 25.5851 47.6709 24.7286C48.1698 24.7406 48.6685 24.7029 49.1605 24.6159C50.1197 24.4523 51.0363 24.084 51.8527 23.5341L51.8586 23.532ZM42.9016 15.9345C42.367 15.2194 42.2629 14.2605 43.1276 13.6991C43.2978 13.5893 43.4882 13.5178 43.6865 13.4892C43.8848 13.4606 44.0867 13.4756 44.2791 13.5331C44.5214 13.6202 44.746 13.7536 44.9414 13.9265C44.1221 14.4239 43.4241 15.1118 42.9016 15.9366V15.9345ZM42.1411 20.8827C41.808 21.0212 41.454 21.0968 41.0956 21.1061C40.5631 21.0753 39.9892 20.7741 39.8792 20.1881C39.775 19.637 40.1209 19.0838 40.5552 18.7969C40.9895 18.51 41.4788 18.508 41.978 18.592C41.8765 19.3597 41.9321 20.1411 42.1411 20.8848V20.8827ZM42.4791 24.2307C42.6107 23.7164 42.9664 23.2964 43.3103 22.9174C43.9215 23.5459 44.6602 24.0235 45.4719 24.3147C44.9197 25.0565 44.4579 25.9662 43.4027 25.8678C42.6029 25.7941 42.2963 24.9458 42.4791 24.2328V24.2307ZM53.694 17.295C54.6196 17.1393 55.6159 17.6331 55.6945 18.7293C55.7869 19.9894 54.7945 20.3049 53.9259 20.7393C54.2523 19.5999 54.1698 18.3757 53.694 17.295ZM50.8525 13.8118C49.9067 13.2205 48.8077 12.9513 47.7083 13.0414C47.9971 12.1685 48.9129 11.5149 49.8031 11.8468C50.6501 12.1562 50.8564 12.9738 50.8525 13.8118ZM62.3544 13.8118C64.5592 14.6314 67.2377 16.0451 69.6253 15.3362C66.0567 20.0078 61.1596 24.1016 55.4902 22.5649C57.9702 22.3375 60.5995 21.1184 60.3735 18.4014C61.4347 18.7026 63.4823 18.9854 63.5806 17.6761C63.6238 17.0758 63.1286 16.8709 62.6373 16.8565C61.7813 16.8334 60.9272 16.9509 60.1062 17.2049C59.1001 14.5986 55.5511 13.7729 53.3953 15.3424C55.9382 12.9287 59.0647 12.5824 62.3544 13.8118ZM49.5909 4.79637C51.5304 3.68174 53.9338 3.03427 55.441 1.28651C55.2779 3.02197 55.7221 4.82301 55.8341 6.54618C55.9873 8.99059 55.5079 11.2793 54.7257 13.5639C54.0503 13.9764 53.4371 14.4908 52.906 15.0903C53.7058 13.2463 53.1124 10.5314 51.4636 9.41882C51.895 8.84813 52.2275 8.20326 52.4462 7.51329C52.568 7.11784 52.9787 6.03599 52.3735 5.8147C51.8134 5.60981 51.2651 6.36587 51.0195 6.77361C50.6282 7.43337 50.4269 8.19652 50.4398 8.97215C48.062 8.40049 46.2069 10.429 45.527 12.6603C45.0809 9.33276 46.5999 6.51135 49.5909 4.79637ZM34.8662 10.5335C34.0998 8.39434 33.2941 5.98067 31.7023 4.33331C33.919 5.10986 36.4579 4.89472 38.7198 5.35779C41.4316 5.90281 43.2396 7.4928 44.2418 9.84296C43.2337 9.22827 41.7441 9.31432 40.6888 9.91877C40.2447 8.68939 38.8102 6.24089 37.6291 7.27151C37.0396 7.77556 37.6547 8.64431 38.0084 9.08689C38.5408 9.7115 39.1893 10.2169 39.9146 10.5724C39.8792 10.6175 39.8379 10.6584 39.8045 10.7056C38.8082 12.1398 39.0971 14.7215 40.3626 16.0329C37.7687 15.3219 35.9057 13.4348 34.8662 10.5335ZM26.6028 24.8762C28.2299 23.7103 29.3147 21.6183 30.4289 20.0242C32.6456 16.8483 35.383 15.3977 39.1501 16.4385C39.1861 16.4495 39.2242 16.4495 39.2602 16.4385C39.3702 16.4795 39.4783 16.5164 39.5903 16.5533C38.7074 16.6925 37.8854 17.1068 37.2322 17.7417C36.603 18.359 36.2252 19.2047 36.1769 20.1041C35.3771 19.8992 34.5537 19.8214 33.7912 20.2271C33.3491 20.4627 32.3036 21.1696 32.3881 21.7863C32.4805 22.4625 33.4866 22.444 33.9445 22.3764C34.8314 22.2473 35.675 21.8957 36.4029 21.3519C36.9924 22.7391 38.8868 23.4337 40.6063 23.4132C36.2064 25.3126 31.3329 24.3291 26.6028 24.8762ZM36.2123 20.6942V20.7065C35.8684 20.8971 33.3451 22.317 33.2056 21.5876C33.186 21.4892 33.8325 21.0323 33.8423 21.0241C34.0768 20.8568 34.3395 20.7372 34.6166 20.6717C35.1256 20.5549 35.6935 20.6369 36.2123 20.6901V20.6942ZM45.9062 29.9985C44.908 32.3077 43.8173 33.9592 41.7972 35.459C40.2113 36.6351 38.4741 37.5797 36.9354 38.8234C37.3874 34.3444 33.4434 27.3902 38.765 24.8024C39.2071 24.6774 39.6434 24.5381 40.0718 24.3762C39.3015 25.9252 39.5903 27.5664 40.9797 28.7651C40.1723 29.2546 39.5617 30.0317 39.2602 30.9534C39.0637 31.5435 38.7532 32.7974 39.3938 33.2298C40.0698 33.6764 40.8067 32.6888 41.1408 32.195C41.6517 31.4349 42.0684 30.3202 41.9269 29.3654C42.5683 29.6125 43.2663 29.6524 43.9299 29.4799C44.5934 29.3074 45.1917 28.9305 45.6468 28.3983C45.6938 28.9355 45.7852 29.4675 45.92 29.9883L45.9062 29.9985ZM57.5398 38.9054C56.6555 38.2046 55.557 37.7825 54.5567 37.3092C53.0177 36.5912 51.5538 35.7096 50.1883 34.6784C48.738 33.5719 47.3369 32.2708 46.651 30.4964C46.2128 29.3572 46.1362 28.1893 46.1794 27.0132C46.8868 29.1195 48.8579 30.6645 51.0922 30.3079C51.057 31.1826 51.3124 32.0431 51.8154 32.7441C52.1809 33.2195 52.9945 33.8649 53.6213 33.576C54.2895 33.2707 53.8021 32.279 53.5977 31.8139C53.3604 31.308 53.0885 30.8204 52.7842 30.3551C52.6791 30.1798 52.5629 30.0121 52.4364 29.8531C54.3445 28.8061 55.2799 26.1527 54.6786 24.0217C57.4533 28.1545 56.6535 33.9899 57.5398 38.8972V38.9054Z" fill="#F4CE96"/>
</svg>
