<svg width="127" height="105" viewBox="0 0 127 105" fill="none" xmlns="http://www.w3.org/2000/svg">
<path d="M5.46001 71.3452C6.36248 71.3452 7.32319 71.7428 8.03255 72.4098C8.90301 73.2302 9.4212 74.3047 9.92387 75.3424L10.2004 75.9102C12.8953 81.3037 17.7114 85.4984 23.4426 87.4548C24.6702 86.1178 26.4314 84.9811 28.4295 84.2381C31.0118 83.2825 33.7473 82.7971 36.5605 82.7971C39.4698 82.7971 42.3966 83.3399 45.0613 84.3696C43.8861 82.8351 41.9822 81.8103 40.1394 80.8175C37.6067 79.4524 34.9875 78.0425 34.2054 75.2209C33.9822 74.4157 33.9511 73.5872 33.921 72.787C33.8958 72.1451 33.8735 71.5397 33.76 70.9426C33.6484 70.36 33.4504 69.7826 33.1544 69.1836C32.8342 69.135 32.511 69.1107 32.1898 69.1107L32.0472 69.1126C31.6619 69.1213 31.2709 69.1639 30.8808 69.2068C30.4218 69.2573 29.9482 69.309 29.4805 69.309C28.8419 69.309 28.3237 69.2137 27.8502 69.0085C26.545 68.4456 25.9035 67.1911 25.2815 65.9787C24.8604 65.1542 24.4227 64.3022 23.789 63.7101C22.5062 62.5076 20.5799 62.4035 18.5537 62.3994L17.8744 62.3986C13.494 62.3986 8.91658 62.5911 5.32996 64.8837C3.31734 66.1702 1.04952 68.6166 0.808857 70.616C0.67203 71.7581 0.968967 72.8436 1.62593 73.5872C2.05582 74.0754 2.63419 74.4213 3.33386 74.6132C3.28339 74.5079 3.23875 74.3962 3.20381 74.2766C2.92725 73.3559 3.21061 72.3563 3.89184 71.8446C4.32852 71.5172 4.87194 71.3452 5.46001 71.3452ZM23.6852 88.355L23.4407 88.2745C17.4086 86.2907 12.3305 81.9114 9.50562 76.2574L9.22421 75.6827C8.75357 74.7074 8.26642 73.6982 7.50077 72.9777C6.60024 72.1276 5.16499 71.8644 4.35761 72.4679C3.88212 72.8239 3.79187 73.5348 3.94811 74.0529C4.01118 74.2649 4.21595 74.7616 4.74094 74.7921L4.71765 75.5699C3.15239 75.562 1.88212 75.0557 1.04369 74.1027C0.241162 73.1915 -0.125638 71.8864 0.0383605 70.5225C0.342098 67.9963 3.1194 65.374 4.91174 64.2273C8.67497 61.822 13.3795 61.6207 17.8744 61.6207L18.5556 61.6219C20.6566 61.6245 22.8322 61.746 24.3199 63.1414C25.0525 63.826 25.5202 64.7409 25.9734 65.6236C26.5576 66.7642 27.1088 67.8417 28.1568 68.2948C28.8283 68.5847 29.7667 68.5436 30.7963 68.4327C31.2097 68.389 31.6212 68.3442 32.0278 68.3336L32.1898 68.3317C32.6207 68.3317 33.0554 68.3716 33.4805 68.4494L33.6678 68.4833L33.7561 68.6515C34.1365 69.3807 34.3868 70.083 34.5227 70.7967C34.6469 71.4519 34.6721 72.1162 34.6964 72.7577C34.7275 73.5474 34.7556 74.2952 34.9545 75.0116C35.6474 77.5134 38.0074 78.7854 40.5081 80.1319C42.4975 81.2034 44.5557 82.3121 45.8405 84.1185C46.024 84.4288 46.1957 84.7155 46.3743 85.0054L47.0303 86.0768L45.7037 85.4828C45.564 85.4186 45.4242 85.3563 45.2835 85.2971C42.5751 84.1713 39.5591 83.5761 36.5605 83.5761C33.8395 83.5761 31.1952 84.0436 28.7003 84.9674C26.7255 85.7016 25.004 86.8353 23.8541 88.1605L23.6852 88.355Z" fill="#383838"/>
<path d="M100.008 33.983C98.4263 34.008 97.2502 35.3731 96.8145 36.6315C96.305 38.09 96.4389 39.7243 96.6612 41.2732L96.7563 41.917C96.9649 43.3213 97.1823 44.7718 97.0047 46.2246C96.6951 48.7427 95.258 50.8637 93.8674 52.9132C93.0648 54.0967 92.2342 55.3209 91.6383 56.6005C90.4583 59.1411 90.1439 62.0231 89.8392 64.8106C89.7131 65.9668 89.583 67.1511 89.3928 68.3217C90.0915 67.3193 90.7825 66.3109 91.4744 65.3029C94.5496 60.8134 97.7296 56.1717 101.602 52.2132C102.677 51.1136 103.766 50.1731 104.844 49.4158C105.407 46.2887 106.648 43.3368 108.438 40.868C108.844 40.3096 109.282 39.746 109.728 39.1751C111.852 36.4476 114.05 33.629 113.121 30.6216C112.521 28.6777 110.756 27.3582 109.05 26.0835C107.307 24.7788 105.407 23.2007 104.93 20.9575C104.69 19.8294 105.031 18.5229 105.817 17.5484C106.51 16.6937 107.423 16.2581 108.345 16.3204C107.944 13.2964 104.586 11.2 101.605 11.1709L101.503 11.1699C98.1381 11.1699 94.9843 13.0008 92.3429 14.7909C89.2968 16.86 86.9202 19.0167 85.2734 21.2055C86.6718 23.7556 87.6752 26.4588 88.2594 29.2467C88.273 29.3165 88.2875 29.3864 88.3021 29.4567C88.3089 29.4498 88.3166 29.4412 88.3244 29.4324C88.8678 28.8372 89.4287 28.2208 90.0692 27.6958C91.5471 26.4823 93.4763 25.8143 95.4986 25.8143C97.1464 25.8143 98.7126 26.2568 100.028 27.0958C103.308 29.1794 104.492 33.2419 102.906 36.9737L102.187 36.6801C102.381 36.1772 102.287 35.5874 101.927 35.0602C101.479 34.4049 100.725 33.983 100.008 33.983ZM87.782 71.936L88.304 69.83C88.3283 69.7346 88.3516 69.6411 88.3729 69.5439C88.7116 67.9726 88.8921 66.3226 89.0668 64.7263C89.3783 61.8754 89.7004 58.9279 90.9338 56.2715C91.5568 54.9345 92.405 53.6842 93.2249 52.4756C94.6243 50.4113 95.9479 48.4609 96.2332 46.1293C96.3982 44.7824 96.1896 43.3854 95.9877 42.0329L95.8916 41.3834C95.6568 39.7372 95.5161 37.9908 96.0809 36.3759C96.7184 34.536 98.3157 33.2313 99.9644 33.204C99.9654 33.204 99.9654 33.204 99.9654 33.204C100.975 33.204 101.979 33.7601 102.567 34.6207C102.622 34.7024 102.674 34.7852 102.72 34.8687C103.192 32.0577 102.044 29.2972 99.6122 27.7532C98.4195 26.9936 96.9989 26.5921 95.4986 26.5921C93.6549 26.5921 91.9023 27.1979 90.5612 28.2975C89.9644 28.7875 89.4229 29.3819 88.8979 29.9573C88.7135 30.1597 88.5292 30.3618 88.3419 30.56L88.3409 30.562L88.3419 30.5631C88.2953 30.6128 88.2487 30.6614 88.2012 30.7101L87.8111 31.1241L87.7412 30.7302L87.4142 30.4017C87.4908 30.3249 87.5675 30.246 87.6432 30.1673C87.5976 29.9125 87.551 29.6588 87.4986 29.4062C86.9144 26.6164 85.8964 23.9106 84.4738 21.3647L84.3516 21.147L84.5 20.9458C86.2031 18.616 88.6951 16.3291 91.9072 14.1472C94.6466 12.29 97.9295 10.392 101.503 10.392H101.612C105.178 10.427 109.062 13.0047 109.16 16.7832L109.173 17.3209L108.66 17.1673C107.873 16.9329 107.049 17.2616 106.421 18.0386C105.788 18.8233 105.501 19.9043 105.691 20.796C106.111 22.7727 107.885 24.2398 109.515 25.4594C111.237 26.7456 113.189 28.2052 113.864 30.391C114.912 33.7874 112.483 36.9038 110.34 39.6545C109.899 40.2174 109.466 40.7745 109.067 41.326C107.314 43.7401 106.11 46.6386 105.581 49.7094L105.554 49.8708L105.418 49.9631C104.339 50.7079 103.241 51.6483 102.158 52.7578C98.3322 56.6684 95.1706 61.2821 92.1138 65.7442C91.0736 67.2619 90.0333 68.7808 88.9649 70.2773L87.782 71.936Z" fill="#383838"/>
<path d="M63.5792 92.1599C64.1983 92.2551 64.8553 92.2806 65.521 92.232C68.6108 89.8623 72.31 88.0335 77.1455 86.4865C77.4881 86.2017 77.8267 85.9126 78.1605 85.6171C81.9597 82.2675 86.8156 76.7593 88.3721 69.5443C88.7108 67.973 88.8913 66.323 89.066 64.7267C89.3775 61.8758 89.6997 58.9283 90.933 56.2719C91.556 54.9349 92.4042 53.6846 93.2242 52.476C94.6235 50.4117 95.9471 48.4613 96.2324 46.1297C96.3974 44.7828 96.1888 43.3858 95.9869 42.0333L95.8908 41.3838C95.655 39.7376 95.5153 37.9912 96.0801 36.3763C96.7176 34.5364 98.3149 33.2317 99.9636 33.2044C99.9646 33.2044 99.9646 33.2044 99.9646 33.2044C100.974 33.2044 101.978 33.7605 102.567 34.6211C102.622 34.7028 102.673 34.7856 102.72 34.8691C103.191 32.0581 102.043 29.2976 99.6114 27.7536C98.4187 26.994 96.9981 26.5925 95.4978 26.5925C93.6541 26.5925 91.9015 27.1983 90.5604 28.2979C89.9655 28.7859 89.426 29.3792 88.9049 29.9539C88.1567 30.7766 87.3843 31.6274 86.4042 32.2351C85.4046 32.8542 84.2683 33.1721 83.1698 33.4805C81.9306 33.8288 80.7612 34.1562 79.7986 34.8759C77.8869 36.3022 77.392 38.7057 76.868 41.2513C76.5012 43.0318 76.1237 44.8724 75.226 46.4338C74.081 48.4215 72.2071 49.769 70.3934 51.0722C69.293 51.8626 68.1547 52.6811 67.2027 53.6291C64.9174 55.9085 63.5113 59.1096 63.0232 63.1455C63.8597 64.3154 64.5933 65.5559 65.2027 66.8373C68.0159 72.7474 68.44 80.2909 66.4963 89.8972L66.44 90.1765L66.1576 90.2076C65.5637 90.2706 64.8631 90.4477 63.9664 90.7587C63.8461 91.2616 63.719 91.7253 63.5792 92.1599ZM64.8563 93.0342C64.209 93.0342 63.5812 92.97 62.9873 92.8427L62.5545 92.7493L62.702 92.333C62.9097 91.744 63.0911 91.104 63.258 90.3758L63.3066 90.1677L63.5064 90.0967C64.4332 89.7643 65.1523 89.5668 65.7898 89.4696C67.6355 80.1644 67.2134 72.8689 64.5011 67.172C63.8898 65.8885 63.1523 64.6469 62.3051 63.4801L62.2158 63.3574L62.2333 63.2059C62.7253 58.9197 64.2129 55.5108 66.6554 53.0761C67.6511 52.0852 68.8155 51.2488 69.9412 50.4402C71.7675 49.1276 73.4929 47.8878 74.5536 46.046C75.3871 44.5925 75.7539 42.8138 76.1072 41.0947C76.638 38.518 77.1863 35.8552 79.3338 34.2508C80.4129 33.4455 81.7074 33.0817 82.9602 32.7308C84.0558 32.4235 85.0892 32.1329 85.9956 31.5719C86.8835 31.0223 87.5851 30.2494 88.3304 29.4298C88.8709 28.8357 89.4299 28.2192 90.0684 27.6962C91.5463 26.4827 93.4755 25.8147 95.4978 25.8147C97.1456 25.8147 98.7118 26.2572 100.028 27.0962C103.308 29.1798 104.492 33.2423 102.905 36.9741L102.186 36.6805C102.38 36.1776 102.286 35.5866 101.926 35.0606C101.478 34.4053 100.724 33.9834 100.007 33.9834C98.4255 34.0084 97.2494 35.3735 96.8137 36.6319C96.3042 38.0904 96.4382 39.7247 96.6604 41.2736L96.7555 41.9174C96.9641 43.3217 97.1815 44.7722 97.0039 46.225C96.6943 48.7431 95.2572 50.8641 93.8666 52.9136C93.064 54.0971 92.2334 55.3213 91.6376 56.6008C90.4575 59.1415 90.1431 62.0235 89.8384 64.811C89.6618 66.4272 89.4784 68.0987 89.131 69.7099C87.5308 77.1308 82.5613 82.7742 78.6749 86.2024C78.3148 86.5195 77.9509 86.8287 77.5832 87.134L77.4531 87.2051C72.6224 88.7434 68.9524 90.5597 65.9034 92.9194L65.8121 92.9905L65.6976 93.0001C65.4152 93.0224 65.1348 93.0342 64.8563 93.0342Z" fill="#383838"/>
<path d="M48.9306 22.8018C53.4246 24.3196 59.0326 26.6008 63.3353 30.7605C67.7652 35.0426 70.7832 41.3928 71.8322 48.6416C71.8497 48.7583 71.8652 48.8741 71.8807 48.9899C72.8482 48.2128 73.8497 47.2648 74.5542 46.0456C75.3878 44.592 75.7546 42.8133 76.1078 41.0942C76.6387 38.5175 77.1869 35.8547 79.3344 34.2504C80.4135 33.4451 81.708 33.0812 82.9608 32.7303C84.0564 32.423 85.0899 32.1324 85.9963 31.5715C86.628 31.1795 87.1782 30.6546 87.643 30.1692C87.5984 29.9143 87.5518 29.6587 87.4985 29.4061C86.1253 22.8497 82.299 16.7394 76.9987 12.6429L76.5057 12.2686C75.5004 11.5082 74.4611 10.7245 73.7575 9.6277C72.921 8.32574 72.6775 6.36551 73.8303 5.14134C74.5329 4.39362 75.9312 4.22152 76.9045 4.80394C76.3563 2.80968 74.3524 1.30158 72.3834 0.920429C70.1893 0.492599 67.6915 1.0235 64.6784 2.56562C57.0597 6.47539 51.1936 14.0217 48.9306 22.8018ZM71.2723 50.4404L71.1937 49.7636C71.1539 49.4264 71.1112 49.0891 71.0637 48.7526C70.0389 41.675 67.1035 35.484 62.7958 31.3204C58.4969 27.1629 52.8132 24.9178 48.3435 23.4251L48.0029 23.3116L48.0893 22.9633C50.3387 13.8185 56.4076 5.93477 64.3252 1.87235C67.4984 0.247574 70.1622 -0.305687 72.5319 0.157146C75.2723 0.688042 78.071 3.18111 77.8119 6.28286L77.0375 6.28189C76.9482 5.11898 75.0676 4.96243 74.3961 5.67418C73.5256 6.59984 73.7536 8.18476 74.4106 9.20571C75.0404 10.1858 76.0224 10.9287 76.9744 11.6463L77.4732 12.0265C82.9182 16.2347 86.8493 22.5112 88.2593 29.2466C88.3272 29.5721 88.3854 29.901 88.4417 30.2276L88.4757 30.421L88.3427 30.5619C87.8168 31.1202 87.1753 31.756 86.4048 32.2346C85.4053 32.8537 84.269 33.1716 83.1705 33.4801C81.9313 33.8284 80.7619 34.1557 79.7993 34.8755C77.8876 36.3017 77.3927 38.7052 76.8686 41.2508C76.5018 43.0313 76.1243 44.872 75.2267 46.4333C74.3223 48.002 72.9938 49.1309 71.8138 50.0284L71.2723 50.4404Z" fill="#383838"/>
<path d="M29.9448 45.5287C22.2213 52.5899 26.7618 59.4388 28.3281 61.8036C29.0161 62.8431 29.9031 63.8143 30.7599 64.7536C32.3844 66.5342 34.0632 68.3748 34.5222 70.7977C34.6464 71.4521 34.6716 72.1164 34.6959 72.7579C34.7269 73.5475 34.7551 74.2954 34.954 75.0118C35.6469 77.5136 38.0069 78.7856 40.5076 80.1321C42.497 81.2035 44.5552 82.3123 45.84 84.1187C48.1166 87.9712 50.9221 91.9452 54.5892 92.4147C54.8706 92.4507 55.155 92.4671 55.4403 92.4671C55.4403 92.4671 55.4403 92.4671 55.4412 92.4671C57.4917 92.4671 59.6179 91.6204 61.6732 90.8008C63.1414 90.2151 64.5339 89.6602 65.7896 89.4695C67.6353 80.1644 67.2132 72.8689 64.5009 67.1719C61.0405 59.9037 53.9652 54.8544 46.8958 54.6075C46.1273 54.579 45.3267 54.6432 44.2689 54.8046C40.6959 55.3531 37.7371 55.3436 35.2811 54.7845C34.0642 54.5073 32.9676 54.0891 32.0215 53.5417C30.2573 52.5238 29.2315 51.3354 28.9705 50.0113C28.6639 48.4533 29.2597 46.9056 29.9448 45.5287ZM55.4412 93.2461C55.4403 93.2461 55.4403 93.2461 55.4403 93.2461C55.122 93.2461 54.8046 93.2267 54.4912 93.1868C50.4922 92.6745 47.545 88.5291 45.1889 84.5437C44.0283 82.912 42.0506 81.8462 40.1389 80.8177C37.6062 79.4525 34.987 78.0427 34.2049 75.221C33.9817 74.4158 33.9506 73.5874 33.9205 72.7872C33.8953 72.1452 33.873 71.5399 33.7595 70.9428C33.3412 68.7364 31.8089 67.0572 30.1864 65.2789C29.3092 64.3179 28.4018 63.3243 27.6808 62.2342C22.8133 54.8893 24.0602 48.685 31.4955 43.268C31.4965 43.2669 31.4994 43.2669 31.4984 43.265L31.9555 43.8943C31.4926 44.2324 31.0675 45.0475 30.9074 45.3536C30.1825 46.7403 29.4334 48.3447 29.7323 49.8613C30.0001 51.2225 31.3354 52.2477 32.4086 52.8679C33.2888 53.3754 34.3126 53.7655 35.4538 54.0249C37.809 54.5615 40.6784 54.5684 44.1515 54.0355C45.2597 53.8653 46.1079 53.8012 46.923 53.8285C54.2738 54.0864 61.6188 59.3134 65.2025 66.8365C68.0157 72.7473 68.4398 80.2909 66.4961 89.8972L66.4398 90.1764L66.1574 90.2075C64.9347 90.3389 63.4898 90.9143 61.9604 91.524C59.9352 92.3311 57.6402 93.2461 55.4412 93.2461Z" fill="#383838"/>
<path d="M65.0698 93.5887C67.6831 93.8074 70.0014 95.9766 71.9403 98.1002C73.9985 100.355 76.441 102.762 79.3445 102.57C81.1679 102.451 82.671 101.351 84.2615 100.186C85.3843 99.3635 86.5449 98.5127 87.8549 98.0068C89.002 97.5635 90.2596 97.366 91.9336 97.366C92.673 97.366 93.4221 97.4028 94.1723 97.4408C95.7327 97.5217 97.3416 97.5597 98.5517 97.369C102.129 96.8099 105.367 94.1447 106.611 90.7366C106.796 90.2235 106.944 89.6951 107.091 89.1672C107.278 88.4964 107.471 87.8033 107.744 87.139C108.342 85.6747 109.293 84.639 110.424 84.2231C111.684 83.7593 113.788 84.296 114.263 85.805C114.47 86.4701 114.392 87.1352 114.038 87.6768C113.806 88.0346 113.473 88.3069 113.084 88.4691C113.717 89.2512 114.477 89.6595 115.306 89.6595C116.376 89.6595 117.518 88.9902 118.438 87.8234C120.128 85.7553 120.321 82.4486 118.89 80.1275C117.61 78.0458 115.134 76.7076 112.431 76.637L112.189 76.6328C109.853 76.6328 107.393 77.5509 105.264 79.2164C104.759 79.6133 104.278 80.0447 103.798 80.4754C103.026 81.1671 102.229 81.8815 101.329 82.4554C101.057 82.6294 100.71 82.8762 100.316 83.1554C98.6633 84.3279 96.3382 85.9441 94.8981 85.699L94.8448 85.7564L94.639 85.772C94.4547 85.772 94.2984 85.6592 94.1946 85.5559C93.1465 85.3071 92.4168 85.0303 91.8249 84.8065C90.6021 84.3435 89.8035 84.1209 87.8937 84.5418C80.1926 86.2457 71.5065 88.1667 65.0698 93.5887ZM79.0136 103.358C75.9471 103.358 73.4589 100.916 71.3668 98.6262C69.2881 96.3481 66.7796 94.0213 64.0615 94.3867L62.833 94.5522L63.7481 93.714C70.4051 87.6134 80.0102 85.4879 87.7259 83.7826C89.8637 83.31 90.8215 83.5937 92.1005 84.078C92.6885 84.3017 93.3523 84.5527 94.3217 84.786L94.3227 84.683L94.8554 84.8802C94.9612 84.925 95.0893 84.9494 95.2358 84.9494C96.4459 84.9494 98.5042 83.487 99.8676 82.5204C100.273 82.2317 100.631 81.978 100.913 81.7991C101.758 81.2593 102.532 80.5662 103.281 79.8951C103.773 79.4525 104.266 79.0112 104.786 78.6037C107.052 76.8304 109.68 75.8549 112.189 75.8549L112.452 75.858C115.413 75.9366 118.134 77.4168 119.552 79.7192C121.148 82.3096 120.929 86.0044 119.044 88.3119C117.98 89.6602 116.615 90.4373 115.306 90.4373C114.434 90.4373 113.173 90.0928 112.11 88.4486L111.767 87.9188L112.394 87.8507C112.807 87.8052 113.17 87.5871 113.387 87.251C113.611 86.9076 113.658 86.4769 113.521 86.0383C113.198 85.0086 111.581 84.6284 110.691 84.9542C109.446 85.4123 108.761 86.7044 108.462 87.4337C108.206 88.0569 108.02 88.7278 107.838 89.3765C107.686 89.9238 107.534 90.4692 107.341 91.0032C105.981 94.7262 102.578 97.5266 98.6711 98.1381C97.4028 98.3356 95.7463 98.3003 94.1325 98.2186C93.3969 98.1818 92.6614 98.1439 91.9336 98.1439C90.3605 98.1439 89.1883 98.327 88.1344 98.7333C86.9204 99.2021 85.8015 100.022 84.7195 100.814C83.1096 101.993 81.4444 103.213 79.3949 103.347C79.2678 103.355 79.1397 103.358 79.0136 103.358Z" fill="#383838"/>
<path d="M46.5671 53.8224C46.6865 53.8224 46.8049 53.8243 46.9233 53.8281C52.6448 54.0275 58.3527 57.1621 62.3595 62.2623C62.9525 58.4167 64.3954 55.3296 66.6555 53.0757C67.6502 52.084 68.8147 51.2476 69.9403 50.4386C70.3528 50.1412 70.7632 49.8453 71.166 49.543C71.1339 49.2786 71.1 49.0162 71.0631 48.7526C70.0384 41.6751 67.1029 35.484 62.7952 31.3205C57.2319 25.9426 49.3881 23.645 42.4682 21.6164C40.7457 21.1128 38.9106 20.6471 37.1668 20.6471C35.6278 20.6471 34.3924 21.0129 33.389 21.7645C32.897 22.1337 32.4759 22.593 32.0295 23.0772C31.4317 23.7275 30.8136 24.3986 30.0062 24.8449C28.9281 25.4408 27.2376 25.2259 26.4671 24.4093C26.1217 24.0435 25.9557 23.5884 25.9829 23.0935L25.9945 22.8934L27.0368 22.231C26.8077 22.1406 26.5593 22.095 26.2915 22.095C24.9989 22.095 23.6801 23.1501 23.4094 24.3986C22.9921 26.3365 24.3041 28.2507 25.7917 29.2903C27.193 30.2733 28.9028 30.7944 30.5555 31.3003L31.4181 31.5654C33.3521 32.1743 35.5191 33.0231 36.9368 34.7043C38.3818 36.4145 38.8194 38.6453 39.2435 40.8018C39.358 41.3852 39.4725 41.9675 39.6064 42.5372C39.8917 43.7519 41.0649 47.7453 44.177 48.1487L44.4808 48.1885L44.5138 48.4939C44.7331 50.5408 45.1542 52.3423 45.7656 53.8494C46.0334 53.8319 46.3003 53.8224 46.5671 53.8224ZM62.8913 64.2876L62.3052 63.4797C58.4207 58.125 52.6603 54.8073 46.8961 54.6071C46.4517 54.5904 46.0014 54.609 45.5502 54.647L45.2765 54.6701L45.1173 54.3154C44.4701 52.7752 44.0189 50.9461 43.7743 48.8711C40.3963 48.2053 39.1552 44.0144 38.8505 42.7154C38.7137 42.1369 38.5982 41.5448 38.4817 40.9526C38.0771 38.8933 37.6588 36.7628 36.3439 35.2078C35.0562 33.6814 33.1047 32.9123 31.1852 32.3083L30.3293 32.0448C28.6185 31.5217 26.8485 30.982 25.3473 29.928C23.65 28.743 22.1566 26.5222 22.6505 24.233C22.9989 22.6249 24.6311 21.316 26.2915 21.316C26.9416 21.316 27.5394 21.5242 28.0227 21.9191L28.44 22.2595L26.765 23.326C26.7912 23.5304 26.8805 23.7138 27.0309 23.8745C27.5598 24.4343 28.864 24.587 29.6316 24.1631C30.3274 23.7791 30.8776 23.1813 31.4579 22.5501C31.9082 22.06 32.374 21.5553 32.9232 21.142C34.0664 20.2855 35.455 19.8693 37.1668 19.8693C39.0086 19.8693 40.9077 20.3498 42.6865 20.8689C49.6919 22.9227 57.6336 25.2494 63.3348 30.7606C67.7647 35.0427 70.7826 41.3929 71.8317 48.6416C71.8811 48.9858 71.9239 49.3292 71.9646 49.6725L71.9898 49.8939L71.8132 50.0284C71.3494 50.3824 70.8719 50.7254 70.3935 51.0706C69.2931 51.861 68.1548 52.6799 67.2028 53.6287C64.8894 55.9353 63.4765 59.1877 63.0048 63.2947L62.8913 64.2876Z" fill="#383838"/>
<path d="M36.5604 83.5756C33.8394 83.5756 31.195 84.0431 28.7001 84.9669C25.6385 86.1037 22.1324 88.6724 22.3206 92.1739C22.3362 92.4588 22.3769 92.7437 22.4157 93.0274C22.4866 93.5421 22.5603 94.0731 22.505 94.6192C22.3614 95.971 21.4541 97.0649 20.7253 97.9426C20.0276 98.7828 19.2377 99.7369 19.1125 100.844C19.0242 101.627 19.4686 102.549 20.2236 103.254C20.1421 101.928 20.6583 100.573 21.6414 99.6647C22.8437 98.5496 24.7874 98.1876 26.3187 98.7976C27.4434 99.2477 28.3207 100.121 29.1698 100.966C30.1974 101.988 31.1669 102.953 32.4614 103.08C34.1227 103.241 35.3784 101.995 36.7205 100.667C37.6346 99.7631 38.5788 98.8284 39.7142 98.2784C40.5313 97.8815 41.4774 97.6802 42.5255 97.6802C43.6211 97.6802 44.8263 97.8872 46.3207 98.3335C46.672 98.4406 47.0223 98.5522 47.3746 98.6643C49.0446 99.196 50.7681 99.7426 52.4906 99.6347C53.1815 99.5888 53.8957 99.3905 54.576 99.057C53.7181 97.1591 53.5279 95.0355 54.0422 93.1121C50.4343 92.3927 47.7424 88.7191 45.7734 85.5142L45.7035 85.4823C45.5638 85.4181 45.4241 85.3558 45.2834 85.2966C42.575 84.1708 39.5589 83.5756 36.5604 83.5756ZM21.4492 105L20.5817 104.488C19.1125 103.619 18.1906 102.085 18.34 100.758C18.4914 99.4178 19.3987 98.3247 20.1285 97.445C20.7893 96.6474 21.6142 95.655 21.7316 94.5387C21.7782 94.0855 21.7132 93.6244 21.6462 93.1357C21.6035 92.8292 21.5618 92.5238 21.5453 92.2157C21.3337 88.2915 25.1212 85.4656 28.4293 84.2376C31.0116 83.282 33.7472 82.7966 36.5604 82.7966C39.6608 82.7966 42.7787 83.4131 45.5803 84.5772C45.7288 84.6391 45.8773 84.7064 46.0238 84.7724L46.311 84.9027L46.3741 85.0049C48.1839 87.9655 51.0039 91.9551 54.5896 92.414L55.0573 92.4732L54.9088 92.9218C54.2664 94.8759 54.4585 97.1105 55.4338 99.0521L55.6007 99.3829L55.2776 99.5656C54.4032 100.059 53.4571 100.352 52.541 100.411C50.6817 100.535 48.8758 99.9583 47.1388 99.4061C46.7904 99.2952 46.444 99.1843 46.0966 99.0794C43.3668 98.2636 41.5531 98.2492 40.0538 98.9784C39.033 99.4733 38.1354 100.361 37.2668 101.222C35.8627 102.61 34.4041 104.058 32.3857 103.854C30.8156 103.702 29.7006 102.592 28.6225 101.519C27.8277 100.729 27.0077 99.9109 26.0315 99.5208C24.7748 99.0183 23.1581 99.3195 22.1683 100.236C21.162 101.166 20.7428 102.729 21.1494 104.036L21.4492 105Z" fill="#383838"/>
<path d="M65.1344 96.1279C65.6653 94.2524 66.2174 92.3385 67.3033 90.7208C68.3882 89.1028 70.1175 87.7932 72.0661 87.7229C74.0127 87.6512 76.0379 89.1446 75.7526 91.1281C75.9652 89.9962 74.5406 89.0774 73.4489 89.4283C72.3582 89.7804 71.7109 90.9434 71.5149 92.0791C71.3198 93.2128 71.4683 94.3747 71.3955 95.5229C71.1898 98.7715 69.0694 101.837 66.0874 103.127C63.1044 104.416 59.4003 103.851 56.9675 101.693C54.5328 99.538 53.5245 95.8917 54.5415 92.8008C55.082 91.1504 56.1436 89.6794 56.4571 87.971C56.7695 86.2614 55.9039 84.104 54.1747 83.9563C56.525 83.1567 59.1257 84.9336 60.1281 87.2087C61.1315 89.4849 60.9578 92.0847 60.7608 94.5661C61.2402 90.9248 62.6978 87.4168 65.0151 84.6331C66.4862 88.502 66.5153 92.9018 65.1344 96.1279Z" fill="#383838"/>
<path d="M55.6214 84.1602C55.7864 84.3004 55.9397 84.4626 56.0804 84.6475C56.7568 85.5333 57.0537 86.8653 56.8393 88.0408C56.6462 89.0948 56.1843 90.0577 55.7379 90.987C55.4361 91.6142 55.1256 92.2636 54.9092 92.9223C53.9446 95.8544 54.8975 99.3415 57.2236 101.403C58.6714 102.685 60.6714 103.421 62.7112 103.421C63.832 103.421 64.946 103.196 65.933 102.77C68.7704 101.542 70.8092 98.6188 71.0072 95.4978C71.0353 95.0572 71.0295 94.6147 71.0247 94.1734C71.0159 93.4676 71.0062 92.7372 71.1314 92.0118C71.3294 90.8625 72.0116 89.483 73.3294 89.058C73.7311 88.9296 74.194 88.9345 74.62 89.066C74.0019 88.4727 73.0916 88.11 72.2018 88.11L72.0805 88.113C70.4376 88.1704 68.7733 89.227 67.6254 90.9384C67.0897 91.7357 66.6462 92.6674 66.2289 93.8711C66.0669 94.6964 65.8146 95.5259 65.4905 96.2814L64.7597 96.0208C64.9713 95.2778 65.21 94.4358 65.4953 93.6143C65.998 91.0737 65.7777 88.1088 64.883 85.4204C62.9111 87.9971 61.5904 91.2358 61.145 94.6177L60.3725 94.5354C60.556 92.2299 60.7636 89.6163 59.7728 87.3662C58.9926 85.5963 57.2789 84.2878 55.6214 84.1602ZM62.7112 104.2C60.4851 104.2 58.2968 103.393 56.7093 101.985C54.1561 99.7244 53.1129 95.8973 54.1716 92.6792C54.4036 91.9731 54.7257 91.3 55.0382 90.6498C55.4807 89.7249 55.8999 88.8517 56.0756 87.901C56.2522 86.9313 56.0125 85.8394 55.4642 85.12C55.2168 84.7971 54.7869 84.3984 54.1406 84.344L52.2881 84.1864L54.0494 83.5875C54.4686 83.4446 54.9101 83.3729 55.3594 83.3729C57.3885 83.3729 59.5438 84.9198 60.4841 87.051C60.9849 88.1909 61.2022 89.4187 61.2721 90.6369C62.0484 88.323 63.2217 86.1778 64.7161 84.3831L65.1401 83.8726L65.3779 84.4937C66.193 86.6408 66.587 89.0006 66.5249 91.2496C66.6705 90.9882 66.8218 90.7409 66.981 90.504C68.2658 88.5862 70.162 87.4011 72.0514 87.334L72.2018 87.3313C73.375 87.3313 74.5346 87.8251 75.3042 88.6516C75.9213 89.3147 76.2164 90.1089 76.161 90.9521C76.1591 91.0338 76.1494 91.1165 76.1348 91.2002L75.3672 91.0737C75.375 91.0201 75.3808 90.9665 75.3847 90.9153C75.3896 90.6068 75.2207 90.3675 75.0781 90.2209C74.6977 89.829 74.0485 89.6452 73.5672 89.799C72.5793 90.1169 72.0562 91.2195 71.8971 92.1452C71.7845 92.7996 71.7923 93.4627 71.801 94.1638C71.8068 94.6257 71.8117 95.0883 71.7826 95.5472C71.5662 98.9534 69.3401 102.143 66.2406 103.483C65.1576 103.952 63.9368 104.2 62.7112 104.2Z" fill="#383838"/>
<path d="M89.0093 70.2153C88.2106 73.5562 86.6638 76.8261 84.4125 79.9376C84.1689 80.2752 83.9312 80.5919 83.6866 80.9072C83.4052 81.265 83.1684 81.5593 82.9268 81.8492L82.82 81.9726C82.5949 82.2411 82.3669 82.5085 82.133 82.7703L81.9535 82.9654C81.7419 83.1998 81.5294 83.433 81.312 83.6635L80.9132 84.0711C80.7628 84.2264 80.6124 84.381 80.46 84.5337C80.3494 84.6416 80.2388 84.7487 80.1281 84.8539L79.5779 85.3807C79.3819 85.5657 79.1839 85.7473 78.983 85.9272C81.8186 85.1077 84.7424 84.4426 87.7264 83.7832C89.8642 83.3107 90.822 83.5944 92.101 84.0787C92.6891 84.3024 93.3528 84.5534 94.3223 84.7867L94.3232 84.6845L94.856 84.8801C95.1025 84.988 95.4712 84.9675 95.938 84.8246C97.2781 83.6647 98.429 82.3702 99.3616 80.9752C99.7556 80.3849 100.12 79.7704 100.484 79.154C101.42 77.5759 102.386 75.9434 103.85 74.7629C105.117 73.7389 106.663 73.1331 108.158 72.5489C110.024 71.8178 111.789 71.1272 112.999 69.6968C114.143 68.3466 114.587 66.5486 114.895 64.807L115.028 64.0379C115.293 62.4696 115.566 60.8467 116.287 59.3833C117.26 57.4055 119.041 56.0929 120.827 56.0416C120.829 56.0416 120.83 56.0416 120.831 56.0416C122.014 56.0416 123.126 56.622 123.821 57.5556C124.247 58.1291 124.46 58.7592 124.449 59.3844C125.567 58.8265 126.09 57.5563 126.202 56.4499C126.318 55.3112 125.94 53.7566 125.303 52.752C124.437 51.3802 122.891 50.0819 121.17 49.2778C118.813 48.1763 115.88 47.5451 113.119 47.5451C112.413 47.5451 111.728 47.5873 111.084 47.6708C108.035 48.0685 105.115 49.732 102.157 52.758C98.332 56.6687 95.1704 61.2823 92.1136 65.7445C91.0879 67.2417 90.0622 68.7394 89.0093 70.2153ZM75.542 87.8135L77.0888 86.5339C77.4498 86.2345 77.8079 85.9292 78.1611 85.617C78.461 85.3545 78.757 85.0852 79.0481 84.8122L79.5934 84.2888C79.6992 84.1877 79.8069 84.0855 79.9117 83.9815C80.0612 83.8319 80.2087 83.6803 80.3562 83.5283L80.7492 83.1257C80.9608 82.9012 81.1694 82.6737 81.3771 82.4443L81.5546 82.2487C81.7836 81.9942 82.0059 81.7314 82.2271 81.4708L82.2999 81.3865C82.5658 81.0663 82.7987 80.7788 83.0248 80.4891C83.313 80.1213 83.5449 79.8103 83.772 79.4973C85.9913 76.4296 87.5003 73.2277 88.2699 69.9635L88.3319 69.8263C89.3975 68.3329 90.4358 66.8171 91.4741 65.3031C94.5494 60.8137 97.7294 56.1719 101.602 52.2134C104.686 49.0583 107.755 47.3199 110.984 46.8997C111.661 46.8112 112.38 46.7664 113.119 46.7664C115.99 46.7664 119.042 47.4247 121.498 48.5728C123.349 49.4366 125.017 50.8434 125.959 52.335C126.691 53.4893 127.109 55.2151 126.975 56.5278C126.776 58.5017 125.658 59.9648 124.057 60.3492L123.402 60.5056L123.596 59.8588C123.774 59.2591 123.633 58.6054 123.198 58.0201C122.655 57.2901 121.758 56.8195 120.912 56.8195C119.026 56.8727 117.628 58.4197 116.985 59.7277C116.315 61.0898 116.049 62.6543 115.793 64.1682L115.661 64.9442C115.349 66.7031 114.859 68.7051 113.591 70.2005C112.254 71.7817 110.316 72.5402 108.441 73.2743C107.001 73.8372 105.511 74.4206 104.337 75.3686C102.983 76.4607 102.093 77.9617 101.154 79.5505C100.781 80.1799 100.409 80.8069 100.008 81.4078C99.021 82.8827 97.8031 84.2481 96.3834 85.4662L96.2514 85.5414C95.7226 85.7154 95.283 85.7678 94.8996 85.6986L94.8453 85.7571L94.6396 85.7726C94.4552 85.7726 94.299 85.6599 94.1951 85.5566C93.1471 85.3078 92.4174 85.0309 91.8254 84.8072C90.6027 84.3442 89.8041 84.1216 87.8943 84.5424C84.3028 85.3359 80.8035 86.1373 77.4537 87.205L75.542 87.8135Z" fill="#383838"/>
<path d="M13.6188 34.9277C14.4495 35.2106 15.2054 35.9407 15.5325 36.842C15.942 37.9652 15.8216 39.1555 15.7062 40.3067L15.6615 40.7579C14.9706 48.1321 17.8653 55.8846 23.2142 60.9912C25.3132 62.9941 27.8518 64.6413 30.6223 65.8081C30.4893 65.6622 30.3564 65.5145 30.2225 65.3687C29.9857 65.1081 29.7489 64.8483 29.515 64.5859L29.3889 64.4438C29.2763 64.3165 29.1676 64.192 29.0609 64.0666L28.8435 63.8092C28.762 63.7138 28.6785 63.6124 28.598 63.5125C28.5048 63.3997 28.4156 63.282 28.3253 63.1634L28.0488 62.7988L28.0536 62.7646C27.9245 62.5906 27.8003 62.4137 27.681 62.2336C22.8134 54.8887 24.0604 48.6844 31.4956 43.2674C31.4966 43.2662 31.4995 43.2662 31.4985 43.2644L31.9556 43.8937C31.4927 44.2318 31.0677 45.0469 30.9076 45.353C30.1827 46.7397 29.4335 48.3441 29.7324 49.8606C30.0002 51.2219 31.3355 52.247 32.4088 52.8673C33.2889 53.3747 34.3127 53.7648 35.4539 54.0243C37.8091 54.5609 40.6786 54.5678 44.1517 54.0349C44.4234 53.9931 44.6941 53.9563 44.9639 53.9251C44.4224 52.4947 44.0362 50.8323 43.8159 48.9692C40.4379 48.3011 39.1977 44.1102 38.893 42.8112C38.7552 42.2297 38.6388 41.6357 38.5214 41.0409C38.4224 40.5361 38.3234 40.0306 38.2099 39.5315C36.1206 38.1277 34.1235 37.5151 32.1769 37.7524C30.7911 37.9214 29.3918 38.5458 28.0381 39.1505C26.4621 39.8543 24.8328 40.5817 23.22 40.5817C22.5262 40.5817 21.8876 40.4526 21.2685 40.1878C19.9876 39.6355 19.0929 38.5729 18.2292 37.5462C17.8401 37.0832 17.4374 36.605 17.0114 36.1899C16.0662 35.27 14.6339 34.739 13.6188 34.9277ZM32.8823 67.4463L31.8197 67.104C28.3806 65.8974 25.22 63.9789 22.6795 61.5549C17.1608 56.2868 14.1758 48.2905 14.8881 40.685L14.9328 40.2289C15.0405 39.1649 15.1521 38.0654 14.8027 37.1098C14.4213 36.0554 13.2355 35.3136 12.3815 35.682L10.9512 36.3027L11.9255 35.0823C12.432 34.4453 13.1744 34.11 14.07 34.11C15.2365 34.11 16.6028 34.7071 17.5519 35.6316C18.007 36.0733 18.4213 36.567 18.8231 37.0433C19.6664 38.0461 20.4631 38.9929 21.5752 39.4715C22.0953 39.6952 22.6339 39.8031 23.22 39.8031C24.6679 39.8031 26.1516 39.1399 27.7217 38.4399C29.1278 37.8116 30.5815 37.163 32.0827 36.9791C34.2681 36.7167 36.4826 37.4003 38.7737 38.9746L38.8989 39.059L38.9338 39.2079C39.0619 39.7632 39.1735 40.3273 39.2841 40.8902C39.3986 41.4762 39.5131 42.0596 39.649 42.6324C39.9343 43.847 41.1065 47.8424 44.2196 48.2476L44.5224 48.2867L44.5554 48.591C44.7844 50.7164 45.2288 52.5718 45.8741 54.1078L46.0818 54.6001L45.55 54.6468C45.124 54.6844 44.698 54.739 44.2681 54.804C40.696 55.3525 37.7373 55.3429 35.2812 54.7839C34.0643 54.5066 32.9677 54.0884 32.0216 53.5411C30.2574 52.5232 29.2317 51.3348 28.9706 50.0107C28.664 48.4527 29.2598 46.9049 29.9449 45.5281C22.2215 52.5893 26.762 59.4381 28.3282 61.8029C28.468 62.0141 28.6164 62.2222 28.7698 62.4254L28.8717 62.5603L28.8668 62.5938L28.8833 62.6149C29.0269 62.8007 29.1123 62.9136 29.2016 63.0226C29.2792 63.1198 29.3578 63.2139 29.4374 63.3073L29.6509 63.5619C29.7557 63.6834 29.8605 63.8042 29.9663 63.9227L30.0895 64.0629C30.3253 64.3283 30.5611 64.5859 30.796 64.8433C31.2899 65.3861 31.7819 65.9258 32.2409 66.48L32.8823 67.4463Z" fill="#383838"/>
</svg>
