<svg width="106" height="363" viewBox="0 0 106 363" fill="none" xmlns="http://www.w3.org/2000/svg">
<path d="M66.283 339.063C60.9164 336.69 69.3838 323.56 70.8083 320.372C71.4626 318.92 71.8694 317.418 72.1652 315.899C72.3994 316.282 72.6984 316.646 72.9818 317.012C71.7951 325.67 68.7308 340.144 66.283 339.063ZM60.5467 314.57C61.6603 309.664 64.038 304.81 66.3847 300.382C67.3917 298.475 69.1414 297.684 70.5342 296.188C70.6436 296.071 70.7174 295.95 70.819 295.835C70.8117 295.839 70.8159 295.843 70.8167 295.851C68.7784 301.084 67.8473 306.709 65.4322 311.774C64.0382 314.684 58.7778 322.345 60.5467 314.57ZM61.2493 294.274C57.9737 298.063 55.5273 309.876 49.9036 310.251C45.5192 310.547 44.7146 307.816 47.7973 305.402C49.7276 303.887 51.9121 302.564 53.4637 300.629C56.2366 297.165 57.7581 292.503 62.367 290.989C64.671 290.228 67.2301 290.016 69.7354 289.851C69.7435 289.894 69.7487 289.944 69.7603 289.982C66.4458 289.994 63.6047 291.551 61.2493 294.274ZM51.685 277.687C50.3219 275.966 48.5363 274.784 46.6608 273.716C50.8224 272.033 56.2868 275.447 60.0324 277.797C63.0091 279.659 65.0387 282.324 66.8794 285.169C64.3439 283.262 61.4926 283.715 58.0245 284.024C54.84 284.315 53.2153 279.629 51.685 277.687ZM56.4483 268.439C56.4527 268.56 56.4532 268.681 56.4611 268.797C56.4487 268.791 56.4359 268.78 56.42 268.778C56.358 268.745 56.2961 268.712 56.2391 268.691C56.3087 268.606 56.3822 268.52 56.4483 268.439ZM61.6765 245.884C61.7517 246.278 61.8234 246.677 61.8943 247.069C60.3944 251.634 59.4486 256.382 57.3821 260.72C55.9881 263.631 50.7278 271.292 52.4965 263.516C53.6097 258.607 55.988 253.757 58.3303 249.324C59.154 247.768 60.4663 246.944 61.6765 245.884ZM53.1954 243.221C49.9236 247.009 47.4772 258.822 41.8535 259.197C37.4691 259.493 36.6606 256.763 39.7471 254.349C41.6775 252.833 43.8581 251.51 45.4097 249.576C48.1861 246.107 49.7079 241.449 54.3168 239.935C56.2274 239.304 58.3096 239.054 60.4007 238.893C60.405 238.935 60.4097 238.982 60.4214 239.02C57.6601 239.397 55.2389 240.853 53.1954 243.221ZM43.6349 226.633C42.2714 224.908 40.4863 223.73 38.6103 222.658C39.3431 222.365 40.1081 222.198 40.909 222.191C41.8653 223.024 42.9368 223.063 43.9852 222.645C46.8414 223.511 49.7269 225.324 51.9823 226.744C54.9589 228.606 56.9848 231.271 58.8255 234.115C56.2939 232.208 53.4386 232.662 49.9704 232.97C46.7894 233.258 45.1651 228.575 43.6349 226.633ZM43.5913 214.787C44.7045 209.878 47.0822 205.024 49.425 200.595C50.2753 198.994 51.6375 198.16 52.8821 197.054C52.9422 197.415 53.0096 197.771 53.0692 198.128C51.5249 202.757 50.5758 207.587 48.4726 211.988C47.9117 213.165 46.7204 215.106 45.6148 216.504C44.884 216.238 44.1378 216.013 43.384 215.827C43.4416 215.509 43.4981 215.179 43.5913 214.787ZM44.2901 194.491C41.0179 198.276 38.5715 210.089 32.9444 210.469C28.5596 210.761 27.7553 208.034 30.8419 205.62C32.7683 204.104 34.9528 202.781 36.5045 200.847C39.2808 197.378 40.8027 192.72 45.4077 191.207C47.3786 190.554 49.5281 190.312 51.6738 190.149C51.6812 190.184 51.6847 190.219 51.696 190.253C48.8557 190.584 46.3795 192.077 44.2901 194.491ZM34.7296 177.904C33.3661 176.179 31.581 175.001 29.705 173.929C33.8631 172.25 39.3314 175.664 43.0728 178.011C46.0498 179.877 48.0794 182.542 49.9197 185.382C47.3847 183.48 44.5334 183.933 41.0652 184.241C37.8842 184.529 36.2599 179.846 34.7296 177.904ZM39.464 167.601C39.4991 168.101 39.5536 168.599 39.6382 169.087C39.5766 169.058 39.5184 169.025 39.4646 168.995C39.1667 168.834 38.8631 168.693 38.5552 168.548C38.8803 168.246 39.1799 167.922 39.464 167.601ZM44.3468 145.225C44.4717 146.032 44.5889 146.841 44.7138 147.648C43.5181 151.629 42.5575 155.691 40.7712 159.438C39.3776 162.352 34.1169 170.01 35.8857 162.234C36.9993 157.328 39.3767 152.47 41.7199 148.046C42.379 146.795 43.3608 146.028 44.3468 145.225ZM36.5846 141.938C33.3128 145.727 30.8659 157.536 25.2391 157.919C20.8582 158.211 20.0501 155.484 23.1363 153.066C25.067 151.554 27.2476 150.232 28.7993 148.297C31.5756 144.829 33.0975 140.171 37.7021 138.653C39.439 138.083 41.3202 137.818 43.2116 137.653C43.2191 137.727 43.2299 137.796 43.2408 137.865C40.7267 138.366 38.4854 139.746 36.5846 141.938ZM27.0244 125.354C25.6648 123.629 23.875 122.444 21.9999 121.38C26.1615 119.696 31.6258 123.111 35.3714 125.461C38.3481 127.323 40.3782 129.992 42.2146 132.833C39.6792 130.926 36.8277 131.379 33.36 131.692C30.179 131.979 28.5585 127.296 27.0244 125.354ZM32.2267 114.383C32.2259 115.222 32.2799 116.025 32.4008 116.794C32.1901 116.683 31.9663 116.557 31.7587 116.438C31.4202 116.261 31.0712 116.097 30.7145 115.934C31.272 115.456 31.7777 114.928 32.2267 114.383ZM34.2696 95.0797C34.9821 93.738 36.0591 92.9453 37.1244 92.0757C37.2054 92.7979 37.3061 93.5219 37.391 94.2437C36.5985 96.8395 35.9152 99.471 35.0642 102.03C34.7782 102.719 34.4985 103.431 34.2359 104.156C33.9314 104.933 33.6788 105.721 33.321 106.472C31.9273 109.386 26.6667 117.044 28.4358 109.271C29.549 104.362 31.9265 99.5043 34.2696 95.0797ZM29.1382 88.9717C25.8625 92.7605 23.4161 104.574 17.789 104.953C13.408 105.245 12.6037 102.518 15.686 100.1C17.6128 98.5886 19.8012 97.2653 21.3486 95.3273C24.1253 91.8625 25.6433 87.2051 30.2557 85.6868C32.1551 85.0607 34.2333 84.8109 36.3125 84.647C36.3133 84.6938 36.3176 84.7363 36.3227 84.7866C33.5773 85.1665 31.1716 86.6212 29.1382 88.9717ZM19.5742 72.3884C18.2107 70.6636 16.4252 69.4814 14.5457 68.4143C18.7112 66.7303 24.1759 70.1485 27.9212 72.4951C30.8982 74.3611 32.9241 77.0265 34.7643 79.867C32.2293 77.964 29.3779 78.4172 25.9136 78.7255C22.7287 79.0132 21.1045 74.3307 19.5742 72.3884ZM24.0716 62.2927C24.1642 62.7051 24.277 63.1234 24.425 63.5419C24.3874 63.5184 24.3456 63.4914 24.3088 63.4755C23.8297 63.2234 23.337 62.9921 22.83 62.774C23.2468 62.681 23.6643 62.5176 24.0716 62.2927ZM23.083 54.7414C24.1962 49.8321 26.5741 44.9781 28.9168 40.5496C29.7046 39.0636 30.9395 38.2471 32.106 37.2578C32.1439 37.8633 32.1897 38.468 32.2315 39.073C30.871 43.3942 29.9198 47.8574 27.9683 51.9416C26.5747 54.856 21.3178 62.5133 23.083 54.7414ZM23.7854 34.4416C20.5098 38.2304 18.0634 50.0437 12.4401 50.4225C8.05529 50.7147 7.24706 47.9883 10.3332 45.5702C12.264 44.0581 14.4481 42.7313 15.9958 40.7972C18.7768 37.3359 20.2944 32.6746 24.9029 31.1567C27.0066 30.463 29.3176 30.2326 31.6119 30.0703C31.6131 30.0819 31.6108 30.0977 31.6128 30.1171C28.5881 30.3261 25.9796 31.903 23.7854 34.4416ZM14.2211 17.8544C12.8618 16.133 11.0724 14.9513 9.19723 13.8876C13.3584 12.2002 18.8229 15.6146 22.5685 17.965C25.3623 19.7206 27.3243 22.1816 29.0784 24.8277C29.1061 24.946 29.1376 25.0639 29.1687 25.1779C26.6893 23.4764 23.916 23.8904 20.557 24.1958C17.376 24.4831 15.7552 19.7964 14.2211 17.8544ZM39.255 4.68448C37.3604 10.6416 32.6354 16.7178 32.4538 22.8333C32.0272 21.8649 31.5523 20.921 31.07 19.9817C30.8964 18.269 30.7114 16.5613 30.6763 14.8268C30.5325 8.24044 33.5161 5.19602 39.255 4.68448ZM54.2229 13.9823C57.2626 12.4555 61.6997 8.59184 63.301 13.472C64.5044 17.1269 63.1379 21.312 62.2099 25.1166C60.8528 24.8051 59.7496 23.7959 58.9255 21.9929C58.7374 21.0239 57.82 20.4216 56.8948 20.3592C53.2483 20.104 50.7204 21.4344 47.8018 23.4996C44.1058 26.1124 39.7779 25.7701 35.7735 27.4611C35.6871 27.4191 35.5907 27.3937 35.5009 27.3559C36.0459 18.5008 47.2334 17.5071 54.2229 13.9823ZM49.9281 34.5993C52.3501 36.1193 53.638 38.9884 55.946 40.6566C58.0884 42.197 60.1073 42.75 62.4696 42.7566C61.2765 46.0296 52.7784 42.6963 50.257 41.8153C45.1771 40.0337 42.9473 35.8188 39.5542 32.4718C42.9682 33.0553 46.6125 32.5178 49.9281 34.5993ZM62.2032 54.9387C57.2493 58.1789 50.4784 55.5299 45.6728 52.7518C42.6995 51.0378 40.7002 48.2095 39.2605 45.0004C38.9218 42.5467 38.5563 40.0995 38.2068 37.6548C38.7205 38.3253 39.2346 38.9996 39.7619 39.6492C41.3409 42.4967 43.2221 45.2783 45.9199 47.0124C51.0191 50.2959 57.5864 51.1298 62.2032 54.9387ZM43.4984 71.4899C43.2645 71.6504 43.0638 71.8309 42.8422 71.9978C42.8 71.6975 42.769 71.392 42.7303 71.0874C42.9252 70.927 43.1391 70.7999 43.3053 70.5877C44.8975 68.5905 45.6228 65.8337 46.9601 63.6358C48.0672 61.8284 50.9496 60.5636 50.9298 63.2216C50.9087 65.5204 47.9221 67.9949 46.469 69.4741C46.2455 69.6998 46.0171 69.9144 45.7936 70.1401C45.0251 70.5813 44.2306 70.9978 43.4984 71.4899ZM59.576 68.5163C62.6149 66.9817 67.0525 63.1219 68.6538 68.0021C69.8572 71.657 68.4872 75.8463 67.5623 79.6429C66.2056 79.3352 65.1024 78.326 64.274 76.5196C64.0901 75.5539 63.1732 74.9556 62.2476 74.8893C58.5976 74.6383 56.0736 75.9683 53.1542 78.0258C50.3237 80.0353 47.1121 80.2906 43.9646 81.0628C43.7609 79.4391 43.5606 77.8111 43.3569 76.1874C47.1821 72.3038 54.4865 71.0751 59.576 68.5163ZM55.2809 89.1294C57.7028 90.6494 58.9864 93.515 61.299 95.1905C63.4415 96.731 65.4596 97.2762 67.8189 97.2909C66.625 100.556 58.1273 97.2268 55.6098 96.3454C50.5299 94.5638 48.2997 90.3451 44.907 87.0019C48.3205 87.5815 51.9653 87.0479 55.2809 89.1294ZM67.556 109.469C62.6017 112.705 55.8277 110.064 51.026 107.286C49.2693 106.273 47.8566 104.873 46.6833 103.25C46.3579 100.58 46.0278 97.9028 45.7062 95.2325C47.1605 97.6981 48.9092 100.021 51.2731 101.546C56.3676 104.822 62.9392 105.66 67.556 109.469ZM67.0259 121.478C70.0652 119.948 74.5027 116.088 76.104 120.968C77.3075 124.623 75.9375 128.812 75.0125 132.609C73.6558 132.301 72.5525 131.292 71.7242 129.486C71.536 128.516 70.6233 127.922 69.6978 127.855C66.0512 127.6 63.5238 128.934 60.6044 130.992C57.5218 133.175 54.0036 133.337 50.5935 134.296C50.4071 132.881 50.2133 131.471 50.0264 130.053C53.5472 125.442 61.565 124.231 67.0259 121.478ZM62.7311 142.095C65.153 143.615 66.4367 146.481 68.7493 148.157C70.8918 149.697 72.9099 150.242 75.273 150.257C74.0753 153.522 65.5814 150.192 63.0601 149.311C57.9802 147.53 55.7498 143.311 52.3572 139.968C55.7707 140.547 59.4155 140.014 62.7311 142.095ZM75.0063 162.435C70.052 165.671 63.2818 163.03 58.4763 160.252C56.3493 159.018 54.746 157.204 53.4552 155.117C53.0565 152.341 52.6612 149.561 52.2814 146.78C52.3756 146.899 52.4672 147.03 52.5649 147.145C54.1439 149.993 56.0247 152.771 58.7232 154.512C63.8217 157.788 70.3895 158.626 75.0063 162.435ZM56.6131 175.658C56.0568 172.254 55.5241 168.851 55.0027 165.443C55.9345 167.114 56.7991 168.815 57.2958 170.667C57.7621 172.413 57.4526 174.104 56.6131 175.658ZM74.7315 174.032C77.7704 172.497 82.204 168.638 83.8092 173.518C85.0126 177.173 83.6427 181.362 82.7178 185.158C81.3611 184.851 80.2577 183.842 79.4298 182.039C79.242 181.074 78.3285 180.471 77.3995 180.409C73.7529 180.154 71.229 181.484 68.3095 183.541C65.2854 185.684 61.8523 185.876 58.5072 186.781C58.2577 185.361 58.0244 183.948 57.7834 182.535C61.3259 177.984 69.2923 176.767 74.7315 174.032ZM70.4363 194.645C72.8582 196.165 74.1423 199.034 76.4545 200.706C78.597 202.246 80.6154 202.796 82.9743 202.807C81.7808 206.076 73.283 202.746 70.7652 201.861C65.6853 200.079 63.4516 195.865 60.0624 192.517C63.4767 193.105 67.1172 192.568 70.4363 194.645ZM82.7119 214.988C77.7572 218.221 70.987 215.579 66.1776 212.802C64.6781 211.934 63.4484 210.758 62.3827 209.425C61.8882 206.554 61.4135 203.684 60.9082 200.821C62.3593 203.256 64.0855 205.55 66.4284 207.062C71.5234 210.342 78.0947 211.175 82.7119 214.988ZM92.7145 222.247C93.9183 225.905 92.5479 230.091 91.623 233.887C90.2667 233.584 89.1634 232.575 88.3351 230.768C88.1512 229.802 87.2339 229.2 86.3048 229.138C82.6583 228.883 80.1343 230.213 77.2149 232.27C74.012 234.54 70.3427 234.639 66.8143 235.704C66.6111 234.431 66.4353 233.16 66.232 231.888C67.6038 229.761 69.8771 228.312 72.476 227.142C72.8104 227.124 73.1284 226.982 73.3944 226.752C76.8012 225.336 80.6083 224.283 83.6367 222.761C86.6756 221.226 91.1132 217.367 92.7145 222.247ZM79.342 243.378C81.764 244.898 83.0476 247.763 85.3598 249.435C87.5022 250.976 89.5208 251.525 91.8796 251.536C90.6865 254.809 82.1923 251.475 79.6709 250.594C74.5906 248.808 72.3607 244.593 68.9676 241.246C72.382 241.834 76.0264 241.296 79.342 243.378ZM91.6171 263.717C86.6628 266.954 79.8923 264.308 75.0829 261.531C72.8606 260.244 71.2034 258.323 69.888 256.109C69.4718 253.315 69.0511 250.514 68.6241 247.73C68.8074 247.957 68.9924 248.2 69.1754 248.424C70.7548 251.275 72.6351 254.049 75.3337 255.791C80.4329 259.074 86.9999 259.904 91.6171 263.717ZM73.4626 275.901C73.2079 275.895 72.9735 275.743 72.7476 275.52C72.1632 271.338 71.5254 267.168 70.9221 262.991C71.1852 263.234 71.4484 263.477 71.7305 263.714C74.4021 266.462 76.6377 270.31 75.2282 274.187C74.8772 275.16 74.0656 275.91 73.4626 275.901ZM91.6869 273.815C94.73 272.284 99.1636 268.424 100.765 273.304C101.968 276.959 100.602 281.144 99.6774 284.945C98.3207 284.637 97.2135 283.628 96.3852 281.822C96.2013 280.856 95.2839 280.254 94.3588 280.192C90.7122 279.936 88.1844 281.267 85.2653 283.328C81.8761 285.726 77.9666 285.693 74.2477 286.961C74.1093 285.904 73.9741 284.84 73.8318 283.784C76.6853 277.992 85.7162 276.822 91.6869 273.815ZM87.3917 294.428C89.814 295.952 91.0981 298.821 93.4099 300.489C95.5524 302.029 97.5712 302.582 99.9335 302.589C98.7366 305.862 90.2427 302.532 87.7214 301.652C82.6411 299.866 80.4108 295.647 77.0182 292.304C80.436 292.887 84.0765 292.35 87.3917 294.428ZM99.6673 314.771C94.7171 318.01 87.9424 315.362 83.1369 312.584C80.0388 310.797 77.9881 307.81 76.547 304.433C76.2552 302.095 75.9284 299.758 75.625 297.421C76.1531 298.118 76.6846 298.81 77.2254 299.478C78.8048 302.329 80.6857 305.107 83.3838 306.845C88.4827 310.124 95.0505 310.962 99.6673 314.771ZM88.907 328.849C89.8573 329.506 97.5283 335.209 96.9627 335.839C93.8299 339.302 88.243 330.977 86.9613 329.057C86.4546 328.301 85.9863 327.461 85.4957 326.671C86.7171 327.419 87.8935 328.146 88.907 328.849ZM73.068 308.414C73.1113 308.687 73.1628 308.963 73.2139 309.235C73.1326 309.243 73.059 309.251 72.9859 309.262C73.0084 308.983 73.0339 308.695 73.068 308.414ZM53.6951 220.883C53.2316 218.934 53.2077 216.886 53.2927 214.909C53.4161 212.154 53.8998 209.289 54.5477 206.501C55.6101 212.506 56.6919 218.509 57.7775 224.512C56.6149 223.149 55.2412 221.941 53.6951 220.883ZM49.5261 216.826C49.5047 217.308 49.4929 217.809 49.4921 218.341C49.248 218.209 49.0032 218.07 48.7673 217.942C49.015 217.569 49.3021 217.2 49.5261 216.826ZM72.6057 222.868C71.6849 221.383 70.5947 220.041 69.3928 218.791C72.0429 219.862 74.869 220.509 77.6412 220.51C75.9421 221.26 74.2582 222.044 72.6057 222.868ZM65.4723 227.442C64.8552 223.669 64.1722 219.903 63.5311 216.124C65.9732 218.615 68.3849 221.229 70.127 224.22C69.2626 224.718 68.3787 225.179 67.5596 225.738C66.7911 226.258 66.111 226.838 65.4723 227.442ZM48.8488 175.746C48.9442 175.568 49.0389 175.383 49.1416 175.201C49.2079 175.585 49.2707 175.973 49.3366 176.353C49.1792 176.15 49.014 175.948 48.8488 175.746ZM48.1825 169.443C47.2317 169.938 46.5256 170.841 45.9021 171.826C42.5667 168.509 44.0163 162.058 46.2946 157.725C46.9169 161.627 47.5404 165.54 48.1825 169.443ZM41.0621 122.623C41.0851 122.812 41.1121 123 41.1356 123.193C41.0422 123.082 40.9638 122.965 40.8587 122.854C40.933 122.776 40.9999 122.703 41.0621 122.623ZM38.3715 102.179C39.0954 108.046 39.8615 113.905 40.6663 119.761C40.454 119.595 40.2161 119.447 39.9152 119.333C34.8357 117.516 36.2936 108.565 38.3715 102.179ZM41.29 60.0431C40.9875 57.7146 40.6888 55.3858 40.3746 53.0585C41.6684 54.4428 43.127 55.7167 44.8853 56.7844C44.7174 56.8639 44.5394 56.921 44.3738 57.0237C43.2155 57.7465 42.202 58.8179 41.29 60.0431ZM31.9067 68.4195C30.9649 67.4604 30.073 66.4533 29.2909 65.3335C28.1248 63.6667 25.7827 58.8461 29.0714 57.7315C30.5002 57.2468 32.5856 61.6951 33.0663 62.5798C33.4597 63.2977 33.8725 64.0136 34.2856 64.7334C34.4815 66.8578 34.6514 68.9966 34.8593 71.1238C34.3343 70.6888 33.8227 70.2329 33.3181 69.7685C32.8751 69.2939 32.4077 68.8491 31.9067 68.4195ZM49.4692 125.598C49.4547 125.494 49.4434 125.382 49.4285 125.274C49.5489 125.305 49.6689 125.332 49.7886 125.355C49.6838 125.44 49.567 125.522 49.4692 125.598ZM49.7149 110.938C51.3189 113.646 52.5114 116.576 53.1842 119.663C51.8389 120.741 50.2338 119.603 48.6422 119.022C48.2348 115.775 47.8199 112.532 47.4241 109.284C48.1259 109.88 48.9111 110.414 49.7149 110.938ZM32.8277 47.7695C33.0431 50.6263 33.2932 53.4796 33.5399 56.3371C32.5385 55.3294 31.4534 54.6153 30.2957 54.3421C31.3148 52.2077 32.116 50.0055 32.8277 47.7695ZM64.6278 274.222C64.5341 273.876 64.4315 273.52 64.1698 273.175C61.8664 270.163 61.8512 267.661 62.6008 263.87C62.9788 261.969 63.3887 260.111 63.9515 258.257C65.1628 264.845 66.3747 271.436 67.5791 278.032C67.4076 277.729 67.2745 277.419 67.0957 277.12C66.4409 276.062 65.5746 275.115 64.6278 274.222ZM83.4798 336.406C83.2507 334.918 82.9577 333.456 82.6842 331.991C85.7287 337.377 90.4531 343.905 96.6317 343.142C103.212 342.334 105.868 335.71 101.784 330.636C97.9154 325.838 92.4973 322.379 87.2293 318.934C93.0903 321.054 99.7636 321.159 104.316 316.424C105.143 315.563 105.185 314.356 104.411 313.435C102.165 310.788 99.6314 309.365 96.6542 308.308C101.737 308.499 105.66 306.078 104.366 299.683C104.18 298.776 103.181 297.866 102.204 297.953C95.3497 298.566 93.4684 292.929 88.187 290.047C86.9692 289.374 85.6492 289.043 84.2784 288.865C87.1315 287.349 89.481 284.877 92.6506 284.478C93.9238 288.204 97.2682 289.837 101.477 289.621C102.457 289.573 103.549 289.001 103.758 287.941C105.082 281.256 107.765 275.048 103.573 268.719C100.918 264.712 96.2114 266.493 92.79 268.266C88.1423 270.67 83.0392 272.555 78.4506 275.118C79.4013 272.424 78.9611 269.625 77.6096 267.247C83.8112 269.95 91.2995 270.534 96.2618 265.371C97.0894 264.51 97.1347 263.298 96.3609 262.377C94.1145 259.734 91.577 258.308 88.6002 257.254C93.6827 257.442 97.6057 255.025 96.316 248.629C96.1302 247.722 95.1308 246.812 94.1544 246.899C87.2954 247.509 85.4141 241.872 80.1365 238.989C78.9152 238.32 77.5953 237.989 76.2283 237.811C79.0776 236.296 81.4309 233.823 84.6005 233.424C85.8737 237.15 89.2181 238.783 93.4269 238.567C94.4069 238.515 95.495 237.948 95.7081 236.887C97.0284 230.203 99.7103 223.99 95.5227 217.665C93.6115 214.781 90.6378 214.915 87.8486 215.866C88.1341 215.134 88.0158 214.314 87.4557 213.648C85.2092 211.005 82.6717 209.579 79.6949 208.525C84.7774 208.713 88.7004 206.296 87.4069 199.9C87.2249 198.993 86.2255 198.083 85.249 198.17C78.3901 198.78 76.5087 193.143 71.2312 190.26C70.0095 189.587 68.69 189.26 67.3226 189.078C70.1718 187.563 72.5256 185.094 75.6914 184.695C76.968 188.417 80.3129 190.054 84.5216 189.838C85.5016 189.786 86.5897 189.219 86.8024 188.154C88.1232 181.474 90.8051 175.261 86.6174 168.936C83.9628 164.929 79.256 166.71 75.8303 168.48C70.9007 171.034 65.4621 173.003 60.6652 175.825C61.2043 173.931 61.292 171.942 60.7311 169.842C60.2489 168.017 59.3521 166.268 58.289 164.614C64.8794 168.375 73.9387 170.031 79.6513 164.092C80.4828 163.231 80.5238 162.016 79.7505 161.098C77.504 158.455 74.9665 157.029 71.9932 155.971C77.0761 156.163 80.9952 153.746 79.7055 147.35C79.5189 146.436 78.5204 145.533 77.5439 145.62C70.6884 146.226 68.8036 140.593 63.5257 137.707C62.3044 137.038 60.9848 136.711 59.6175 136.529C62.4706 135.013 64.8204 132.545 67.9896 132.141C69.2628 135.867 72.6076 137.505 76.816 137.285C77.7964 137.236 78.8845 136.669 79.0972 135.605C80.4172 128.917 83.0998 122.712 78.9118 116.383C76.2576 112.379 71.5508 114.161 68.1289 115.93C64.7698 117.661 61.1816 119.138 57.7031 120.771C58.0366 118.468 56.3635 115.658 55.0282 113.594C60.9126 115.751 67.628 115.887 72.201 111.127C73.0287 110.265 73.0736 109.05 72.3002 108.132C70.0538 105.489 67.5162 104.063 64.5433 103.009C69.622 103.197 73.5451 100.78 72.2553 94.3844C72.0649 93.4702 71.0701 92.5672 70.0936 92.6545C63.2343 93.2601 61.3533 87.6272 56.0754 84.7407C54.858 84.0713 53.538 83.7403 52.1672 83.5629C55.0165 82.0476 57.3664 79.5791 60.5356 79.1757C61.8126 82.9013 65.1575 84.5386 69.3658 84.3189C70.3462 84.2703 71.4382 83.7026 71.647 82.6385C72.9674 75.9545 75.6497 69.7457 71.4616 63.4171C68.8074 59.4131 64.1005 61.1949 60.6787 62.9636C58.3903 64.1486 55.9786 65.1977 53.5762 66.2615C54.5184 64.4865 54.8075 62.555 53.925 60.4846C53.8749 60.3764 53.8105 60.2814 53.7527 60.1739C58.4873 61.018 63.3113 60.275 66.8484 56.5964C67.6795 55.731 67.7209 54.5198 66.9479 53.6061C64.705 50.9588 62.1636 49.533 59.1907 48.4791C64.2732 48.6669 68.1923 46.2502 66.9026 39.8543C66.7164 38.9436 65.717 38.0333 64.7409 38.1244C57.8858 38.7335 56.0002 33.0932 50.7226 30.2107C49.5052 29.5412 48.1853 29.2102 46.8144 29.0328C49.6679 27.521 52.0175 25.0486 55.1867 24.6452C56.4599 28.3712 59.8047 30.0085 64.0131 29.7888C64.9931 29.7363 66.0855 29.1725 66.2947 28.1123C67.6146 21.4245 70.3004 15.2113 66.1093 8.89079C63.4585 4.8826 58.7478 6.66481 55.326 8.43348C49.7051 11.343 43.3748 13.4261 38.1461 16.9637C37.6739 17.2811 37.2404 17.6336 36.8151 17.9892C37.2981 16.7372 37.8767 15.4638 38.6294 14.1337C40.6087 10.6326 42.2952 7.29005 43.1851 3.34082C43.443 2.18197 42.7033 1.24923 41.5493 1.12796C30.4295 -0.0647182 27.4589 6.77104 27.6309 14.8309C25.1795 12.3649 21.8486 10.4801 18.956 8.94546C12.4229 5.47933 2.72494 4.69717 0.566254 13.5636C0.262434 14.8092 0.657136 16.5815 1.96734 17.1634C5.31586 18.644 9.08489 19.875 11.4292 22.7893C13.0032 24.7389 14.3552 26.5431 16.5665 27.7602C17.5446 28.3055 18.634 28.4841 19.7821 28.4692C18.7893 29.1284 17.8562 29.8362 17.0912 30.6598C13.8175 34.1594 12.201 38.0768 8.22844 41.0848C6.46314 42.416 2.2383 44.8637 2.49303 47.6462C2.99875 53.2897 10.4085 57.2646 15.6579 54.5099C20.1717 52.1345 21.4175 48.032 23.5707 43.7008C23.6807 43.4748 23.7897 43.2762 23.9043 43.0576C23.5021 43.9108 23.1084 44.7709 22.7216 45.6226C21.1016 49.1967 16.9816 57.1137 19.5925 61.1923C19.7512 61.4457 19.9305 61.5955 20.0988 61.7894C14.1988 60.0948 7.64759 61.0012 5.91554 68.098C5.61519 69.3392 6.00642 71.1158 7.32011 71.6935C10.6644 73.1706 14.4341 74.4093 16.7815 77.3156C18.3555 79.2652 19.7037 81.0697 21.9193 82.2903C22.8931 82.8321 23.9868 83.0141 25.1314 83.0036C24.1382 83.6589 23.2055 84.3706 22.4397 85.1864C19.1703 88.6895 17.5499 92.6073 13.5812 95.6149C11.8163 96.95 7.59106 99.3938 7.8458 102.176C8.34803 107.824 15.7616 111.799 21.0107 109.04C25.524 106.661 26.7668 102.566 28.9235 98.2308C29.0335 98.0049 29.1463 97.8059 29.2532 97.5881C28.851 98.4413 28.4611 99.301 28.0782 100.152C26.6461 103.305 23.2908 109.816 24.2934 114.113C19.4249 113.607 14.779 115.257 13.3654 121.06C13.0655 122.305 13.4606 124.081 14.7704 124.659C18.1146 126.137 21.8878 127.371 24.2279 130.282C25.8058 132.231 27.1539 134.036 29.3657 135.257C30.3433 135.798 31.437 135.98 32.5854 135.969C31.5922 136.624 30.6557 137.337 29.8938 138.152C26.6166 141.656 25.0041 145.573 21.0315 148.581C19.2666 149.916 15.0412 152.36 15.296 155.142C15.8021 160.79 23.2119 164.765 28.461 162.006C32.9743 159.627 34.2171 155.532 36.3738 151.197C36.4838 150.971 36.5922 150.768 36.7034 150.554C36.3012 151.407 35.9075 152.267 35.5246 153.119C34.1481 156.164 30.9894 162.339 31.6823 166.628C26.9266 166.231 22.4541 167.935 21.0709 173.614C20.7667 174.855 21.1619 176.631 22.4721 177.213C25.8206 178.694 29.5896 179.925 31.9331 182.832C33.5075 184.785 34.8591 186.585 37.0712 187.81C38.0488 188.352 39.1422 188.53 40.2906 188.519C39.2936 189.174 38.3609 189.886 37.5951 190.702C34.3222 194.209 32.7092 198.122 28.7327 201.131C26.9717 202.466 22.7464 204.909 23.0016 207.696C23.5073 213.339 30.917 217.314 36.1661 214.556C40.6798 212.18 41.9222 208.082 44.0789 203.746C44.1893 203.524 44.2978 203.322 44.4086 203.104C44.0064 203.957 43.6127 204.817 43.2298 205.668C42.2297 207.875 40.2899 211.727 39.5543 215.31C35.1985 215.232 31.257 217.08 29.9763 222.343C29.6759 223.584 30.0672 225.36 31.3812 225.942C34.7259 227.423 38.4948 228.654 40.8422 231.56C42.4166 233.514 43.7648 235.318 45.9804 236.539C46.9542 237.081 48.0475 237.259 49.196 237.248C48.1993 237.907 47.2661 238.615 46.5008 239.435C43.2275 242.938 41.6145 246.851 37.6423 249.863C35.877 251.195 31.6517 253.638 31.9068 256.425C32.4125 262.068 39.8224 266.043 45.0714 263.285C49.5856 260.913 50.8275 256.811 52.9842 252.475C53.0946 252.253 53.2036 252.055 53.3182 251.836C52.9156 252.685 52.5218 253.546 52.135 254.397C50.9145 257.091 48.2781 262.249 48.1688 266.376C43.5952 266.118 39.366 267.906 38.0302 273.396C37.7264 274.641 38.1212 276.414 39.4314 276.996C42.776 278.477 46.545 279.708 48.8928 282.618C50.4672 284.571 51.8149 286.372 54.0305 287.592C55.0081 288.134 56.0976 288.313 57.2464 288.305C56.2532 288.961 55.3163 289.669 54.5548 290.488C51.2815 293.992 49.6646 297.905 45.6924 300.917C43.9271 302.248 39.7022 304.696 39.957 307.479C40.4627 313.122 47.8724 317.097 53.1215 314.338C57.6356 311.967 58.8776 307.865 61.0347 303.533C61.1486 303.307 61.2575 303.108 61.3644 302.89C60.9618 303.74 60.572 304.599 60.1891 305.451C58.5656 309.029 54.4455 316.946 57.0565 321.025C59.3296 324.587 62.7752 321.742 64.6695 319.292C64.8527 319.055 64.991 318.798 65.1622 318.558C64.3807 320.723 63.4789 322.897 62.3218 325.29C59.277 331.626 56.3515 340.836 64.7226 344.381C71.0551 347.064 74.7279 337.473 76.422 327.649C77.8515 335.965 79.2586 344.29 80.6043 352.626C80.6276 352.779 80.7295 352.859 80.8252 352.954C81.1551 355.629 81.5718 358.274 82.2942 360.809C82.8903 362.909 85.7788 362.514 85.9805 360.416C86.7317 352.63 84.6698 344.094 83.4798 336.406Z" fill="#E4C26D"/>
</svg>
