<svg width="106" height="363" viewBox="0 0 106 363" fill="none" xmlns="http://www.w3.org/2000/svg">
<path d="M40.0256 339.063C45.3922 336.69 36.9248 323.56 35.5003 320.372C34.846 318.92 34.4392 317.418 34.1434 315.899C33.9092 316.282 33.6102 316.646 33.3268 317.012C34.5135 325.67 37.5778 340.144 40.0256 339.063ZM45.7619 314.57C44.6483 309.664 42.2706 304.81 39.9239 300.382C38.9169 298.475 37.1672 297.684 35.7744 296.188C35.665 296.071 35.5912 295.95 35.4896 295.835C35.4969 295.839 35.4927 295.843 35.4919 295.851C37.5302 301.084 38.4612 306.709 40.8763 311.774C42.2704 314.684 47.5308 322.345 45.7619 314.57ZM45.0593 294.274C48.3349 298.063 50.7813 309.876 56.405 310.251C60.7894 310.547 61.594 307.816 58.5113 305.402C56.581 303.887 54.3965 302.564 52.8448 300.629C50.072 297.165 48.5505 292.503 43.9416 290.989C41.6376 290.228 39.0785 290.016 36.5732 289.851C36.565 289.894 36.5599 289.944 36.5483 289.982C39.8628 289.994 42.7039 291.551 45.0593 294.274ZM54.6236 277.687C55.9867 275.966 57.7722 274.784 59.6478 273.716C55.4862 272.033 50.0218 275.447 46.2762 277.797C43.2995 279.659 41.2699 282.324 39.4292 285.169C41.9646 283.262 44.816 283.715 48.2841 284.024C51.4686 284.315 53.0933 279.629 54.6236 277.687ZM49.8603 268.439C49.8559 268.56 49.8554 268.681 49.8475 268.797C49.8599 268.791 49.8727 268.78 49.8886 268.778C49.9506 268.745 50.0125 268.712 50.0695 268.691C49.9999 268.606 49.9264 268.52 49.8603 268.439ZM44.6321 245.884C44.5569 246.278 44.4852 246.677 44.4143 247.069C45.9142 251.634 46.86 256.382 48.9265 260.72C50.3205 263.631 55.5808 271.292 53.8121 263.516C52.6989 258.607 50.3206 253.757 47.9782 249.324C47.1546 247.768 45.8423 246.944 44.6321 245.884ZM53.1132 243.221C56.385 247.009 58.8314 258.822 64.4551 259.197C68.8395 259.493 69.648 256.763 66.5615 254.349C64.6311 252.833 62.4505 251.51 60.8989 249.576C58.1225 246.107 56.6006 241.449 51.9918 239.935C50.0812 239.304 47.999 239.054 45.9079 238.893C45.9036 238.935 45.8988 238.982 45.8872 239.02C48.6485 239.397 51.0697 240.853 53.1132 243.221ZM62.6737 226.633C64.0372 224.908 65.8223 223.73 67.6983 222.658C66.9655 222.365 66.2005 222.198 65.3996 222.191C64.4433 223.024 63.3718 223.063 62.3234 222.645C59.4672 223.511 56.5816 225.324 54.3263 226.744C51.3497 228.606 49.3238 231.271 47.4831 234.115C50.0147 232.208 52.87 232.662 56.3382 232.97C59.5192 233.258 61.1435 228.575 62.6737 226.633ZM62.7173 214.787C61.6041 209.878 59.2263 205.024 56.8836 200.595C56.0333 198.994 54.6711 198.16 53.4265 197.054C53.3664 197.415 53.299 197.771 53.2393 198.128C54.7837 202.757 55.7328 207.587 57.836 211.988C58.3969 213.165 59.5882 215.106 60.6938 216.504C61.4246 216.238 62.1708 216.013 62.9246 215.827C62.867 215.509 62.8105 215.179 62.7173 214.787ZM62.0185 194.491C65.2907 198.276 67.7371 210.089 73.3642 210.469C77.749 210.761 78.5533 208.034 75.4667 205.62C73.5403 204.104 71.3558 202.781 69.8041 200.847C67.0278 197.378 65.5059 192.72 60.9009 191.207C58.93 190.554 56.7805 190.312 54.6348 190.149C54.6274 190.184 54.6239 190.219 54.6126 190.253C57.4529 190.584 59.9291 192.077 62.0185 194.491ZM71.579 177.904C72.9425 176.179 74.7276 175.001 76.6036 173.929C72.4455 172.25 66.9772 175.664 63.2358 178.011C60.2588 179.877 58.2292 182.542 56.3889 185.382C58.9239 183.48 61.7752 183.933 65.2434 184.241C68.4244 184.529 70.0487 179.846 71.579 177.904ZM66.8446 167.601C66.8095 168.101 66.755 168.599 66.6704 169.087C66.732 169.058 66.7902 169.025 66.844 168.995C67.1419 168.834 67.4455 168.693 67.7534 168.548C67.4283 168.246 67.1287 167.922 66.8446 167.601ZM61.9618 145.225C61.8369 146.032 61.7197 146.841 61.5948 147.648C62.7905 151.629 63.7511 155.691 65.5373 159.438C66.931 162.352 72.1916 170.01 70.4229 162.234C69.3093 157.328 66.9319 152.47 64.5887 148.046C63.9296 146.795 62.9478 146.028 61.9618 145.225ZM69.724 141.938C72.9958 145.727 75.4427 157.536 81.0695 157.919C85.4504 158.211 86.2585 155.484 83.1723 153.066C81.2416 151.554 79.061 150.232 77.5093 148.297C74.733 144.829 73.2111 140.171 68.6065 138.653C66.8696 138.083 64.9884 137.818 63.097 137.653C63.0895 137.727 63.0787 137.796 63.0677 137.865C65.5819 138.366 67.8232 139.746 69.724 141.938ZM79.2842 125.354C80.6438 123.629 82.4335 122.444 84.3087 121.38C80.1471 119.696 74.6828 123.111 70.9372 125.461C67.9605 127.323 65.9304 129.992 64.094 132.833C66.6294 130.926 69.4808 131.379 72.9486 131.692C76.1296 131.979 77.7501 127.296 79.2842 125.354ZM74.0818 114.383C74.0827 115.222 74.0287 116.025 73.9078 116.794C74.1185 116.683 74.3423 116.557 74.5499 116.438C74.8884 116.261 75.2374 116.097 75.5941 115.934C75.0366 115.456 74.5309 114.928 74.0818 114.383ZM72.039 95.0797C71.3265 93.738 70.2495 92.9453 69.1842 92.0757C69.1032 92.7979 69.0025 93.5219 68.9175 94.2437C69.7101 96.8395 70.3934 99.471 71.2444 102.03C71.5304 102.719 71.8101 103.431 72.0727 104.156C72.3772 104.933 72.6298 105.721 72.9876 106.472C74.3813 109.386 79.6419 117.044 77.8728 109.271C76.7596 104.362 74.3821 99.5043 72.039 95.0797ZM77.1704 88.9717C80.4461 92.7605 82.8925 104.574 88.5196 104.953C92.9005 105.245 93.7049 102.518 90.6226 100.1C88.6957 98.5886 86.5074 97.2653 84.96 95.3273C82.1833 91.8625 80.6653 87.2051 76.0529 85.6868C74.1535 85.0607 72.0753 84.8109 69.9961 84.647C69.9953 84.6938 69.991 84.7363 69.9859 84.7866C72.7313 85.1665 75.137 86.6212 77.1704 88.9717ZM86.7344 72.3884C88.0979 70.6636 89.8834 69.4814 91.7629 68.4143C87.5974 66.7303 82.1326 70.1485 78.3874 72.4951C75.4104 74.3611 73.3845 77.0265 71.5443 79.867C74.0793 77.964 76.9307 78.4172 80.395 78.7255C83.5799 79.0132 85.2041 74.3307 86.7344 72.3884ZM82.237 62.2927C82.1444 62.7051 82.0316 63.1234 81.8836 63.5419C81.9211 63.5184 81.963 63.4914 81.9998 63.4755C82.4789 63.2234 82.9716 62.9921 83.4786 62.774C83.0618 62.681 82.6443 62.5176 82.237 62.2927ZM83.2256 54.7414C82.1124 49.8321 79.7345 44.9781 77.3918 40.5496C76.604 39.0636 75.3691 38.2471 74.2026 37.2578C74.1646 37.8633 74.1189 38.468 74.0771 39.073C75.4376 43.3942 76.3888 47.8574 78.3403 51.9416C79.7339 54.856 84.9908 62.5133 83.2256 54.7414ZM82.5232 34.4416C85.7988 38.2304 88.2452 50.0437 93.8685 50.4225C98.2533 50.7147 99.0615 47.9883 95.9754 45.5702C94.0446 44.0581 91.8605 42.7313 90.3128 40.7972C87.5318 37.3359 86.0142 32.6746 81.4057 31.1567C79.302 30.463 76.991 30.2326 74.6967 30.0703C74.6955 30.0819 74.6978 30.0977 74.6958 30.1171C77.7205 30.3261 80.329 31.903 82.5232 34.4416ZM92.0875 17.8544C93.4468 16.133 95.2362 14.9513 97.1114 13.8876C92.9501 12.2002 87.4857 15.6146 83.7401 17.965C80.9463 19.7206 78.9843 22.1816 77.2302 24.8277C77.2025 24.946 77.171 25.0639 77.1399 25.1779C79.6193 23.4764 82.3925 23.8904 85.7516 24.1958C88.9326 24.4831 90.5534 19.7964 92.0875 17.8544ZM67.0536 4.68448C68.9482 10.6416 73.6732 16.7178 73.8547 22.8333C74.2814 21.8649 74.7563 20.921 75.2386 19.9817C75.4122 18.269 75.5972 16.5613 75.6323 14.8268C75.7761 8.24044 72.7925 5.19602 67.0536 4.68448ZM52.0857 13.9823C49.046 12.4555 44.6089 8.59184 43.0076 13.472C41.8042 17.1269 43.1707 21.312 44.0987 25.1166C45.4558 24.8051 46.559 23.7959 47.383 21.9929C47.5712 21.0239 48.4886 20.4216 49.4138 20.3592C53.0603 20.104 55.5882 21.4344 58.5068 23.4996C62.2028 26.1124 66.5307 25.7701 70.5351 27.4611C70.6215 27.4191 70.7179 27.3937 70.8077 27.3559C70.2627 18.5008 59.0752 17.5071 52.0857 13.9823ZM56.3804 34.5993C53.9585 36.1193 52.6706 38.9884 50.3626 40.6566C48.2202 42.197 46.2013 42.75 43.839 42.7566C45.0321 46.0296 53.5302 42.6963 56.0516 41.8153C61.1315 40.0337 63.3613 35.8188 66.7544 32.4718C63.3404 33.0553 59.696 32.5178 56.3804 34.5993ZM44.1054 54.9387C49.0593 58.1789 55.8302 55.5299 60.6358 52.7518C63.6091 51.0378 65.6084 48.2095 67.0481 45.0004C67.3868 42.5467 67.7523 40.0995 68.1018 37.6548C67.5881 38.3253 67.074 38.9996 66.5467 39.6492C64.9677 42.4967 63.0865 45.2783 60.3887 47.0124C55.2895 50.2959 48.7222 51.1298 44.1054 54.9387ZM62.8101 71.4899C63.0441 71.6504 63.2448 71.8309 63.4664 71.9978C63.5086 71.6975 63.5396 71.392 63.5783 71.0874C63.3834 70.927 63.1695 70.7999 63.0033 70.5877C61.4111 68.5905 60.6858 65.8337 59.3485 63.6358C58.2414 61.8284 55.359 60.5636 55.3788 63.2216C55.3999 65.5204 58.3865 67.9949 59.8396 69.4741C60.0631 69.6998 60.2915 69.9144 60.515 70.1401C61.2835 70.5813 62.078 70.9978 62.8101 71.4899ZM46.7326 68.5163C43.6937 66.9817 39.2561 63.1219 37.6548 68.0021C36.4514 71.657 37.8214 75.8463 38.7463 79.6429C40.103 79.3352 41.2062 78.326 42.0345 76.5196C42.2185 75.5539 43.1354 74.9556 44.061 74.8893C47.711 74.6383 50.235 75.9683 53.1544 78.0258C55.9849 80.0353 59.1965 80.2906 62.344 81.0628C62.5477 79.4391 62.748 77.8111 62.9517 76.1874C59.1265 72.3038 51.8221 71.0751 46.7326 68.5163ZM51.0277 89.1294C48.6058 90.6494 47.3222 93.515 45.0096 95.1905C42.8671 96.731 40.8489 97.2762 38.4897 97.2909C39.6836 100.556 48.1813 97.2268 50.6988 96.3454C55.7787 94.5638 58.0089 90.3451 61.4016 87.0019C57.9881 87.5815 54.3433 87.0479 51.0277 89.1294ZM38.7526 109.469C43.7069 112.705 50.4809 110.064 55.2826 107.286C57.0393 106.273 58.452 104.873 59.6253 103.25C59.9507 100.58 60.2808 97.9028 60.6023 95.2325C59.1481 97.6981 57.3994 100.021 55.0355 101.546C49.941 104.822 43.3694 105.66 38.7526 109.469ZM39.2827 121.478C36.2434 119.948 31.8059 116.088 30.2045 120.968C29.0011 124.623 30.3711 128.812 31.2961 132.609C32.6527 132.301 33.7561 131.292 34.5844 129.486C34.7726 128.516 35.6853 127.922 36.6108 127.855C40.2574 127.6 42.7848 128.934 45.7042 130.992C48.7868 133.175 52.305 133.337 55.7151 134.296C55.9015 132.881 56.0953 131.471 56.2822 130.053C52.7614 125.442 44.7436 124.231 39.2827 121.478ZM43.5775 142.095C41.1556 143.615 39.8719 146.481 37.5593 148.157C35.4168 149.697 33.3987 150.242 31.0356 150.257C32.2333 153.522 40.7272 150.192 43.2485 149.311C48.3284 147.53 50.5588 143.311 53.9514 139.968C50.5379 140.547 46.8931 140.014 43.5775 142.095ZM31.3023 162.435C36.2566 165.671 43.0268 163.03 47.8323 160.252C49.9593 159.018 51.5626 157.204 52.8534 155.117C53.2521 152.341 53.6474 149.561 54.0272 146.78C53.9329 146.899 53.8414 147.03 53.7437 147.145C52.1647 149.993 50.2839 152.771 47.5854 154.512C42.4869 157.788 35.9191 158.626 31.3023 162.435ZM49.6955 175.658C50.2518 172.254 50.7845 168.851 51.3059 165.443C50.374 167.114 49.5095 168.815 49.0128 170.667C48.5465 172.413 48.856 174.104 49.6955 175.658ZM31.5771 174.032C28.5382 172.497 24.1046 168.638 22.4994 173.518C21.296 177.173 22.6659 181.362 23.5908 185.158C24.9475 184.851 26.0508 183.842 26.8788 182.039C27.0666 181.074 27.98 180.471 28.9091 180.409C32.5557 180.154 35.0796 181.484 37.999 183.541C41.0232 185.684 44.4563 185.876 47.8014 186.781C48.0509 185.361 48.2842 183.948 48.5252 182.535C44.9827 177.984 37.0163 176.767 31.5771 174.032ZM35.8723 194.645C33.4504 196.165 32.1663 199.034 29.8541 200.706C27.7116 202.246 25.6932 202.796 23.3343 202.807C24.5278 206.076 33.0255 202.746 35.5434 201.861C40.6233 200.079 42.857 195.865 46.2462 192.517C42.8319 193.105 39.1914 192.568 35.8723 194.645ZM23.5967 214.988C28.5514 218.221 35.3216 215.579 40.131 212.802C41.6305 211.934 42.8602 210.758 43.9259 209.425C44.4204 206.554 44.8951 203.684 45.4004 200.821C43.9492 203.256 42.2231 205.55 39.8801 207.062C34.7852 210.342 28.2139 211.175 23.5967 214.988ZM13.5941 222.247C12.3903 225.905 13.7607 230.091 14.6856 233.887C16.0419 233.584 17.1452 232.575 17.9735 230.768C18.1574 229.802 19.0747 229.2 20.0038 229.138C23.6503 228.883 26.1743 230.213 29.0937 232.27C32.2966 234.54 35.9659 234.639 39.4943 235.704C39.6975 234.431 39.8733 233.16 40.0766 231.888C38.7048 229.761 36.4315 228.312 33.8326 227.142C33.4982 227.124 33.1802 226.982 32.9142 226.752C29.5074 225.336 25.7003 224.283 22.6719 222.761C19.633 221.226 15.1954 217.367 13.5941 222.247ZM26.9665 243.378C24.5446 244.898 23.261 247.763 20.9488 249.435C18.8064 250.976 16.7878 251.525 14.429 251.536C15.622 254.809 24.1163 251.475 26.6377 250.594C31.718 248.808 33.9479 244.593 37.341 241.246C33.9266 241.834 30.2821 241.296 26.9665 243.378ZM14.6915 263.717C19.6458 266.954 26.4163 264.308 31.2257 261.531C33.448 260.244 35.1052 258.323 36.4206 256.109C36.8368 253.315 37.2575 250.514 37.6845 247.73C37.5011 247.957 37.3162 248.2 37.1332 248.424C35.5538 251.275 33.6735 254.049 30.9749 255.791C25.8757 259.074 19.3087 259.904 14.6915 263.717ZM32.846 275.901C33.1007 275.895 33.3351 275.743 33.561 275.52C34.1454 271.338 34.7832 267.168 35.3865 262.991C35.1233 263.234 34.8602 263.477 34.5781 263.714C31.9065 266.462 29.6709 270.31 31.0804 274.187C31.4314 275.16 32.243 275.91 32.846 275.901ZM14.6217 273.815C11.5786 272.284 7.14496 268.424 5.54363 273.304C4.34023 276.959 5.70663 281.144 6.63117 284.945C7.98787 284.637 9.09506 283.628 9.92337 281.822C10.1073 280.856 11.0246 280.254 11.9498 280.192C15.5964 279.936 18.1242 281.267 21.0433 283.328C24.4325 285.726 28.342 285.693 32.0609 286.961C32.1993 285.904 32.3345 284.84 32.4768 283.784C29.6233 277.992 20.5924 276.822 14.6217 273.815ZM18.9169 294.428C16.4946 295.952 15.2105 298.821 12.8987 300.489C10.7562 302.029 8.73737 302.582 6.37506 302.589C7.57199 305.862 16.0659 302.532 18.5872 301.652C23.6675 299.866 25.8977 295.647 29.2904 292.304C25.8726 292.887 22.2321 292.35 18.9169 294.428ZM6.64133 314.771C11.5914 318.01 18.3662 315.362 23.1717 312.584C26.2698 310.797 28.3205 307.81 29.7616 304.433C30.0534 302.095 30.3802 299.758 30.6836 297.421C30.1555 298.118 29.624 298.81 29.0832 299.478C27.5038 302.329 25.6229 305.107 22.9247 306.845C17.8259 310.124 11.2581 310.962 6.64133 314.771ZM17.4016 328.849C16.4513 329.506 8.78034 335.209 9.34591 335.839C12.4787 339.302 18.0655 330.977 19.3473 329.057C19.854 328.301 20.3223 327.461 20.8129 326.671C19.5915 327.419 18.4151 328.146 17.4016 328.849ZM33.2406 308.414C33.1973 308.687 33.1458 308.963 33.0947 309.235C33.176 309.243 33.2496 309.251 33.3227 309.262C33.3002 308.983 33.2747 308.695 33.2406 308.414ZM52.6135 220.883C53.077 218.934 53.1009 216.886 53.0159 214.909C52.8925 212.154 52.4088 209.289 51.7609 206.501C50.6985 212.506 49.6167 218.509 48.5311 224.512C49.6937 223.149 51.0674 221.941 52.6135 220.883ZM56.7825 216.826C56.8039 217.308 56.8157 217.809 56.8165 218.341C57.0606 218.209 57.3054 218.07 57.5413 217.942C57.2936 217.569 57.0065 217.2 56.7825 216.826ZM33.7029 222.868C34.6237 221.383 35.7139 220.041 36.9158 218.791C34.2656 219.862 31.4396 220.509 28.6674 220.51C30.3665 221.26 32.0504 222.044 33.7029 222.868ZM40.8363 227.442C41.4534 223.669 42.1364 219.903 42.7775 216.124C40.3354 218.615 37.9237 221.229 36.1816 224.22C37.046 224.718 37.9299 225.179 38.749 225.738C39.5175 226.258 40.1976 226.838 40.8363 227.442ZM57.4598 175.746C57.3644 175.568 57.2697 175.383 57.167 175.201C57.1007 175.585 57.0379 175.973 56.972 176.353C57.1294 176.15 57.2946 175.948 57.4598 175.746ZM58.1261 169.443C59.0769 169.938 59.783 170.841 60.4065 171.826C63.7419 168.509 62.2923 162.058 60.014 157.725C59.3917 161.627 58.7682 165.54 58.1261 169.443ZM65.2465 122.623C65.2234 122.812 65.1965 123 65.173 123.193C65.2664 123.082 65.3448 122.965 65.4499 122.854C65.3756 122.776 65.3087 122.703 65.2465 122.623ZM67.9371 102.179C67.2132 108.046 66.4471 113.905 65.6423 119.761C65.8546 119.595 66.0925 119.447 66.3934 119.333C71.4729 117.516 70.0149 108.565 67.9371 102.179ZM65.0186 60.0431C65.3211 57.7146 65.6198 55.3858 65.934 53.0585C64.6402 54.4428 63.1816 55.7167 61.4233 56.7844C61.5912 56.8639 61.7692 56.921 61.9348 57.0237C63.0931 57.7465 64.1066 58.8179 65.0186 60.0431ZM74.4019 68.4195C75.3437 67.4604 76.2356 66.4533 77.0177 65.3335C78.1838 63.6667 80.5259 58.8461 77.2372 57.7315C75.8084 57.2468 73.723 61.6951 73.2423 62.5798C72.8489 63.2977 72.4361 64.0136 72.023 64.7334C71.8271 66.8578 71.6572 68.9966 71.4493 71.1238C71.9743 70.6888 72.4859 70.2329 72.9905 69.7685C73.4335 69.2939 73.9009 68.8491 74.4019 68.4195ZM56.8394 125.598C56.8538 125.494 56.8652 125.382 56.8801 125.274C56.7597 125.305 56.6397 125.332 56.52 125.355C56.6248 125.44 56.7416 125.522 56.8394 125.598ZM56.5937 110.938C54.9897 113.646 53.7972 116.576 53.1244 119.663C54.4697 120.741 56.0748 119.603 57.6664 119.022C58.0738 115.775 58.4886 112.532 58.8845 109.284C58.1827 109.88 57.3975 110.414 56.5937 110.938ZM73.4808 47.7695C73.2655 50.6263 73.0154 53.4796 72.7687 56.3371C73.7701 55.3294 74.8552 54.6153 76.0129 54.3421C74.9938 52.2077 74.1925 50.0055 73.4808 47.7695ZM41.6808 274.222C41.7745 273.876 41.8771 273.52 42.1388 273.175C44.4422 270.163 44.4574 267.661 43.7078 263.87C43.3297 261.969 42.9199 260.111 42.3571 258.257C41.1458 264.845 39.9339 271.436 38.7295 278.032C38.901 277.729 39.0341 277.419 39.2129 277.12C39.8677 276.062 40.734 275.115 41.6808 274.222ZM22.8288 336.406C23.0579 334.918 23.3508 333.456 23.6244 331.991C20.5799 337.377 15.8555 343.905 9.67687 343.142C3.09611 342.334 0.440278 335.71 4.52457 330.636C8.39322 325.838 13.8113 322.379 19.0793 318.934C13.2183 321.054 6.54502 321.159 1.99281 316.424C1.16518 315.563 1.12335 314.356 1.89713 313.435C4.14396 310.788 6.67723 309.365 9.65439 308.308C4.57148 308.499 0.648876 306.078 1.94246 299.683C2.12825 298.776 3.1277 297.866 4.10417 297.953C10.9588 298.566 12.8402 292.929 18.1216 290.047C19.3394 289.374 20.6594 289.043 22.0302 288.865C19.1771 287.349 16.8276 284.877 13.658 284.478C12.3848 288.204 9.04035 289.837 4.83159 289.621C3.85119 289.573 2.75958 289.001 2.55036 287.941C1.22615 281.256 -1.45614 275.048 2.73577 268.719C5.39037 264.712 10.0972 266.493 13.5186 268.266C18.1663 270.67 23.2694 272.555 27.858 275.118C26.9072 272.424 27.3475 269.625 28.699 267.247C22.4974 269.95 15.0091 270.534 10.0468 265.371C9.2192 264.51 9.17389 263.298 9.94766 262.377C12.1941 259.734 14.7316 258.308 17.7084 257.254C12.6259 257.442 8.70289 255.025 9.99261 248.629C10.1784 247.722 11.1777 246.812 12.1542 246.899C19.0132 247.509 20.8945 241.872 26.1721 238.989C27.3934 238.32 28.7133 237.989 30.0803 237.811C27.231 236.296 24.8777 233.823 21.7081 233.424C20.4349 237.15 17.0905 238.783 12.8817 238.567C11.9017 238.515 10.8136 237.948 10.6005 236.887C9.28017 230.203 6.59827 223.99 10.7859 217.665C12.6971 214.781 15.6707 214.915 18.46 215.866C18.1745 215.134 18.2927 214.314 18.8529 213.648C21.0994 211.005 23.6369 209.579 26.6137 208.525C21.5311 208.713 17.6081 206.296 18.9017 199.9C19.0837 198.993 20.0831 198.083 21.0596 198.17C27.9185 198.78 29.7999 193.143 35.0774 190.26C36.2991 189.587 37.6186 189.26 38.986 189.078C36.1368 187.563 33.783 185.094 30.6172 184.695C29.3406 188.417 25.9957 190.054 21.787 189.838C20.807 189.786 19.7189 189.219 19.5061 188.154C18.1854 181.474 15.5035 175.261 19.6912 168.936C22.3458 164.929 27.0526 166.71 30.4783 168.48C35.4079 171.034 40.8465 173.003 45.6434 175.825C45.1043 173.931 45.0166 171.942 45.5775 169.842C46.0597 168.017 46.9565 166.268 48.0196 164.614C41.4292 168.375 32.3699 170.031 26.6573 164.092C25.8258 163.231 25.7848 162.016 26.5581 161.098C28.8046 158.455 31.3421 157.029 34.3154 155.971C29.2325 156.163 25.3134 153.746 26.6031 147.35C26.7896 146.436 27.7882 145.533 28.7647 145.62C35.6201 146.226 37.505 140.593 42.7829 137.707C44.0042 137.038 45.3238 136.711 46.6911 136.529C43.838 135.013 41.4882 132.545 38.319 132.141C37.0458 135.867 33.701 137.505 29.4926 137.285C28.5122 137.236 27.4241 136.669 27.2114 135.605C25.8914 128.917 23.2087 122.712 27.3968 116.383C30.051 112.379 34.7578 114.161 38.1796 115.93C41.5388 117.661 45.127 119.138 48.6055 120.771C48.272 118.468 49.945 115.658 51.2804 113.594C45.396 115.751 38.6806 115.887 34.1076 111.127C33.2799 110.265 33.235 109.05 34.0084 108.132C36.2548 105.489 38.7924 104.063 41.7653 103.009C36.6866 103.197 32.7635 100.78 34.0532 94.3844C34.2437 93.4702 35.2385 92.5672 36.215 92.6545C43.0743 93.2601 44.9553 87.6272 50.2332 84.7407C51.4506 84.0713 52.7705 83.7403 54.1414 83.5629C51.2921 82.0476 48.9422 79.5791 45.773 79.1757C44.496 82.9013 41.1511 84.5386 36.9428 84.3189C35.9624 84.2703 34.8704 83.7026 34.6615 82.6385C33.3412 75.9545 30.6589 69.7457 34.8469 63.4171C37.5012 59.4131 42.2081 61.1949 45.6299 62.9636C47.9183 64.1486 50.33 65.1977 52.7324 66.2615C51.7902 64.4865 51.5011 62.555 52.3836 60.4846C52.4336 60.3764 52.4981 60.2814 52.5559 60.1739C47.8213 61.018 42.9973 60.275 39.4602 56.5964C38.6291 55.731 38.5877 54.5198 39.3607 53.6061C41.6036 50.9588 44.145 49.533 47.1179 48.4791C42.0354 48.6669 38.1163 46.2502 39.406 39.8543C39.5922 38.9436 40.5916 38.0333 41.5677 38.1244C48.4228 38.7335 50.3084 33.0932 55.586 30.2107C56.8034 29.5412 58.1233 29.2102 59.4942 29.0328C56.6406 27.521 54.2911 25.0486 51.1219 24.6452C49.8487 28.3712 46.5039 30.0085 42.2955 29.7888C41.3155 29.7363 40.2231 29.1725 40.0139 28.1123C38.694 21.4245 36.0082 15.2113 40.1993 8.89079C42.8501 4.8826 47.5608 6.66481 50.9826 8.43348C56.6035 11.343 62.9338 13.4261 68.1625 16.9637C68.6347 17.2811 69.0682 17.6336 69.4935 17.9892C69.0105 16.7372 68.4319 15.4638 67.6792 14.1337C65.6999 10.6326 64.0134 7.29005 63.1235 3.34082C62.8656 2.18197 63.6053 1.24923 64.7593 1.12796C75.8791 -0.0647182 78.8497 6.77104 78.6777 14.8309C81.129 12.3649 84.4599 10.4801 87.3526 8.94546C93.8857 5.47933 103.584 4.69717 105.742 13.5636C106.046 14.8092 105.651 16.5815 104.341 17.1634C100.993 18.644 97.2237 19.875 94.8794 22.7893C93.3054 24.7389 91.9534 26.5431 89.7421 27.7602C88.764 28.3055 87.6746 28.4841 86.5265 28.4692C87.5193 29.1284 88.4524 29.8362 89.2174 30.6598C92.491 34.1594 94.1076 38.0768 98.0802 41.0848C99.8455 42.416 104.07 44.8637 103.816 47.6462C103.31 53.2897 95.9001 57.2646 90.6507 54.5099C86.1369 52.1345 84.8911 48.032 82.7379 43.7008C82.6278 43.4748 82.5189 43.2762 82.4043 43.0576C82.8065 43.9108 83.2002 44.7709 83.587 45.6226C85.207 49.1967 89.327 57.1137 86.7161 61.1923C86.5574 61.4457 86.3781 61.5955 86.2098 61.7894C92.1098 60.0948 98.661 61.0012 100.393 68.098C100.693 69.3392 100.302 71.1158 98.9885 71.6935C95.6442 73.1706 91.8745 74.4093 89.5271 77.3156C87.9531 79.2652 86.6049 81.0697 84.3893 82.2903C83.4155 82.8321 82.3218 83.0141 81.1772 83.0036C82.1704 83.6589 83.1031 84.3706 83.8689 85.1864C87.1383 88.6895 88.7587 92.6073 92.7274 95.6149C94.4923 96.95 98.7175 99.3938 98.4628 102.176C97.9606 107.824 90.547 111.799 85.2979 109.04C80.7845 106.661 79.5418 102.566 77.3851 98.2308C77.2751 98.0049 77.1623 97.8059 77.0554 97.5881C77.4576 98.4413 77.8475 99.301 78.2304 100.152C79.6625 103.305 83.0178 109.816 82.0152 114.113C86.8837 113.607 91.5296 115.257 92.9432 121.06C93.2431 122.305 92.848 124.081 91.5382 124.659C88.194 126.137 84.4208 127.371 82.0807 130.282C80.5028 132.231 79.1547 134.036 76.9429 135.257C75.9653 135.798 74.8716 135.98 73.7232 135.969C74.7164 136.624 75.6529 137.337 76.4148 138.152C79.692 141.656 81.3045 145.573 85.2771 148.581C87.042 149.916 91.2674 152.36 91.0126 155.142C90.5065 160.79 83.0967 164.765 77.8476 162.006C73.3343 159.627 72.0915 155.532 69.9348 151.197C69.8248 150.971 69.7164 150.768 69.6052 150.554C70.0074 151.407 70.4011 152.267 70.784 153.119C72.1605 156.164 75.3192 162.339 74.6263 166.628C79.382 166.231 83.8545 167.935 85.2377 173.614C85.5419 174.855 85.1467 176.631 83.8365 177.213C80.488 178.694 76.719 179.925 74.3755 182.832C72.8011 184.785 71.4495 186.585 69.2374 187.81C68.2597 188.352 67.1664 188.53 66.018 188.519C67.015 189.174 67.9477 189.886 68.7135 190.702C71.9864 194.209 73.5994 198.122 77.5759 201.131C79.3369 202.466 83.5621 204.909 83.307 207.696C82.8013 213.339 75.3916 217.314 70.1425 214.556C65.6288 212.18 64.3864 208.082 62.2297 203.746C62.1193 203.524 62.0108 203.322 61.9 203.104C62.3022 203.957 62.6959 204.817 63.0788 205.668C64.0789 207.875 66.0187 211.727 66.7543 215.31C71.1101 215.232 75.0516 217.08 76.3323 222.343C76.6327 223.584 76.2414 225.36 74.9274 225.942C71.5827 227.423 67.8138 228.654 65.4664 231.56C63.892 233.514 62.5438 235.318 60.3282 236.539C59.3544 237.081 58.2611 237.259 57.1126 237.248C58.1093 237.907 59.0425 238.615 59.8078 239.435C63.0811 242.938 64.6941 246.851 68.6663 249.863C70.4316 251.195 74.6569 253.638 74.4018 256.425C73.896 262.068 66.4862 266.043 61.2372 263.285C56.723 260.913 55.4811 256.811 53.3244 252.475C53.2139 252.253 53.105 252.055 52.9904 251.836C53.393 252.685 53.7868 253.546 54.1736 254.397C55.3941 257.091 58.0305 262.249 58.1398 266.376C62.7134 266.118 66.9426 267.906 68.2784 273.396C68.5822 274.641 68.1874 276.414 66.8772 276.996C63.5326 278.477 59.7636 279.708 57.4158 282.618C55.8414 284.571 54.4937 286.372 52.2781 287.592C51.3005 288.134 50.211 288.313 49.0622 288.305C50.0554 288.961 50.9923 289.669 51.7538 290.488C55.0271 293.992 56.644 297.905 60.6162 300.917C62.3815 302.248 66.6064 304.696 66.3516 307.479C65.8459 313.122 58.4362 317.097 53.1871 314.338C48.673 311.967 47.431 307.865 45.2739 303.533C45.16 303.307 45.0511 303.108 44.9442 302.89C45.3468 303.74 45.7366 304.599 46.1195 305.451C47.743 309.029 51.8631 316.946 49.2521 321.025C46.979 324.587 43.5334 321.742 41.6391 319.292C41.4559 319.055 41.3176 318.798 41.1464 318.558C41.9279 320.723 42.8297 322.897 43.9868 325.29C47.0316 331.626 49.9571 340.836 41.586 344.381C35.2535 347.064 31.5807 337.473 29.8866 327.649C28.4571 335.965 27.05 344.29 25.7043 352.626C25.681 352.779 25.579 352.859 25.4834 352.954C25.1535 355.629 24.7368 358.274 24.0144 360.809C23.4183 362.909 20.5298 362.514 20.3281 360.416C19.5769 352.63 21.6388 344.094 22.8288 336.406Z" fill="#E4C26D"/>
</svg>
