<svg width="82" height="82" viewBox="0 0 82 82" fill="none" xmlns="http://www.w3.org/2000/svg">
<rect y="-0.00366211" width="82" height="82" rx="2.19704" fill="#25497D"/>
<g clip-path="url(#clip0_902_25230)">
<path d="M58.697 40.3444C58.6871 40.4379 58.6576 40.5264 58.6133 40.615C58.5641 40.8216 58.5395 41.0577 58.5395 41.3184C58.5395 41.343 58.5445 41.3676 58.5445 41.3922V58.4818C58.7609 59.018 59.0266 59.4214 59.3463 59.6723C59.6415 59.9084 60.0055 60.0215 60.4482 60.0018C60.4777 59.9969 60.5122 59.9969 60.5417 59.9969H65.4413C65.4511 59.9969 65.4659 59.9969 65.4806 59.9969C66.2431 60.0363 66.7941 59.8297 67.163 59.4066C67.5812 58.9245 67.8222 58.1522 67.9058 57.1142V57.0995L69.3964 41.6825C69.3964 41.6579 69.3964 41.6333 69.4013 41.6087C69.5046 40.733 69.3128 40.1624 68.8799 39.8279C68.383 39.4442 67.5615 39.2868 66.494 39.2868C66.4694 39.2868 66.4448 39.2917 66.4202 39.2917H60.9008V39.2868C60.0596 39.2868 59.4398 39.454 59.061 39.7984C58.9036 39.941 58.7855 40.123 58.697 40.3444ZM53.2956 59.2492C53.1775 59.1361 53.0939 58.9885 53.0595 58.8261L45.1886 44.6586C44.313 43.1976 43.5259 43.1632 42.7634 43.6157C42.2223 43.9355 41.6517 44.4569 41.081 44.9784C40.7367 45.2932 40.3923 45.608 40.1021 45.8491L38.7493 46.9658L38.7395 46.9707C37.7556 47.7627 36.6438 48.1907 35.5911 48.2743C34.8975 48.3333 34.2285 48.2448 33.6185 48.0136C32.9937 47.7774 32.4428 47.3987 32.0296 46.8821C31.5819 46.3263 31.2867 45.6179 31.2179 44.7816H31.2228C31.208 44.5799 31.2671 44.3782 31.4048 44.211L35.7043 39.0949C34.7991 39.0802 33.9973 39.2031 33.2446 39.4393C32.0984 39.7984 31.026 40.4182 29.8552 41.22C29.7224 41.3234 29.5502 41.3873 29.3682 41.3873H24.4145V50.7487L24.4342 56.7354H27.3169C27.5924 56.7354 27.858 56.8781 28.0007 57.1339L31.5819 63.3765C32.1033 64.2865 32.5658 65.0736 33.1413 65.5901C33.6824 66.0772 34.3908 66.3772 35.4829 66.4067C35.8912 66.4166 36.2847 66.3477 36.6537 66.1952C36.88 66.1018 37.1063 65.9739 37.3276 65.8115L35.0057 61.4727C34.7991 61.089 34.9467 60.6118 35.3304 60.4101C35.7141 60.2035 36.1913 60.3511 36.393 60.7348L38.9165 65.4524C39.8561 65.9296 40.7072 66.0772 41.4697 65.9148C42.1682 65.7623 42.8274 65.3442 43.4472 64.6653L39.8119 58.959C39.5806 58.5949 39.684 58.1079 40.0529 57.8718C40.4169 57.6406 40.9039 57.7439 41.1401 58.1128L44.9673 64.1242C45.6412 64.3997 46.2856 64.4587 46.9005 64.2915C47.4859 64.1291 48.0762 63.7553 48.6616 63.1453L45.1935 56.6125C44.9869 56.2288 45.1345 55.7467 45.5231 55.545C45.9068 55.3384 46.3889 55.486 46.5906 55.8746L50.1817 62.6337C50.649 62.9042 51.1901 62.9731 51.7067 62.8895C52.1592 62.8157 52.5971 62.6189 52.9562 62.3385C53.3005 62.063 53.5711 61.7088 53.699 61.3055C53.8416 60.8676 53.8269 60.356 53.5957 59.8002L53.2956 59.2492ZM54.3385 57.8816H56.9654V41.3922C56.9654 41.3725 56.9654 41.3479 56.9703 41.3283C56.9703 41.0725 56.9851 40.8265 57.0195 40.5953L54.3434 38.8194C54.3286 38.8096 54.3139 38.7998 54.2991 38.7899C53.9499 38.5587 53.5317 38.2636 53.1136 37.9684C51.5935 36.9058 50.0341 35.8088 48.3468 35.3661C47.4367 35.1251 46.384 34.9676 45.3116 34.948C44.372 34.9283 43.4177 35.0168 42.5175 35.253C41.9813 35.3907 41.4598 35.5826 40.9777 35.8384C40.5497 36.0646 40.1513 36.3401 39.7971 36.6746L38.0065 38.8047C37.9524 38.9129 37.8737 39.0015 37.7802 39.0752L32.8412 44.9587C32.915 45.3326 33.0626 45.6474 33.2643 45.9032C33.5004 46.1934 33.8153 46.4099 34.1744 46.5476C34.5581 46.6903 35.0008 46.7444 35.4632 46.705C36.2159 46.6411 37.0226 46.3312 37.7458 45.7507L39.0986 44.634C39.4429 44.3487 39.7331 44.0831 40.0234 43.8223C40.658 43.2419 41.2876 42.6663 41.9567 42.2679C43.4964 41.3479 45.0312 41.3184 46.5463 43.8617L46.5611 43.8863L54.3385 57.8816ZM57.2605 59.4607H55.16C55.4453 60.2921 55.4306 61.0792 55.2043 61.7777C54.9731 62.4959 54.5205 63.1059 53.94 63.5683C53.3743 64.016 52.6856 64.3259 51.9625 64.444C51.259 64.562 50.5211 64.4981 49.8324 64.2127C49.0355 65.0441 48.1943 65.5705 47.3187 65.8115C46.4381 66.0526 45.5477 66.0034 44.6475 65.6885C43.7915 66.638 42.847 67.2332 41.8042 67.4546C40.7416 67.6858 39.6151 67.5234 38.4197 66.9626C38.0458 67.2529 37.6572 67.4841 37.2489 67.6513C36.6734 67.8924 36.0683 68.0006 35.4337 67.9809C33.9186 67.9366 32.9003 67.489 32.0886 66.7609C31.3113 66.0673 30.7948 65.1818 30.2045 64.1586L26.8545 58.3145H24.2571C24.1046 59.0672 23.8439 59.7067 23.4503 60.2183C22.7862 61.0742 21.8171 61.5268 20.4693 61.4973C20.4545 61.4973 20.4397 61.4973 20.425 61.4973H15.973C14.8514 61.6793 13.8922 61.4038 13.1395 60.5331C12.4705 59.7608 12.0179 58.5064 11.8212 56.6666C11.8163 56.6469 11.8163 56.6223 11.8113 56.5977L10.6405 42.0858C10.4093 40.5215 10.6651 39.4147 11.2948 38.6571C11.9294 37.8946 12.8887 37.5503 14.0644 37.4962C14.0988 37.4912 14.1283 37.4912 14.1627 37.4912H20.1593V37.4962C21.2908 37.4814 22.2648 37.6732 23.0027 38.1504C23.5979 38.5341 24.0259 39.0752 24.2423 39.8131H29.1272C30.357 38.9867 31.5032 38.3373 32.7724 37.9389C34.0219 37.5503 35.355 37.4125 36.9538 37.6044L38.6017 35.6563C38.6312 35.617 38.6607 35.5826 38.7001 35.5481C39.1674 35.1054 39.6889 34.7414 40.2497 34.4462C40.84 34.1363 41.4697 33.9002 42.1288 33.728C43.1717 33.4574 44.2687 33.3541 45.3411 33.3738C46.5562 33.3984 47.7368 33.5755 48.7551 33.8411C50.7031 34.3577 52.3855 35.5334 54.0187 36.6796C54.3828 36.9354 54.7468 37.1912 55.1797 37.4765C55.1944 37.4863 55.2092 37.4962 55.2239 37.506L57.595 39.09C57.7131 38.9227 57.8508 38.7702 58.0083 38.6325C58.6871 38.0225 59.6562 37.7224 60.9057 37.7224V37.7175H66.4251C66.4448 37.7175 66.4694 37.7175 66.4891 37.7224C67.9009 37.7175 69.052 37.9733 69.849 38.5882C70.7344 39.272 71.1526 40.31 70.9755 41.8005C70.9755 41.8153 70.9706 41.8251 70.9706 41.8399L69.48 57.2421C69.3718 58.6195 69.0028 59.6969 68.3535 60.4446C67.6599 61.2415 66.7006 61.635 65.4413 61.5809H60.5417H60.5368C59.6907 61.6252 58.9675 61.394 58.3624 60.9119C57.9197 60.5528 57.5508 60.0707 57.2605 59.4607ZM17.4488 53.474C18.0391 53.474 18.5163 53.9511 18.5163 54.5414C18.5163 55.1318 18.0391 55.6089 17.4488 55.6089C16.8585 55.6089 16.3813 55.1318 16.3813 54.5414C16.3813 53.9511 16.8585 53.474 17.4488 53.474ZM63.9114 53.474C64.5017 53.474 64.9789 53.9511 64.9789 54.5414C64.9789 55.1318 64.5017 55.6089 63.9114 55.6089C63.3211 55.6089 62.8439 55.1318 62.8439 54.5414C62.8439 53.9511 63.3211 53.474 63.9114 53.474ZM22.8354 48.9286L22.8059 40.6002C22.8059 40.5855 22.8059 40.5707 22.8059 40.551C22.7223 40.0296 22.496 39.6803 22.1615 39.4639C21.704 39.1687 21.0202 39.0556 20.179 39.0654H20.1692V39.0703H14.1677C14.1578 39.0703 14.148 39.0703 14.1381 39.0703C13.3953 39.1048 12.8296 39.2819 12.5099 39.6656C12.1655 40.0739 12.0475 40.7822 12.2098 41.8792C12.2147 41.9038 12.2147 41.9235 12.2147 41.9481L13.3855 56.4747V56.4993C13.5429 58.0046 13.8676 58.9688 14.3251 59.5001C14.6891 59.9231 15.186 60.0412 15.7812 59.933C15.8255 59.9231 15.8747 59.9182 15.9189 59.9182V59.9133H20.4201C20.4496 59.9133 20.4791 59.9133 20.5037 59.9182C21.3006 59.933 21.8516 59.6969 22.1959 59.2492C22.5993 58.7278 22.7961 57.9112 22.8256 56.8584H22.8207V48.9286H22.8354Z" fill="#FEF9F8"/>
</g>
<circle cx="38.7278" cy="23.4962" r="7.7482" stroke="#FEF9F8" stroke-width="1.5036"/>
<path d="M34.9998 23.8493L37.032 25.8816C37.363 26.2125 37.9061 26.1899 38.2084 25.8327L42.4998 20.7611" stroke="#FEF9F8" stroke-width="1.5" stroke-linecap="round"/>
<defs>
<clipPath id="clip0_902_25230">
<rect width="60.4481" height="34.612" fill="white" transform="translate(10.5615 33.374)"/>
</clipPath>
</defs>
</svg>
