<svg width="82" height="82" viewBox="0 0 82 82" fill="none" xmlns="http://www.w3.org/2000/svg">
<rect y="-0.00366211" width="82" height="82" rx="5.07508" fill="#25497D"/>
<path d="M18.0354 55.1904L52.1235 38.6133" stroke="#FEF9F8" stroke-width="1.89589"/>
<path d="M40.683 62.1947L29.009 49.8203" stroke="#FEF9F8" stroke-width="1.89589"/>
<path d="M23.8727 39.2252L15.4848 61.3778C15.25 61.9979 15.7082 62.6614 16.3713 62.6614H66.5758C67.2525 62.6614 67.7113 61.9727 67.4506 61.3482L58.2024 39.1957C58.0551 38.8427 57.7101 38.6129 57.3276 38.6129H24.7592C24.3652 38.6129 24.0122 38.8567 23.8727 39.2252Z" stroke="#FEF9F8" stroke-width="1.89589"/>
<path d="M47.4531 62.4283L63.3298 53.556" stroke="#FEF9F8" stroke-width="1.89589"/>
<path d="M40.9655 50.8059C38.9096 47.8255 37.1622 45.3363 35.6772 43.2209C33.0236 39.4408 31.2081 36.8545 29.9684 34.7932C29.0137 33.2057 28.4363 31.9849 28.0914 30.8201C27.7486 29.6626 27.6218 28.5147 27.6218 27.0559C27.6218 19.2623 33.9397 12.9444 41.7333 12.9444C49.5269 12.9444 55.8448 19.2623 55.8448 27.0559C55.8448 28.5147 55.718 29.6626 55.3752 30.8201C55.0303 31.9849 54.4529 33.2057 53.4982 34.7932C52.2585 36.8545 50.443 39.4408 47.7894 43.2209C46.3044 45.3363 44.557 47.8255 42.5012 50.8058C42.1303 51.3409 41.3364 51.3409 40.9655 50.8059ZM41.7333 34.2786C45.7223 34.2786 48.956 31.0449 48.956 27.0559C48.956 23.0669 45.7223 19.8332 41.7333 19.8332C37.7443 19.8332 34.5106 23.0669 34.5106 27.0559C34.5106 31.0449 37.7443 34.2786 41.7333 34.2786Z" fill="#25497D" stroke="#FEF9F8" stroke-width="1.89589"/>
</svg>
