<svg width="143" height="143" viewBox="0 0 143 143" fill="none" xmlns="http://www.w3.org/2000/svg">
<rect width="143" height="143" rx="4" fill="#5B5752"/>
<path d="M60.5684 65.7525V64.2573C60.5684 61.5134 59.5868 58.86 57.8011 56.7767L51.9473 49.9473H37.5789L31.171 56.6756C29.1354 58.813 28 61.6515 28 64.603V111.252C28 114.427 30.5732 117 33.7474 117H54.821C57.9952 117 60.5684 114.427 60.5684 111.252V107.9" stroke="white" stroke-width="2.6" stroke-linecap="round" stroke-linejoin="round"/>
<path d="M38.3996 43.2422C38.3996 41.8441 39.533 40.7106 40.9312 40.7106H47.6364C49.0346 40.7106 50.168 41.8441 50.168 43.2422V49.6054H38.3996V43.2422Z" fill="#5B5752" stroke="white" stroke-width="2.6"/>
<rect x="41.2736" y="34.0056" width="6.02104" height="6.02104" fill="#5B5752" stroke="white" stroke-width="2.6"/>
<path d="M62.9635 26H32.7898C31.7318 26 30.874 26.8577 30.874 27.9158V31.2684C30.874 32.3265 31.7317 33.1842 32.7898 33.1842H62.0056C62.5346 33.1842 62.9635 33.6131 62.9635 34.1421V38.4526C62.9635 38.9817 63.3923 39.4105 63.9214 39.4105H68.7108C69.2399 39.4105 69.6687 38.9817 69.6687 38.4526V32.7053C69.6687 29.002 66.6667 26 62.9635 26Z" fill="#5B5752" stroke="white" stroke-width="2.6" stroke-linecap="round" stroke-linejoin="round"/>
<path d="M67.1284 58.2257C63.9682 53.7806 64.6961 47.7437 68.6285 44.1611L72.5712 49.7068C75.2834 53.5217 74.3895 58.8131 70.5745 61.5253C70.1709 61.8123 69.611 61.7177 69.3241 61.3141L67.1284 58.2257Z" fill="#5B5752" stroke="white" stroke-width="2.6"/>
<path d="M115.168 98.3214L101.894 84.3403C99.3631 78.9395 91.8335 71.1082 81.9628 82.9901C77.1433 82.9901 73.3939 82.9901 70.6257 82.9901C67.4515 82.9901 64.8789 85.5633 64.8789 88.7375V89.0602C64.8789 91.1764 66.5944 92.8918 68.7105 92.8918H83.3865" stroke="white" stroke-width="2.6" stroke-linecap="round" stroke-linejoin="round"/>
<path d="M104.632 117L94.5397 106.908C93.6415 106.01 92.4233 105.506 91.1531 105.506H67.0353C64.4333 105.506 61.9433 104.447 60.1377 102.573L40.5816 82.2792C38.9557 80.592 39.0935 77.882 40.8822 76.3685V76.3685C42.5232 74.98 44.9623 75.1128 46.4428 76.6712L60.5892 91.5622C61.4934 92.514 62.7487 93.0529 64.0616 93.0529H73.0212" stroke="white" stroke-width="2.6" stroke-linecap="round" stroke-linejoin="round"/>
<path d="M47.6367 76.7687L49.0395 75.3659C50.9099 73.4955 53.9424 73.4955 55.8129 75.3659L65.8367 85.3898" stroke="white" stroke-width="2.6" stroke-linecap="round" stroke-linejoin="round"/>
<path d="M55.2998 74.8526L57.2404 72.912C59.0877 71.0648 62.0745 71.0386 63.9539 72.8531L74.4577 82.9947" stroke="white" stroke-width="2.6" stroke-linecap="round" stroke-linejoin="round"/>
</svg>
