<svg width="143" height="143" viewBox="0 0 143 143" fill="none" xmlns="http://www.w3.org/2000/svg">
<rect width="143" height="143" rx="4" fill="#5B5752"/>
<path d="M36.4336 85.6422V54.2217C46.2037 49.8145 65.7946 41 71.0503 41C76.3059 41 96.739 49.8145 105.667 54.2217V85.5465C105.667 86.6484 105.215 87.7322 104.415 88.4896C77.0437 114.39 49.2811 99.9963 37.5732 88.4446C36.826 87.7074 36.4336 86.6919 36.4336 85.6422Z" stroke="white" stroke-width="3.1" stroke-linejoin="round"/>
<path d="M24.6625 53.5622C24.6294 51.6882 26.5403 50.4038 28.2631 51.1421L35.9167 54.4223V81.5699L26.2011 75.3599C25.4721 74.8939 25.0248 74.0939 25.0095 73.2288L24.6625 53.5622Z" stroke="white" stroke-width="3.1"/>
<path d="M117.437 53.5622C117.47 51.6882 115.559 50.4038 113.837 51.1421L106.183 54.4223V81.5699L115.898 75.3599C116.627 74.8939 117.075 74.0939 117.09 73.2288L117.437 53.5622Z" stroke="white" stroke-width="3.1"/>
<path d="M71.5664 61.667V82.3337" stroke="white" stroke-width="3.1" stroke-linecap="round"/>
<path d="M61.2334 72H81.9001" stroke="white" stroke-width="3.1" stroke-linecap="round"/>
</svg>
