<svg width="83" height="82" viewBox="0 0 83 82" fill="none" xmlns="http://www.w3.org/2000/svg">
<rect x="0.438477" y="0.00012207" width="82" height="82" rx="2.19179" fill="#3175A8"/>
<g clip-path="url(#clip0_614_13361)">
<path d="M59.1354 40.3483C59.1256 40.4418 59.0961 40.5303 59.0518 40.6189C59.0026 40.8255 58.978 41.0616 58.978 41.3223C58.978 41.3469 58.9829 41.3715 58.9829 41.3961V58.4857C59.1994 59.0219 59.465 59.4253 59.7848 59.6762C60.0799 59.9123 60.444 60.0254 60.8867 60.0058C60.9162 60.0008 60.9506 60.0008 60.9802 60.0008H65.8798C65.8896 60.0008 65.9044 60.0008 65.9191 60.0008C66.6816 60.0402 67.2326 59.8336 67.6015 59.4105C68.0196 58.9284 68.2607 58.1561 68.3443 57.1181V57.1034L69.8349 41.6864C69.8349 41.6618 69.8349 41.6372 69.8398 41.6126C69.9431 40.7369 69.7512 40.1663 69.3183 39.8318C68.8215 39.4481 68 39.2907 66.9325 39.2907C66.9079 39.2907 66.8833 39.2956 66.8587 39.2956H61.3393V39.2907C60.4981 39.2907 59.8782 39.4579 59.4995 39.8023C59.342 39.9449 59.224 40.127 59.1354 40.3483ZM53.7341 59.2531C53.616 59.14 53.5324 58.9924 53.4979 58.83L45.6271 44.6625C44.7515 43.2015 43.9644 43.1671 43.2019 43.6196C42.6608 43.9394 42.0901 44.4608 41.5195 44.9823C41.1752 45.2971 40.8308 45.6119 40.5406 45.853L39.1878 46.9697L39.1779 46.9746C38.1941 47.7666 37.0823 48.1946 36.0296 48.2782C35.336 48.3372 34.667 48.2487 34.057 48.0175C33.4322 47.7813 32.8813 47.4026 32.468 46.886C32.0204 46.3302 31.7252 45.6218 31.6564 44.7855H31.6613C31.6465 44.5838 31.7055 44.3821 31.8433 44.2149L36.1427 39.0988C35.2376 39.0841 34.4357 39.207 33.6831 39.4432C32.5369 39.8023 31.4645 40.4221 30.2937 41.224C30.1609 41.3273 29.9887 41.3912 29.8067 41.3912H24.853V50.7526L24.8727 56.7394H27.7554C28.0308 56.7394 28.2965 56.882 28.4391 57.1378L32.0204 63.3804C32.5418 64.2904 33.0042 65.0775 33.5798 65.594C34.1209 66.0811 34.8293 66.3811 35.9214 66.4106C36.3297 66.4205 36.7232 66.3516 37.0922 66.1991C37.3184 66.1057 37.5447 65.9778 37.7661 65.8154L35.4442 61.4766C35.2376 61.0929 35.3852 60.6157 35.7689 60.414C36.1526 60.2074 36.6297 60.355 36.8314 60.7387L39.355 65.4563C40.2946 65.9335 41.1456 66.0811 41.9081 65.9187C42.6067 65.7662 43.2658 65.3481 43.8857 64.6692L40.2503 58.9629C40.0191 58.5988 40.1224 58.1118 40.4914 57.8757C40.8554 57.6445 41.3424 57.7478 41.5785 58.1167L45.4057 64.1281C46.0797 64.4036 46.7241 64.4626 47.339 64.2954C47.9244 64.133 48.5147 63.7592 49.1001 63.1492L45.632 56.6164C45.4254 56.2327 45.573 55.7506 45.9616 55.5489C46.3453 55.3423 46.8274 55.4899 47.0291 55.8785L50.6202 62.6376C51.0875 62.9081 51.6286 62.977 52.1451 62.8934C52.5977 62.8196 53.0355 62.6228 53.3946 62.3424C53.739 62.0669 54.0095 61.7127 54.1374 61.3094C54.2801 60.8715 54.2654 60.3599 54.0341 59.8041L53.7341 59.2531ZM54.777 57.8855H57.4038V41.3961C57.4038 41.3764 57.4038 41.3519 57.4088 41.3322C57.4088 41.0764 57.4235 40.8304 57.458 40.5992L54.7819 38.8233C54.7671 38.8135 54.7524 38.8037 54.7376 38.7938C54.3883 38.5626 53.9702 38.2675 53.5521 37.9723C52.032 36.9097 50.4726 35.8127 48.7853 35.37C47.8752 35.129 46.8225 34.9716 45.7501 34.9519C44.8105 34.9322 43.8562 35.0207 42.9559 35.2569C42.4197 35.3946 41.8983 35.5865 41.4162 35.8423C40.9882 36.0685 40.5898 36.344 40.2356 36.6785L38.445 38.8086C38.3908 38.9168 38.3121 39.0054 38.2187 39.0791L33.2797 44.9626C33.3535 45.3365 33.5011 45.6513 33.7028 45.9071C33.9389 46.1973 34.2537 46.4138 34.6128 46.5515C34.9965 46.6942 35.4393 46.7483 35.9017 46.7089C36.6543 46.645 37.4611 46.3351 38.1842 45.7546L39.537 44.6379C39.8814 44.3526 40.1716 44.087 40.4619 43.8262C41.0964 43.2458 41.7261 42.6702 42.3951 42.2718C43.9349 41.3519 45.4697 41.3223 46.9848 43.8656L46.9996 43.8902L54.777 57.8855ZM57.699 59.4646H55.5985C55.8838 60.296 55.869 61.0831 55.6427 61.7816C55.4115 62.4998 54.959 63.1098 54.3785 63.5722C53.8128 64.0199 53.1241 64.3298 52.4009 64.4479C51.6975 64.5659 50.9596 64.502 50.2709 64.2167C49.474 65.048 48.6328 65.5744 47.7571 65.8154C46.8766 66.0565 45.9862 66.0073 45.086 65.6924C44.23 66.6419 43.2855 67.2371 42.2426 67.4585C41.1801 67.6897 40.0536 67.5273 38.8582 66.9665C38.4843 67.2568 38.0957 67.488 37.6874 67.6552C37.1118 67.8963 36.5068 68.0045 35.8722 67.9848C34.357 67.9405 33.3387 67.4929 32.5271 66.7648C31.7498 66.0712 31.2333 65.1857 30.643 64.1625L27.293 58.3184H24.6956C24.5431 59.0711 24.2824 59.7106 23.8888 60.2222C23.2247 61.0782 22.2556 61.5307 20.9077 61.5012C20.893 61.5012 20.8782 61.5012 20.8635 61.5012H16.4115C15.2899 61.6832 14.3307 61.4077 13.578 60.537C12.909 59.7647 12.4564 58.5103 12.2596 56.6705C12.2547 56.6508 12.2547 56.6262 12.2498 56.6016L11.079 42.0897C10.8478 40.5254 11.1036 39.4186 11.7333 38.661C12.3679 37.8985 13.3271 37.5542 14.5028 37.5001C14.5373 37.4951 14.5668 37.4951 14.6012 37.4951H20.5978V37.5001C21.7293 37.4853 22.7033 37.6772 23.4412 38.1543C24.0364 38.538 24.4644 39.0791 24.6808 39.817H29.5657C30.7955 38.9906 31.9417 38.3413 33.2108 37.9428C34.4603 37.5542 35.7935 37.4164 37.3922 37.6083L39.0402 35.6602C39.0697 35.6209 39.0992 35.5865 39.1386 35.552C39.6059 35.1093 40.1273 34.7453 40.6881 34.4501C41.2785 34.1402 41.9081 33.9041 42.5673 33.7319C43.6102 33.4613 44.7072 33.358 45.7796 33.3777C46.9947 33.4023 48.1753 33.5794 49.1936 33.845C51.1416 34.3616 52.824 35.5373 54.4572 36.6835C54.8212 36.9393 55.1853 37.1951 55.6181 37.4804C55.6329 37.4902 55.6477 37.5001 55.6624 37.5099L58.0335 39.0939C58.1516 38.9266 58.2893 38.7742 58.4467 38.6364C59.1256 38.0264 60.0947 37.7263 61.3442 37.7263V37.7214H66.8636C66.8833 37.7214 66.9079 37.7214 66.9276 37.7263C68.3394 37.7214 69.4905 37.9772 70.2874 38.5921C71.1729 39.2759 71.591 40.3139 71.4139 41.8044C71.4139 41.8192 71.409 41.829 71.409 41.8438L69.9185 57.246C69.8103 58.6234 69.4413 59.7008 68.792 60.4485C68.0984 61.2454 67.1391 61.639 65.8798 61.5848H60.9802H60.9752C60.1291 61.6291 59.406 61.3979 58.8009 60.9158C58.3582 60.5567 57.9892 60.0746 57.699 59.4646ZM17.8873 53.4779C18.4776 53.4779 18.9548 53.955 18.9548 54.5454C18.9548 55.1357 18.4776 55.6128 17.8873 55.6128C17.297 55.6128 16.8198 55.1357 16.8198 54.5454C16.8198 53.955 17.297 53.4779 17.8873 53.4779ZM64.3499 53.4779C64.9402 53.4779 65.4174 53.955 65.4174 54.5454C65.4174 55.1357 64.9402 55.6128 64.3499 55.6128C63.7596 55.6128 63.2824 55.1357 63.2824 54.5454C63.2824 53.955 63.7596 53.4779 64.3499 53.4779ZM23.2739 48.9325L23.2444 40.6041C23.2444 40.5894 23.2444 40.5746 23.2444 40.5549C23.1608 40.0335 22.9345 39.6842 22.6 39.4678C22.1425 39.1726 21.4587 39.0595 20.6175 39.0693H20.6077V39.0742H14.6061C14.5963 39.0742 14.5865 39.0742 14.5766 39.0742C13.8338 39.1087 13.2681 39.2858 12.9483 39.6695C12.604 40.0778 12.4859 40.7861 12.6483 41.8831C12.6532 41.9077 12.6532 41.9274 12.6532 41.952L13.824 56.4786V56.5032C13.9814 58.0085 14.3061 58.9727 14.7636 59.504C15.1276 59.927 15.6244 60.0451 16.2197 59.9369C16.2639 59.927 16.3131 59.9221 16.3574 59.9221V59.9172H20.8585C20.8881 59.9172 20.9176 59.9172 20.9422 59.9221C21.7391 59.9369 22.2901 59.7008 22.6344 59.2531C23.0378 58.7317 23.2346 57.9151 23.2641 56.8623H23.2591V48.9325H23.2739Z" fill="white"/>
</g>
<circle cx="39.166" cy="23.5001" r="7.75" stroke="white" stroke-width="1.5"/>
<path d="M36.666 21.0001L41.666 26.0001" stroke="white" stroke-width="1.5" stroke-linecap="round"/>
<path d="M41.666 21.0001L36.666 26.0001" stroke="white" stroke-width="1.5" stroke-linecap="round"/>
<defs>
<clipPath id="clip0_614_13361">
<rect width="60.4481" height="34.612" fill="white" transform="translate(11 33.3777)"/>
</clipPath>
</defs>
</svg>
