<svg width="277" height="117" viewBox="0 0 277 117" fill="none" xmlns="http://www.w3.org/2000/svg">
<path d="M86.4186 65.7643C86.0695 65.7643 85.895 65.5898 85.895 65.2408C85.895 65.1012 85.9125 64.9092 85.9474 64.6649C85.9823 64.3857 86.0695 64.1414 86.2092 63.9319C87.326 63.7923 88.1637 63.4433 88.7221 62.8849C89.2806 62.3264 89.8216 61.4364 90.3451 60.2148L103.277 29.2213C103.451 28.8025 103.765 28.593 104.219 28.593H104.69L117.046 60.2148C117.534 61.5062 117.953 62.3788 118.302 62.8325C118.651 63.2862 119.157 63.548 119.82 63.6178C120.065 63.6527 120.361 63.6702 120.71 63.6702C121.059 63.6702 121.408 63.6702 121.757 63.6702C121.757 63.8447 121.74 64.0715 121.705 64.3508C121.705 64.63 121.67 64.8569 121.6 65.0314C121.496 65.3804 121.374 65.5898 121.234 65.6596C121.094 65.7294 120.99 65.7643 120.92 65.7643H111.548C111.199 65.7643 111.025 65.5898 111.025 65.2408C111.025 65.1012 111.042 64.9092 111.077 64.6649C111.112 64.3857 111.199 64.1414 111.339 63.9319C112.177 63.8272 112.822 63.6353 113.276 63.356C113.73 63.0768 113.957 62.6231 113.957 61.9948C113.957 61.576 113.817 60.9827 113.538 60.2148L111.077 53.7753H95.4234L92.7534 60.2148C92.3695 61.1921 92.1775 61.9076 92.1775 62.3613C92.1775 62.7802 92.2822 63.0768 92.4916 63.2513C92.7359 63.4258 93.0501 63.548 93.434 63.6178C93.6783 63.6527 94.0099 63.6702 94.4287 63.6702C94.8825 63.6702 95.2838 63.6702 95.6329 63.6702C95.6329 63.8447 95.6154 64.0715 95.5805 64.3508C95.5805 64.63 95.5456 64.8569 95.4758 65.0314C95.3711 65.3804 95.2489 65.5898 95.1093 65.6596C94.9697 65.7294 94.865 65.7643 94.7952 65.7643H86.4186ZM96.3658 51.4194H110.187L103.8 34.6661C103.626 34.2473 103.451 34.2473 103.277 34.6661L96.3658 51.4194Z" fill="white"/>
<path d="M150.903 96.5728C150.903 96.4332 150.921 96.2412 150.956 95.9969C150.991 95.7177 151.078 95.4734 151.218 95.264C152.369 95.1244 153.207 94.7753 153.73 94.2169C154.289 93.6584 154.568 92.6812 154.568 91.2851V65.7887C154.568 64.8812 154.498 64.2181 154.359 63.7993C154.254 63.3804 153.957 63.1187 153.469 63.014C153.015 62.8743 152.247 62.8045 151.165 62.8045C151.165 62.63 151.183 62.4032 151.218 62.1239C151.252 61.8447 151.287 61.6179 151.322 61.4433C151.427 61.0594 151.549 60.85 151.689 60.8151C151.863 60.7453 151.968 60.7104 152.003 60.7104H162.369C169.035 60.6406 174.061 62.1065 177.447 65.1081C180.867 68.0748 182.577 72.3679 182.577 77.9872C182.577 82.2104 181.722 85.7356 180.012 88.5627C178.302 91.3898 175.963 93.5188 172.997 94.9498C170.03 96.3809 166.644 97.0964 162.84 97.0964H151.427C151.078 97.0964 150.903 96.9218 150.903 96.5728ZM157.709 91.2327C157.709 92.6288 157.989 93.5886 158.547 94.1122C159.105 94.6008 160.187 94.8451 161.793 94.8451C165.318 94.8451 168.215 94.3914 170.484 93.4839C172.787 92.5416 174.567 91.2851 175.824 89.7145C177.115 88.1438 178.005 86.3987 178.494 84.4791C179.017 82.5594 179.279 80.6049 179.279 78.6154C179.279 76.0675 178.948 73.9036 178.284 72.1235C177.656 70.3435 176.801 68.8776 175.719 67.7258C174.637 66.574 173.45 65.684 172.159 65.0558C170.868 64.3926 169.576 63.9214 168.285 63.6422C166.993 63.3281 165.807 63.1361 164.725 63.0663C163.643 62.9965 162.77 62.9616 162.107 62.9616H159.542C158.844 62.9616 158.355 63.1012 158.076 63.3804C157.832 63.6248 157.709 64.1134 157.709 64.8463V91.2327Z" fill="white"/>
<path d="M142.899 69.8311C142.525 69.8311 142.029 69.6197 141.411 69.1971C140.793 68.7744 140.111 68.2298 139.363 67.5633C138.615 68.2786 137.745 68.8232 136.754 69.1971C135.762 69.571 134.722 69.7579 133.633 69.7579C132.235 69.7579 131.089 69.5059 130.194 69.002C129.3 68.4981 128.642 67.8397 128.219 67.0269C127.797 66.2141 127.585 65.3607 127.585 64.4666C127.585 63.6538 127.748 62.8816 128.073 62.1501C128.414 61.4186 128.886 60.7683 129.487 60.1994C130.105 59.6304 130.837 59.1996 131.682 58.907C131.145 58.1755 130.763 57.5984 130.536 57.1758C130.308 56.7368 130.162 56.4036 130.097 56.176C130.048 55.9322 130.024 55.7371 130.024 55.5908C130.024 54.7292 130.227 54.0302 130.633 53.4938C131.056 52.9573 131.584 52.559 132.218 52.2989C132.852 52.0389 133.511 51.9088 134.193 51.9088C135.039 51.9088 135.73 52.0714 136.266 52.3965C136.819 52.7053 137.225 53.1117 137.485 53.6157C137.762 54.1034 137.9 54.6154 137.9 55.1519C137.9 55.6721 137.786 56.1516 137.558 56.5905C137.331 57.0294 137.046 57.379 136.705 57.639C136.38 57.8991 136.055 58.0292 135.73 58.0292C135.681 57.9967 135.616 57.9479 135.535 57.8829C135.453 57.8179 135.396 57.7366 135.364 57.639C135.803 57.4602 136.12 57.2001 136.315 56.8588C136.51 56.5174 136.607 56.1435 136.607 55.7371C136.607 55.2657 136.486 54.8105 136.242 54.3716C135.998 53.9164 135.64 53.5425 135.169 53.2499C134.714 52.9573 134.169 52.811 133.535 52.811C132.755 52.811 132.153 53.0223 131.731 53.445C131.324 53.8677 131.121 54.3228 131.121 54.8105C131.121 55.2169 131.292 55.729 131.633 56.3467C131.974 56.9644 132.519 57.761 133.267 58.7363C134.307 60.0693 135.364 61.3535 136.437 62.589C137.51 63.8082 138.55 64.873 139.558 65.7833C140.306 64.6291 140.68 63.2392 140.68 61.6136C140.68 61.321 140.663 60.9634 140.631 60.5407C140.436 60.5245 140.241 60.5082 140.046 60.492C139.265 60.4432 138.623 60.5326 138.119 60.7602L137.973 60.175C137.94 60.0287 138.03 59.923 138.241 59.858C138.566 59.7767 138.965 59.7117 139.436 59.6629C139.907 59.6142 140.298 59.5898 140.606 59.5898C141.143 59.5898 141.622 59.5979 142.045 59.6142C142.468 59.6304 142.842 59.6385 143.167 59.6385C143.606 59.6385 143.988 59.606 144.313 59.541C144.654 59.476 144.979 59.3459 145.288 59.1509C145.418 59.3947 145.491 59.6304 145.508 59.858C145.41 60.2156 145.223 60.4595 144.947 60.5895C144.687 60.7033 144.321 60.7602 143.849 60.7602C143.622 60.7602 143.362 60.7521 143.069 60.7358C142.777 60.7033 142.46 60.6708 142.118 60.6383C142.086 61.8412 141.907 62.9304 141.582 63.9057C141.273 64.8648 140.858 65.7183 140.338 66.4661C141.151 67.1488 141.923 67.6853 142.655 68.0754C143.386 68.4493 144.045 68.62 144.63 68.5875C144.63 68.7338 144.622 68.8882 144.605 69.0508C144.589 69.1971 144.557 69.3352 144.508 69.4653C144.41 69.5466 144.248 69.6197 144.02 69.6848C143.793 69.7335 143.565 69.7742 143.337 69.8067C143.126 69.8229 142.98 69.8311 142.899 69.8311ZM138.656 66.8806C137.892 66.1491 137.111 65.3525 136.315 64.491C135.518 63.6131 134.762 62.7516 134.047 61.9062C133.332 61.0447 132.706 60.2563 132.17 59.541C131.178 59.9962 130.414 60.6627 129.877 61.5405C129.357 62.4021 129.097 63.288 129.097 64.1983C129.097 64.9299 129.268 65.6289 129.609 66.2954C129.951 66.9456 130.495 67.4821 131.243 67.9047C131.991 68.3111 132.966 68.5143 134.169 68.5143C135.079 68.5143 135.908 68.3761 136.656 68.0998C137.42 67.8072 138.087 67.4008 138.656 66.8806Z" fill="white"/>
<path d="M28.8574 61.8501C28.8574 61.8501 28.8574 61.8501 28.861 61.8516C28.861 61.8516 28.864 61.8443 28.8604 61.8428L28.8574 61.8501Z" fill="white"/>
<path d="M31.7561 59.6792C27.9501 57.8459 24.8818 54.52 23.3611 50.581C23.0752 52.4369 23.6749 54.3553 24.7102 55.9236C25.7456 57.4919 27.186 58.7523 28.6994 59.8653C33.284 63.2405 38.6117 65.4244 43.9068 67.5317C42.6286 65.4305 40.7883 63.6782 38.6234 62.5064C36.4468 61.3299 33.9923 60.7528 31.7616 59.6769L31.7561 59.6792Z" fill="white"/>
<path d="M41.7163 43.9227C41.7733 44.793 41.8436 45.6642 41.9208 46.5291C42.3577 45.4455 42.9676 44.4271 43.7215 43.5347C44.6665 42.4157 45.8162 41.4971 46.9589 40.5847C49.0745 38.9 51.1862 37.2136 53.4013 35.6642C57.1865 33.0075 61.2438 30.7551 65.2847 28.5097C62.1317 32.8803 58.0596 36.5858 53.4149 39.3174C51.2114 40.6133 48.8719 41.6957 46.7725 43.1605C44.8123 44.5272 43.0258 46.2948 42.113 48.4916C42.295 50.2099 42.5159 51.9212 42.7658 53.617C43.1811 50.3722 45.1595 47.4766 47.6229 45.3113C50.1551 43.0876 53.1936 41.5302 56.183 39.971C59.1723 38.4119 62.1899 36.8053 64.6576 34.5057C63.4017 37.756 60.6823 40.2305 57.7646 42.1402C54.8469 44.0499 51.658 45.5195 48.7908 47.495C46.3349 49.1921 44.0697 51.3603 42.8287 54.0456C43.1737 56.3371 43.5774 58.6069 44.0233 60.8394C44.9629 56.7774 46.1519 52.535 49.2887 49.8345C51.9984 47.4965 55.9776 46.7306 59.3655 47.8924C52.5869 50.6792 47.1339 56.5288 44.8325 63.4857L44.373 62.5347C44.5549 63.3874 44.74 64.2323 44.9321 65.071C48.4298 60.4859 51.9478 55.8955 56.0054 51.7989C58.4117 49.3704 61.0025 47.125 63.7458 45.086C61.4041 49.8607 58.2395 54.2266 54.4623 57.9649C55.805 57.5229 57.2523 57.3948 58.6448 57.6163C54.7889 58.9983 51.5979 62.1255 50.1493 65.9552C49.3468 68.0696 48.1295 70.0213 46.5946 71.6819C46.8898 72.7706 47.1913 73.8437 47.5007 74.8974C49.6222 70.1517 52.1772 65.522 55.8567 61.8575C59.648 58.0841 64.778 55.4077 70.1253 55.497C65.1312 56.9594 60.7633 60.1061 57.1344 63.8363C53.5822 67.4886 50.6731 71.7037 47.7953 75.9088C48.0127 76.6399 48.2332 77.3632 48.4545 78.0732C49.554 75.4804 51.0964 73.0706 52.9953 70.9904C56.545 67.0969 61.2129 64.4427 65.7971 61.8498C64.2249 63.7717 62.6401 65.7022 60.7214 67.2806C59.0148 68.6816 57.0779 69.7768 55.2997 71.0855C52.6245 73.0568 50.3195 75.5261 48.5334 78.327C48.8437 79.3221 49.1564 80.3001 49.473 81.257C50.6607 79.5697 51.8468 77.8864 53.0344 76.1991C54.2072 74.5376 55.3917 72.8581 56.918 71.5113C58.168 70.4111 59.6243 69.5526 61.0836 68.709C61.6293 68.0634 62.2031 67.4383 62.8017 66.8413L62.4546 67.9158C64.2204 66.874 65.8967 65.7507 67.1295 64.1315C66.4556 66.5787 64.906 68.7816 62.8285 70.2371C62.3789 70.5543 61.9075 70.8355 61.4253 71.0988C61.0932 72.125 60.7588 73.1457 60.4267 74.1718C60.0065 75.4616 59.58 76.7669 58.8379 77.8996C57.7612 79.5365 56.1114 80.684 54.587 81.9138C53.1651 83.058 51.7708 84.381 51.138 86.0744C55.4063 98.0133 59.4762 105.903 59.4762 105.903L57.8893 107.479C54.3673 99.8375 51.5255 92.6335 49.2569 85.8735C49.1132 85.9379 48.9321 85.9374 48.7714 85.9315C47.1842 85.8445 45.6009 85.7591 44.0137 85.6721C43.1085 85.6244 42.1839 85.5689 41.3458 85.231C40.5038 84.8916 39.751 84.2075 39.57 83.3189C40.7681 84.4272 42.569 84.546 44.1958 84.4223C45.725 84.3047 47.2967 84.0365 48.7731 84.4096C48.4449 83.4028 48.1268 82.4045 47.8227 81.4164C46.1713 81.725 44.5214 82.0296 42.8699 82.3381C41.6643 82.5636 40.4189 82.7866 39.2248 82.5227C38.1749 82.2943 37.2314 81.701 36.4412 80.9747C35.6494 80.2522 34.9899 79.3927 34.3351 78.5442C36.9846 78.851 39.3643 80.277 41.9426 80.9629C43.8385 81.4643 45.8353 81.5578 47.7686 81.236C47.4692 80.2589 47.1799 79.2904 46.903 78.3359C43.8671 78.9202 40.6557 79.4563 37.7773 78.3458C36.0957 77.6951 34.6317 76.4932 33.6696 74.968C33.1334 74.1175 32.7551 73.1674 32.5493 72.1828C31.8524 72.1918 31.1546 72.1915 30.4602 72.1381C28.6656 72.0038 26.7846 71.454 25.6379 70.0719C28.9383 71.2935 32.5811 68.4617 36.0137 69.2428C37.8443 69.6589 39.2821 71.027 40.7595 72.1845C42.1863 73.2988 43.9451 74.2978 45.7058 73.988C45.4802 73.1313 45.2663 72.2792 45.0609 71.4397C44.1489 71.634 43.1537 71.3823 42.3026 70.9532C41.3003 70.4494 40.4266 69.7166 39.4541 69.1614C37.8925 68.2691 36.1197 67.8445 34.4239 67.2515C33.1335 66.7993 31.8527 66.2332 30.8101 65.3461C29.7713 64.4607 28.9794 63.2216 28.8714 61.8594C31.7008 64.092 35.0416 65.3481 38.2754 66.9372C40.5918 68.0703 42.7671 69.4638 44.9212 70.8759C44.6626 69.7974 44.4165 68.733 44.1868 67.6843L43.9606 67.6158C43.9435 67.5907 43.928 67.5618 43.9109 67.5368C44.0005 67.5729 44.0863 67.6075 44.1759 67.6436C43.9485 66.6004 43.732 65.5751 43.5333 64.5615C40.5927 62.4925 37.4296 60.7507 34.4428 58.7401C31.1412 56.521 27.9937 53.8974 25.9659 50.4744C24.8549 48.5992 24.0939 46.294 24.8627 44.2521C27.5086 49.1206 31.1026 53.4694 35.3871 56.9819C38.2201 59.3067 41.4184 61.3436 43.4933 64.346C43.1068 62.3822 42.774 60.4763 42.4831 58.6235C41.5218 56.8041 39.8186 55.4649 38.0554 54.3871C36.1947 53.2474 34.1923 52.3133 32.4938 50.9399C29.5891 48.5908 27.7405 44.9817 27.5304 41.2538C31.3402 46.6186 37.6099 52.8844 42.3182 57.5601C42.1204 56.2297 41.9475 54.9275 41.7995 53.6534C36.6833 50.0231 33.5541 44.0943 28.5782 40.2397C27.1965 39.1707 25.667 38.2551 24.5092 36.9455C23.3514 35.6359 22.6025 33.7843 23.1626 32.125C24.5125 34.5543 26.6489 36.4486 28.8671 38.1177C31.0877 39.7922 33.4406 41.3071 35.4435 43.2292C37.7165 45.4143 40.1582 48.4513 41.5687 51.5394C41.3497 49.4074 41.1959 47.3607 41.095 45.4077C35.3694 42.9184 30.9279 38.2551 28.998 32.6784C28.8927 32.3776 28.7959 32.0668 28.7125 31.7567C26.8012 30.2929 25.1363 28.353 24.6805 25.9988C25.792 27.131 27.1015 28.0078 28.4777 28.7982C28.6799 27.5883 29.3575 26.3797 30.4941 25.6959C30.5399 27.2234 30.7388 28.7309 31.0728 30.2068C32.5169 30.9747 33.9531 31.7621 35.2436 32.7536C38.0295 34.8917 40.0699 37.9799 40.9583 41.3741C40.9251 39.4892 40.9448 37.6982 41.0008 36.0079C38.1679 33.6379 35.7689 30.7087 34.2365 27.3495C32.798 24.1958 32.1525 20.75 31.5138 17.3433C34.994 22.5253 39.8409 29.364 41.0145 35.5693C41.0994 33.3016 41.2571 31.2128 41.4542 29.3075C38.6642 27.5393 36.8087 24.4985 36.122 21.2672C35.4268 18.0007 35.8496 14.5687 36.9007 11.399C36.7856 15.6303 37.7568 19.8871 39.6986 23.6469C40.5922 25.3757 41.7198 27.176 41.4548 29.1038L41.4718 29.1514C41.5767 28.1832 41.6907 27.2595 41.8125 26.3841C41.7984 26.3966 41.782 26.4036 41.7679 26.416C41.782 26.4036 41.7976 26.3872 41.8156 26.3763C41.9239 25.5907 42.0445 24.8418 42.1627 24.1327C40.4939 21.584 39.7115 18.5453 39.2661 15.5245C39.0385 13.9646 38.889 12.3909 38.4779 10.8702C38.0667 9.34963 37.3699 7.86336 36.2107 6.7934C38.4561 7.63058 40.2655 9.56077 40.9523 11.8587C42.1111 15.7288 40.6784 20.3171 42.1707 24.0453C42.6678 21.1598 43.2248 18.9238 43.6832 17.3595C43.1745 17.2949 42.52 16.5915 42.348 16.1189C42.1714 15.6353 42.1705 15.1093 42.1234 14.5964C42.0339 13.6495 41.7796 12.7178 41.7783 11.7657C41.7721 10.5669 42.1788 9.36688 42.9111 8.41593C43.1841 10.2117 43.2729 12.0374 43.1798 13.8532C43.1213 14.9987 43.1805 16.2008 43.7257 17.209C43.8336 16.8401 43.9391 16.511 44.0327 16.2225L44.0227 16.1913C43.7878 15.8972 43.8084 15.4751 43.9249 15.1187C44.0413 14.7624 44.2435 14.4406 44.3483 14.0795C44.4908 13.6023 44.4516 13.0925 44.5653 12.6082C44.739 11.8625 45.2558 11.2326 45.8696 10.7776C46.4851 10.3188 47.1938 10.0109 47.8954 9.7092C47.4313 10.1973 46.9656 10.6893 46.5661 11.2306C46.1667 11.7719 45.8326 12.3759 45.6607 13.0271C45.5204 13.5551 45.4931 14.106 45.3201 14.6253C45.1139 15.2491 44.6941 15.7958 44.1546 16.1674C43.9805 16.7905 43.8141 17.4168 43.6556 18.0462C44.642 17.2067 45.3711 16.241 45.9596 15.0734C46.4947 14.0158 46.8388 12.8586 47.4706 11.8535C48.4605 10.2859 50.157 9.17987 51.9909 8.91318C51.2212 9.28261 50.617 9.9272 50.1305 10.6283C49.6478 11.331 49.2704 12.0987 48.8376 12.835C47.511 15.0916 45.7767 16.921 43.5846 18.3348C43.2192 19.8369 42.9037 21.3501 42.6405 22.8798C42.7353 22.7459 42.8262 22.6103 42.9233 22.4818C42.848 22.6463 42.7687 22.8092 42.6973 22.9752L42.6144 23.0234C42.4416 24.0367 42.2898 25.054 42.1575 26.0791C44.2626 24.2406 46.0648 22.1304 47.4741 19.8483C48.2415 18.6079 48.9248 17.2838 50.0965 16.3106C51.2134 15.3833 52.6586 14.8783 54.0755 14.4435C57.474 13.3982 60.9467 12.6185 64.4436 12.1159C61.7927 13.1725 59.1364 14.2315 56.4856 15.2881C55.0386 15.8649 53.5753 16.4487 52.3094 17.3295C50.7738 18.3962 49.6204 19.8299 48.3743 21.1673C46.5194 23.161 44.4317 24.6078 42.1432 26.1595C41.8929 28.1068 41.723 30.0683 41.6139 32.0363C43.3639 28.1786 45.2747 24.5625 48.6383 21.9625C50.8641 20.2406 53.5826 19.252 56.3476 18.7217C59.1086 18.1898 61.9365 18.0881 64.7478 17.9934C61.376 19.8606 57.1445 19.5776 53.7455 21.3885C51.7369 22.4594 50.1714 24.1846 48.4761 25.7035C45.979 27.9413 43.218 29.3161 41.616 32.1323C41.5068 34.1682 41.4716 36.2113 41.495 38.2553L41.6084 37.9068C42.1616 35.8822 42.7212 33.8421 43.6168 31.9465C44.5139 30.0469 45.7837 28.2795 47.5133 27.0916C49.3053 25.861 51.4685 25.3283 53.5455 24.6838C57.2525 23.5363 60.8295 21.9694 64.1898 20.0297C61.6626 22.4321 58.8093 24.4856 55.7261 26.1202C53.6338 27.2298 51.4321 28.1503 49.4852 29.4952C46.1771 31.7777 43.7963 35.1319 41.5 38.434C41.5216 39.988 41.5814 41.5482 41.6764 43.1C43.1549 39.4772 45.6534 33.5378 48.4355 31.8181C51.5304 29.9073 54.9569 28.6241 58.3072 27.215C61.6574 25.8059 64.9996 24.2259 67.7414 21.842C65.7009 25.2064 62.4229 27.628 59.0203 29.6051C55.6178 31.5822 52.0078 33.2083 48.7824 35.4653C45.7229 37.6033 42.9697 40.4312 41.7226 43.9297L41.7163 43.9227ZM41.065 44.9651C41.0096 43.8099 40.972 42.6891 40.9499 41.5972C39.4223 39.3954 37.5021 37.4704 35.3046 35.9411C34.3355 35.265 33.3124 34.6668 32.2893 34.0686C34.072 38.3806 37.1008 42.198 41.065 44.9651ZM46.8279 78.1289C46.4838 76.9253 46.1545 75.7413 45.8431 74.569C42.4202 74.5396 39.2419 72.6557 35.8293 72.2633C35.1669 72.1866 34.5036 72.1685 33.8379 72.1675C35.2365 73.8913 37.1536 75.1943 39.2857 75.8181C40.7245 76.2395 42.2351 76.3591 43.6943 76.7071C44.8151 76.9732 45.944 77.4101 46.8224 78.1312L46.8279 78.1289ZM48.8775 84.7689C48.8775 84.7689 48.8791 84.765 48.8767 84.7595C48.8767 84.7595 48.8752 84.7634 48.8775 84.7689ZM49.4823 81.3015C49.9963 82.8591 50.512 84.3675 51.0303 85.8134C51.1388 84.0492 51.3148 82.1399 52.5116 80.846C53.1205 80.1897 53.938 79.758 54.5898 79.1416C55.6194 78.161 56.1499 76.7889 56.7457 75.502C57.168 74.5892 57.6356 73.6992 58.1467 72.8359C57.7582 73.069 57.3806 73.32 57.0185 73.6C55.524 74.7557 54.4092 76.3183 53.233 77.7972C52.1595 79.1453 50.9767 80.472 49.4823 81.3015ZM44.9706 65.2452C45.4289 67.2334 45.9177 69.1795 46.4277 71.0844C46.83 68.8948 47.2597 66.6935 48.0792 64.6268C48.3652 63.9173 48.6956 63.2213 49.0814 62.5566C47.7583 63.5232 46.3846 64.424 44.969 65.249L44.9706 65.2452Z" fill="white"/>
<path d="M54.6922 12.3765C53.0988 11.9789 51.3799 12.4098 49.976 13.2622C48.572 14.1146 47.4441 15.3501 46.444 16.6508C45.0562 18.4522 43.8717 20.4126 42.918 22.4751C44.1337 20.8082 45.5625 19.4221 46.9442 17.8493C49.0648 15.4325 51.5646 13.1096 54.6937 12.3726L54.6922 12.3765Z" fill="white"/>
<g style="mix-blend-mode:multiply">
<path d="M28.8867 61.7397C28.8867 61.7397 28.8867 61.7397 28.8903 61.7412C28.8903 61.7412 28.8933 61.734 28.8896 61.7325L28.8867 61.7397Z" fill="url(#paint0_linear_614_19669)"/>
<path d="M42.9473 22.365C44.163 20.6981 45.5917 19.3119 46.9734 17.7392C49.0941 15.3224 51.5938 12.9995 54.723 12.2625C54.6482 12.2459 54.5733 12.2293 54.5023 12.2143C54.589 12.1904 54.6741 12.1703 54.7592 12.1502C53.1659 11.7526 51.447 12.1835 50.043 13.0359C48.6391 13.8883 47.5111 15.1238 46.511 16.4244C45.1233 18.2259 43.9388 20.1863 42.985 22.2488C43.0038 22.2246 43.0226 22.2005 43.0414 22.1763C43.0163 22.2387 42.9818 22.3018 42.9527 22.3626L42.9473 22.365Z" fill="url(#paint1_linear_614_19669)"/>
<path d="M28.9199 61.626C28.9199 61.626 28.9199 61.626 28.9235 61.6274C28.9235 61.6274 28.9265 61.6202 28.9228 61.6187L28.9199 61.626Z" fill="url(#paint2_linear_614_19669)"/>
<path d="M43.9668 67.3058C42.6886 65.2045 40.8484 63.4522 38.6834 62.2804C36.5068 61.104 34.0523 60.5269 31.8216 59.4509C28.0156 57.6176 24.9473 54.2918 23.4266 50.3527C23.4194 50.4042 23.4139 50.4518 23.4067 50.5033C23.402 50.4923 23.399 50.4775 23.3904 50.465C23.1045 52.3209 23.7042 54.2393 24.7395 55.8076C25.7749 57.3759 27.2153 58.6363 28.7287 59.7493C33.3133 63.1245 38.641 65.3084 43.9361 67.4157C43.8995 67.3602 43.863 67.3047 43.832 67.2469C43.8787 67.2657 43.9255 67.2846 43.9723 67.3035L43.9668 67.3058Z" fill="white"/>
<path d="M59.5297 105.677L59.4687 105.738C59.4866 105.772 59.4974 105.79 59.4974 105.79L57.9105 107.367C54.4211 99.8017 51.6033 92.6618 49.3448 85.9557C48.8457 86.1034 47.7384 86.3322 45.2855 86.6167C40.7966 87.1409 39.2469 82.6781 39.2469 82.6781C39.3697 82.8681 39.5058 83.0362 39.6521 83.1904C39.6436 83.1552 39.6351 83.1201 39.6266 83.0849C40.8248 84.1932 42.6257 84.312 44.2525 84.1884C45.7574 84.0746 47.3034 83.8141 48.7549 84.1591C48.4414 83.1944 48.138 82.2383 47.8432 81.2948C46.1917 81.6033 44.5419 81.9079 42.8904 82.2165C41.6848 82.4419 40.4394 82.6649 39.2453 82.401C38.1954 82.1727 37.2519 81.5794 36.4617 80.853C35.6699 80.1305 35.0088 79.275 34.3556 78.4225C34.3992 78.4265 34.4453 78.436 34.489 78.4401C34.4571 78.3955 34.4236 78.3548 34.3879 78.3087C37.0374 78.6155 39.417 80.0414 41.9953 80.7273C43.8702 81.2248 45.8444 81.3183 47.7581 81.0112C47.4672 80.0692 47.1903 79.1374 46.9235 78.2143C43.8876 78.7985 40.6762 79.3346 37.7978 78.2241C36.1161 77.5734 34.6521 76.3715 33.69 74.8463C33.1538 73.9958 32.7755 73.0458 32.5698 72.0611C31.8728 72.0701 31.1751 72.0698 30.4807 72.0165C28.686 71.8821 26.8051 71.3323 25.6584 69.9502C25.7208 69.9753 25.7863 69.9927 25.8502 70.0139C25.7965 69.956 25.7428 69.8981 25.6946 69.8379C28.9949 71.0596 32.6378 68.2277 36.0704 69.0088C37.901 69.425 39.3372 70.7969 40.8162 71.9505C42.225 73.0531 43.962 74.0388 45.7047 73.7625C45.6529 73.5649 45.6012 73.3673 45.551 73.1658C45.5309 73.0807 45.5069 72.994 45.4853 72.9128C45.4359 72.7207 45.3864 72.5285 45.3409 72.338C45.2568 71.9959 45.171 71.6578 45.0853 71.3196C44.1732 71.5138 43.1781 71.2622 42.3309 70.8346C41.3286 70.3309 40.4549 69.5981 39.4824 69.0429C37.9208 68.1506 36.148 67.726 34.4521 67.133C33.1617 66.6808 31.881 66.1146 30.8383 65.2276C29.7996 64.3421 29.0077 63.103 28.8997 61.7409C28.9176 61.7526 28.934 61.7683 28.948 61.7785C28.9419 61.7262 28.9342 61.6777 28.932 61.627C31.7614 63.8596 35.1022 65.1157 38.336 66.7048C40.6251 67.8269 42.7762 69.2016 44.9101 70.5965C44.6615 69.5719 44.4293 68.5629 44.2072 67.5626L43.9889 67.4972C43.9718 67.4722 43.9563 67.4433 43.9391 67.4183C44.0249 67.4528 44.1107 67.4874 44.1964 67.522C44.1903 67.4923 44.1841 67.4626 44.1779 67.4329L44.0196 67.3873C44.0025 67.3622 43.987 67.3333 43.9699 67.3083C44.0361 67.335 44.0985 67.3602 44.1648 67.3869C43.945 66.392 43.7393 65.4073 43.546 64.4367C40.6093 62.3693 37.45 60.629 34.4655 58.6239C31.164 56.4048 28.0165 53.7812 25.9887 50.3582C24.9282 48.5713 24.1926 46.3942 24.7902 44.4283C24.8265 44.2934 24.8721 44.1577 24.9217 44.0236C27.5676 48.8921 31.1615 53.2409 35.4461 56.7535C38.2386 59.0437 41.3839 61.0547 43.4645 63.987C43.0949 62.0934 42.769 60.2491 42.4889 58.4596C41.5221 56.6652 39.8368 55.3378 38.0891 54.2663C36.2285 53.1265 34.226 52.1924 32.5276 50.819C29.6228 48.4699 27.7743 44.8609 27.5642 41.1329C27.5789 41.1525 27.596 41.1775 27.6108 41.1971C27.6079 41.137 27.6033 41.0808 27.6004 41.0207C31.3907 46.355 37.6058 52.5761 42.3041 57.2432C42.1186 55.9722 41.9487 54.73 41.8052 53.5122C36.7078 49.8804 33.5761 43.9688 28.6119 40.1188C27.2303 39.0498 25.7007 38.1342 24.5429 36.8246C23.4038 35.5362 22.6595 33.7181 23.1727 32.0853C23.19 32.0198 23.2097 31.9597 23.2309 31.8958C24.5808 34.325 26.7173 36.2194 28.9355 37.8884C31.156 39.563 33.5089 41.0778 35.5118 43C37.7358 45.1381 40.116 48.0914 41.5401 51.1124C41.3371 49.0866 41.1878 47.1414 41.0882 45.2751C35.3813 42.7842 30.9593 38.1288 29.034 32.563C28.9287 32.2622 28.832 31.9514 28.7485 31.6413C27.3778 30.5903 26.1341 29.2914 25.3702 27.7691C25.0278 27.1235 24.769 26.4392 24.6273 25.7114C24.6725 25.7568 24.7176 25.8022 24.7666 25.8491C24.7589 25.8234 24.7551 25.7992 24.7489 25.7695C25.858 26.8963 27.1621 27.7754 28.5344 28.5642C28.5668 28.4051 28.6031 28.2476 28.6488 28.0893C28.663 28.0315 28.6811 27.9754 28.7008 27.9154C28.7055 27.9037 28.7118 27.8881 28.7165 27.8764C28.7361 27.8163 28.7558 27.7563 28.7794 27.6978C28.7857 27.6822 28.792 27.6666 28.7998 27.6472C28.8218 27.5926 28.8438 27.538 28.8674 27.4795C28.8752 27.4601 28.8831 27.4406 28.8909 27.4211C28.9129 27.3665 28.9373 27.3174 28.9616 27.2683C28.971 27.2449 28.9805 27.2215 28.9938 27.1997C29.0181 27.1506 29.0424 27.1015 29.0691 27.0579C29.0801 27.0306 29.0973 27.0103 29.1122 26.9846C29.1389 26.941 29.1616 26.8958 29.1883 26.8522C29.2032 26.8264 29.2235 26.7984 29.2384 26.7727C29.2635 26.7329 29.2902 26.6893 29.3191 26.6511C29.3395 26.6231 29.3599 26.5951 29.3802 26.567C29.4092 26.5289 29.4327 26.493 29.4617 26.4549C29.4821 26.4268 29.5079 26.3964 29.5322 26.37C29.5596 26.3357 29.587 26.3015 29.6183 26.2688C29.6441 26.2384 29.6739 26.2096 29.6997 26.1792C29.7294 26.1504 29.7568 26.1162 29.7866 26.0874C29.8163 26.0586 29.8476 26.0259 29.8812 25.9986C29.9094 25.9737 29.9352 25.9434 29.9673 25.9201C30.0025 25.8889 30.0377 25.8578 30.0768 25.8283C30.1034 25.8072 30.1316 25.7823 30.1581 25.7613C30.1988 25.7279 30.2434 25.696 30.288 25.6642C30.313 25.647 30.3341 25.6284 30.3591 25.6113C30.4287 25.5623 30.5006 25.5188 30.5725 25.4753C30.579 25.6954 30.5909 25.9131 30.6028 26.1309C30.6073 26.2097 30.6133 26.2847 30.6178 26.3635C30.6268 26.4986 30.6381 26.6391 30.6471 26.7741C30.657 26.8733 30.663 26.9708 30.6744 27.0661C30.6851 27.1746 30.698 27.2886 30.7087 27.3971C30.7216 27.511 30.7346 27.625 30.7491 27.7351C30.7568 27.7835 30.7606 27.8303 30.7682 27.8788C30.8118 28.209 30.8648 28.5385 30.9217 28.8695C30.9217 28.8695 30.9224 28.8789 30.9248 28.8844C30.9532 29.0499 30.9855 29.217 31.0218 29.3857C31.0279 29.4154 31.0341 29.445 31.0402 29.4747C31.0749 29.6473 31.1111 29.8159 31.1497 29.9901C32.5938 30.758 34.03 31.5454 35.3206 32.5369C38.02 34.6084 40.0147 37.5739 40.9479 40.8457C40.9221 39.0998 40.9367 37.4336 40.9886 35.8549C38.1806 33.4905 35.8042 30.584 34.2811 27.2466C32.8426 24.0929 32.1971 20.6471 31.5584 17.2404C31.5841 17.2779 31.6098 17.3154 31.6354 17.353C31.62 17.2788 31.6062 17.2007 31.5946 17.1281C35.0064 22.2101 39.7328 28.8869 41.0229 34.9942C41.1081 32.8942 41.2491 30.9482 41.435 29.1607C38.6824 27.3895 36.8549 24.369 36.172 21.1619C35.5208 18.09 35.8549 14.8669 36.7721 11.8607C36.8406 11.6346 36.9091 11.4084 36.9854 11.1855C36.8703 15.4167 37.8415 19.6734 39.7833 23.4333C40.5341 24.887 41.4533 26.3949 41.5661 27.981C41.7363 26.5135 41.9327 25.1607 42.142 23.922C40.5185 21.396 39.7507 18.3994 39.3146 15.4232C39.087 13.8633 38.9375 12.2895 38.5264 10.7689C38.1152 9.2483 37.4184 7.76204 36.2576 6.69597C36.3434 6.73054 36.4252 6.76354 36.511 6.79811C36.4409 6.72456 36.3654 6.65335 36.2922 6.5876C38.5377 7.42478 40.347 9.35496 41.0339 11.6528C42.1741 15.4566 40.8079 19.9585 42.1825 23.6528C42.6542 20.9202 43.1829 18.777 43.6248 17.2423C43.1366 17.1044 42.5553 16.4668 42.395 16.0215C42.2183 15.5379 42.2174 15.0119 42.1704 14.499C42.0808 13.5521 41.8266 12.6204 41.8252 11.6682C41.8243 11.1196 41.9085 10.5735 42.066 10.0479C42.2575 9.38193 42.5705 8.75139 42.9903 8.20465C43.2633 10.0004 43.3521 11.8261 43.259 13.6419C43.2038 14.7344 43.2546 15.8786 43.7335 16.8601C43.8288 16.5451 43.9185 16.255 43.9996 15.9977C43.8373 15.7147 43.8601 15.3433 43.9663 15.0236C43.9679 15.0197 43.971 15.0119 43.9742 15.0041C43.9868 14.9729 43.9915 14.9386 44.0025 14.9113C44.1135 14.5799 44.2922 14.2714 44.4032 13.94C44.5261 13.4775 44.4994 12.9819 44.6107 12.5147C44.6241 12.4476 44.6469 12.3798 44.6682 12.3158C44.8581 11.6085 45.3585 11.0081 45.9473 10.5703C46.5627 10.1115 47.2714 9.80354 47.9731 9.50182C47.9191 9.55709 47.869 9.61392 47.815 9.66918C47.8587 9.65057 47.897 9.63429 47.9408 9.61568C47.4766 10.1038 47.011 10.5958 46.6115 11.1371C46.2614 11.6122 45.9619 12.1304 45.7785 12.6864C45.7651 12.7308 45.7517 12.7753 45.7384 12.8197C45.6067 13.3149 45.5733 13.8362 45.4245 14.329C45.4071 14.3945 45.3882 14.4639 45.367 14.5279C45.1624 15.1478 44.7426 15.6945 44.2031 16.0661C44.0392 16.6526 43.8831 17.2422 43.7348 17.8349C44.7212 16.9955 45.4504 16.0297 46.0388 14.8622C46.5739 13.8045 46.9181 12.6473 47.5498 11.6422C48.5397 10.0746 50.2362 8.9686 52.0702 8.70192C51.9701 8.7477 51.8748 8.80441 51.7794 8.86113C51.863 8.84496 51.9504 8.83037 52.0379 8.81578C51.2681 9.18521 50.6639 9.82979 50.1774 10.5309C49.6909 11.232 49.3173 12.0013 48.8845 12.7376C47.5595 14.9903 45.8268 16.8158 43.6385 18.2311C43.2834 19.6966 42.9766 21.1771 42.7198 22.6686C42.8146 22.5346 42.9055 22.399 43.0026 22.2705C42.9759 22.3368 42.9429 22.396 42.9123 22.4607C42.9311 22.4366 42.9476 22.407 42.9664 22.3828C42.891 22.5473 42.8118 22.7102 42.7403 22.8762L42.6738 22.9174C42.6627 22.99 42.6516 23.0625 42.6366 23.1335C42.4976 24.0291 42.3797 24.9286 42.2735 25.8328C44.3567 24.0036 46.1503 21.9036 47.5534 19.637C48.3207 18.3966 49.004 17.0725 50.1757 16.0993C51.2927 15.172 52.7379 14.667 54.1547 14.2322C57.5532 13.187 61.0259 12.4072 64.5228 11.9046C64.3767 11.9636 64.2306 12.0225 64.0845 12.0814C64.2188 12.063 64.3547 12.0408 64.4905 12.0185C61.8397 13.0751 59.1834 14.1341 56.5325 15.1907C55.0856 15.7675 53.6223 16.3512 52.3564 17.2321C50.8207 18.2987 49.6673 19.7324 48.4213 21.0699C46.5835 23.0434 44.5177 24.4809 42.2566 26.0209C42.0496 27.8497 41.908 29.6958 41.8258 31.5522C43.5388 27.7975 45.4399 24.2953 48.7222 21.7622C50.948 20.0402 53.6665 19.0517 56.4315 18.5214C59.1925 17.9895 62.0203 17.8878 64.8317 17.7931C64.7559 17.835 64.6817 17.8731 64.6074 17.9111C64.6714 17.9097 64.7354 17.9083 64.801 17.903C61.4292 19.7702 57.1976 19.4873 53.7987 21.2981C51.7901 22.369 50.2246 24.0942 48.5293 25.6131C46.1135 27.7841 43.447 29.138 41.8252 31.7786C41.7468 33.6592 41.7277 35.5502 41.7616 37.4444C41.9397 36.8002 42.1178 36.156 42.3076 35.5166C42.6919 34.226 43.1269 32.9558 43.7022 31.7422C44.5994 29.8427 45.8692 28.0753 47.5987 26.8874C49.3908 25.6568 51.554 25.1241 53.6309 24.4795C57.338 23.3321 60.915 21.7652 64.2753 19.8254C64.1892 19.904 64.1071 19.9842 64.021 20.0628C64.0968 20.0208 64.1688 19.9773 64.2446 19.9354C61.7173 22.3378 58.864 24.3913 55.7808 26.0259C53.6886 27.1355 51.4868 28.056 49.54 29.4009C46.3389 31.6088 44.0054 34.8234 41.7796 38.0181C41.8155 39.469 41.8834 40.9192 41.9795 42.3672C43.4806 38.7219 45.8717 33.2512 48.5265 31.6116C51.6214 29.7007 55.0478 28.4175 58.3981 27.0084C61.7484 25.5994 65.0905 24.0193 67.8324 21.6354C67.7955 21.6931 67.7571 21.7546 67.7203 21.8123C67.7469 21.7913 67.7735 21.7703 67.7962 21.7477C65.7557 25.1122 62.4776 27.5337 59.075 29.5108C55.6725 31.4879 52.0625 33.114 48.8372 35.371C45.9707 37.3784 43.3711 39.9828 42.0319 43.1813C42.0967 44.0548 42.1685 44.9221 42.2536 45.7901C42.6633 44.9086 43.1884 44.078 43.8164 43.3297C44.7613 42.2107 45.9111 41.2921 47.0537 40.3797C49.1693 38.695 51.281 37.0086 53.4962 35.4592C57.2814 32.8025 61.3387 30.5501 65.3795 28.3047C65.3404 28.3569 65.3012 28.4091 65.2605 28.4652C65.2894 28.4496 65.3183 28.4341 65.3472 28.4186C62.1943 32.7892 58.1222 36.4947 53.4775 39.2263C51.274 40.5222 48.9344 41.6046 46.835 43.0693C45.0586 44.3062 43.431 45.8706 42.4597 47.7855C42.6313 49.3047 42.8309 50.8216 43.054 52.3253C43.1021 52.1272 43.1596 51.9284 43.2194 51.735C43.9896 49.1725 45.6892 46.8896 47.7161 45.1102C50.2484 42.8865 53.2869 41.3291 56.2762 39.7699C59.2656 38.2108 62.2832 36.6042 64.7508 34.3046C64.7335 34.3475 64.7163 34.3904 64.699 34.4332C64.7021 34.4254 64.7131 34.4208 64.7185 34.4185C63.4627 37.6687 60.7432 40.1433 57.8255 42.053C54.9078 43.9627 51.7189 45.4323 48.8518 47.4077C46.5905 48.9703 44.4937 50.9345 43.2066 53.3294C43.5411 55.4671 43.921 57.5823 44.3439 59.6696C44.5364 58.8772 44.7461 58.0872 44.9808 57.3027C45.8534 54.3737 47.1041 51.5971 49.382 49.6334C52.0917 47.2954 56.0708 46.5295 59.4587 47.6913C59.404 47.7146 59.3493 47.7379 59.2946 47.7611C59.3375 47.7784 59.3835 47.7879 59.4264 47.8052C52.7885 50.5353 47.4242 56.1986 45.0453 62.9657C45.154 63.4491 45.2627 63.9325 45.3754 64.4174C48.563 60.242 51.7849 56.0714 55.4248 52.2914C55.6979 52.0072 55.9695 51.727 56.245 51.4483C58.6513 49.0198 61.2421 46.7744 63.9854 44.7354C62.9574 46.836 61.768 48.8533 60.4393 50.7782C58.7414 53.2703 56.8043 55.6025 54.6665 57.736C55.9779 57.3267 57.3807 57.2079 58.7365 57.4191C58.6615 57.4478 58.5865 57.4765 58.5076 57.5036C58.5724 57.5116 58.6371 57.5195 58.7003 57.5314C54.8444 58.9134 51.6573 62.0422 50.2048 65.8703C49.4785 67.7843 48.4116 69.5655 47.0752 71.1158C47.3426 72.0936 47.6186 73.0613 47.897 74.0119C49.957 69.5088 52.4411 65.145 55.9406 61.6572C59.7319 57.8838 64.8619 55.2074 70.2092 55.2966C70.0858 55.333 69.9624 55.3693 69.8413 55.4111C69.9544 55.4114 70.0637 55.4102 70.1769 55.4105C65.1828 56.8729 60.8149 60.0196 57.186 63.7498C53.8028 67.2301 51.0021 71.2215 48.2536 75.2295C48.4516 75.8848 48.6473 76.5347 48.8501 77.1783C49.9216 74.8461 51.354 72.6866 53.0792 70.79C56.6289 66.8966 61.2968 64.2423 65.881 61.6495C65.8348 61.7079 65.7847 61.7647 65.7385 61.8232C65.7745 61.8014 65.8104 61.7796 65.8487 61.7634C64.2764 63.6853 62.6917 65.6157 60.773 67.1941C59.0664 68.5951 57.1295 69.6903 55.3513 70.999C52.8739 72.828 50.7116 75.0785 48.9862 77.6274C49.2942 78.6171 49.61 79.5872 49.9243 80.5386C50.9905 79.029 52.0544 77.5139 53.1206 76.0043C54.2934 74.3427 55.4779 72.6633 57.0042 71.3164C58.2543 70.2162 59.7105 69.3578 61.1699 68.5141C61.6623 67.9332 62.175 67.3696 62.7064 66.827C63.1346 66.0345 63.4013 65.5302 63.4013 65.5302C63.4013 65.5302 63.1847 65.9776 62.8144 66.7165C62.8371 66.6939 62.8613 66.6674 62.884 66.6449C62.8683 66.6838 62.8565 66.7244 62.8463 66.761C62.8463 66.761 62.8463 66.761 62.8478 66.7571C62.8053 66.885 62.7644 67.009 62.7258 67.1385C62.9009 66.7378 63.0776 66.3332 63.2488 65.931C63.1179 66.4356 63.0276 66.952 62.956 67.4669C64.5632 66.4925 66.0723 65.4242 67.2063 63.9374C67.1961 63.974 67.1843 64.0146 67.174 64.0513C66.5002 66.4985 64.9521 68.6975 62.8731 70.1568C62.823 70.191 61.4853 71.0927 61.4352 71.1269C61.3391 72.647 60.5794 73.9358 59.8729 75.4409C58.8949 77.5299 57.4571 79.3655 55.6302 80.7724C53.6204 82.3186 52.8395 83.3677 51.1631 85.1208C55.4143 97.012 59.8743 105.226 59.8743 105.226L59.4933 105.598C59.529 105.667 59.5453 105.705 59.5453 105.705L59.5297 105.677ZM40.0429 43.9338C40.3708 44.1883 40.7057 44.4366 41.0477 44.6787C40.9952 43.561 40.9584 42.4722 40.937 41.4123C39.4194 39.2417 37.5124 37.3401 35.3406 35.8257C34.4035 35.1715 33.4178 34.5929 32.4321 34.0143C32.4903 34.1511 32.5461 34.2823 32.6043 34.4191C32.6338 34.4808 32.6594 34.541 32.6873 34.6066C32.7649 34.7738 32.8425 34.941 32.9201 35.1083C32.9519 35.1755 32.9853 35.2388 33.0171 35.306C33.0869 35.4474 33.1607 35.5904 33.2345 35.7335C33.2725 35.8077 33.3105 35.8819 33.3502 35.9523C33.4193 36.0844 33.4899 36.2125 33.5606 36.3407C33.6002 36.4111 33.636 36.4798 33.6756 36.5502C33.7633 36.7034 33.8511 36.8566 33.9405 37.0059C33.984 37.0778 34.0275 37.1497 34.0733 37.2271C34.1386 37.335 34.2078 37.4444 34.273 37.5523C34.336 37.6547 34.4028 37.7587 34.4712 37.8588C34.5381 37.9627 34.6088 38.0683 34.6795 38.1738C34.7332 38.2544 34.7907 38.3365 34.8443 38.417C34.9361 38.5491 35.0278 38.6813 35.1235 38.815C35.1849 38.8987 35.2486 38.9878 35.3101 39.0715C35.3668 39.1442 35.4181 39.2193 35.4749 39.292C35.5807 39.4343 35.688 39.5728 35.7993 39.7128C35.8498 39.7784 35.9004 39.8441 35.9564 39.9075C36.0318 40.0014 36.1073 40.0952 36.1866 40.1906C36.2263 40.2384 36.266 40.2861 36.3095 40.3353C36.4472 40.4996 36.5865 40.66 36.7297 40.8219C36.767 40.8641 36.8044 40.9064 36.8417 40.9486C37.0176 41.1419 37.1934 41.3351 37.3725 41.5206C37.3802 41.5237 37.3849 41.5346 37.3911 41.5417C37.49 41.645 37.5888 41.7482 37.6892 41.8476C37.7017 41.8617 37.7157 41.8719 37.7281 41.886C37.9188 42.0761 38.1111 42.2624 38.3073 42.4502C38.3236 42.4659 38.3439 42.4831 38.3602 42.4987C38.8966 43.0004 39.4557 43.4796 40.0374 43.9361C40.0374 43.9361 40.0374 43.9361 40.0413 43.9377L40.0429 43.9338ZM43.7666 76.4795C44.853 76.7407 45.9422 77.1526 46.8137 77.8347C46.4859 76.692 46.1744 75.565 45.8792 74.4536C42.4563 74.4242 39.2779 72.5403 35.8653 72.1479C35.2466 72.0753 34.6286 72.0572 34.0042 72.0548C35.3944 73.7208 37.2727 74.9855 39.3564 75.5943C40.7951 76.0157 42.3058 76.1353 43.765 76.4834L43.7666 76.4795ZM49.0713 62.477C47.9069 63.3308 46.6998 64.1221 45.4585 64.8633C45.8505 66.5212 46.2636 68.1604 46.6925 69.7607C46.9354 68.5173 47.2033 67.2795 47.5734 66.0692C47.7427 65.5031 47.9315 64.9448 48.1476 64.3975C48.4131 63.7388 48.7176 63.0957 49.0674 62.4754L49.0713 62.477ZM58.1405 72.7578C57.7684 72.9839 57.4033 73.2264 57.0608 73.4917C55.5663 74.6474 54.4515 76.21 53.2753 77.6889C52.3286 78.8796 51.2937 80.053 50.0295 80.8846C50.4135 82.0454 50.803 83.1812 51.1895 84.2795C51.2574 83.7178 51.3556 83.1593 51.517 82.6353C51.7305 81.8921 52.0594 81.1999 52.5885 80.6293C53.1974 79.973 54.0149 79.5413 54.6667 78.9249C55.6964 77.9443 56.2268 76.5722 56.8226 75.2852C57.2206 74.4216 57.6638 73.5807 58.1429 72.7633L58.1405 72.7578ZM42.253 25.9061C42.253 25.9061 42.253 25.9061 42.2514 25.91C42.2546 25.9022 42.2655 25.8976 42.2725 25.8914C42.2655 25.8976 42.26 25.8999 42.253 25.9061Z" fill="white"/>
</g>
<path d="M248.145 61.8496C248.145 61.8496 248.145 61.8496 248.141 61.8511C248.141 61.8511 248.138 61.8438 248.142 61.8423L248.145 61.8496Z" fill="white"/>
<path d="M245.242 59.6787C249.048 57.8454 252.116 54.5196 253.637 50.5805C253.923 52.4364 253.323 54.3548 252.288 55.9231C251.252 57.4914 249.812 58.7518 248.299 59.8649C243.714 63.24 238.386 65.4239 233.091 67.5313C234.369 65.43 236.21 63.6777 238.375 62.5059C240.551 61.3294 243.006 60.7523 245.236 59.6764L245.242 59.6787Z" fill="white"/>
<path d="M235.286 43.9222C235.229 44.7925 235.158 45.6637 235.081 46.5286C234.644 45.445 234.034 44.4266 233.28 43.5342C232.335 42.4152 231.186 41.4966 230.043 40.5842C227.927 38.8995 225.816 37.2131 223.601 35.6637C219.815 33.007 215.758 30.7546 211.717 28.5092C214.87 32.8798 218.942 36.5853 223.587 39.3169C225.791 40.6128 228.13 41.6953 230.229 43.16C232.19 44.5267 233.976 46.2943 234.889 48.4911C234.707 50.2094 234.486 51.9207 234.236 53.6165C233.821 50.3717 231.842 47.4761 229.379 45.3108C226.847 43.0871 223.808 41.5297 220.819 39.9706C217.83 38.4114 214.812 36.8048 212.344 34.5052C213.6 37.7555 216.32 40.23 219.237 42.1397C222.155 44.0494 225.344 45.519 228.211 47.4945C230.667 49.1916 232.932 51.3598 234.173 54.0451C233.828 56.3366 233.425 58.6064 232.979 60.8389C232.039 56.7769 230.85 52.5345 227.713 49.834C225.004 47.496 221.024 46.7302 217.636 47.8919C224.415 50.6787 229.868 56.5283 232.169 63.4852L232.629 62.5342C232.447 63.3869 232.262 64.2318 232.07 65.0705C228.572 60.4854 225.054 55.895 220.997 51.7984C218.59 49.3699 215.999 47.1245 213.256 45.0855C215.598 49.8602 218.762 54.2261 222.54 57.9644C221.197 57.5224 219.75 57.3944 218.357 57.6158C222.213 58.9978 225.404 62.1251 226.853 65.9547C227.655 68.0691 228.872 70.0208 230.407 71.6814C230.112 72.7701 229.811 73.8432 229.501 74.8969C227.38 70.1513 224.825 65.5215 221.145 61.8571C217.354 58.0837 212.224 55.4072 206.877 55.4965C211.871 56.9589 216.239 60.1056 219.868 63.8358C223.42 67.4881 226.329 71.7032 229.207 75.9083C228.989 76.6394 228.769 77.3627 228.547 78.0727C227.448 75.4799 225.906 73.0701 224.007 70.9899C220.457 67.0964 215.789 64.4422 211.205 61.8493C212.777 63.7713 214.362 65.7017 216.281 67.2801C217.987 68.6811 219.924 69.7763 221.702 71.085C224.377 73.0563 226.682 75.5257 228.469 78.3265C228.158 79.3217 227.846 80.2996 227.529 81.2565C226.341 79.5692 225.155 77.8859 223.968 76.1986C222.795 74.5371 221.61 72.8577 220.084 71.5108C218.834 70.4106 217.378 69.5521 215.918 68.7085C215.373 68.063 214.799 67.4378 214.2 66.8408L214.547 67.9153C212.782 66.8735 211.105 65.7502 209.872 64.131C210.546 66.5782 212.096 68.7812 214.173 70.2366C214.623 70.5538 215.094 70.835 215.577 71.0983C215.909 72.1245 216.243 73.1452 216.575 74.1714C216.995 75.4611 217.422 76.7664 218.164 77.8992C219.241 79.536 220.891 80.6835 222.415 81.9133C223.837 83.0575 225.231 84.3805 225.864 86.0739C221.596 98.0128 217.526 105.902 217.526 105.902L219.113 107.478C222.635 99.837 225.476 92.633 227.745 85.873C227.889 85.9374 228.07 85.9369 228.231 85.931C229.818 85.844 231.401 85.7586 232.988 85.6716C233.893 85.6239 234.818 85.5684 235.656 85.2306C236.498 84.8912 237.251 84.207 237.432 83.3184C236.234 84.4267 234.433 84.5455 232.806 84.4219C231.277 84.3042 229.705 84.036 228.229 84.4091C228.557 83.4023 228.875 82.404 229.179 81.416C230.831 81.7245 232.481 82.0291 234.132 82.3377C235.338 82.5631 236.583 82.7861 237.777 82.5222C238.827 82.2939 239.771 81.7005 240.561 80.9742C241.353 80.2517 242.012 79.3922 242.667 78.5437C240.017 78.8505 237.638 80.2765 235.059 80.9624C233.163 81.4638 231.167 81.5574 229.233 81.2355C229.533 80.2584 229.822 79.2899 230.099 78.3354C233.135 78.9197 236.346 79.4558 239.225 78.3453C240.906 77.6946 242.37 76.4927 243.332 74.9675C243.869 74.117 244.247 73.1669 244.453 72.1823C245.15 72.1913 245.847 72.191 246.542 72.1376C248.336 72.0033 250.217 71.4535 251.364 70.0714C248.064 71.293 244.421 68.4612 240.988 69.2423C239.158 69.6585 237.72 71.0265 236.242 72.184C234.816 73.2983 233.057 74.2973 231.296 73.9875C231.522 73.1308 231.736 72.2788 231.941 71.4392C232.853 71.6335 233.848 71.3818 234.699 70.9527C235.702 70.4489 236.575 69.7161 237.548 69.161C239.109 68.2686 240.882 67.844 242.578 67.251C243.869 66.7988 245.149 66.2327 246.192 65.3456C247.231 64.4602 248.023 63.2211 248.131 61.8589C245.301 64.0915 241.96 65.3476 238.727 66.9367C236.41 68.0698 234.235 69.4633 232.081 70.8754C232.339 69.7969 232.585 68.7325 232.815 67.6838L233.041 67.6153C233.058 67.5903 233.074 67.5613 233.091 67.5363C233.001 67.5725 232.916 67.607 232.826 67.6432C233.053 66.5999 233.27 65.5746 233.469 64.561C236.409 62.492 239.572 60.7502 242.559 58.7396C245.861 56.5206 249.008 53.8969 251.036 50.4739C252.147 48.5987 252.908 46.2936 252.139 44.2516C249.493 49.1201 245.899 53.4689 241.615 56.9815C238.782 59.3062 235.584 61.3431 233.509 64.3455C233.895 62.3817 234.228 60.4758 234.519 58.623C235.48 56.8036 237.183 55.4645 238.947 54.3866C240.807 53.2469 242.81 52.3128 244.508 50.9394C247.413 48.5903 249.261 44.9813 249.472 41.2533C245.662 46.6181 239.392 52.8839 234.684 57.5596C234.882 56.2292 235.054 54.927 235.202 53.6529C240.319 50.0226 243.448 44.0939 248.424 40.2392C249.805 39.1702 251.335 38.2546 252.493 36.945C253.651 35.6355 254.399 33.7838 253.839 32.1245C252.489 34.5538 250.353 36.4481 248.135 38.1172C245.914 39.7917 243.561 41.3066 241.558 43.2287C239.285 45.4138 236.844 48.4508 235.433 51.5389C235.652 49.4069 235.806 47.3602 235.907 45.4072C241.633 42.9179 246.074 38.2546 248.004 32.6779C248.109 32.3771 248.206 32.0663 248.289 31.7562C250.201 30.2925 251.866 28.3525 252.321 25.9983C251.21 27.1305 249.9 28.0074 248.524 28.7977C248.322 27.5878 247.644 26.3792 246.508 25.6954C246.462 27.2229 246.263 28.7304 245.929 30.2063C244.485 30.9743 243.049 31.7617 241.758 32.7532C238.972 34.8912 236.932 37.9794 236.044 41.3736C236.077 39.4887 236.057 37.6977 236.001 36.0074C238.834 33.6374 241.233 30.7083 242.765 27.349C244.204 24.1953 244.849 20.7495 245.488 17.3428C242.008 22.5248 237.161 29.3635 235.987 35.5688C235.903 33.3011 235.745 31.2123 235.548 29.307C238.338 27.5388 240.193 24.498 240.88 21.2667C241.575 18.0002 241.152 14.5682 240.101 11.3986C240.216 15.6298 239.245 19.8866 237.303 23.6464C236.41 25.3752 235.282 27.1755 235.547 29.1033L235.53 29.1509C235.425 28.1827 235.311 27.259 235.189 26.3836C235.204 26.3961 235.22 26.4031 235.234 26.4155C235.22 26.4031 235.204 26.3867 235.186 26.3759C235.078 25.5902 234.957 24.8413 234.839 24.1322C236.508 21.5835 237.29 18.5448 237.736 15.5241C237.963 13.9641 238.113 12.3904 238.524 10.8698C238.935 9.34914 239.632 7.86287 240.791 6.79291C238.546 7.63009 236.737 9.56028 236.05 11.8582C234.891 15.7283 236.324 20.3166 234.831 24.0448C234.334 21.1593 233.777 18.9233 233.319 17.359C233.827 17.2944 234.482 16.591 234.654 16.1184C234.831 15.6348 234.831 15.1088 234.879 14.596C234.968 13.649 235.222 12.7173 235.224 11.7652C235.23 10.5664 234.823 9.36639 234.091 8.41544C233.818 10.2112 233.729 12.0369 233.822 13.8527C233.881 14.9982 233.821 16.2003 233.276 17.2085C233.168 16.8396 233.063 16.5106 232.969 16.222L232.979 16.1908C233.214 15.8967 233.194 15.4746 233.077 15.1182C232.961 14.7619 232.758 14.4401 232.654 14.079C232.511 13.6018 232.55 13.092 232.437 12.6077C232.263 11.8621 231.746 11.2321 231.132 10.7772C230.517 10.3183 229.808 10.0104 229.107 9.70871C229.571 10.1968 230.036 10.6888 230.436 11.2301C230.835 11.7715 231.169 12.3754 231.341 13.0266C231.482 13.5546 231.509 14.1055 231.682 14.6248C231.888 15.2486 232.308 15.7954 232.847 16.167C233.021 16.7901 233.188 17.4163 233.346 18.0457C232.36 17.2062 231.631 16.2405 231.042 15.0729C230.507 14.0153 230.163 12.8581 229.531 11.853C228.541 10.2854 226.845 9.17938 225.011 8.91269C225.781 9.28212 226.385 9.92671 226.871 10.6278C227.354 11.3305 227.732 12.0982 228.164 12.8345C229.491 15.0911 231.225 16.9205 233.417 18.3343C233.783 19.8364 234.098 21.3496 234.361 22.8794C234.267 22.7454 234.176 22.6098 234.079 22.4813C234.154 22.6458 234.233 22.8087 234.305 22.9747L234.388 23.0229C234.56 24.0362 234.712 25.0535 234.844 26.0786C232.739 24.2401 230.937 22.1299 229.528 19.8478C228.76 18.6074 228.077 17.2833 226.905 16.3101C225.789 15.3828 224.343 14.8778 222.926 14.443C219.528 13.3977 216.055 12.618 212.558 12.1154C215.209 13.1721 217.866 14.231 220.516 15.2877C221.963 15.8644 223.427 16.4482 224.693 17.329C226.228 18.3957 227.382 19.8294 228.628 21.1668C230.483 23.1606 232.57 24.6074 234.859 26.159C235.109 28.1063 235.279 30.0679 235.388 32.0358C233.638 28.1781 231.727 24.562 228.364 21.962C226.138 20.2401 223.419 19.2515 220.654 18.7212C217.893 18.1893 215.066 18.0876 212.254 17.9929C215.626 19.8601 219.857 19.5772 223.256 21.388C225.265 22.4589 226.831 24.1841 228.526 25.703C231.023 27.9409 233.784 29.3156 235.386 32.1318C235.495 34.1677 235.53 36.2108 235.507 38.2548L235.394 37.9063C234.84 35.8817 234.281 33.8416 233.385 31.946C232.488 30.0465 231.218 28.279 229.489 27.0912C227.697 25.8605 225.533 25.3278 223.456 24.6833C219.749 23.5358 216.172 21.9689 212.812 20.0292C215.339 22.4316 218.193 24.4851 221.276 26.1197C223.368 27.2293 225.57 28.1498 227.517 29.4947C230.825 31.7772 233.206 35.1314 235.502 38.4336C235.48 39.9875 235.421 41.5477 235.326 43.0995C233.847 39.4767 231.349 33.5373 228.566 31.8176C225.472 29.9068 222.045 28.6236 218.695 27.2145C215.345 25.8054 212.002 24.2254 209.261 21.8415C211.301 25.206 214.579 27.6275 217.982 29.6046C221.384 31.5817 224.994 33.2078 228.22 35.4648C231.279 37.6028 234.032 40.4307 235.279 43.9292L235.286 43.9222ZM235.937 44.9647C235.992 43.8095 236.03 42.6886 236.052 41.5968C237.58 39.3949 239.5 37.4699 241.697 35.9406C242.666 35.2645 243.69 34.6663 244.713 34.0681C242.93 38.3801 239.901 42.1975 235.937 44.9647ZM230.174 78.1284C230.518 76.9248 230.847 75.7408 231.159 74.5686C234.582 74.5391 237.76 72.6552 241.173 72.2629C241.835 72.1862 242.498 72.168 243.164 72.167C241.765 73.8908 239.848 75.1938 237.716 75.8176C236.277 76.239 234.767 76.3586 233.308 76.7067C232.187 76.9727 231.058 77.4096 230.18 78.1308L230.174 78.1284ZM228.124 84.7684C228.124 84.7684 228.123 84.7645 228.125 84.7591C228.125 84.7591 228.127 84.763 228.124 84.7684ZM227.52 81.301C227.006 82.8586 226.49 84.367 225.972 85.813C225.863 84.0487 225.687 82.1394 224.49 80.8455C223.881 80.1893 223.064 79.7575 222.412 79.1412C221.383 78.1606 220.852 76.7884 220.256 75.5015C219.834 74.5887 219.366 73.6987 218.855 72.8354C219.244 73.0685 219.621 73.3195 219.983 73.5995C221.478 74.7553 222.593 76.3178 223.769 77.7967C224.842 79.1448 226.025 80.4715 227.52 81.301ZM232.031 65.2447C231.573 67.2329 231.084 69.179 230.574 71.0839C230.172 68.8943 229.742 66.693 228.923 64.6263C228.637 63.9169 228.306 63.2208 227.921 62.5561C229.244 63.5227 230.617 64.4235 232.033 65.2486L232.031 65.2447Z" fill="white"/>
<path d="M222.31 12.3761C223.903 11.9785 225.622 12.4093 227.026 13.2617C228.43 14.1141 229.558 15.3496 230.558 16.6503C231.946 18.4517 233.13 20.4121 234.084 22.4746C232.868 20.8077 231.439 19.4216 230.058 17.8488C227.937 15.432 225.437 13.1091 222.308 12.3722L222.31 12.3761Z" fill="white"/>
<g style="mix-blend-mode:multiply">
<path d="M248.111 61.7397C248.111 61.7397 248.111 61.7397 248.108 61.7412C248.108 61.7412 248.105 61.734 248.108 61.7325L248.111 61.7397Z" fill="url(#paint3_linear_614_19669)"/>
<path d="M234.051 22.365C232.835 20.6981 231.406 19.3119 230.025 17.7392C227.904 15.3224 225.404 12.9995 222.275 12.2625C222.35 12.2459 222.425 12.2293 222.496 12.2143C222.409 12.1904 222.324 12.1703 222.239 12.1502C223.832 11.7526 225.551 12.1835 226.955 13.0359C228.359 13.8883 229.487 15.1238 230.487 16.4244C231.875 18.2259 233.059 20.1863 234.013 22.2488C233.994 22.2246 233.975 22.2005 233.957 22.1763C233.982 22.2387 234.016 22.3018 234.045 22.3626L234.051 22.365Z" fill="url(#paint4_linear_614_19669)"/>
<path d="M248.078 61.6265C248.078 61.6265 248.078 61.6265 248.075 61.6279C248.075 61.6279 248.072 61.6207 248.075 61.6192L248.078 61.6265Z" fill="url(#paint5_linear_614_19669)"/>
<path d="M233.031 67.3058C234.309 65.2045 236.15 63.4522 238.315 62.2804C240.491 61.104 242.946 60.5269 245.176 59.4509C248.982 57.6176 252.051 54.2918 253.571 50.3527C253.579 50.4042 253.584 50.4518 253.591 50.5033C253.596 50.4923 253.599 50.4775 253.608 50.465C253.894 52.3209 253.294 54.2393 252.259 55.8076C251.223 57.3759 249.783 58.6363 248.269 59.7493C243.685 63.1245 238.357 65.3084 233.062 67.4157C233.098 67.3602 233.135 67.3047 233.166 67.2469C233.119 67.2657 233.073 67.2846 233.026 67.3035L233.031 67.3058Z" fill="white"/>
<path d="M217.468 105.677L217.529 105.738C217.511 105.772 217.501 105.79 217.501 105.79L219.088 107.367C222.577 99.8017 225.395 92.6618 227.653 85.9557C228.152 86.1034 229.26 86.3322 231.713 86.6167C236.201 87.1409 237.751 82.6781 237.751 82.6781C237.628 82.8681 237.492 83.0362 237.346 83.1904C237.354 83.1552 237.363 83.1201 237.371 83.0849C236.173 84.1932 234.372 84.312 232.746 84.1884C231.241 84.0746 229.695 83.8141 228.243 84.1591C228.557 83.1944 228.86 82.2383 229.155 81.2948C230.806 81.6033 232.456 81.9079 234.108 82.2165C235.313 82.4419 236.559 82.6649 237.753 82.401C238.803 82.1727 239.746 81.5794 240.536 80.853C241.328 80.1305 241.989 79.275 242.642 78.4225C242.599 78.4265 242.553 78.436 242.509 78.4401C242.541 78.3955 242.574 78.3548 242.61 78.3087C239.961 78.6155 237.581 80.0414 235.003 80.7273C233.128 81.2248 231.154 81.3183 229.24 81.0112C229.531 80.0692 229.808 79.1374 230.075 78.2143C233.11 78.7985 236.322 79.3346 239.2 78.2241C240.882 77.5734 242.346 76.3715 243.308 74.8463C243.844 73.9958 244.223 73.0458 244.428 72.0611C245.125 72.0701 245.823 72.0698 246.517 72.0165C248.312 71.8821 250.193 71.3323 251.34 69.9502C251.277 69.9753 251.212 69.9927 251.148 70.0139C251.202 69.956 251.255 69.8981 251.303 69.8379C248.003 71.0596 244.36 68.2277 240.928 69.0088C239.097 69.425 237.661 70.7969 236.182 71.9505C234.773 73.0531 233.036 74.0388 231.293 73.7625C231.345 73.5649 231.397 73.3673 231.447 73.1658C231.467 73.0807 231.491 72.994 231.513 72.9128C231.562 72.7207 231.612 72.5285 231.657 72.338C231.741 71.9959 231.827 71.6578 231.913 71.3196C232.825 71.5138 233.82 71.2622 234.667 70.8346C235.669 70.3309 236.543 69.5981 237.516 69.0429C239.077 68.1506 240.85 67.726 242.546 67.133C243.836 66.6808 245.117 66.1146 246.16 65.2276C247.198 64.3421 247.99 63.103 248.098 61.7409C248.08 61.7526 248.064 61.7683 248.05 61.7785C248.056 61.7262 248.064 61.6777 248.066 61.627C245.237 63.8596 241.896 65.1157 238.662 66.7048C236.373 67.8269 234.222 69.2016 232.088 70.5965C232.337 69.5719 232.569 68.5629 232.791 67.5626L233.009 67.4972C233.026 67.4722 233.042 67.4433 233.059 67.4183C232.973 67.4528 232.887 67.4874 232.802 67.522C232.808 67.4923 232.814 67.4626 232.82 67.4329L232.978 67.3873C232.996 67.3622 233.011 67.3333 233.028 67.3083C232.962 67.335 232.9 67.3602 232.833 67.3869C233.053 66.392 233.259 65.4073 233.452 64.4367C236.389 62.3693 239.548 60.629 242.532 58.6239C245.834 56.4048 248.982 53.7812 251.009 50.3582C252.07 48.5713 252.805 46.3942 252.208 44.4283C252.172 44.2934 252.126 44.1577 252.076 44.0236C249.43 48.8921 245.837 53.2409 241.552 56.7535C238.759 59.0437 235.614 61.0547 233.534 63.987C233.903 62.0934 234.229 60.2491 234.509 58.4596C235.476 56.6652 237.161 55.3378 238.909 54.2663C240.77 53.1265 242.772 52.1924 244.47 50.819C247.375 48.4699 249.224 44.8609 249.434 41.1329C249.419 41.1525 249.402 41.1775 249.387 41.1971C249.39 41.137 249.395 41.0808 249.398 41.0207C245.607 46.355 239.392 52.5761 234.694 57.2432C234.879 55.9722 235.049 54.73 235.193 53.5122C240.29 49.8804 243.422 43.9688 248.386 40.1188C249.768 39.0498 251.297 38.1342 252.455 36.8246C253.594 35.5362 254.339 33.7181 253.825 32.0853C253.808 32.0198 253.788 31.9597 253.767 31.8958C252.417 34.325 250.281 36.2194 248.063 37.8884C245.842 39.563 243.489 41.0778 241.486 43C239.262 45.1381 236.882 48.0914 235.458 51.1124C235.661 49.0866 235.81 47.1414 235.91 45.2751C241.617 42.7842 246.039 38.1288 247.964 32.563C248.069 32.2622 248.166 31.9514 248.25 31.6413C249.62 30.5903 250.864 29.2914 251.628 27.7691C251.97 27.1235 252.229 26.4392 252.371 25.7114C252.326 25.7568 252.28 25.8022 252.231 25.8491C252.239 25.8234 252.243 25.7992 252.249 25.7695C251.14 26.8963 249.836 27.7754 248.464 28.5642C248.431 28.4051 248.395 28.2476 248.349 28.0893C248.335 28.0315 248.317 27.9754 248.297 27.9154C248.293 27.9037 248.286 27.8881 248.282 27.8764C248.262 27.8163 248.242 27.7563 248.219 27.6978C248.212 27.6822 248.206 27.6666 248.198 27.6472C248.176 27.5926 248.154 27.538 248.131 27.4795C248.123 27.4601 248.115 27.4406 248.107 27.4211C248.085 27.3665 248.061 27.3174 248.036 27.2683C248.027 27.2449 248.018 27.2215 248.004 27.1997C247.98 27.1506 247.956 27.1015 247.929 27.0579C247.918 27.0306 247.901 27.0103 247.886 26.9846C247.859 26.941 247.836 26.8958 247.81 26.8522C247.795 26.8264 247.775 26.7984 247.76 26.7727C247.735 26.7329 247.708 26.6893 247.679 26.6511C247.659 26.6231 247.638 26.5951 247.618 26.567C247.589 26.5289 247.565 26.493 247.536 26.4549C247.516 26.4268 247.49 26.3964 247.466 26.37C247.438 26.3357 247.411 26.3015 247.38 26.2688C247.354 26.2384 247.324 26.2096 247.298 26.1792C247.269 26.1504 247.241 26.1162 247.211 26.0874C247.182 26.0586 247.15 26.0259 247.117 25.9986C247.089 25.9737 247.063 25.9434 247.031 25.9201C246.996 25.8889 246.96 25.8578 246.921 25.8283C246.895 25.8072 246.866 25.7823 246.84 25.7613C246.799 25.7279 246.755 25.696 246.71 25.6642C246.685 25.647 246.664 25.6284 246.639 25.6113C246.569 25.5623 246.497 25.5188 246.425 25.4753C246.419 25.6954 246.407 25.9131 246.395 26.1309C246.391 26.2097 246.385 26.2847 246.38 26.3635C246.371 26.4986 246.36 26.6391 246.351 26.7741C246.341 26.8733 246.335 26.9708 246.324 27.0661C246.313 27.1746 246.3 27.2886 246.289 27.3971C246.276 27.511 246.263 27.625 246.249 27.7351C246.241 27.7835 246.237 27.8303 246.23 27.8788C246.186 28.209 246.133 28.5385 246.076 28.8695C246.076 28.8695 246.076 28.8789 246.073 28.8844C246.045 29.0499 246.013 29.217 245.976 29.3857C245.97 29.4154 245.964 29.445 245.958 29.4747C245.923 29.6473 245.887 29.8159 245.848 29.9901C244.404 30.758 242.968 31.5454 241.677 32.5369C238.978 34.6084 236.983 37.5739 236.05 40.8457C236.076 39.0998 236.061 37.4336 236.009 35.8549C238.817 33.4905 241.194 30.584 242.717 27.2466C244.155 24.0929 244.801 20.6471 245.44 17.2404C245.414 17.2779 245.388 17.3154 245.363 17.353C245.378 17.2788 245.392 17.2007 245.403 17.1281C241.992 22.2101 237.265 28.8869 235.975 34.9942C235.89 32.8942 235.749 30.9482 235.563 29.1607C238.316 27.3895 240.143 24.369 240.826 21.1619C241.477 18.09 241.143 14.8669 240.226 11.8607C240.157 11.6346 240.089 11.4084 240.013 11.1855C240.128 15.4167 239.157 19.6734 237.215 23.4333C236.464 24.887 235.545 26.3949 235.432 27.981C235.262 26.5135 235.065 25.1607 234.856 23.922C236.48 21.396 237.247 18.3994 237.683 15.4232C237.911 13.8633 238.061 12.2895 238.472 10.7689C238.883 9.2483 239.58 7.76204 240.74 6.69597C240.655 6.73054 240.573 6.76354 240.487 6.79811C240.557 6.72456 240.633 6.65335 240.706 6.5876C238.46 7.42478 236.651 9.35496 235.964 11.6528C234.824 15.4566 236.19 19.9585 234.816 23.6528C234.344 20.9202 233.815 18.777 233.373 17.2423C233.861 17.1044 234.443 16.4668 234.603 16.0215C234.78 15.5379 234.781 15.0119 234.828 14.499C234.917 13.5521 235.171 12.6204 235.173 11.6682C235.174 11.1196 235.09 10.5735 234.932 10.0479C234.741 9.38193 234.428 8.75139 234.008 8.20465C233.735 10.0004 233.646 11.8261 233.739 13.6419C233.794 14.7344 233.743 15.8786 233.265 16.8601C233.169 16.5451 233.079 16.255 232.998 15.9977C233.161 15.7147 233.138 15.3433 233.032 15.0236C233.03 15.0197 233.027 15.0119 233.024 15.0041C233.011 14.9729 233.007 14.9386 232.996 14.9113C232.885 14.5799 232.706 14.2714 232.595 13.94C232.472 13.4775 232.499 12.9819 232.387 12.5147C232.374 12.4476 232.351 12.3798 232.33 12.3158C232.14 11.6085 231.64 11.0081 231.051 10.5703C230.435 10.1115 229.727 9.80354 229.025 9.50182C229.079 9.55709 229.129 9.61392 229.183 9.66918C229.139 9.65057 229.101 9.63429 229.057 9.61568C229.521 10.1038 229.987 10.5958 230.387 11.1371C230.737 11.6122 231.036 12.1304 231.22 12.6864C231.233 12.7308 231.246 12.7753 231.26 12.8197C231.391 13.3149 231.425 13.8362 231.574 14.329C231.591 14.3945 231.61 14.4639 231.631 14.5279C231.836 15.1478 232.255 15.6945 232.795 16.0661C232.959 16.6526 233.115 17.2422 233.263 17.8349C232.277 16.9955 231.548 16.0297 230.959 14.8622C230.424 13.8045 230.08 12.6473 229.448 11.6422C228.458 10.0746 226.762 8.9686 224.928 8.70192C225.028 8.7477 225.123 8.80441 225.219 8.86113C225.135 8.84496 225.048 8.83037 224.96 8.81578C225.73 9.18521 226.334 9.82979 226.821 10.5309C227.307 11.232 227.681 12.0013 228.114 12.7376C229.438 14.9903 231.171 16.8158 233.36 18.2311C233.715 19.6966 234.021 21.1771 234.278 22.6686C234.183 22.5346 234.093 22.399 233.995 22.2705C234.022 22.3368 234.055 22.396 234.086 22.4607C234.067 22.4366 234.05 22.407 234.032 22.3828C234.107 22.5473 234.186 22.7102 234.258 22.8762L234.324 22.9174C234.335 22.99 234.346 23.0625 234.361 23.1335C234.5 24.0291 234.618 24.9286 234.725 25.8328C232.641 24.0036 230.848 21.9036 229.445 19.637C228.677 18.3966 227.994 17.0725 226.822 16.0993C225.705 15.172 224.26 14.667 222.843 14.2322C219.445 13.187 215.972 12.4072 212.475 11.9046C212.621 11.9636 212.767 12.0225 212.913 12.0814C212.779 12.063 212.643 12.0408 212.508 12.0185C215.158 13.0751 217.815 14.1341 220.466 15.1907C221.912 15.7675 223.376 16.3512 224.642 17.2321C226.177 18.2987 227.331 19.7324 228.577 21.0699C230.415 23.0434 232.48 24.4809 234.741 26.0209C234.948 27.8497 235.09 29.6958 235.172 31.5522C233.459 27.7975 231.558 24.2953 228.276 21.7622C226.05 20.0402 223.332 19.0517 220.567 18.5214C217.806 17.9895 214.978 17.8878 212.166 17.7931C212.242 17.835 212.316 17.8731 212.391 17.9111C212.327 17.9097 212.263 17.9083 212.197 17.903C215.569 19.7702 219.8 19.4873 223.199 21.2981C225.208 22.369 226.773 24.0942 228.469 25.6131C230.885 27.7841 233.551 29.138 235.173 31.7786C235.251 33.6592 235.27 35.5502 235.236 37.4444C235.058 36.8002 234.88 36.156 234.69 35.5166C234.306 34.226 233.871 32.9558 233.296 31.7422C232.399 29.8427 231.129 28.0753 229.399 26.8874C227.607 25.6568 225.444 25.1241 223.367 24.4795C219.66 23.3321 216.083 21.7652 212.723 19.8254C212.809 19.904 212.891 19.9842 212.977 20.0628C212.901 20.0208 212.829 19.9773 212.753 19.9354C215.281 22.3378 218.134 24.3913 221.217 26.0259C223.309 27.1355 225.511 28.056 227.458 29.4009C230.659 31.6088 232.993 34.8234 235.218 38.0181C235.183 39.469 235.115 40.9192 235.019 42.3672C233.517 38.7219 231.126 33.2512 228.472 31.6116C225.377 29.7007 221.95 28.4175 218.6 27.0084C215.25 25.5994 211.907 24.0193 209.166 21.6354C209.203 21.6931 209.241 21.7546 209.278 21.8123C209.251 21.7913 209.225 21.7703 209.202 21.7477C211.242 25.1122 214.52 27.5337 217.923 29.5108C221.326 31.4879 224.936 33.114 228.161 35.371C231.027 37.3784 233.627 39.9828 234.966 43.1813C234.901 44.0548 234.83 44.9221 234.744 45.7901C234.335 44.9086 233.81 44.078 233.182 43.3297C232.237 42.2107 231.087 41.2921 229.944 40.3797C227.829 38.695 225.717 37.0086 223.502 35.4592C219.717 32.8025 215.659 30.5501 211.619 28.3047C211.658 28.3569 211.697 28.4091 211.738 28.4652C211.709 28.4496 211.68 28.4341 211.651 28.4186C214.804 32.7892 218.876 36.4947 223.521 39.2263C225.724 40.5222 228.064 41.6046 230.163 43.0693C231.939 44.3062 233.567 45.8706 234.538 47.7855C234.367 49.3047 234.167 50.8216 233.944 52.3253C233.896 52.1272 233.838 51.9284 233.779 51.735C233.008 49.1725 231.309 46.8896 229.282 45.1102C226.75 42.8865 223.711 41.3291 220.722 39.7699C217.732 38.2108 214.715 36.6042 212.247 34.3046C212.265 34.3475 212.282 34.3904 212.299 34.4332C212.296 34.4254 212.285 34.4208 212.28 34.4185C213.535 37.6687 216.255 40.1433 219.173 42.053C222.09 43.9627 225.279 45.4323 228.146 47.4077C230.407 48.9703 232.504 50.9345 233.791 53.3294C233.457 55.4671 233.077 57.5823 232.654 59.6696C232.462 58.8772 232.252 58.0872 232.017 57.3027C231.145 54.3737 229.894 51.5971 227.616 49.6334C224.906 47.2954 220.927 46.5295 217.539 47.6913C217.594 47.7146 217.649 47.7379 217.703 47.7611C217.661 47.7784 217.615 47.7879 217.572 47.8052C224.21 50.5353 229.574 56.1986 231.953 62.9657C231.844 63.4491 231.735 63.9325 231.623 64.4174C228.435 60.242 225.213 56.0714 221.573 52.2914C221.3 52.0072 221.029 51.727 220.753 51.4483C218.347 49.0198 215.756 46.7744 213.013 44.7354C214.041 46.836 215.23 48.8533 216.559 50.7782C218.257 53.2703 220.194 55.6025 222.332 57.736C221.02 57.3267 219.617 57.2079 218.262 57.4191C218.337 57.4478 218.412 57.4765 218.49 57.5036C218.426 57.5116 218.361 57.5195 218.298 57.5314C222.154 58.9134 225.341 62.0422 226.793 65.8703C227.52 67.7843 228.586 69.5655 229.923 71.1158C229.655 72.0936 229.379 73.0613 229.101 74.0119C227.041 69.5088 224.557 65.145 221.057 61.6572C217.266 57.8838 212.136 55.2074 206.789 55.2966C206.912 55.333 207.036 55.3693 207.157 55.4111C207.044 55.4114 206.934 55.4102 206.821 55.4105C211.815 56.8729 216.183 60.0196 219.812 63.7498C223.195 67.2301 225.996 71.2215 228.744 75.2295C228.546 75.8848 228.351 76.5347 228.148 77.1783C227.076 74.8461 225.644 72.6866 223.919 70.79C220.369 66.8966 215.701 64.2423 211.117 61.6495C211.163 61.7079 211.213 61.7647 211.26 61.8232C211.224 61.8014 211.188 61.7796 211.149 61.7634C212.722 63.6853 214.306 65.6157 216.225 67.1941C217.932 68.5951 219.869 69.6903 221.647 70.999C224.124 72.828 226.286 75.0785 228.012 77.6274C227.704 78.6171 227.388 79.5872 227.074 80.5386C226.008 79.029 224.944 77.5139 223.877 76.0043C222.705 74.3427 221.52 72.6633 219.994 71.3164C218.744 70.2162 217.288 69.3578 215.828 68.5141C215.336 67.9332 214.823 67.3696 214.292 66.827C213.863 66.0345 213.597 65.5302 213.597 65.5302C213.597 65.5302 213.813 65.9776 214.184 66.7165C214.161 66.6939 214.137 66.6674 214.114 66.6449C214.13 66.6838 214.142 66.7244 214.152 66.761C214.152 66.761 214.152 66.761 214.15 66.7571C214.193 66.885 214.234 67.009 214.272 67.1385C214.097 66.7378 213.92 66.3332 213.749 65.931C213.88 66.4356 213.97 66.952 214.042 67.4669C212.435 66.4925 210.926 65.4242 209.792 63.9374C209.802 63.974 209.814 64.0146 209.824 64.0513C210.498 66.4985 212.046 68.6975 214.125 70.1568C214.175 70.191 215.513 71.0927 215.563 71.1269C215.659 72.647 216.419 73.9358 217.125 75.4409C218.103 77.5299 219.541 79.3655 221.368 80.7724C223.378 82.3186 224.159 83.3677 225.835 85.1208C221.584 97.012 217.124 105.226 217.124 105.226L217.505 105.598C217.469 105.667 217.453 105.705 217.453 105.705L217.468 105.677ZM236.955 43.9338C236.627 44.1883 236.292 44.4366 235.95 44.6787C236.003 43.561 236.04 42.4722 236.061 41.4123C237.579 39.2417 239.486 37.3401 241.657 35.8257C242.595 35.1715 243.58 34.5929 244.566 34.0143C244.508 34.1511 244.452 34.2823 244.394 34.4191C244.364 34.4808 244.339 34.541 244.311 34.6066C244.233 34.7738 244.156 34.941 244.078 35.1083C244.046 35.1755 244.013 35.2388 243.981 35.306C243.911 35.4474 243.837 35.5904 243.764 35.7335C243.726 35.8077 243.687 35.8819 243.648 35.9523C243.579 36.0844 243.508 36.2125 243.437 36.3407C243.398 36.4111 243.362 36.4798 243.322 36.5502C243.235 36.7034 243.147 36.8566 243.058 37.0059C243.014 37.0778 242.971 37.1497 242.925 37.2271C242.859 37.335 242.79 37.4444 242.725 37.5523C242.662 37.6547 242.595 37.7587 242.527 37.8588C242.46 37.9627 242.389 38.0683 242.319 38.1738C242.265 38.2544 242.207 38.3365 242.154 38.417C242.062 38.5491 241.97 38.6813 241.875 38.815C241.813 38.8987 241.749 38.9878 241.688 39.0715C241.631 39.1442 241.58 39.2193 241.523 39.292C241.417 39.4343 241.31 39.5728 241.199 39.7128C241.148 39.7784 241.098 39.8441 241.042 39.9075C240.966 40.0014 240.891 40.0952 240.811 40.1906C240.772 40.2384 240.732 40.2861 240.688 40.3353C240.551 40.4996 240.412 40.66 240.268 40.8219C240.231 40.8641 240.194 40.9064 240.156 40.9486C239.98 41.1419 239.805 41.3351 239.626 41.5206C239.618 41.5237 239.613 41.5346 239.607 41.5417C239.508 41.645 239.409 41.7482 239.309 41.8476C239.296 41.8617 239.282 41.8719 239.27 41.886C239.079 42.0761 238.887 42.2624 238.691 42.4502C238.674 42.4659 238.654 42.4831 238.638 42.4987C238.101 43.0004 237.542 43.4796 236.961 43.9361C236.961 43.9361 236.961 43.9361 236.957 43.9377L236.955 43.9338ZM233.231 76.4795C232.145 76.7407 231.056 77.1526 230.184 77.8347C230.512 76.692 230.824 75.565 231.119 74.4536C234.542 74.4242 237.72 72.5403 241.133 72.1479C241.751 72.0753 242.369 72.0572 242.994 72.0548C241.604 73.7208 239.725 74.9855 237.642 75.5943C236.203 76.0157 234.692 76.1353 233.233 76.4834L233.231 76.4795ZM227.927 62.477C229.091 63.3308 230.298 64.1221 231.54 64.8633C231.148 66.5212 230.734 68.1604 230.306 69.7607C230.063 68.5173 229.795 67.2795 229.425 66.0692C229.255 65.5031 229.067 64.9448 228.85 64.3975C228.585 63.7388 228.28 63.0957 227.931 62.4754L227.927 62.477ZM218.858 72.7578C219.23 72.9839 219.595 73.2264 219.937 73.4917C221.432 74.6474 222.547 76.21 223.723 77.6889C224.669 78.8796 225.704 80.053 226.969 80.8846C226.585 82.0454 226.195 83.1812 225.809 84.2795C225.741 83.7178 225.642 83.1593 225.481 82.6353C225.268 81.8921 224.939 81.1999 224.41 80.6293C223.801 79.973 222.983 79.5413 222.331 78.9249C221.302 77.9443 220.771 76.5722 220.175 75.2852C219.777 74.4216 219.334 73.5807 218.855 72.7633L218.858 72.7578ZM234.745 25.9061C234.745 25.9061 234.745 25.9061 234.747 25.91C234.743 25.9022 234.733 25.8976 234.726 25.8914C234.733 25.8976 234.738 25.8999 234.745 25.9061Z" fill="white"/>
</g>
<defs>
<linearGradient id="paint0_linear_614_19669" x1="28.8827" y1="61.7376" x2="28.8864" y2="61.7387" gradientUnits="userSpaceOnUse">
<stop stop-color="#A2AF78" stop-opacity="0"/>
<stop offset="1" stop-color="#7C7E48"/>
</linearGradient>
<linearGradient id="paint1_linear_614_19669" x1="44.8195" y1="16.0614" x2="52.8762" y2="18.4579" gradientUnits="userSpaceOnUse">
<stop stop-color="#A2AF78" stop-opacity="0"/>
<stop offset="1" stop-color="#7C7E48"/>
</linearGradient>
<linearGradient id="paint2_linear_614_19669" x1="28.917" y1="61.6248" x2="28.9208" y2="61.626" gradientUnits="userSpaceOnUse">
<stop stop-color="#A2AF78" stop-opacity="0"/>
<stop offset="1" stop-color="#7C7E48"/>
</linearGradient>
<linearGradient id="paint3_linear_614_19669" x1="248.115" y1="61.7376" x2="248.112" y2="61.7387" gradientUnits="userSpaceOnUse">
<stop stop-color="#A2AF78" stop-opacity="0"/>
<stop offset="1" stop-color="#7C7E48"/>
</linearGradient>
<linearGradient id="paint4_linear_614_19669" x1="232.179" y1="16.0614" x2="224.122" y2="18.4579" gradientUnits="userSpaceOnUse">
<stop stop-color="#A2AF78" stop-opacity="0"/>
<stop offset="1" stop-color="#7C7E48"/>
</linearGradient>
<linearGradient id="paint5_linear_614_19669" x1="248.081" y1="61.6253" x2="248.077" y2="61.6264" gradientUnits="userSpaceOnUse">
<stop stop-color="#A2AF78" stop-opacity="0"/>
<stop offset="1" stop-color="#7C7E48"/>
</linearGradient>
</defs>
</svg>
