<svg width="277" height="117" viewBox="0 0 277 117" fill="none" xmlns="http://www.w3.org/2000/svg">
<path d="M86.4195 65.7643C86.0705 65.7643 85.896 65.5898 85.896 65.2408C85.896 65.1012 85.9135 64.9092 85.9484 64.6649C85.9833 64.3857 86.0705 64.1414 86.2101 63.9319C87.327 63.7923 88.1647 63.4433 88.7231 62.8849C89.2816 62.3264 89.8226 61.4364 90.3461 60.2148L103.278 29.2213C103.452 28.8025 103.766 28.593 104.22 28.593H104.691L117.047 60.2148C117.535 61.5062 117.954 62.3788 118.303 62.8325C118.652 63.2862 119.158 63.548 119.821 63.6178C120.066 63.6527 120.362 63.6702 120.711 63.6702C121.06 63.6702 121.409 63.6702 121.758 63.6702C121.758 63.8447 121.741 64.0715 121.706 64.3508C121.706 64.63 121.671 64.8569 121.601 65.0314C121.497 65.3804 121.375 65.5898 121.235 65.6596C121.095 65.7294 120.991 65.7643 120.921 65.7643H111.549C111.2 65.7643 111.026 65.5898 111.026 65.2408C111.026 65.1012 111.043 64.9092 111.078 64.6649C111.113 64.3857 111.2 64.1414 111.34 63.9319C112.178 63.8272 112.823 63.6353 113.277 63.356C113.731 63.0768 113.958 62.6231 113.958 61.9948C113.958 61.576 113.818 60.9827 113.539 60.2148L111.078 53.7753H95.4244L92.7544 60.2148C92.3704 61.1921 92.1785 61.9076 92.1785 62.3613C92.1785 62.7802 92.2832 63.0768 92.4926 63.2513C92.7369 63.4258 93.051 63.548 93.435 63.6178C93.6793 63.6527 94.0109 63.6702 94.4297 63.6702C94.8834 63.6702 95.2848 63.6702 95.6338 63.6702C95.6338 63.8447 95.6164 64.0715 95.5815 64.3508C95.5815 64.63 95.5466 64.8569 95.4768 65.0314C95.3721 65.3804 95.2499 65.5898 95.1103 65.6596C94.9707 65.7294 94.866 65.7643 94.7962 65.7643H86.4195ZM96.3668 51.4194H110.188L103.801 34.6661C103.627 34.2473 103.452 34.2473 103.278 34.6661L96.3668 51.4194Z" fill="#24547E"/>
<path d="M150.904 96.5728C150.904 96.4332 150.922 96.2412 150.957 95.9969C150.992 95.7177 151.079 95.4734 151.218 95.264C152.37 95.1244 153.208 94.7753 153.731 94.2169C154.29 93.6584 154.569 92.6812 154.569 91.2851V65.7887C154.569 64.8812 154.499 64.2181 154.36 63.7993C154.255 63.3804 153.958 63.1187 153.47 63.014C153.016 62.8743 152.248 62.8045 151.166 62.8045C151.166 62.63 151.184 62.4032 151.218 62.1239C151.253 61.8447 151.288 61.6179 151.323 61.4433C151.428 61.0594 151.55 60.85 151.69 60.8151C151.864 60.7453 151.969 60.7104 152.004 60.7104H162.37C169.036 60.6406 174.062 62.1065 177.448 65.1081C180.868 68.0748 182.578 72.3679 182.578 77.9872C182.578 82.2104 181.723 85.7356 180.013 88.5627C178.303 91.3898 175.964 93.5188 172.998 94.9498C170.031 96.3809 166.645 97.0964 162.841 97.0964H151.428C151.079 97.0964 150.904 96.9218 150.904 96.5728ZM157.71 91.2327C157.71 92.6288 157.99 93.5886 158.548 94.1122C159.106 94.6008 160.188 94.8451 161.794 94.8451C165.319 94.8451 168.216 94.3914 170.485 93.4839C172.788 92.5416 174.568 91.2851 175.825 89.7145C177.116 88.1438 178.006 86.3987 178.495 84.4791C179.018 82.5594 179.28 80.6049 179.28 78.6154C179.28 76.0675 178.949 73.9036 178.285 72.1235C177.657 70.3435 176.802 68.8776 175.72 67.7258C174.638 66.574 173.451 65.684 172.16 65.0558C170.869 64.3926 169.577 63.9214 168.286 63.6422C166.994 63.3281 165.808 63.1361 164.726 63.0663C163.644 62.9965 162.771 62.9616 162.108 62.9616H159.543C158.845 62.9616 158.356 63.1012 158.077 63.3804C157.833 63.6248 157.71 64.1134 157.71 64.8463V91.2327Z" fill="#24547E"/>
<path d="M142.9 69.8311C142.527 69.8311 142.031 69.6197 141.413 69.1971C140.795 68.7744 140.113 68.2298 139.365 67.5633C138.617 68.2786 137.747 68.8232 136.756 69.1971C135.764 69.571 134.724 69.7579 133.635 69.7579C132.237 69.7579 131.09 69.5059 130.196 69.002C129.302 68.4981 128.644 67.8397 128.221 67.0269C127.799 66.2141 127.587 65.3607 127.587 64.4666C127.587 63.6538 127.75 62.8816 128.075 62.1501C128.416 61.4186 128.888 60.7683 129.489 60.1994C130.107 59.6304 130.838 59.1996 131.684 58.907C131.147 58.1755 130.765 57.5984 130.538 57.1758C130.31 56.7368 130.164 56.4036 130.099 56.176C130.05 55.9322 130.026 55.7371 130.026 55.5908C130.026 54.7292 130.229 54.0302 130.635 53.4938C131.058 52.9573 131.586 52.559 132.22 52.2989C132.854 52.0389 133.513 51.9088 134.195 51.9088C135.041 51.9088 135.732 52.0714 136.268 52.3965C136.821 52.7053 137.227 53.1117 137.487 53.6157C137.764 54.1034 137.902 54.6154 137.902 55.1519C137.902 55.6721 137.788 56.1516 137.56 56.5905C137.333 57.0294 137.048 57.379 136.707 57.639C136.382 57.8991 136.057 58.0292 135.732 58.0292C135.683 57.9967 135.618 57.9479 135.536 57.8829C135.455 57.8179 135.398 57.7366 135.366 57.639C135.805 57.4602 136.122 57.2001 136.317 56.8588C136.512 56.5174 136.609 56.1435 136.609 55.7371C136.609 55.2657 136.487 54.8105 136.244 54.3716C136 53.9164 135.642 53.5425 135.171 53.2499C134.716 52.9573 134.171 52.811 133.537 52.811C132.757 52.811 132.155 53.0223 131.733 53.445C131.326 53.8677 131.123 54.3228 131.123 54.8105C131.123 55.2169 131.294 55.729 131.635 56.3467C131.976 56.9644 132.521 57.761 133.269 58.7363C134.309 60.0693 135.366 61.3535 136.439 62.589C137.512 63.8082 138.552 64.873 139.56 65.7833C140.308 64.6291 140.682 63.2392 140.682 61.6136C140.682 61.321 140.665 60.9634 140.633 60.5407C140.438 60.5245 140.243 60.5082 140.048 60.492C139.267 60.4432 138.625 60.5326 138.121 60.7602L137.975 60.175C137.942 60.0287 138.032 59.923 138.243 59.858C138.568 59.7767 138.967 59.7117 139.438 59.6629C139.909 59.6142 140.299 59.5898 140.608 59.5898C141.145 59.5898 141.624 59.5979 142.047 59.6142C142.47 59.6304 142.844 59.6385 143.169 59.6385C143.608 59.6385 143.99 59.606 144.315 59.541C144.656 59.476 144.981 59.3459 145.29 59.1509C145.42 59.3947 145.493 59.6304 145.51 59.858C145.412 60.2156 145.225 60.4595 144.949 60.5895C144.689 60.7033 144.323 60.7602 143.851 60.7602C143.624 60.7602 143.364 60.7521 143.071 60.7358C142.779 60.7033 142.462 60.6708 142.12 60.6383C142.088 61.8412 141.909 62.9304 141.584 63.9057C141.275 64.8648 140.86 65.7183 140.34 66.4661C141.153 67.1488 141.925 67.6853 142.657 68.0754C143.388 68.4493 144.047 68.62 144.632 68.5875C144.632 68.7338 144.624 68.8882 144.607 69.0508C144.591 69.1971 144.559 69.3352 144.51 69.4653C144.412 69.5466 144.25 69.6197 144.022 69.6848C143.795 69.7335 143.567 69.7742 143.339 69.8067C143.128 69.8229 142.982 69.8311 142.9 69.8311ZM138.658 66.8806C137.894 66.1491 137.113 65.3525 136.317 64.491C135.52 63.6131 134.764 62.7516 134.049 61.9062C133.334 61.0447 132.708 60.2563 132.171 59.541C131.18 59.9962 130.416 60.6627 129.879 61.5405C129.359 62.4021 129.099 63.288 129.099 64.1983C129.099 64.9299 129.27 65.6289 129.611 66.2954C129.953 66.9456 130.497 67.4821 131.245 67.9047C131.993 68.3111 132.968 68.5143 134.171 68.5143C135.081 68.5143 135.91 68.3761 136.658 68.0998C137.422 67.8072 138.089 67.4008 138.658 66.8806Z" fill="#24547E"/>
<path d="M28.8574 61.8501C28.8574 61.8501 28.8574 61.8501 28.861 61.8516C28.861 61.8516 28.864 61.8443 28.8604 61.8428L28.8574 61.8501Z" fill="#5091C2"/>
<path d="M31.7551 59.6792C27.9492 57.8459 24.8808 54.52 23.3601 50.581C23.0742 52.4369 23.6739 54.3553 24.7093 55.9236C25.7446 57.4919 27.185 58.7523 28.6984 59.8653C33.2831 63.2405 38.6107 65.4244 43.9058 67.5317C42.6276 65.4305 40.7874 63.6782 38.6224 62.5064C36.4458 61.3299 33.9913 60.7528 31.7606 59.6769L31.7551 59.6792Z" fill="#5091C2"/>
<path d="M41.7154 43.9227C41.7723 44.793 41.8426 45.6642 41.9199 46.5291C42.3567 45.4455 42.9666 44.4271 43.7206 43.5347C44.6655 42.4157 45.8153 41.4971 46.9579 40.5847C49.0735 38.9 51.1852 37.2136 53.4003 35.6642C57.1856 33.0075 61.2428 30.7551 65.2837 28.5097C62.1308 32.8803 58.0587 36.5858 53.414 39.3174C51.2104 40.6133 48.8709 41.6957 46.7715 43.1605C44.8113 44.5272 43.0248 46.2948 42.1121 48.4916C42.294 50.2099 42.515 51.9212 42.7648 53.617C43.1801 50.3722 45.1585 47.4766 47.6219 45.3113C50.1541 43.0876 53.1926 41.5302 56.182 39.971C59.1713 38.4119 62.1889 36.8053 64.6566 34.5057C63.4007 37.756 60.6813 40.2305 57.7636 42.1402C54.8459 44.0499 51.657 45.5195 48.7898 47.495C46.3339 49.1921 44.0687 51.3603 42.8277 54.0456C43.1727 56.3371 43.5764 58.6069 44.0223 60.8394C44.9619 56.7774 46.1509 52.535 49.2877 49.8345C51.9974 47.4965 55.9766 46.7306 59.3645 47.8924C52.5859 50.6792 47.1329 56.5288 44.8315 63.4857L44.3721 62.5347C44.554 63.3874 44.739 64.2323 44.9311 65.071C48.4288 60.4859 51.9468 55.8955 56.0044 51.7989C58.4107 49.3704 61.0015 47.125 63.7448 45.086C61.4032 49.8607 58.2385 54.2266 54.4613 57.9649C55.8041 57.5229 57.2514 57.3948 58.6438 57.6163C54.7879 58.9983 51.5969 62.1255 50.1483 65.9552C49.3458 68.0696 48.1285 70.0213 46.5937 71.6819C46.8889 72.7706 47.1904 73.8437 47.4997 74.8974C49.6212 70.1517 52.1762 65.522 55.8557 61.8575C59.647 58.0841 64.777 55.4077 70.1243 55.497C65.1303 56.9594 60.7623 60.1061 57.1334 63.8363C53.5812 67.4886 50.6722 71.7037 47.7944 75.9088C48.0117 76.6399 48.2322 77.3632 48.4535 78.0732C49.5531 75.4804 51.0954 73.0706 52.9943 70.9904C56.544 67.0969 61.2119 64.4427 65.7961 61.8498C64.2239 63.7717 62.6391 65.7022 60.7205 67.2806C59.0138 68.6816 57.0769 69.7768 55.2987 71.0855C52.6236 73.0568 50.3185 75.5261 48.5324 78.327C48.8427 79.3221 49.1554 80.3001 49.472 81.257C50.6597 79.5697 51.8458 77.8864 53.0334 76.1991C54.2062 74.5376 55.3907 72.8581 56.917 71.5113C58.1671 70.4111 59.6233 69.5526 61.0827 68.709C61.6284 68.0634 62.2021 67.4383 62.8007 66.8413L62.4537 67.9158C64.2195 66.874 65.8957 65.7507 67.1285 64.1315C66.4547 66.5787 64.905 68.7816 62.8275 70.2371C62.3779 70.5543 61.9066 70.8355 61.4243 71.0988C61.0922 72.125 60.7578 73.1457 60.4257 74.1718C60.0055 75.4616 59.579 76.7669 58.8369 77.8996C57.7602 79.5365 56.1104 80.684 54.586 81.9138C53.1641 83.058 51.7699 84.381 51.1371 86.0744C55.4053 98.0133 59.4752 105.903 59.4752 105.903L57.8883 107.479C54.3663 99.8375 51.5245 92.6335 49.256 85.8735C49.1122 85.9379 48.9311 85.9374 48.7704 85.9315C47.1832 85.8445 45.5999 85.7591 44.0127 85.6721C43.1076 85.6244 42.1829 85.5689 41.3448 85.231C40.5029 84.8916 39.75 84.2075 39.569 83.3189C40.7671 84.4272 42.568 84.546 44.1948 84.4223C45.724 84.3047 47.2957 84.0365 48.7721 84.4096C48.4439 83.4028 48.1258 82.4045 47.8217 81.4164C46.1703 81.725 44.5204 82.0296 42.869 82.3381C41.6634 82.5636 40.418 82.7866 39.2238 82.5227C38.174 82.2943 37.2304 81.701 36.4402 80.9747C35.6485 80.2522 34.989 79.3927 34.3341 78.5442C36.9837 78.851 39.3633 80.277 41.9416 80.9629C43.8375 81.4643 45.8344 81.5578 47.7676 81.236C47.4682 80.2589 47.1789 79.2904 46.9021 78.3359C43.8661 78.9202 40.6548 79.4563 37.7764 78.3458C36.0947 77.6951 34.6307 76.4932 33.6686 74.968C33.1324 74.1175 32.7541 73.1674 32.5483 72.1828C31.8514 72.1918 31.1537 72.1915 30.4592 72.1381C28.6646 72.0038 26.7836 71.454 25.637 70.0719C28.9373 71.2935 32.5802 68.4617 36.0128 69.2428C37.8433 69.6589 39.2811 71.027 40.7585 72.1845C42.1853 73.2988 43.9441 74.2978 45.7048 73.988C45.4792 73.1313 45.2653 72.2792 45.06 71.4397C44.1479 71.634 43.1527 71.3823 42.3016 70.9532C41.2993 70.4494 40.4257 69.7166 39.4532 69.1614C37.8915 68.2691 36.1188 67.8445 34.4229 67.2515C33.1325 66.7993 31.8517 66.2332 30.8091 65.3461C29.7704 64.4607 28.9784 63.2216 28.8705 61.8594C31.6998 64.092 35.0406 65.3481 38.2744 66.9372C40.5908 68.0703 42.7661 69.4638 44.9202 70.8759C44.6617 69.7974 44.4156 68.733 44.1858 67.6843L43.9596 67.6158C43.9425 67.5907 43.927 67.5618 43.9099 67.5368C43.9996 67.5729 44.0853 67.6075 44.175 67.6436C43.9475 66.6004 43.731 65.5751 43.5323 64.5615C40.5917 62.4925 37.4286 60.7507 34.4418 58.7401C31.1402 56.521 27.9927 53.8974 25.965 50.4744C24.854 48.5992 24.093 46.294 24.8617 44.2521C27.5076 49.1206 31.1016 53.4694 35.3861 56.9819C38.2191 59.3067 41.4174 61.3436 43.4923 64.346C43.1058 62.3822 42.773 60.4763 42.4822 58.6235C41.5209 56.8041 39.8176 55.4649 38.0544 54.3871C36.1938 53.2474 34.1913 52.3133 32.4929 50.9399C29.5881 48.5908 27.7396 44.9817 27.5295 41.2538C31.3392 46.6186 37.6089 52.8844 42.3172 57.5601C42.1194 56.2297 41.9465 54.9275 41.7985 53.6534C36.6824 50.0231 33.5531 44.0943 28.5772 40.2397C27.1955 39.1707 25.666 38.2551 24.5082 36.9455C23.3504 35.6359 22.6015 33.7843 23.1616 32.125C24.5115 34.5543 26.6479 36.4486 28.8662 38.1177C31.0867 39.7922 33.4396 41.3071 35.4425 43.2292C37.7155 45.4143 40.1572 48.4513 41.5677 51.5394C41.3487 49.4074 41.195 47.3607 41.0941 45.4077C35.3684 42.9184 30.9269 38.2551 28.997 32.6784C28.8917 32.3776 28.795 32.0668 28.7115 31.7567C26.8002 30.2929 25.1353 28.353 24.6796 25.9988C25.791 27.131 27.1006 28.0078 28.4767 28.7982C28.679 27.5883 29.3565 26.3797 30.4931 25.6959C30.5389 27.2234 30.7378 28.7309 31.0718 30.2068C32.5159 30.9747 33.9521 31.7621 35.2427 32.7536C38.0286 34.8917 40.0689 37.9799 40.9574 41.3741C40.9242 39.4892 40.9438 37.6982 40.9998 36.0079C38.1669 33.6379 35.7679 30.7087 34.2355 27.3495C32.7971 24.1958 32.1515 20.75 31.5129 17.3433C34.993 22.5253 39.8399 29.364 41.0135 35.5693C41.0984 33.3016 41.2562 31.2128 41.4533 29.3075C38.6632 27.5393 36.8077 24.4985 36.121 21.2672C35.4258 18.0007 35.8486 14.5687 36.8998 11.399C36.7846 15.6303 37.7558 19.8871 39.6976 23.6469C40.5913 25.3757 41.7188 27.176 41.4538 29.1038L41.4708 29.1514C41.5757 28.1832 41.6897 27.2595 41.8115 26.3841C41.7974 26.3966 41.781 26.4036 41.7669 26.416C41.781 26.4036 41.7967 26.3872 41.8146 26.3763C41.9229 25.5907 42.0435 24.8418 42.1617 24.1327C40.4929 21.584 39.7105 18.5453 39.2651 15.5245C39.0375 13.9646 38.888 12.3909 38.4769 10.8702C38.0658 9.34963 37.3689 7.86336 36.2097 6.7934C38.4551 7.63058 40.2645 9.56077 40.9513 11.8587C42.1101 15.7288 40.6774 20.3171 42.1697 24.0453C42.6668 21.1598 43.2238 18.9238 43.6822 17.3595C43.1735 17.2949 42.5191 16.5915 42.3471 16.1189C42.1704 15.6353 42.1695 15.1093 42.1225 14.5964C42.0329 13.6495 41.7787 12.7178 41.7773 11.7657C41.7711 10.5669 42.1778 9.36688 42.9101 8.41593C43.1831 10.2117 43.2719 12.0374 43.1788 13.8532C43.1204 14.9987 43.1796 16.2008 43.7247 17.209C43.8327 16.8401 43.9381 16.511 44.0318 16.2225L44.0217 16.1913C43.7868 15.8972 43.8074 15.4751 43.9239 15.1187C44.0403 14.7624 44.2426 14.4406 44.3473 14.0795C44.4899 13.6023 44.4506 13.0925 44.5643 12.6082C44.738 11.8625 45.2548 11.2326 45.8687 10.7776C46.4841 10.3188 47.1928 10.0109 47.8944 9.7092C47.4303 10.1973 46.9646 10.6893 46.5652 11.2306C46.1657 11.7719 45.8316 12.3759 45.6597 13.0271C45.5194 13.5551 45.4922 14.106 45.3191 14.6253C45.1129 15.2491 44.6931 15.7958 44.1536 16.1674C43.9795 16.7905 43.8132 17.4168 43.6546 18.0462C44.641 17.2067 45.3702 16.241 45.9586 15.0734C46.4937 14.0158 46.8379 12.8586 47.4696 11.8535C48.4595 10.2859 50.156 9.17987 51.99 8.91318C51.2202 9.28261 50.616 9.9272 50.1295 10.6283C49.6468 11.331 49.2694 12.0987 48.8366 12.835C47.5101 15.0916 45.7757 16.921 43.5836 18.3348C43.2182 19.8369 42.9028 21.3501 42.6396 22.8798C42.7344 22.7459 42.8253 22.6103 42.9224 22.4818C42.847 22.6463 42.7677 22.8092 42.6963 22.9752L42.6134 23.0234C42.4406 24.0367 42.2888 25.054 42.1565 26.0791C44.2616 24.2406 46.0638 22.1304 47.4731 19.8483C48.2405 18.6079 48.9238 17.2838 50.0955 16.3106C51.2125 15.3833 52.6576 14.8783 54.0745 14.4435C57.473 13.3982 60.9457 12.6185 64.4426 12.1159C61.7918 13.1725 59.1354 14.2315 56.4846 15.2881C55.0377 15.8649 53.5743 16.4487 52.3085 17.3295C50.7728 18.3962 49.6194 19.8299 48.3734 21.1673C46.5184 23.161 44.4307 24.6078 42.1422 26.1595C41.892 28.1068 41.722 30.0683 41.613 32.0363C43.3629 28.1786 45.2737 24.5625 48.6373 21.9625C50.8631 20.2406 53.5817 19.252 56.3466 18.7217C59.1077 18.1898 61.9355 18.0881 64.7469 17.9934C61.3751 19.8606 57.1435 19.5776 53.7445 21.3885C51.7359 22.4594 50.1704 24.1846 48.4751 25.7035C45.978 27.9413 43.217 29.3161 41.615 32.1323C41.5058 34.1682 41.4707 36.2113 41.4941 38.2553L41.6074 37.9068C42.1607 35.8822 42.7202 33.8421 43.6158 31.9465C44.5129 30.0469 45.7828 28.2795 47.5123 27.0916C49.3043 25.861 51.4676 25.3283 53.5445 24.6838C57.2515 23.5363 60.8286 21.9694 64.1889 20.0297C61.6616 22.4321 58.8083 24.4856 55.7251 26.1202C53.6329 27.2298 51.4311 28.1503 49.4842 29.4952C46.1761 31.7777 43.7954 35.1319 41.4991 38.434C41.5206 39.988 41.5805 41.5482 41.6754 43.1C43.1539 39.4772 45.6524 33.5378 48.4346 31.8181C51.5294 29.9073 54.9559 28.6241 58.3062 27.215C61.6565 25.8059 64.9986 24.2259 67.7405 21.842C65.7 25.2064 62.4219 27.628 59.0193 29.6051C55.6168 31.5822 52.0068 33.2083 48.7815 35.4653C45.7219 37.6033 42.9687 40.4312 41.7216 43.9297L41.7154 43.9227ZM41.064 44.9651C41.0086 43.8099 40.971 42.6891 40.9489 41.5972C39.4213 39.3954 37.5011 37.4704 35.3036 35.9411C34.3345 35.265 33.3114 34.6668 32.2883 34.0686C34.071 38.3806 37.0998 42.198 41.064 44.9651ZM46.8269 78.1289C46.4828 76.9253 46.1535 75.7413 45.8422 74.569C42.4192 74.5396 39.2409 72.6557 35.8283 72.2633C35.1659 72.1866 34.5026 72.1685 33.8369 72.1675C35.2355 73.8913 37.1527 75.1943 39.2847 75.8181C40.7235 76.2395 42.2341 76.3591 43.6934 76.7071C44.8141 76.9732 45.943 77.4101 46.8214 78.1312L46.8269 78.1289ZM48.8765 84.7689C48.8765 84.7689 48.8781 84.765 48.8758 84.7595C48.8758 84.7595 48.8742 84.7634 48.8765 84.7689ZM49.4813 81.3015C49.9953 82.8591 50.511 84.3675 51.0293 85.8134C51.1378 84.0492 51.3138 82.1399 52.5106 80.846C53.1195 80.1897 53.937 79.758 54.5888 79.1416C55.6185 78.161 56.1489 76.7889 56.7447 75.502C57.1671 74.5892 57.6346 73.6992 58.1457 72.8359C57.7572 73.069 57.3796 73.32 57.0175 73.6C55.523 74.7557 54.4083 76.3183 53.2321 77.7972C52.1585 79.1453 50.9757 80.472 49.4813 81.3015ZM44.9696 65.2452C45.4279 67.2334 45.9167 69.1795 46.4267 71.0844C46.829 68.8948 47.2587 66.6935 48.0782 64.6268C48.3642 63.9173 48.6946 63.2213 49.0804 62.5566C47.7573 63.5232 46.3837 64.424 44.9681 65.249L44.9696 65.2452Z" fill="#5091C2"/>
<path d="M54.6912 12.3765C53.0978 11.9789 51.3789 12.4098 49.975 13.2622C48.571 14.1146 47.4431 15.3501 46.443 16.6508C45.0552 18.4522 43.8707 20.4126 42.917 22.4751C44.1327 20.8082 45.5615 19.4221 46.9432 17.8493C49.0639 15.4325 51.5636 13.1096 54.6928 12.3726L54.6912 12.3765Z" fill="#5091C2"/>
<g style="mix-blend-mode:multiply">
<path d="M28.8867 61.7397C28.8867 61.7397 28.8867 61.7397 28.8903 61.7412C28.8903 61.7412 28.8933 61.734 28.8896 61.7325L28.8867 61.7397Z" fill="url(#paint0_linear_614_17516)"/>
<path d="M42.9482 22.365C44.1639 20.6981 45.5927 19.3119 46.9744 17.7392C49.0951 15.3224 51.5948 12.9995 54.724 12.2625C54.6491 12.2459 54.5743 12.2293 54.5033 12.2143C54.59 12.1904 54.6751 12.1703 54.7602 12.1502C53.1668 11.7526 51.4479 12.1835 50.044 13.0359C48.64 13.8883 47.5121 15.1238 46.512 16.4244C45.1243 18.2259 43.9398 20.1863 42.986 22.2488C43.0048 22.2246 43.0236 22.2005 43.0424 22.1763C43.0172 22.2387 42.9827 22.3018 42.9537 22.3626L42.9482 22.365Z" fill="url(#paint1_linear_614_17516)"/>
<path d="M28.9199 61.626C28.9199 61.626 28.9199 61.626 28.9235 61.6274C28.9235 61.6274 28.9265 61.6202 28.9228 61.6187L28.9199 61.626Z" fill="url(#paint2_linear_614_17516)"/>
<path d="M43.9678 67.3058C42.6896 65.2045 40.8493 63.4522 38.6844 62.2804C36.5078 61.104 34.0533 60.5269 31.8226 59.4509C28.0166 57.6176 24.9482 54.2918 23.4276 50.3527C23.4204 50.4042 23.4148 50.4518 23.4077 50.5033C23.403 50.4923 23.3999 50.4775 23.3914 50.465C23.1055 52.3209 23.7051 54.2393 24.7405 55.8076C25.7758 57.3759 27.2163 58.6363 28.7297 59.7493C33.3143 63.1245 38.642 65.3084 43.9371 67.4157C43.9005 67.3602 43.864 67.3047 43.8329 67.2469C43.8797 67.2657 43.9265 67.2846 43.9733 67.3035L43.9678 67.3058Z" fill="url(#paint3_linear_614_17516)"/>
<path d="M59.5307 105.677L59.4697 105.738C59.4875 105.772 59.4984 105.79 59.4984 105.79L57.9114 107.367C54.4221 99.8017 51.6043 92.6618 49.3457 85.9557C48.8466 86.1034 47.7394 86.3322 45.2865 86.6167C40.7975 87.1409 39.2478 82.6781 39.2478 82.6781C39.3706 82.8681 39.5068 83.0362 39.6531 83.1904C39.6446 83.1552 39.6361 83.1201 39.6276 83.0849C40.8257 84.1932 42.6267 84.312 44.2534 84.1884C45.7584 84.0746 47.3044 83.8141 48.7558 84.1591C48.4424 83.1944 48.139 82.2383 47.8442 81.2948C46.1927 81.6033 44.5428 81.9079 42.8914 82.2165C41.6858 82.4419 40.4404 82.6649 39.2462 82.401C38.1964 82.1727 37.2529 81.5794 36.4627 80.853C35.6709 80.1305 35.0098 79.275 34.3565 78.4225C34.4002 78.4265 34.4462 78.436 34.4899 78.4401C34.4581 78.3955 34.4246 78.3548 34.3888 78.3087C37.0384 78.6155 39.418 80.0414 41.9963 80.7273C43.8711 81.2248 45.8454 81.3183 47.7591 81.0112C47.4682 80.0692 47.1913 79.1374 46.9245 78.2143C43.8886 78.7985 40.6772 79.3346 37.7988 78.2241C36.1171 77.5734 34.6531 76.3715 33.691 74.8463C33.1548 73.9958 32.7765 73.0458 32.5708 72.0611C31.8738 72.0701 31.1761 72.0698 30.4816 72.0165C28.687 71.8821 26.806 71.3323 25.6594 69.9502C25.7218 69.9753 25.7873 69.9927 25.8512 70.0139C25.7975 69.956 25.7438 69.8981 25.6956 69.8379C28.9959 71.0596 32.6388 68.2277 36.0714 69.0088C37.902 69.425 39.3382 70.7969 40.8172 71.9505C42.226 73.0531 43.963 74.0388 45.7057 73.7625C45.6539 73.5649 45.6021 73.3673 45.5519 73.1658C45.5319 73.0807 45.5079 72.994 45.4863 72.9128C45.4368 72.7207 45.3874 72.5285 45.3419 72.338C45.2577 71.9959 45.172 71.6578 45.0863 71.3196C44.1742 71.5138 43.179 71.2622 42.3319 70.8346C41.3296 70.3309 40.4559 69.5981 39.4834 69.0429C37.9218 68.1506 36.149 67.726 34.4531 67.133C33.1627 66.6808 31.8819 66.1146 30.8393 65.2276C29.8006 64.3421 29.0086 63.103 28.9007 61.7409C28.9186 61.7526 28.9349 61.7683 28.949 61.7785C28.9429 61.7262 28.9352 61.6777 28.933 61.627C31.7623 63.8596 35.1031 65.1157 38.3369 66.7048C40.6261 67.8269 42.7772 69.2016 44.9111 70.5965C44.6625 69.5719 44.4303 68.5629 44.2082 67.5626L43.9899 67.4972C43.9728 67.4722 43.9572 67.4433 43.9401 67.4183C44.0259 67.4528 44.1116 67.4874 44.1974 67.522C44.1912 67.4923 44.1851 67.4626 44.1789 67.4329L44.0206 67.3873C44.0035 67.3622 43.988 67.3333 43.9709 67.3083C44.0371 67.335 44.0995 67.3602 44.1658 67.3869C43.946 66.392 43.7403 65.4073 43.547 64.4367C40.6103 62.3693 37.451 60.629 34.4665 58.6239C31.165 56.4048 28.0175 53.7812 25.9897 50.3582C24.9292 48.5713 24.1936 46.3942 24.7912 44.4283C24.8275 44.2934 24.8731 44.1577 24.9226 44.0236C27.5685 48.8921 31.1625 53.2409 35.4471 56.7535C38.2396 59.0437 41.3848 61.0547 43.4654 63.987C43.0959 62.0934 42.7699 60.2491 42.4899 58.4596C41.523 56.6652 39.8377 55.3378 38.0901 54.2663C36.2294 53.1265 34.227 52.1924 32.5285 50.819C29.6238 48.4699 27.7752 44.8609 27.5651 41.1329C27.5799 41.1525 27.597 41.1775 27.6118 41.1971C27.6088 41.137 27.6043 41.0808 27.6013 41.0207C31.3917 46.355 37.6068 52.5761 42.305 57.2432C42.1196 55.9722 41.9497 54.73 41.8062 53.5122C36.7087 49.8804 33.5771 43.9688 28.6129 40.1188C27.2312 39.0498 25.7017 38.1342 24.5439 36.8246C23.4048 35.5362 22.6604 33.7181 23.1736 32.0853C23.191 32.0198 23.2107 31.9597 23.2319 31.8958C24.5818 34.325 26.7183 36.2194 28.9365 37.8884C31.157 39.563 33.5099 41.0778 35.5128 43C37.7368 45.1381 40.117 48.0914 41.541 51.1124C41.3381 49.0866 41.1888 47.1414 41.0892 45.2751C35.3823 42.7842 30.9603 38.1288 29.035 32.563C28.9297 32.2622 28.833 31.9514 28.7495 31.6413C27.3788 30.5903 26.1351 29.2914 25.3712 27.7691C25.0288 27.1235 24.7699 26.4392 24.6283 25.7114C24.6734 25.7568 24.7186 25.8022 24.7676 25.8491C24.7599 25.8234 24.7561 25.7992 24.7499 25.7695C25.859 26.8963 27.1631 27.7754 28.5353 28.5642C28.5678 28.4051 28.6041 28.2476 28.6498 28.0893C28.664 28.0315 28.6821 27.9754 28.7017 27.9154C28.7065 27.9037 28.7127 27.8881 28.7175 27.8764C28.7371 27.8163 28.7568 27.7563 28.7804 27.6978C28.7866 27.6822 28.7929 27.6666 28.8008 27.6472C28.8228 27.5926 28.8448 27.538 28.8684 27.4795C28.8762 27.4601 28.8841 27.4406 28.8919 27.4211C28.9139 27.3665 28.9383 27.3174 28.9626 27.2683C28.972 27.2449 28.9814 27.2215 28.9948 27.1997C29.0191 27.1506 29.0434 27.1015 29.0701 27.0579C29.0811 27.0306 29.0983 27.0103 29.1132 26.9846C29.1398 26.941 29.1626 26.8958 29.1892 26.8522C29.2041 26.8264 29.2245 26.7984 29.2394 26.7727C29.2645 26.7329 29.2911 26.6893 29.3201 26.6511C29.3405 26.6231 29.3608 26.5951 29.3812 26.567C29.4102 26.5289 29.4337 26.493 29.4627 26.4549C29.483 26.4268 29.5089 26.3964 29.5331 26.37C29.5605 26.3357 29.588 26.3015 29.6193 26.2688C29.6451 26.2384 29.6748 26.2096 29.7007 26.1792C29.7304 26.1504 29.7578 26.1162 29.7875 26.0874C29.8173 26.0586 29.8486 26.0259 29.8822 25.9986C29.9104 25.9737 29.9362 25.9434 29.9683 25.9201C30.0035 25.8889 30.0387 25.8578 30.0778 25.8283C30.1044 25.8072 30.1325 25.7823 30.1591 25.7613C30.1998 25.7279 30.2444 25.696 30.2889 25.6642C30.314 25.647 30.3351 25.6284 30.3601 25.6113C30.4297 25.5623 30.5016 25.5188 30.5735 25.4753C30.58 25.6954 30.5919 25.9131 30.6038 26.1309C30.6082 26.2097 30.6143 26.2847 30.6188 26.3635C30.6278 26.4986 30.6391 26.6391 30.6481 26.7741C30.658 26.8733 30.664 26.9708 30.6754 27.0661C30.686 27.1746 30.699 27.2886 30.7096 27.3971C30.7226 27.511 30.7356 27.625 30.7501 27.7351C30.7578 27.7835 30.7615 27.8303 30.7692 27.8788C30.8128 28.209 30.8658 28.5385 30.9227 28.8695C30.9227 28.8695 30.9234 28.8789 30.9257 28.8844C30.9542 29.0499 30.9865 29.217 31.0227 29.3857C31.0289 29.4154 31.0351 29.445 31.0412 29.4747C31.0759 29.6473 31.1121 29.8159 31.1507 29.9901C32.5948 30.758 34.031 31.5454 35.3215 32.5369C38.021 34.6084 40.0156 37.5739 40.9489 40.8457C40.9231 39.0998 40.9377 37.4336 40.9895 35.8549C38.1816 33.4905 35.8052 30.584 34.2821 27.2466C32.8436 24.0929 32.1981 20.6471 31.5594 17.2404C31.5851 17.2779 31.6107 17.3154 31.6364 17.353C31.621 17.2788 31.6071 17.2007 31.5956 17.1281C35.0073 22.2101 39.7338 28.8869 41.0238 34.9942C41.1091 32.8942 41.2501 30.9482 41.4359 29.1607C38.6834 27.3895 36.8559 24.369 36.173 21.1619C35.5218 18.09 35.8559 14.8669 36.7731 11.8607C36.8416 11.6346 36.9101 11.4084 36.9864 11.1855C36.8713 15.4167 37.8425 19.6734 39.7843 23.4333C40.5351 24.887 41.4543 26.3949 41.5671 27.981C41.7373 26.5135 41.9336 25.1607 42.143 23.922C40.5194 21.396 39.7517 18.3994 39.3156 15.4232C39.088 13.8633 38.9385 12.2895 38.5273 10.7689C38.1162 9.2483 37.4194 7.76204 36.2586 6.69597C36.3443 6.73054 36.4262 6.76354 36.512 6.79811C36.4419 6.72456 36.3664 6.65335 36.2932 6.5876C38.5386 7.42478 40.348 9.35496 41.0349 11.6528C42.175 15.4566 40.8089 19.9585 42.1835 23.6528C42.6552 20.9202 43.1838 18.777 43.6258 17.2423C43.1376 17.1044 42.5563 16.4668 42.3959 16.0215C42.2193 15.5379 42.2184 15.0119 42.1714 14.499C42.0818 13.5521 41.8275 12.6204 41.8262 11.6682C41.8253 11.1196 41.9095 10.5735 42.067 10.0479C42.2584 9.38193 42.5715 8.75139 42.9913 8.20465C43.2643 10.0004 43.3531 11.8261 43.26 13.6419C43.2048 14.7344 43.2556 15.8786 43.7345 16.8601C43.8298 16.5451 43.9195 16.255 44.0006 15.9977C43.8382 15.7147 43.8611 15.3433 43.9673 15.0236C43.9689 15.0197 43.972 15.0119 43.9752 15.0041C43.9877 14.9729 43.9925 14.9386 44.0035 14.9113C44.1144 14.5799 44.2932 14.2714 44.4041 13.94C44.5271 13.4775 44.5004 12.9819 44.6116 12.5147C44.6251 12.4476 44.6479 12.3798 44.6691 12.3158C44.8591 11.6085 45.3594 11.0081 45.9483 10.5703C46.5637 10.1115 47.2724 9.80354 47.974 9.50182C47.92 9.55709 47.8699 9.61392 47.8159 9.66918C47.8597 9.65057 47.898 9.63429 47.9417 9.61568C47.4776 10.1038 47.012 10.5958 46.6125 11.1371C46.2624 11.6122 45.9628 12.1304 45.7795 12.6864C45.7661 12.7308 45.7527 12.7753 45.7393 12.8197C45.6077 13.3149 45.5743 13.8362 45.4255 14.329C45.4081 14.3945 45.3892 14.4639 45.368 14.5279C45.1634 15.1478 44.7436 15.6945 44.2041 16.0661C44.0402 16.6526 43.8841 17.2422 43.7358 17.8349C44.7222 16.9955 45.4513 16.0297 46.0398 14.8622C46.5749 13.8045 46.919 12.6473 47.5508 11.6422C48.5407 10.0746 50.2372 8.9686 52.0711 8.70192C51.9711 8.7477 51.8758 8.80441 51.7804 8.86113C51.8639 8.84496 51.9514 8.83037 52.0388 8.81578C51.2691 9.18521 50.6649 9.82979 50.1784 10.5309C49.6918 11.232 49.3183 12.0013 48.8855 12.7376C47.5605 14.9903 45.8278 16.8158 43.6395 18.2311C43.2844 19.6966 42.9776 21.1771 42.7208 22.6686C42.8155 22.5346 42.9064 22.399 43.0036 22.2705C42.9768 22.3368 42.9439 22.396 42.9133 22.4607C42.9321 22.4366 42.9486 22.407 42.9674 22.3828C42.892 22.5473 42.8127 22.7102 42.7413 22.8762L42.6748 22.9174C42.6637 22.99 42.6526 23.0625 42.6376 23.1335C42.4986 24.0291 42.3807 24.9286 42.2745 25.8328C44.3577 24.0036 46.1513 21.9036 47.5543 19.637C48.3217 18.3966 49.005 17.0725 50.1767 16.0993C51.2937 15.172 52.7388 14.667 54.1557 14.2322C57.5542 13.187 61.0269 12.4072 64.5238 11.9046C64.3777 11.9636 64.2316 12.0225 64.0855 12.0814C64.2198 12.063 64.3557 12.0408 64.4915 12.0185C61.8407 13.0751 59.1843 14.1341 56.5335 15.1907C55.0866 15.7675 53.6232 16.3512 52.3573 17.2321C50.8217 18.2987 49.6683 19.7324 48.4222 21.0699C46.5845 23.0434 44.5187 24.4809 42.2576 26.0209C42.0505 27.8497 41.909 29.6958 41.8268 31.5522C43.5397 27.7975 45.4409 24.2953 48.7232 21.7622C50.9489 20.0402 53.6675 19.0517 56.4325 18.5214C59.1935 17.9895 62.0213 17.8878 64.8327 17.7931C64.7569 17.835 64.6827 17.8731 64.6084 17.9111C64.6724 17.9097 64.7364 17.9083 64.802 17.903C61.4302 19.7702 57.1986 19.4873 53.7996 21.2981C51.791 22.369 50.2255 24.0942 48.5303 25.6131C46.1145 27.7841 43.448 29.138 41.8262 31.7786C41.7478 33.6592 41.7287 35.5502 41.7626 37.4444C41.9407 36.8002 42.1188 36.156 42.3086 35.5166C42.6929 34.226 43.1279 32.9558 43.7032 31.7422C44.6003 29.8427 45.8702 28.0753 47.5997 26.8874C49.3917 25.6568 51.555 25.1241 53.6319 24.4795C57.3389 23.3321 60.916 21.7652 64.2763 19.8254C64.1902 19.904 64.1081 19.9842 64.022 20.0628C64.0978 20.0208 64.1697 19.9773 64.2455 19.9354C61.7183 22.3378 58.865 24.3913 55.7818 26.0259C53.6896 27.1355 51.4878 28.056 49.5409 29.4009C46.3399 31.6088 44.0064 34.8234 41.7806 38.0181C41.8165 39.469 41.8844 40.9192 41.9804 42.3672C43.4816 38.7219 45.8727 33.2512 48.5275 31.6116C51.6223 29.7007 55.0488 28.4175 58.3991 27.0084C61.7494 25.5994 65.0915 24.0193 67.8333 21.6354C67.7965 21.6931 67.7581 21.7546 67.7213 21.8123C67.7479 21.7913 67.7745 21.7703 67.7971 21.7477C65.7566 25.1122 62.4786 27.5337 59.076 29.5108C55.6735 31.4879 52.0635 33.114 48.8381 35.371C45.9717 37.3784 43.3721 39.9828 42.0329 43.1813C42.0977 44.0548 42.1695 44.9221 42.2546 45.7901C42.6643 44.9086 43.1894 44.078 43.8173 43.3297C44.7623 42.2107 45.912 41.2921 47.0547 40.3797C49.1703 38.695 51.282 37.0086 53.4971 35.4592C57.2823 32.8025 61.3396 30.5501 65.3805 28.3047C65.3414 28.3569 65.3022 28.4091 65.2615 28.4652C65.2904 28.4496 65.3193 28.4341 65.3482 28.4186C62.1952 32.7892 58.1231 36.4947 53.4785 39.2263C51.2749 40.5222 48.9354 41.6046 46.836 43.0693C45.0595 44.3062 43.432 45.8706 42.4607 47.7855C42.6322 49.3047 42.8319 50.8216 43.055 52.3253C43.1031 52.1272 43.1606 51.9284 43.2204 51.735C43.9906 49.1725 45.6902 46.8896 47.7171 45.1102C50.2493 42.8865 53.2879 41.3291 56.2772 39.7699C59.2666 38.2108 62.2841 36.6042 64.7518 34.3046C64.7345 34.3475 64.7172 34.3904 64.6999 34.4332C64.7031 34.4254 64.714 34.4208 64.7195 34.4185C63.4637 37.6687 60.7442 40.1433 57.8265 42.053C54.9088 43.9627 51.7199 45.4323 48.8527 47.4077C46.5915 48.9703 44.4947 50.9345 43.2076 53.3294C43.5421 55.4671 43.922 57.5823 44.3449 59.6696C44.5374 58.8772 44.7471 58.0872 44.9818 57.3027C45.8544 54.3737 47.105 51.5971 49.3829 49.6334C52.0926 47.2954 56.0718 46.5295 59.4597 47.6913C59.405 47.7146 59.3503 47.7379 59.2956 47.7611C59.3385 47.7784 59.3845 47.7879 59.4274 47.8052C52.7895 50.5353 47.4252 56.1986 45.0462 62.9657C45.155 63.4491 45.2637 63.9325 45.3764 64.4174C48.5639 60.242 51.7858 56.0714 55.4258 52.2914C55.6989 52.0072 55.9705 51.727 56.2459 51.4483C58.6523 49.0198 61.2431 46.7744 63.9863 44.7354C62.9583 46.836 61.769 48.8533 60.4402 50.7782C58.7424 53.2703 56.8053 55.6025 54.6674 57.736C55.9789 57.3267 57.3817 57.2079 58.7375 57.4191C58.6625 57.4478 58.5875 57.4765 58.5086 57.5036C58.5734 57.5116 58.6381 57.5195 58.7013 57.5314C54.8453 58.9134 51.6582 62.0422 50.2057 65.8703C49.4795 67.7843 48.4125 69.5655 47.0762 71.1158C47.3436 72.0936 47.6196 73.0613 47.898 74.0119C49.958 69.5088 52.4421 65.145 55.9415 61.6572C59.7329 57.8838 64.8628 55.2074 70.2102 55.2966C70.0867 55.333 69.9633 55.3693 69.8423 55.4111C69.9554 55.4114 70.0647 55.4102 70.1778 55.4105C65.1838 56.8729 60.8159 60.0196 57.187 63.7498C53.8038 67.2301 51.0031 71.2215 48.2545 75.2295C48.4526 75.8848 48.6483 76.5347 48.851 77.1783C49.9226 74.8461 51.355 72.6866 53.0802 70.79C56.6299 66.8966 61.2978 64.2423 65.882 61.6495C65.8358 61.7079 65.7857 61.7647 65.7395 61.8232C65.7754 61.8014 65.8114 61.7796 65.8497 61.7634C64.2774 63.6853 62.6926 65.6157 60.774 67.1941C59.0673 68.5951 57.1305 69.6903 55.3522 70.999C52.8749 72.828 50.7125 75.0785 48.9872 77.6274C49.2952 78.6171 49.611 79.5872 49.9253 80.5386C50.9915 79.029 52.0554 77.5139 53.1216 76.0043C54.2944 74.3427 55.4789 72.6633 57.0051 71.3164C58.2552 70.2162 59.7115 69.3578 61.1708 68.5141C61.6633 67.9332 62.176 67.3696 62.7074 66.827C63.1356 66.0345 63.4023 65.5302 63.4023 65.5302C63.4023 65.5302 63.1857 65.9776 62.8153 66.7165C62.838 66.6939 62.8623 66.6674 62.885 66.6449C62.8693 66.6838 62.8575 66.7244 62.8472 66.761C62.8472 66.761 62.8472 66.761 62.8488 66.7571C62.8063 66.885 62.7654 67.009 62.7268 67.1385C62.9019 66.7378 63.0786 66.3332 63.2498 65.931C63.1189 66.4356 63.0286 66.952 62.9569 67.4669C64.5641 66.4925 66.0732 65.4242 67.2073 63.9374C67.197 63.974 67.1852 64.0146 67.175 64.0513C66.5012 66.4985 64.9531 68.6975 62.874 70.1568C62.824 70.191 61.4862 71.0927 61.4362 71.1269C61.34 72.647 60.5803 73.9358 59.8739 75.4409C58.8959 77.5299 57.4581 79.3655 55.6312 80.7724C53.6213 82.3186 52.8404 83.3677 51.1641 85.1208C55.4152 97.012 59.8753 105.226 59.8753 105.226L59.4942 105.598C59.53 105.667 59.5462 105.705 59.5462 105.705L59.5307 105.677ZM40.0439 43.9338C40.3718 44.1883 40.7067 44.4366 41.0486 44.6787C40.9962 43.561 40.9593 42.4722 40.938 41.4123C39.4204 39.2417 37.5134 37.3401 35.3416 35.8257C34.4045 35.1715 33.4188 34.5929 32.4331 34.0143C32.4912 34.1511 32.5471 34.2823 32.6052 34.4191C32.6347 34.4808 32.6603 34.541 32.6882 34.6066C32.7658 34.7738 32.8434 34.941 32.921 35.1083C32.9528 35.1755 32.9862 35.2388 33.0181 35.306C33.0879 35.4474 33.1617 35.5904 33.2354 35.7335C33.2735 35.8077 33.3115 35.8819 33.3511 35.9523C33.4202 36.0844 33.4909 36.2125 33.5616 36.3407C33.6012 36.4111 33.6369 36.4798 33.6765 36.5502C33.7643 36.7034 33.8521 36.8566 33.9414 37.0059C33.985 37.0778 34.0285 37.1497 34.0743 37.2271C34.1396 37.335 34.2087 37.4444 34.274 37.5523C34.337 37.6547 34.4038 37.7587 34.4722 37.8588C34.539 37.9627 34.6098 38.0683 34.6805 38.1738C34.7341 38.2544 34.7917 38.3365 34.8453 38.417C34.9371 38.5491 35.0288 38.6813 35.1244 38.815C35.1859 38.8987 35.2496 38.9878 35.311 39.0715C35.3678 39.1442 35.4191 39.2193 35.4759 39.292C35.5817 39.4343 35.689 39.5728 35.8002 39.7128C35.8508 39.7784 35.9013 39.8441 35.9574 39.9075C36.0328 40.0014 36.1083 40.0952 36.1876 40.1906C36.2273 40.2384 36.267 40.2861 36.3105 40.3353C36.4482 40.4996 36.5875 40.66 36.7307 40.8219C36.768 40.8641 36.8054 40.9064 36.8427 40.9486C37.0186 41.1419 37.1944 41.3351 37.3734 41.5206C37.3812 41.5237 37.3859 41.5346 37.3921 41.5417C37.4909 41.645 37.5898 41.7482 37.6902 41.8476C37.7026 41.8617 37.7167 41.8719 37.7291 41.886C37.9198 42.0761 38.1121 42.2624 38.3082 42.4502C38.3246 42.4659 38.3448 42.4831 38.3612 42.4987C38.8976 43.0004 39.4566 43.4796 40.0384 43.9361C40.0384 43.9361 40.0384 43.9361 40.0423 43.9377L40.0439 43.9338ZM43.7676 76.4795C44.854 76.7407 45.9432 77.1526 46.8147 77.8347C46.4868 76.692 46.1753 75.565 45.8802 74.4536C42.4573 74.4242 39.2789 72.5403 35.8663 72.1479C35.2476 72.0753 34.6296 72.0572 34.0052 72.0548C35.3954 73.7208 37.2736 74.9855 39.3573 75.5943C40.7961 76.0157 42.3067 76.1353 43.766 76.4834L43.7676 76.4795ZM49.0723 62.477C47.9079 63.3308 46.7008 64.1221 45.4595 64.8633C45.8515 66.5212 46.2646 68.1604 46.6935 69.7607C46.9364 68.5173 47.2043 67.2795 47.5743 66.0692C47.7437 65.5031 47.9325 64.9448 48.1485 64.3975C48.4141 63.7388 48.7186 63.0957 49.0684 62.4754L49.0723 62.477ZM58.1415 72.7578C57.7694 72.9839 57.4043 73.2264 57.0618 73.4917C55.5672 74.6474 54.4525 76.21 53.2763 77.6889C52.3296 78.8796 51.2947 80.053 50.0305 80.8846C50.4145 82.0454 50.804 83.1812 51.1905 84.2795C51.2583 83.7178 51.3566 83.1593 51.518 82.6353C51.7315 81.8921 52.0604 81.1999 52.5895 80.6293C53.1984 79.973 54.0159 79.5413 54.6676 78.9249C55.6973 77.9443 56.2278 76.5722 56.8236 75.2852C57.2216 74.4216 57.6648 73.5807 58.1438 72.7633L58.1415 72.7578ZM42.254 25.9061C42.254 25.9061 42.254 25.9061 42.2524 25.91C42.2555 25.9022 42.2665 25.8976 42.2735 25.8914C42.2665 25.8976 42.261 25.8999 42.254 25.9061Z" fill="url(#paint4_linear_614_17516)"/>
</g>
<path d="M248.142 61.8496C248.142 61.8496 248.142 61.8496 248.138 61.8511C248.138 61.8511 248.135 61.8438 248.139 61.8423L248.142 61.8496Z" fill="#5091C2"/>
<path d="M245.241 59.6787C249.047 57.8454 252.115 54.5196 253.636 50.5805C253.922 52.4364 253.322 54.3548 252.287 55.9231C251.251 57.4914 249.811 58.7518 248.298 59.8649C243.713 63.24 238.385 65.4239 233.09 67.5313C234.368 65.43 236.209 63.6777 238.374 62.5059C240.55 61.3294 243.005 60.7523 245.235 59.6764L245.241 59.6787Z" fill="#5091C2"/>
<path d="M235.284 43.9222C235.227 44.7925 235.156 45.6637 235.079 46.5286C234.642 45.445 234.032 44.4266 233.278 43.5342C232.333 42.4152 231.184 41.4966 230.041 40.5842C227.926 38.8995 225.814 37.2131 223.599 35.6637C219.813 33.007 215.756 30.7546 211.715 28.5092C214.868 32.8798 218.94 36.5853 223.585 39.3169C225.789 40.6128 228.128 41.6953 230.228 43.16C232.188 44.5267 233.974 46.2943 234.887 48.4911C234.705 50.2094 234.484 51.9207 234.234 53.6165C233.819 50.3717 231.841 47.4761 229.377 45.3108C226.845 43.0871 223.806 41.5297 220.817 39.9706C217.828 38.4114 214.81 36.8048 212.342 34.5052C213.598 37.7555 216.318 40.23 219.235 42.1397C222.153 44.0494 225.342 45.519 228.209 47.4945C230.665 49.1916 232.93 51.3598 234.171 54.0451C233.826 56.3366 233.423 58.6064 232.977 60.8389C232.037 56.7769 230.848 52.5345 227.711 49.834C225.002 47.496 221.022 46.7302 217.635 47.8919C224.413 50.6787 229.866 56.5283 232.167 63.4852L232.627 62.5342C232.445 63.3869 232.26 64.2318 232.068 65.0705C228.57 60.4854 225.052 55.895 220.995 51.7984C218.588 49.3699 215.997 47.1245 213.254 45.0855C215.596 49.8602 218.761 54.2261 222.538 57.9644C221.195 57.5224 219.748 57.3944 218.355 57.6158C222.211 58.9978 225.402 62.1251 226.851 65.9547C227.653 68.0691 228.87 70.0208 230.405 71.6814C230.11 72.7701 229.809 73.8432 229.499 74.8969C227.378 70.1513 224.823 65.5215 221.143 61.8571C217.352 58.0837 212.222 55.4072 206.875 55.4965C211.869 56.9589 216.237 60.1056 219.866 63.8358C223.418 67.4881 226.327 71.7032 229.205 75.9083C228.987 76.6394 228.767 77.3627 228.546 78.0727C227.446 75.4799 225.904 73.0701 224.005 70.9899C220.455 67.0964 215.787 64.4422 211.203 61.8493C212.775 63.7713 214.36 65.7017 216.279 67.2801C217.985 68.6811 219.922 69.7763 221.7 71.085C224.375 73.0563 226.68 75.5257 228.467 78.3265C228.156 79.3217 227.844 80.2996 227.527 81.2565C226.339 79.5692 225.153 77.8859 223.966 76.1986C222.793 74.5371 221.608 72.8577 220.082 71.5108C218.832 70.4106 217.376 69.5521 215.916 68.7085C215.371 68.063 214.797 67.4378 214.198 66.8408L214.545 67.9153C212.78 66.8735 211.103 65.7502 209.871 64.131C210.544 66.5782 212.094 68.7812 214.171 70.2366C214.621 70.5538 215.092 70.835 215.575 71.0983C215.907 72.1245 216.241 73.1452 216.573 74.1714C216.994 75.4611 217.42 76.7664 218.162 77.8992C219.239 79.536 220.889 80.6835 222.413 81.9133C223.835 83.0575 225.229 84.3805 225.862 86.0739C221.594 98.0128 217.524 105.902 217.524 105.902L219.111 107.478C222.633 99.837 225.474 92.633 227.743 85.873C227.887 85.9374 228.068 85.9369 228.229 85.931C229.816 85.844 231.399 85.7586 232.986 85.6716C233.891 85.6239 234.816 85.5684 235.654 85.2306C236.496 84.8912 237.249 84.207 237.43 83.3184C236.232 84.4267 234.431 84.5455 232.804 84.4219C231.275 84.3042 229.703 84.036 228.227 84.4091C228.555 83.4023 228.873 82.404 229.177 81.416C230.829 81.7245 232.479 82.0291 234.13 82.3377C235.336 82.5631 236.581 82.7861 237.775 82.5222C238.825 82.2939 239.769 81.7005 240.559 80.9742C241.351 80.2517 242.01 79.3922 242.665 78.5437C240.015 78.8505 237.636 80.2765 235.057 80.9624C233.162 81.4638 231.165 81.5574 229.231 81.2355C229.531 80.2584 229.82 79.2899 230.097 78.3354C233.133 78.9197 236.344 79.4558 239.223 78.3453C240.904 77.6946 242.368 76.4927 243.33 74.9675C243.867 74.117 244.245 73.1669 244.451 72.1823C245.148 72.1913 245.845 72.191 246.54 72.1376C248.334 72.0033 250.215 71.4535 251.362 70.0714C248.062 71.293 244.419 68.4612 240.986 69.2423C239.156 69.6585 237.718 71.0265 236.24 72.184C234.814 73.2983 233.055 74.2973 231.294 73.9875C231.52 73.1308 231.734 72.2788 231.939 71.4392C232.851 71.6335 233.846 71.3818 234.697 70.9527C235.7 70.4489 236.573 69.7161 237.546 69.161C239.107 68.2686 240.88 67.844 242.576 67.251C243.867 66.7988 245.147 66.2327 246.19 65.3456C247.229 64.4602 248.021 63.2211 248.129 61.8589C245.299 64.0915 241.958 65.3476 238.725 66.9367C236.408 68.0698 234.233 69.4633 232.079 70.8754C232.337 69.7969 232.583 68.7325 232.813 67.6838L233.039 67.6153C233.056 67.5903 233.072 67.5613 233.089 67.5363C232.999 67.5725 232.914 67.607 232.824 67.6432C233.051 66.5999 233.268 65.5746 233.467 64.561C236.407 62.492 239.57 60.7502 242.557 58.7396C245.859 56.5206 249.006 53.8969 251.034 50.4739C252.145 48.5987 252.906 46.2936 252.137 44.2516C249.491 49.1201 245.897 53.4689 241.613 56.9815C238.78 59.3062 235.582 61.3431 233.507 64.3455C233.893 62.3817 234.226 60.4758 234.517 58.623C235.478 56.8036 237.181 55.4645 238.945 54.3866C240.805 53.2469 242.808 52.3128 244.506 50.9394C247.411 48.5903 249.259 44.9813 249.47 41.2533C245.66 46.6181 239.39 52.8839 234.682 57.5596C234.88 56.2292 235.052 54.927 235.2 53.6529C240.317 50.0226 243.446 44.0939 248.422 40.2392C249.803 39.1702 251.333 38.2546 252.491 36.945C253.649 35.6355 254.398 33.7838 253.837 32.1245C252.488 34.5538 250.351 36.4481 248.133 38.1172C245.912 39.7917 243.559 41.3066 241.557 43.2287C239.284 45.4138 236.842 48.4508 235.431 51.5389C235.65 49.4069 235.804 47.3602 235.905 45.4072C241.631 42.9179 246.072 38.2546 248.002 32.6779C248.107 32.3771 248.204 32.0663 248.288 31.7562C250.199 30.2925 251.864 28.3525 252.319 25.9983C251.208 27.1305 249.898 28.0074 248.522 28.7977C248.32 27.5878 247.643 26.3792 246.506 25.6954C246.46 27.2229 246.261 28.7304 245.927 30.2063C244.483 30.9743 243.047 31.7617 241.756 32.7532C238.97 34.8912 236.93 37.9794 236.042 41.3736C236.075 39.4887 236.055 37.6977 235.999 36.0074C238.832 33.6374 241.231 30.7083 242.763 27.349C244.202 24.1953 244.848 20.7495 245.486 17.3428C242.006 22.5248 237.159 29.3635 235.986 35.5688C235.901 33.3011 235.743 31.2123 235.546 29.307C238.336 27.5388 240.191 24.498 240.878 21.2667C241.573 18.0002 241.15 14.5682 240.099 11.3986C240.214 15.6298 239.243 19.8866 237.301 23.6464C236.408 25.3752 235.28 27.1755 235.545 29.1033L235.528 29.1509C235.423 28.1827 235.309 27.259 235.188 26.3836C235.202 26.3961 235.218 26.4031 235.232 26.4155C235.218 26.4031 235.202 26.3867 235.184 26.3759C235.076 25.5902 234.956 24.8413 234.837 24.1322C236.506 21.5835 237.289 18.5448 237.734 15.5241C237.961 13.9641 238.111 12.3904 238.522 10.8698C238.933 9.34914 239.63 7.86287 240.789 6.79291C238.544 7.63009 236.735 9.56028 236.048 11.8582C234.889 15.7283 236.322 20.3166 234.829 24.0448C234.332 21.1593 233.775 18.9233 233.317 17.359C233.826 17.2944 234.48 16.591 234.652 16.1184C234.829 15.6348 234.83 15.1088 234.877 14.596C234.966 13.649 235.22 12.7173 235.222 11.7652C235.228 10.5664 234.821 9.36639 234.089 8.41544C233.816 10.2112 233.727 12.0369 233.82 13.8527C233.879 14.9982 233.819 16.2003 233.274 17.2085C233.166 16.8396 233.061 16.5106 232.967 16.222L232.977 16.1908C233.212 15.8967 233.192 15.4746 233.075 15.1182C232.959 14.7619 232.756 14.4401 232.652 14.079C232.509 13.6018 232.548 13.092 232.435 12.6077C232.261 11.8621 231.744 11.2321 231.13 10.7772C230.515 10.3183 229.806 10.0104 229.105 9.70871C229.569 10.1968 230.034 10.6888 230.434 11.2301C230.833 11.7715 231.167 12.3754 231.339 13.0266C231.48 13.5546 231.507 14.1055 231.68 14.6248C231.886 15.2486 232.306 15.7954 232.845 16.167C233.02 16.7901 233.186 17.4163 233.344 18.0457C232.358 17.2062 231.629 16.2405 231.04 15.0729C230.505 14.0153 230.161 12.8581 229.529 11.853C228.54 10.2854 226.843 9.17938 225.009 8.91269C225.779 9.28212 226.383 9.92671 226.87 10.6278C227.352 11.3305 227.73 12.0982 228.162 12.8345C229.489 15.0911 231.223 16.9205 233.415 18.3343C233.781 19.8364 234.096 21.3496 234.359 22.8794C234.265 22.7454 234.174 22.6098 234.077 22.4813C234.152 22.6458 234.231 22.8087 234.303 22.9747L234.386 23.0229C234.558 24.0362 234.71 25.0535 234.843 26.0786C232.737 24.2401 230.935 22.1299 229.526 19.8478C228.759 18.6074 228.075 17.2833 226.904 16.3101C225.787 15.3828 224.341 14.8778 222.925 14.443C219.526 13.3977 216.053 12.618 212.556 12.1154C215.207 13.1721 217.864 14.231 220.514 15.2877C221.961 15.8644 223.425 16.4482 224.691 17.329C226.226 18.3957 227.38 19.8294 228.626 21.1668C230.481 23.1606 232.568 24.6074 234.857 26.159C235.107 28.1063 235.277 30.0679 235.386 32.0358C233.636 28.1781 231.725 24.562 228.362 21.962C226.136 20.2401 223.417 19.2515 220.652 18.7212C217.891 18.1893 215.064 18.0876 212.252 17.9929C215.624 19.8601 219.856 19.5772 223.255 21.388C225.263 22.4589 226.829 24.1841 228.524 25.703C231.021 27.9409 233.782 29.3156 235.384 32.1318C235.493 34.1677 235.528 36.2108 235.505 38.2548L235.392 37.9063C234.838 35.8817 234.279 33.8416 233.383 31.946C232.486 30.0465 231.216 28.279 229.487 27.0912C227.695 25.8605 225.531 25.3278 223.455 24.6833C219.748 23.5358 216.17 21.9689 212.81 20.0292C215.337 22.4316 218.191 24.4851 221.274 26.1197C223.366 27.2293 225.568 28.1498 227.515 29.4947C230.823 31.7772 233.204 35.1314 235.5 38.4336C235.478 39.9875 235.419 41.5477 235.324 43.0995C233.845 39.4767 231.347 33.5373 228.564 31.8176C225.47 29.9068 222.043 28.6236 218.693 27.2145C215.343 25.8054 212 24.2254 209.259 21.8415C211.299 25.206 214.577 27.6275 217.98 29.6046C221.382 31.5817 224.992 33.2078 228.218 35.4648C231.277 37.6028 234.03 40.4307 235.277 43.9292L235.284 43.9222ZM235.935 44.9647C235.99 43.8095 236.028 42.6886 236.05 41.5968C237.578 39.3949 239.498 37.4699 241.695 35.9406C242.664 35.2645 243.688 34.6663 244.711 34.0681C242.928 38.3801 239.899 42.1975 235.935 44.9647ZM230.172 78.1284C230.516 76.9248 230.845 75.7408 231.157 74.5686C234.58 74.5391 237.758 72.6552 241.171 72.2629C241.833 72.1862 242.496 72.168 243.162 72.167C241.764 73.8908 239.846 75.1938 237.714 75.8176C236.276 76.239 234.765 76.3586 233.306 76.7067C232.185 76.9727 231.056 77.4096 230.178 78.1308L230.172 78.1284ZM228.123 84.7684C228.123 84.7684 228.121 84.7645 228.123 84.7591C228.123 84.7591 228.125 84.763 228.123 84.7684ZM227.518 81.301C227.004 82.8586 226.488 84.367 225.97 85.813C225.861 84.0487 225.685 82.1394 224.488 80.8455C223.879 80.1893 223.062 79.7575 222.41 79.1412C221.381 78.1606 220.85 76.7884 220.254 75.5015C219.832 74.5887 219.364 73.6987 218.853 72.8354C219.242 73.0685 219.619 73.3195 219.981 73.5995C221.476 74.7553 222.591 76.3178 223.767 77.7967C224.841 79.1448 226.023 80.4715 227.518 81.301ZM232.029 65.2447C231.571 67.2329 231.082 69.179 230.572 71.0839C230.17 68.8943 229.74 66.693 228.921 64.6263C228.635 63.9169 228.304 63.2208 227.919 62.5561C229.242 63.5227 230.615 64.4235 232.031 65.2486L232.029 65.2447Z" fill="#5091C2"/>
<path d="M222.308 12.3761C223.901 11.9785 225.62 12.4093 227.024 13.2617C228.428 14.1141 229.556 15.3496 230.556 16.6503C231.944 18.4517 233.128 20.4121 234.082 22.4746C232.866 20.8077 231.438 19.4216 230.056 17.8488C227.935 15.432 225.435 13.1091 222.306 12.3722L222.308 12.3761Z" fill="#5091C2"/>
<g style="mix-blend-mode:multiply">
<path d="M248.112 61.7397C248.112 61.7397 248.112 61.7397 248.109 61.7412C248.109 61.7412 248.106 61.734 248.109 61.7325L248.112 61.7397Z" fill="url(#paint5_linear_614_17516)"/>
<path d="M234.051 22.365C232.835 20.6981 231.406 19.3119 230.025 17.7392C227.904 15.3224 225.404 12.9995 222.275 12.2625C222.35 12.2459 222.425 12.2293 222.496 12.2143C222.409 12.1904 222.324 12.1703 222.239 12.1502C223.832 11.7526 225.551 12.1835 226.955 13.0359C228.359 13.8883 229.487 15.1238 230.487 16.4244C231.875 18.2259 233.059 20.1863 234.013 22.2488C233.994 22.2246 233.975 22.2005 233.957 22.1763C233.982 22.2387 234.016 22.3018 234.045 22.3626L234.051 22.365Z" fill="url(#paint6_linear_614_17516)"/>
<path d="M248.079 61.6265C248.079 61.6265 248.079 61.6265 248.075 61.6279C248.075 61.6279 248.073 61.6207 248.076 61.6192L248.079 61.6265Z" fill="url(#paint7_linear_614_17516)"/>
<path d="M233.031 67.3058C234.309 65.2045 236.15 63.4522 238.315 62.2804C240.491 61.104 242.946 60.5269 245.176 59.4509C248.982 57.6176 252.051 54.2918 253.571 50.3527C253.579 50.4042 253.584 50.4518 253.591 50.5033C253.596 50.4923 253.599 50.4775 253.608 50.465C253.894 52.3209 253.294 54.2393 252.259 55.8076C251.223 57.3759 249.783 58.6363 248.269 59.7493C243.685 63.1245 238.357 65.3084 233.062 67.4157C233.098 67.3602 233.135 67.3047 233.166 67.2469C233.119 67.2657 233.073 67.2846 233.026 67.3035L233.031 67.3058Z" fill="url(#paint8_linear_614_17516)"/>
<path d="M217.468 105.677L217.529 105.738C217.511 105.772 217.501 105.79 217.501 105.79L219.088 107.367C222.577 99.8017 225.395 92.6618 227.653 85.9557C228.152 86.1034 229.26 86.3322 231.713 86.6167C236.201 87.1409 237.751 82.6781 237.751 82.6781C237.628 82.8681 237.492 83.0362 237.346 83.1904C237.354 83.1552 237.363 83.1201 237.371 83.0849C236.173 84.1932 234.372 84.312 232.746 84.1884C231.241 84.0746 229.695 83.8141 228.243 84.1591C228.557 83.1944 228.86 82.2383 229.155 81.2948C230.806 81.6033 232.456 81.9079 234.108 82.2165C235.313 82.4419 236.559 82.6649 237.753 82.401C238.803 82.1727 239.746 81.5794 240.536 80.853C241.328 80.1305 241.989 79.275 242.642 78.4225C242.599 78.4265 242.553 78.436 242.509 78.4401C242.541 78.3955 242.574 78.3548 242.61 78.3087C239.961 78.6155 237.581 80.0414 235.003 80.7273C233.128 81.2248 231.154 81.3183 229.24 81.0112C229.531 80.0692 229.808 79.1374 230.075 78.2143C233.11 78.7985 236.322 79.3346 239.2 78.2241C240.882 77.5734 242.346 76.3715 243.308 74.8463C243.844 73.9958 244.223 73.0458 244.428 72.0611C245.125 72.0701 245.823 72.0698 246.517 72.0165C248.312 71.8821 250.193 71.3323 251.34 69.9502C251.277 69.9753 251.212 69.9927 251.148 70.0139C251.202 69.956 251.255 69.8981 251.303 69.8379C248.003 71.0596 244.36 68.2277 240.928 69.0088C239.097 69.425 237.661 70.7969 236.182 71.9505C234.773 73.0531 233.036 74.0388 231.293 73.7625C231.345 73.5649 231.397 73.3673 231.447 73.1658C231.467 73.0807 231.491 72.994 231.513 72.9128C231.562 72.7207 231.612 72.5285 231.657 72.338C231.741 71.9959 231.827 71.6578 231.913 71.3196C232.825 71.5138 233.82 71.2622 234.667 70.8346C235.669 70.3309 236.543 69.5981 237.516 69.0429C239.077 68.1506 240.85 67.726 242.546 67.133C243.836 66.6808 245.117 66.1146 246.16 65.2276C247.198 64.3421 247.99 63.103 248.098 61.7409C248.08 61.7526 248.064 61.7683 248.05 61.7785C248.056 61.7262 248.064 61.6777 248.066 61.627C245.237 63.8596 241.896 65.1157 238.662 66.7048C236.373 67.8269 234.222 69.2016 232.088 70.5965C232.337 69.5719 232.569 68.5629 232.791 67.5626L233.009 67.4972C233.026 67.4722 233.042 67.4433 233.059 67.4183C232.973 67.4528 232.887 67.4874 232.802 67.522C232.808 67.4923 232.814 67.4626 232.82 67.4329L232.978 67.3873C232.996 67.3622 233.011 67.3333 233.028 67.3083C232.962 67.335 232.9 67.3602 232.833 67.3869C233.053 66.392 233.259 65.4073 233.452 64.4367C236.389 62.3693 239.548 60.629 242.532 58.6239C245.834 56.4048 248.982 53.7812 251.009 50.3582C252.07 48.5713 252.805 46.3942 252.208 44.4283C252.172 44.2934 252.126 44.1577 252.076 44.0236C249.43 48.8921 245.837 53.2409 241.552 56.7535C238.759 59.0437 235.614 61.0547 233.534 63.987C233.903 62.0934 234.229 60.2491 234.509 58.4596C235.476 56.6652 237.161 55.3378 238.909 54.2663C240.77 53.1265 242.772 52.1924 244.47 50.819C247.375 48.4699 249.224 44.8609 249.434 41.1329C249.419 41.1525 249.402 41.1775 249.387 41.1971C249.39 41.137 249.395 41.0808 249.398 41.0207C245.607 46.355 239.392 52.5761 234.694 57.2432C234.879 55.9722 235.049 54.73 235.193 53.5122C240.29 49.8804 243.422 43.9688 248.386 40.1188C249.768 39.0498 251.297 38.1342 252.455 36.8246C253.594 35.5362 254.339 33.7181 253.825 32.0853C253.808 32.0198 253.788 31.9597 253.767 31.8958C252.417 34.325 250.281 36.2194 248.063 37.8884C245.842 39.563 243.489 41.0778 241.486 43C239.262 45.1381 236.882 48.0914 235.458 51.1124C235.661 49.0866 235.81 47.1414 235.91 45.2751C241.617 42.7842 246.039 38.1288 247.964 32.563C248.069 32.2622 248.166 31.9514 248.25 31.6413C249.62 30.5903 250.864 29.2914 251.628 27.7691C251.97 27.1235 252.229 26.4392 252.371 25.7114C252.326 25.7568 252.28 25.8022 252.231 25.8491C252.239 25.8234 252.243 25.7992 252.249 25.7695C251.14 26.8963 249.836 27.7754 248.464 28.5642C248.431 28.4051 248.395 28.2476 248.349 28.0893C248.335 28.0315 248.317 27.9754 248.297 27.9154C248.293 27.9037 248.286 27.8881 248.282 27.8764C248.262 27.8163 248.242 27.7563 248.219 27.6978C248.212 27.6822 248.206 27.6666 248.198 27.6472C248.176 27.5926 248.154 27.538 248.131 27.4795C248.123 27.4601 248.115 27.4406 248.107 27.4211C248.085 27.3665 248.061 27.3174 248.036 27.2683C248.027 27.2449 248.018 27.2215 248.004 27.1997C247.98 27.1506 247.956 27.1015 247.929 27.0579C247.918 27.0306 247.901 27.0103 247.886 26.9846C247.859 26.941 247.836 26.8958 247.81 26.8522C247.795 26.8264 247.775 26.7984 247.76 26.7727C247.735 26.7329 247.708 26.6893 247.679 26.6511C247.659 26.6231 247.638 26.5951 247.618 26.567C247.589 26.5289 247.565 26.493 247.536 26.4549C247.516 26.4268 247.49 26.3964 247.466 26.37C247.438 26.3357 247.411 26.3015 247.38 26.2688C247.354 26.2384 247.324 26.2096 247.298 26.1792C247.269 26.1504 247.241 26.1162 247.211 26.0874C247.182 26.0586 247.15 26.0259 247.117 25.9986C247.089 25.9737 247.063 25.9434 247.031 25.9201C246.996 25.8889 246.96 25.8578 246.921 25.8283C246.895 25.8072 246.866 25.7823 246.84 25.7613C246.799 25.7279 246.755 25.696 246.71 25.6642C246.685 25.647 246.664 25.6284 246.639 25.6113C246.569 25.5623 246.497 25.5188 246.425 25.4753C246.419 25.6954 246.407 25.9131 246.395 26.1309C246.391 26.2097 246.385 26.2847 246.38 26.3635C246.371 26.4986 246.36 26.6391 246.351 26.7741C246.341 26.8733 246.335 26.9708 246.324 27.0661C246.313 27.1746 246.3 27.2886 246.289 27.3971C246.276 27.511 246.263 27.625 246.249 27.7351C246.241 27.7835 246.237 27.8303 246.23 27.8788C246.186 28.209 246.133 28.5385 246.076 28.8695C246.076 28.8695 246.076 28.8789 246.073 28.8844C246.045 29.0499 246.013 29.217 245.976 29.3857C245.97 29.4154 245.964 29.445 245.958 29.4747C245.923 29.6473 245.887 29.8159 245.848 29.9901C244.404 30.758 242.968 31.5454 241.677 32.5369C238.978 34.6084 236.983 37.5739 236.05 40.8457C236.076 39.0998 236.061 37.4336 236.009 35.8549C238.817 33.4905 241.194 30.584 242.717 27.2466C244.155 24.0929 244.801 20.6471 245.44 17.2404C245.414 17.2779 245.388 17.3154 245.363 17.353C245.378 17.2788 245.392 17.2007 245.403 17.1281C241.992 22.2101 237.265 28.8869 235.975 34.9942C235.89 32.8942 235.749 30.9482 235.563 29.1607C238.316 27.3895 240.143 24.369 240.826 21.1619C241.477 18.09 241.143 14.8669 240.226 11.8607C240.157 11.6346 240.089 11.4084 240.013 11.1855C240.128 15.4167 239.157 19.6734 237.215 23.4333C236.464 24.887 235.545 26.3949 235.432 27.981C235.262 26.5135 235.065 25.1607 234.856 23.922C236.48 21.396 237.247 18.3994 237.683 15.4232C237.911 13.8633 238.061 12.2895 238.472 10.7689C238.883 9.2483 239.58 7.76204 240.74 6.69597C240.655 6.73054 240.573 6.76354 240.487 6.79811C240.557 6.72456 240.633 6.65335 240.706 6.5876C238.46 7.42478 236.651 9.35496 235.964 11.6528C234.824 15.4566 236.19 19.9585 234.816 23.6528C234.344 20.9202 233.815 18.777 233.373 17.2423C233.861 17.1044 234.443 16.4668 234.603 16.0215C234.78 15.5379 234.781 15.0119 234.828 14.499C234.917 13.5521 235.171 12.6204 235.173 11.6682C235.174 11.1196 235.09 10.5735 234.932 10.0479C234.741 9.38193 234.428 8.75139 234.008 8.20465C233.735 10.0004 233.646 11.8261 233.739 13.6419C233.794 14.7344 233.743 15.8786 233.265 16.8601C233.169 16.5451 233.079 16.255 232.998 15.9977C233.161 15.7147 233.138 15.3433 233.032 15.0236C233.03 15.0197 233.027 15.0119 233.024 15.0041C233.011 14.9729 233.007 14.9386 232.996 14.9113C232.885 14.5799 232.706 14.2714 232.595 13.94C232.472 13.4775 232.499 12.9819 232.387 12.5147C232.374 12.4476 232.351 12.3798 232.33 12.3158C232.14 11.6085 231.64 11.0081 231.051 10.5703C230.435 10.1115 229.727 9.80354 229.025 9.50182C229.079 9.55709 229.129 9.61392 229.183 9.66918C229.139 9.65057 229.101 9.63429 229.057 9.61568C229.521 10.1038 229.987 10.5958 230.387 11.1371C230.737 11.6122 231.036 12.1304 231.22 12.6864C231.233 12.7308 231.246 12.7753 231.26 12.8197C231.391 13.3149 231.425 13.8362 231.574 14.329C231.591 14.3945 231.61 14.4639 231.631 14.5279C231.836 15.1478 232.255 15.6945 232.795 16.0661C232.959 16.6526 233.115 17.2422 233.263 17.8349C232.277 16.9955 231.548 16.0297 230.959 14.8622C230.424 13.8045 230.08 12.6473 229.448 11.6422C228.458 10.0746 226.762 8.9686 224.928 8.70192C225.028 8.7477 225.123 8.80441 225.219 8.86113C225.135 8.84496 225.048 8.83037 224.96 8.81578C225.73 9.18521 226.334 9.82979 226.821 10.5309C227.307 11.232 227.681 12.0013 228.114 12.7376C229.438 14.9903 231.171 16.8158 233.36 18.2311C233.715 19.6966 234.021 21.1771 234.278 22.6686C234.183 22.5346 234.093 22.399 233.995 22.2705C234.022 22.3368 234.055 22.396 234.086 22.4607C234.067 22.4366 234.05 22.407 234.032 22.3828C234.107 22.5473 234.186 22.7102 234.258 22.8762L234.324 22.9174C234.335 22.99 234.346 23.0625 234.361 23.1335C234.5 24.0291 234.618 24.9286 234.725 25.8328C232.641 24.0036 230.848 21.9036 229.445 19.637C228.677 18.3966 227.994 17.0725 226.822 16.0993C225.705 15.172 224.26 14.667 222.843 14.2322C219.445 13.187 215.972 12.4072 212.475 11.9046C212.621 11.9636 212.767 12.0225 212.913 12.0814C212.779 12.063 212.643 12.0408 212.508 12.0185C215.158 13.0751 217.815 14.1341 220.466 15.1907C221.912 15.7675 223.376 16.3512 224.642 17.2321C226.177 18.2987 227.331 19.7324 228.577 21.0699C230.415 23.0434 232.48 24.4809 234.741 26.0209C234.948 27.8497 235.09 29.6958 235.172 31.5522C233.459 27.7975 231.558 24.2953 228.276 21.7622C226.05 20.0402 223.332 19.0517 220.567 18.5214C217.806 17.9895 214.978 17.8878 212.166 17.7931C212.242 17.835 212.316 17.8731 212.391 17.9111C212.327 17.9097 212.263 17.9083 212.197 17.903C215.569 19.7702 219.8 19.4873 223.199 21.2981C225.208 22.369 226.773 24.0942 228.469 25.6131C230.885 27.7841 233.551 29.138 235.173 31.7786C235.251 33.6592 235.27 35.5502 235.236 37.4444C235.058 36.8002 234.88 36.156 234.69 35.5166C234.306 34.226 233.871 32.9558 233.296 31.7422C232.399 29.8427 231.129 28.0753 229.399 26.8874C227.607 25.6568 225.444 25.1241 223.367 24.4795C219.66 23.3321 216.083 21.7652 212.723 19.8254C212.809 19.904 212.891 19.9842 212.977 20.0628C212.901 20.0208 212.829 19.9773 212.753 19.9354C215.281 22.3378 218.134 24.3913 221.217 26.0259C223.309 27.1355 225.511 28.056 227.458 29.4009C230.659 31.6088 232.993 34.8234 235.218 38.0181C235.183 39.469 235.115 40.9192 235.019 42.3672C233.517 38.7219 231.126 33.2512 228.472 31.6116C225.377 29.7007 221.95 28.4175 218.6 27.0084C215.25 25.5994 211.907 24.0193 209.166 21.6354C209.203 21.6931 209.241 21.7546 209.278 21.8123C209.251 21.7913 209.225 21.7703 209.202 21.7477C211.242 25.1122 214.52 27.5337 217.923 29.5108C221.326 31.4879 224.936 33.114 228.161 35.371C231.027 37.3784 233.627 39.9828 234.966 43.1813C234.901 44.0548 234.83 44.9221 234.744 45.7901C234.335 44.9086 233.81 44.078 233.182 43.3297C232.237 42.2107 231.087 41.2921 229.944 40.3797C227.829 38.695 225.717 37.0086 223.502 35.4592C219.717 32.8025 215.659 30.5501 211.619 28.3047C211.658 28.3569 211.697 28.4091 211.738 28.4652C211.709 28.4496 211.68 28.4341 211.651 28.4186C214.804 32.7892 218.876 36.4947 223.521 39.2263C225.724 40.5222 228.064 41.6046 230.163 43.0693C231.939 44.3062 233.567 45.8706 234.538 47.7855C234.367 49.3047 234.167 50.8216 233.944 52.3253C233.896 52.1272 233.838 51.9284 233.779 51.735C233.008 49.1725 231.309 46.8896 229.282 45.1102C226.75 42.8865 223.711 41.3291 220.722 39.7699C217.732 38.2108 214.715 36.6042 212.247 34.3046C212.265 34.3475 212.282 34.3904 212.299 34.4332C212.296 34.4254 212.285 34.4208 212.28 34.4185C213.535 37.6687 216.255 40.1433 219.173 42.053C222.09 43.9627 225.279 45.4323 228.146 47.4077C230.407 48.9703 232.504 50.9345 233.791 53.3294C233.457 55.4671 233.077 57.5823 232.654 59.6696C232.462 58.8772 232.252 58.0872 232.017 57.3027C231.145 54.3737 229.894 51.5971 227.616 49.6334C224.906 47.2954 220.927 46.5295 217.539 47.6913C217.594 47.7146 217.649 47.7379 217.703 47.7611C217.661 47.7784 217.615 47.7879 217.572 47.8052C224.21 50.5353 229.574 56.1986 231.953 62.9657C231.844 63.4491 231.735 63.9325 231.623 64.4174C228.435 60.242 225.213 56.0714 221.573 52.2914C221.3 52.0072 221.029 51.727 220.753 51.4483C218.347 49.0198 215.756 46.7744 213.013 44.7354C214.041 46.836 215.23 48.8533 216.559 50.7782C218.257 53.2703 220.194 55.6025 222.332 57.736C221.02 57.3267 219.617 57.2079 218.262 57.4191C218.337 57.4478 218.412 57.4765 218.49 57.5036C218.426 57.5116 218.361 57.5195 218.298 57.5314C222.154 58.9134 225.341 62.0422 226.793 65.8703C227.52 67.7843 228.586 69.5655 229.923 71.1158C229.655 72.0936 229.379 73.0613 229.101 74.0119C227.041 69.5088 224.557 65.145 221.057 61.6572C217.266 57.8838 212.136 55.2074 206.789 55.2966C206.912 55.333 207.036 55.3693 207.157 55.4111C207.044 55.4114 206.934 55.4102 206.821 55.4105C211.815 56.8729 216.183 60.0196 219.812 63.7498C223.195 67.2301 225.996 71.2215 228.744 75.2295C228.546 75.8848 228.351 76.5347 228.148 77.1783C227.076 74.8461 225.644 72.6866 223.919 70.79C220.369 66.8966 215.701 64.2423 211.117 61.6495C211.163 61.7079 211.213 61.7647 211.26 61.8232C211.224 61.8014 211.188 61.7796 211.149 61.7634C212.722 63.6853 214.306 65.6157 216.225 67.1941C217.932 68.5951 219.869 69.6903 221.647 70.999C224.124 72.828 226.286 75.0785 228.012 77.6274C227.704 78.6171 227.388 79.5872 227.074 80.5386C226.008 79.029 224.944 77.5139 223.877 76.0043C222.705 74.3427 221.52 72.6633 219.994 71.3164C218.744 70.2162 217.288 69.3578 215.828 68.5141C215.336 67.9332 214.823 67.3696 214.292 66.827C213.863 66.0345 213.597 65.5302 213.597 65.5302C213.597 65.5302 213.813 65.9776 214.184 66.7165C214.161 66.6939 214.137 66.6674 214.114 66.6449C214.13 66.6838 214.142 66.7244 214.152 66.761C214.152 66.761 214.152 66.761 214.15 66.7571C214.193 66.885 214.234 67.009 214.272 67.1385C214.097 66.7378 213.92 66.3332 213.749 65.931C213.88 66.4356 213.97 66.952 214.042 67.4669C212.435 66.4925 210.926 65.4242 209.792 63.9374C209.802 63.974 209.814 64.0146 209.824 64.0513C210.498 66.4985 212.046 68.6975 214.125 70.1568C214.175 70.191 215.513 71.0927 215.563 71.1269C215.659 72.647 216.419 73.9358 217.125 75.4409C218.103 77.5299 219.541 79.3655 221.368 80.7724C223.378 82.3186 224.159 83.3677 225.835 85.1208C221.584 97.012 217.124 105.226 217.124 105.226L217.505 105.598C217.469 105.667 217.453 105.705 217.453 105.705L217.468 105.677ZM236.955 43.9338C236.627 44.1883 236.292 44.4366 235.95 44.6787C236.003 43.561 236.04 42.4722 236.061 41.4123C237.579 39.2417 239.486 37.3401 241.657 35.8257C242.595 35.1715 243.58 34.5929 244.566 34.0143C244.508 34.1511 244.452 34.2823 244.394 34.4191C244.364 34.4808 244.339 34.541 244.311 34.6066C244.233 34.7738 244.156 34.941 244.078 35.1083C244.046 35.1755 244.013 35.2388 243.981 35.306C243.911 35.4474 243.837 35.5904 243.764 35.7335C243.726 35.8077 243.687 35.8819 243.648 35.9523C243.579 36.0844 243.508 36.2125 243.437 36.3407C243.398 36.4111 243.362 36.4798 243.322 36.5502C243.235 36.7034 243.147 36.8566 243.058 37.0059C243.014 37.0778 242.971 37.1497 242.925 37.2271C242.859 37.335 242.79 37.4444 242.725 37.5523C242.662 37.6547 242.595 37.7587 242.527 37.8588C242.46 37.9627 242.389 38.0683 242.319 38.1738C242.265 38.2544 242.207 38.3365 242.154 38.417C242.062 38.5491 241.97 38.6813 241.875 38.815C241.813 38.8987 241.749 38.9878 241.688 39.0715C241.631 39.1442 241.58 39.2193 241.523 39.292C241.417 39.4343 241.31 39.5728 241.199 39.7128C241.148 39.7784 241.098 39.8441 241.042 39.9075C240.966 40.0014 240.891 40.0952 240.811 40.1906C240.772 40.2384 240.732 40.2861 240.688 40.3353C240.551 40.4996 240.412 40.66 240.268 40.8219C240.231 40.8641 240.194 40.9064 240.156 40.9486C239.98 41.1419 239.805 41.3351 239.626 41.5206C239.618 41.5237 239.613 41.5346 239.607 41.5417C239.508 41.645 239.409 41.7482 239.309 41.8476C239.296 41.8617 239.282 41.8719 239.27 41.886C239.079 42.0761 238.887 42.2624 238.691 42.4502C238.674 42.4659 238.654 42.4831 238.638 42.4987C238.101 43.0004 237.542 43.4796 236.961 43.9361C236.961 43.9361 236.961 43.9361 236.957 43.9377L236.955 43.9338ZM233.231 76.4795C232.145 76.7407 231.056 77.1526 230.184 77.8347C230.512 76.692 230.824 75.565 231.119 74.4536C234.542 74.4242 237.72 72.5403 241.133 72.1479C241.751 72.0753 242.369 72.0572 242.994 72.0548C241.604 73.7208 239.725 74.9855 237.642 75.5943C236.203 76.0157 234.692 76.1353 233.233 76.4834L233.231 76.4795ZM227.927 62.477C229.091 63.3308 230.298 64.1221 231.54 64.8633C231.148 66.5212 230.734 68.1604 230.306 69.7607C230.063 68.5173 229.795 67.2795 229.425 66.0692C229.255 65.5031 229.067 64.9448 228.85 64.3975C228.585 63.7388 228.28 63.0957 227.931 62.4754L227.927 62.477ZM218.858 72.7578C219.23 72.9839 219.595 73.2264 219.937 73.4917C221.432 74.6474 222.547 76.21 223.723 77.6889C224.669 78.8796 225.704 80.053 226.969 80.8846C226.585 82.0454 226.195 83.1812 225.809 84.2795C225.741 83.7178 225.642 83.1593 225.481 82.6353C225.268 81.8921 224.939 81.1999 224.41 80.6293C223.801 79.973 222.983 79.5413 222.331 78.9249C221.302 77.9443 220.771 76.5722 220.175 75.2852C219.777 74.4216 219.334 73.5807 218.855 72.7633L218.858 72.7578ZM234.745 25.9061C234.745 25.9061 234.745 25.9061 234.747 25.91C234.743 25.9022 234.733 25.8976 234.726 25.8914C234.733 25.8976 234.738 25.8999 234.745 25.9061Z" fill="url(#paint9_linear_614_17516)"/>
</g>
<defs>
<linearGradient id="paint0_linear_614_17516" x1="28.8827" y1="61.7376" x2="28.8864" y2="61.7387" gradientUnits="userSpaceOnUse">
<stop stop-color="#A2AF78" stop-opacity="0"/>
<stop offset="1" stop-color="#7C7E48"/>
</linearGradient>
<linearGradient id="paint1_linear_614_17516" x1="44.8204" y1="16.0614" x2="52.8771" y2="18.4579" gradientUnits="userSpaceOnUse">
<stop stop-color="#A2AF78" stop-opacity="0"/>
<stop offset="1" stop-color="#7C7E48"/>
</linearGradient>
<linearGradient id="paint2_linear_614_17516" x1="28.917" y1="61.6248" x2="28.9208" y2="61.626" gradientUnits="userSpaceOnUse">
<stop stop-color="#A2AF78" stop-opacity="0"/>
<stop offset="1" stop-color="#7C7E48"/>
</linearGradient>
<linearGradient id="paint3_linear_614_17516" x1="21.9258" y1="55.3964" x2="45.4272" y2="62.3868" gradientUnits="userSpaceOnUse">
<stop stop-color="#A2AF78" stop-opacity="0"/>
<stop offset="1" stop-color="#7C7E48"/>
</linearGradient>
<linearGradient id="paint4_linear_614_17516" x1="69.454" y1="102.815" x2="32.1848" y2="8.17771" gradientUnits="userSpaceOnUse">
<stop stop-color="#A2AF78" stop-opacity="0"/>
<stop offset="1" stop-color="#7C7E48"/>
</linearGradient>
<linearGradient id="paint5_linear_614_17516" x1="248.116" y1="61.7376" x2="248.113" y2="61.7387" gradientUnits="userSpaceOnUse">
<stop stop-color="#A2AF78" stop-opacity="0"/>
<stop offset="1" stop-color="#7C7E48"/>
</linearGradient>
<linearGradient id="paint6_linear_614_17516" x1="232.179" y1="16.0614" x2="224.122" y2="18.4579" gradientUnits="userSpaceOnUse">
<stop stop-color="#A2AF78" stop-opacity="0"/>
<stop offset="1" stop-color="#7C7E48"/>
</linearGradient>
<linearGradient id="paint7_linear_614_17516" x1="248.082" y1="61.6253" x2="248.078" y2="61.6264" gradientUnits="userSpaceOnUse">
<stop stop-color="#A2AF78" stop-opacity="0"/>
<stop offset="1" stop-color="#7C7E48"/>
</linearGradient>
<linearGradient id="paint8_linear_614_17516" x1="255.073" y1="55.3964" x2="231.572" y2="62.3868" gradientUnits="userSpaceOnUse">
<stop stop-color="#A2AF78" stop-opacity="0"/>
<stop offset="1" stop-color="#7C7E48"/>
</linearGradient>
<linearGradient id="paint9_linear_614_17516" x1="207.545" y1="102.815" x2="244.814" y2="8.17771" gradientUnits="userSpaceOnUse">
<stop stop-color="#A2AF78" stop-opacity="0"/>
<stop offset="1" stop-color="#7C7E48"/>
</linearGradient>
</defs>
</svg>
