<svg width="127" height="105" viewBox="0 0 127 105" fill="none" xmlns="http://www.w3.org/2000/svg">
<path d="M5.46001 71.3452C6.36248 71.3452 7.32319 71.7428 8.03255 72.4098C8.90301 73.2302 9.4212 74.3047 9.92387 75.3424L10.2004 75.9102C12.8953 81.3037 17.7114 85.4984 23.4426 87.4548C24.6702 86.1178 26.4314 84.9811 28.4295 84.2381C31.0118 83.2825 33.7473 82.7971 36.5605 82.7971C39.4698 82.7971 42.3966 83.3399 45.0613 84.3696C43.8861 82.8351 41.9822 81.8103 40.1394 80.8175C37.6067 79.4524 34.9875 78.0425 34.2054 75.2209C33.9822 74.4157 33.9511 73.5872 33.921 72.787C33.8958 72.1451 33.8735 71.5397 33.76 70.9426C33.6484 70.36 33.4504 69.7826 33.1544 69.1836C32.8342 69.135 32.511 69.1107 32.1898 69.1107L32.0472 69.1126C31.6619 69.1213 31.2709 69.1639 30.8808 69.2068C30.4218 69.2573 29.9482 69.309 29.4805 69.309C28.8419 69.309 28.3237 69.2137 27.8502 69.0085C26.545 68.4456 25.9035 67.1911 25.2815 65.9787C24.8604 65.1542 24.4227 64.3022 23.789 63.7101C22.5062 62.5076 20.5799 62.4035 18.5537 62.3994L17.8744 62.3986C13.494 62.3986 8.91658 62.5911 5.32996 64.8837C3.31734 66.1702 1.04952 68.6166 0.808857 70.616C0.67203 71.7581 0.968967 72.8436 1.62593 73.5872C2.05582 74.0754 2.63419 74.4213 3.33386 74.6132C3.28339 74.5079 3.23875 74.3962 3.20381 74.2766C2.92725 73.3559 3.21061 72.3563 3.89184 71.8446C4.32852 71.5172 4.87194 71.3452 5.46001 71.3452ZM23.6852 88.355L23.4407 88.2745C17.4086 86.2907 12.3305 81.9114 9.50562 76.2574L9.22421 75.6827C8.75357 74.7074 8.26642 73.6982 7.50077 72.9777C6.60024 72.1276 5.16499 71.8644 4.35761 72.4679C3.88212 72.8239 3.79187 73.5348 3.94811 74.0529C4.01118 74.2649 4.21595 74.7616 4.74094 74.7921L4.71765 75.5699C3.15239 75.562 1.88212 75.0557 1.04369 74.1027C0.241162 73.1915 -0.125638 71.8864 0.0383605 70.5225C0.342098 67.9963 3.1194 65.374 4.91174 64.2273C8.67497 61.822 13.3795 61.6207 17.8744 61.6207L18.5556 61.6219C20.6566 61.6245 22.8322 61.746 24.3199 63.1414C25.0525 63.826 25.5202 64.7409 25.9734 65.6236C26.5576 66.7642 27.1088 67.8417 28.1568 68.2948C28.8283 68.5847 29.7667 68.5436 30.7963 68.4327C31.2097 68.389 31.6212 68.3442 32.0278 68.3336L32.1898 68.3317C32.6207 68.3317 33.0554 68.3716 33.4805 68.4494L33.6678 68.4833L33.7561 68.6515C34.1365 69.3807 34.3868 70.083 34.5227 70.7967C34.6469 71.4519 34.6721 72.1162 34.6964 72.7577C34.7275 73.5474 34.7556 74.2952 34.9545 75.0116C35.6474 77.5134 38.0074 78.7854 40.5081 80.1319C42.4975 81.2034 44.5557 82.3121 45.8405 84.1185C46.024 84.4288 46.1957 84.7155 46.3743 85.0054L47.0303 86.0768L45.7037 85.4828C45.564 85.4186 45.4242 85.3563 45.2835 85.2971C42.5751 84.1713 39.5591 83.5761 36.5605 83.5761C33.8395 83.5761 31.1952 84.0436 28.7003 84.9674C26.7255 85.7016 25.004 86.8353 23.8541 88.1605L23.6852 88.355Z" fill="#46413B"/>
<path d="M100.008 33.983C98.4259 34.008 97.2497 35.3731 96.814 36.6315C96.3045 38.09 96.4385 39.7243 96.6607 41.2732L96.7558 41.917C96.9644 43.3213 97.1818 44.7718 97.0042 46.2246C96.6947 48.7427 95.2575 50.8637 93.8669 52.9132C93.0644 54.0967 92.2337 55.3209 91.6379 56.6005C90.4578 59.1411 90.1434 62.0231 89.8387 64.8106C89.7126 65.9668 89.5825 67.1511 89.3923 68.3217C90.091 67.3193 90.782 66.3109 91.4739 65.3029C94.5491 60.8134 97.7291 56.1717 101.602 52.2132C102.676 51.1136 103.766 50.1731 104.843 49.4158C105.407 46.2887 106.647 43.3368 108.438 40.868C108.843 40.3096 109.282 39.746 109.727 39.1751C111.851 36.4476 114.049 33.629 113.121 30.6216C112.521 28.6777 110.756 27.3582 109.05 26.0835C107.307 24.7788 105.407 23.2007 104.93 20.9575C104.69 19.8294 105.03 18.5229 105.816 17.5484C106.509 16.6937 107.422 16.2581 108.344 16.3204C107.944 13.2964 104.586 11.2 101.605 11.1709L101.503 11.1699C98.1376 11.1699 94.9838 13.0008 92.3424 14.7909C89.2963 16.86 86.9197 19.0167 85.273 21.2055C86.6713 23.7556 87.6747 26.4588 88.2589 29.2467C88.2725 29.3165 88.287 29.3864 88.3016 29.4567C88.3084 29.4498 88.3161 29.4412 88.3239 29.4324C88.8673 28.8372 89.4282 28.2208 90.0687 27.6958C91.5466 26.4823 93.4758 25.8143 95.4981 25.8143C97.1459 25.8143 98.7121 26.2568 100.028 27.0958C103.308 29.1794 104.492 33.2419 102.905 36.9737L102.186 36.6801C102.38 36.1772 102.286 35.5874 101.926 35.0602C101.479 34.4049 100.725 33.983 100.008 33.983ZM87.7815 71.936L88.3035 69.83C88.3278 69.7346 88.3511 69.6411 88.3724 69.5439C88.7111 67.9726 88.8916 66.3226 89.0663 64.7263C89.3778 61.8754 89.7 58.9279 90.9333 56.2715C91.5563 54.9345 92.4045 53.6842 93.2245 52.4756C94.6238 50.4113 95.9474 48.4609 96.2327 46.1293C96.3977 44.7824 96.1891 43.3854 95.9872 42.0329L95.8911 41.3834C95.6563 39.7372 95.5156 37.9908 96.0804 36.3759C96.7179 34.536 98.3152 33.2313 99.9639 33.204C99.9649 33.204 99.9649 33.204 99.9649 33.204C100.974 33.204 101.978 33.7601 102.567 34.6207C102.622 34.7024 102.673 34.7852 102.72 34.8687C103.192 32.0577 102.044 29.2972 99.6117 27.7532C98.4191 26.9936 96.9984 26.5921 95.4981 26.5921C93.6544 26.5921 91.9018 27.1979 90.5607 28.2975C89.9639 28.7875 89.4224 29.3819 88.8974 29.9573C88.7131 30.1597 88.5287 30.3618 88.3414 30.56L88.3404 30.562L88.3414 30.5631C88.2948 30.6128 88.2482 30.6614 88.2007 30.7101L87.8106 31.1241L87.7407 30.7302L87.4137 30.4017C87.4903 30.3249 87.567 30.246 87.6427 30.1673C87.5971 29.9125 87.5505 29.6588 87.4981 29.4062C86.9139 26.6164 85.896 23.9106 84.4733 21.3647L84.3511 21.147L84.4995 20.9458C86.2026 18.616 88.6946 16.3291 91.9067 14.1472C94.6461 12.29 97.929 10.392 101.503 10.392H101.612C105.178 10.427 109.062 13.0047 109.16 16.7832L109.172 17.3209L108.66 17.1673C107.873 16.9329 107.049 17.2616 106.42 18.0386C105.787 18.8233 105.5 19.9043 105.69 20.796C106.111 22.7727 107.884 24.2398 109.515 25.4594C111.236 26.7456 113.189 28.2052 113.863 30.391C114.911 33.7874 112.482 36.9038 110.34 39.6545C109.899 40.2174 109.465 40.7745 109.066 41.326C107.314 43.7401 106.11 46.6386 105.581 49.7094L105.553 49.8708L105.418 49.9631C104.339 50.7079 103.241 51.6483 102.157 52.7578C98.3317 56.6684 95.1701 61.2821 92.1134 65.7442C91.0731 67.2619 90.0328 68.7808 88.9644 70.2773L87.7815 71.936Z" fill="#46413B"/>
<path d="M63.5797 92.1599C64.1988 92.2551 64.8558 92.2806 65.5215 92.232C68.6113 89.8623 72.3105 88.0335 77.146 86.4865C77.4885 86.2017 77.8272 85.9126 78.161 85.6171C81.9602 82.2675 86.8161 76.7593 88.3726 69.5443C88.7113 67.973 88.8918 66.323 89.0665 64.7267C89.378 61.8758 89.7001 58.9283 90.9335 56.2719C91.5565 54.9349 92.4046 53.6846 93.2246 52.476C94.624 50.4117 95.9476 48.4613 96.2329 46.1297C96.3979 44.7828 96.1893 43.3858 95.9874 42.0333L95.8913 41.3838C95.6555 39.7376 95.5158 37.9912 96.0806 36.3763C96.7181 34.5364 98.3154 33.2317 99.9641 33.2044C99.9651 33.2044 99.9651 33.2044 99.9651 33.2044C100.974 33.2044 101.979 33.7605 102.568 34.6211C102.622 34.7028 102.673 34.7856 102.72 34.8691C103.192 32.0581 102.044 29.2976 99.6119 27.7536C98.4192 26.994 96.9986 26.5925 95.4983 26.5925C93.6545 26.5925 91.902 27.1983 90.5609 28.2979C89.966 28.7859 89.4265 29.3792 88.9054 29.9539C88.1572 30.7766 87.3848 31.6274 86.4046 32.2351C85.4051 32.8542 84.2688 33.1721 83.1703 33.4805C81.9311 33.8288 80.7617 34.1562 79.7991 34.8759C77.8874 36.3022 77.3925 38.7057 76.8685 41.2513C76.5017 43.0318 76.1242 44.8724 75.2265 46.4338C74.0814 48.4215 72.2076 49.769 70.3939 51.0722C69.2935 51.8626 68.1552 52.6811 67.2032 53.6291C64.9179 55.9085 63.5118 59.1096 63.0237 63.1455C63.8602 64.3154 64.5938 65.5559 65.2032 66.8373C68.0164 72.7474 68.4405 80.2909 66.4968 89.8972L66.4405 90.1765L66.1581 90.2076C65.5642 90.2706 64.8636 90.4477 63.9669 90.7587C63.8466 91.2616 63.7194 91.7253 63.5797 92.1599ZM64.8568 93.0342C64.2095 93.0342 63.5817 92.97 62.9878 92.8427L62.555 92.7493L62.7025 92.333C62.9101 91.744 63.0916 91.104 63.2585 90.3758L63.307 90.1677L63.5069 90.0967C64.4337 89.7643 65.1527 89.5668 65.7903 89.4696C67.636 80.1644 67.2139 72.8689 64.5016 67.172C63.8902 65.8885 63.1527 64.6469 62.3056 63.4801L62.2163 63.3574L62.2338 63.2059C62.7258 58.9197 64.2134 55.5108 66.6559 53.0761C67.6516 52.0852 68.816 51.2488 69.9417 50.4402C71.768 49.1276 73.4934 47.8878 74.554 46.046C75.3876 44.5925 75.7544 42.8138 76.1077 41.0947C76.6385 38.518 77.1868 35.8552 79.3343 34.2508C80.4134 33.4455 81.7079 33.0817 82.9607 32.7308C84.0562 32.4235 85.0897 32.1329 85.9961 31.5719C86.884 31.0223 87.5856 30.2494 88.3309 29.4298C88.8714 28.8357 89.4304 28.2192 90.0689 27.6962C91.5468 26.4827 93.476 25.8147 95.4983 25.8147C97.1461 25.8147 98.7123 26.2572 100.028 27.0962C103.308 29.1798 104.492 33.2423 102.905 36.9741L102.186 36.6805C102.38 36.1776 102.286 35.5866 101.926 35.0606C101.479 34.4053 100.725 33.9834 100.008 33.9834C98.426 34.0084 97.2499 35.3735 96.8142 36.6319C96.3047 38.0904 96.4386 39.7247 96.6609 41.2736L96.756 41.9174C96.9646 43.3217 97.182 44.7722 97.0044 46.225C96.6948 48.7431 95.2577 50.8641 93.8671 52.9136C93.0645 54.0971 92.2339 55.3213 91.638 56.6008C90.458 59.1415 90.1436 62.0235 89.8389 64.811C89.6623 66.4272 89.4789 68.0987 89.1315 69.7099C87.5313 77.1308 82.5618 82.7742 78.6754 86.2024C78.3153 86.5195 77.9514 86.8287 77.5836 87.134L77.4536 87.2051C72.6229 88.7434 68.9529 90.5597 65.9039 92.9194L65.8126 92.9905L65.6981 93.0001C65.4157 93.0224 65.1353 93.0342 64.8568 93.0342Z" fill="#46413B"/>
<path d="M48.9302 22.8023C53.4241 24.3201 59.0321 26.6013 63.3349 30.761C67.7648 35.0431 70.7827 41.3933 71.8317 48.6421C71.8492 48.7588 71.8647 48.8746 71.8803 48.9904C72.8478 48.2133 73.8492 47.2653 74.5537 46.0461C75.3873 44.5925 75.7541 42.8138 76.1074 41.0947C76.6382 38.518 77.1864 35.8552 79.334 34.2508C80.413 33.4456 81.7076 33.0817 82.9604 32.7308C84.0559 32.4235 85.0894 32.1329 85.9958 31.572C86.6275 31.18 87.1777 30.6551 87.6426 30.1697C87.5979 29.9148 87.5513 29.6592 87.498 29.4066C86.1248 22.8502 82.2985 16.7399 76.9982 12.6434L76.5052 12.2691C75.4999 11.5087 74.4606 10.725 73.757 9.62819C72.9205 8.32623 72.677 6.366 73.8298 5.14183C74.5324 4.3941 75.9307 4.222 76.9041 4.80443C76.3558 2.81017 74.3519 1.30207 72.3829 0.920918C70.1888 0.493088 67.691 1.02399 64.6779 2.56611C57.0592 6.47588 51.1931 14.0222 48.9302 22.8023ZM71.2718 50.4409L71.1932 49.7641C71.1534 49.4269 71.1107 49.0896 71.0632 48.753C70.0384 41.6755 67.103 35.4844 62.7953 31.3209C58.4964 27.1634 52.8127 24.9183 48.3431 23.4256L48.0024 23.3121L48.0888 22.9638C50.3382 13.819 56.4071 5.93526 64.3247 1.87284C67.4979 0.248062 70.1617 -0.305199 72.5314 0.157635C75.2718 0.68853 78.0705 3.1816 77.8114 6.28335L77.037 6.28238C76.9477 5.11946 75.0671 4.96292 74.3956 5.67467C73.5251 6.60033 73.7531 8.18525 74.4101 9.2062C75.0399 10.1863 76.022 10.9292 76.9739 11.6468L77.4727 12.0269C82.9177 16.2352 86.8488 22.5117 88.2588 29.2471C88.3267 29.5725 88.3849 29.9015 88.4412 30.2281L88.4752 30.4215L88.3422 30.5624C87.8163 31.1207 87.1748 31.7565 86.4043 32.2351C85.4048 32.8542 84.2685 33.1721 83.17 33.4806C81.9308 33.8288 80.7614 34.1562 79.7988 34.876C77.8871 36.3022 77.3922 38.7057 76.8682 41.2513C76.5013 43.0318 76.1238 44.8724 75.2262 46.4338C74.3218 48.0025 72.9933 49.1314 71.8133 50.0288L71.2718 50.4409Z" fill="#46413B"/>
<path d="M29.9453 45.5287C22.2218 52.5899 26.7623 59.4388 28.3286 61.8036C29.0166 62.8431 29.9035 63.8143 30.7604 64.7536C32.3849 66.5342 34.0637 68.3748 34.5227 70.7977C34.6469 71.4521 34.6721 72.1164 34.6964 72.7579C34.7274 73.5475 34.7556 74.2954 34.9545 75.0118C35.6474 77.5136 38.0074 78.7856 40.5081 80.1321C42.4975 81.2035 44.5557 82.3123 45.8405 84.1187C48.1171 87.9712 50.9225 91.9452 54.5897 92.4147C54.8711 92.4507 55.1555 92.4671 55.4408 92.4671C55.4408 92.4671 55.4408 92.4671 55.4417 92.4671C57.4922 92.4671 59.6183 91.6204 61.6737 90.8008C63.1419 90.2151 64.5344 89.6602 65.7901 89.4695C67.6358 80.1644 67.2137 72.8689 64.5014 67.1719C61.041 59.9037 53.9657 54.8544 46.8963 54.6075C46.1278 54.579 45.3272 54.6432 44.2694 54.8046C40.6964 55.3531 37.7376 55.3436 35.2815 54.7845C34.0647 54.5073 32.9681 54.0891 32.0219 53.5417C30.2577 52.5238 29.232 51.3354 28.971 50.0113C28.6643 48.4533 29.2602 46.9056 29.9453 45.5287ZM55.4417 93.2461C55.4408 93.2461 55.4408 93.2461 55.4408 93.2461C55.1225 93.2461 54.8051 93.2267 54.4917 93.1868C50.4926 92.6745 47.5455 88.5291 45.1894 84.5437C44.0288 82.912 42.0511 81.8462 40.1394 80.8177C37.6066 79.4525 34.9875 78.0427 34.2054 75.221C33.9822 74.4158 33.9511 73.5874 33.921 72.7872C33.8958 72.1452 33.8735 71.5399 33.76 70.9428C33.3417 68.7364 31.8094 67.0572 30.1869 65.2789C29.3097 64.3179 28.4023 63.3243 27.6813 62.2342C22.8138 54.8893 24.0607 48.685 31.496 43.268C31.497 43.2669 31.4999 43.2669 31.4989 43.265L31.956 43.8943C31.4931 44.2324 31.068 45.0475 30.9079 45.3536C30.183 46.7403 29.4339 48.3447 29.7328 49.8613C30.0006 51.2225 31.3359 52.2477 32.4091 52.8679C33.2893 53.3754 34.3131 53.7655 35.4543 54.0249C37.8095 54.5615 40.6789 54.5684 44.152 54.0355C45.2602 53.8653 46.1084 53.8012 46.9235 53.8285C54.2743 54.0864 61.6193 59.3134 65.203 66.8365C68.0162 72.7473 68.4403 80.2909 66.4966 89.8972L66.4403 90.1764L66.1579 90.2075C64.9352 90.3389 63.4903 90.9143 61.9609 91.524C59.9357 92.3311 57.6407 93.2461 55.4417 93.2461Z" fill="#46413B"/>
<path d="M65.0703 93.5891C67.6836 93.8079 70.0019 95.9771 71.9408 98.1007C73.999 100.356 76.4415 102.763 79.345 102.57C81.1684 102.452 82.6715 101.351 84.262 100.186C85.3848 99.3639 86.5454 98.5132 87.8554 98.0072C89.0024 97.564 90.2601 97.3665 91.934 97.3665C92.6735 97.3665 93.4226 97.4033 94.1728 97.4413C95.7332 97.5221 97.3421 97.5602 98.5522 97.3695C102.129 96.8104 105.367 94.1452 106.611 90.7371C106.797 90.224 106.944 89.6956 107.092 89.1676C107.278 88.4969 107.471 87.8038 107.745 87.1395C108.343 85.6752 109.294 84.6395 110.424 84.2236C111.685 83.7598 113.789 84.2965 114.263 85.8055C114.471 86.4706 114.392 87.1357 114.039 87.6772C113.806 88.0351 113.473 88.3074 113.084 88.4696C113.718 89.2517 114.478 89.6599 115.306 89.6599C116.377 89.6599 117.519 88.9907 118.439 87.8239C120.128 85.7558 120.321 82.4491 118.891 80.128C117.61 78.0463 115.135 76.7081 112.432 76.6374L112.189 76.6333C109.854 76.6333 107.394 77.5513 105.264 79.2169C104.76 79.6138 104.279 80.0452 103.798 80.4759C103.027 81.1676 102.229 81.882 101.329 82.4559C101.058 82.6299 100.71 82.8767 100.316 83.1559C98.6638 84.3284 96.3387 85.9445 94.8986 85.6995L94.8453 85.7569L94.6395 85.7724C94.4551 85.7724 94.2989 85.6597 94.1951 85.5564C93.147 85.3076 92.4173 85.0307 91.8253 84.807C90.6026 84.344 89.804 84.1214 87.8942 84.5422C80.1931 86.2462 71.507 88.1672 65.0703 93.5891ZM79.014 103.359C75.9476 103.359 73.4594 100.917 71.3672 98.6267C69.2886 96.3485 66.7801 94.0217 64.062 94.3871L62.8335 94.5527L63.7486 93.7145C70.4056 87.6139 80.0107 85.4884 87.7264 83.783C89.8642 83.3105 90.822 83.5942 92.1009 84.0785C92.689 84.3022 93.3528 84.5532 94.3222 84.7865L94.3232 84.6835L94.8559 84.8807C94.9617 84.9255 95.0898 84.9498 95.2363 84.9498C96.4464 84.9498 98.5047 83.4875 99.8681 82.5209C100.274 82.2322 100.632 81.9785 100.913 81.7996C101.758 81.2598 102.533 80.5667 103.281 79.8955C103.774 79.453 104.267 79.0117 104.786 78.6042C107.052 76.8308 109.681 75.8554 112.189 75.8554L112.452 75.8585C115.414 75.9371 118.135 77.4173 119.553 79.7197C121.148 82.3101 120.93 86.0049 119.044 88.3124C117.981 89.6607 116.615 90.4378 115.306 90.4378C114.435 90.4378 113.173 90.0933 112.111 88.4491L111.767 87.9193L112.394 87.8512C112.807 87.8057 113.17 87.5876 113.388 87.2515C113.612 86.9081 113.659 86.4774 113.522 86.0388C113.199 85.0091 111.582 84.6289 110.692 84.9547C109.447 85.4128 108.762 86.7049 108.463 87.4342C108.207 88.0574 108.02 88.7282 107.839 89.377C107.687 89.9243 107.534 90.4697 107.341 91.0037C105.982 94.7267 102.578 97.5271 98.6716 98.1386C97.4032 98.3361 95.7468 98.3008 94.133 98.2191C93.3974 98.1823 92.6618 98.1443 91.934 98.1443C90.361 98.1443 89.1887 98.3274 88.1349 98.7338C86.9209 99.2025 85.802 100.022 84.72 100.814C83.1101 101.994 81.4449 103.213 79.3954 103.347C79.2683 103.355 79.1402 103.359 79.014 103.359Z" fill="#46413B"/>
<path d="M46.5676 53.8224C46.687 53.8224 46.8054 53.8243 46.9238 53.8281C52.6453 54.0275 58.3532 57.1621 62.36 62.2623C62.9529 58.4167 64.3959 55.3296 66.656 53.0757C67.6507 52.084 68.8152 51.2476 69.9408 50.4386C70.3532 50.1412 70.7637 49.8453 71.1665 49.543C71.1344 49.2786 71.1005 49.0162 71.0636 48.7526C70.0388 41.6751 67.1034 35.484 62.7957 31.3205C57.2324 25.9426 49.3886 23.645 42.4686 21.6164C40.7462 21.1128 38.9111 20.6471 37.1673 20.6471C35.6282 20.6471 34.3929 21.0129 33.3895 21.7645C32.8975 22.1337 32.4764 22.593 32.03 23.0772C31.4322 23.7275 30.8141 24.3986 30.0067 24.8449C28.9286 25.4408 27.2381 25.2259 26.4676 24.4093C26.1221 24.0435 25.9562 23.5884 25.9834 23.0935L25.995 22.8934L27.0372 22.231C26.8082 22.1406 26.5598 22.095 26.292 22.095C24.9994 22.095 23.6806 23.1501 23.4099 24.3986C22.9926 26.3365 24.3046 28.2507 25.7922 29.2903C27.1935 30.2733 28.9033 30.7944 30.5559 31.3003L31.4186 31.5654C33.3526 32.1743 35.5196 33.0231 36.9373 34.7043C38.3823 36.4145 38.8199 38.6453 39.244 40.8018C39.3585 41.3852 39.473 41.9675 39.6069 42.5372C39.8922 43.7519 41.0654 47.7453 44.1775 48.1487L44.4813 48.1885L44.5142 48.4939C44.7336 50.5408 45.1547 52.3423 45.7661 53.8494C46.0339 53.8319 46.3008 53.8224 46.5676 53.8224ZM62.8918 64.2876L62.3057 63.4797C58.4211 58.125 52.6608 54.8073 46.8966 54.6071C46.4521 54.5904 46.0019 54.609 45.5507 54.647L45.277 54.6701L45.1178 54.3154C44.4706 52.7752 44.0193 50.9461 43.7748 48.8711C40.3968 48.2053 39.1557 44.0144 38.851 42.7154C38.7141 42.1369 38.5987 41.5448 38.4822 40.9526C38.0775 38.8933 37.6593 36.7628 36.3444 35.2078C35.0567 33.6814 33.1052 32.9123 31.1857 32.3083L30.3298 32.0448C28.619 31.5217 26.849 30.982 25.3478 29.928C23.6505 28.743 22.1571 26.5222 22.651 24.233C22.9994 22.6249 24.6316 21.316 26.292 21.316C26.9421 21.316 27.5399 21.5242 28.0232 21.9191L28.4404 22.2595L26.7655 23.326C26.7917 23.5304 26.881 23.7138 27.0314 23.8745C27.5603 24.4343 28.8645 24.587 29.6321 24.1631C30.3279 23.7791 30.8781 23.1813 31.4584 22.5501C31.9087 22.06 32.3745 21.5553 32.9237 21.142C34.0669 20.2855 35.4555 19.8693 37.1673 19.8693C39.0091 19.8693 40.9082 20.3498 42.687 20.8689C49.6923 22.9227 57.6341 25.2494 63.3353 30.7606C67.7652 35.0427 70.7831 41.3929 71.8321 48.6416C71.8816 48.9858 71.9243 49.3292 71.9651 49.6725L71.9903 49.8939L71.8137 50.0284C71.3499 50.3824 70.8724 50.7254 70.394 51.0706C69.2936 51.861 68.1553 52.6799 67.2033 53.6287C64.8899 55.9353 63.477 59.1877 63.0053 63.2947L62.8918 64.2876Z" fill="#46413B"/>
<path d="M36.5604 83.5756C33.8394 83.5756 31.195 84.0431 28.7001 84.9669C25.6385 86.1037 22.1324 88.6724 22.3206 92.1739C22.3362 92.4588 22.3769 92.7437 22.4157 93.0274C22.4866 93.5421 22.5603 94.0731 22.505 94.6192C22.3614 95.971 21.4541 97.0649 20.7253 97.9426C20.0276 98.7828 19.2377 99.7369 19.1125 100.844C19.0242 101.627 19.4686 102.549 20.2236 103.254C20.1421 101.928 20.6583 100.573 21.6414 99.6647C22.8437 98.5496 24.7874 98.1876 26.3187 98.7976C27.4434 99.2477 28.3207 100.121 29.1698 100.966C30.1974 101.988 31.1669 102.953 32.4614 103.08C34.1227 103.241 35.3784 101.995 36.7205 100.667C37.6346 99.7631 38.5788 98.8284 39.7142 98.2784C40.5313 97.8815 41.4774 97.6802 42.5255 97.6802C43.6211 97.6802 44.8263 97.8872 46.3207 98.3335C46.672 98.4406 47.0223 98.5522 47.3746 98.6643C49.0446 99.196 50.7681 99.7426 52.4906 99.6347C53.1815 99.5888 53.8957 99.3905 54.576 99.057C53.7181 97.1591 53.5279 95.0355 54.0422 93.1121C50.4343 92.3927 47.7424 88.7191 45.7734 85.5142L45.7035 85.4823C45.5638 85.4181 45.4241 85.3558 45.2834 85.2966C42.575 84.1708 39.5589 83.5756 36.5604 83.5756ZM21.4492 105L20.5817 104.488C19.1125 103.619 18.1906 102.085 18.34 100.758C18.4914 99.4178 19.3987 98.3247 20.1285 97.445C20.7893 96.6474 21.6142 95.655 21.7316 94.5387C21.7782 94.0855 21.7132 93.6244 21.6462 93.1357C21.6035 92.8292 21.5618 92.5238 21.5453 92.2157C21.3337 88.2915 25.1212 85.4656 28.4293 84.2376C31.0116 83.282 33.7472 82.7966 36.5604 82.7966C39.6608 82.7966 42.7787 83.4131 45.5803 84.5772C45.7288 84.6391 45.8773 84.7064 46.0238 84.7724L46.311 84.9027L46.3741 85.0049C48.1839 87.9655 51.0039 91.9551 54.5896 92.414L55.0573 92.4732L54.9088 92.9218C54.2664 94.8759 54.4585 97.1105 55.4338 99.0521L55.6007 99.3829L55.2776 99.5656C54.4032 100.059 53.4571 100.352 52.541 100.411C50.6817 100.535 48.8758 99.9583 47.1388 99.4061C46.7904 99.2952 46.444 99.1843 46.0966 99.0794C43.3668 98.2636 41.5531 98.2492 40.0538 98.9784C39.033 99.4733 38.1354 100.361 37.2668 101.222C35.8627 102.61 34.4041 104.058 32.3857 103.854C30.8156 103.702 29.7006 102.592 28.6225 101.519C27.8277 100.729 27.0077 99.9109 26.0315 99.5208C24.7748 99.0183 23.1581 99.3195 22.1683 100.236C21.162 101.166 20.7428 102.729 21.1494 104.036L21.4492 105Z" fill="#46413B"/>
<path d="M55.6214 84.1606C55.7864 84.3009 55.9397 84.463 56.0804 84.648C56.7568 85.5338 57.0537 86.8658 56.8393 88.0413C56.6462 89.0952 56.1843 90.0582 55.7379 90.9875C55.4361 91.6147 55.1256 92.2641 54.9092 92.9228C53.9446 95.8549 54.8975 99.342 57.2236 101.403C58.6714 102.686 60.6714 103.422 62.7112 103.422C63.832 103.422 64.946 103.196 65.933 102.77C68.7704 101.542 70.8092 98.6193 71.0072 95.4983C71.0353 95.0577 71.0295 94.6152 71.0247 94.1739C71.0159 93.4681 71.0062 92.7377 71.1314 92.0123C71.3294 90.863 72.0116 89.4835 73.3294 89.0585C73.7311 88.93 74.194 88.935 74.62 89.0665C74.0019 88.4731 73.0916 88.1105 72.2018 88.1105L72.0805 88.1135C70.4376 88.1709 68.7733 89.2275 67.6254 90.9389C67.0897 91.7362 66.6462 92.6679 66.2289 93.8716C66.0669 94.6969 65.8146 95.5264 65.4905 96.2819L64.7597 96.0213C64.9713 95.2783 65.21 94.4363 65.4953 93.6148C65.998 91.0741 65.7777 88.1093 64.883 85.4209C62.9111 87.9976 61.5904 91.2363 61.145 94.6182L60.3725 94.5359C60.556 92.2304 60.7636 89.6168 59.7728 87.3667C58.9926 85.5968 57.2789 84.2883 55.6214 84.1606ZM62.7112 104.201C60.4851 104.201 58.2968 103.394 56.7093 101.986C54.1561 99.7249 53.1129 95.8978 54.1716 92.6797C54.4036 91.9736 54.7257 91.3005 55.0382 90.6503C55.4807 89.7254 55.8999 88.8522 56.0756 87.9015C56.2522 86.9318 56.0125 85.8399 55.4642 85.1205C55.2168 84.7976 54.7869 84.3989 54.1406 84.3445L52.2881 84.1869L54.0494 83.5879C54.4686 83.4451 54.9101 83.3733 55.3594 83.3733C57.3885 83.3733 59.5438 84.9203 60.4841 87.0515C60.9849 88.1914 61.2022 89.4192 61.2721 90.6374C62.0484 88.3235 63.2217 86.1782 64.7161 84.3836L65.1401 83.8731L65.3779 84.4942C66.193 86.6413 66.587 89.0011 66.5249 91.25C66.6705 90.9887 66.8218 90.7414 66.981 90.5045C68.2658 88.5867 70.162 87.4016 72.0514 87.3344L72.2018 87.3318C73.375 87.3318 74.5346 87.8256 75.3042 88.6521C75.9213 89.3152 76.2164 90.1094 76.161 90.9526C76.1591 91.0343 76.1494 91.117 76.1348 91.2006L75.3672 91.0741C75.375 91.0206 75.3808 90.967 75.3847 90.9158C75.3896 90.6073 75.2207 90.368 75.0781 90.2214C74.6977 89.8295 74.0485 89.6457 73.5672 89.7995C72.5793 90.1174 72.0562 91.22 71.8971 92.1457C71.7845 92.8 71.7923 93.4632 71.801 94.1643C71.8068 94.6262 71.8117 95.0888 71.7826 95.5477C71.5662 98.9539 69.3401 102.143 66.2406 103.484C65.1576 103.953 63.9368 104.201 62.7112 104.201Z" fill="#46413B"/>
<path d="M89.0088 70.2153C88.2102 73.5562 86.6633 76.8261 84.412 79.9376C84.1684 80.2752 83.9307 80.5919 83.6861 80.9072C83.4047 81.265 83.1679 81.5593 82.9263 81.8492L82.8195 81.9726C82.5944 82.2411 82.3664 82.5085 82.1325 82.7703L81.953 82.9654C81.7414 83.1998 81.5289 83.433 81.3115 83.6635L80.9127 84.0711C80.7623 84.2264 80.6119 84.381 80.4595 84.5337C80.3489 84.6416 80.2383 84.7487 80.1276 84.8539L79.5774 85.3807C79.3814 85.5657 79.1834 85.7473 78.9826 85.9272C81.8181 85.1077 84.7419 84.4426 87.7259 83.7832C89.8637 83.3107 90.8215 83.5944 92.1005 84.0787C92.6886 84.3024 93.3523 84.5534 94.3218 84.7867L94.3227 84.6845L94.8555 84.8801C95.102 84.988 95.4707 84.9675 95.9375 84.8246C97.2776 83.6647 98.4285 82.3702 99.3611 80.9752C99.7551 80.3849 100.12 79.7704 100.484 79.154C101.419 77.5759 102.386 75.9434 103.849 74.7629C105.117 73.7389 106.662 73.1331 108.158 72.5489C110.024 71.8178 111.788 71.1272 112.998 69.6968C114.142 68.3466 114.587 66.5486 114.894 64.807L115.027 64.0379C115.292 62.4696 115.566 60.8467 116.287 59.3833C117.259 57.4055 119.041 56.0929 120.826 56.0416C120.828 56.0416 120.829 56.0416 120.83 56.0416C122.013 56.0416 123.125 56.622 123.82 57.5556C124.246 58.1291 124.46 58.7592 124.448 59.3844C125.567 58.8265 126.09 57.5563 126.202 56.4499C126.317 55.3112 125.94 53.7566 125.303 52.752C124.436 51.3802 122.891 50.0819 121.169 49.2778C118.813 48.1763 115.879 47.5451 113.119 47.5451C112.412 47.5451 111.728 47.5873 111.084 47.6708C108.035 48.0685 105.115 49.732 102.157 52.758C98.3315 56.6687 95.1699 61.2823 92.1131 65.7445C91.0874 67.2417 90.0617 68.7394 89.0088 70.2153ZM75.5415 87.8135L77.0883 86.5339C77.4493 86.2345 77.8074 85.9292 78.1606 85.617C78.4605 85.3545 78.7565 85.0852 79.0476 84.8122L79.5929 84.2888C79.6987 84.1877 79.8064 84.0855 79.9112 83.9815C80.0607 83.8319 80.2082 83.6803 80.3557 83.5283L80.7487 83.1257C80.9603 82.9012 81.1689 82.6737 81.3766 82.4443L81.5541 82.2487C81.7832 81.9942 82.0054 81.7314 82.2266 81.4708L82.2994 81.3865C82.5653 81.0663 82.7982 80.7788 83.0243 80.4891C83.3125 80.1213 83.5444 79.8103 83.7715 79.4973C85.9908 76.4296 87.4998 73.2277 88.2694 69.9635L88.3315 69.8263C89.397 68.3329 90.4353 66.8171 91.4736 65.3031C94.5489 60.8137 97.7289 56.1719 101.602 52.2134C104.686 49.0583 107.754 47.3199 110.984 46.8997C111.661 46.8112 112.379 46.7664 113.119 46.7664C115.989 46.7664 119.042 47.4247 121.497 48.5728C123.349 49.4366 125.017 50.8434 125.959 52.335C126.691 53.4893 127.109 55.2151 126.975 56.5278C126.775 58.5017 125.657 59.9648 124.057 60.3492L123.402 60.5056L123.595 59.8588C123.774 59.2591 123.633 58.6054 123.197 58.0201C122.655 57.2901 121.757 56.8195 120.912 56.8195C119.025 56.8727 117.627 58.4197 116.985 59.7277C116.314 61.0898 116.048 62.6543 115.793 64.1682L115.66 64.9442C115.349 66.7031 114.858 68.7051 113.59 70.2005C112.254 71.7817 110.315 72.5402 108.44 73.2743C107 73.8372 105.511 74.4206 104.336 75.3686C102.983 76.4607 102.093 77.9617 101.153 79.5505C100.781 80.1799 100.408 80.8069 100.007 81.4078C99.0205 82.8827 97.8026 84.2481 96.3829 85.4662L96.251 85.5414C95.7221 85.7154 95.2825 85.7678 94.8992 85.6986L94.8448 85.7571L94.6391 85.7726C94.4547 85.7726 94.2985 85.6599 94.1946 85.5566C93.1466 85.3078 92.4169 85.0309 91.8249 84.8072C90.6022 84.3442 89.8036 84.1216 87.8938 84.5424C84.3023 85.3359 80.803 86.1373 77.4532 87.205L75.5415 87.8135Z" fill="#46413B"/>
<path d="M13.6193 34.9282C14.45 35.2111 15.2059 35.9412 15.5329 36.8425C15.9425 37.9657 15.8221 39.156 15.7066 40.3072L15.662 40.7584C14.9711 48.1326 17.8658 55.8851 23.2147 60.9917C25.3137 62.9945 27.8522 64.6418 30.6228 65.8086C30.4898 65.6627 30.3569 65.515 30.2229 65.3692C29.9862 65.1086 29.7494 64.8488 29.5155 64.5864L29.3894 64.4443C29.2768 64.317 29.1681 64.1925 29.0614 64.0671L28.844 63.8097C28.7625 63.7143 28.679 63.6129 28.5985 63.513C28.5053 63.4002 28.4161 63.2825 28.3258 63.1639L28.0492 62.7993L28.0541 62.7651C27.925 62.5911 27.8008 62.4142 27.6815 62.2341C22.8139 54.8892 24.0609 48.6849 31.4961 43.2679C31.4971 43.2667 31.5 43.2667 31.499 43.2649L31.9561 43.8942C31.4932 44.2323 31.0682 45.0474 30.9081 45.3535C30.1832 46.7402 29.434 48.3446 29.7329 49.8611C30.0007 51.2224 31.336 52.2475 32.4093 52.8678C33.2894 53.3752 34.3132 53.7653 35.4544 54.0248C37.8096 54.5614 40.6791 54.5683 44.1522 54.0354C44.4239 53.9935 44.6946 53.9568 44.9644 53.9256C44.4229 52.4952 44.0367 50.8328 43.8164 48.9697C40.4384 48.3016 39.1982 44.1107 38.8935 42.8117C38.7557 42.2302 38.6393 41.6362 38.5219 41.0413C38.4229 40.5366 38.3239 40.0311 38.2104 39.532C36.1211 38.1281 34.124 37.5156 32.1774 37.7529C30.7916 37.9219 29.3923 38.5463 28.0386 39.151C26.4626 39.8548 24.8333 40.5822 23.2205 40.5822C22.5267 40.5822 21.8881 40.4531 21.269 40.1883C19.9881 39.636 19.0934 38.5734 18.2297 37.5467C17.8406 37.0837 17.4378 36.6055 17.0118 36.1904C16.0667 35.2704 14.6344 34.7394 13.6193 34.9282ZM32.8828 67.4468L31.8202 67.1045C28.3811 65.8978 25.2205 63.9794 22.68 61.5554C17.1613 56.2873 14.1763 48.291 14.8886 40.6855L14.9332 40.2294C15.041 39.1654 15.1525 38.0659 14.8032 37.1103C14.4218 36.0559 13.236 35.3141 12.382 35.6825L10.9517 36.3032L11.926 35.0828C12.4325 34.4458 13.1749 34.1104 14.0705 34.1104C15.237 34.1104 16.6033 34.7076 17.5524 35.6321C18.0075 36.0738 18.4218 36.5675 18.8236 37.0438C19.6669 38.0466 20.4636 38.9934 21.5757 39.472C22.0958 39.6957 22.6344 39.8036 23.2205 39.8036C24.6683 39.8036 26.1521 39.1404 27.7222 38.4404C29.1283 37.8121 30.582 37.1635 32.0832 36.9796C34.2686 36.7172 36.483 37.4008 38.7742 38.9751L38.8994 39.0595L38.9343 39.2084C39.0624 39.7637 39.174 40.3278 39.2846 40.8906C39.3991 41.4767 39.5136 42.0601 39.6495 42.6329C39.9348 43.8475 41.107 47.8428 44.2201 48.2481L44.5229 48.2872L44.5559 48.5914C44.7849 50.7169 45.2293 52.5723 45.8746 54.1083L46.0823 54.6006L45.5505 54.6472C45.1245 54.6849 44.6985 54.7395 44.2686 54.8045C40.6965 55.353 37.7378 55.3434 35.2817 54.7843C34.0648 54.5071 32.9682 54.0889 32.0221 53.5416C30.2579 52.5237 29.2322 51.3353 28.9711 50.0111C28.6645 48.4532 29.2603 46.9054 29.9454 45.5286C22.222 52.5898 26.7625 59.4386 28.3287 61.8034C28.4684 62.0146 28.6169 62.2227 28.7702 62.4259L28.8721 62.5608L28.8673 62.5942L28.8838 62.6154C29.0274 62.8012 29.1128 62.914 29.2021 63.023C29.2797 63.1203 29.3583 63.2144 29.4379 63.3078L29.6514 63.5624C29.7562 63.6839 29.861 63.8047 29.9668 63.9232L30.09 64.0633C30.3258 64.3288 30.5616 64.5864 30.7965 64.8438C31.2904 65.3866 31.7824 65.9263 32.2414 66.4805L32.8828 67.4468Z" fill="#46413B"/>
</svg>
