<svg width="123" height="123" viewBox="0 0 123 123" fill="none" xmlns="http://www.w3.org/2000/svg">
<circle cx="61.5" cy="61.4998" r="61.5" fill="white"/>
<path d="M88.9866 92.4079V46.8129C88.9866 33.6611 78.3249 22.9995 65.1732 22.9995H59.6591C46.5073 22.9995 35.8457 33.6611 35.8457 46.8129V92.4079" stroke="#24547E" stroke-width="6"/>
<path d="M72.5726 52.6812C70.019 50.4182 66.2211 50.8253 63.8772 53.3403L62.9592 54.324L62.0412 53.3403C59.7019 50.8253 55.8995 50.4182 53.3458 52.6812C50.4194 55.2786 50.2656 59.9403 52.8845 62.7558L61.9014 72.4378C62.4839 73.063 63.4299 73.063 64.0124 72.4378L73.0293 62.7558C75.6528 59.9403 75.499 55.2786 72.5726 52.6812Z" fill="#12538C"/>
<rect x="25" y="92.408" width="24.9437" height="7.59154" fill="#12538C"/>
<rect x="77.0566" y="92.408" width="24.9437" height="7.59154" fill="#12538C"/>
</svg>
