<svg width="85" height="18" viewBox="0 0 85 18" fill="none" xmlns="http://www.w3.org/2000/svg">
<path d="M32.6523 13.7003H33.3707V10.7272L36.2461 13.7003H37.2382L34.0557 10.4774L36.8963 7.91275H35.9719L33.3707 10.2846V5.18835H32.6523V13.7003ZM26.9079 13.7003H27.6263V10.5004C27.6263 10.2426 27.6596 9.98995 27.7183 9.73946C27.7736 9.49809 27.8748 9.27896 28.003 9.07003C28.2699 8.63651 28.7101 8.39331 29.3493 8.3893C29.8433 8.38602 30.2099 8.54973 30.4213 8.86621C30.6357 9.18525 30.7299 9.62972 30.7299 10.1828V13.7003H31.4487V10.0005C31.4487 9.35006 31.3035 8.81772 31.0034 8.41154C30.6944 7.99369 30.1783 7.78185 29.4636 7.77638C29.1667 7.7742 28.912 7.81066 28.6991 7.87848C28.4865 7.94629 28.3073 8.04146 28.1628 8.16214C28.0261 8.2759 27.9118 8.4006 27.8209 8.5366C27.7296 8.67297 27.649 8.80897 27.5812 8.94497H27.5577V7.91275H26.8621C26.8921 8.37399 26.9079 8.82829 26.9079 9.27422V13.7003ZM25.017 11.1359C25.017 11.2869 25.0089 11.4798 24.9943 11.7142C24.9793 11.941 24.9144 12.1725 24.8 12.4066C24.6941 12.6261 24.5218 12.815 24.2865 12.9747C24.0428 13.1402 23.7122 13.2237 23.2944 13.2237C22.9594 13.2237 22.6823 13.1347 22.4499 12.9747C22.2109 12.8091 22.0849 12.5503 22.0849 12.1798C22.0849 11.8615 22.1765 11.6128 22.3473 11.4196C22.5111 11.2337 22.7215 11.0933 22.9861 10.9992C23.2537 10.9044 23.5487 10.8297 23.8764 10.8067C24.1876 10.7844 24.4995 10.7844 24.8114 10.7844H25.017V11.1359ZM25.0852 13.7003H25.7926C25.7471 13.3302 25.7354 12.9255 25.7354 12.4865V9.93271C25.7354 8.47972 25.0705 7.75487 23.6931 7.77638C23.0924 7.78513 22.5221 7.92369 21.9822 8.17345V8.86621C22.5221 8.54061 23.0924 8.38638 23.6931 8.3893C24.5981 8.39367 25.017 8.88481 25.017 9.87583V10.1712H24.8799C24.5002 10.1712 24.1036 10.1748 23.6931 10.2051C23.2746 10.2357 22.8886 10.3301 22.5294 10.4552C22.1736 10.5792 21.8818 10.7779 21.6516 11.0568C21.4178 11.3379 21.3071 11.7182 21.2976 12.2024C21.2921 12.4981 21.3848 12.8427 21.6403 13.2124C21.7656 13.3951 21.9767 13.526 22.2333 13.6441C22.4862 13.7604 22.8113 13.837 23.2141 13.837C23.5946 13.837 23.9563 13.7345 24.2983 13.553C24.6406 13.3721 24.895 13.1103 25.0625 12.7705H25.0852V13.7003ZM19.8348 10.8067C19.8348 11.0791 19.8157 11.3551 19.7773 11.6351C19.7245 11.9228 19.6292 12.1871 19.4925 12.4292C19.3704 12.6564 19.196 12.842 18.9676 12.986C18.7389 13.1442 18.4541 13.2237 18.1114 13.2237C17.7922 13.2237 17.5261 13.1442 17.3131 12.986C17.0929 12.842 16.914 12.6491 16.7766 12.4066C16.5108 11.8921 16.3811 11.3587 16.3892 10.8067C16.3811 10.239 16.5068 9.70191 16.7656 9.19473C16.9023 8.95263 17.0815 8.75574 17.3018 8.60479C17.5221 8.46076 17.7922 8.3893 18.1114 8.3893C18.4541 8.3893 18.7389 8.46076 18.9676 8.60479C19.196 8.74115 19.3704 8.93002 19.4925 9.17213C19.6292 9.39891 19.7245 9.6567 19.7773 9.94365C19.8157 10.2313 19.8348 10.519 19.8348 10.8067ZM15.6704 13.7003H16.3892V12.7814H16.4115C16.7923 13.4932 17.3971 13.8447 18.2258 13.837C19.0244 13.8213 19.6259 13.5307 20.0287 12.9634C20.4242 12.3953 20.6221 11.6767 20.6221 10.8067C20.6221 9.90609 20.4388 9.17942 20.0745 8.62739C19.6941 8.06771 19.0776 7.78368 18.2258 7.77638C17.9447 7.77638 17.6969 7.81795 17.4843 7.90145C17.2714 7.98421 17.0885 8.09032 16.9367 8.21866C16.7923 8.33205 16.678 8.44982 16.5948 8.57088C16.5028 8.69922 16.4419 8.80532 16.4115 8.88846H16.3892V5.18835H15.6704V13.7003Z" fill="#1C1C1A"/>
<path d="M82.9444 6.58372H84.5194V5.08771H82.9444V6.58372ZM82.9444 13.7003H84.5194V7.68231H82.9444V13.7003ZM78.5748 13.7003H80.1486V11.4914C80.1486 11.2581 80.1563 11.0047 80.1721 10.7323C80.1882 10.4523 80.2337 10.1865 80.3132 9.93744C80.3975 9.672 80.5305 9.46089 80.701 9.29536C80.8747 9.12545 81.1159 9.0383 81.4292 9.0383C81.7349 9.0383 81.9699 9.0806 82.1344 9.16628V7.5886C81.9699 7.55761 81.809 7.53828 81.6525 7.54229C81.1826 7.5536 80.8069 7.74028 80.5129 8.07937C80.2197 8.4181 80.0431 8.73823 79.9958 9.04961H79.9727V7.68231H78.5748V13.7003ZM74.376 8.75755C74.634 8.75208 74.8502 8.81589 75.0225 8.93293C75.194 9.04961 75.3351 9.20238 75.4216 9.4C75.6009 9.80983 75.6804 10.2375 75.6804 10.674C75.6804 10.8763 75.6712 11.0922 75.6331 11.3168C75.5935 11.5439 75.5114 11.7569 75.4095 11.9592C75.3157 12.1466 75.1823 12.302 75.0104 12.4267C74.8297 12.559 74.6105 12.6261 74.3525 12.6261C74.0934 12.6261 73.8801 12.5568 73.7063 12.4267C73.5366 12.2994 73.3885 12.1485 73.2834 11.9592C73.0598 11.5563 72.9623 11.1257 72.9667 10.674C72.9696 10.2218 73.0792 9.79925 73.2951 9.4C73.5179 8.98908 73.8746 8.76703 74.376 8.75755ZM71.3804 16.1552H72.9546V13.0111H72.9784C73.2599 13.3302 73.5473 13.5478 73.8353 13.666C74.1183 13.7808 74.4236 13.8446 74.752 13.8406C75.6918 13.8293 76.3636 13.5034 76.7609 12.8711C77.1465 12.2568 77.3242 11.5231 77.3242 10.674C77.3242 9.81639 77.1498 9.0806 76.7609 8.47716C76.3669 7.86534 75.7031 7.53828 74.7872 7.54229C73.8705 7.54557 73.2445 7.89633 72.9073 8.53514H72.8839V7.68231H71.3804V16.1552ZM69.642 12.0883C69.3517 12.2589 69.0402 12.3946 68.714 12.5087C68.3749 12.6272 68.0169 12.6957 67.6331 12.6957C67.1482 12.6957 66.7516 12.555 66.4346 12.2863C66.1256 12.0252 65.9453 11.6591 65.9064 11.1768H70.0888C70.0957 10.1012 69.9088 9.22353 69.5009 8.55847C69.086 7.88357 68.3148 7.53792 67.2105 7.54229C66.2785 7.54557 65.5755 7.86388 65.1074 8.46513C64.6357 9.07148 64.396 9.82478 64.4022 10.7206C64.4187 12.7694 65.4794 13.8184 67.5631 13.8406C68.3925 13.8494 69.086 13.6809 69.642 13.3615V12.0883ZM65.9064 10.1012C65.9376 9.68878 66.0692 9.3475 66.3056 9.08461C66.539 8.82573 66.8733 8.68755 67.3043 8.68755C67.7431 8.68755 68.0645 8.83485 68.2675 9.10831C68.464 9.37229 68.5688 9.70372 68.5846 10.1012H65.9064ZM58.6933 13.7003H60.2675V10.779H60.2914L62.312 13.7003H64.3084L61.7714 10.3695L64.0266 7.68231H62.1709L60.2914 10.0899H60.2675V4.93567H58.6933V13.7003ZM57.1664 7.68231H55.5919V10.6273C55.5919 10.8216 55.5761 11.0324 55.5453 11.2581C55.5138 11.4838 55.4368 11.6949 55.3335 11.9016C55.2334 12.1003 55.1 12.2681 54.9226 12.403C54.7316 12.5484 54.496 12.6261 54.206 12.6261C53.9627 12.6261 53.7717 12.5667 53.6306 12.45C53.4979 12.3413 53.3876 12.2039 53.3249 12.0292C53.2623 11.8531 53.2348 11.6591 53.2194 11.4564C53.2117 11.3554 53.2146 11.2581 53.2077 11.164C53.1992 11.071 53.1838 10.9813 53.1838 10.8956V7.68231H51.6096V11.4805C51.6096 12.1656 51.7848 12.722 52.1151 13.1635C52.4435 13.6014 52.9526 13.8446 53.6654 13.8406C54.496 13.837 55.1575 13.5059 55.6509 12.8828H55.6743V13.7003H57.1664V7.68231ZM46.4641 11.9592C46.4641 11.7255 46.5322 11.5425 46.6525 11.3984C46.7668 11.2617 46.9072 11.1531 47.0872 11.0834C47.2675 11.0131 47.4592 10.9693 47.6626 10.9427C47.7572 10.9306 47.8506 10.9193 47.9448 10.9193H48.2149H48.8963C48.904 11.3948 48.8021 11.8126 48.5672 12.1579C48.3249 12.5142 47.9485 12.6906 47.4632 12.6957C47.1733 12.6987 46.942 12.6272 46.7588 12.5087C46.5663 12.3858 46.4641 12.2083 46.4641 11.9592ZM45.6654 9.34203C46.2214 8.91324 46.8442 8.69192 47.5332 8.68755C48.0031 8.68426 48.3502 8.7787 48.5672 8.96757C48.7885 9.16008 48.8963 9.50173 48.8963 9.98411H48.0269C47.6981 9.98411 47.3529 9.99979 46.9926 10.0432C46.6404 10.0851 46.309 10.1905 45.9946 10.3349C45.6984 10.4705 45.4587 10.6772 45.2663 10.954C45.0684 11.2387 44.9577 11.6008 44.9613 12.0526C44.9654 12.629 45.1959 13.064 45.6302 13.3728C46.0492 13.6718 46.5271 13.8366 47.0751 13.8406C47.4507 13.8435 47.8107 13.7458 48.1559 13.5606C48.4924 13.3801 48.7552 13.1278 48.9432 12.8008H48.9667C48.9667 13.0348 48.9901 13.3342 49.037 13.7003H50.4236C50.3917 13.2489 50.369 12.8008 50.3528 12.3567C50.3374 11.9363 50.3297 11.4335 50.3297 10.8493V10.0775C50.3297 8.36377 49.4835 7.52042 47.7212 7.54229C46.9933 7.55104 46.2925 7.70163 45.6189 7.99806L45.6654 9.34203ZM42.3572 6.58372H43.9314V5.08771H42.3572V6.58372ZM42.3572 13.7003H43.9314V7.68231H42.3572V13.7003ZM37.9429 13.7003H39.5171V11.4914C39.5171 11.2581 39.5248 11.0054 39.5402 10.7323C39.5563 10.4523 39.6032 10.1865 39.6813 9.93744C39.7678 9.6731 39.8968 9.45907 40.0694 9.29536C40.2413 9.12326 40.4843 9.0383 40.7973 9.0383C41.1026 9.0383 41.3379 9.0806 41.5021 9.16628V7.5886C41.3379 7.55761 41.177 7.54229 41.0205 7.54229C40.5503 7.55761 40.1709 7.73663 39.881 8.07937C39.5834 8.41445 39.4111 8.73823 39.3642 9.04961H39.3408V7.68231H37.9429V13.7003Z" fill="#1C1C1A"/>
<path d="M47.1589 16.1417H47.4499V15.5981C47.4499 15.5623 47.4532 15.523 47.4613 15.4803C47.4679 15.4384 47.4807 15.3983 47.4998 15.3607C47.5185 15.3228 47.5449 15.2925 47.5779 15.2666C47.6112 15.2415 47.6541 15.2295 47.7054 15.2295C47.7523 15.2295 47.7882 15.2397 47.8124 15.2601C47.8385 15.2816 47.8575 15.3075 47.8692 15.3381C47.8817 15.3695 47.8887 15.4034 47.8916 15.4406C47.8934 15.4781 47.8945 15.5139 47.8945 15.5489V16.1417H48.1848V15.4406C48.1848 15.3789 48.1771 15.321 48.1632 15.2681C48.1485 15.2156 48.1262 15.1689 48.0946 15.1303C48.0639 15.0916 48.0239 15.061 47.9774 15.038C47.929 15.0158 47.8722 15.0049 47.8055 15.0049C47.7289 15.0049 47.6603 15.0209 47.6002 15.0526C47.5408 15.0843 47.4917 15.1274 47.4543 15.1813H47.4499V14.5236H47.1589V16.1417ZM46.3178 15.0304H46.0267V15.574C46.0267 15.6108 46.0238 15.6495 46.0165 15.6921C46.0092 15.7348 45.996 15.7746 45.9776 15.8117C45.9586 15.8489 45.9322 15.8799 45.8992 15.9054C45.8658 15.931 45.8233 15.943 45.7709 15.943C45.7251 15.943 45.6888 15.9328 45.6628 15.912C45.6371 15.8912 45.6181 15.8657 45.6067 15.834C45.5954 15.8034 45.5884 15.7691 45.5866 15.7319C45.5836 15.694 45.5825 15.6582 45.5825 15.6243V15.0304H45.2919V15.7319C45.2919 15.7957 45.2992 15.8533 45.3139 15.9062C45.3285 15.9598 45.3509 16.0061 45.382 16.0447C45.4128 16.0834 45.4524 16.1136 45.5004 16.1348C45.5477 16.157 45.6049 16.1676 45.6712 16.1676C45.7482 16.1676 45.8171 16.1516 45.8787 16.1198C45.9399 16.0885 45.9934 16.0455 46.0377 15.9911H46.0421V16.1417H46.3178V15.0304ZM43.4256 16.1417H43.7071V16.0061H43.7107C43.7529 16.0651 43.8053 16.1067 43.8676 16.1311C43.9288 16.1552 43.9915 16.1676 44.0534 16.1676C44.1395 16.1676 44.2114 16.1516 44.2711 16.1187C44.3316 16.0863 44.38 16.0436 44.417 15.9897C44.454 15.9357 44.4808 15.8734 44.4973 15.8026C44.513 15.7326 44.5222 15.659 44.5222 15.5831C44.5222 15.5069 44.513 15.434 44.4973 15.3636C44.4808 15.2944 44.454 15.2331 44.417 15.1795C44.38 15.1263 44.3316 15.0843 44.2711 15.0526C44.2114 15.0209 44.1395 15.0049 44.0534 15.0049C43.9772 15.0049 43.9127 15.0198 43.8592 15.049C43.8071 15.0789 43.7606 15.1197 43.7195 15.1737H43.7158V14.5236H43.4256V16.1417ZM43.7177 15.5831C43.7177 15.5441 43.7228 15.5036 43.7316 15.4621C43.7411 15.4205 43.7565 15.3822 43.7771 15.3483C43.7987 15.3133 43.8247 15.2852 43.8584 15.263C43.8921 15.2408 43.9317 15.2295 43.9779 15.2295C44.0252 15.2295 44.0644 15.2408 44.0945 15.2641C44.1253 15.2863 44.1494 15.3159 44.1685 15.3501C44.1872 15.3851 44.2008 15.4227 44.2077 15.4643C44.2154 15.5062 44.2183 15.5459 44.2183 15.5831C44.2183 15.6221 44.2143 15.6619 44.2066 15.7038C44.1989 15.7454 44.1857 15.784 44.1674 15.8201C44.1494 15.8559 44.1245 15.8858 44.0926 15.9087C44.0611 15.9321 44.0212 15.943 43.9739 15.943C43.9259 15.943 43.8852 15.9321 43.8522 15.9087C43.8188 15.8858 43.7921 15.857 43.7727 15.8209C43.7532 15.7862 43.7393 15.7472 43.7301 15.7045C43.7217 15.6626 43.7177 15.6221 43.7177 15.5831ZM40.9505 16.1417H41.2415V15.6025C41.2415 15.566 41.2433 15.5273 41.2481 15.484C41.2521 15.4406 41.2616 15.4001 41.2774 15.3618C41.2921 15.3239 41.314 15.2925 41.343 15.2666C41.372 15.2415 41.4104 15.2295 41.4581 15.2295C41.4999 15.2295 41.5321 15.2378 41.5545 15.2535C41.5772 15.2707 41.5933 15.2911 41.6043 15.3159C41.6153 15.3403 41.6212 15.3665 41.6227 15.3968C41.6241 15.4256 41.6252 15.4541 41.6252 15.4796V16.1417H41.9155V15.6025C41.9155 15.566 41.9181 15.5273 41.9221 15.484C41.9265 15.4406 41.9364 15.4001 41.9514 15.3618C41.9665 15.3239 41.9888 15.2925 42.017 15.2666C42.046 15.2415 42.0845 15.2295 42.1325 15.2295C42.1743 15.2295 42.2065 15.2378 42.2285 15.2535C42.2516 15.2707 42.2681 15.2911 42.2784 15.3159C42.2894 15.3403 42.296 15.3665 42.2971 15.3968C42.2985 15.4256 42.2992 15.4541 42.2992 15.4796V16.1417H42.5895V15.4406C42.5895 15.3789 42.5848 15.321 42.5738 15.2681C42.5628 15.2156 42.5437 15.1689 42.5162 15.1303C42.4891 15.0916 42.4525 15.061 42.4077 15.038C42.3627 15.0158 42.3058 15.0049 42.2366 15.0049C42.1688 15.0049 42.1013 15.0213 42.0357 15.0537C41.9705 15.0862 41.921 15.135 41.8876 15.201C41.8558 15.1321 41.8121 15.0821 41.7572 15.0519C41.7026 15.0205 41.6359 15.0049 41.5581 15.0049C41.5028 15.0049 41.4453 15.018 41.3855 15.0442C41.3258 15.0698 41.2723 15.1168 41.2261 15.1864H41.222V15.0304H40.9505V16.1417ZM40.1137 15.0304H39.8231V15.574C39.8231 15.6108 39.8194 15.6495 39.8124 15.6921C39.8051 15.7348 39.7919 15.7746 39.7728 15.8117C39.7541 15.8489 39.7281 15.8799 39.6955 15.9054C39.6618 15.931 39.6189 15.943 39.5669 15.943C39.521 15.943 39.4848 15.9328 39.4591 15.912C39.4323 15.8912 39.414 15.8657 39.4023 15.834C39.3906 15.8034 39.3843 15.7691 39.3814 15.7319C39.3796 15.694 39.3781 15.6582 39.3781 15.6243V15.0304H39.0878V15.7319C39.0878 15.7957 39.0955 15.8533 39.1094 15.9062C39.1245 15.9598 39.1468 16.0061 39.1783 16.0447C39.2091 16.0834 39.2487 16.1136 39.2964 16.1348C39.3436 16.157 39.4008 16.1676 39.4675 16.1676C39.5438 16.1676 39.613 16.1516 39.6742 16.1198C39.7354 16.0885 39.789 16.0455 39.8337 15.9911H39.8377V16.1417H40.1137V15.0304ZM37.7977 15.8074C37.7977 15.9178 37.8281 16.0061 37.8889 16.071C37.9498 16.1348 38.037 16.1676 38.151 16.1676C38.1946 16.1676 38.2338 16.1658 38.2683 16.161C38.3027 16.157 38.335 16.1505 38.3661 16.1417L38.357 15.9131C38.3408 15.9226 38.3214 15.931 38.2987 15.9357C38.2752 15.9412 38.2511 15.943 38.225 15.943C38.1972 15.943 38.1744 15.9383 38.1565 15.9284C38.1385 15.9178 38.1239 15.904 38.114 15.8869C38.1041 15.8697 38.0971 15.8504 38.0938 15.8285C38.0898 15.8074 38.0883 15.784 38.0883 15.76V15.2426H38.346V15.0304H38.0883V14.7161L37.7977 14.8087V15.0304H37.5825V15.2426H37.7977V15.8074Z" fill="#1C1C1A"/>
<path d="M67.9962 16.1417H68.2865V15.5981C68.2865 15.5623 68.2894 15.5226 68.2971 15.4803C68.3044 15.4384 68.3176 15.3983 68.3359 15.3607C68.3543 15.3228 68.3807 15.2918 68.414 15.2666C68.447 15.2415 68.4899 15.2295 68.5416 15.2295C68.5881 15.2295 68.6244 15.2397 68.6497 15.2601C68.6742 15.2816 68.6933 15.3075 68.7061 15.3385C68.7179 15.3695 68.7256 15.4034 68.7278 15.4413C68.7296 15.4781 68.7303 15.5139 68.7303 15.5489V16.1417H69.0206V15.4413C69.0206 15.3793 69.014 15.321 68.9993 15.2681C68.9851 15.2145 68.9627 15.1689 68.9312 15.1295C68.9004 15.0916 68.8608 15.061 68.8132 15.038C68.7655 15.0158 68.708 15.0049 68.6416 15.0049C68.5654 15.0049 68.4965 15.0183 68.4353 15.045C68.3748 15.0712 68.3213 15.1168 68.2755 15.1813H68.2707V15.0304H67.9962V16.1417ZM66.4535 15.8201C66.4535 15.7775 66.4641 15.7432 66.4858 15.7184C66.5081 15.6921 66.5345 15.6739 66.5668 15.6604C66.5983 15.6477 66.6335 15.6393 66.6708 15.6349C66.709 15.6302 66.7434 15.6283 66.7768 15.6283H66.9025C66.9025 15.6717 66.8985 15.7126 66.8904 15.7512C66.8827 15.7902 66.8666 15.8252 66.842 15.857C66.8189 15.8876 66.7907 15.9113 66.7562 15.9295C66.7225 15.947 66.6829 15.9561 66.6382 15.9561C66.5862 15.9561 66.5422 15.9448 66.507 15.9237C66.4718 15.9022 66.4535 15.8679 66.4535 15.8201ZM66.3062 15.3377C66.3553 15.2998 66.4099 15.2703 66.4693 15.2488C66.5286 15.2269 66.5891 15.2163 66.6514 15.2163C66.7379 15.2163 66.8017 15.2335 66.842 15.2681C66.8827 15.3027 66.9025 15.3647 66.9025 15.4559H66.742C66.6815 15.4559 66.6173 15.4595 66.5506 15.4675C66.4828 15.4756 66.4216 15.4934 66.3674 15.5208C66.3124 15.5478 66.2662 15.5864 66.2307 15.6367C66.1947 15.687 66.176 15.7541 66.176 15.8376C66.176 15.8909 66.1878 15.9383 66.2101 15.9791C66.2325 16.0196 66.2618 16.0546 66.2977 16.0826C66.3336 16.1107 66.3758 16.1311 66.4227 16.1465C66.4696 16.1607 66.5176 16.1676 66.5668 16.1676C66.5997 16.1676 66.6335 16.1629 66.6679 16.1545C66.7013 16.1465 66.7332 16.1341 66.7639 16.1177C66.7944 16.102 66.8222 16.0826 66.8471 16.0575C66.8724 16.0331 66.8937 16.0061 66.9113 15.9755H66.916C66.9171 15.993 66.9183 16.0177 66.919 16.0495C66.919 16.0826 66.923 16.1125 66.9289 16.1417H67.1851C67.1814 16.0983 67.1792 16.0568 67.1774 16.0167C67.1748 15.9762 67.1733 15.9353 67.1715 15.8938C67.1704 15.8518 67.1693 15.8092 67.1686 15.7654C67.1675 15.7217 67.1675 15.6717 67.1675 15.6156V15.473C67.1675 15.3089 67.1294 15.1897 67.0546 15.1157C66.9795 15.042 66.8559 15.0049 66.6862 15.0049C66.6239 15.0049 66.5572 15.0129 66.4876 15.0275C66.4176 15.0428 66.3542 15.0636 66.2977 15.0898L66.3062 15.3377ZM64.5069 16.1417H64.7972V15.6025H64.8012L65.174 16.1417H65.5431L65.0747 15.5266L65.491 15.0304H65.1487L64.8012 15.4752H64.7972V14.5236H64.5069V16.1417ZM63.3806 15.0304V15.1813H63.3762C63.3359 15.1168 63.2868 15.0712 63.23 15.045C63.1728 15.0183 63.1076 15.0049 63.0335 15.0049C62.9499 15.0049 62.8788 15.0227 62.8191 15.0574C62.7601 15.0935 62.7113 15.1379 62.6725 15.1934C62.6355 15.2473 62.6065 15.3089 62.5886 15.3779C62.5706 15.4471 62.5614 15.5146 62.5614 15.5806C62.5614 15.6553 62.5695 15.7264 62.586 15.795C62.6032 15.8617 62.6289 15.9219 62.6655 15.9733C62.7014 16.0254 62.7487 16.0659 62.8059 16.0965C62.8642 16.126 62.9342 16.1417 63.017 16.1417C63.0988 16.1417 63.1706 16.1242 63.2311 16.0885C63.2923 16.0535 63.3359 16.0123 63.3637 15.9645H63.3674C63.3674 16.0123 63.3656 16.0611 63.3604 16.1125C63.3553 16.1632 63.3421 16.2103 63.3198 16.2529C63.2985 16.2949 63.2644 16.3295 63.2197 16.3557C63.1739 16.3827 63.1112 16.3966 63.0317 16.3966C63.009 16.3966 62.9829 16.3937 62.9547 16.3871C62.9265 16.3816 62.8979 16.3743 62.8678 16.3649C62.8382 16.3557 62.8096 16.3452 62.7814 16.3335C62.7531 16.3222 62.7282 16.3102 62.7069 16.2985L62.6831 16.5446C62.752 16.5738 62.8191 16.5935 62.8847 16.6048C62.9499 16.615 63.0112 16.6201 63.0687 16.6201C63.186 16.6201 63.2816 16.6037 63.3579 16.5709C63.4341 16.5377 63.4942 16.4943 63.5393 16.44C63.5837 16.3867 63.6148 16.3244 63.6324 16.254C63.6493 16.1833 63.6588 16.1096 63.6588 16.0338V15.0304H63.3806ZM63.1123 15.9178C63.0702 15.9178 63.0335 15.9073 63.0024 15.8865C62.9712 15.8657 62.9455 15.8384 62.9254 15.8063C62.9049 15.7746 62.8902 15.7377 62.8796 15.6969C62.87 15.6571 62.8649 15.6185 62.8649 15.5806C62.8649 15.5376 62.8689 15.4956 62.8777 15.4541C62.8865 15.4121 62.9008 15.3746 62.921 15.3414C62.9408 15.3086 62.9683 15.2816 63.0016 15.2601C63.0342 15.2397 63.0753 15.2295 63.1251 15.2295C63.1669 15.2295 63.2028 15.2378 63.234 15.2564C63.2655 15.2739 63.2912 15.2987 63.3106 15.3308C63.33 15.3629 63.3443 15.3997 63.3539 15.4413C63.3637 15.4818 63.3674 15.5266 63.3674 15.574C63.3674 15.6207 63.3637 15.6641 63.3539 15.7056C63.3443 15.7479 63.3286 15.784 63.308 15.8161C63.2868 15.8475 63.2604 15.8723 63.2281 15.8901C63.1951 15.9087 63.157 15.9178 63.1123 15.9178ZM60.7655 16.1417H61.0569V15.5981C61.0569 15.5623 61.0598 15.5226 61.0671 15.4803C61.0741 15.4384 61.0873 15.3983 61.1053 15.3607C61.1251 15.3228 61.1511 15.2918 61.1841 15.2666C61.2174 15.2415 61.2596 15.2295 61.3116 15.2295C61.3585 15.2295 61.3937 15.2397 61.4194 15.2601C61.4443 15.2816 61.4637 15.3075 61.4754 15.3385C61.4879 15.3695 61.496 15.4034 61.4978 15.4413C61.4996 15.4781 61.5007 15.5139 61.5007 15.5489V16.1417H61.791V15.4413C61.791 15.3793 61.7841 15.321 61.7694 15.2681C61.7555 15.2145 61.7324 15.1689 61.7012 15.1295C61.6701 15.0916 61.6308 15.061 61.5825 15.038C61.5359 15.0158 61.4784 15.0049 61.412 15.0049C61.3351 15.0049 61.2658 15.0183 61.2057 15.045C61.1452 15.0712 61.0913 15.1168 61.0455 15.1813H61.0411V15.0304H60.7655V16.1417ZM59.2232 15.8201C59.2232 15.7775 59.2345 15.7432 59.2562 15.7184C59.2774 15.6921 59.3046 15.6739 59.3361 15.6604C59.368 15.6477 59.4031 15.6393 59.4402 15.6349C59.4783 15.6302 59.5135 15.6283 59.5472 15.6283H59.6718C59.6718 15.6717 59.6692 15.7126 59.6604 15.7512C59.6527 15.7902 59.6366 15.8252 59.6121 15.857C59.589 15.8876 59.5607 15.9113 59.5259 15.9295C59.4922 15.947 59.4526 15.9561 59.4079 15.9561C59.3566 15.9561 59.3126 15.9448 59.2763 15.9237C59.2415 15.9022 59.2232 15.8679 59.2232 15.8201ZM59.0762 15.3377C59.1253 15.2998 59.1796 15.2703 59.2389 15.2488C59.298 15.2269 59.3592 15.2163 59.4204 15.2163C59.508 15.2163 59.5717 15.2335 59.6121 15.2681C59.6524 15.3027 59.6718 15.3647 59.6718 15.4559H59.512C59.4512 15.4559 59.3874 15.4595 59.3203 15.4675C59.2532 15.4756 59.1917 15.4934 59.1374 15.5208C59.0817 15.5478 59.0366 15.5864 59.0007 15.6367C58.9641 15.687 58.9465 15.7541 58.9465 15.8376C58.9465 15.8909 58.9578 15.9383 58.9794 15.9791C59.0018 16.0196 59.0315 16.0546 59.067 16.0826C59.1041 16.1107 59.1451 16.1311 59.1928 16.1465C59.2397 16.1607 59.2873 16.1676 59.3361 16.1676C59.3694 16.1676 59.4035 16.1629 59.4372 16.1545C59.4713 16.1465 59.5036 16.1341 59.5336 16.1177C59.5637 16.102 59.5919 16.0826 59.6172 16.0575C59.6421 16.0331 59.6641 16.0061 59.681 15.9755H59.6854C59.6872 15.993 59.6883 16.0177 59.6883 16.0495C59.6894 16.0826 59.6923 16.1125 59.6986 16.1417H59.954C59.9515 16.0983 59.9489 16.0568 59.9471 16.0167C59.9445 15.9762 59.9427 15.9353 59.9416 15.8938C59.9397 15.8518 59.9386 15.8092 59.9379 15.7654C59.9379 15.7217 59.9368 15.6717 59.9368 15.6156V15.473C59.9368 15.3089 59.8998 15.1897 59.8243 15.1157C59.7499 15.042 59.6264 15.0049 59.4559 15.0049C59.3932 15.0049 59.3273 15.0129 59.2573 15.0275C59.188 15.0428 59.1246 15.0636 59.067 15.0898L59.0762 15.3377ZM57.1505 16.1417H57.4324V16.0061H57.4364C57.4786 16.0651 57.5306 16.1067 57.5929 16.1311C57.6552 16.1556 57.7172 16.1676 57.7787 16.1676C57.8645 16.1676 57.9371 16.1516 57.9968 16.1187C58.0573 16.0863 58.106 16.0436 58.1423 15.9897C58.1793 15.9357 58.2057 15.8734 58.223 15.8026C58.2394 15.7326 58.2475 15.659 58.2475 15.5831C58.2475 15.5069 58.2394 15.434 58.223 15.3636C58.2057 15.2944 58.1793 15.2331 58.1423 15.1795C58.106 15.1263 58.0573 15.0843 57.9968 15.0526C57.9371 15.0209 57.8645 15.0049 57.7787 15.0049C57.7029 15.0049 57.638 15.0198 57.5852 15.049C57.5324 15.0789 57.4859 15.1197 57.4456 15.1729H57.4408V14.5236H57.1505V16.1417ZM57.4437 15.5831C57.4437 15.5441 57.4478 15.5044 57.4573 15.4624C57.4672 15.4209 57.4819 15.3822 57.5031 15.3483C57.5236 15.3133 57.5508 15.2852 57.5841 15.263C57.6175 15.2408 57.657 15.2295 57.704 15.2295C57.7509 15.2295 57.7897 15.2408 57.8205 15.2641C57.8509 15.2863 57.8759 15.3151 57.8942 15.3501C57.9125 15.3851 57.9257 15.4227 57.933 15.4643C57.9404 15.5062 57.9444 15.5459 57.9444 15.5831C57.9444 15.6221 57.9404 15.6619 57.9327 15.7038C57.9239 15.7454 57.9118 15.784 57.8931 15.8201C57.8751 15.8559 57.8502 15.8858 57.8187 15.9087C57.7872 15.9321 57.7465 15.943 57.6988 15.943C57.6512 15.943 57.6112 15.9321 57.5775 15.9087C57.5449 15.8858 57.5178 15.857 57.4983 15.8209C57.4786 15.7862 57.4654 15.7472 57.4558 15.7045C57.4478 15.6626 57.4437 15.6221 57.4437 15.5831ZM54.6761 16.1417H54.9668V15.6025C54.9668 15.566 54.9694 15.5266 54.973 15.484C54.9782 15.4413 54.9873 15.4005 55.0027 15.3618C55.0177 15.3239 55.0394 15.2918 55.0687 15.2666C55.0976 15.2415 55.1358 15.2295 55.1834 15.2295C55.2256 15.2295 55.2574 15.2378 55.2798 15.2535C55.3025 15.2707 55.3194 15.2911 55.3297 15.3151C55.3406 15.3403 55.3472 15.3665 55.348 15.3968C55.3502 15.4256 55.3509 15.4541 55.3509 15.4796V16.1417H55.6412V15.6025C55.6412 15.566 55.643 15.5266 55.6482 15.484C55.6518 15.4413 55.6617 15.4005 55.6771 15.3618C55.6925 15.3239 55.7145 15.2918 55.7424 15.2666C55.772 15.2415 55.8105 15.2295 55.8578 15.2295C55.8996 15.2295 55.9326 15.2378 55.9538 15.2535C55.9769 15.2707 55.9938 15.2911 56.0044 15.3151C56.015 15.3403 56.0213 15.3665 56.0227 15.3968C56.0238 15.4256 56.0249 15.4541 56.0249 15.4796V16.1417H56.3156V15.4413C56.3156 15.3793 56.3101 15.321 56.2995 15.2681C56.2888 15.2145 56.2694 15.1689 56.2419 15.1295C56.2141 15.0916 56.1778 15.061 56.1338 15.038C56.0887 15.0158 56.0319 15.0049 55.9623 15.0049C55.8937 15.0049 55.827 15.0213 55.7618 15.0537C55.6958 15.0858 55.6467 15.135 55.613 15.201C55.5811 15.1321 55.5378 15.0821 55.4829 15.0519C55.4279 15.0205 55.3612 15.0049 55.2838 15.0049C55.2289 15.0049 55.1706 15.018 55.1108 15.0435C55.0511 15.0701 54.9976 15.1168 54.9518 15.1861H54.9477V15.0304H54.6761V16.1417ZM53.8288 15.8442C53.7734 15.8741 53.7151 15.9003 53.6547 15.9226C53.5942 15.9448 53.5286 15.9561 53.4578 15.9561C53.3662 15.9561 53.2922 15.9324 53.2354 15.8839C53.1778 15.8354 53.1463 15.7662 53.1386 15.6757H53.9105C53.9105 15.5791 53.9024 15.4894 53.8859 15.4074C53.8691 15.3239 53.8405 15.2535 53.8002 15.1952C53.7599 15.1361 53.7052 15.0898 53.6374 15.0555C53.5693 15.0216 53.4839 15.0049 53.3794 15.0049C53.2922 15.0049 53.217 15.0205 53.1522 15.0519C53.0869 15.0821 53.0327 15.1244 52.9905 15.1777C52.9476 15.2305 52.9154 15.2929 52.8941 15.3636C52.8725 15.4355 52.8611 15.5109 52.8611 15.5915C52.8611 15.7753 52.9125 15.9178 53.0144 16.0177C53.1162 16.1173 53.2592 16.1676 53.4446 16.1676C53.522 16.1676 53.5927 16.1599 53.6547 16.1446C53.717 16.13 53.7749 16.1078 53.8288 16.079V15.8442ZM53.1386 15.4774C53.1463 15.4026 53.1705 15.3403 53.2115 15.2911C53.2522 15.2408 53.3149 15.2163 53.3963 15.2163C53.4373 15.2163 53.4718 15.2233 53.5007 15.2378C53.5297 15.2521 53.5539 15.271 53.5722 15.2947C53.5913 15.3191 53.6048 15.3461 53.6147 15.3779C53.6242 15.4092 53.6305 15.4431 53.633 15.4774H53.1386ZM51.1917 16.1417H51.4819V15.6025H51.4871L51.8587 16.1417H52.2278L51.7594 15.5266L52.1758 15.0304H51.8334L51.4871 15.4752H51.4819V14.5236H51.1917V16.1417Z" fill="#1C1C1A"/>
<path d="M83.6652 15.8205C83.6652 15.7775 83.6762 15.7432 83.6975 15.718C83.7195 15.6921 83.7459 15.6739 83.7781 15.6604C83.8104 15.6477 83.8441 15.6389 83.8822 15.6349C83.9192 15.6302 83.9551 15.6283 83.9885 15.6283H84.1138C84.1138 15.6717 84.1102 15.7126 84.1025 15.7512C84.0941 15.7902 84.0779 15.8252 84.053 15.857C84.0303 15.8869 84.0021 15.9113 83.968 15.9291C83.9339 15.9474 83.8939 15.9565 83.8496 15.9565C83.7975 15.9565 83.7536 15.9456 83.7187 15.924C83.6832 15.9022 83.6652 15.8679 83.6652 15.8205ZM83.5183 15.3377C83.5666 15.2998 83.6212 15.2703 83.6803 15.2488C83.74 15.2269 83.8005 15.2163 83.8628 15.2163C83.9489 15.2163 84.0127 15.2338 84.053 15.2681C84.0941 15.3027 84.1138 15.3647 84.1138 15.4559H83.9533C83.8928 15.4559 83.8287 15.4595 83.7616 15.4675C83.6949 15.4756 83.6337 15.4931 83.5784 15.5208C83.5238 15.5478 83.4779 15.5864 83.442 15.6367C83.4061 15.687 83.3874 15.7541 83.3874 15.8376C83.3874 15.8909 83.3991 15.9383 83.4215 15.9791C83.4442 16.0196 83.4728 16.0546 83.5095 16.0826C83.5454 16.1107 83.5864 16.1315 83.6341 16.1454C83.6806 16.1599 83.7294 16.1676 83.7781 16.1676C83.8111 16.1676 83.8445 16.1629 83.8785 16.1548C83.9134 16.1454 83.9452 16.1341 83.9757 16.1177C84.0061 16.102 84.0332 16.0816 84.0592 16.0575C84.0838 16.0331 84.1054 16.0061 84.123 15.9762H84.1267C84.1285 15.993 84.1296 16.0177 84.1307 16.0502C84.1311 16.0826 84.1344 16.1129 84.1399 16.1417H84.3953C84.3935 16.098 84.3906 16.0575 84.3884 16.0167C84.3862 15.9762 84.3847 15.9353 84.3829 15.8938C84.3818 15.8518 84.381 15.8092 84.3799 15.7654C84.3788 15.7213 84.3788 15.6717 84.3788 15.6156V15.473C84.3788 15.3089 84.3411 15.1904 84.266 15.1157C84.1901 15.042 84.0677 15.0052 83.8969 15.0052C83.8346 15.0052 83.7693 15.0121 83.699 15.0275C83.6278 15.0428 83.5659 15.0636 83.5095 15.0898L83.5183 15.3377ZM81.5918 16.1417H81.8828V15.5981C81.8828 15.5623 81.8865 15.5226 81.8938 15.481C81.9004 15.4384 81.9136 15.3986 81.9327 15.3607C81.951 15.3228 81.9774 15.2918 82.0108 15.2666C82.0437 15.2422 82.0866 15.2291 82.1387 15.2291C82.1845 15.2291 82.2204 15.2397 82.2457 15.2601C82.2717 15.2816 82.29 15.3075 82.3021 15.3385C82.3142 15.3691 82.3212 15.4034 82.3241 15.4413C82.326 15.4781 82.3271 15.5139 82.3271 15.5489V16.1417H82.6177V15.4413C82.6177 15.3793 82.6104 15.321 82.5957 15.2681C82.5811 15.2145 82.5583 15.1689 82.5275 15.1303C82.4964 15.0916 82.4572 15.0603 82.4099 15.0388C82.3619 15.0158 82.3051 15.0052 82.2384 15.0052C82.1614 15.0052 82.0932 15.0209 82.0335 15.0526C81.9734 15.0836 81.9246 15.1274 81.8872 15.1821H81.8828V14.5236H81.5918V16.1417ZM80.0503 15.8205C80.0503 15.7775 80.0609 15.7432 80.0829 15.718C80.1045 15.6921 80.1309 15.6739 80.1631 15.6604C80.1954 15.6477 80.2295 15.6389 80.2672 15.6349C80.3046 15.6302 80.3405 15.6283 80.3735 15.6283H80.4992C80.4992 15.6717 80.4952 15.7126 80.4875 15.7512C80.4787 15.7902 80.4626 15.8252 80.4384 15.857C80.4153 15.8869 80.3864 15.9113 80.3526 15.9291C80.3189 15.9474 80.279 15.9565 80.2342 15.9565C80.1826 15.9565 80.1389 15.9456 80.1038 15.924C80.0678 15.9022 80.0503 15.8679 80.0503 15.8205ZM79.9033 15.3377C79.952 15.2998 80.0059 15.2703 80.0653 15.2488C80.1247 15.2269 80.1855 15.2163 80.2474 15.2163C80.3343 15.2163 80.3977 15.2338 80.4384 15.2681C80.4787 15.3027 80.4992 15.3647 80.4992 15.4559H80.3387C80.2782 15.4559 80.2141 15.4595 80.1466 15.4675C80.0796 15.4756 80.0187 15.4931 79.9634 15.5208C79.908 15.5478 79.8633 15.5864 79.8263 15.6367C79.7908 15.687 79.7728 15.7541 79.7728 15.8376C79.7728 15.8909 79.7834 15.9383 79.8058 15.9791C79.8281 16.0196 79.8578 16.0546 79.8945 16.0826C79.9304 16.1107 79.9714 16.1315 80.0191 16.1454C80.066 16.1599 80.1137 16.1676 80.1631 16.1676C80.1961 16.1676 80.2298 16.1629 80.2636 16.1548C80.2976 16.1454 80.3303 16.1341 80.36 16.1177C80.3904 16.102 80.4182 16.0816 80.4435 16.0575C80.4688 16.0331 80.4904 16.0061 80.508 15.9762H80.5117C80.5135 15.993 80.5146 16.0177 80.5154 16.0502C80.5161 16.0826 80.5198 16.1129 80.5253 16.1417H80.7807C80.7785 16.098 80.7756 16.0575 80.7734 16.0167C80.7708 15.9762 80.7694 15.9353 80.7679 15.8938C80.7664 15.8518 80.7657 15.8092 80.7646 15.7654C80.7642 15.7213 80.7631 15.6717 80.7631 15.6156V15.473C80.7631 15.3089 80.7261 15.1904 80.6513 15.1157C80.5751 15.042 80.4531 15.0052 80.2823 15.0052C80.2196 15.0052 80.1543 15.0121 80.0843 15.0275C80.0132 15.0428 79.9509 15.0636 79.8945 15.0898L79.9033 15.3377ZM79.0225 15.0461C78.976 15.0358 78.9294 15.0267 78.8811 15.018C78.8334 15.0092 78.7751 15.0052 78.7055 15.0052C78.6494 15.0052 78.5944 15.0121 78.5424 15.0256C78.4892 15.0391 78.4431 15.0599 78.402 15.0876C78.3617 15.1157 78.3283 15.1514 78.3053 15.1952C78.2796 15.2378 78.2671 15.2896 78.2671 15.3501C78.2671 15.418 78.2803 15.4708 78.306 15.5098C78.3305 15.5489 78.3621 15.5791 78.3987 15.6032C78.4357 15.6254 78.4753 15.6429 78.5204 15.6542C78.5644 15.6659 78.6051 15.6779 78.641 15.6914C78.6791 15.7038 78.7099 15.7199 78.7348 15.7381C78.7601 15.757 78.7729 15.784 78.7729 15.8205C78.7729 15.8475 78.7656 15.8697 78.7539 15.8869C78.7403 15.904 78.7238 15.9178 78.7044 15.9281C78.685 15.9383 78.6644 15.9456 78.6432 15.9496C78.6205 15.9536 78.5999 15.9565 78.5816 15.9565C78.531 15.9565 78.4826 15.9496 78.4357 15.9372C78.3888 15.924 78.3423 15.9058 78.2957 15.8828L78.2781 16.1202C78.3313 16.1344 78.387 16.1454 78.4423 16.1548C78.498 16.1629 78.5534 16.1676 78.608 16.1676C78.6674 16.1676 78.7245 16.161 78.7814 16.1465C78.8378 16.1333 78.8873 16.1122 78.9313 16.0834C78.9742 16.0546 79.0093 16.0177 79.0365 15.9711C79.0625 15.9251 79.0764 15.8697 79.0764 15.8048C79.0764 15.7392 79.0639 15.6852 79.0383 15.6447C79.013 15.6039 78.9818 15.57 78.9448 15.5448C78.9089 15.5208 78.8679 15.5015 78.8242 15.4876C78.7795 15.4752 78.7396 15.4624 78.7026 15.4504C78.6655 15.4384 78.6344 15.4238 78.6091 15.4074C78.5838 15.3906 78.571 15.368 78.571 15.3396C78.571 15.3162 78.5768 15.2969 78.5875 15.2816C78.5981 15.2655 78.6117 15.2521 78.6274 15.2422C78.6432 15.232 78.6615 15.2251 78.682 15.2218C78.7026 15.2185 78.722 15.2163 78.7421 15.2163C78.7957 15.2163 78.8411 15.2203 78.8792 15.228C78.9166 15.236 78.958 15.2477 79.0031 15.2641L79.0225 15.0461ZM77.4978 15.0304H77.2068V15.5744C77.2068 15.6097 77.2039 15.6495 77.1962 15.6921C77.1892 15.7348 77.176 15.7745 77.1569 15.8114C77.1379 15.8489 77.1126 15.8799 77.0792 15.9058C77.0459 15.9306 77.003 15.943 76.951 15.943C76.9052 15.943 76.8689 15.9324 76.8428 15.9116C76.8161 15.8916 76.7981 15.865 76.7871 15.8347C76.775 15.803 76.7684 15.7698 76.7655 15.7319C76.7637 15.694 76.7626 15.6586 76.7626 15.6243V15.0304H76.4719V15.7319C76.4719 15.795 76.4793 15.8537 76.4936 15.9069C76.5082 15.9598 76.5313 16.0061 76.5617 16.0447C76.5932 16.0834 76.6325 16.1136 76.6797 16.1355C76.7274 16.1567 76.7849 16.1676 76.8513 16.1676C76.9275 16.1676 76.9971 16.1519 77.0587 16.1202C77.1199 16.0885 77.1731 16.0455 77.2178 15.9904H77.2222V16.1417H77.4978V15.0304Z" fill="#1C1C1A"/>
<path d="M12.6019 8.96057L8.70654 5.08582V8.96057H12.6019Z" fill="#F6A500"/>
<path d="M7.83543 4.12402L3.94043 0.249268V4.12402H7.83543Z" fill="#F6A500"/>
<path d="M7.75486 13.8756L3.85986 10.0005V13.8756H7.75486Z" fill="#F6A500"/>
<path d="M4.84717 8.96057L8.70698 12.835L12.602 8.96057H4.84717Z" fill="#B61818"/>
<path d="M0.0805664 4.12402L3.94001 7.99877L7.83501 4.12402H0.0805664Z" fill="#B61818"/>
<path d="M0 13.8756L3.85981 17.7507L7.75481 13.8756H0Z" fill="#B61818"/>
</svg>
