<svg width="111" height="62" viewBox="0 0 111 62" fill="none" xmlns="http://www.w3.org/2000/svg">
<path d="M30.779 32.8179C30.5785 32.8179 30.4782 32.7176 30.4782 32.5171C30.4782 32.4369 30.4882 32.3266 30.5083 32.1862C30.5283 32.0257 30.5785 31.8853 30.6587 31.765C31.3205 31.6848 31.8019 31.5043 32.1027 31.2235C32.4236 30.9227 32.5841 30.3912 32.5841 29.6291V14.8279C32.5841 14.3065 32.5439 13.9254 32.4637 13.6848C32.4036 13.4441 32.2331 13.2937 31.9523 13.2335C31.6916 13.1533 31.2504 13.1132 30.6286 13.1132C30.6286 13.0129 30.6387 12.8825 30.6587 12.7221C30.6788 12.5616 30.6988 12.4313 30.7189 12.331C30.779 12.0502 30.9094 11.9098 31.11 11.9098H37.8186C39.042 11.9098 40.1852 12.0803 41.2481 12.4212C42.3111 12.7421 43.1735 13.2836 43.8353 14.0458C44.4972 14.7878 44.8281 15.7906 44.8281 17.0541C44.8281 18.5382 44.4069 19.8118 43.5646 20.8747C42.7423 21.9377 41.5891 22.7199 40.105 23.2213C41.2281 25.0664 42.1506 26.5405 42.8727 27.6435C43.6147 28.7466 44.2465 29.5789 44.7679 30.1405C45.2894 30.682 45.7707 31.043 46.2119 31.2235C46.6732 31.404 47.1947 31.4942 47.7763 31.4942C47.7763 31.8753 47.7061 32.2463 47.5657 32.6073C47.325 32.7477 47.0543 32.848 46.7534 32.9082C46.4727 32.9483 46.1718 32.9683 45.8509 32.9683C45.3495 32.9683 44.8481 32.7979 44.3467 32.4569C43.8454 32.116 43.2938 31.4642 42.6921 30.5015L38.3902 23.6424C37.608 23.7828 36.7657 23.853 35.8632 23.853C35.6225 23.853 35.3718 23.843 35.1111 23.8229C34.8704 23.8029 34.6297 23.7828 34.3891 23.7628V29.6591C34.3891 30.4012 34.4292 30.9026 34.5094 31.1633C34.6097 31.404 34.8504 31.5444 35.2314 31.5845C35.3718 31.6045 35.5623 31.6146 35.803 31.6146C36.0637 31.6146 36.2944 31.6146 36.4949 31.6146C36.4949 31.7149 36.4849 31.8452 36.4648 32.0057C36.4648 32.1661 36.4448 32.2965 36.4047 32.3968C36.3445 32.5973 36.2743 32.7176 36.1941 32.7578C36.1139 32.7979 36.0537 32.8179 36.0136 32.8179H30.779ZM34.3891 22.2586C35.1913 22.399 35.9735 22.4692 36.7356 22.4692C37.9189 22.4692 38.9718 22.2987 39.8944 21.9577C40.8169 21.5967 41.549 21.0552 42.0905 20.3332C42.632 19.5912 42.9027 18.6485 42.9027 17.5054C42.9027 15.9811 42.3311 14.868 41.188 14.1661C40.0648 13.4641 38.6309 13.1132 36.886 13.1132C36.3646 13.1132 35.8331 13.1432 35.2916 13.2034C34.6899 13.2636 34.3891 13.5644 34.3891 14.1059V22.2586Z" fill="#5B5752"/>
<path d="M78.6526 50.891L65.5662 50.8609C65.3656 50.8609 65.2654 50.7606 65.2654 50.5601C65.2654 50.4798 65.2754 50.3695 65.2954 50.2291C65.3155 50.0687 65.3656 49.9283 65.4459 49.808C66.1077 49.7277 66.589 49.5272 66.8899 49.2063C67.2108 48.8854 67.3712 48.3238 67.3712 47.5216V32.8709C67.3712 32.3494 67.3311 31.9684 67.2509 31.7277C67.1907 31.4871 67.0202 31.3366 66.7395 31.2765C66.4787 31.1962 66.0375 31.1561 65.4158 31.1561C65.4158 31.0559 65.4258 30.9255 65.4459 30.765C65.4659 30.6046 65.486 30.4742 65.506 30.374C65.5662 30.1533 65.6364 30.033 65.7166 30.013C65.8169 29.9728 65.8771 29.9528 65.8971 29.9528H71.2821C71.4826 29.9528 71.5829 30.0531 71.5829 30.2536C71.5829 30.3338 71.5629 30.4542 71.5227 30.6146C71.4826 30.755 71.4225 30.8854 71.3422 31.0057C70.4397 31.106 69.8481 31.2865 69.5673 31.5472C69.3066 31.7879 69.1762 32.2592 69.1762 32.9611V47.5216C69.1762 48.2837 69.2765 48.8152 69.4771 49.116C69.6776 49.4169 70.0085 49.5673 70.4698 49.5673L76.0654 49.5071C76.647 49.5071 77.0982 49.4169 77.4191 49.2364C77.7601 49.0358 78.0108 48.6949 78.1712 48.2135L78.7127 46.589C78.7729 46.4085 78.9033 46.3183 79.1038 46.3183C79.4047 46.3183 79.6553 46.3985 79.8559 46.5589L79.1339 50.53C79.0737 50.7706 78.9133 50.891 78.6526 50.891Z" fill="#5B5752"/>
<path d="M59.1808 33.6322C58.966 33.6322 58.6811 33.5108 58.3261 33.2679C57.9711 33.0251 57.5788 32.7121 57.1491 32.3291C56.7194 32.7402 56.2197 33.0531 55.6499 33.2679C55.0801 33.4828 54.4823 33.5902 53.8564 33.5902C53.0531 33.5902 52.3945 33.4454 51.8808 33.1558C51.367 32.8663 50.9887 32.4879 50.7459 32.0209C50.503 31.5538 50.3816 31.0634 50.3816 30.5497C50.3816 30.0826 50.475 29.6389 50.6618 29.2186C50.8579 28.7982 51.1288 28.4246 51.4745 28.0977C51.8294 27.7707 52.2498 27.5232 52.7355 27.355C52.4272 26.9347 52.2077 26.6031 52.0769 26.3602C51.9462 26.108 51.8621 25.9165 51.8247 25.7858C51.7967 25.6456 51.7827 25.5335 51.7827 25.4495C51.7827 24.9544 51.8995 24.5527 52.133 24.2445C52.3759 23.9362 52.6794 23.7074 53.0437 23.5579C53.408 23.4085 53.7864 23.3337 54.1787 23.3337C54.6644 23.3337 55.0614 23.4271 55.3697 23.614C55.6873 23.7914 55.9208 24.025 56.0702 24.3145C56.229 24.5948 56.3084 24.889 56.3084 25.1973C56.3084 25.4962 56.243 25.7717 56.1123 26.024C55.9815 26.2762 55.818 26.477 55.6219 26.6264C55.435 26.7759 55.2482 26.8506 55.0614 26.8506C55.0334 26.832 54.996 26.8039 54.9493 26.7666C54.9026 26.7292 54.8699 26.6825 54.8512 26.6264C55.1034 26.5237 55.2856 26.3742 55.3977 26.1781C55.5098 25.9819 55.5658 25.7671 55.5658 25.5335C55.5658 25.2627 55.4958 25.0011 55.3556 24.7489C55.2155 24.4874 55.01 24.2725 54.7391 24.1044C54.4776 23.9362 54.1647 23.8522 53.8004 23.8522C53.352 23.8522 53.0064 23.9736 52.7635 24.2165C52.53 24.4593 52.4132 24.7209 52.4132 25.0011C52.4132 25.2346 52.5113 25.5289 52.7075 25.8838C52.9036 26.2388 53.2166 26.6965 53.6462 27.257C54.2441 28.0229 54.8512 28.7609 55.4677 29.4708C56.0842 30.1714 56.6821 30.7832 57.2612 31.3063C57.6909 30.6431 57.9057 29.8444 57.9057 28.9103C57.9057 28.7422 57.8964 28.5367 57.8777 28.2938C57.7656 28.2845 57.6535 28.2751 57.5414 28.2658C57.0931 28.2378 56.7241 28.2892 56.4345 28.4199L56.3505 28.0836C56.3318 27.9996 56.3832 27.9389 56.5046 27.9015C56.6914 27.8548 56.9203 27.8174 57.1912 27.7894C57.462 27.7614 57.6862 27.7474 57.8637 27.7474C58.172 27.7474 58.4475 27.752 58.6904 27.7614C58.9333 27.7707 59.1481 27.7754 59.3349 27.7754C59.5871 27.7754 59.8066 27.7567 59.9935 27.7193C60.1896 27.682 60.3764 27.6073 60.5539 27.4952C60.6287 27.6353 60.6707 27.7707 60.68 27.9015C60.624 28.107 60.5166 28.2471 60.3578 28.3218C60.2083 28.3872 59.9981 28.4199 59.7272 28.4199C59.5965 28.4199 59.447 28.4153 59.2789 28.4059C59.1107 28.3872 58.9286 28.3685 58.7324 28.3499C58.7137 29.0411 58.611 29.667 58.4242 30.2274C58.2467 30.7785 58.0085 31.2689 57.7096 31.6986C58.1766 32.0909 58.6203 32.3992 59.0407 32.6234C59.461 32.8382 59.8393 32.9363 60.1756 32.9176C60.1756 33.0017 60.1709 33.0904 60.1616 33.1838C60.1523 33.2679 60.1336 33.3473 60.1056 33.422C60.0495 33.4688 59.9561 33.5108 59.8253 33.5481C59.6946 33.5762 59.5638 33.5995 59.433 33.6182C59.3116 33.6275 59.2275 33.6322 59.1808 33.6322ZM56.7428 31.9368C56.3038 31.5165 55.8554 31.0588 55.3977 30.5637C54.94 30.0593 54.5056 29.5642 54.0946 29.0785C53.6836 28.5834 53.324 28.1304 53.0157 27.7193C52.4459 27.9809 52.0069 28.3639 51.6986 28.8683C51.3997 29.3634 51.2503 29.8725 51.2503 30.3956C51.2503 30.8159 51.3483 31.2176 51.5445 31.6005C51.7407 31.9742 52.0536 32.2824 52.4833 32.5253C52.913 32.7588 53.4734 32.8756 54.1647 32.8756C54.6878 32.8756 55.1642 32.7962 55.5938 32.6374C56.0329 32.4693 56.4159 32.2357 56.7428 31.9368Z" fill="#5B5752"/>
<path d="M17.179 53.3037C11.61 41.5965 9.88416 28.1266 12.3188 15.376L12.6158 15.4338C10.1934 28.1207 11.9105 41.5228 17.452 53.1719L17.179 53.3037Z" fill="#46413B"/>
<path d="M12.8614 31.2081C12.8925 31.2091 12.9235 31.2108 12.9533 31.213C14.478 31.3263 16.1048 30.717 17.8248 29.4108C18.8355 28.6432 19.5281 27.9183 20.0036 27.1285C20.559 26.2049 20.7874 25.2043 20.6545 24.2921C18.7853 24.808 17.1685 25.6357 15.8473 26.7529C14.409 27.9689 13.3535 29.5456 12.8614 31.2081ZM13.3098 31.5312C13.1836 31.5312 13.0568 31.5267 12.93 31.5172C12.8718 31.5123 12.809 31.5117 12.7524 31.5117L12.6334 31.512C12.5787 31.512 12.4328 31.512 12.4186 31.3704C12.4082 31.2679 12.4739 31.2245 12.5486 31.2C13.0474 29.452 14.147 27.7924 15.6532 26.5189C17.0462 25.341 18.7565 24.4781 20.7373 23.9539L20.8929 23.9125L20.924 24.0721C21.1249 25.1015 20.8893 26.2431 20.2621 27.2868C19.7658 28.1109 19.0493 28.8632 18.007 29.6546C16.3668 30.8997 14.7866 31.5312 13.3098 31.5312Z" fill="#46413B"/>
<path d="M21.4954 31.2263C19.3509 31.4162 17.4688 32.8764 16.2554 34.0846C14.6512 35.6825 13.7606 37.2883 13.604 38.863C13.7198 38.8193 13.8651 38.7772 14.0388 38.7266C14.1591 38.6913 14.2869 38.6541 14.4124 38.6137C16.5456 37.924 18.1501 36.1649 19.5657 34.6127C20.5391 33.5468 21.4178 32.4841 21.4954 31.2263ZM13.5652 39.2197C13.5697 39.2155 13.5814 39.1979 13.5827 39.1714L13.2805 39.1613V39.1567C13.3488 37.4045 14.2782 35.6251 16.0432 33.8676C17.8806 32.0373 19.8177 31.0145 21.6436 30.91L21.804 30.9006L21.8034 31.0628C21.7956 32.5017 20.8034 33.7073 19.7883 34.8193C18.4186 36.3212 16.7141 38.19 14.5046 38.9045C14.3765 38.9459 14.2462 38.9838 14.1229 39.0197C13.9097 39.0817 13.6176 39.1669 13.5652 39.2197Z" fill="#46413B"/>
<path d="M21.8066 37.447C18.6525 38.385 15.9526 41.0505 14.8162 44.3347C15.5246 43.9845 16.1865 43.6344 16.8293 43.2943C18.0534 42.6461 19.3196 41.9754 20.3114 40.9735C21.3382 39.935 21.8881 38.6298 21.8066 37.447ZM14.3125 44.9189L14.4157 44.5841C15.5282 40.9868 18.4659 38.0505 21.8998 37.103L22.068 37.0567L22.0897 37.2313C22.254 38.5525 21.6691 40.0319 20.5256 41.1892C19.5011 42.2241 18.2142 42.9056 16.9697 43.5645C16.2286 43.9565 15.4622 44.3622 14.6256 44.7672L14.3125 44.9189Z" fill="#46413B"/>
<path d="M12.9478 24.4367C13.0581 24.4487 13.1714 24.4549 13.2852 24.4549C14.6232 24.4549 16.068 23.6282 17.4325 22.7816C17.8931 22.4948 18.3638 22.2017 18.7126 21.7996C19.0076 21.4582 19.2153 21.0362 19.3958 20.6309C20.0163 19.236 20.4394 17.7631 20.6539 16.25C20.6442 16.2477 20.6361 16.2454 20.6289 16.2438C17.2542 17.9214 14.4657 20.8978 12.9478 24.4367ZM13.2852 24.7598C13.0873 24.7598 12.8919 24.7431 12.7055 24.7095L12.5195 24.6765L12.5923 24.5006C14.1257 20.8003 17.0216 17.6831 20.538 15.9491L20.6044 15.9334C20.6451 15.9334 20.6784 15.9383 20.8641 15.9932L20.9896 16.0297L20.9719 16.1599C20.7596 17.7481 20.322 19.2941 19.6717 20.7559C19.4815 21.1828 19.2612 21.6289 18.9403 22.0003C18.5618 22.4373 18.0711 22.7428 17.5965 23.0382C16.1893 23.9109 14.7022 24.7598 13.2852 24.7598Z" fill="#46413B"/>
<path d="M19.8817 11.8473C17.6525 12.282 15.5798 13.5411 14.1623 15.3293C13.7362 15.8675 13.2539 16.5963 13.208 17.5463C13.6476 17.3776 14.1105 17.2839 14.5602 17.1925C14.9736 17.1087 15.4009 17.0222 15.7975 16.8786C17.0372 16.4279 17.9252 15.4386 18.4515 14.6883C18.9859 13.9249 19.455 12.9935 19.8817 11.8473ZM12.9084 18.0088L12.9029 17.7793C12.8744 16.6198 13.4347 15.7591 13.9261 15.1387C15.444 13.2236 17.6907 11.8972 20.0897 11.4993L20.344 11.4572L20.2566 11.7017C19.7966 12.9896 19.2871 14.0238 18.6987 14.8642C17.9074 15.9918 16.9398 16.7875 15.8998 17.1655C15.4821 17.3169 15.0438 17.406 14.6197 17.4918C14.0888 17.5995 13.5874 17.701 13.1161 17.9145L12.9084 18.0088Z" fill="#46413B"/>
<path d="M13.6644 2.93463C13.5499 3.2486 13.3691 3.53384 13.1931 3.81158C13.0301 4.06876 12.8618 4.33476 12.7551 4.61282C12.4711 5.35238 12.5992 6.19114 12.7234 7.00217L12.7512 7.18494C13.1443 9.79133 13.1232 12.4222 12.6897 15.0158C13.722 13.5632 14.7427 12.0501 15.3198 10.3288C16.0392 8.18264 15.859 6.00087 14.8374 4.49271C14.6763 4.25446 14.4894 4.02437 14.3085 3.80146C14.085 3.526 13.8559 3.24371 13.6644 2.93463ZM12.1382 16.3115L12.2718 15.6258C12.813 12.851 12.8738 10.0266 12.4523 7.23095L12.4245 7.04851C12.2944 6.198 12.1599 5.3181 12.473 4.50283C12.5908 4.19605 12.7674 3.91733 12.9382 3.64742C13.1763 3.27144 13.4014 2.91636 13.4655 2.50774L13.5405 2.02928L13.7508 2.46465C13.9511 2.87947 14.238 3.23326 14.5424 3.60793C14.7274 3.83606 14.9186 4.07137 15.0869 4.32072C16.1622 5.90752 16.3559 8.19015 15.6061 10.4268C14.9571 12.3631 13.7725 14.0224 12.627 15.6271L12.1382 16.3115Z" fill="#46413B"/>
<path d="M7.12771 6.40754C6.74339 7.44768 6.47424 8.45584 6.77218 9.38958C7.0465 10.2499 7.72715 10.8573 8.4479 11.5005C8.70282 11.7277 8.96613 11.963 9.20649 12.2078C9.96477 12.9809 10.5429 13.9134 10.901 14.9343C11.0533 13.586 11.0239 12.4016 10.8127 11.3305C10.4879 9.68624 9.69886 8.36902 8.59153 7.62065C8.48704 7.55048 8.37705 7.4813 8.26609 7.41178C7.8381 7.14285 7.36645 6.84683 7.12771 6.40754ZM10.9928 16.4307L10.811 15.6918C10.507 14.4568 9.87808 13.3262 8.9917 12.4222C8.75814 12.1849 8.49869 11.9532 8.24766 11.729C7.52788 11.0867 6.78382 10.4229 6.48427 9.48324C6.11904 8.33735 6.51662 7.13795 6.99377 5.90688L7.19953 5.37621L7.28396 5.93985C7.36645 6.4875 7.90474 6.82562 8.4259 7.15265C8.53977 7.22412 8.65268 7.29493 8.75976 7.36738C9.93437 8.16079 10.7687 9.54721 11.109 11.2711C11.3632 12.5583 11.3626 13.9995 11.1074 15.6781L10.9928 16.4307Z" fill="#46413B"/>
<path d="M3.77779 13.9286C4.61564 17.0506 6.54822 20.095 9.14913 22.3822C9.22904 21.0888 9.06695 19.5411 8.68523 17.985C8.55777 17.4635 8.39797 16.9207 8.09388 16.4795C7.54005 15.6743 6.62876 15.2977 5.66377 14.8989C5.01127 14.6296 4.34132 14.3525 3.77779 13.9286ZM9.39951 22.9971L9.17921 22.8097C6.28682 20.3512 4.16888 16.9723 3.3679 13.5392L3.24951 13.031L3.62055 13.395C4.20285 13.9661 5.00383 14.2967 5.77829 14.6166C6.74166 15.0144 7.7377 15.426 8.34232 16.3052C8.67422 16.7872 8.84472 17.3623 8.9793 17.9119C9.39822 19.6214 9.55738 21.3244 9.42701 22.7076L9.39951 22.9971Z" fill="#46413B"/>
<path d="M2.68623 22.3965C2.79589 24.1658 3.0013 25.8404 4.04005 27.0075C4.85785 27.9269 6.08068 28.3844 7.15889 28.7881C8.14491 29.1586 9.16199 29.5401 10.0869 29.7395C9.38812 28.0659 8.64601 26.3554 7.46686 24.9409C6.14699 23.3577 4.41079 22.435 2.68623 22.3965ZM10.5831 30.1426L10.3101 30.0943C9.28654 29.9125 8.15139 29.4862 7.05344 29.074C5.94255 28.6583 4.68285 28.187 3.81523 27.2111C2.67943 25.9353 2.48565 24.1374 2.37469 22.2516L2.36499 22.0917L2.57332 22.0897C4.42405 22.0897 6.29192 23.0574 7.69816 24.7444C8.96918 26.2689 9.76951 28.1902 10.4757 29.8847L10.5831 30.1426Z" fill="#46413B"/>
<path d="M7.82358 34.5256C8.21016 34.5256 8.59706 34.5452 8.93026 34.6425C7.38071 32.6294 5.08873 30.9721 1.95178 29.5935C1.80491 30.2254 1.69493 30.9427 1.84956 31.6255C2.07892 32.6408 2.9006 33.538 4.04707 34.0256C5.10361 34.4741 6.26077 34.5315 7.15103 34.5315C7.24452 34.5315 7.33769 34.5305 7.43085 34.5295L7.47906 34.5289C7.59261 34.5272 7.70842 34.5256 7.82358 34.5256ZM9.37152 35.2534C9.01147 34.8138 8.21145 34.8242 7.48326 34.8337L7.43539 34.8344C7.3406 34.836 7.24582 34.8366 7.15103 34.8366C6.2323 34.8366 5.03601 34.7763 3.92933 34.3066C2.69325 33.7812 1.80557 32.804 1.55421 31.6934C1.37144 30.8843 1.52575 30.0521 1.70044 29.3448L1.74313 29.1709L1.90649 29.2414C5.49116 30.7913 8.01218 32.6983 9.61316 35.0703L9.37152 35.2534Z" fill="#46413B"/>
<path d="M1.07583 37.5671C1.75129 38.9215 3.30182 39.9137 5.36346 40.3014C6.18288 40.4558 7.03367 40.5243 7.85632 40.5909C8.73332 40.6617 9.63621 40.7342 10.5174 40.9111C10.3631 40.6774 10.2143 40.4417 10.0691 40.212C9.42335 39.1914 8.81322 38.2273 7.88996 37.5984C7.1181 37.0749 6.1117 36.7985 4.98108 36.7985C4.80704 36.7985 4.63299 36.8047 4.46025 36.8171C3.30957 36.9019 2.1754 37.2339 1.07583 37.5671ZM11.2052 41.3813L10.8205 41.2896C9.84487 41.0573 8.82164 40.9747 7.83239 40.8947C7.00165 40.8278 6.14309 40.7586 5.30782 40.6013C3.06825 40.1797 1.39803 39.0615 0.725799 37.5341L0.65625 37.3758L0.820589 37.3259C1.98809 36.9714 3.1957 36.6046 4.43858 36.5129C4.61844 36.5002 4.79992 36.493 4.98108 36.493C6.1722 36.493 7.2365 36.788 8.05915 37.3455C9.03482 38.01 9.6608 38.9998 10.324 40.0478C10.5336 40.3794 10.7506 40.7224 10.9794 41.054L11.2052 41.3813Z" fill="#46413B"/>
<path d="M6.86036 43.4445C6.96841 43.6485 7.04023 43.8682 7.11043 44.0813C7.21427 44.3966 7.31164 44.6942 7.51286 44.9194C7.73477 45.1668 8.0544 45.3006 8.41898 45.4383C9.1999 45.7317 10.0452 46.0189 10.9306 46.1348C11.2205 46.1727 11.5239 46.1922 11.8319 46.1922C12.3113 46.1922 12.8053 46.1462 13.3035 46.0555C12.6503 45.1684 11.717 44.3802 10.4577 43.6515C9.92001 43.3408 9.27786 43.0108 8.59561 42.921C8.48335 42.9067 8.37077 42.8992 8.26045 42.8992C7.86029 42.8992 7.30194 42.9961 6.86036 43.4445ZM11.8319 46.4971C11.511 46.4971 11.1946 46.4772 10.8915 46.4373C9.97596 46.3176 9.11126 46.0238 8.3132 45.7242C7.92565 45.578 7.55557 45.422 7.28868 45.124C7.04444 44.8512 6.93185 44.5085 6.82348 44.1772C6.74325 43.9341 6.66788 43.7043 6.54495 43.503L6.48608 43.4067L6.56017 43.3218C7.04476 42.7683 7.81371 42.5105 8.63475 42.6188C9.36941 42.7151 10.0446 43.0611 10.6081 43.3864C11.9975 44.1909 13.0049 45.0695 13.6878 46.0738L13.8165 46.2627L13.5936 46.3091C12.9981 46.4341 12.4051 46.4971 11.8319 46.4971Z" fill="#46413B"/>
<path d="M11.7871 32.4219L11.5452 32.2381C11.8405 31.8422 12.1899 31.4898 12.5836 31.1902L12.7657 31.434C12.3943 31.7163 12.0653 32.0485 11.7871 32.4219Z" fill="#46413B"/>
<path d="M13.0559 40.3574L12.7634 40.2794C12.8906 39.7944 13.0885 39.329 13.3512 38.8959L13.6091 39.0555C13.3616 39.4632 13.1756 39.9015 13.0559 40.3574Z" fill="#46413B"/>
<path d="M14.3315 45.2715L14.0698 45.1181C14.2089 44.8772 14.3642 44.6426 14.5014 44.4357L14.7527 44.6054C14.6182 44.8084 14.4655 45.0388 14.3315 45.2715Z" fill="#46413B"/>
<path d="M13.419 43.1826C13.2809 42.9793 13.0489 42.8266 12.8629 42.7042C12.1318 42.2205 11.4014 41.7352 10.6709 41.2492L10.8372 40.9946C11.5676 41.48 12.2978 41.9656 13.0282 42.4489C13.2366 42.586 13.4967 42.757 13.6688 43.0103L13.419 43.1826Z" fill="#46413B"/>
<path d="M14.6025 46.9282C14.2172 46.7177 13.8142 46.5196 13.4043 46.3385L13.5256 46.0591C13.9429 46.2432 14.3538 46.4452 14.7468 46.6596L14.6025 46.9282Z" fill="#46413B"/>
<path d="M12.2856 38.0117C12.0928 37.7774 11.8996 37.5493 11.7062 37.3208L11.6848 37.2953C11.4975 37.0747 11.3034 36.8466 11.097 36.6423C10.8175 36.3665 10.5012 36.1198 10.1951 35.8805L9.11108 35.0339L9.29613 34.7927L10.3805 35.6393C10.693 35.8835 11.0162 36.1361 11.3089 36.4243C11.5247 36.6384 11.7227 36.8714 11.9145 37.0969L11.9359 37.1224C12.1303 37.3521 12.3244 37.5812 12.5182 37.8169L12.2856 38.0117Z" fill="#46413B"/>
<path d="M11.7266 31.7891L11.5623 31.7362L11.4474 31.7871C11.1485 31.104 10.6387 30.5221 10.146 29.9594L10.3728 29.7571C10.881 30.3377 11.4063 30.9379 11.724 31.6637L11.737 31.7522L11.7266 31.7891Z" fill="#46413B"/>
<path d="M11.5149 25.8281L11.3506 25.5719C11.8488 25.2475 12.2874 24.8144 12.7119 24.3954L12.9231 24.6134C12.488 25.0429 12.0387 25.4871 11.5149 25.8281Z" fill="#46413B"/>
<path d="M11.2758 25.7905C11.0565 25.206 10.6476 24.7331 10.2147 24.2324C9.80325 23.7569 9.37849 23.2651 9.13037 22.6685L9.40988 22.5507C9.63859 23.1016 10.029 23.5536 10.4425 24.0317C10.874 24.5311 11.3201 25.0471 11.5589 25.6825L11.2758 25.7905Z" fill="#46413B"/>
<path d="M11.8889 20.2485L11.6113 20.1275C11.7191 19.8758 11.865 19.6474 12.006 19.4261C12.1011 19.2773 12.1965 19.1284 12.2793 18.9724C12.3719 18.8001 12.4518 18.6137 12.5291 18.4333C12.6643 18.117 12.8047 17.79 13.0221 17.5054L13.2615 17.6918C13.0671 17.9463 12.9409 18.2417 12.8067 18.5543C12.7268 18.7404 12.6443 18.9333 12.5456 19.1173C12.4583 19.2818 12.3576 19.4391 12.2603 19.5916C12.1199 19.8119 11.9866 20.0201 11.8889 20.2485Z" fill="#46413B"/>
<path d="M11.6695 19.855C11.6323 19.4878 11.5323 19.1304 11.3732 18.793C11.3405 18.7244 11.3059 18.6572 11.271 18.5896C11.2143 18.4803 11.1577 18.3706 11.1105 18.2567C10.9966 17.9885 10.9361 17.7055 10.8876 17.4395C10.7479 16.6624 10.7035 15.8697 10.7553 15.0831L11.0571 15.1034C11.0067 15.8648 11.05 16.6327 11.1852 17.3847C11.2305 17.6327 11.2862 17.8961 11.3887 18.1379C11.4334 18.2447 11.4861 18.3465 11.5391 18.4483C11.5754 18.5188 11.6119 18.589 11.6462 18.6611C11.8206 19.0306 11.9296 19.4216 11.9704 19.824L11.6695 19.855Z" fill="#463C3B"/>
<path d="M20.6757 38.8891C20.556 38.8907 20.4593 38.9974 20.3551 39.049C19.5975 39.533 18.8897 40.0914 18.2139 40.6831C16.9011 41.8486 15.7022 43.1505 14.6509 44.5601C15.3842 43.5865 16.378 42.7569 17.3369 41.9752C18.1621 41.3391 18.9353 40.6129 19.7984 40.0366C19.5732 40.2468 19.3371 40.4481 19.1103 40.6524C18.8398 40.8877 18.56 41.1103 18.2773 41.3316C18.7085 41.1178 19.1394 40.8786 19.5004 40.5581C19.8453 40.1645 20.1432 39.7282 20.4505 39.3039C20.5304 39.1772 20.6243 39.0571 20.6786 38.9165C20.6815 38.9073 20.6844 38.8936 20.6757 38.8891Z" fill="#46413B"/>
<path d="M18.4121 26.4476C16.1693 27.6529 14.4334 29.5674 12.6079 31.3115C14.2354 30.0481 15.7927 28.698 17.4348 27.4532C17.6648 27.2776 17.8842 27.0808 18.1294 26.9254C18.0689 26.9894 18.0084 27.0518 17.9492 27.1177C17.7544 27.3341 17.5639 27.554 17.373 27.7747C17.6648 27.4499 17.9948 27.1598 18.2833 26.8347C18.2866 26.8399 18.2833 26.8458 18.2804 26.8504C18.3002 26.8246 18.3199 26.7985 18.3393 26.7727C18.4483 26.6461 18.5515 26.5132 18.6418 26.3696C18.7479 26.2355 18.447 26.4232 18.4121 26.4476Z" fill="#46413B"/>
<path d="M18.2245 34.2934C17.146 35.1691 16.1192 36.1074 15.1393 37.093C14.6133 37.6439 14.043 38.1824 13.615 38.8169C13.922 38.408 14.4558 37.9628 15.0093 37.4559C16.1949 36.3897 17.3336 35.2699 18.4558 34.1361C18.5089 34.0829 18.56 34.0294 18.6114 33.9762C18.4817 34.0813 18.3513 34.1867 18.2245 34.2934Z" fill="#46413B"/>
<path d="M13.6131 38.8169C13.5455 38.9069 13.4892 38.9954 13.4456 39.0825C13.4999 38.9924 13.5559 38.904 13.6131 38.8169Z" fill="#46413B"/>
<path d="M18.1616 18.9687C16.5163 20.8587 14.6491 22.549 13.0323 24.4651C12.9734 24.5248 12.9148 24.5826 12.8569 24.6423C12.8825 24.6224 12.9084 24.6009 12.9339 24.5813C12.9084 24.6136 12.8812 24.6423 12.854 24.6743C12.8873 24.6365 12.9236 24.5999 12.9582 24.563C14.466 23.3806 15.8952 22.0882 17.1517 20.6361C16.3847 21.3548 15.5999 22.0503 14.8241 22.7582C16.0961 21.4857 17.2772 20.1251 18.3858 18.706C18.5805 18.4589 18.2406 18.88 18.1616 18.9687Z" fill="#46413B"/>
<path d="M11.5889 45.3588C11.1745 45.2139 10.7828 45.0014 10.3606 44.8783C10.8238 45.1662 11.2589 45.5095 11.7746 45.7021C12.3915 45.9492 13.0903 46.065 13.713 46.2207C13.0375 45.8548 12.3055 45.6179 11.5889 45.3588Z" fill="#46413B"/>
<path d="M10.8991 41.0811C10.3605 40.5651 9.92084 40.1686 9.29454 39.8164C8.34637 39.3004 7.29241 38.963 6.22778 38.8076C6.86734 39.0348 7.49654 39.3585 8.17556 39.6621C9.11143 40.0968 9.97356 40.4982 10.7901 41.0687C10.8794 41.1252 10.9897 41.1967 11.0637 41.2456C11.0094 41.1924 10.955 41.1359 10.8991 41.0811Z" fill="#46413B"/>
<path d="M6.82384 33.0274C5.63661 32.5114 4.51473 32.232 3.46045 31.4723C4.40247 32.4553 5.68804 32.9634 6.92348 33.4556C7.35761 33.622 8.59304 34.2477 9.32965 34.7559C8.83243 34.2477 7.69631 33.3995 6.82384 33.0274Z" fill="#46413B"/>
<path d="M10.264 29.6214C10.0405 29.2686 9.76224 28.6371 9.46301 28.204C8.46631 26.8002 6.87697 25.4455 5.24072 24.5558C6.20992 25.2699 7.05684 26.1367 7.90343 26.9895C8.88233 27.9569 9.48824 28.7131 10.0492 29.6459C10.0314 29.6377 10.0113 29.6286 9.98578 29.6181C9.68202 29.4824 9.37502 29.3404 9.07255 29.2062C9.08452 29.2137 9.09519 29.2213 9.10716 29.2291C9.45977 29.4592 9.79848 29.7157 10.1763 29.9004C10.2142 29.9187 10.2565 29.923 10.296 29.9021C10.4079 29.8365 10.2896 29.6622 10.264 29.6214Z" fill="#46413B"/>
<path d="M9.26899 22.4183C8.79441 20.8198 7.79611 17.889 6.33423 17.0254C6.98705 17.5698 7.28368 18.4383 7.64956 19.2085C8.1348 20.3012 8.71224 21.3491 9.20719 22.4386C9.25701 22.5482 9.33109 22.7068 9.37218 22.7832C9.34048 22.6624 9.30845 22.5391 9.26899 22.4183Z" fill="#46413B"/>
<path d="M7.25586 19.5999C7.61429 20.0532 7.85919 20.5826 8.16004 21.0722C8.46089 21.5607 8.90085 22.1616 9.19458 22.5522C8.69963 21.4857 8.14192 20.3891 7.25586 19.5999Z" fill="#46413B"/>
<path d="M16.5998 14.6532C15.1803 15.4907 13.6816 16.4215 12.9165 17.9531C13.2746 17.4453 13.7466 17.0213 14.2186 16.617C14.9445 15.9868 15.5278 15.5628 16.21 15.0181C16.3779 14.882 16.55 14.7328 16.703 14.5905C16.6697 14.6108 16.6348 14.632 16.5998 14.6532Z" fill="#46413B"/>
<path d="M14.1563 8.10945C14.0412 9.12218 13.7584 10.1245 13.5287 11.1235C13.2266 12.4205 12.984 13.7312 12.741 15.0399C12.7274 15.1195 12.7045 15.2122 12.688 15.2778C12.7362 15.1789 12.7773 15.0768 12.8164 14.9743C13.6345 12.7883 14.2708 10.4645 14.1563 8.10945Z" fill="#46413B"/>
<path d="M10.724 13.8712C10.506 12.9163 10.0709 12.0282 9.65004 11.1497C9.5035 10.7939 9.30098 10.4917 9.29936 10.0877C9.23854 10.3471 9.31004 10.6141 9.366 10.8686C9.61412 11.9659 10.2249 12.9163 10.6875 13.9248C10.7059 13.9626 10.7512 14.088 10.7677 14.1245C10.7541 14.039 10.7405 13.9548 10.724 13.8712Z" fill="#46413B"/>
<path d="M93.821 55.7085C99.39 44.0013 101.116 30.5314 98.6812 17.7808L98.3842 17.8386C100.807 30.5255 99.0895 43.9275 93.548 55.5766L93.821 55.7085Z" fill="#46413B"/>
<path d="M98.1386 33.6129C98.1075 33.6139 98.0765 33.6155 98.0467 33.6178C96.522 33.7311 94.8952 33.1217 93.1752 31.8156C92.1645 31.048 91.4719 30.3231 90.9964 29.5333C90.441 28.6097 90.2126 27.609 90.3455 26.6968C92.2147 27.2128 93.8315 28.0405 95.1527 29.1577C96.591 30.3737 97.6465 31.9504 98.1386 33.6129ZM97.6902 33.936C97.8164 33.936 97.9432 33.9315 98.07 33.922C98.1282 33.9171 98.191 33.9165 98.2476 33.9165L98.3666 33.9168C98.4213 33.9168 98.5672 33.9168 98.5814 33.7751C98.5918 33.6727 98.5261 33.6293 98.4514 33.6048C97.9526 31.8567 96.853 30.1972 95.3468 28.9237C93.9538 27.7458 92.2435 26.8829 90.2627 26.3587L90.1071 26.3173L90.076 26.4769C89.8751 27.5062 90.1107 28.6479 90.7379 29.6916C91.2342 30.5157 91.9507 31.268 92.993 32.0594C94.6332 33.3045 96.2134 33.936 97.6902 33.936Z" fill="#46413B"/>
<path d="M89.5046 33.6321C91.6491 33.822 93.5312 35.2822 94.7446 36.4904C96.3488 38.0883 97.2394 39.694 97.396 41.2688C97.2802 41.225 97.1349 41.1829 96.9612 41.1323C96.8409 41.0971 96.7131 41.0599 96.5876 41.0194C94.4544 40.3298 92.8499 38.5707 91.4343 37.0185C90.4609 35.9525 89.5822 34.8899 89.5046 33.6321ZM97.4348 41.6255C97.4303 41.6212 97.4186 41.6036 97.4173 41.5772L97.7195 41.5671V41.5625C97.6512 39.8102 96.7218 38.0309 94.9568 36.2734C93.1194 34.4431 91.1823 33.4202 89.3564 33.3158L89.196 33.3063L89.1966 33.4685C89.2044 34.9075 90.1966 36.1131 91.2117 37.225C92.5814 38.727 94.2859 40.5958 96.4954 41.3102C96.6235 41.3517 96.7538 41.3895 96.8771 41.4254C97.0903 41.4874 97.3824 41.5726 97.4348 41.6255Z" fill="#46413B"/>
<path d="M89.1934 39.8518C92.3475 40.7898 95.0474 43.4553 96.1838 46.7395C95.4754 46.3893 94.8135 46.0391 94.1707 45.6991C92.9466 45.0509 91.6804 44.3802 90.6886 43.3782C89.6618 42.3397 89.1119 41.0346 89.1934 39.8518ZM96.6875 47.3237L96.5843 46.9889C95.4718 43.3916 92.5341 40.4553 89.1002 39.5078L88.932 39.4615L88.9103 39.6361C88.746 40.9572 89.3309 42.4367 90.4744 43.594C91.4989 44.6289 92.7858 45.3104 94.0303 45.9693C94.7714 46.3613 95.5378 46.7669 96.3744 47.172L96.6875 47.3237Z" fill="#46413B"/>
<path d="M98.0522 26.8424C97.9419 26.8545 97.8286 26.8607 97.7148 26.8607C96.3768 26.8607 94.932 26.034 93.5675 25.1874C93.1069 24.9005 92.6362 24.6074 92.2874 24.2054C91.9924 23.864 91.7847 23.442 91.6042 23.0366C90.9837 21.6417 90.5606 20.1688 90.3461 18.6558C90.3558 18.6535 90.3639 18.6512 90.3711 18.6496C93.7458 20.3271 96.5343 23.3036 98.0522 26.8424ZM97.7148 27.1655C97.9127 27.1655 98.1081 27.1489 98.2945 27.1153L98.4805 27.0823L98.4077 26.9064C96.8743 23.206 93.9784 20.0889 90.462 18.3549L90.3956 18.3392C90.3549 18.3392 90.3216 18.3441 90.1359 18.3989L90.0104 18.4355L90.0281 18.5657C90.2404 20.1538 90.678 21.6998 91.3283 23.1616C91.5185 23.5885 91.7388 24.0347 92.0597 24.4061C92.4382 24.8431 92.9289 25.1486 93.4035 25.4439C94.8107 26.3166 96.2978 27.1655 97.7148 27.1655Z" fill="#46413B"/>
<path d="M91.1183 14.2525C93.3475 14.6873 95.4202 15.9464 96.8377 17.7346C97.2638 18.2728 97.7461 19.0015 97.792 19.9516C97.3524 19.7829 96.8895 19.6892 96.4398 19.5978C96.0264 19.5139 95.5991 19.4275 95.2025 19.2838C93.9628 18.8331 93.0748 17.8439 92.5485 17.0936C92.0141 16.3302 91.545 15.3987 91.1183 14.2525ZM98.0916 20.4141L98.0971 20.1846C98.1256 19.025 97.5653 18.1644 97.0739 17.544C95.556 15.6288 93.3093 14.3025 90.9103 13.9046L90.656 13.8625L90.7434 14.107C91.2034 15.3948 91.7129 16.4291 92.3013 17.2695C93.0926 18.3971 94.0602 19.1928 95.1002 19.5707C95.5179 19.7222 95.9562 19.8113 96.3803 19.8971C96.9112 20.0048 97.4126 20.1063 97.8839 20.3197L98.0916 20.4141Z" fill="#46413B"/>
<path d="M97.3356 5.33942C97.4501 5.65339 97.6309 5.93862 97.8069 6.21636C97.9699 6.47354 98.1382 6.73954 98.2449 7.01761C98.5289 7.75716 98.4008 8.59593 98.2766 9.40696L98.2488 9.58973C97.8557 12.1961 97.8768 14.827 98.3103 17.4206C97.278 15.968 96.2573 14.4549 95.6802 12.7336C94.9608 10.5874 95.141 8.40565 96.1626 6.8975C96.3237 6.65925 96.5106 6.42915 96.6915 6.20624C96.915 5.93079 97.1441 5.64849 97.3356 5.33942ZM98.8618 18.7163L98.7282 18.0306C98.187 15.2558 98.1262 12.4314 98.5477 9.63573L98.5755 9.4533C98.7056 8.60278 98.8401 7.72289 98.527 6.90762C98.4092 6.60083 98.2326 6.32211 98.0618 6.05221C97.8237 5.67623 97.5986 5.32114 97.5345 4.91253L97.4595 4.43406L97.2492 4.86943C97.0489 5.28425 96.762 5.63804 96.4576 6.01272C96.2726 6.24085 96.0814 6.47616 95.9131 6.7255C94.8378 8.31231 94.6441 10.5949 95.3939 12.8315C96.0429 14.7679 97.2275 16.4272 98.373 18.0319L98.8618 18.7163Z" fill="#46413B"/>
<path d="M103.872 8.81281C104.257 9.85295 104.526 10.8611 104.228 11.7949C103.953 12.6552 103.273 13.2625 102.552 13.9058C102.297 14.133 102.034 14.3683 101.794 14.613C101.035 15.3862 100.457 16.3186 100.099 17.3395C99.9467 15.9913 99.9761 14.8069 100.187 13.7358C100.512 12.0915 101.301 10.7743 102.408 10.0259C102.513 9.95576 102.623 9.88657 102.734 9.81705C103.162 9.54813 103.634 9.25211 103.872 8.81281ZM100.007 18.8359L100.189 18.097C100.493 16.8621 101.122 15.7315 102.008 14.8275C102.242 14.5902 102.501 14.3585 102.752 14.1343C103.472 13.492 104.216 12.8281 104.516 11.8885C104.881 10.7426 104.483 9.54322 104.006 8.31215L103.8 7.78148L103.716 8.34513C103.634 8.89277 103.095 9.2309 102.574 9.55792C102.46 9.62939 102.347 9.7002 102.24 9.77266C101.066 10.5661 100.231 11.9525 99.891 13.6764C99.6368 14.9636 99.6374 16.4048 99.8926 18.0833L100.007 18.8359Z" fill="#46413B"/>
<path d="M107.222 16.3338C106.384 19.4559 104.452 22.5003 101.851 24.7875C101.771 23.4941 101.933 21.9464 102.315 20.3903C102.442 19.8687 102.602 19.326 102.906 18.8847C103.46 18.0796 104.371 17.703 105.336 17.3041C105.989 17.0349 106.659 16.7578 107.222 16.3338ZM101.6 25.4023L101.821 25.215C104.713 22.7565 106.831 19.3776 107.632 15.9445L107.75 15.4363L107.379 15.8002C106.797 16.3714 105.996 16.702 105.222 17.0218C104.258 17.4197 103.262 17.8312 102.658 18.7105C102.326 19.1925 102.155 19.7676 102.021 20.3172C101.602 22.0267 101.443 23.7297 101.573 25.1129L101.6 25.4023Z" fill="#46413B"/>
<path d="M108.314 24.8018C108.204 26.571 107.999 28.2456 106.96 29.4127C106.142 30.3321 104.919 30.7897 103.841 31.1934C102.855 31.5638 101.838 31.9454 100.913 32.1448C101.612 30.4712 102.354 28.7607 103.533 27.3462C104.853 25.763 106.589 24.8403 108.314 24.8018ZM100.417 32.5479L100.69 32.4995C101.713 32.3178 102.849 31.8915 103.947 31.4793C105.057 31.0635 106.317 30.5922 107.185 29.6164C108.321 28.3406 108.514 26.5427 108.625 24.6569L108.635 24.497L108.427 24.495C106.576 24.495 104.708 25.4627 103.302 27.1497C102.031 28.6742 101.23 30.5955 100.524 32.29L100.417 32.5479Z" fill="#46413B"/>
<path d="M103.176 36.9304C102.79 36.9304 102.403 36.95 102.07 37.0472C103.619 35.0342 105.911 33.3769 109.048 31.9983C109.195 32.6302 109.305 33.3475 109.15 34.0303C108.921 35.0456 108.099 35.9428 106.953 36.4304C105.896 36.8788 104.739 36.9363 103.849 36.9363C103.755 36.9363 103.662 36.9353 103.569 36.9343L103.521 36.9337C103.407 36.932 103.292 36.9304 103.176 36.9304ZM101.628 37.6582C101.989 37.2186 102.789 37.229 103.517 37.2385L103.565 37.2392C103.659 37.2408 103.754 37.2414 103.849 37.2414C104.768 37.2414 105.964 37.1811 107.071 36.7114C108.307 36.186 109.194 35.2088 109.446 34.0982C109.629 33.2891 109.474 32.4569 109.3 31.7496L109.257 31.5757L109.094 31.6462C105.509 33.1961 102.988 35.1031 101.387 37.4751L101.628 37.6582Z" fill="#46413B"/>
<path d="M109.924 39.9719C109.249 41.3263 107.698 42.3185 105.637 42.7062C104.817 42.8606 103.966 42.9291 103.144 42.9957C102.267 43.0665 101.364 43.1389 100.483 43.3158C100.637 43.0822 100.786 42.8465 100.931 42.6168C101.577 41.5962 102.187 40.6321 103.11 40.0032C103.882 39.4797 104.888 39.2033 106.019 39.2033C106.193 39.2033 106.367 39.2095 106.54 39.2219C107.69 39.3067 108.825 39.6386 109.924 39.9719ZM99.7948 43.7861L100.179 43.6944C101.155 43.462 102.178 43.3795 103.168 43.2995C103.998 43.2326 104.857 43.1634 105.692 43.0061C107.932 42.5844 109.602 41.4663 110.274 39.9389L110.344 39.7806L110.179 39.7307C109.012 39.3762 107.804 39.0094 106.561 38.9177C106.382 38.905 106.2 38.8978 106.019 38.8978C104.828 38.8978 103.764 39.1928 102.941 39.7503C101.965 40.4147 101.339 41.4046 100.676 42.4526C100.466 42.7842 100.249 43.1272 100.021 43.4588L99.7948 43.7861Z" fill="#46413B"/>
<path d="M104.14 45.8503C104.032 46.0543 103.96 46.2739 103.89 46.487C103.786 46.8023 103.688 47.1 103.487 47.3252C103.265 47.5725 102.946 47.7064 102.581 47.8441C101.8 48.1375 100.955 48.4247 100.069 48.5406C99.7795 48.5784 99.4761 48.598 99.1681 48.598C98.6887 48.598 98.1947 48.552 97.6965 48.4613C98.3497 47.5742 99.283 46.786 100.542 46.0572C101.08 45.7465 101.722 45.4166 102.404 45.3268C102.517 45.3124 102.629 45.3049 102.74 45.3049C103.14 45.3049 103.698 45.4019 104.14 45.8503ZM99.1681 48.9028C99.489 48.9028 99.8054 48.8829 100.109 48.8431C101.024 48.7233 101.889 48.4296 102.687 48.13C103.074 47.9838 103.444 47.8278 103.711 47.5298C103.956 47.2569 104.068 46.9143 104.177 46.583C104.257 46.3399 104.332 46.1101 104.455 45.9087L104.514 45.8124L104.44 45.7276C103.955 45.1741 103.186 44.9162 102.365 45.0246C101.631 45.1209 100.955 45.4668 100.392 45.7922C99.0025 46.5967 97.9951 47.4753 97.3122 48.4795L97.1835 48.6685L97.4064 48.7148C98.0019 48.8398 98.5949 48.9028 99.1681 48.9028Z" fill="#46413B"/>
<path d="M99.2129 34.8276L99.4548 34.6439C99.1595 34.248 98.8101 33.8955 98.4164 33.5959L98.2343 33.8397C98.6057 34.122 98.9347 34.4543 99.2129 34.8276Z" fill="#46413B"/>
<path d="M97.9441 42.7627L98.2366 42.6847C98.1094 42.1997 97.9115 41.7343 97.6488 41.3012L97.3909 41.4608C97.6384 41.8684 97.8244 42.3068 97.9441 42.7627Z" fill="#46413B"/>
<path d="M96.6685 47.6763L96.9302 47.5229C96.7911 47.282 96.6358 47.0474 96.4986 46.8404L96.2473 47.0102C96.3818 47.2132 96.5345 47.4436 96.6685 47.6763Z" fill="#46413B"/>
<path d="M97.581 45.5879C97.7191 45.3846 97.9511 45.2318 98.1371 45.1094C98.8682 44.6258 99.5986 44.1404 100.329 43.6545L100.163 43.3999C99.4324 43.8852 98.7022 44.3709 97.9718 44.8542C97.7634 44.9913 97.5033 45.1623 97.3312 45.4156L97.581 45.5879Z" fill="#46413B"/>
<path d="M96.398 49.3345C96.7832 49.124 97.1863 48.9259 97.5962 48.7447L97.4749 48.4654C97.0576 48.6494 96.6467 48.8514 96.2537 49.0659L96.398 49.3345Z" fill="#46413B"/>
<path d="M98.7139 40.417C98.9067 40.1827 99.0999 39.9545 99.2933 39.7261L99.3147 39.7006C99.502 39.48 99.6961 39.2519 99.9025 39.0475C100.182 38.7718 100.498 38.525 100.804 38.2858L101.888 37.4392L101.703 37.198L100.619 38.0446C100.307 38.2887 99.9834 38.5414 99.6906 38.8295C99.4748 39.0436 99.2768 39.2767 99.085 39.5022L99.0636 39.5276C98.8692 39.7574 98.6751 39.9865 98.4813 40.2222L98.7139 40.417Z" fill="#46413B"/>
<path d="M99.2734 34.1943L99.4377 34.1415L99.5526 34.1924C99.8515 33.5093 100.361 32.9274 100.854 32.3647L100.627 32.1624C100.119 32.743 99.5937 33.3432 99.276 34.069L99.263 34.1575L99.2734 34.1943Z" fill="#46413B"/>
<path d="M99.4851 28.2334L99.6494 27.9772C99.1512 27.6528 98.7126 27.2197 98.2881 26.8006L98.0769 27.0187C98.512 27.4482 98.9613 27.8923 99.4851 28.2334Z" fill="#46413B"/>
<path d="M99.7242 28.1958C99.9435 27.6113 100.352 27.1384 100.785 26.6377C101.197 26.1622 101.622 25.6703 101.87 25.0737L101.59 24.9559C101.361 25.5068 100.971 25.9589 100.558 26.437C100.126 26.9363 99.6799 27.4523 99.4411 28.0878L99.7242 28.1958Z" fill="#46413B"/>
<path d="M99.1111 22.6543L99.3887 22.5332C99.2809 22.2816 99.135 22.0531 98.994 21.8318C98.8989 21.683 98.8035 21.5342 98.7207 21.3782C98.6281 21.2059 98.5482 21.0195 98.4709 20.839C98.3357 20.5228 98.1953 20.1958 97.9779 19.9112L97.7385 20.0975C97.9329 20.3521 98.0591 20.6474 98.1933 20.9601C98.2732 21.1461 98.3557 21.339 98.4544 21.5231C98.5417 21.6876 98.6424 21.8449 98.7397 21.9973C98.8801 22.2176 99.0134 22.4258 99.1111 22.6543Z" fill="#46413B"/>
<path d="M99.3305 22.2603C99.3677 21.8931 99.4677 21.5357 99.6268 21.1982C99.6595 21.1297 99.6941 21.0625 99.729 20.9949C99.7857 20.8856 99.8423 20.7759 99.8895 20.662C100.003 20.3937 100.064 20.1108 100.112 19.8448C100.252 19.0677 100.296 18.275 100.245 17.4884L99.9429 17.5086C99.9933 18.2701 99.95 19.038 99.8148 19.79C99.7695 20.038 99.7138 20.3014 99.6113 20.5432C99.5666 20.6499 99.5139 20.7518 99.4609 20.8536C99.4246 20.9241 99.3881 20.9943 99.3538 21.0664C99.1794 21.4358 99.0704 21.8268 99.0296 22.2292L99.3305 22.2603Z" fill="#463C3B"/>
<path d="M90.3243 41.2943C90.444 41.296 90.5407 41.4027 90.6449 41.4543C91.4025 41.9383 92.1103 42.4967 92.7861 43.0884C94.0989 44.2539 95.2978 45.5557 96.3491 46.9653C95.6158 45.9918 94.622 45.1621 93.6631 44.3805C92.8379 43.7444 92.0647 43.0182 91.2016 42.4418C91.4268 42.652 91.6629 42.8534 91.8897 43.0577C92.1602 43.293 92.44 43.5156 92.7227 43.7369C92.2915 43.5231 91.8606 43.2839 91.4996 42.9634C91.1547 42.5698 90.8568 42.1334 90.5495 41.7092C90.4696 41.5825 90.3757 41.4624 90.3214 41.3217C90.3185 41.3126 90.3156 41.2989 90.3243 41.2943Z" fill="#46413B"/>
<path d="M92.5879 28.8524C94.8307 30.0577 96.5666 31.9722 98.3921 33.7163C96.7646 32.4529 95.2073 31.1027 93.5652 29.858C93.3352 29.6824 93.1158 29.4856 92.8706 29.3302C92.9311 29.3942 92.9916 29.4565 93.0508 29.5225C93.2456 29.7388 93.4361 29.9588 93.627 30.1794C93.3352 29.8547 93.0052 29.5646 92.7167 29.2395C92.7134 29.2447 92.7167 29.2506 92.7196 29.2552C92.6998 29.2294 92.6801 29.2033 92.6607 29.1775C92.5517 29.0509 92.4485 28.918 92.3582 28.7744C92.2521 28.6403 92.553 28.8279 92.5879 28.8524Z" fill="#46413B"/>
<path d="M92.7755 36.6992C93.854 37.5748 94.8808 38.5131 95.8607 39.4988C96.3867 40.0497 96.957 40.5882 97.385 41.2227C97.078 40.8137 96.5442 40.3685 95.9907 39.8617C94.8051 38.7954 93.6664 37.6757 92.5442 36.5419C92.4911 36.4887 92.44 36.4352 92.3886 36.382C92.5183 36.487 92.6487 36.5925 92.7755 36.6992Z" fill="#46413B"/>
<path d="M97.3866 41.2221C97.4542 41.3122 97.5105 41.4007 97.5542 41.4878C97.4999 41.3977 97.4439 41.3093 97.3866 41.2221Z" fill="#46413B"/>
<path d="M92.8384 21.3745C94.4837 23.2645 96.3509 24.9548 97.9677 26.8709C98.0266 26.9306 98.0852 26.9884 98.1431 27.0481C98.1175 27.0282 98.0916 27.0066 98.0661 26.9871C98.0916 27.0194 98.1188 27.0481 98.146 27.0801C98.1127 27.0422 98.0764 27.0057 98.0418 26.9688C96.534 25.7863 95.1048 24.4939 93.8483 23.0419C94.6153 23.7606 95.4001 24.4561 96.1759 25.164C94.9039 23.8914 93.7228 22.5308 92.6142 21.1118C92.4195 20.8647 92.7594 21.2857 92.8384 21.3745Z" fill="#46413B"/>
<path d="M99.4111 47.764C99.8255 47.6191 100.217 47.4067 100.639 47.2836C100.176 47.5715 99.7411 47.9148 99.2254 48.1074C98.6085 48.3544 97.9097 48.4703 97.287 48.626C97.9625 48.2601 98.6945 48.0232 99.4111 47.764Z" fill="#46413B"/>
<path d="M100.101 43.4869C100.64 42.9709 101.079 42.5743 101.705 42.2222C102.654 41.7062 103.708 41.3687 104.772 41.2134C104.133 41.4405 103.503 41.7643 102.824 42.0678C101.889 42.5025 101.026 42.904 100.21 43.4745C100.121 43.5309 100.01 43.6024 99.9363 43.6514C99.9906 43.5982 100.045 43.5417 100.101 43.4869Z" fill="#46413B"/>
<path d="M104.176 35.4327C105.363 34.9167 106.485 34.6373 107.54 33.8775C106.598 34.8606 105.312 35.3687 104.077 35.8609C103.642 36.0273 102.407 36.653 101.67 37.1611C102.168 36.653 103.304 35.8047 104.176 35.4327Z" fill="#46413B"/>
<path d="M100.736 32.0262C100.96 31.6734 101.238 31.0418 101.537 30.6087C102.534 29.205 104.124 27.8503 105.76 26.9606C104.791 27.6747 103.944 28.5415 103.097 29.3943C102.118 30.3617 101.512 31.1179 100.951 32.0506C100.969 32.0425 100.989 32.0334 101.015 32.0229C101.318 31.8871 101.625 31.7452 101.928 31.611C101.916 31.6185 101.905 31.626 101.893 31.6339C101.541 31.864 101.202 32.1205 100.824 32.3052C100.786 32.3235 100.744 32.3277 100.704 32.3068C100.593 32.2412 100.711 32.067 100.736 32.0262Z" fill="#46413B"/>
<path d="M101.731 24.8236C102.206 23.225 103.204 20.2942 104.666 19.4307C104.013 19.9751 103.716 20.8435 103.35 21.6138C102.865 22.7064 102.288 23.7544 101.793 24.8438C101.743 24.9535 101.669 25.1121 101.628 25.1885C101.66 25.0677 101.692 24.9444 101.731 24.8236Z" fill="#46413B"/>
<path d="M103.744 22.0057C103.386 22.459 103.141 22.9884 102.84 23.4779C102.539 23.9665 102.099 24.5673 101.805 24.958C102.3 23.8914 102.858 22.7948 103.744 22.0057Z" fill="#46413B"/>
<path d="M94.4002 17.059C95.8197 17.8964 97.3184 18.8272 98.0835 20.3589C97.7254 19.8511 97.2534 19.4271 96.7814 19.0227C96.0555 18.3925 95.4722 17.9686 94.79 17.4239C94.6221 17.2878 94.45 17.1386 94.297 16.9963C94.3303 17.0165 94.3652 17.0378 94.4002 17.059Z" fill="#46413B"/>
<path d="M96.8437 10.5152C96.9588 11.5279 97.2416 12.5302 97.4713 13.5292C97.7734 14.8262 98.016 16.1369 98.259 17.4457C98.2726 17.5253 98.2955 17.618 98.312 17.6836C98.2638 17.5847 98.2227 17.4825 98.1836 17.3801C97.3655 15.194 96.7292 12.8703 96.8437 10.5152Z" fill="#46413B"/>
<path d="M100.276 16.2765C100.494 15.3216 100.929 14.4335 101.35 13.5549C101.497 13.1992 101.699 12.897 101.701 12.4929C101.761 12.7524 101.69 13.0193 101.634 13.2739C101.386 14.3712 100.775 15.3216 100.313 16.33C100.294 16.3679 100.249 16.4932 100.232 16.5298C100.246 16.4443 100.259 16.3601 100.276 16.2765Z" fill="#46413B"/>
</svg>
