<svg width="368" height="432" viewBox="0 0 368 432" fill="none" xmlns="http://www.w3.org/2000/svg">
<path d="M264.805 330.536C267.444 329.701 270.492 329.369 273.393 329.603C276.245 329.834 279.03 330.489 281.726 331.114C284.524 331.771 287.17 332.39 289.892 332.583C294.748 332.92 299.723 331.844 304.378 330.629C305.638 330.3 306.912 329.935 308.189 329.531C320.005 325.79 326.983 320.135 328.922 312.721C329.574 310.24 329.633 307.65 329.691 304.907C329.758 301.851 329.826 298.693 330.786 295.652C331.525 293.336 332.731 291.213 333.902 289.162C335.585 286.205 337.176 283.411 337.249 280.331C337.301 278.175 336.592 276.067 335.842 273.829C335.163 271.805 334.46 269.715 334.304 267.477C334.105 264.637 334.804 261.921 335.48 259.296C335.637 258.69 335.794 258.088 335.935 257.484C339.122 244.101 336.367 230.092 333.099 217.226C331.015 224.992 326.584 232.084 320.439 237.3C318.05 239.328 315.35 241.163 312.74 242.938C306.206 247.379 300.034 251.575 298.371 258.49C298.019 259.95 297.858 261.531 297.689 263.207C297.266 267.391 296.829 271.72 293.217 274.275C291.662 275.374 289.382 275.923 287.267 276.306C286.481 276.446 285.692 276.587 284.931 276.786C279.897 278.128 275.484 282.368 271.383 289.818C264.311 302.69 260.624 317.691 260.866 332.419C261.932 331.66 263.255 331.027 264.805 330.536ZM309.049 332.245C307.725 332.664 306.404 333.041 305.094 333.385C300.209 334.661 294.957 335.79 289.692 335.422C286.742 335.215 283.865 334.542 281.077 333.888C278.366 333.255 275.803 332.654 273.161 332.443C270.656 332.239 267.93 332.537 265.666 333.254C263.201 334.034 261.496 335.216 260.87 336.58L258.492 341.769L258.156 336.069C257.192 319.713 261.002 302.801 268.892 288.447C273.378 280.278 278.273 275.559 284.206 274.032C285.041 273.813 285.905 273.658 286.763 273.501C288.661 273.162 290.43 272.755 291.572 271.953C294.126 270.145 294.481 266.634 294.857 262.918C295.026 261.223 295.207 259.473 295.602 257.824C297.524 249.84 304.444 245.133 311.14 240.585C313.689 238.852 316.325 237.059 318.596 235.13C325.852 228.971 330.531 219.99 331.429 210.497L332.184 202.551L334.225 210.27C338.141 225.081 342.579 241.866 338.708 258.14C338.557 258.762 338.399 259.384 338.238 260.007C337.591 262.524 336.977 264.903 337.143 267.282C337.275 269.153 337.891 270.986 338.539 272.924C339.337 275.294 340.16 277.742 340.094 280.398C340.006 284.195 338.159 287.434 336.376 290.57C335.229 292.585 334.146 294.483 333.498 296.512C332.665 299.158 332.604 301.982 332.541 304.97C332.477 307.756 332.415 310.637 331.677 313.442C329.472 321.864 321.858 328.19 309.049 332.245Z" fill="#E4C26D"/>
<path d="M234.269 350.31C235.982 349.768 237.538 349.69 239.033 350.073C241.389 350.675 243.134 352.372 244.539 353.735C250.067 359.108 255.426 364.454 260.507 369.678C260.41 368.926 260.242 367.839 259.915 366.01C258.577 360.521 258.1 354.757 257.639 349.176C257.189 343.728 256.721 338.092 255.429 332.761C252.949 322.526 245.69 311.815 235.061 310.95C233.852 310.854 232.607 310.877 231.367 310.906C228.327 310.968 225.185 311.03 222.369 309.442C220.277 308.271 218.809 306.417 217.384 304.623C215.847 302.682 214.393 300.845 212.351 300.195C209.497 299.272 205.634 301.325 202.003 303.589C199.888 304.907 197.704 306.273 195.524 306.963C192.928 307.784 190.686 307.552 188.659 306.255C188.043 305.862 187.495 305.374 186.952 304.879C186.469 304.434 186.009 304.018 185.526 303.733C183.852 302.755 181.137 303.241 179.065 304.798C177.648 305.869 176.49 307.258 175.259 308.727C174.649 309.463 174.033 310.201 173.382 310.899C168.38 316.306 160.857 319.694 153.372 319.962C155.241 320.983 156.971 321.758 158.577 322.482C162.738 324.346 166.332 325.962 168.799 330.605C170.009 332.885 170.68 335.356 171.327 337.745C171.983 340.16 172.602 342.446 173.729 344.494C177.187 350.784 186.24 353.754 192.888 350.397C193.605 350.03 194.328 349.6 195.061 349.17C196.53 348.302 198.05 347.402 199.653 346.895C201.386 346.346 202.95 346.343 204.429 346.888C206.954 347.823 208.257 350.001 209.513 352.11C210.21 353.276 210.866 354.378 211.694 355.218C213.931 357.48 217.307 357.913 221.743 356.508C223.993 355.796 226.473 354.602 228.914 353.06C230.589 351.996 232.382 350.908 234.269 350.31ZM265.205 378.655L261.637 374.942C255.649 368.709 249.229 362.264 242.553 355.775C241.079 354.345 239.83 353.216 238.325 352.83C236.097 352.261 233.221 353.699 230.438 355.461C227.794 357.139 225.082 358.441 222.603 359.226C217.145 360.954 212.673 360.258 209.67 357.219C208.6 356.13 207.822 354.831 207.068 353.571C205.972 351.733 205.022 350.143 203.444 349.56C201.571 348.869 198.997 350.15 196.508 351.621C195.726 352.08 194.949 352.54 194.179 352.933C193.431 353.314 192.642 353.637 191.826 353.896C184.098 356.342 175.053 352.814 171.234 345.865C169.945 343.52 169.251 340.964 168.58 338.49C167.947 336.148 167.347 333.939 166.283 331.941C164.277 328.158 161.546 326.934 157.412 325.077C154.569 323.805 151.028 322.215 147.031 319.315L142.011 315.678L148.114 316.765C156.322 318.223 165.635 315.083 171.295 308.966C171.911 308.299 172.491 307.601 173.076 306.905C174.351 305.373 175.671 303.793 177.355 302.522C180.339 300.274 184.295 299.715 186.965 301.278C187.707 301.714 188.299 302.252 188.873 302.776C189.294 303.157 189.709 303.549 190.192 303.853C191.499 304.694 192.879 304.813 194.663 304.245C196.501 303.664 198.441 302.455 200.498 301.175C202.709 299.795 204.991 298.366 207.363 297.615C209.488 296.943 211.407 296.9 213.22 297.483C216.084 298.397 217.882 300.664 219.616 302.852C220.925 304.505 222.159 306.063 223.766 306.962C225.902 308.171 228.529 308.115 231.31 308.059C232.646 308.032 233.983 308.008 235.29 308.112C247.342 309.091 255.476 320.861 258.2 332.088C259.541 337.637 260.016 343.386 260.478 348.941C260.926 354.412 261.394 360.067 262.699 365.423C263.246 368.463 263.369 369.564 263.453 370.377C263.545 371.182 263.597 371.667 264.05 373.635L265.205 378.655Z" fill="#E4C26D"/>
<path d="M290.267 86.6796L272.388 112.453C268.875 117.5 264.894 123.219 259.055 126.649C257.488 127.57 255.811 128.308 254.19 129.02C251.245 130.319 248.461 131.546 246.486 133.733C243.573 136.952 243.001 141.521 242.394 146.364C241.755 151.447 241.091 156.707 237.542 160.591C236.474 161.756 235.216 162.697 234.007 163.61C232.172 164.996 230.438 166.299 229.636 168.144C228.626 170.472 229.314 173.394 229.923 175.389C231.277 179.848 233.44 184.267 235.536 188.539C239.439 196.518 243.479 204.771 242.56 213.804C242.308 216.215 243.118 220.549 243.974 225.14C244.133 225.987 244.294 226.849 244.451 227.716C248.134 223.379 252.747 219.88 257.946 217.506C258.862 217.089 259.812 216.689 260.766 216.294C264.821 214.605 268.649 213.013 270.469 209.632C271.152 208.359 271.495 206.889 271.857 205.338C272.139 204.111 272.432 202.846 272.918 201.616C274.601 197.317 278.129 194.386 281.54 191.55C284.432 189.152 287.158 186.887 288.814 183.884C291.993 178.118 290.468 171.443 288.859 164.382C287.744 159.487 286.591 154.422 286.996 149.439C287.297 145.807 288.417 142.354 289.502 139.012C290.263 136.682 291.044 134.275 291.513 131.882C292.442 127.109 292.171 122.046 291.908 117.147L290.267 86.6796ZM242.751 234.767L242.192 231.357C241.877 229.435 241.521 227.513 241.175 225.662C240.244 220.654 239.434 216.33 239.728 213.512C240.568 205.29 236.878 197.76 232.978 189.789C230.834 185.418 228.619 180.894 227.199 176.217C226.46 173.793 225.635 170.199 227.024 167.009C228.126 164.475 230.244 162.882 232.291 161.336C233.455 160.463 234.551 159.637 235.444 158.664C238.38 155.457 238.959 150.869 239.566 146.007C240.203 140.944 240.863 135.705 244.374 131.821C246.753 129.186 249.951 127.778 253.044 126.418C254.659 125.706 256.186 125.031 257.61 124.194C262.914 121.08 266.702 115.633 270.046 110.828L292.665 78.232L294.747 116.944C295.02 122.064 295.302 127.306 294.306 132.432C293.806 134.989 292.995 137.481 292.212 139.892C291.13 143.224 290.107 146.371 289.832 149.668C289.464 154.215 290.567 159.063 291.635 163.749C293.295 171.02 295.008 178.54 291.308 185.256C289.39 188.732 286.325 191.277 283.361 193.742C280.081 196.467 276.982 199.039 275.566 202.656C275.159 203.692 274.902 204.808 274.626 205.984C274.24 207.649 273.84 209.373 272.979 210.981C270.674 215.253 266.192 217.119 261.861 218.924C260.934 219.307 260.014 219.688 259.126 220.094C253.389 222.715 248.417 226.815 244.759 231.95L242.751 234.767Z" fill="#E4C26D"/>
<path d="M132.226 281.821C135.452 281.237 138.836 281.475 141.659 281.674C149.606 282.237 158.761 282.482 166.463 280.044C171.018 278.602 174.597 276.405 177.411 273.32C178.376 272.261 179.285 271.046 180.169 269.872C182.259 267.09 184.417 264.212 187.736 262.65C190.089 261.545 192.79 261.268 195.339 261.026C198.527 260.726 201.5 260.267 203.31 258.701C205.05 257.195 205.863 254.861 206.724 252.385C206.966 251.685 207.212 250.988 207.475 250.307C208.135 248.587 210.081 244.442 213.82 243.258C214.479 243.05 215.162 242.948 215.852 242.957C216.566 242.964 217.269 243.096 217.971 243.234C218.671 243.377 219.329 243.507 219.905 243.44C221.133 243.304 222.144 242.421 223.388 240.68C231.087 229.918 232.204 212.358 225.596 205.874C217.649 198.072 205.037 195.134 194.223 198.557C193.076 198.92 191.952 199.356 190.877 199.853C188.238 201.071 185.627 202.722 183.101 204.317C179.518 206.582 175.812 208.921 171.835 210.18C169.617 210.882 167.51 211.198 165.391 211.144L164.402 211.099C163.129 211.032 161.922 210.983 161.117 211.455C160.314 211.927 159.753 212.951 159.248 213.967C155.149 222.381 153.174 231.851 151.27 241.011C150.521 244.608 149.77 248.209 148.898 251.769C146.039 263.393 140.839 271.012 132.226 281.821ZM167.323 282.761C159.165 285.344 149.67 285.095 141.462 284.512C137.458 284.233 132.168 284.02 128.697 286.061L121.953 290.014L126.87 283.934C137.134 271.253 143.087 263.472 146.13 251.089C146.996 247.567 147.74 243.997 148.483 240.43C150.422 231.099 152.432 221.456 156.693 212.706C157.368 211.358 158.203 209.858 159.689 208.994C161.15 208.149 163.02 208.176 164.553 208.256L165.467 208.296C167.264 208.344 169.063 208.074 170.977 207.469C174.603 206.321 177.991 204.178 181.581 201.908C184.182 200.266 186.873 198.565 189.684 197.266C190.866 196.72 192.104 196.241 193.364 195.843C205.156 192.109 218.912 195.322 227.594 203.839C235.2 211.307 234.265 230.372 225.701 242.337C224.786 243.613 223.331 245.393 221.267 246.047C220.93 246.153 220.584 246.231 220.225 246.268C219.212 246.387 218.257 246.194 217.412 246.028C216.884 245.923 216.359 245.808 215.819 245.8C213.616 245.782 211.426 247.954 210.131 251.332C209.879 251.987 209.648 252.65 209.414 253.322C208.467 256.043 207.491 258.853 205.171 260.856C202.803 262.892 199.086 263.529 195.61 263.86C193.185 264.091 190.924 264.295 188.948 265.228C186.268 266.488 184.414 268.963 182.448 271.582C181.527 272.809 180.575 274.081 179.516 275.237C176.395 278.656 172.296 281.187 167.323 282.761Z" fill="#E4C26D"/>
<path d="M187.808 143.119C188.401 143.015 189.001 142.863 189.611 142.67C193.879 141.319 197.719 138.024 201.78 134.537C206.666 130.336 211.778 125.971 217.92 124.981L219.2 124.787C221.932 124.395 224.628 123.791 225.808 122.293C226.633 121.246 226.929 119.788 227.237 118.241C227.539 116.733 227.851 115.175 228.682 113.746C229.536 112.274 230.783 111.228 231.986 110.215C232.36 109.895 232.742 109.576 233.098 109.249C238.427 104.378 239.924 95.5865 236.507 89.2226C236.079 88.4351 235.591 87.6727 235.1 86.9083C234.04 85.254 232.942 83.5413 232.4 81.5058C231.42 77.8649 232.495 74.3111 233.532 70.8752C233.847 69.8331 234.16 68.7947 234.411 67.7603C236.026 61.1482 234.953 54.0138 231.472 48.1844C229.889 45.5168 227.783 43.0694 225.74 40.7039C223.163 37.7091 220.498 34.6177 218.716 30.9367C216.775 26.9326 217.047 22.3843 217.312 17.9851C217.409 16.3541 217.505 14.7616 217.486 13.2473C215.577 17.4068 212.276 20.9462 209.048 24.4087C205.73 27.9632 202.299 31.6364 200.503 35.8911C198.838 39.8231 198.57 44.1404 198.288 48.7108C197.989 53.5169 197.686 58.4905 195.602 63.0085C193.3 68.0048 189.204 71.665 185.24 75.204C182.316 77.8158 179.293 80.5138 177.113 83.6792C173.209 89.3648 172.012 96.7228 173.911 103.356C175.278 108.14 178.063 112.266 181.009 116.63C182.315 118.564 183.667 120.564 184.87 122.61L185.661 123.938C188.877 129.314 190.303 131.699 187.808 143.119ZM190.471 145.387C188.988 145.857 187.487 146.111 186.015 146.143L184.176 146.186L184.595 144.392C187.42 132.42 186.358 130.648 183.213 125.396L182.414 124.052C181.256 122.08 179.933 120.12 178.652 118.222C175.707 113.865 172.667 109.356 171.175 104.139C169.046 96.6972 170.388 88.4466 174.77 82.0671C177.141 78.6205 180.294 75.805 183.344 73.0795C187.261 69.5812 190.964 66.2753 193.018 61.8175C194.874 57.7833 195.151 53.2909 195.448 48.5368C195.733 43.927 196.026 39.1641 197.88 34.7794C199.876 30.0655 203.48 26.2033 206.963 22.4654C211.579 17.5225 215.934 12.8541 216.251 6.71343L216.541 1.07019L218.957 6.17942C220.655 9.76859 220.399 14.034 220.152 18.159C219.91 22.1868 219.659 26.3581 221.28 29.6908C222.899 33.04 225.328 35.8611 227.898 38.8423C230.019 41.3043 232.207 43.8472 233.917 46.7268C237.777 53.1898 238.966 61.1023 237.178 68.4303C236.914 69.5136 236.586 70.6045 236.255 71.6994C235.292 74.8918 234.381 77.908 235.147 80.7703C235.579 82.3775 236.51 83.8333 237.495 85.3738C238.025 86.1995 238.551 87.0232 239.013 87.8767C243.086 95.4573 241.367 105.546 235.021 111.349C234.636 111.705 234.226 112.045 233.818 112.391C232.753 113.284 231.75 114.132 231.145 115.177C230.548 116.199 230.297 117.463 230.027 118.801C229.664 120.609 229.29 122.475 228.041 124.058C227.067 125.29 225.704 126.171 223.881 126.749C222.493 127.188 221.024 127.401 219.607 127.607L218.373 127.793C212.948 128.667 208.23 132.744 203.635 136.694C199.534 140.215 195.296 143.86 190.471 145.387Z" fill="#E4C26D"/>
<path d="M75.4609 219.321C81.8909 218.908 84.3586 218.883 86.9391 218.862C88.4657 218.851 90.0136 218.837 92.4768 218.738C93.9743 218.676 95.4808 218.41 96.9614 217.941C102.286 216.255 106.803 212.232 111.584 207.971C117.073 203.084 122.812 198.006 129.989 196.53C131.727 196.168 133.486 196.036 135.19 195.908C137.636 195.725 139.942 195.551 142.082 194.755C147.923 192.571 150.724 186.628 153.691 180.341C155.344 176.835 157.055 173.211 159.366 170.147C160.341 168.858 161.438 167.652 162.497 166.486C164.747 164.01 166.876 161.675 167.755 158.759C168.402 156.637 168.334 154.263 168.269 151.968C168.07 145.046 167.869 137.9 168.578 131.897C161.769 126.572 151.595 127.589 142.551 128.98C137.988 129.68 133.555 130.416 129.386 131.736C124.793 133.19 121.211 135.164 118.436 137.77C116.459 139.626 114.721 141.974 113.037 144.245C109.825 148.577 106.507 153.058 101.217 154.733L100.859 154.84C100.326 154.996 99.7775 155.118 99.2277 155.238C98.1822 155.467 97.0917 155.735 96.389 156.159C95.213 156.864 94.3947 158.173 93.7487 159.362C89.5623 167.043 88.6536 176.16 87.7707 184.974C87.5408 187.305 87.3071 189.634 87.0189 191.932C85.4485 204.487 81.5687 213.672 75.4609 219.321ZM97.8208 220.656C96.0992 221.201 94.3416 221.511 92.5916 221.583C90.087 221.682 88.5132 221.695 86.9662 221.712C83.8695 221.737 80.9452 221.762 70.8901 222.489L64.9799 222.92L70.0519 219.851C77.6665 215.249 82.4257 205.735 84.1928 191.581C84.4768 189.3 84.7093 186.997 84.9398 184.688C85.8462 175.595 86.7872 166.188 91.2481 158.001C92.0753 156.477 93.1596 154.776 94.9285 153.715C95.9247 153.118 97.2718 152.753 98.6159 152.458C99.1087 152.35 99.5958 152.244 100.073 152.105C100.076 152.105 100.078 152.104 100.081 152.103C104.773 150.618 107.675 146.699 110.751 142.551C112.508 140.18 114.322 137.728 116.486 135.695C119.578 132.79 123.516 130.607 128.526 129.021C132.887 127.641 137.444 126.882 142.117 126.166C152.053 124.637 163.299 123.568 171.017 130.218L171.602 130.723L171.499 131.49C170.7 137.419 170.91 144.773 171.11 151.883C171.188 154.408 171.264 157.022 170.479 159.586C169.412 163.115 166.97 165.804 164.605 168.403C163.586 169.524 162.533 170.678 161.637 171.862C159.504 174.69 157.858 178.179 156.267 181.557C153.186 188.081 150.005 194.831 143.08 197.422C140.562 198.37 137.939 198.558 135.402 198.748C133.714 198.873 132.12 198.995 130.564 199.315C124.051 200.668 118.694 205.449 113.478 210.1C108.683 214.368 103.726 218.786 97.8208 220.656Z" fill="#E4C26D"/>
<path d="M132.95 106.6C134.999 106.846 137.081 106.695 138.771 106.16C141.038 105.442 142.383 104.16 142.771 102.351C142.916 101.666 142.903 100.91 142.89 100.113C142.876 99.312 142.867 98.5164 142.977 97.7341C143.557 93.7143 146.68 91.2981 149.703 88.9613C151.263 87.7551 152.874 86.5072 154.032 85.0898C157.895 80.3435 157.14 73.2967 156.128 67.0627C155.646 64.0785 155.041 60.3605 153.341 57.4012C152.665 56.2227 151.818 55.1428 150.923 54.0014C150.203 53.0795 149.483 52.1545 148.841 51.1759C148.841 51.1759 148.841 51.176 148.84 51.1731L150.033 50.3927L149.826 49.2252C149.217 49.4182 148.972 49.9462 148.949 50.1673C149.006 49.6096 148.572 46.7956 147.336 42.9736C145.457 50.2954 142.022 57.1611 137.258 63.061C136.607 63.8678 135.931 64.6598 135.253 65.4527C133.702 67.2658 132.235 68.9763 131.06 70.9068C127.39 76.9687 127.359 84.0439 127.979 88.9101C128.746 94.9439 130.859 100.864 132.95 106.6ZM139.63 108.874C137.296 109.613 134.389 109.764 131.661 109.289L130.849 109.147L130.57 108.376C128.302 102.169 125.995 95.8596 125.155 89.2709C124.474 83.954 124.527 76.1981 128.628 69.4282C129.925 67.2992 131.534 65.4195 133.092 63.6007C133.749 62.8306 134.411 62.0588 135.044 61.2738C140.539 54.4653 144.167 46.2897 145.538 37.6369L146.313 32.7378L148.253 37.3044C150.217 41.9213 151.945 47.9957 151.766 50.4065C152.215 51.0307 152.689 51.6379 153.165 52.2441C154.081 53.4137 155.031 54.627 155.812 55.9834C157.772 59.3906 158.419 63.3925 158.942 66.6065C160.133 73.9527 160.627 81.4944 156.24 86.8886C154.875 88.56 153.13 89.9108 151.444 91.2143C148.752 93.2932 146.209 95.2607 145.797 98.1351C145.707 98.7703 145.723 99.4138 145.735 100.058C145.755 100.988 145.771 101.948 145.554 102.946C144.955 105.748 142.85 107.855 139.63 108.874Z" fill="#E4C26D"/>
<path d="M63.309 19.7403C64.912 25.4295 68.7409 30.2192 72.7721 35.2547C76.0669 39.3766 79.4732 43.6388 81.6491 48.5142C83.1809 51.9709 84.0623 55.6525 84.9126 59.2163C85.6131 62.1759 86.3449 65.2342 87.4414 68.0621C90.8698 76.9042 98.2381 84.0964 107.14 87.2959C107.731 87.5081 108.32 87.702 108.912 87.8978C110.731 88.4974 112.614 89.1183 114.32 90.2103C116.79 91.7666 118.627 94.1972 119.56 96.9331C119.699 94.5795 119.483 91.7158 119.325 89.613L118.451 78.2565C118.173 74.633 117.857 70.5169 116.127 67.1516C115.612 66.1489 114.97 65.2021 114.294 64.196C113.234 62.6245 112.135 60.9986 111.493 59.0906C110.652 56.5873 110.722 54.0034 110.796 51.5015C110.866 49.0582 110.931 46.7537 110.159 44.6858C108.617 40.5327 104.014 38.4442 101.409 37.5698C99.5289 36.9384 97.524 36.4871 95.5813 36.0512C93.3737 35.5555 91.0894 35.0393 88.8806 34.2469C84.2131 32.5591 80.093 29.695 76.1103 26.9216C71.8846 23.9759 67.8581 21.1749 63.309 19.7403ZM117.027 104.784L117.339 102.178C117.785 98.5203 115.916 94.5858 112.796 92.6094C111.38 91.7096 109.75 91.1715 108.021 90.6012C107.404 90.3973 106.784 90.1943 106.177 89.9742C96.5076 86.5001 88.5109 78.6954 84.783 69.089C83.6209 66.0838 82.8676 62.927 82.1414 59.8765C81.2839 56.2798 80.4743 52.8851 79.0456 49.6737C77.0227 45.13 73.7307 41.0169 70.5473 37.0354C65.9832 31.3254 61.2591 25.4233 60.0087 18.0127L59.6642 15.9657L61.6996 16.3817C67.7452 17.6301 72.8249 21.1646 77.7378 24.5858C81.5689 27.2538 85.5306 30.0116 89.8476 31.5708C91.8869 32.3018 93.988 32.7737 96.207 33.2754C98.2178 33.7248 100.299 34.1937 102.315 34.8715C107.647 36.6618 111.38 39.7954 112.829 43.6967C113.79 46.2798 113.715 48.9772 113.642 51.5842C113.576 53.9369 113.513 56.1607 114.192 58.182C114.712 59.726 115.653 61.1242 116.653 62.6061C117.345 63.6327 118.065 64.6953 118.659 65.8455C120.651 69.7281 120.993 74.146 121.291 78.0443L122.166 89.397C122.602 95.213 123.099 101.808 119.38 103.631L117.027 104.784Z" fill="#E4C26D"/>
<path d="M21.8372 145.916C35.1425 148.373 49.1816 145.762 61.7342 143.43C65.8322 142.663 69.3077 141.665 71.3406 139.772C73.0588 138.178 74.1158 135.927 75.2334 133.545C76.6905 130.439 78.1973 127.227 81.3275 125.371C82.9379 124.414 85.149 123.912 87.183 123.536C88.2945 123.334 89.3405 123.138 90.3334 122.823C90.8327 122.665 91.3229 122.478 91.7938 122.23C94.7644 120.676 96.3937 117.257 97.5971 114.116L98.1031 112.758C99.2871 109.557 100.51 106.247 103.012 103.707C104.693 102.013 107.39 101.523 109.566 101.364C109.613 101.362 109.663 101.359 109.714 101.356C100.812 94.809 89.2995 91.7297 78.3339 93.061C75.72 93.3806 73.1014 93.9478 70.5495 94.7556C61.4509 97.636 53.4344 103.4 47.9782 110.985C45.2845 114.725 43.143 118.958 41.069 123.052C39.5419 126.078 37.9565 129.202 36.1483 132.157C33.2339 136.926 28.4825 142.934 21.8372 145.916ZM67.5554 144.999C65.8512 145.538 64.0747 145.89 62.256 146.229C47.7941 148.916 31.4053 151.964 16.0065 147.455L10.0014 145.699L16.1775 144.686C24.4478 143.336 30.3859 136.122 33.717 130.672C35.4698 127.814 37.0235 124.741 38.5295 121.77C40.6512 117.575 42.8436 113.24 45.669 109.321C51.4804 101.243 60.0118 95.1081 69.6911 92.0439C72.4114 91.1828 75.2021 90.574 77.9857 90.2358C90.7315 88.6859 104.168 92.7372 113.924 101.065L115.557 102.461L113.638 103.42C112.511 103.987 111.1 104.111 109.769 104.204C107.961 104.335 106.14 104.596 105.041 105.707C102.969 107.807 101.852 110.827 100.773 113.746L100.256 115.13C98.9425 118.558 96.9471 122.748 93.1115 124.758C92.4912 125.079 91.8526 125.332 91.1936 125.541C91.1936 125.541 91.1937 125.541 91.1908 125.541C90.0324 125.908 88.8425 126.125 87.6923 126.336C85.8158 126.684 84.0281 127.081 82.7822 127.817C80.4022 129.228 79.1441 131.914 77.8135 134.753C76.6291 137.277 75.402 139.889 73.2813 141.857C71.82 143.214 69.9476 144.241 67.5554 144.999Z" fill="#E4C26D"/>
<path d="M260.921 333.985L258.559 332.398C269.693 315.857 281.128 303.427 294.543 293.284C296.54 291.774 298.604 290.353 300.671 288.932C303.798 286.783 307.036 284.56 309.917 282.058C329.687 264.898 331.657 235.99 331.168 212.722L334.015 212.664C334.518 236.55 332.443 266.27 311.782 284.205C308.782 286.815 305.476 289.085 302.281 291.282C300.252 292.674 298.222 294.071 296.261 295.554C283.101 305.502 271.875 317.715 260.921 333.985Z" fill="#E4C26D"/>
<path d="M244.581 229.511L241.898 228.562C245.024 219.731 246.632 214.709 246.119 205.845C246.001 203.736 245.671 201.575 245.354 199.484C244.924 196.682 244.484 193.787 244.51 190.853C244.597 179.425 251.37 169.925 257.921 160.732C260.622 156.944 263.414 153.029 265.668 149.061C276.222 130.509 283.298 111.12 290.082 82.1318L292.85 82.7823C285.998 112.051 278.842 131.663 268.142 150.469C265.816 154.565 262.98 158.542 260.239 162.384C253.656 171.626 247.439 180.35 247.354 190.879C247.332 193.585 247.736 196.242 248.169 199.053C248.495 201.212 248.837 203.442 248.962 205.686C249.506 215.07 247.744 220.582 244.581 229.511Z" fill="#E4C26D"/>
<path d="M261.371 374.556C260.608 372.913 259.915 371.401 259.272 369.995C255.875 362.564 253.82 358.079 249.35 352.364C247.12 349.506 244.121 347.411 240.949 345.199C239.211 343.986 237.411 342.732 235.746 341.336C233.069 339.085 230.605 336.396 228.226 333.796C222.872 327.952 217.821 322.438 210.69 321.738C207.114 321.391 203.602 322.372 199.88 323.409C198.448 323.809 197.019 324.21 195.582 324.534C179.153 328.252 156.451 322.273 147.453 319.529L148.28 316.804C157.062 319.483 179.185 325.326 194.955 321.755C196.347 321.442 197.732 321.055 199.114 320.668C202.923 319.603 206.862 318.503 210.965 318.904C219.183 319.71 224.849 325.892 230.326 331.872C232.641 334.404 235.043 337.026 237.575 339.153C239.144 340.465 240.89 341.685 242.579 342.862C245.786 345.102 249.102 347.415 251.594 350.613C256.271 356.59 258.375 361.188 261.861 368.808C262.503 370.211 263.19 371.716 263.955 373.355L261.371 374.556Z" fill="#E4C26D"/>
<path d="M130.528 284.722L129.176 282.217C142.621 274.946 156.141 266.386 163.956 253.074C165.025 251.257 166.017 249.304 167.021 247.341C170.785 239.969 174.671 232.337 182.745 230.398C185.202 229.802 187.684 229.895 190.089 229.977C190.959 230.008 191.832 230.042 192.697 230.039C205.683 230.007 220.875 219.132 226.569 205.808L229.187 206.925C222.986 221.441 206.965 232.846 192.705 232.883C191.803 232.887 190.892 232.856 189.988 232.823C187.675 232.741 185.491 232.662 183.413 233.163C176.576 234.833 173.03 241.833 169.558 248.633C168.529 250.649 167.505 252.653 166.409 254.517C158.224 268.467 143.676 277.614 130.528 284.722Z" fill="#E4C26D"/>
<path d="M187.128 145.564L184.835 143.878C188.507 138.88 189.942 135.027 191.334 131.302C192.751 127.497 194.09 123.905 197.657 120.009C198.4 119.199 199.165 118.404 199.933 117.612C202.511 114.949 204.941 112.436 206.379 109.31C208.874 103.863 207.869 97.4069 206.892 91.1648L206.638 89.5141C202.694 63.5647 205.642 36.9378 215.152 12.504L217.804 13.5362C208.473 37.5075 205.583 63.6307 209.454 89.0859L209.708 90.7271C210.746 97.3842 211.82 104.269 208.968 110.497C207.326 114.067 204.605 116.873 201.98 119.589C201.229 120.364 200.481 121.14 199.756 121.928C196.561 125.415 195.376 128.605 193.999 132.295C192.608 136.023 191.034 140.245 187.128 145.564Z" fill="#E4C26D"/>
<path d="M132.755 109.03L131.057 106.744C135.979 103.09 136.395 96.4872 136.407 88.8655C136.409 87.6318 136.39 86.3891 136.365 85.1415C136.255 79.0916 136.143 72.8346 138.793 67.2138C139.626 65.4457 140.697 63.8228 141.737 62.2543C142.59 60.9555 143.401 59.7312 144.09 58.427C146.567 53.6916 147.172 48.0157 145.751 42.8599L148.491 42.1011C150.109 47.9485 149.421 54.3821 146.607 59.751C145.854 61.1842 144.969 62.5248 144.111 63.8216C143.083 65.3768 142.113 66.8434 141.367 68.4308C139.001 73.4501 139.108 79.3671 139.211 85.0903C139.235 86.3571 139.258 87.621 139.255 88.871C139.24 95.7145 139.223 104.229 132.755 109.03Z" fill="#E4C26D"/>
<path d="M120.181 100.639L117.409 99.9867C119.5 91.1253 117.017 87.2671 112.687 81.9623C111.968 81.0846 111.194 80.2437 110.421 79.4056C108.938 77.7988 107.409 76.1365 106.228 74.1722C104.154 70.7083 103.313 66.5985 102.502 62.6231C101.364 57.071 100.29 51.8214 96.002 49.2148C94.7795 48.471 93.3783 48.0202 91.8977 47.5403C90.9901 47.2463 90.0777 46.9473 89.1942 46.5882C82.9493 44.0039 78.7903 38.5044 74.7711 33.184C70.5933 27.6552 66.6476 22.4361 60.6515 20.4662L61.5362 17.7618C68.3815 20.0027 72.782 25.8315 77.0449 31.4676C81.0064 36.7167 84.7538 41.6728 90.28 43.9543C91.0917 44.2883 91.9313 44.5592 92.7718 44.8329C94.3474 45.3403 95.9729 45.8638 97.4806 46.7823C102.828 50.0339 104.079 56.1443 105.289 62.0538C106.055 65.7945 106.847 69.6609 108.671 72.7058C109.698 74.4184 111.066 75.9049 112.516 77.4775C113.327 78.3546 114.139 79.2346 114.893 80.162C119.488 85.7886 122.559 90.5562 120.181 100.639Z" fill="#E4C26D"/>
<path d="M75.4897 219.583C75.2255 219.667 74.9596 219.745 74.6897 219.821L73.9213 217.081C81.7871 214.907 85.8402 209.094 90.467 202.42C92.9167 198.888 95.449 195.234 98.7538 191.901C101.556 189.068 104.779 186.678 107.895 184.362C111.678 181.552 115.246 178.899 118.182 175.5C120.724 172.562 122.643 169.23 124.673 165.703C125.971 163.446 127.311 161.121 128.823 158.924C133.275 152.445 139.056 147.207 144.65 142.146C151.902 135.573 161.444 128.522 170.927 132.326L169.869 134.967C161.853 131.753 153.204 138.241 146.561 144.257C141.092 149.211 135.431 154.331 131.166 160.536C129.723 162.638 128.411 164.919 127.141 167.122C125.131 170.611 123.06 174.218 120.34 177.363C117.198 180.996 113.332 183.868 109.589 186.647C106.562 188.899 103.43 191.225 100.778 193.905C97.647 197.061 95.1865 200.61 92.8076 204.043C88.2154 210.665 83.8741 216.929 75.4897 219.583Z" fill="#E4C26D"/>
<path d="M29.7223 145.074C26.5404 146.082 23.2502 146.737 19.9245 146.997L19.7 144.159C31.4828 143.239 42.7627 137.059 49.8784 127.632C50.7403 126.49 51.552 125.291 52.3685 124.097C54.4441 121.038 56.5914 117.882 59.6227 115.501C63.9932 112.074 69.4408 110.847 74.7259 109.663C79.9617 108.485 84.9133 107.377 88.7894 104.285C89.5313 103.692 90.2192 103.04 90.9061 102.394C92.1499 101.218 93.4358 100.003 95.0269 99.1063C100.578 95.9882 106.378 97.6912 112.34 99.8763L111.365 102.549C105.845 100.527 100.921 99.0675 96.4223 101.587C95.1372 102.31 94.0312 103.357 92.8635 104.461C92.1161 105.167 91.3648 105.871 90.5644 106.511C86.1746 110.009 80.6729 111.246 75.3501 112.442C70.1511 113.606 65.2409 114.713 61.3792 117.74C58.6959 119.848 56.7652 122.689 54.7212 125.697C53.8819 126.93 53.0428 128.164 52.1494 129.347C46.5611 136.748 38.5654 142.275 29.7223 145.074Z" fill="#E4C26D"/>
<path d="M276.607 412.098C261.555 391.511 259.06 364.803 258.493 346.504C258.276 339.434 258.307 332.234 258.341 325.27C258.411 309.861 258.486 293.924 255.807 278.581C251.188 252.114 238.686 227.919 225.863 205.716C213.948 185.091 199.094 161.346 179.237 141.622C158.66 121.168 135.214 107.909 111.428 103.279L111.974 100.483C136.312 105.223 160.264 118.75 181.242 139.601C201.337 159.563 216.32 183.503 228.325 204.291C241.28 226.72 253.916 251.187 258.61 278.093C261.335 293.683 261.262 309.748 261.188 325.282C261.155 332.22 261.123 339.395 261.34 346.417C262.221 374.898 267.806 395.234 278.905 410.419L276.607 412.098Z" fill="#E4C26D"/>
</svg>
