<svg width="335" height="392" viewBox="0 0 335 392" fill="none" xmlns="http://www.w3.org/2000/svg">
<path d="M260.727 318.755C263.566 323.933 267.053 328.026 271.083 330.924C272.353 331.834 273.69 332.639 274.986 333.417C276.139 334.106 277.289 334.797 278.391 335.562C285.424 340.449 290.16 348.445 291.057 356.949L293.419 356.7C292.453 347.518 287.342 338.887 279.746 333.611C278.603 332.815 277.405 332.095 276.211 331.378C274.957 330.626 273.659 329.848 272.47 328.995C268.729 326.304 265.48 322.476 262.809 317.612L260.727 318.755Z" fill="#E4C26D"/>
<path d="M243.391 308.219C246.24 312.032 248.575 316.89 249.643 321.219L249.945 322.545C250.329 324.25 250.724 326.016 251.564 327.666C252.892 330.284 255.095 332.169 257.076 333.665C259.271 335.327 261.619 336.812 263.885 338.247C266.004 339.589 268.198 340.975 270.223 342.483C275.152 346.148 278.193 349.935 279.529 354.062L281.791 353.331C280.298 348.717 276.98 344.546 271.643 340.577C269.545 339.017 267.313 337.605 265.158 336.24C262.93 334.83 260.629 333.372 258.507 331.77C256.745 330.436 254.794 328.778 253.681 326.591C252.978 325.207 252.631 323.661 252.264 322.024C252.162 321.565 252.06 321.109 251.951 320.653C250.809 316.03 248.324 310.851 245.296 306.798L243.391 308.219Z" fill="#E4C26D"/>
<path d="M285.038 331.565C286.73 334.642 290.136 338.684 292.966 340.967C293.68 341.544 294.423 342.08 295.163 342.616C295.836 343.1 296.509 343.584 297.154 344.098C302.23 348.178 304.825 354.614 307.331 360.841L308.033 362.581L310.233 361.684L309.534 359.954C306.914 353.447 304.205 346.715 298.638 342.245C297.961 341.705 297.259 341.197 296.553 340.689C295.849 340.179 295.137 339.666 294.459 339.118C291.881 337.037 288.655 333.217 287.121 330.421L285.038 331.565Z" fill="#E4C26D"/>
<path d="M178.523 251.516C183.399 253.981 189.497 254.312 197.16 252.53C199.255 252.041 201.333 251.446 203.409 250.854C207.091 249.799 210.903 248.711 214.724 248.288C221.661 247.519 227.756 249.176 231.023 252.721L232.772 251.112C228.995 247.01 222.15 245.072 214.46 245.924C210.444 246.372 206.534 247.489 202.756 248.568C200.715 249.152 198.678 249.735 196.618 250.215C189.523 251.866 183.954 251.598 179.596 249.396L178.523 251.516Z" fill="#E4C26D"/>
<path d="M165.247 236.955C165.266 237.514 165.679 237.999 166.251 238.087C170.711 238.781 175.038 236.864 177.907 235.362C178.487 235.059 178.722 234.344 178.407 233.759C178.102 233.175 177.385 232.951 176.803 233.256C174.231 234.603 170.381 236.326 166.619 235.739C165.97 235.637 165.362 236.082 165.262 236.729C165.249 236.806 165.244 236.881 165.247 236.955Z" fill="#E4C26D"/>
<path d="M182.941 231.838C182.947 232.015 182.992 232.191 183.082 232.357C183.392 232.936 184.112 233.152 184.689 232.844C186.844 231.69 189.149 230.951 191.537 230.646C192.191 230.562 192.633 229.965 192.568 229.318C192.482 228.667 191.889 228.205 191.238 228.29C188.556 228.632 185.977 229.457 183.569 230.749C183.154 230.969 182.926 231.398 182.941 231.838Z" fill="#E4C26D"/>
<path d="M193.827 241.07C193.831 241.177 193.849 241.283 193.881 241.388C194.08 242.016 194.746 242.364 195.37 242.165C196.912 241.678 198.43 241.133 199.95 240.587C202.098 239.811 204.322 239.01 206.546 238.422C207.186 238.252 207.793 238.08 208.377 237.91C211.226 237.096 213.287 236.507 216.139 237.283C216.77 237.457 217.424 237.081 217.596 236.449C217.776 235.813 217.395 235.162 216.76 234.99C213.269 234.039 210.697 234.774 207.723 235.627C207.153 235.789 206.56 235.961 205.936 236.125C203.614 236.739 201.343 237.559 199.145 238.348C197.655 238.886 196.167 239.423 194.657 239.9C194.136 240.064 193.81 240.552 193.827 241.07Z" fill="#E4C26D"/>
<path d="M183.274 243.319C183.277 243.4 183.288 243.481 183.309 243.559C183.459 244.198 184.104 244.591 184.739 244.437C186.523 244.007 188.316 243.563 190.098 243.125C190.735 242.967 191.13 242.325 190.967 241.685C190.81 241.049 190.166 240.659 189.528 240.816C187.752 241.255 185.962 241.699 184.186 242.127C183.625 242.259 183.256 242.768 183.274 243.319Z" fill="#E4C26D"/>
<path d="M203.675 242.973C203.68 243.135 203.721 243.299 203.795 243.454C204.086 244.042 204.798 244.287 205.389 243.998C210.004 241.736 215.171 240.643 220.333 240.835C220.99 240.859 221.543 240.347 221.563 239.69C221.607 239.031 221.077 238.485 220.422 238.46C214.868 238.254 209.308 239.429 204.341 241.866C203.908 242.076 203.659 242.52 203.675 242.973Z" fill="#E4C26D"/>
<path d="M216.488 272.192C216.506 272.728 216.888 273.202 217.439 273.314C223.737 274.596 229.991 272.271 235.512 270.221C241.313 268.069 246.959 266.243 252.265 267.506C252.903 267.657 253.546 267.263 253.697 266.625C253.839 265.987 253.453 265.345 252.817 265.194C246.863 263.777 240.845 265.709 234.686 267.995C229.464 269.933 223.544 272.131 217.912 270.986C217.269 270.854 216.642 271.271 216.511 271.913C216.494 272.006 216.485 272.101 216.488 272.192Z" fill="#E4C26D"/>
<path d="M213.94 269.984C213.96 270.568 214.407 271.061 215.001 271.123C220.819 271.742 226.487 269.244 231.489 267.042C236.902 264.656 241.789 262.743 246.765 263.507C247.414 263.607 248.02 263.162 248.119 262.513C248.222 261.858 247.774 261.258 247.127 261.157C241.525 260.298 236.078 262.42 230.53 264.866C225.568 267.052 220.442 269.313 215.254 268.759C214.6 268.69 214.016 269.165 213.947 269.815C213.941 269.872 213.938 269.929 213.94 269.984Z" fill="#E4C26D"/>
<path d="M206.657 266.294C206.674 266.793 207.006 267.246 207.509 267.394C209.503 267.979 211.761 268.642 214.083 268.783C217.521 268.999 221.006 268.047 223.894 266.098C224.435 265.732 224.575 264.99 224.213 264.448C223.847 263.904 223.11 263.76 222.565 264.128C220.11 265.785 217.149 266.596 214.228 266.412C212.174 266.288 210.05 265.663 208.182 265.113C207.553 264.927 206.89 265.287 206.706 265.918C206.667 266.043 206.653 266.171 206.657 266.294Z" fill="#E4C26D"/>
<path d="M196.005 261.056C196.024 261.608 196.43 262.092 196.995 262.188C203.763 263.326 210.654 260.763 216.191 258.703C216.804 258.474 217.12 257.789 216.89 257.176C216.661 256.561 215.979 256.248 215.36 256.476C209.815 258.539 203.528 260.876 197.39 259.844C196.741 259.734 196.13 260.17 196.02 260.817C196.005 260.897 196.002 260.979 196.005 261.056Z" fill="#E4C26D"/>
<path d="M186.581 256.607C186.598 257.108 186.933 257.564 187.439 257.711C192.454 259.15 197.758 257.62 201.308 256.348C202.339 255.979 203.363 255.584 204.39 255.187C207.59 253.953 210.614 252.786 213.836 252.359C214.487 252.272 214.958 251.683 214.857 251.026C214.774 250.375 214.174 249.918 213.526 250.003C210.023 250.47 206.722 251.739 203.533 252.971C202.527 253.361 201.52 253.748 200.508 254.11C197.264 255.272 192.451 256.676 188.097 255.425C187.465 255.244 186.808 255.608 186.626 256.24C186.592 256.364 186.577 256.485 186.581 256.607Z" fill="#E4C26D"/>
<path d="M217.565 251.084C217.587 251.726 218.115 252.236 218.761 252.231C220.467 252.221 222.174 252.368 223.833 252.675C224.481 252.795 225.099 252.368 225.219 251.721C225.327 251.074 224.91 250.458 224.265 250.338C222.458 250.007 220.603 249.845 218.744 249.855C218.091 249.859 217.562 250.394 217.566 251.053C217.564 251.063 217.565 251.075 217.565 251.084Z" fill="#E4C26D"/>
<path d="M224.523 280.876C224.538 281.337 224.825 281.77 225.286 281.946C228.711 283.254 232.325 282.729 235.817 282.221C236.673 282.094 237.526 281.972 238.373 281.875C240.918 281.59 243.449 281.569 245.891 281.817C246.545 281.876 247.3 281.875 248.093 281.868C249.805 281.856 251.932 281.842 252.65 282.719C253.064 283.229 253.811 283.306 254.321 282.89C254.826 282.473 254.905 281.723 254.49 281.218C253.058 279.458 250.41 279.477 248.076 279.491C247.372 279.498 246.697 279.503 246.121 279.451C243.52 279.189 240.82 279.209 238.107 279.515C237.232 279.611 236.357 279.74 235.476 279.868C232.137 280.354 228.982 280.814 226.134 279.725C225.523 279.491 224.834 279.797 224.6 280.412C224.54 280.562 224.517 280.72 224.523 280.876Z" fill="#E4C26D"/>
<path d="M229.821 291.22C229.823 291.277 229.83 291.331 229.84 291.387C230.325 294.142 230.82 296.899 231.321 299.653C231.915 302.919 232.516 306.204 233.556 309.356C234.932 313.537 237.138 317.53 239.937 320.913C240.356 321.418 241.103 321.489 241.61 321.069C242.118 320.65 242.184 319.902 241.767 319.398C239.157 316.243 237.097 312.514 235.81 308.614C234.826 305.617 234.241 302.413 233.675 299.315C233.162 296.478 232.666 293.725 232.181 290.975C232.067 290.329 231.449 289.897 230.802 290.011C230.213 290.116 229.802 290.639 229.821 291.22Z" fill="#E4C26D"/>
<path d="M225.532 299.148C226.004 313.006 232.997 326.653 244.157 334.919C244.684 335.31 245.428 335.2 245.82 334.672C246.211 334.145 246.099 333.401 245.572 333.012C233.739 324.246 226.838 309.1 228.01 294.438C228.062 293.798 228.126 293.153 228.191 292.508C228.482 289.628 228.785 286.649 227.95 283.747C227.773 283.115 227.114 282.75 226.482 282.931C225.852 283.108 225.485 283.776 225.667 284.399C226.366 286.864 226.107 289.488 225.825 292.27C225.759 292.932 225.695 293.593 225.641 294.251C225.511 295.88 225.477 297.515 225.532 299.148Z" fill="#E4C26D"/>
<path d="M206.357 266.302C206.369 266.66 206.541 267.005 206.854 267.229C210.183 269.62 213.959 272.333 216.674 275.807C220.816 281.111 222.41 288.477 220.826 295.016C220.67 295.649 221.064 296.294 221.702 296.449C222.338 296.603 222.98 296.212 223.138 295.575C224.91 288.235 223.195 280.295 218.547 274.345C215.618 270.599 211.701 267.785 208.238 265.3C207.706 264.915 206.962 265.038 206.581 265.57C206.424 265.79 206.348 266.049 206.357 266.302Z" fill="#E4C26D"/>
<path d="M159.366 230.782C159.371 230.926 159.402 231.071 159.462 231.211C161.501 235.97 162.318 244.571 163.352 255.462C163.535 257.396 163.725 259.394 163.927 261.449C164.769 269.899 166.842 282.016 175.097 289.659C176.241 290.723 177.477 291.671 178.673 292.592C179.754 293.419 180.872 294.278 181.877 295.193C186.64 299.504 189.566 305.446 192.397 311.188C192.683 311.777 193.396 312.019 193.987 311.729C194.574 311.439 194.82 310.727 194.525 310.137C191.735 304.47 188.572 298.047 183.473 293.432C182.397 292.453 181.24 291.565 180.122 290.707C178.916 289.779 177.774 288.904 176.713 287.917C169.05 280.82 167.096 269.279 166.295 261.214C166.09 259.162 165.9 257.167 165.715 255.239C164.664 244.141 163.831 235.374 161.646 230.274C161.386 229.67 160.69 229.391 160.084 229.65C159.623 229.849 159.35 230.309 159.366 230.782Z" fill="#E4C26D"/>
<path d="M144.334 214.577C144.341 214.771 144.395 214.964 144.5 215.143C151.572 227.05 153.804 241.629 155.781 254.491C155.879 255.141 156.488 255.584 157.135 255.485C157.783 255.386 158.255 254.769 158.129 254.131C156.123 241.056 153.848 226.236 146.544 213.93C146.21 213.366 145.482 213.179 144.916 213.514C144.529 213.743 144.32 214.158 144.334 214.577Z" fill="#E4C26D"/>
<path d="M168.364 241.938C168.368 242.067 168.396 242.199 168.446 242.328C168.8 243.238 169.153 244.073 169.496 244.876C170.465 247.146 171.303 249.104 171.566 251.75C171.814 254.109 171.589 256.467 171.359 258.963C171.229 260.398 171.098 261.833 171.056 263.268C170.896 268.545 171.945 273.888 174.101 278.738C174.371 279.338 175.073 279.607 175.671 279.341C176.27 279.074 176.539 278.365 176.274 277.773C174.263 273.246 173.265 268.258 173.43 263.339C173.47 261.953 173.601 260.566 173.726 259.181C173.954 256.681 174.192 254.098 173.934 251.514C173.631 248.507 172.686 246.287 171.682 243.943C171.347 243.163 171.002 242.354 170.66 241.468C170.423 240.856 169.736 240.554 169.123 240.79C168.638 240.978 168.347 241.448 168.364 241.938Z" fill="#E4C26D"/>
<path d="M176.195 249.123C176.206 249.424 176.328 249.718 176.559 249.942C178.62 251.918 179.952 255.655 180.219 260.196C180.316 261.849 180.288 263.574 180.254 265.24C180.216 267.345 180.176 269.524 180.388 271.686C181.143 279.124 184.927 285.92 188.267 291.92C188.589 292.492 189.312 292.699 189.885 292.38C190.459 292.059 190.664 291.337 190.344 290.764C187.115 284.967 183.455 278.398 182.756 271.449C182.553 269.432 182.593 267.324 182.631 265.286C182.662 263.576 182.69 261.808 182.595 260.056C182.414 257.042 181.609 251.496 178.205 248.225C177.734 247.772 176.982 247.788 176.525 248.261C176.293 248.502 176.185 248.816 176.195 249.123Z" fill="#E4C26D"/>
<path d="M190.157 294.665C190.163 294.856 190.217 295.048 190.321 295.226C190.925 296.248 191.514 297.259 192.109 298.284C192.435 298.853 193.164 299.046 193.73 298.719C194.302 298.388 194.498 297.665 194.164 297.095C193.571 296.064 192.975 295.049 192.37 294.021C192.036 293.453 191.309 293.265 190.743 293.6C190.354 293.826 190.142 294.244 190.157 294.665Z" fill="#E4C26D"/>
<path d="M179.373 253.415C179.387 253.832 179.619 254.226 180.013 254.431C182.894 255.923 184.959 259.353 185.682 263.838C186.333 267.878 186.013 272.091 186.587 276.274C188.238 288.238 196.834 298.027 203.743 305.895C204.175 306.39 204.927 306.439 205.418 306.004C205.915 305.57 205.963 304.821 205.529 304.326C198.829 296.7 190.494 287.208 188.942 275.951C188.381 271.882 188.701 267.651 188.028 263.46C187.187 258.223 184.663 254.164 181.108 252.321C180.526 252.02 179.808 252.248 179.508 252.829C179.41 253.016 179.366 253.22 179.373 253.415Z" fill="#E4C26D"/>
<path d="M218.578 300.104C218.581 300.201 218.598 300.297 218.624 300.39L220.905 308.316C221.713 311.115 222.548 313.993 223.802 316.694C225.237 319.768 227.22 322.592 228.966 325.083C230.818 327.73 232.853 330.875 234.821 333.918C236.763 336.927 238.773 340.038 240.62 342.683C240.995 343.221 241.737 343.352 242.277 342.976C242.813 342.603 242.945 341.86 242.571 341.322C240.748 338.712 238.748 335.621 236.815 332.628C234.836 329.568 232.79 326.402 230.91 323.721C229.219 321.307 227.305 318.575 225.955 315.69C224.781 313.157 223.97 310.368 223.19 307.669L220.91 299.74C220.729 299.11 220.071 298.742 219.441 298.922C218.907 299.074 218.56 299.573 218.578 300.104Z" fill="#E4C26D"/>
<path d="M210.623 296.217C210.631 296.453 210.711 296.691 210.866 296.894C214.324 301.438 215.476 307.809 216.591 313.971C217.556 319.298 218.555 324.808 221.029 329.356C221.346 329.931 222.066 330.145 222.64 329.83C223.219 329.516 223.431 328.799 223.116 328.218C220.824 324.007 219.862 318.69 218.929 313.545C217.765 307.109 216.559 300.453 212.757 295.457C212.36 294.934 211.614 294.832 211.091 295.231C210.774 295.472 210.61 295.845 210.623 296.217Z" fill="#E4C26D"/>
<path d="M186.279 266.37C186.282 266.462 186.298 266.553 186.324 266.646C187.025 269.188 188.385 272.284 189.587 275.012C189.909 275.749 190.218 276.454 190.498 277.105C191.679 279.894 192.905 282.779 194.674 285.364C196.712 288.34 199.244 290.486 202.005 291.569C202.613 291.812 203.303 291.511 203.544 290.901C203.782 290.285 203.484 289.599 202.874 289.36C200.559 288.449 198.402 286.603 196.635 284.02C195 281.632 193.823 278.858 192.684 276.175C192.402 275.515 192.088 274.803 191.762 274.057C190.593 271.402 189.267 268.389 188.611 266.012C188.438 265.379 187.781 265.009 187.149 265.185C186.612 265.335 186.26 265.834 186.279 266.37Z" fill="#E4C26D"/>
<path d="M189.777 258.684C189.79 259.075 189.996 259.452 190.355 259.665C199.373 265.033 206.035 272.761 210.038 278.3C210.42 278.835 211.164 278.952 211.696 278.57C212.227 278.184 212.347 277.442 211.962 276.91C207.83 271.188 200.939 263.198 191.572 257.623C191.006 257.288 190.277 257.472 189.942 258.038C189.822 258.241 189.769 258.463 189.777 258.684Z" fill="#E4C26D"/>
<path d="M89.5691 72.9912C89.5698 73.0141 89.5734 73.0368 89.5743 73.0622C89.6343 73.7138 90.2131 74.1952 90.8677 74.1348C92.3179 74.0041 93.8089 74.0856 95.3857 74.1719C98.3848 74.3395 101.483 74.5114 104.31 73.0952C105.355 72.5713 106.26 71.8792 107.133 71.2111C107.483 70.9449 107.829 70.6788 108.187 70.4224C111.604 67.9967 115.826 66.8739 119.853 65.9357C120.494 65.7868 120.887 65.1452 120.744 64.5065C120.592 63.8682 119.952 63.4703 119.315 63.6217C115.053 64.6162 110.581 65.8111 106.809 68.4879C106.432 68.7602 106.062 69.0398 105.69 69.3246C104.867 69.9529 104.091 70.549 103.248 70.9719C100.984 72.1019 98.3266 71.9557 95.5187 71.802C93.9239 71.7112 92.2745 71.6198 90.6521 71.7665C90.0201 71.8262 89.5478 72.3662 89.5691 72.9912Z" fill="#E4C26D"/>
<path d="M123.046 65.5528C123.046 65.5732 123.049 65.596 123.05 65.6188C123.111 66.273 123.686 66.7545 124.338 66.6941C125.872 66.558 127.414 66.4115 128.963 66.2647C129.611 66.1994 130.055 65.6324 130.03 64.9668C129.967 64.3128 129.387 63.8365 128.732 63.897C127.196 64.0458 125.657 64.1923 124.131 64.3281C123.499 64.3852 123.024 64.9279 123.046 65.5528Z" fill="#E4C26D"/>
<path d="M84.6133 70.9291C84.6337 71.5312 85.1027 72.0316 85.7171 72.0717C95.9432 72.7871 105.304 70.027 112.076 64.3028C112.577 63.8788 112.641 63.1288 112.216 62.6269C111.793 62.1275 111.043 62.0615 110.544 62.488C104.244 67.8095 95.4875 70.3736 85.8839 69.7006C85.2287 69.6567 84.6603 70.1517 84.6159 70.8044C84.6125 70.8477 84.6119 70.8884 84.6133 70.9291Z" fill="#E4C26D"/>
<path d="M101.77 77.2314C101.77 77.2568 101.773 77.2847 101.774 77.3126C101.84 77.964 102.424 78.4402 103.077 78.3747C106.563 78.0247 110.047 76.5836 113.418 75.1896C115.492 74.3306 117.451 73.5187 119.367 72.9652C123.906 71.6536 128.749 71.4456 133.377 72.3641C134.02 72.4923 134.646 72.0716 134.771 71.429C134.906 70.786 134.482 70.1595 133.84 70.0338C128.843 69.0414 123.611 69.2651 118.71 70.6831C116.662 71.2742 114.551 72.1472 112.509 72.9924C109.298 74.3199 105.978 75.6944 102.837 76.0098C102.211 76.0718 101.749 76.6115 101.77 77.2314Z" fill="#E4C26D"/>
<path d="M123.299 78.9178C123.303 79.0296 123.322 79.1408 123.362 79.2514C123.566 79.8727 124.238 80.2135 124.86 80.0093C128.655 78.756 136.031 77.007 142.788 79.3665C143.41 79.5819 144.085 79.2562 144.3 78.6334C144.514 78.0106 144.188 77.3375 143.57 77.122C136.149 74.5333 128.196 76.4062 124.117 77.7505C123.604 77.9206 123.281 78.4046 123.299 78.9178Z" fill="#E4C26D"/>
<path d="M150.512 79.8617C150.531 80.4333 150.962 80.9248 151.547 80.999C154.845 81.4184 158.155 82.1528 161.392 83.1796C162.018 83.3771 162.688 83.0313 162.885 82.4065C163.082 81.7792 162.737 81.1119 162.112 80.9144C158.742 79.8438 155.287 79.0787 151.851 78.641C151.2 78.5589 150.602 79.0192 150.52 79.6706C150.512 79.7345 150.509 79.7982 150.512 79.8617Z" fill="#E4C26D"/>
<path d="M133.154 64.5428C133.159 64.6647 133.181 64.7911 133.225 64.9092C133.452 65.5272 134.135 65.8422 134.75 65.6153C136.441 64.9982 138.288 64.7243 140.095 64.8256C140.75 64.8618 141.31 64.362 141.349 63.7045C141.368 63.0706 140.885 62.4918 140.228 62.4531C138.1 62.3322 135.924 62.6554 133.934 63.387C133.439 63.5666 133.138 64.0449 133.154 64.5428Z" fill="#E4C26D"/>
<path d="M144.135 69.6631C144.155 70.2499 144.602 70.7434 145.202 70.8044L149.692 71.2571C150.342 71.324 150.929 70.8487 150.993 70.1954C151.065 69.5393 150.584 68.9605 149.934 68.891L145.445 68.4383C144.791 68.3741 144.207 68.8493 144.14 69.5027C144.135 69.5563 144.134 69.6123 144.135 69.6631Z" fill="#E4C26D"/>
<path d="M137.802 88.6439C137.816 89.0504 138.038 89.4371 138.421 89.6454C148.387 95.1081 160.627 95.0326 171.172 89.4522C171.752 89.1426 171.971 88.4255 171.664 87.8459C171.357 87.2637 170.637 87.044 170.057 87.3511C160.224 92.5588 148.824 92.6388 139.561 87.5642C138.988 87.248 138.266 87.4582 137.95 88.0361C137.844 88.228 137.795 88.4382 137.802 88.6439Z" fill="#E4C26D"/>
<path d="M131.356 82.3141C131.371 82.779 131.665 83.2115 132.126 83.3866C139.376 86.1006 148.348 87.5454 156.128 87.2426C156.784 87.2178 157.294 86.6689 157.272 86.016C157.272 86.016 157.272 86.0134 157.272 86.0109C157.245 85.3556 156.692 84.8428 156.038 84.8701C148.557 85.1576 139.931 83.7723 132.962 81.1606C132.346 80.9323 131.662 81.243 131.431 81.8562C131.375 82.0082 131.351 82.1616 131.356 82.3141Z" fill="#E4C26D"/>
<path d="M96.3996 76.4522C96.4134 76.8587 96.6354 77.2454 97.0169 77.4537C100.111 79.1645 102.321 83.4106 104.093 86.8248L104.409 87.4346C109.109 96.416 116.121 104.011 124.695 109.402C125.249 109.752 125.983 109.584 126.33 109.028C126.683 108.469 126.513 107.74 125.957 107.39C117.741 102.222 111.017 94.9395 106.515 86.3354L106.203 85.7305C104.282 82.0315 101.891 77.4278 98.1614 75.3724C97.5862 75.0562 96.8661 75.2638 96.5497 75.8392C96.4421 76.0336 96.3925 76.2439 96.3996 76.4522Z" fill="#E4C26D"/>
<path d="M87.0027 72.664C87.0159 73.0527 87.2194 73.4273 87.5745 73.6441C91.5891 76.0587 93.4898 79.8271 95.5034 83.8205C96.5231 85.8486 97.581 87.944 98.9356 89.8564C99.3154 90.3903 100.057 90.5152 100.592 90.1384C101.13 89.7563 101.25 89.0172 100.876 88.4805C99.6225 86.7122 98.6521 84.7893 97.626 82.7513C95.5503 78.6328 93.4035 74.3743 88.8028 71.6057C88.239 71.2688 87.5077 71.4489 87.1713 72.0122C87.048 72.2148 86.9952 72.443 87.0027 72.664Z" fill="#E4C26D"/>
<path d="M100.522 77.9345C100.538 78.402 100.83 78.8346 101.296 79.0095C103.996 80.0063 106.393 81.7077 108.229 83.9166C108.831 84.6465 109.371 85.4242 109.911 86.1994C110.556 87.1236 111.222 88.0802 111.994 88.9696C114.701 92.1154 118.362 94.0231 121.9 95.8739C122.48 96.1772 123.2 95.9518 123.5 95.3693C123.809 94.7891 123.578 94.0695 123 93.7661C119.66 92.023 116.209 90.2175 113.793 87.4128C113.1 86.6149 112.498 85.7528 111.862 84.841C111.284 84.0111 110.704 83.1813 110.057 82.3996C107.954 79.8666 105.21 77.9252 102.123 76.7787C101.508 76.553 100.824 76.8662 100.595 77.4793C100.54 77.6313 100.517 77.7821 100.522 77.9345Z" fill="#E4C26D"/>
<path d="M109.012 77.6459C109.028 78.126 109.336 78.5657 109.817 78.7325C115.185 80.5491 120.201 83.329 123.238 86.171C124.658 87.4911 125.879 88.9705 127.168 90.5392C128.139 91.7118 129.105 92.8846 130.155 93.9833C136.07 100.164 144.214 103.618 151.397 106.662C152.001 106.919 152.7 106.636 152.955 106.032C153.209 105.436 152.93 104.731 152.324 104.474C145.351 101.517 137.45 98.1659 131.874 92.3428C130.867 91.2859 129.935 90.1552 129.004 89.027C127.72 87.4683 126.391 85.8577 124.86 84.4321C121.589 81.3742 116.251 78.4018 110.58 76.481C109.96 76.2707 109.284 76.6014 109.074 77.2241C109.025 77.3631 109.007 77.5061 109.012 77.6459Z" fill="#E4C26D"/>
<path d="M125.699 97.7189C125.713 98.1279 125.94 98.5195 126.325 98.7277L130.747 101.121C131.326 101.427 132.046 101.211 132.357 100.634C132.665 100.053 132.445 99.3334 131.873 99.0248L127.452 96.6317C126.873 96.3233 126.151 96.5386 125.842 97.1188C125.739 97.308 125.692 97.5156 125.699 97.7189Z" fill="#E4C26D"/>
<path d="M166.856 100.75C166.872 101.202 167.145 101.625 167.592 101.808C170.731 103.113 172.765 106.004 174.919 109.065C176.242 110.943 177.611 112.885 179.285 114.509C182.915 118.013 187.69 120.361 192.305 122.628C194.369 123.641 196.317 124.597 198.161 125.646C198.728 125.97 199.457 125.772 199.781 125.202C200.107 124.629 199.907 123.905 199.337 123.584C197.428 122.494 195.355 121.479 193.351 120.494C188.902 118.308 184.297 116.048 180.937 112.797C179.422 111.335 178.123 109.485 176.864 107.699C174.609 104.494 172.278 101.183 168.499 99.6154C167.895 99.3637 167.2 99.6519 166.946 100.258C166.881 100.421 166.851 100.587 166.856 100.75Z" fill="#E4C26D"/>
<path d="M154.023 98.5514C154.043 99.1434 154.497 99.6392 155.099 99.695C156.514 99.8249 157.702 100.616 158.452 101.252C159.266 101.952 159.972 102.79 160.719 103.683L161.132 104.172C165.668 109.504 171.228 113.896 176.604 118.141C177.117 118.549 177.887 118.479 178.294 117.962C178.702 117.447 178.633 116.717 178.118 116.312L178.073 116.275C172.792 112.101 167.327 107.787 162.945 102.635L162.539 102.156C161.763 101.231 160.962 100.274 159.995 99.4471C158.546 98.2094 156.932 97.4784 155.322 97.3271C154.666 97.2655 154.09 97.7479 154.025 98.4013C154.022 98.4523 154.022 98.5032 154.023 98.5514Z" fill="#E4C26D"/>
<path d="M155.04 98.3258C155.043 98.4045 155.056 98.488 155.073 98.5688C155.227 99.2071 155.871 99.5972 156.51 99.4407C159.133 98.7995 161.833 98.5398 164.523 98.6671C165.307 98.7015 166.091 98.7715 166.869 98.8391C168.262 98.9621 169.706 99.0885 171.162 99.039C175.486 98.9047 179.8 97.1352 182.997 94.1855C183.474 93.7394 183.502 92.9881 183.064 92.507C182.618 92.0262 181.866 91.9958 181.381 92.4397C178.601 95.0064 174.848 96.5482 171.083 96.6661C169.767 96.7109 168.464 96.595 167.078 96.4742C166.264 96.4027 165.451 96.3311 164.638 96.2927C161.716 96.1529 158.793 96.438 155.945 97.1326C155.391 97.2685 155.021 97.7745 155.04 98.3258Z" fill="#E4C26D"/>
<path d="M118.347 32.9198C118.349 32.9935 118.36 33.072 118.378 33.1477C118.527 33.7887 119.164 34.1867 119.805 34.0377C120.678 33.8376 121.738 34.4222 122.858 35.0428C123.684 35.498 124.538 35.97 125.462 36.2184C125.887 36.3285 126.329 36.4686 126.785 36.6134C128.188 37.0515 129.78 37.5518 131.289 37.4242C131.944 37.3739 132.406 36.7758 132.377 36.1434C132.322 35.4891 131.748 35.0024 131.094 35.0577C130.047 35.1417 128.748 34.7382 127.494 34.3434C127.003 34.1897 126.524 34.0406 126.07 33.9213C125.431 33.7497 124.742 33.3688 124.01 32.9638C122.613 32.1923 121.029 31.3153 119.268 31.7211C118.705 31.8521 118.328 32.3609 118.347 32.9198Z" fill="#E4C26D"/>
<path d="M109.954 36.1558C109.972 36.6995 110.368 37.1769 110.923 37.2827L111.676 37.4249C115.58 38.1544 119.265 38.843 122.526 40.9068C123.081 41.2592 123.816 41.0918 124.166 40.5381C124.518 39.9818 124.353 39.2498 123.8 38.8999C120.153 36.5898 116.25 35.8603 112.115 35.0878L111.365 34.948C110.72 34.8275 110.099 35.2505 109.976 35.8957C109.959 35.9827 109.951 36.072 109.954 36.1558Z" fill="#E4C26D"/>
<path d="M91.7346 46.847C91.7404 47.0198 91.7822 47.1939 91.8712 47.3562C92.1733 47.9385 92.8912 48.1608 93.4731 47.8587L94.3728 47.383C96.3335 46.3422 98.3626 45.271 100.471 44.7517C103.032 44.1203 105.482 44.4363 107.193 45.6117C107.731 45.9825 108.473 45.8454 108.846 45.3062C109.216 44.762 109.081 44.0239 108.537 43.6533C106.269 42.0924 103.123 41.6526 99.9019 42.4438C97.5084 43.0313 95.3498 44.1755 93.2611 45.2818L92.3711 45.752C91.9512 45.9698 91.7194 46.4025 91.7346 46.847Z" fill="#E4C26D"/>
<path d="M82.5026 55.0788C82.5101 55.2999 82.5812 55.5212 82.7171 55.7176C83.092 56.2542 83.8308 56.3893 84.3705 56.0123C89.4938 52.44 95.7399 50.6481 101.964 50.9629C102.619 50.9991 103.18 50.4917 103.21 49.837C103.231 49.1673 102.74 48.6245 102.085 48.5883C95.3383 48.248 88.5648 50.1927 83.0116 54.0645C82.669 54.3025 82.4894 54.6901 82.5026 55.0788Z" fill="#E4C26D"/>
<path d="M91.6856 46.821C91.6979 47.1843 91.8778 47.5368 92.1964 47.7574C92.7357 48.1333 93.4764 48.0013 93.8495 47.4621C95.367 45.2816 96.4823 42.7587 97.0709 40.1672C97.2212 39.5059 97.3385 38.8355 97.4579 38.1651C97.6705 36.9395 97.8755 35.7804 98.2728 34.6961C98.904 32.9806 100.033 31.7697 101.296 31.4521C101.931 31.2931 102.309 30.6444 102.16 30.011C101.999 29.3756 101.355 28.988 100.717 29.147C98.6915 29.6559 96.9462 31.4219 96.045 33.874C95.5722 35.1592 95.3378 36.4796 95.1169 37.7538C95.0033 38.3859 94.8925 39.0179 94.753 39.6407C94.2308 41.9374 93.2439 44.1711 91.9006 46.104C91.7452 46.323 91.6772 46.5745 91.6856 46.821Z" fill="#E4C26D"/>
<path d="M135.352 143.155C135.371 143.727 135.803 144.218 136.39 144.292C141.905 144.998 147.346 143.513 151.941 141.968C153.072 141.591 154.201 141.189 155.332 140.789C158.926 139.515 162.645 138.198 166.404 137.579C171.883 136.688 176.802 137.531 180.255 139.959C180.789 140.336 181.533 140.206 181.911 139.669C182.284 139.133 182.158 138.392 181.621 138.016C177.658 135.23 172.118 134.241 166.021 135.235C162.053 135.886 158.231 137.242 154.536 138.55C153.42 138.944 152.304 139.341 151.182 139.717C146.844 141.175 141.73 142.58 136.692 141.937C136.04 141.852 135.445 142.31 135.363 142.961C135.353 143.028 135.35 143.092 135.352 143.155Z" fill="#E4C26D"/>
<path d="M164.056 147.433C164.063 147.644 164.129 147.856 164.252 148.045C164.614 148.595 165.349 148.745 165.896 148.386C172.502 144.048 180.621 142.882 187.092 145.348C187.706 145.581 188.392 145.27 188.625 144.66C188.867 144.054 188.553 143.357 187.937 143.126C180.768 140.397 171.82 141.65 164.593 146.398C164.234 146.634 164.042 147.035 164.056 147.433Z" fill="#E4C26D"/>
<path d="M155.971 152.32C155.979 152.559 156.061 152.798 156.216 153.004C156.617 153.524 157.364 153.623 157.885 153.221L161.499 150.474C162.017 150.075 162.116 149.331 161.72 148.808C161.32 148.287 160.575 148.188 160.054 148.587L156.439 151.335C156.122 151.577 155.959 151.952 155.971 152.32Z" fill="#E4C26D"/>
<path d="M107.876 136.894C107.893 137.402 108.237 137.859 108.751 138.001C119.737 141.018 131.552 140.235 142.023 135.796C142.624 135.537 142.909 134.838 142.652 134.236C142.395 133.635 141.699 133.353 141.094 133.608C131.115 137.839 119.853 138.585 109.38 135.709C108.749 135.534 108.095 135.908 107.92 136.539C107.886 136.66 107.872 136.777 107.876 136.894Z" fill="#E4C26D"/>
<path d="M144.635 134.062C144.635 134.075 144.636 134.087 144.638 134.098C144.678 134.755 145.244 135.249 145.9 135.209L150.717 134.89C151.361 134.848 151.851 134.305 151.829 133.665C151.829 133.652 151.829 133.639 151.825 133.627C151.788 132.972 151.222 132.475 150.567 132.517L145.751 132.836C145.105 132.876 144.613 133.422 144.635 134.062Z" fill="#E4C26D"/>
<path d="M181.443 159.445C181.448 159.618 181.495 159.794 181.579 159.957C181.884 160.536 182.604 160.761 183.184 160.457C191.739 155.956 200.034 154.247 207.173 155.51C207.818 155.625 208.434 155.193 208.55 154.548C208.657 153.906 208.236 153.284 207.587 153.171C199.815 151.793 191.235 153.539 182.079 158.353C181.662 158.57 181.427 159.003 181.443 159.445Z" fill="#E4C26D"/>
<path d="M169.642 160.225C169.647 160.385 169.685 160.544 169.757 160.697C170.038 161.288 170.747 161.543 171.337 161.259L176.214 158.964C183.427 155.58 190.888 152.078 198.882 151.562C199.524 151.52 200.014 150.974 199.992 150.337C199.992 150.324 199.991 150.311 199.989 150.299C199.948 149.641 199.384 149.147 198.727 149.189C190.284 149.739 182.275 153.498 175.203 156.816L170.321 159.114C169.878 159.322 169.626 159.771 169.642 160.225Z" fill="#E4C26D"/>
<path d="M166.063 155.771C166.07 155.977 166.134 156.183 166.254 156.37C166.606 156.923 167.345 157.083 167.894 156.729C174.68 152.37 183.102 149.189 191.618 147.773C192.26 147.664 192.677 147.055 192.594 146.404C192.486 145.759 191.873 145.32 191.226 145.428C182.401 146.896 173.66 150.2 166.611 154.728C166.244 154.961 166.049 155.365 166.063 155.771Z" fill="#E4C26D"/>
<path d="M158.178 160.915C158.186 161.149 158.268 161.388 158.42 161.589C158.816 162.115 159.563 162.216 160.086 161.82L163.237 159.416C163.763 159.021 163.859 158.275 163.46 157.752C163.064 157.232 162.317 157.13 161.797 157.526L158.65 159.925C158.331 160.17 158.166 160.542 158.178 160.915Z" fill="#E4C26D"/>
<path d="M178.434 168.847C178.441 169.058 178.505 169.272 178.631 169.461C178.995 170.008 179.733 170.156 180.281 169.794L184.707 166.847C185.255 166.484 185.4 165.743 185.04 165.198C184.676 164.653 183.939 164.503 183.394 164.867L178.965 167.815C178.609 168.051 178.421 168.448 178.434 168.847Z" fill="#E4C26D"/>
<path d="M186.424 163.938C186.432 164.166 186.506 164.393 186.65 164.591C187.032 165.125 187.776 165.242 188.308 164.86C189.519 163.985 190.942 163.428 192.424 163.25C193.075 163.172 193.522 162.564 193.463 161.93C193.382 161.279 192.794 160.811 192.141 160.892C190.26 161.116 188.453 161.821 186.917 162.931C186.584 163.172 186.411 163.556 186.424 163.938Z" fill="#E4C26D"/>
<path d="M186.225 172.508C186.244 173.045 186.631 173.521 187.181 173.631C194.606 175.126 201.544 174.646 207.248 172.243C207.855 171.989 208.139 171.292 207.879 170.69C207.628 170.084 206.929 169.8 206.325 170.054C201.064 172.27 194.605 172.7 187.65 171.3C187.007 171.173 186.38 171.59 186.249 172.232C186.229 172.325 186.222 172.417 186.225 172.508Z" fill="#E4C26D"/>
<path d="M194.576 166.332C194.581 166.461 194.606 166.591 194.653 166.715C194.887 167.328 195.574 167.638 196.187 167.403C201.417 165.412 208.635 164.406 213.738 164.962C214.392 165.034 214.978 164.561 215.05 163.908C215.119 163.254 214.649 162.67 213.996 162.598C208.555 162.007 200.885 163.07 195.341 165.181C194.853 165.368 194.559 165.838 194.576 166.332Z" fill="#E4C26D"/>
<path d="M210.181 178.542C210.185 178.671 210.212 178.799 210.26 178.925C210.495 179.537 211.179 179.847 211.792 179.612C215.727 178.115 220.262 178.04 224.235 179.41C224.856 179.626 225.531 179.295 225.744 178.677C225.963 178.055 225.632 177.378 225.008 177.164C220.518 175.614 215.393 175.7 210.948 177.39C210.459 177.576 210.164 178.049 210.181 178.542Z" fill="#E4C26D"/>
<path d="M214.892 185.022C214.908 185.508 215.225 185.954 215.717 186.11C218.131 186.886 220.422 185.779 222.443 184.802C224.14 183.981 225.744 183.206 227.244 183.501C227.889 183.628 228.514 183.209 228.639 182.566C228.777 181.922 228.35 181.297 227.706 181.17C225.425 180.721 223.293 181.752 221.409 182.661C219.632 183.521 217.953 184.334 216.441 183.848C215.818 183.648 215.147 183.992 214.946 184.618C214.905 184.752 214.887 184.887 214.892 185.022Z" fill="#E4C26D"/>
<path d="M225.496 190.443C225.514 190.962 225.873 191.429 226.402 191.557C230.992 192.673 237.352 194.876 241.579 199.034C242.044 199.495 242.796 199.49 243.256 199.022C243.721 198.554 243.711 197.801 243.243 197.34C238.633 192.8 231.846 190.433 226.964 189.248C226.326 189.094 225.682 189.482 225.529 190.122C225.502 190.229 225.493 190.336 225.496 190.443Z" fill="#E4C26D"/>
<path d="M193.429 175.578C193.437 175.831 193.53 176.083 193.702 176.293C196.496 179.665 200.222 182.226 203.514 184.487C206.832 186.773 210.262 189.137 212.843 192.239C215.599 195.578 216.921 199.442 216.453 202.829C216.371 203.478 216.821 204.079 217.47 204.169C218.122 204.255 218.719 203.801 218.809 203.15C219.349 199.104 217.851 194.575 214.671 190.724C211.88 187.37 208.312 184.908 204.861 182.528C201.544 180.25 198.113 177.894 195.533 174.778C195.114 174.271 194.366 174.202 193.859 174.619C193.564 174.865 193.416 175.219 193.429 175.578Z" fill="#E4C26D"/>
<path d="M217.812 194.409C217.821 194.653 217.905 194.896 218.068 195.101C219.984 197.543 221.308 200.444 221.906 203.493C222.032 204.138 222.656 204.558 223.301 204.431C223.945 204.308 224.365 203.688 224.238 203.039C223.573 199.621 222.083 196.369 219.935 193.635C219.531 193.12 218.785 193.028 218.267 193.433C217.957 193.677 217.8 194.045 217.812 194.409Z" fill="#E4C26D"/>
<path d="M198.933 178.739C198.947 179.161 199.187 179.562 199.597 179.764C205.295 182.588 210.638 186.132 215.475 190.299C215.975 190.727 216.724 190.672 217.152 190.173C217.583 189.676 217.524 188.926 217.028 188.498C212.04 184.202 206.528 180.547 200.651 177.634C200.061 177.341 199.35 177.584 199.059 178.17C198.968 178.352 198.926 178.547 198.933 178.739Z" fill="#E4C26D"/>
<path d="M224.666 195.938C224.677 196.259 224.817 196.572 225.079 196.797C227.982 199.3 230.914 203.247 234.038 208.863C234.358 209.436 235.079 209.643 235.654 209.325C236.228 209.003 236.435 208.283 236.115 207.708C232.854 201.845 229.749 197.685 226.631 194.997C226.132 194.57 225.384 194.625 224.954 195.121C224.75 195.357 224.656 195.65 224.666 195.938Z" fill="#E4C26D"/>
<path d="M174.114 168.79C174.124 169.073 174.235 169.352 174.449 169.574C176.539 171.748 178.857 173.699 181.335 175.367C182.363 176.059 183.418 176.703 184.474 177.347C186.122 178.35 187.675 179.298 189.129 180.419C194.213 184.343 197.733 190.239 200.843 195.444C201.18 196.007 201.908 196.191 202.471 195.853C203.032 195.516 203.221 194.788 202.882 194.225C199.666 188.84 196.02 182.738 190.58 178.538C189.025 177.337 187.342 176.311 185.713 175.319C184.687 174.692 183.659 174.067 182.664 173.395C180.324 171.82 178.136 169.98 176.16 167.926C175.704 167.451 174.953 167.437 174.481 167.894C174.227 168.135 174.103 168.466 174.114 168.79Z" fill="#E4C26D"/>
<path d="M159.233 162.523C159.241 162.774 159.328 163.023 159.503 163.233C160.25 164.146 161.001 165.098 161.764 166.058C165.36 170.588 169.074 175.273 173.759 178.323C174.451 178.771 175.157 179.192 175.86 179.612C177.491 180.585 179.031 181.504 180.348 182.696C183.237 185.32 184.911 189.211 186.386 192.642C186.645 193.244 187.347 193.524 187.948 193.264C188.551 193.007 188.829 192.303 188.57 191.704C186.998 188.049 185.217 183.907 181.943 180.936C180.451 179.585 178.737 178.56 177.081 177.571C176.4 177.165 175.718 176.758 175.051 176.329C170.696 173.493 167.102 168.964 163.627 164.581C162.855 163.61 162.095 162.652 161.34 161.729C160.923 161.221 160.177 161.148 159.668 161.562C159.368 161.806 159.221 162.164 159.233 162.523Z" fill="#E4C26D"/>
<path d="M150.16 154.519C150.163 154.621 150.183 154.724 150.214 154.83C150.741 156.552 151.027 158.694 151.328 160.958C151.741 164.057 152.168 167.26 153.289 169.727C154.79 173.024 157.52 175.352 160.158 177.602C161.307 178.585 162.497 179.599 163.538 180.663C163.996 181.131 164.749 181.14 165.218 180.68C165.688 180.224 165.692 179.471 165.236 178.999C164.121 177.86 162.89 176.812 161.701 175.797C159.147 173.616 156.734 171.56 155.453 168.742C154.475 166.596 154.074 163.57 153.686 160.646C153.368 158.279 153.071 156.043 152.484 154.132C152.29 153.503 151.63 153.152 151 153.343C150.477 153.506 150.142 153.996 150.16 154.519Z" fill="#E4C26D"/>
<path d="M169.125 183.614C169.134 183.902 169.238 184.333 169.687 184.756C170.425 185.435 171.142 186.109 171.865 186.787L172.553 187.432L174.254 185.775C171.157 182.299 171.036 182.16 170.236 182.258L169.622 182.331L169.138 183.189L169.125 183.614Z" fill="#E4C26D"/>
<path d="M148.696 173.991C148.706 174.281 148.823 174.571 149.044 174.791L150.654 176.427C151.119 176.89 151.873 176.889 152.335 176.424C152.802 175.961 152.802 175.211 152.336 174.744L150.727 173.112C150.263 172.647 149.51 172.647 149.043 173.11C148.802 173.355 148.685 173.674 148.696 173.991Z" fill="#E4C26D"/>
<path d="M144.464 168.835C144.472 169.051 144.54 169.264 144.668 169.457L146.271 171.863C146.636 172.407 147.374 172.554 147.921 172.188C148.465 171.82 148.608 171.085 148.243 170.539L146.638 168.13C146.274 167.585 145.536 167.442 144.992 167.808C144.636 168.044 144.451 168.44 144.464 168.835Z" fill="#E4C26D"/>
<path d="M132.732 142.684C132.746 143.111 132.989 143.515 133.4 143.715C137.39 145.659 139.485 151.151 139.455 155.364C139.448 155.677 139.434 155.998 139.416 156.321C139.368 157.226 139.314 158.169 139.502 159.147C139.743 160.387 140.313 161.447 140.864 162.468C141.426 163.51 141.958 164.496 142.033 165.503C142.081 166.158 142.653 166.65 143.304 166.602C143.959 166.552 144.527 166.006 144.403 165.326C144.29 163.814 143.611 162.558 142.957 161.341C142.466 160.435 142.005 159.578 141.838 158.704C141.71 158.006 141.745 157.247 141.789 156.444C141.808 156.093 141.826 155.746 141.832 155.395C141.895 150.354 139.36 143.977 134.439 141.578C133.852 141.291 133.138 141.534 132.85 142.123C132.762 142.304 132.725 142.496 132.732 142.684Z" fill="#E4C26D"/>
<path d="M135.085 164.685C135.093 164.923 135.175 165.162 135.332 165.368L137.136 167.708C137.535 168.228 138.281 168.325 138.802 167.926C139.323 167.524 139.424 166.778 139.02 166.257L137.216 163.92C136.82 163.4 136.073 163.3 135.553 163.702C135.236 163.942 135.072 164.314 135.085 164.685Z" fill="#E4C26D"/>
<path d="M107.485 138.174C107.503 138.69 107.86 139.156 108.383 139.288C112.3 140.274 116.42 142.288 120.991 145.439C126.48 149.246 129.756 155.925 132.389 161.289C132.678 161.882 133.391 162.122 133.979 161.835C134.566 161.543 134.809 160.833 134.522 160.242C131.768 154.628 128.343 147.643 122.344 143.485C117.533 140.167 113.16 138.039 108.966 136.981C108.33 136.823 107.681 137.208 107.522 137.845C107.493 137.955 107.482 138.067 107.485 138.174Z" fill="#E4C26D"/>
<path d="M121.25 151.863C121.259 152.125 121.354 152.386 121.54 152.601L125.153 156.743C125.584 157.242 126.334 157.296 126.83 156.867C127.324 156.438 127.377 155.688 126.951 155.192L123.336 151.042C122.908 150.547 122.155 150.492 121.661 150.926C121.377 151.167 121.238 151.517 121.25 151.863Z" fill="#E4C26D"/>
<path d="M220.435 276.313C220.455 276.891 220.896 277.385 221.486 277.452C225.239 277.883 229.061 277.772 232.844 277.128C233.491 277.016 233.937 276.412 233.812 275.756C233.704 275.109 233.089 274.673 232.442 274.784C228.884 275.394 225.288 275.496 221.76 275.091C221.105 275.016 220.519 275.485 220.444 276.136C220.436 276.196 220.433 276.256 220.435 276.313Z" fill="#E4C26D"/>
<path d="M235.802 274.861C235.823 275.494 236.341 276.003 236.98 276.008L241.074 276.047C241.73 276.056 242.266 275.528 242.273 274.872C242.331 274.192 241.754 273.678 241.098 273.672L237.004 273.633C236.347 273.625 235.81 274.15 235.803 274.806C235.801 274.827 235.801 274.844 235.802 274.861Z" fill="#E4C26D"/>
<path d="M228.208 286.771C228.223 287.206 228.476 287.614 228.897 287.809C231.289 288.917 233.94 288.919 236.28 288.921L243.78 288.916C244.434 288.915 244.968 288.382 244.966 287.727C245.022 287.054 244.434 286.537 243.779 286.54L236.281 286.543C234.083 286.542 231.815 286.542 229.897 285.654C229.3 285.378 228.594 285.636 228.319 286.231C228.236 286.408 228.202 286.591 228.208 286.771Z" fill="#E4C26D"/>
<path d="M248.078 288.972C248.094 289.458 248.409 289.904 248.901 290.061L252.29 291.158C252.915 291.361 253.586 291.018 253.788 290.395C253.995 289.769 253.65 289.098 253.022 288.898L249.633 287.801C249.008 287.599 248.338 287.943 248.135 288.566C248.091 288.7 248.073 288.838 248.078 288.972Z" fill="#E4C26D"/>
<path d="M233.736 296.891C233.75 297.313 233.99 297.712 234.393 297.915C237.874 299.652 241.909 300.22 245.756 299.515C246.638 299.354 247.508 299.125 248.375 298.897C248.945 298.746 249.514 298.595 250.085 298.47C253.69 297.653 257.474 297.728 261.032 298.683C261.666 298.852 262.319 298.475 262.489 297.841C262.655 297.208 262.282 296.556 261.648 296.386C257.718 295.333 253.542 295.251 249.564 296.149C248.966 296.284 248.368 296.442 247.77 296.598C246.962 296.811 246.149 297.026 245.328 297.178C241.982 297.791 238.476 297.297 235.453 295.788C234.868 295.494 234.154 295.735 233.861 296.321C233.771 296.506 233.729 296.7 233.736 296.891Z" fill="#E4C26D"/>
<path d="M280.208 327.581C280.23 328.236 280.781 328.749 281.437 328.726C289.495 328.452 296.227 333.663 302.734 338.701C303.792 339.516 304.84 340.327 305.881 341.107C306.408 341.499 307.152 341.392 307.544 340.867C307.94 340.339 307.831 339.595 307.302 339.203C306.273 338.431 305.234 337.629 304.191 336.82C297.347 331.527 290.271 326.048 281.356 326.352C280.701 326.374 280.185 326.923 280.208 327.581Z" fill="#E4C26D"/>
<path d="M266.152 320.846C266.171 321.399 266.574 321.88 267.142 321.978C269.902 322.445 272.695 322.461 275.395 322.476C278.455 322.494 281.347 322.51 284.202 323.126C287.999 323.945 290.93 325.386 294.326 327.056L296.426 328.082C297.021 328.365 297.73 328.117 298.012 327.524C298.3 326.939 298.047 326.224 297.457 325.941L295.373 324.924C291.987 323.258 288.784 321.683 284.705 320.803C281.608 320.136 278.453 320.116 275.408 320.099C272.803 320.083 270.106 320.068 267.538 319.634C266.891 319.524 266.277 319.959 266.169 320.607C266.154 320.687 266.149 320.766 266.152 320.846Z" fill="#E4C26D"/>
<path d="M252.755 313.949C252.756 313.979 252.76 314.009 252.763 314.038C252.831 314.692 253.419 315.161 254.074 315.092L264.048 314.012C266.136 313.784 267.981 313.663 269.4 314.476C269.97 314.802 270.696 314.603 271.023 314.033C271.347 313.464 271.149 312.738 270.581 312.414C268.376 311.153 265.725 311.44 263.789 311.648L253.815 312.728C253.192 312.797 252.734 313.334 252.755 313.949Z" fill="#E4C26D"/>
<path d="M272.383 314.898C272.401 315.452 272.807 315.935 273.375 316.03L275.897 316.444C276.546 316.551 277.157 316.112 277.265 315.466C277.386 314.826 276.937 314.208 276.29 314.101L273.768 313.687C273.118 313.577 272.508 314.016 272.4 314.662C272.385 314.742 272.38 314.822 272.383 314.898Z" fill="#E4C26D"/>
<path d="M278.854 315.749C278.873 316.293 279.268 316.77 279.824 316.877L282.061 317.299C282.703 317.422 283.325 316.995 283.448 316.35C283.571 315.71 283.145 315.087 282.503 314.964L280.266 314.541C279.62 314.419 278.999 314.842 278.876 315.488C278.859 315.575 278.851 315.665 278.854 315.749Z" fill="#E4C26D"/>
<path d="M240.253 304.633C240.268 305.068 240.521 305.475 240.937 305.671C245.6 307.852 250.774 307.517 255.779 307.192C257.122 307.104 258.456 307.016 259.775 306.98C266.374 306.79 273.124 307.981 279.294 310.427C279.905 310.668 280.594 310.37 280.838 309.76C281.077 309.143 280.779 308.459 280.168 308.217C273.701 305.653 266.626 304.405 259.707 304.604C258.36 304.643 256.995 304.732 255.625 304.821C250.703 305.139 246.052 305.442 241.947 303.517C241.35 303.24 240.645 303.497 240.367 304.091C240.284 304.266 240.247 304.452 240.253 304.633Z" fill="#E4C26D"/>
<path d="M160.106 231.842C163.889 233.385 168.503 233.291 173.821 231.565C175.883 230.891 177.89 230.048 179.828 229.234C181.869 228.375 183.983 227.486 186.11 226.822C190.604 225.408 195.642 225.452 198.945 226.937L199.92 224.77C195.299 222.695 189.391 223.298 185.399 224.556C183.167 225.25 181 226.161 178.906 227.042C177.011 227.84 175.053 228.664 173.087 229.304C168.317 230.853 164.25 230.967 161.004 229.64L160.106 231.842Z" fill="#E4C26D"/>
<path d="M152.872 224.078C158.29 227.393 165.558 226.753 170.7 225.632C172.359 225.268 174.007 224.831 175.659 224.396C179.529 223.372 183.184 222.406 186.993 222.316L186.938 219.941C182.846 220.038 178.884 221.087 175.052 222.1C173.433 222.527 171.818 222.955 170.192 223.312C165.478 224.337 158.855 224.952 154.108 222.052L152.872 224.078Z" fill="#E4C26D"/>
<path d="M147.815 218.303C155.25 221.296 163.458 219.887 171.916 218.043L171.409 215.719C163.33 217.482 155.512 218.838 148.705 216.1L147.815 218.303Z" fill="#E4C26D"/>
<path d="M79.6032 64.2859C77.2079 68.7853 69.9167 70.1423 66.6839 70.5294C64.0824 70.8341 61.3064 70.3689 58.6236 69.921C54.7995 69.2804 50.8448 68.6238 47.0514 70.0271C45.0871 70.7552 43.4222 71.959 41.8085 73.1228C40.2346 74.2599 38.7518 75.3302 37.0687 75.9419C33.9603 77.0625 30.5692 76.5038 26.9804 75.9137C25.8034 75.7223 24.6296 75.5282 23.4656 75.3974C17.603 74.7345 11.5587 75.6828 6.16964 78.0738C7.27783 75.0475 8.47588 74.3124 9.56206 73.6472C10.5761 73.0227 11.7275 72.3197 12.3155 70.2395C12.5165 69.5179 12.7132 68.7863 12.9067 68.0498C13.8273 64.5899 14.6946 61.3175 16.7485 58.7245C21.4402 52.7963 30.3023 52.8765 35.1722 53.451L36.5593 53.6251C38.9192 53.9289 41.3593 54.2478 43.811 53.8007C44.6356 53.6505 45.4542 53.4141 46.2696 53.1728C47.5219 52.8046 48.7022 52.4567 49.8686 52.4857C52.2534 52.5547 54.3861 54.1481 56.6463 55.8389C59.4233 57.9141 62.299 60.0621 65.8901 59.3728C66.4539 59.2646 67.0039 59.0806 67.5519 58.8916C68.2258 58.6626 68.8651 58.4425 69.4573 58.4452C71.12 58.4319 72.9622 59.4019 74.2716 60.9725C75.9682 62.9801 78.045 63.9243 79.6032 64.2859ZM2.44043 82.7051L4.82202 81.3931C10.3703 78.3353 16.8987 77.0451 23.1972 77.7592C24.3232 77.8862 25.4563 78.074 26.5952 78.2591C30.3239 78.8725 34.1835 79.5043 37.8771 78.1781C39.8752 77.454 41.5625 76.2316 43.2015 75.0517C44.7531 73.9307 46.2171 72.8686 47.8782 72.2551C51.078 71.0704 54.5513 71.6517 58.2304 72.2642C61.077 72.7422 64.0268 73.2319 66.963 72.8879C70.8766 72.4242 80.0437 70.6346 82.2747 64.078C82.5854 63.808 82.7239 63.437 82.7121 63.089L82.6958 62.6113L82.9195 61.8L81.9531 61.9524L80.5434 61.2551L80.3637 62.0192C79.3698 61.8368 77.5944 61.2206 76.0914 59.4455C74.3151 57.316 71.8299 56.0525 69.453 56.0672C68.4733 56.0675 67.5756 56.3727 66.7812 56.6464C66.3391 56.7937 65.8993 56.9511 65.4411 57.0379C62.8799 57.532 60.543 55.7827 58.0699 53.9338C55.6111 52.0997 53.0746 50.202 49.9349 50.113C48.3927 50.0713 46.9721 50.4884 45.5969 50.8938C44.8641 51.1095 44.1314 51.3277 43.3859 51.4624C41.2984 51.8412 39.1448 51.5634 36.8655 51.2696L35.4458 51.0915C30.0879 50.4598 20.294 50.414 14.8852 57.2516C12.5246 60.2315 11.5523 63.8966 10.6128 67.4411C10.4207 68.1623 10.2295 68.8784 10.0272 69.5924C9.69103 70.7789 9.20245 71.0779 8.31781 71.6217C6.76066 72.5776 4.62831 73.8863 3.09582 80.0656L2.44043 82.7051Z" fill="#E4C26D"/>
<path d="M139.753 31.281C135.457 30.7429 133.694 32.1763 131.303 34.4908L130.382 35.3716C130.037 35.6962 129.705 36.0356 129.373 36.3725C128.687 37.0775 128.038 37.7379 127.292 38.2135C125.308 39.4841 122.783 39.3715 120.111 39.2539C118.035 39.1591 115.888 39.0668 113.816 39.6078C110.026 40.6015 107.363 43.4416 104.786 46.1871C103.843 47.1959 102.899 48.2047 101.897 49.1137C97.0591 53.5182 90.2511 55.7057 83.7445 55.0368L83.7769 54.9924C88.2771 48.819 92.9284 42.4344 93.2218 34.705L93.2319 34.2392C93.2475 33.5011 93.2597 32.8037 93.4529 32.2122C93.7048 31.4075 94.3627 30.6246 95.4102 29.8743C97.2382 28.5811 99.4785 27.8767 101.705 27.8976C103.503 27.9076 105.283 28.3583 107.169 28.8334C109.732 29.4813 112.383 30.1517 115.133 29.6664C117.24 29.2921 119.05 28.3174 120.801 27.3779C122.315 26.5633 123.744 25.7949 125.3 25.4291C128.57 24.6592 132.264 24.9659 134.712 26.2078C136.808 27.2735 138.142 29.0874 139.55 31.0056C139.617 31.0974 139.684 31.1893 139.753 31.281ZM79.5762 56.7453L81.4031 57.0952C89.1785 58.5832 97.6439 56.1995 103.498 50.8702C104.554 49.9085 105.553 48.8444 106.52 47.8145C108.975 45.1977 111.294 42.728 114.421 41.9095C116.142 41.4541 118.02 41.5403 120.009 41.6253C122.93 41.7549 125.949 41.8913 128.571 40.2201C129.549 39.5967 130.323 38.8023 131.076 38.034C131.38 37.7235 131.684 37.4079 132.005 37.1096C132.34 36.7955 132.656 36.4898 132.956 36.1972C135.435 33.7984 136.566 32.7018 142.412 34.2402L146.321 35.267L143.592 32.2874C142.829 31.4562 142.168 30.5554 141.466 29.6C139.954 27.5429 138.391 25.4112 135.79 24.0906C132.87 22.6079 128.538 22.2236 124.753 23.1154C122.894 23.5525 121.258 24.4322 119.674 25.2847C118.016 26.1779 116.45 27.0171 114.721 27.3252C112.473 27.7221 110.179 27.1439 107.753 26.5321C105.811 26.0411 103.804 25.532 101.725 25.5188C99.003 25.4943 96.2703 26.3554 94.032 27.9398C92.5295 29.0134 91.6032 30.1742 91.1901 31.4879C90.8905 32.4087 90.8725 33.3148 90.8568 34.1928L90.8467 34.6281C90.5809 41.6215 86.146 47.7062 81.8563 53.5927L79.5762 56.7453Z" fill="#E4C26D"/>
<path d="M324.252 368.696C311.109 359.759 294.957 356.063 279.274 352.473C264.27 349.04 248.754 345.488 235.752 337.414C230.854 334.371 226.227 330.624 221.751 327.001C214.507 321.134 207.019 315.068 198.097 311.738C196.116 310.994 194.069 310.393 192.085 309.811C189.059 308.92 185.932 308 183.119 306.593C174.304 302.184 168.698 293.289 163.953 284.334C150.982 259.835 142.116 233.591 137.584 206.287C147.022 211.688 158.483 214.724 170.563 217.922C188.408 222.647 206.863 227.535 220.005 240.649C221.824 242.468 223.554 244.47 225.229 246.406C228.245 249.893 231.361 253.496 235.19 256.295C237.522 258.003 240.077 259.378 242.546 260.71C244.72 261.881 246.964 263.09 248.998 264.499C255.096 268.735 259.696 275.121 263.754 280.755C284.325 309.334 304.656 338.891 324.252 368.696ZM134.422 201.531L134.829 204.128C139.266 232.601 148.359 259.959 161.857 285.446C166.784 294.749 172.644 304.009 182.052 308.718C185.059 310.221 188.288 311.172 191.415 312.091C193.357 312.661 195.363 313.251 197.265 313.964C205.823 317.157 213.162 323.1 220.255 328.847C224.787 332.516 229.472 336.311 234.497 339.433C247.835 347.718 263.546 351.314 278.742 354.791C297.276 359.032 314.781 363.039 328.316 374.812L334.766 380.425L330.087 373.264C309.293 341.44 287.624 309.849 265.683 279.366C261.51 273.577 256.788 267.016 250.351 262.548C248.209 261.062 245.904 259.818 243.673 258.618C241.274 257.325 238.794 255.989 236.593 254.378C232.983 251.737 229.954 248.237 227.028 244.851C225.326 242.882 223.566 240.846 221.685 238.967C208.089 225.401 189.322 220.43 171.169 215.626C158.311 212.222 146.163 209.002 136.643 202.944L134.422 201.531Z" fill="#E4C26D"/>
<path d="M136.393 205.779L166.981 239.873C172.477 245.994 178.158 252.327 185.327 256.862C189.663 259.608 194.473 261.625 199.127 263.576C205.607 266.294 211.725 268.86 216.788 273.243C221.973 277.729 225.435 283.574 229.1 289.762C231.954 294.58 234.907 299.561 238.734 303.794C246.142 311.994 256.29 316.842 266.102 321.53C269.186 323.003 272.374 324.527 275.409 326.125C294.664 336.247 311.126 351.211 323.025 369.399L325.013 368.099C312.896 349.571 296.125 334.329 276.516 324.021C273.441 322.403 270.23 320.87 267.128 319.387C257.52 314.796 247.586 310.052 240.498 302.199C236.83 298.145 233.94 293.268 231.147 288.55C227.545 282.47 223.819 276.186 218.341 271.447C212.992 266.815 206.411 264.055 200.045 261.386C195.483 259.472 190.767 257.494 186.596 254.854C179.706 250.496 174.136 244.286 168.748 238.285L138.163 204.191L136.393 205.779Z" fill="#E4C26D"/>
<path d="M78.9482 46.7611C79.653 67.4841 83.4706 88.9941 90.3845 111.08C99.5235 140.279 113.796 169.985 135.292 204.564L137.312 203.308C115.924 168.907 101.731 139.375 92.6495 110.37C81.4491 74.5778 78.4521 40.3252 83.7417 8.56818L81.3985 8.17732C79.3131 20.6807 78.4994 33.563 78.9482 46.7611Z" fill="#E4C26D"/>
<path d="M243.646 217.197C241.03 207.978 230.291 203.472 221.442 202.409C218.655 202.076 215.792 201.923 213.022 201.779C206.078 201.411 199.522 201.065 193.673 198.112C192.485 197.509 191.303 196.783 190.163 196.078C188.337 194.953 186.448 193.788 184.359 193.012C181.53 191.954 178.511 191.671 175.593 191.397C172.166 191.077 168.928 190.773 166.088 189.306C164.278 188.366 162.731 187.011 161.095 185.577C160.18 184.775 159.263 183.975 158.297 183.243C154.177 180.116 149.232 178.3 144.451 176.543C138.475 174.344 132.83 172.268 128.797 167.879C126.102 164.947 124.463 161.304 122.725 157.451C121.869 155.555 120.986 153.596 119.966 151.736C116.628 145.641 111.791 140.528 106.749 135.984C115.256 138.233 124.726 136.062 133.963 133.939C138.352 132.933 142.892 131.888 147.246 131.343L149.155 131.095C155.455 130.268 161.971 129.41 167.818 131.447C172.506 133.086 176.257 136.364 180.226 139.836C183.175 142.411 186.221 145.075 189.703 147.029C192.089 148.367 194.7 149.393 197.223 150.383C202.116 152.302 206.736 154.116 209.667 157.982C211.41 160.273 212.425 163.219 213.41 166.071C214.806 170.118 216.248 174.305 219.802 177.003C221.373 178.191 223.16 178.92 224.891 179.627C225.604 179.918 226.32 180.209 227.016 180.535C233.37 183.469 238.448 189.426 240.953 196.876C241.606 198.824 242.746 200.763 243.847 202.638C245.427 205.327 247.06 208.104 247.15 210.745C247.229 213.074 246.107 215.151 243.646 217.197ZM97.7217 131.41C104.932 137.383 113.106 144.151 117.883 152.878C118.855 154.656 119.721 156.574 120.555 158.426C122.296 162.283 124.096 166.271 127.048 169.487C131.473 174.302 137.651 176.576 143.629 178.771C148.248 180.47 153.026 182.225 156.86 185.134C157.782 185.833 158.655 186.6 159.528 187.364C161.2 188.83 162.928 190.345 164.995 191.417C168.249 193.095 171.87 193.437 175.373 193.764C178.261 194.034 180.994 194.292 183.527 195.238C185.402 195.935 187.108 196.987 188.915 198.101C190.099 198.83 191.323 199.586 192.601 200.233C198.9 203.412 206.014 203.787 212.896 204.15C215.628 204.296 218.451 204.445 221.158 204.768C230.441 205.883 240.397 210.851 241.705 219.442L241.99 221.325L243.555 220.24C247.693 217.375 249.644 214.242 249.523 210.665C249.412 207.421 247.625 204.377 245.899 201.435C244.809 199.583 243.781 197.835 243.206 196.12C240.492 188.051 234.956 181.584 228.015 178.378C227.29 178.04 226.539 177.732 225.788 177.425C224.127 176.749 222.559 176.109 221.238 175.109C218.259 172.848 216.995 169.18 215.655 165.296C214.61 162.27 213.533 159.14 211.562 156.546C208.225 152.148 203.075 150.125 198.095 148.171C195.643 147.209 193.109 146.214 190.866 144.958C187.596 143.123 184.644 140.543 181.79 138.048C177.824 134.581 173.724 130.994 168.601 129.203C162.218 126.978 155.421 127.873 148.846 128.738L146.95 128.985C142.477 129.547 137.878 130.601 133.432 131.622C120.76 134.53 108.792 137.28 99.2259 129.571L97.7217 131.41Z" fill="#E4C26D"/>
<path d="M203.633 123.07C176.35 125.49 171.662 119.403 167.88 114.488C165.451 111.333 163.151 108.351 156.042 108.613C153.018 108.719 149.955 109.128 146.99 109.524C141.174 110.304 135.675 111.038 130.319 109.725C106.08 103.756 90.6199 90.4678 84.369 70.236C84.3578 70.2008 84.3486 70.1681 84.3377 70.1379C92.7983 69.8629 101.158 67.175 108.052 62.4895L109.148 61.7324C111.253 60.2619 113.242 58.8767 115.515 58.6366C117.186 58.4602 118.98 58.9486 120.565 59.3806C126.882 61.086 133.199 62.7813 139.521 64.4764L141.226 64.9322C146.526 66.3544 153.12 68.1241 157.218 72.6393C158.887 74.48 160.203 76.8414 161.479 79.1252C163.764 83.2213 166.124 87.4573 170.675 89.1873C172.113 89.7386 173.597 89.9476 175.036 90.153C175.967 90.2841 176.899 90.4152 177.808 90.6437C181.551 91.5974 183.627 95.0469 185.822 98.6985C187.571 101.602 189.38 104.605 192.171 106.655C199.128 111.752 200.423 115.116 201.918 119.015C202.412 120.303 202.92 121.621 203.633 123.07ZM80.5643 67.7711L81.643 69.5734C81.7569 69.7958 81.8901 70.2644 82.0955 70.9365C88.615 92.0214 104.646 105.847 129.751 112.031C135.546 113.456 141.523 112.653 147.306 111.881C150.213 111.49 153.219 111.09 156.127 110.986C162.019 110.77 163.687 112.937 165.997 115.938C170.217 121.421 175.472 128.244 205.635 125.268L207.461 125.089L206.55 123.497C205.435 121.546 204.773 119.826 204.138 118.161C202.573 114.092 201.096 110.248 193.576 104.735C191.168 102.973 189.486 100.176 187.86 97.4719C185.512 93.5687 183.081 89.5335 178.393 88.3423C177.403 88.0911 176.386 87.9426 175.371 87.799C174.001 87.604 172.711 87.4215 171.522 86.9685C167.781 85.5443 165.728 81.865 163.553 77.9686C162.215 75.5699 160.828 73.0838 158.978 71.0407C154.41 66.0099 147.443 64.1383 141.844 62.6348L140.137 62.1791C133.817 60.4839 127.498 58.7887 121.183 57.0856C119.492 56.6243 117.382 56.05 115.268 56.2745C112.383 56.5761 110.048 58.2071 107.787 59.7846L106.716 60.523C99.7631 65.2512 91.2259 67.8282 82.675 67.7833L80.5643 67.7711Z" fill="#E4C26D"/>
<path d="M145.901 338.001C142.155 326.517 137.632 314.134 129.544 304.346C121.183 294.226 109.524 287.36 98.2493 280.722C84.6619 272.721 71.8277 265.165 64.0932 252.382C60.2558 246.03 58.0864 238.563 57.8218 230.783C57.5105 221.63 59.9073 212.532 64.573 205.165C65.3989 203.863 66.2967 202.591 67.1971 201.313C69.8506 197.542 72.6001 193.638 73.5323 188.972C73.8806 187.231 73.9969 185.366 74.1146 183.567C74.3747 179.415 74.6229 175.495 77.5299 173.479C78.6337 172.713 79.9994 172.35 81.4439 171.969C82.6216 171.658 83.8367 171.339 84.985 170.776C88.9159 168.861 91.0677 164.622 92.6366 161.529C93.0538 160.709 93.4784 159.896 93.9134 159.075C96.5324 154.11 99.4593 148.557 100.443 139.189C101.375 141.846 100.781 144.933 100.022 148.174C99.2971 151.266 98.5388 154.53 99.1816 158.122C100.789 167.074 105.372 175.161 109.643 181.892L111.286 184.456C115.4 190.841 119.653 197.44 120.97 204.817C121.223 206.212 121.376 207.682 121.427 209.188C121.635 215.302 120.16 221.61 118.733 227.713C117.063 234.861 115.339 242.266 116.15 249.678C117.352 260.566 123.737 269.726 129.916 278.581C132.532 282.333 135.238 286.212 137.493 290.149C143.269 300.246 146.532 311.776 146.931 323.497C147.099 328.427 146.75 333.287 145.901 338.001ZM55.4438 230.864C55.7222 239.048 58.0118 246.914 62.0596 253.612C70.1045 266.907 83.8004 274.971 97.0423 282.769C108.143 289.305 119.62 296.063 127.71 305.859C136.51 316.507 140.825 329.944 145 342.942L146.27 346.903L147.282 342.867C148.853 336.622 149.531 330.078 149.304 323.416C148.892 311.312 145.521 299.4 139.553 288.97C137.249 284.94 134.512 281.016 131.864 277.221C125.58 268.212 119.648 259.703 118.512 249.417C117.741 242.386 119.42 235.212 121.045 228.255C122.506 222.001 124.019 215.536 123.8 209.107C123.745 207.489 123.582 205.905 123.311 204.397C121.907 196.555 117.525 189.751 113.285 183.171L111.652 180.618C107.503 174.083 103.055 166.249 101.523 157.702C100.95 154.555 101.661 151.595 102.334 148.719C102.861 146.483 103.401 144.173 103.322 141.858C103.23 139.153 102.291 136.763 100.451 134.552L98.4802 132.182L98.3514 135.262C97.8704 146.477 94.7905 152.317 91.8132 157.966C91.3736 158.8 90.9366 159.623 90.5168 160.457C88.6786 164.075 86.9177 167.192 83.9427 168.639C83.0025 169.098 81.9509 169.378 80.8372 169.673C79.2566 170.089 77.6201 170.522 76.1739 171.525C72.3255 174.197 72.0299 178.884 71.7407 183.416C71.6314 185.139 71.5173 186.921 71.2017 188.508C70.3669 192.681 67.8827 196.211 65.2529 199.947C64.3336 201.252 63.4113 202.56 62.5665 203.893C57.6473 211.661 55.1164 221.237 55.4438 230.864Z" fill="#E4C26D"/>
<path d="M82.9292 69.4684C88.7666 77.1928 99.5686 78.4532 108.324 78.6896L109.594 78.7252C118.17 78.9397 127.034 79.1622 133.339 84.3323C135.095 85.7706 136.546 87.5196 138.082 89.3698C139.628 91.235 141.227 93.162 143.173 94.7516C149.021 99.5379 156.616 100.368 163.961 101.174C168.25 101.646 172.69 102.131 176.705 103.403C187.763 106.924 196.153 116.69 202.897 124.537L204.697 122.987C197.76 114.914 189.124 104.863 177.425 101.138C173.182 99.792 168.625 99.2959 164.216 98.8125C156.897 98.011 149.981 97.2517 144.677 92.9124C142.909 91.4668 141.451 89.7105 139.909 87.8528C138.369 85.9976 136.78 84.0779 134.847 82.4955C127.91 76.8077 118.209 76.5628 109.653 76.3476L108.388 76.3143C100.165 76.0929 90.0534 74.9515 84.8228 68.0331L82.9292 69.4684Z" fill="#E4C26D"/>
<path d="M104.822 135.329C110.012 140.611 117.446 141.508 124.638 142.375C129.896 143.01 135.333 143.667 139.819 146.032C143.764 148.106 146.809 151.362 150.03 154.811C152.638 157.604 155.338 160.488 158.567 162.703C163.072 165.787 168.326 167.387 173.407 168.936C174.568 169.291 175.73 169.644 176.884 170.017C184.457 172.45 191.894 175.769 199.084 178.974L216.157 186.595C222.012 189.214 228.066 191.923 232.871 196.175C238.968 201.584 242.765 209.351 243.281 217.488L245.652 217.338C245.094 208.579 241.01 200.219 234.446 194.395C229.369 189.903 223.147 187.117 217.129 184.424L200.117 176.832C192.805 173.572 185.308 170.227 177.611 167.755C176.449 167.379 175.274 167.022 174.1 166.664C169.191 165.167 164.112 163.621 159.912 160.742C156.896 158.675 154.288 155.884 151.765 153.188C148.551 149.749 145.225 146.192 140.928 143.927C136.057 141.358 130.397 140.673 124.921 140.015C117.826 139.16 111.125 138.35 106.516 133.661L104.822 135.329Z" fill="#E4C26D"/>
<path d="M86.6635 212.276C86.8522 217.823 87.608 223.54 88.4868 229.338C89.635 236.982 91.0702 246.495 95.5535 254.396C99.5572 261.457 105.705 266.909 111.656 272.181C114.06 274.315 116.549 276.52 118.841 278.789C134.646 294.415 143.918 316.126 144.322 338.388L146.701 338.346C146.224 315.508 136.753 293.159 120.514 277.101C118.173 274.783 115.658 272.557 113.232 270.404C107.429 265.261 101.431 259.943 97.6191 253.223C93.3523 245.705 92.015 236.82 90.8353 228.983C88.8014 215.54 87.4008 202.552 92.5204 191.478C93.0827 190.271 93.719 189.09 94.3494 187.911C95.6559 185.486 97.0083 182.974 97.7325 180.203C98.7645 176.303 98.4621 172.264 98.1647 168.364C98.0768 167.217 97.9924 166.073 97.9407 164.936C97.5057 156.264 99.213 147.513 102.782 139.591L100.611 138.614C96.8962 146.877 95.1499 155.943 95.5637 165.044C95.6183 166.207 95.7066 167.374 95.7952 168.544C96.0891 172.423 96.3617 176.084 95.433 179.598C94.7807 182.099 93.5557 184.377 92.2595 186.785C91.6017 188.008 90.9458 189.229 90.3654 190.478C87.2336 197.254 86.4025 204.602 86.6635 212.276Z" fill="#E4C26D"/>
<path d="M83.0759 52.8951L83.8291 55.1484C88.47 53.6018 91.6831 49.891 94.794 46.3032C97.664 42.9881 100.381 39.8537 104.094 38.3387C105.852 37.6227 107.752 37.3114 109.763 36.981C110.909 36.7945 112.057 36.6054 113.177 36.3435C116.004 35.6776 118.673 34.5389 121.261 33.4386C122.738 32.811 124.211 32.1785 125.719 31.6388C129.202 30.3758 137.053 29.2313 141.883 33.9403L143.544 32.2382C137.881 26.7157 129.167 27.8564 124.911 29.4026C123.366 29.9588 121.846 30.6057 120.33 31.2524C117.722 32.3636 115.258 33.4088 112.633 34.0296C111.563 34.2796 110.473 34.4592 109.381 34.6388C107.329 34.9705 105.207 35.3199 103.197 36.1386C98.9583 37.8699 95.9256 41.366 92.9955 44.7467C89.964 48.2479 87.0978 51.5527 83.0759 52.8951Z" fill="#E4C26D"/>
<path d="M106.587 33.0982C106.63 34.3659 106.94 35.622 107.522 36.7493L109.632 35.6551C108.499 33.4732 108.792 30.6247 110.348 28.7227L108.508 27.2185C107.175 28.851 106.515 30.9895 106.587 33.0982Z" fill="#E4C26D"/>
<path d="M18.9054 68.072C18.9114 68.2473 18.9549 68.4213 19.0421 68.5837C19.347 69.1659 20.064 69.3883 20.6467 69.0836C21.9505 68.3957 23.5747 67.5419 24.7949 66.1676C25.3114 65.5828 25.714 64.946 26.0701 64.3413C26.4291 63.739 26.7735 63.1194 27.117 62.4947C28.406 60.1668 29.6258 57.9659 31.5989 56.594C32.1375 56.2171 32.2723 55.4774 31.8953 54.9383C31.5184 54.3992 30.7797 54.2692 30.2399 54.6411C27.8145 56.3336 26.4041 58.8818 25.0401 61.3445C24.705 61.9459 24.3716 62.5474 24.0279 63.1288C23.7289 63.6324 23.401 64.1548 23.0166 64.5926C22.1543 65.563 20.9815 66.221 19.5397 66.9796C19.1221 67.1973 18.8904 67.63 18.9054 68.072Z" fill="#E4C26D"/>
<path d="M20.6695 68.5691C20.6791 68.851 20.787 69.1297 20.9961 69.349C22.0086 70.4082 23.4213 70.7544 24.7976 70.9645L25.2501 71.033C26.715 71.2528 28.1001 71.4601 29.3199 72.0341C30.4478 72.568 31.4376 73.4246 32.4857 74.3275C33.7303 75.4017 35.0201 76.5151 36.6548 77.1666C37.2651 77.4078 37.9574 77.1096 38.199 76.5011C38.4375 75.8877 38.1389 75.1984 37.5335 74.957C36.2696 74.4556 35.1856 73.5209 34.037 72.5274C32.9183 71.5607 31.7575 70.5599 30.3306 69.8861C28.798 69.1625 27.1721 68.9202 25.6023 68.6811L25.157 68.6148C24.265 68.4798 23.2637 68.2824 22.7208 67.7083C22.2664 67.2354 21.5137 67.2177 21.0372 67.6689C20.7842 67.9115 20.6584 68.2439 20.6695 68.5691Z" fill="#E4C26D"/>
<path d="M36.9094 66.7579C36.924 67.1872 37.1741 67.5933 37.5873 67.7929C40.1029 68.9842 42.5215 70.3974 44.7732 71.9919C45.3098 72.3705 46.0507 72.2435 46.4298 71.7067C46.808 71.1698 46.6813 70.4289 46.1471 70.0529C43.7801 68.3758 41.2448 66.8953 38.6082 65.6445C38.0134 65.3646 37.3048 65.6176 37.0248 66.2096C36.9395 66.3855 36.9032 66.5749 36.9094 66.7579Z" fill="#E4C26D"/>
<path d="M41.6379 65.6584C41.6462 65.9023 41.7331 66.1486 41.896 66.3542C42.305 66.8693 43.0501 66.9559 43.5658 66.5492C46.3839 64.3092 48.7854 61.623 50.6979 58.5592C51.0427 58.0032 50.8776 57.2712 50.3194 56.9214C49.763 56.5741 49.0287 56.744 48.6811 57.3001C46.9133 60.1326 44.6959 62.6167 42.0876 64.6868C41.781 64.9312 41.6255 65.2951 41.6379 65.6584Z" fill="#E4C26D"/>
<path d="M56.7932 63.4669C56.8016 63.7159 56.8895 63.9672 57.0597 64.1776C59.36 66.9888 62.5682 69.034 66.1011 69.9388C66.7356 70.1004 67.3832 69.7146 67.5443 69.0809C67.7213 68.4365 67.3228 67.7964 66.6894 67.6348C63.6435 66.8558 60.8801 65.0931 58.9032 62.6728C58.4865 62.163 57.736 62.0893 57.2285 62.5059C56.9297 62.7475 56.781 63.1087 56.7932 63.4669Z" fill="#E4C26D"/>
<path d="M28.2898 66.4103C28.2977 66.6441 28.3741 66.878 28.5262 67.0814C28.9174 67.6048 29.6632 67.7117 30.1896 67.3199C31.2911 66.494 32.247 65.5 33.0268 64.3645C33.3998 63.8228 33.2656 63.0847 32.7213 62.709C32.1821 62.3381 31.4416 62.4752 31.0686 63.017C30.4362 63.9414 29.6598 64.7461 28.7646 65.415C28.442 65.6599 28.277 66.0343 28.2898 66.4103Z" fill="#E4C26D"/>
<path d="M32.6964 62.0252C32.7068 62.3301 32.8332 62.631 33.0724 62.8569C33.5555 63.3033 34.3077 63.2752 34.7515 62.7947L36.2296 61.2132C36.6814 60.7349 36.6527 59.9831 36.1745 59.5339C35.6944 59.0873 34.9422 59.1129 34.4952 59.5884L33.0132 61.1776C32.7919 61.4166 32.6861 61.7229 32.6964 62.0252Z" fill="#E4C26D"/>
<path d="M36.6982 58.1172C36.71 58.4627 36.8695 58.8006 37.1644 59.0271C37.6886 59.4239 38.4362 59.3222 38.8327 58.7974L39.8595 57.4425C40.2538 56.9153 40.1471 56.1711 39.6251 55.7794C39.1029 55.3825 38.3564 55.4868 37.9619 56.0089L36.9399 57.3612C36.7695 57.5857 36.6893 57.8555 36.6982 58.1172Z" fill="#E4C26D"/>
<path d="M18.661 71.0515C18.6781 71.5545 19.0135 72.0111 19.5223 72.1565C20.4543 72.4199 21.3349 72.9597 22.0031 73.6796C22.4498 74.1604 23.2009 74.1883 23.6813 73.7396C24.1649 73.2933 24.1901 72.5446 23.7415 72.0614C22.7701 71.0134 21.538 70.2567 20.1748 69.8707C19.5428 69.6912 18.8865 70.0569 18.7043 70.6888C18.6726 70.8094 18.6569 70.932 18.661 71.0515Z" fill="#E4C26D"/>
<path d="M33.5505 69.3466C33.5645 69.7581 33.7935 70.1497 34.1849 70.3577C35.1795 70.8834 36.1767 71.3963 37.1708 71.9094C37.7534 72.2126 38.4677 71.9823 38.7709 71.3997C39.0738 70.8171 38.844 70.1026 38.2614 69.7993C37.2725 69.2887 36.2803 68.7756 35.2908 68.2548C34.7111 67.9464 33.9933 68.1717 33.6852 68.7519C33.5874 68.9409 33.5436 69.1433 33.5505 69.3466Z" fill="#E4C26D"/>
<path d="M48.2299 65.144C48.2446 65.5784 48.4981 65.9869 48.917 66.1812C49.8266 66.6081 50.7347 67.0452 51.6448 67.4797L52.5183 67.9002C53.1103 68.1827 53.8191 67.9322 54.1039 67.3401C54.3787 66.7458 54.1362 66.0393 53.5444 65.7568L52.6707 65.3363C51.7547 64.8994 50.8426 64.4599 49.9217 64.0283C49.3281 63.7509 48.6196 64.009 48.3417 64.6035C48.2612 64.7792 48.2237 64.9636 48.2299 65.144Z" fill="#E4C26D"/>
<path d="M18.1095 61.7966C18.1228 62.1878 18.3283 62.5624 18.6924 62.7789C19.2582 63.1132 19.9869 62.9256 20.3185 62.3624C22.3585 58.9179 24.9709 55.8684 28.0811 53.3057C28.5824 52.8842 28.6612 52.1363 28.2396 51.6318C27.8231 51.1245 27.0754 51.0533 26.5679 51.4699C23.2435 54.2129 20.4542 57.4693 18.2754 61.1525C18.158 61.3524 18.1021 61.5781 18.1095 61.7966Z" fill="#E4C26D"/>
<path d="M15.6315 65.8283C15.6443 66.2069 15.8376 66.5716 16.1828 66.7914C16.7363 67.1439 17.4709 66.979 17.8216 66.4253L18.556 65.2889C18.9159 64.7425 18.7687 64.0048 18.2197 63.6394C17.6739 63.279 16.9358 63.4287 16.573 63.9777C16.3187 64.3603 16.0679 64.7554 15.817 65.1505C15.6821 65.3611 15.6236 65.5971 15.6315 65.8283Z" fill="#E4C26D"/>
<path d="M98.1848 212.723C98.1884 212.83 98.2071 212.939 98.2446 213.047C101.389 222.796 108.141 231.538 116.767 237.029C117.322 237.383 118.056 237.219 118.411 236.665C118.764 236.112 118.601 235.377 118.047 235.023C109.876 229.824 103.483 221.548 100.504 212.317C100.304 211.693 99.6334 211.35 99.0094 211.55C98.4915 211.719 98.1671 212.204 98.1848 212.723Z" fill="#E4C26D"/>
<path d="M91.9141 195.79C91.9181 195.91 91.94 196.029 91.9796 196.146L95.6241 206.46C95.8407 207.077 96.5216 207.405 97.139 207.185C97.7606 206.969 98.0834 206.294 97.8683 205.67L94.224 195.355C94.0043 194.737 93.3246 194.412 92.7061 194.631C92.2064 194.807 91.8969 195.287 91.9141 195.79Z" fill="#E4C26D"/>
<path d="M99.504 191.67C99.5127 191.925 99.6027 192.18 99.778 192.391C102.185 195.27 103.231 198.948 104.338 202.842C104.707 204.138 105.077 205.435 105.497 206.699C108.09 214.531 113.048 221.726 119.454 226.958C119.962 227.376 120.71 227.298 121.125 226.792C121.543 226.284 121.466 225.533 120.956 225.118C114.897 220.168 110.207 213.361 107.752 205.95C107.342 204.717 106.983 203.455 106.625 202.19C105.496 198.229 104.331 194.134 101.606 190.868C101.184 190.363 100.434 190.297 99.9296 190.717C99.6379 190.963 99.492 191.318 99.504 191.67Z" fill="#E4C26D"/>
<path d="M96.6043 174.635C96.6114 174.842 96.672 175.045 96.7876 175.23C100.155 180.535 102.933 186.235 105.045 192.172L105.694 194.038C106.672 196.866 107.68 199.792 109.371 202.398C112.358 207.013 117.134 210.107 121.347 212.837C121.899 213.196 122.633 213.036 122.993 212.489C123.346 211.935 123.191 211.2 122.642 210.843C118.63 208.243 114.081 205.295 111.364 201.103C109.835 198.743 108.912 196.081 107.943 193.261L107.282 191.374C105.113 185.272 102.256 179.413 98.7969 173.956C98.4451 173.403 97.7093 173.239 97.1541 173.59C96.7884 173.824 96.5905 174.228 96.6043 174.635Z" fill="#E4C26D"/>
<path d="M95.5529 160.153C95.5535 160.171 95.554 160.186 95.5576 160.201C96.4152 171.663 104.643 184.287 114.693 189.569C115.273 189.874 115.994 189.649 116.299 189.069C116.605 188.485 116.38 187.77 115.799 187.465C106.411 182.533 98.7285 170.738 97.9269 160.024C97.8769 159.37 97.3079 158.88 96.6507 158.928C96.0138 158.978 95.5314 159.521 95.5529 160.153Z" fill="#E4C26D"/>
<path d="M86.9079 220.964C86.9129 221.11 86.9466 221.258 87.0072 221.4C90.539 229.46 96.7446 236.179 104.485 240.324C105.017 240.609 105.561 240.885 106.101 241.161C107.815 242.026 109.43 242.846 110.767 244.015C113.113 246.059 114.544 249.164 115.806 251.904C116.081 252.5 116.787 252.76 117.383 252.486C117.981 252.209 118.243 251.503 117.965 250.909C116.602 247.951 115.057 244.601 112.328 242.225C110.766 240.86 108.941 239.937 107.179 239.04C106.651 238.775 106.126 238.507 105.61 238.229C98.3351 234.333 92.5049 228.019 89.1843 220.447C88.9225 219.848 88.2216 219.573 87.6207 219.837C87.1594 220.037 86.8918 220.492 86.9079 220.964Z" fill="#E4C26D"/>
<path d="M93.4492 240.93C93.4598 241.24 93.5922 241.544 93.8364 241.768C94.8369 242.678 96.1765 244.466 97.4712 246.195C98.0789 247.004 98.6814 247.803 99.2441 248.515C107.092 256.161 112.439 259.49 118.417 260.495C119.065 260.604 119.678 260.169 119.788 259.522C119.914 258.875 119.46 258.261 118.816 258.152C114.265 257.385 109.495 255.182 101.001 246.925C100.551 246.341 99.9682 245.562 99.3741 244.77C98.0125 242.951 96.6023 241.07 95.4377 240.01C94.9499 239.57 94.198 239.605 93.7594 240.089C93.5409 240.328 93.4391 240.632 93.4492 240.93Z" fill="#E4C26D"/>
<path d="M106.087 266.777C106.102 267.223 106.371 267.645 106.809 267.83C110.134 269.246 113.571 270.708 117.327 270.769C118.012 270.778 118.695 270.74 119.381 270.7C120.206 270.653 121.03 270.602 121.851 270.657C122.704 270.708 124.251 270.948 125.124 271.996C125.543 272.502 126.294 272.568 126.798 272.148C127.3 271.729 127.368 270.979 126.95 270.476C125.879 269.189 124.122 268.411 122.002 268.287C121.069 268.222 120.142 268.276 119.243 268.327C118.614 268.363 117.987 268.402 117.364 268.394C114.075 268.338 110.854 266.967 107.739 265.643C107.136 265.387 106.439 265.667 106.182 266.272C106.111 266.436 106.081 266.608 106.087 266.777Z" fill="#E4C26D"/>
<path d="M122.384 281.297C122.4 281.786 122.718 282.232 123.207 282.389L133.474 285.667C134.501 285.994 135.483 286.388 135.732 287.05C135.964 287.666 136.646 287.975 137.262 287.747C137.877 287.516 138.187 286.836 137.957 286.215C137.266 284.38 135.271 283.746 134.199 283.403L123.937 280.126C123.312 279.925 122.642 280.27 122.438 280.895C122.395 281.028 122.379 281.166 122.384 281.297Z" fill="#E4C26D"/>
<path d="M131.845 295.26C137.021 297.063 139.549 297.944 140.859 298.322C140.962 298.363 141.065 298.407 141.166 298.447L141.188 298.413C142.137 298.663 142.272 298.565 142.507 298.39L143.01 298.017L142.963 296.628L142.086 296.255C138.959 294.965 135.721 293.969 132.587 293.002L131.845 295.26Z" fill="#E4C26D"/>
<path d="M64.8107 256.72C64.8317 257.335 65.3246 257.838 65.9515 257.865C66.6061 257.893 67.158 257.383 67.1874 256.728C67.5402 248.406 69.2393 240.257 72.2387 232.513C73.3682 229.588 74.855 226.272 77.3279 223.815C78.1373 223.018 79.0415 222.321 79.9981 221.582C80.8637 220.916 81.728 220.245 82.5274 219.503C84.4625 217.711 87.8741 214.197 88.9335 210.818C89.1258 210.19 88.7802 209.526 88.1557 209.329C87.5258 209.132 86.8611 209.48 86.6639 210.107C86.0214 212.16 83.8702 215.02 80.9113 217.762C80.1639 218.455 79.3564 219.077 78.5482 219.7C77.5772 220.451 76.5701 221.225 75.6579 222.125C72.8621 224.899 71.2398 228.501 70.0247 231.654C66.9293 239.642 65.1742 248.044 64.8135 256.628C64.8114 256.658 64.8097 256.69 64.8107 256.72Z" fill="#E4C26D"/>
<path d="M64.7916 229.327C64.8075 229.793 65.1004 230.224 65.5634 230.397C66.1774 230.63 66.8601 230.318 67.0936 229.706C68.1087 227.005 68.6505 224.15 69.1744 221.388C69.8639 217.731 70.5194 214.276 72.1818 211.187C74.4501 206.986 78.5236 203.798 82.116 200.985L84.1111 199.437C86.2319 197.795 87.7666 196.61 90.2305 194.511C90.7279 194.088 90.7937 193.338 90.3643 192.836C89.938 192.335 89.188 192.276 88.6886 192.701C86.269 194.763 84.752 195.935 82.6581 197.556L80.6534 199.112C76.8752 202.07 72.5966 205.42 70.0908 210.058C68.2516 213.473 67.5333 217.273 66.8368 220.948C66.3348 223.608 65.8127 226.36 64.8706 228.867C64.8122 229.02 64.7865 229.175 64.7916 229.327Z" fill="#E4C26D"/>
<path d="M77.216 191.907C77.2343 192.446 77.622 192.918 78.1721 193.03C78.8154 193.159 79.4391 192.74 79.5701 192.097C80.4163 187.88 84.3395 185.005 88.1335 182.221C92.4092 179.082 97.8539 170.234 97.9535 165.011C97.9471 164.358 97.4449 163.815 96.7886 163.799C96.1315 163.786 95.59 164.311 95.5764 164.965C95.4952 169.294 90.3862 177.619 86.8521 180.215C82.7624 183.213 78.2666 186.511 77.2394 191.631C77.2197 191.723 77.2129 191.814 77.216 191.907Z" fill="#E4C26D"/>
<path d="M75.379 199.373C75.3983 199.94 75.8213 200.426 76.4022 200.509C77.0512 200.601 77.6538 200.148 77.7432 199.499C77.7678 199.32 77.7945 198.908 77.826 198.404C77.8578 197.851 77.924 196.723 78.0138 196.066C78.4612 195.693 78.5838 195.037 78.2715 194.529C77.9991 194.086 77.3293 193.761 76.8279 193.887C75.6899 194.169 75.6216 195.369 75.4527 198.264C75.4262 198.681 75.4128 199.019 75.3919 199.167C75.3815 199.237 75.3768 199.307 75.379 199.373Z" fill="#E4C26D"/>
<path d="M83.4674 177.768C83.4831 178.228 83.77 178.662 84.2289 178.837C84.8399 179.071 85.5291 178.768 85.7646 178.154C86.9029 175.196 88.6441 172.404 90.8016 170.083C91.1351 169.726 91.482 169.375 91.8288 169.025C92.4828 168.361 93.1337 167.698 93.7245 166.986C96.3147 163.856 97.6213 159.714 97.4849 155.705C97.4496 155.048 96.896 154.543 96.2384 154.578C95.5828 154.61 94.9819 155.106 95.1106 155.824C95.3123 159.274 94.1114 162.792 91.8956 165.472C91.3509 166.131 90.7406 166.742 90.1365 167.355C89.7743 167.721 89.4135 168.089 89.0645 168.462C86.6999 171.006 84.7919 174.06 83.5459 177.3C83.4855 177.453 83.4621 177.613 83.4674 177.768Z" fill="#E4C26D"/>
<path d="M76.1407 251.683C76.1552 252.109 76.1747 252.533 76.204 252.959C76.2471 253.613 76.8153 254.109 77.4705 254.064C78.1278 254.02 78.7354 253.422 78.5741 252.799C78.2089 246.996 79.2119 241.108 81.5516 235.788C82.2341 234.245 83.049 232.704 83.8353 231.216C84.7695 229.446 85.7374 227.615 86.5253 225.713C88.3397 221.336 88.755 217.394 87.7801 213.998C87.5976 213.367 86.9365 213.005 86.3068 213.187C85.6753 213.368 85.3161 214.026 85.4956 214.657C86.3154 217.523 85.9297 220.937 84.3294 224.804C83.5838 226.605 82.645 228.383 81.7348 230.107C80.9292 231.631 80.0956 233.206 79.3799 234.828C77.0547 240.109 75.9444 245.911 76.1407 251.683Z" fill="#E4C26D"/>
<path d="M81.4709 262.052L81.4749 262.116C81.7298 264.967 82.0683 267.815 82.4807 270.592L84.8428 270.346C84.2676 260.678 83.8203 260.698 82.6298 260.754L81.4564 260.809L81.4709 262.052Z" fill="#E4C26D"/>
<path d="M82.1755 257.237C82.1949 257.81 82.626 258.3 83.2135 258.374C83.8651 258.456 84.4596 257.996 84.5438 257.345C84.7183 255.963 84.8978 254.584 85.0904 253.201C85.1596 252.553 84.7217 251.949 84.075 251.862C83.4231 251.773 82.8235 252.224 82.7335 252.876C82.5424 254.266 82.3631 255.656 82.1837 257.045C82.176 257.11 82.1733 257.172 82.1755 257.237Z" fill="#E4C26D"/>
<path d="M86.9452 265.363C87.0556 268.609 87.8048 271.8 88.4859 274.708C88.6358 275.346 89.2741 275.741 89.9129 275.593C90.5538 275.442 90.9691 274.807 90.7972 274.164C89.8778 270.231 88.9157 266.166 89.4597 262.179C89.685 260.504 90.1663 258.881 90.6822 257.165C91.0387 255.965 91.3992 254.765 91.6689 253.546C92.715 248.781 92.4044 243.77 92.122 239.348C92.0817 238.694 91.5154 238.196 90.8601 238.239C90.2057 238.279 89.603 238.872 89.7515 239.498C90.0277 243.97 90.3252 248.596 89.3445 253.034C89.089 254.195 88.7464 255.34 88.4038 256.484C87.8873 258.213 87.3529 260.002 87.1034 261.864C86.9472 263.029 86.9056 264.2 86.9452 265.363Z" fill="#E4C26D"/>
<path d="M95.7119 273.168C95.7136 273.217 95.7171 273.266 95.7269 273.317L96.634 279.048C96.7347 279.698 97.3449 280.141 97.9903 280.037C98.6405 279.938 99.1104 279.319 98.9813 278.679L98.0717 272.943C97.9714 272.297 97.3632 271.852 96.7128 271.957C96.116 272.052 95.6918 272.577 95.7119 273.168Z" fill="#E4C26D"/>
<path d="M101.955 262.39C101.96 262.552 102.002 262.718 102.079 262.876C104.063 266.86 105.081 270.177 105.083 273.289C105.107 274.303 105.037 275.314 104.964 276.323C104.875 277.652 104.784 279.032 104.888 280.426C105.129 283.398 106.269 286.179 107.276 288.634C107.523 289.241 108.217 289.531 108.824 289.285C109.431 289.034 109.718 288.339 109.475 287.731C108.535 285.44 107.47 282.838 107.257 280.237C107.161 279.03 107.246 277.792 107.338 276.488C107.413 275.405 107.488 274.32 107.461 273.236C107.32 269.745 106.35 266.124 104.21 261.818C103.917 261.23 103.202 260.991 102.615 261.284C102.184 261.497 101.939 261.937 101.955 262.39Z" fill="#E4C26D"/>
<path d="M112.202 272.479C112.212 272.766 112.326 273.048 112.539 273.269C113.456 274.206 113.789 275.713 113.995 277.062C114.249 278.673 114.395 280.29 114.539 281.904C114.691 283.576 114.846 285.307 115.119 287.008C115.785 291.159 117.086 294.341 119.095 296.732C119.517 297.236 120.267 297.301 120.768 296.879C121.273 296.456 121.337 295.709 120.915 295.204C119.19 293.152 118.062 290.346 117.467 286.633C117.206 285.01 117.055 283.321 116.905 281.69C116.755 280.022 116.604 278.357 116.343 276.698C116.081 274.978 115.627 273.027 114.24 271.608C113.784 271.137 113.03 271.129 112.558 271.589C112.312 271.831 112.191 272.155 112.202 272.479Z" fill="#E4C26D"/>
<path d="M123.324 289.755C123.324 289.77 123.325 289.784 123.328 289.8C123.623 293.997 124.11 298.208 124.772 302.316C124.875 302.963 125.485 303.404 126.132 303.301C126.783 303.198 127.207 302.599 127.119 301.938C126.467 297.899 125.992 293.758 125.695 289.632C125.65 288.975 125.082 288.482 124.427 288.53C123.788 288.574 123.302 289.12 123.324 289.755Z" fill="#E4C26D"/>
<path d="M33.3956 175.179C33.4086 175.561 33.607 175.928 33.9532 176.145C34.5083 176.494 35.2411 176.328 35.5937 175.771C42.3973 164.929 51.9607 156.035 63.2513 150.051C68.7676 147.126 76.3204 143.125 79.3136 137.42C79.6217 136.84 79.3964 136.118 78.8139 135.817C78.2333 135.511 77.5137 135.734 77.2074 136.317C74.5588 141.369 67.3786 145.174 62.1348 147.952C50.4792 154.13 40.6047 163.314 33.5766 174.509C33.4486 174.717 33.3878 174.949 33.3956 175.179Z" fill="#E4C26D"/>
<path d="M32.249 164.886C32.2652 165.361 32.5652 165.798 33.039 165.968C33.6566 166.188 34.3352 165.865 34.5555 165.245C38.4113 154.408 47.1335 145.438 57.8844 141.247C59.3357 140.687 60.8272 140.201 62.322 139.715C66.0554 138.505 69.916 137.247 73.1367 134.774C76.5344 132.169 78.8607 128.478 80.915 125.221C81.2677 124.665 81.0977 123.93 80.5434 123.583C79.9879 123.233 79.2535 123.4 78.9027 123.954C76.958 127.042 74.7523 130.543 71.6915 132.89C68.7905 135.115 65.294 136.252 61.5864 137.456C60.0514 137.956 58.5166 138.453 57.026 139.033C45.6369 143.47 36.4022 152.971 32.3177 164.451C32.267 164.592 32.2442 164.743 32.249 164.886Z" fill="#E4C26D"/>
<path d="M36.6842 144.664C36.6966 145.03 36.8787 145.387 37.2073 145.61C37.751 145.976 38.4884 145.834 38.8544 145.29C43.0486 139.081 49.6594 134.687 56.997 133.235C57.4212 133.152 57.8508 133.076 58.2834 133C60.2095 132.663 62.2023 132.31 63.9754 131.214C64.531 130.872 64.7047 130.139 64.3598 129.579C64.0161 129.023 63.2818 128.85 62.7242 129.192C61.3397 130.05 59.6528 130.347 57.87 130.659C57.4226 130.74 56.9783 130.816 56.5362 130.903C48.5877 132.478 41.4241 137.236 36.8869 143.96C36.741 144.174 36.676 144.423 36.6842 144.664Z" fill="#E4C26D"/>
<path d="M68.1135 125.883C68.1212 126.109 68.1924 126.333 68.3342 126.531C68.7161 127.065 69.4583 127.188 69.992 126.808C74.1164 123.865 79.7658 119.837 81.688 113.836C81.8882 113.208 81.5426 112.543 80.9177 112.343C80.293 112.141 79.6231 112.487 79.4228 113.112C77.8681 117.969 73.6102 121.308 68.6107 124.871C68.276 125.112 68.1004 125.499 68.1135 125.883Z" fill="#E4C26D"/>
<path d="M70.799 117.789C70.8146 118.247 71.0983 118.677 71.5576 118.855C72.1688 119.093 72.8578 118.788 73.0932 118.177C74.1301 115.506 75.9519 113.071 78.2272 111.32C78.7483 110.924 78.8501 110.178 78.4427 109.655C78.0435 109.134 77.297 109.038 76.7772 109.437C74.1255 111.48 72.0859 114.205 70.8794 117.319C70.821 117.471 70.7937 117.632 70.799 117.789Z" fill="#E4C26D"/>
<path d="M17.6534 143.755C17.6671 144.156 17.8828 144.541 18.2596 144.752C18.8319 145.073 19.5552 144.868 19.8766 144.297C25.7304 133.866 36.7665 126.677 48.677 125.531L50.2458 125.392C54.2358 125.063 59.1994 124.652 61.7068 121.634C62.1287 121.132 62.0636 120.383 61.5525 119.961C61.0504 119.54 60.2997 119.612 59.8816 120.114C58.0078 122.365 53.5972 122.732 50.0481 123.025L48.4465 123.166C35.7775 124.386 24.0358 132.036 17.8051 143.132C17.6947 143.331 17.6463 143.547 17.6534 143.755Z" fill="#E4C26D"/>
<path d="M39.8664 119.401C39.8753 119.663 39.9723 119.919 40.1525 120.134C40.5817 120.631 41.3317 120.689 41.8279 120.26C45.1419 117.416 49.5301 116.531 54.176 115.598C56.1613 115.197 58.2148 114.781 60.1792 114.201C67.1569 112.13 73.1959 106.468 76.3268 99.0545C76.5934 98.4503 76.3003 97.7532 75.6935 97.4941C75.0897 97.2399 74.3949 97.5255 74.1382 98.1294C71.2774 104.893 65.8096 110.049 59.5037 111.922C57.6405 112.474 55.6393 112.877 53.7073 113.266C48.9657 114.221 44.0655 115.209 40.2812 118.459C39.9975 118.702 39.8546 119.053 39.8664 119.401Z" fill="#E4C26D"/>
<path d="M48.8785 110.589C48.8927 111.008 49.1247 111.405 49.523 111.608C50.1038 111.908 50.8231 111.678 51.1212 111.095C53.1995 107.057 57.9357 104.986 62.6136 103.214C65.8606 101.987 69.0559 100.787 71.9284 98.9523C74.2903 97.4451 77.4093 94.8261 78.8246 90.8941C79.045 90.2787 78.7238 89.5978 78.1063 89.3747C77.4906 89.154 76.8071 89.4723 76.5837 90.0903C75.4012 93.3887 72.7029 95.6424 70.652 96.9482C67.9856 98.6489 64.912 99.8065 61.9358 100.925C56.6626 102.928 51.4708 105.221 49.0087 110.007C48.9126 110.194 48.8718 110.394 48.8785 110.589Z" fill="#E4C26D"/>
<path d="M18.0577 137.082C18.071 137.473 18.2734 137.845 18.6325 138.062C19.1954 138.401 19.9274 138.219 20.2639 137.656C21.9803 134.804 24.1517 132.309 26.7164 130.248C27.2291 129.837 27.3108 129.089 26.8992 128.579C26.4874 128.069 25.7393 127.987 25.2268 128.396C22.4446 130.635 20.0863 133.338 18.2253 136.43C18.1031 136.635 18.0501 136.858 18.0577 137.082Z" fill="#E4C26D"/>
<path d="M19.4303 151.482C19.4423 151.835 19.612 152.18 19.9197 152.404C20.4484 152.788 21.1926 152.671 21.5788 152.139C25.0703 147.328 29.243 143.022 33.9799 139.336C34.4979 138.937 34.5928 138.188 34.1906 137.67C33.7864 137.152 33.0382 137.058 32.5203 137.46C27.6062 141.285 23.2773 145.753 19.6546 150.745C19.4944 150.969 19.4216 151.226 19.4303 151.482Z" fill="#E4C26D"/>
<path d="M22.1526 163.799C22.1706 164.33 22.5452 164.798 23.0887 164.917C23.7293 165.058 24.3612 164.65 24.5022 164.009C25.2452 160.586 28.9598 155.668 30.5256 153.71L42.5657 138.591C42.9735 138.079 42.8928 137.334 42.3769 136.921C41.8653 136.514 41.1171 136.598 40.7072 137.111L28.667 152.226C26.596 154.817 22.9957 159.732 22.1782 163.506C22.1586 163.603 22.1493 163.703 22.1526 163.799Z" fill="#E4C26D"/>
<path d="M31.7623 213.9C31.773 214.212 31.9076 214.521 32.1596 214.746C32.6443 215.183 33.396 215.141 33.8344 214.654L37.9697 210.064C38.408 209.572 38.3674 208.822 37.8798 208.386C37.3918 207.949 36.6402 207.991 36.2037 208.478L32.0667 213.067C31.8533 213.305 31.7523 213.604 31.7623 213.9Z" fill="#E4C26D"/>
<path d="M28.5295 210.783C28.5506 211.403 29.0516 211.91 29.683 211.928C30.3376 211.948 30.8872 211.43 30.9046 210.777C30.9687 208.601 32.3099 206.373 33.725 204.015C35.4289 201.18 37.1755 198.233 36.811 195.079C36.7331 194.426 36.14 193.962 35.4921 194.041C34.8381 194.121 34.3984 194.724 34.453 195.363C34.7393 197.731 33.2588 200.185 31.6893 202.789C30.1773 205.307 28.6126 207.909 28.5297 210.706C28.5305 210.731 28.5286 210.755 28.5295 210.783Z" fill="#E4C26D"/>
<path d="M41.0988 176.19C41.1126 176.597 41.3364 176.987 41.72 177.196C42.298 177.508 43.0179 177.293 43.3312 176.715C45.4141 172.874 49.4573 170.55 54.1384 168.116L60.5675 164.78C61.1464 164.48 61.3773 163.76 61.0724 163.18C60.7726 162.598 60.0551 162.368 59.4706 162.673L53.0445 166.007C48.0086 168.623 43.6436 171.152 41.2399 175.584C41.1353 175.777 41.0918 175.987 41.0988 176.19Z" fill="#E4C26D"/>
<path d="M30.2228 190.733C30.2437 191.348 30.7369 191.85 31.3608 191.879C32.0155 191.909 32.5705 191.401 32.5998 190.744C32.6778 188.948 33.4277 187.042 34.2185 185.023C35.3794 182.056 36.5844 178.988 35.6778 175.964C35.4916 175.334 34.8306 174.977 34.2011 175.166C33.5716 175.353 33.2048 176.016 33.4019 176.644C34.0633 178.883 33.0636 181.446 32.0041 184.157C31.1778 186.267 30.3242 188.449 30.2257 190.638C30.2237 190.67 30.2218 190.703 30.2228 190.733Z" fill="#E4C26D"/>
<path d="M4.7694 78.4648L6.93386 79.4442C10.1392 72.3508 18.9924 70.0938 22.6507 69.4531C25.4774 68.9551 28.4221 68.7201 31.269 68.4961C35.1699 68.1879 39.2029 67.8702 43.106 66.8651C44.2052 66.5784 45.2926 66.2438 46.3799 65.9067C48.2578 65.324 50.0324 64.7727 51.8798 64.4912C56.0065 63.8676 60.3903 64.6647 64.6313 65.4361C69.9348 66.4028 75.4163 67.3991 80.6966 65.7494L81.2774 65.5668L81.4693 64.9855L80.2684 64.3778L79.9884 63.4818C75.2668 64.9573 70.3072 64.0552 65.0584 63.0968C60.6257 62.2912 56.0418 61.4577 51.5227 62.143C49.4984 62.4509 47.5545 63.0512 45.675 63.6365C44.6277 63.9621 43.5779 64.2877 42.5122 64.5631C38.8097 65.5156 34.881 65.8273 31.0811 66.1269C28.1796 66.3553 25.1752 66.5923 22.2382 67.1119C13.7227 68.6045 7.35474 72.7431 4.7694 78.4648Z" fill="#E4C26D"/>
<path d="M31.9744 166.388C32.0066 167.333 32.0695 168.279 32.1604 169.223C32.7202 174.997 34.3462 180.619 35.9172 186.061C36.8539 189.297 37.8224 192.645 38.5431 195.964C40.8732 206.66 40.8497 217.947 38.483 228.606L40.8024 229.121C43.2424 218.129 43.2658 206.492 40.8656 195.458C40.1272 192.06 39.1477 188.673 38.2016 185.4C36.6591 180.064 35.0627 174.548 34.5279 168.992C33.1347 154.638 39.0593 139.863 49.9895 130.459C52.1359 128.606 54.5204 126.907 56.83 125.259C61.0758 122.235 65.4692 119.105 68.7085 114.826C71.3501 111.338 73.0663 107.289 74.7263 103.369L81.825 86.5368L79.6316 85.6144L72.5498 102.416C70.9349 106.227 69.2765 110.14 66.8139 113.393C63.795 117.382 59.7402 120.269 55.4518 123.325C53.0974 125.002 50.6666 126.735 48.4369 128.655C37.6476 137.94 31.4945 152.186 31.9744 166.388Z" fill="#E4C26D"/>
<path d="M29.1654 179.135C29.1509 178.708 29.1263 178.279 29.0858 177.851C28.6966 173.502 27.0054 169.464 25.3693 165.555C24.9042 164.444 24.4392 163.335 24.007 162.218C21.5258 155.817 20.1585 149.354 19.9427 143.008C19.7899 138.517 20.232 134.162 21.255 130.063C24.027 118.991 31.256 109.731 40.6003 105.293C44.9934 103.206 49.9033 102.123 54.6517 101.076C58.615 100.201 62.7154 99.2989 66.5941 97.8088C72.6295 95.4925 77.4545 92.0524 80.9973 87.552L79.5552 117.917C79.1451 126.655 78.6306 137.53 72.8375 145.424C71.6347 147.07 70.1836 148.602 68.7763 150.082C67.1775 151.771 65.5261 153.516 64.1586 155.496C63.3007 156.736 62.5646 158.053 61.8518 159.329C61.1738 160.542 60.4764 161.799 59.6905 162.938C57.8338 165.631 55.2708 168.04 52.7919 170.37C48.4045 174.493 43.8698 178.759 42.8922 184.865C42.6199 186.528 42.6648 188.661 42.8213 190.871L43.0182 193.593C43.2665 196.916 43.5204 200.35 43.6355 203.734C43.9018 211.565 43.5728 220.446 39.5025 228.132C38.3669 223.986 36.2211 220.196 34.1323 216.507C32.6219 213.843 31.0609 211.087 29.9326 208.267C28.101 203.697 27.3154 198.711 27.6365 193.779C27.7674 191.867 28.0671 189.904 28.3611 188.005C28.8076 185.12 29.2675 182.137 29.1654 179.135ZM17.5679 143.089C17.7928 149.702 19.2138 156.427 21.7907 163.079C22.2308 164.214 22.7042 165.343 23.1777 166.471C24.7419 170.215 26.3615 174.081 26.7178 178.066C27.0044 181.235 26.5216 184.337 26.0142 187.642C25.7109 189.59 25.4007 191.605 25.2658 193.622C24.9171 198.917 25.7643 204.25 27.7272 209.151C28.9142 212.119 30.5156 214.946 32.0638 217.677C34.659 222.264 37.1152 226.594 37.7785 231.519L38.1971 234.622L39.9428 232.022C45.8396 223.237 46.3175 212.751 46.0081 203.654C45.8914 200.223 45.6387 196.764 45.3909 193.418L45.1912 190.703C45.0509 188.679 44.9998 186.713 45.24 185.242C46.0868 179.935 50.1363 176.131 54.4197 172.104C56.99 169.686 59.6472 167.189 61.6498 164.285C62.498 163.051 63.2267 161.746 63.929 160.486C64.6434 159.206 65.3197 157.992 66.1122 156.846C67.3754 155.018 68.8947 153.415 70.503 151.717C71.9559 150.179 73.4638 148.592 74.7551 146.826C80.9727 138.356 81.5025 127.086 81.9297 118.032L83.8063 78.5315L81.3539 82.7862C78.0163 88.5894 72.7628 92.8961 65.7457 95.5918C62.0296 97.0153 58.0181 97.8995 54.1376 98.7538C49.2599 99.8303 44.217 100.943 39.5787 103.148C29.6036 107.885 21.889 117.734 18.9512 129.485C17.8749 133.8 17.4076 138.376 17.5679 143.089Z" fill="#E4C26D"/>
</svg>
