<svg width="627" height="717" viewBox="0 0 627 717" fill="none" xmlns="http://www.w3.org/2000/svg">
<path d="M258.183 716.398C295.107 656.471 333.285 594.503 354.862 525.946C378.992 449.289 377.161 374.698 349.717 315.91C328.132 269.66 291.744 233.22 256.561 197.985L190.999 132.333L188.536 134.793L254.098 200.44C289.076 235.467 325.234 271.687 346.566 317.38C373.642 375.379 375.413 449.077 351.543 524.9C330.1 593.044 292.03 654.827 255.218 714.574L258.183 716.398Z" fill="#E4C26D"/>
<path d="M359.758 342.425C367.89 313.373 377.065 280.601 373.873 250.088C372.109 233.261 366.838 216.929 361.741 201.133C359.122 193.019 356.413 184.622 354.222 176.285C346.294 146.095 347.857 121.66 358.858 103.65L355.896 101.839C344.378 120.682 342.682 146.028 350.859 177.17C353.073 185.6 355.796 194.038 358.43 202.2C363.475 217.829 368.687 233.983 370.413 250.449C373.538 280.3 364.457 312.737 356.443 341.357L359.758 342.425Z" fill="#E4C26D"/>
<path d="M368.735 224.984C375.179 191.319 386.373 170.128 403.958 158.309L402.02 155.422C377.835 171.676 369.49 202.532 365.32 224.329L368.735 224.984Z" fill="#E4C26D"/>
<path d="M305.899 254.924L309.277 254.106C305.836 239.88 298.541 226.933 291.487 214.414C284.69 202.353 277.663 189.883 274.247 176.456C272.562 169.86 271.725 162.918 270.921 156.203C270.3 151.047 269.656 145.716 268.633 140.511C265.624 125.176 259.139 110.414 249.88 97.8209L247.078 99.882C256.033 112.066 262.305 126.348 265.218 141.181C266.219 146.259 266.855 151.523 267.465 156.62C268.287 163.447 269.136 170.5 270.877 177.312C274.407 191.189 281.55 203.864 288.459 216.122C295.397 228.432 302.57 241.167 305.899 254.924Z" fill="#E4C26D"/>
<path d="M339.977 303.188L341.975 300.338C323.344 287.261 301.439 272.51 277.268 263.035C251.256 252.834 225.676 250.237 203.298 255.501C188.696 258.927 174.857 265.784 161.471 272.417C142.435 281.852 124.421 290.773 104.335 290.773C103.837 290.773 103.334 290.769 102.832 290.754L102.754 294.237C124.28 294.724 143.982 284.966 163.015 275.531C176.226 268.991 189.883 262.22 204.094 258.886C231.509 252.428 258.321 259.337 275.996 266.275C299.809 275.609 321.51 290.222 339.977 303.188Z" fill="#E4C26D"/>
<path d="M201.81 258.648L203.183 255.452C201.397 254.69 199.622 253.897 197.844 253.105C190.15 249.675 182.193 246.133 173.67 244.712C163.804 243.06 153.785 244.355 144.094 245.601C141.72 245.906 139.346 246.211 136.984 246.472C126.545 247.629 113.2 248.16 102.612 241.951L100.856 244.954C112.33 251.68 126.4 251.14 137.367 249.931C139.752 249.664 142.14 249.355 144.536 249.05C153.975 247.837 163.733 246.576 173.097 248.142C181.185 249.489 188.934 252.941 196.427 256.282C198.223 257.078 200.013 257.878 201.81 258.648Z" fill="#E4C26D"/>
<path d="M192.163 324.353C206.49 293.24 241.289 269.404 276.781 266.387L276.483 262.923C239.805 266.037 203.83 290.703 189.001 322.902L192.163 324.353Z" fill="#E4C26D"/>
<path d="M335.877 575.392C379.148 547.754 413.955 515.019 439.327 478.099C467.992 436.417 483.498 388.541 482.992 343.291L479.51 343.328C480.016 387.871 464.722 435.029 436.463 476.127C411.354 512.668 376.882 545.079 334.002 572.464L335.877 575.392Z" fill="#E4C26D"/>
<path d="M465.92 428.308C469.67 395.89 460.466 362.437 440.666 336.514L437.902 338.627C457.158 363.836 466.109 396.377 462.464 427.906L465.92 428.308Z" fill="#E4C26D"/>
<path d="M477.791 389.282C487.084 377.674 502.073 371.16 516.895 372.243L517.147 368.776C501.195 367.589 485.079 374.624 475.075 387.109L477.791 389.282Z" fill="#E4C26D"/>
<path d="M500.269 478.921L502.159 476.001C484.071 464.271 459.688 462.467 440.045 471.406L441.481 474.572C460.067 466.12 483.144 467.82 500.269 478.921Z" fill="#E4C26D"/>
<path d="M174.659 319.791C179.559 319.791 184.343 321.96 187.45 325.591L187.859 326.063L188.476 326.175C189.291 326.316 192.182 327.979 194.47 331.264C195.854 333.247 197.364 336.383 196.698 340.059C196.129 343.24 194.012 345.9 191.765 348.716C190.426 350.401 189.042 352.142 187.941 354.07C187.479 354.881 187.074 355.718 186.664 356.558C185.973 357.991 185.31 359.352 184.406 360.483C182.025 363.482 177.941 364.862 174.343 366.079L144.931 375.971C143.982 376.287 141.411 377.132 140.89 379.509C140.667 380.45 140.875 381.295 141.043 381.975C141.091 382.18 141.147 382.388 141.177 382.6C141.519 384.806 138.986 386.897 136.322 387.998L134.916 388.553C133.662 389.04 132.337 389.557 131.099 390.231L136.158 359.944C137.084 354.408 138.041 348.686 140.693 343.731C144.495 336.629 151.646 331.584 157.952 327.135C162.178 324.166 166.969 320.792 172.26 319.973C173.048 319.854 173.852 319.791 174.659 319.791ZM125.209 404.338L130.079 395.692C131.18 393.739 133.61 392.794 136.177 391.793L137.646 391.213C141.46 389.635 145.288 386.41 144.614 382.083C144.573 381.782 144.495 381.462 144.421 381.142C144.339 380.826 144.242 380.431 144.28 380.283C144.302 380.182 144.458 379.792 146.028 379.274L175.455 369.375C179.313 368.069 184.112 366.447 187.126 362.652C188.272 361.22 189.046 359.62 189.797 358.076C190.173 357.302 190.541 356.532 190.962 355.788C191.925 354.103 193.171 352.541 194.492 350.881C196.903 347.853 199.395 344.717 200.117 340.677C201.002 335.825 199.087 331.796 197.319 329.274C194.961 325.888 191.821 323.597 189.726 322.916C185.318 318.065 178.35 315.524 171.731 316.536C165.634 317.484 160.489 321.097 155.95 324.289C149.324 328.965 141.82 334.263 137.628 342.09C134.703 347.548 133.654 353.828 132.728 359.371L125.209 404.338Z" fill="#E4C26D"/>
<path d="M99.9601 241.852C96.158 242.336 88.5017 240.382 82.5791 238.816L69.7441 235.341C66.6079 234.486 63.3639 233.604 60.7746 231.814C57.8877 229.806 55.8228 226.707 53.8251 223.712C47.1881 213.712 39.6658 202.376 37.8094 189.794L37.5638 188.072C37.2252 185.59 36.8717 182.967 36.1165 180.568C36.429 180.817 36.7416 181.074 37.0579 181.33C38.6836 182.655 40.3651 184.024 42.2252 185.129C45.8636 187.298 49.9633 188.328 53.9291 189.325L54.8741 189.56C66.7715 192.581 78.457 196.639 89.6103 201.636C95.3693 204.214 100.991 207.317 103.13 212.57C104.309 215.397 104.309 218.723 104.153 221.602C103.781 228.503 102.371 235.312 99.9601 241.852ZM98.5205 245.412C99.7519 245.412 100.79 245.293 101.694 245.048L102.55 244.821L102.869 243.995C105.619 236.841 107.218 229.37 107.624 221.792C107.799 218.518 107.788 214.709 106.344 211.241C103.747 204.869 97.4527 201.334 91.0352 198.462C79.6958 193.384 67.8208 189.255 55.7299 186.189L54.7737 185.947C51.0534 185.014 47.2067 184.05 44.0036 182.138C42.3592 181.163 40.8524 179.932 39.2564 178.633C36.5406 176.42 33.7282 174.132 30.1605 173.123L28.9103 176.353C32.7162 178.258 33.4305 183.485 34.1187 188.54L34.3643 190.296C36.336 203.652 44.0892 215.334 50.9308 225.635C53.0067 228.753 55.3578 232.283 58.7953 234.675C61.8757 236.8 65.4062 237.763 68.8251 238.697L81.6788 242.179C87.4192 243.693 93.9148 245.412 98.5205 245.412Z" fill="#E4C26D"/>
<path d="M102.903 294.854C98.6394 299.304 94.0114 304.553 90.2911 310.569L90.0792 310.911C89.35 312.105 88.6542 313.229 87.7093 313.865C86.9987 314.36 86.091 314.624 85.1275 314.899L67.378 320.037C63.1779 321.25 58.7321 322.436 54.5208 322.436C51.6338 322.436 49.1969 321.878 47.0615 320.736C46.0273 320.186 45.0526 319.497 44.0742 318.813C41.7081 317.154 39.2602 315.435 36.1054 315.364C36.1017 315.364 36.0979 315.364 36.0942 315.364C33.7801 315.364 31.9127 316.127 30.1047 316.86C28.5384 317.496 27.0614 318.099 25.6291 318.099C22.7756 317.991 20.6066 315.796 18.3001 313.471C16.9645 312.116 15.5286 310.673 13.8842 309.575C23.9401 305.677 33.2891 300.29 41.7267 293.522C42.4931 292.912 43.2558 292.284 44.0184 291.659C46.6784 289.475 49.1858 287.418 52.0356 285.844C59.3087 281.815 69.0521 281.13 79.0001 283.846C87.4749 286.145 95.3209 290.483 102.903 294.854ZM54.5208 325.911C59.186 325.911 63.9033 324.661 68.3415 323.381L86.0612 318.255C87.2368 317.913 88.5202 317.541 89.6735 316.737C91.2212 315.699 92.1922 314.122 93.0441 312.73L93.2488 312.403C97.2481 305.93 102.419 300.316 106.947 295.673L108.502 294.077L106.571 292.957C98.2004 288.109 89.5434 283.106 79.9116 280.487C69.0745 277.536 58.4158 278.333 50.354 282.801C47.229 284.523 44.4761 286.785 41.8161 288.973C41.0646 289.586 40.313 290.204 39.5577 290.807C30.2013 298.307 19.6915 304.051 8.3298 307.89L6.10352e-05 310.703L8.77249 311.276C11.4027 311.447 13.5531 313.619 15.8299 315.918C18.382 318.493 21.2727 321.41 25.3017 321.566C25.3129 321.566 25.324 321.566 25.3352 321.566C27.757 321.566 29.6172 320.811 31.4178 320.081C32.9841 319.445 34.4609 318.843 35.9007 318.843C38.1254 318.891 40.0452 320.234 42.0802 321.663C43.174 322.429 44.2713 323.192 45.4246 323.805C48.0697 325.223 51.0497 325.911 54.5208 325.911Z" fill="#E4C26D"/>
<path d="M187.565 133.696C183.302 136.151 177.844 136.516 174.15 134.492C173.584 134.172 173.026 133.804 172.472 133.432C171.538 132.811 170.567 132.163 169.458 131.676C166.568 130.426 163.684 130.56 161.095 130.605L159.462 130.631C154.224 130.627 144.726 129.596 139.964 122.684C139.257 121.654 138.673 120.519 138.056 119.321C137.412 118.075 136.75 116.787 135.913 115.567C134.216 113.093 131.988 111.196 129.83 109.354C128.77 108.45 127.706 107.543 126.712 106.568C125.172 105.057 121.683 101.099 122.516 96.9695C122.717 95.9687 123.163 94.9829 123.64 93.9375C123.844 93.4799 124.052 93.0186 124.246 92.5536C126.69 86.616 126.303 79.6479 123.446 73.9485C126.054 75.299 128.461 77.386 130.953 79.5512C132.482 80.8794 134.064 82.2522 135.715 83.4613C141.203 87.4829 148.093 89.9754 155.623 90.6711C156.46 90.7492 157.312 90.8125 158.164 90.872C160.336 91.0208 162.386 91.1622 164.335 91.6942C171.341 93.6324 176.08 100.206 180.708 107.345C183.383 111.482 186.155 115.757 187.695 120.456C189.261 125.236 189.213 130.028 187.565 133.696ZM179.749 139.317C183.205 139.317 186.78 138.283 189.827 136.397L190.247 136.14L190.47 135.694C192.758 131.092 192.944 125.296 190.999 119.373C189.317 114.246 186.427 109.778 183.629 105.455C178.819 98.0335 173.439 90.6041 165.258 88.3422C162.97 87.7172 160.649 87.5535 158.405 87.401C157.583 87.3414 156.765 87.2893 155.954 87.2075C149.038 86.5676 142.754 84.3057 137.769 80.6524C136.233 79.5289 134.707 78.2045 133.23 76.9247C129.194 73.4165 125.016 69.7929 119.506 69.06L114.994 68.4611L117.959 71.9172C122.416 77.107 123.647 84.8675 121.028 91.2291C120.853 91.6607 120.66 92.081 120.47 92.4977C119.938 93.6808 119.38 94.8974 119.105 96.2887C117.977 101.873 121.857 106.683 124.276 109.049C125.325 110.083 126.448 111.047 127.572 111.999C129.648 113.77 131.605 115.441 133.044 117.543C133.762 118.577 134.346 119.712 134.964 120.913C135.604 122.159 136.266 123.447 137.103 124.66C142.762 132.881 153.539 134.109 159.462 134.109L162.888 134.061C164.611 134.061 166.434 134.154 168.063 134.864C168.893 135.229 169.697 135.765 170.545 136.326C171.177 136.75 171.806 137.163 172.464 137.535C174.596 138.704 177.111 139.317 179.749 139.317Z" fill="#E4C26D"/>
<path d="M215.702 47.578C221.557 47.578 228.302 47.8162 234.15 50.6733C236.922 52.035 238.734 53.7017 239.534 55.625C240.203 57.2657 240.192 59.1964 240.181 61.2389L240.177 62.0164C240.144 69.9927 241.487 77.8759 244.158 85.4318C244.63 86.7674 245.148 88.0993 245.665 89.4311C246.852 92.4929 247.99 95.4319 248.607 98.4379C239.418 94.8887 229.66 92.1655 220.192 89.5278L218.685 89.1075C214.898 88.0844 211.353 86.946 209.403 84.3306C208.879 83.6349 208.481 82.8611 208.075 82.0873C207.394 80.8001 206.695 79.4608 205.534 78.3373C203.588 76.4549 200.981 75.8075 198.681 75.2383C198.109 75.0932 197.543 74.9556 196.992 74.7956C190.076 72.8015 184.451 67.0017 182.669 60.0224C181.992 57.3922 181.765 54.4345 181.546 51.5699C181.215 47.2544 180.876 42.8384 179.035 39.1107C180.712 39.8399 182.357 40.7923 184.05 41.767C185.765 42.7603 187.536 43.7796 189.396 44.5981C195.731 47.392 202.599 47.6265 208.548 47.6265L215.702 47.578ZM252.711 103.847L252.488 101.024C252.127 96.4848 250.486 92.2586 248.905 88.1737C248.403 86.8716 247.897 85.577 247.436 84.2711C244.898 77.091 243.626 69.6058 243.659 62.0239V61.2575C243.671 58.9658 243.685 56.5923 242.748 54.3006C241.61 51.5625 239.232 49.3006 235.679 47.5521C229.162 44.3675 221.952 44.0996 215.702 44.0996L208.548 44.148C201.613 44.148 195.936 43.683 190.798 41.4173C189.109 40.677 187.498 39.7469 185.791 38.7573C182.398 36.8004 178.889 34.7766 174.775 34.3562L169.388 33.813L173.45 37.392C177.223 40.7179 177.636 46.116 178.079 51.8378C178.309 54.8475 178.551 57.9613 179.299 60.8817C181.382 69.0366 187.948 75.8075 196.029 78.1401C196.628 78.3113 197.234 78.4638 197.844 78.6126C199.902 79.1223 201.844 79.6059 203.112 80.8336C203.871 81.5702 204.418 82.6082 204.995 83.7094C205.471 84.6097 205.958 85.5435 206.62 86.414C209.228 89.9148 213.38 91.2727 217.763 92.4595L219.258 92.8798C229.601 95.763 240.293 98.743 250.092 102.772L252.711 103.847Z" fill="#E4C26D"/>
<path d="M264.244 125.853C269.076 111.694 276.004 99.2307 283.243 91.6562L280.728 89.2492C273.15 97.1808 265.944 110.113 260.951 124.729L264.244 125.853Z" fill="#E4C26D"/>
<path d="M378.143 10.975C378.649 13.9364 380.204 17.1209 382.76 20.3389C383.329 21.0495 383.917 21.7563 384.505 22.4595C387.124 25.5994 389.594 28.5645 390.253 32.1434C390.342 32.627 390.402 33.1144 390.457 33.6018C390.569 34.5542 390.681 35.5363 391.008 36.5407C391.655 38.5497 392.939 40.0787 394.178 41.5594C395.138 42.7052 396.045 43.7878 396.555 44.9932C397.865 48.0736 396.514 51.5334 395.093 55.1979C393.932 58.1815 392.734 61.262 392.745 64.5284C392.757 65.8714 392.969 67.1475 393.177 68.3826C393.419 69.8223 393.646 71.184 393.523 72.4749C393.266 75.0493 391.533 77.4191 389.87 79.402C382.355 88.3716 372.042 95.1164 360.833 98.4014L359.189 98.8814L359.646 100.533C359.776 101.013 359.497 101.523 359.371 101.72C359.185 102.003 358.965 102.204 358.794 102.323C358.772 102.241 358.753 102.14 358.738 102.018C358.259 97.9996 356.997 93.9892 355.777 90.1089C353.526 82.9325 351.398 76.1542 354.207 70.0269C354.754 68.8439 355.476 67.724 356.238 66.5447C357.101 65.2128 357.991 63.8364 358.66 62.2925C359.873 59.5134 360.23 56.5372 360.569 53.6652C360.948 50.5215 361.302 47.5528 362.715 45.0491C363.017 44.5208 363.359 44.0073 363.705 43.4939C364.676 42.0579 365.77 40.4247 365.974 38.3823C366.138 36.7825 365.699 35.2572 365.316 33.9142C364.907 32.5042 364.557 31.2877 364.929 30.313C365.297 29.3495 366.417 28.624 367.596 27.8613C368.106 27.5339 368.608 27.2029 369.077 26.8531C372.667 24.1708 374.304 20.0637 375.885 16.0867C376.599 14.2898 377.291 12.5413 378.143 10.975ZM358.556 105.924C359.806 105.924 361.108 105.187 362.038 103.967C362.656 103.156 363.024 102.248 363.128 101.337C374.483 97.728 384.881 90.7711 392.533 81.6379C394.535 79.2532 396.637 76.3365 396.983 72.8134C397.15 71.0612 396.875 69.4056 396.607 67.8059C396.414 66.6564 396.231 65.57 396.224 64.506C396.213 61.9093 397.243 59.2605 398.333 56.4591C399.944 52.3073 401.618 48.0141 399.762 43.6316C399.048 41.9538 397.924 40.6182 396.841 39.3235C395.77 38.0437 394.758 36.8347 394.319 35.4694C394.096 34.7885 394.007 34.0184 393.91 33.2037C393.847 32.6345 393.776 32.0652 393.672 31.5072C392.85 27.0392 389.966 23.5793 387.176 20.231C386.603 19.5465 386.03 18.862 385.487 18.1737C383.385 15.5323 380.134 10.4579 381.979 6.18701L384.647 0.000244141L379.315 4.12233C375.826 6.82325 374.211 10.8783 372.652 14.7995C371.186 18.49 369.799 21.9722 366.994 24.0704C366.588 24.3755 366.146 24.6582 365.707 24.941C364.181 25.9306 362.451 27.0466 361.681 29.0704C360.889 31.1277 361.465 33.1218 361.971 34.8815C362.299 36.0236 362.611 37.0988 362.518 38.0363C362.399 39.2082 361.629 40.3503 360.822 41.5557C360.424 42.1435 360.033 42.7313 359.687 43.3377C357.927 46.4478 357.518 49.9077 357.12 53.2485C356.789 55.9977 356.48 58.5908 355.468 60.9048C354.914 62.192 354.14 63.3863 353.318 64.6549C352.522 65.8863 351.696 67.1661 351.049 68.5798C347.678 75.9199 350.111 83.6617 352.462 91.1506C353.631 94.8784 354.843 98.7326 355.286 102.431C355.595 105.005 357.18 105.924 358.556 105.924Z" fill="#E4C26D"/>
<path d="M293.199 4.91507C293.534 8.9404 294.839 12.9137 296.986 16.3066C298.619 18.9071 300.702 21.1503 302.715 23.3192C303.467 24.1265 304.214 24.9339 304.936 25.7598C310.584 32.1438 313.954 38.7658 314.966 45.4474C316.123 53.1149 313.753 60.7415 308.787 65.3509C307.548 66.4967 306.138 67.5012 304.639 68.5652C301.558 70.749 298.374 73.0072 296.699 76.6494C296.532 77.0177 296.383 77.3972 296.238 77.7692C296.004 78.3793 295.777 78.9596 295.483 79.3986C294.731 80.5296 293.325 81.2402 291.837 81.9916L290.844 82.4976C288.481 83.7328 286.346 85.3027 284.631 86.5639C284.136 86.9285 283.586 87.334 283.094 87.6725C276.707 74.9975 278.705 59.4952 281.543 43.3975C282.726 36.7048 283.906 30.0083 285.107 23.3192C285.412 21.6414 285.71 20.2909 286.539 19.5097C286.77 19.2939 287.057 19.1116 287.336 18.9219C287.845 18.5722 288.418 18.1816 288.928 17.605C290.479 15.8043 290.338 13.5089 290.226 11.6636C290.185 11.0386 290.144 10.4136 290.174 9.81464C290.278 7.82057 291.499 5.9493 293.199 4.91507ZM281.595 92.1592L282.942 91.7202C283.92 91.404 285.081 90.5483 286.692 89.3653C288.31 88.1748 290.33 86.6904 292.466 85.5743L293.403 85.0944C295.141 84.2201 297.12 83.223 298.381 81.3257C298.88 80.5742 299.2 79.7521 299.479 79.0303C299.605 78.7141 299.728 78.3979 299.866 78.0928C301.145 75.3063 303.816 73.409 306.651 71.4C308.169 70.3212 309.747 69.2014 311.153 67.9067C316.956 62.5235 319.732 53.7139 318.4 44.9266C317.291 37.5716 313.638 30.3469 307.548 23.4607C306.804 22.6162 306.034 21.7828 305.264 20.9532C303.273 18.8103 301.391 16.779 299.929 14.4538C297.7 10.9195 296.517 6.67474 296.599 2.48572L296.64 0.372627L294.553 0.740929C290.297 1.49615 286.919 5.32056 286.703 9.63607C286.666 10.3615 286.707 11.1167 286.755 11.8757C286.844 13.3415 286.919 14.6064 286.301 15.3207C286.101 15.555 285.766 15.782 285.375 16.0424C284.955 16.3326 284.538 16.6227 284.162 16.9687C282.425 18.6094 281.997 20.9755 281.684 22.7017C280.483 29.3982 279.303 36.0984 278.12 42.7949C275.048 60.1983 272.953 76.973 280.892 90.9277L281.595 92.1592Z" fill="#E4C26D"/>
<path d="M259.221 204.883L260.304 201.58C243.577 196.085 226.178 193.298 208.596 193.298C208.432 193.298 208.272 193.298 208.112 193.298L208.12 196.777C208.28 196.777 208.439 196.777 208.596 196.777C225.813 196.777 242.841 199.504 259.221 204.883Z" fill="#E4C26D"/>
<path d="M447.675 87.2034C445.737 97.2147 445.972 107.609 448.397 117.509L448.564 118.178C449.282 121.091 450.03 124.097 449.007 126.523C448.717 127.2 448.308 127.818 447.906 128.439C447.489 129.086 447.073 129.737 446.73 130.433C445.6 132.806 445.48 135.303 445.365 137.717C445.317 138.807 445.265 139.897 445.108 140.965C443.855 149.406 435.484 155.039 428.237 156.698C421.221 158.298 413.326 157.632 403.884 154.607C404.003 148.313 404.226 141.914 405.982 135.987C408.01 129.127 412.091 123.707 417.173 121.114C417.991 120.693 418.873 120.31 419.762 119.916C423.516 118.268 427.768 116.4 428.676 111.925C428.817 111.229 428.851 110.522 428.877 109.812C428.892 109.361 428.903 108.915 428.97 108.476C429.204 106.91 430.205 105.41 431.306 103.885C435.157 98.58 440.395 92.103 447.675 87.2034ZM420.514 161.014C423.456 161.014 426.31 160.705 429.011 160.091C437.657 158.112 447.047 151.583 448.55 141.467C448.724 140.292 448.78 139.086 448.84 137.885C448.94 135.716 449.041 133.673 449.863 131.951C450.138 131.389 450.484 130.861 450.826 130.325C451.336 129.54 451.838 128.748 452.207 127.881C453.687 124.388 452.757 120.645 451.939 117.341L451.775 116.679C449.16 105.991 449.219 94.6961 451.961 84.0152L452.954 80.12L449.435 82.0621C439.725 87.4081 433.137 95.4439 428.486 101.846C427.18 103.666 425.875 105.63 425.532 107.955C425.443 108.521 425.417 109.105 425.398 109.692C425.38 110.21 425.372 110.727 425.268 111.229C424.721 113.941 421.63 115.295 418.363 116.731C417.415 117.148 416.473 117.565 415.592 118.011C409.665 121.039 404.944 127.23 402.649 135.001C400.636 141.78 400.51 148.893 400.383 155.768L400.361 157.044L401.566 157.509C408.587 159.868 414.784 161.014 420.514 161.014Z" fill="#E4C26D"/>
<path d="M207.986 195.836C193.135 211.223 180.214 214.195 172.517 203.957C170.824 201.725 169.481 199.143 168.053 196.416C167.547 195.442 167.033 194.463 166.509 193.507C165.635 191.918 164.578 190.125 163.038 188.909C161.007 187.305 158.693 187.119 157.13 187.119C156.308 187.119 155.471 187.171 154.641 187.235C153.893 187.287 153.142 187.339 152.409 187.339C150.567 187.339 149.433 186.978 148.491 186.085C147.427 185.081 146.695 183.421 145.913 181.509L139.243 165.333L146.758 167.447C150.738 168.574 154.727 169.69 158.715 170.798C162.532 171.859 166.862 173.06 170.698 175.293L171.464 175.746C172.484 176.364 173.536 177 174.723 177.402C176.468 177.99 178.67 177.979 180.917 177.796L182.015 177.714C191.301 177.112 203.589 182.733 207.986 195.836ZM183.827 213.533C191.929 213.533 201.148 208.135 211.219 197.488L211.907 196.758L211.621 195.795C207.201 180.959 193.879 174.195 183.369 174.195C182.844 174.195 182.324 174.214 181.803 174.243L180.642 174.329C178.871 174.474 177.085 174.526 175.835 174.106C175.006 173.827 174.161 173.313 173.265 172.77L172.45 172.286C168.224 169.824 163.666 168.566 159.645 167.45C155.664 166.342 151.684 165.226 147.707 164.098L133.298 160.051L142.695 182.83C143.599 185.032 144.537 187.134 146.103 188.615C148.19 190.587 150.705 190.817 152.409 190.817C153.224 190.817 154.057 190.761 154.883 190.702C155.634 190.65 156.39 190.594 157.13 190.594C158.834 190.594 159.957 190.906 160.88 191.639C161.91 192.45 162.751 193.894 163.462 195.181C163.975 196.119 164.47 197.075 164.972 198.027C166.401 200.762 167.874 203.589 169.734 206.052C173.417 210.948 178.287 213.533 183.827 213.533Z" fill="#E4C26D"/>
<path d="M390.524 269.91C391.056 270.996 391.611 272.072 392.213 273.117C396.38 280.349 402.753 286.439 410.156 290.264C413.464 291.971 417.002 293.27 420.424 294.523C426.239 296.648 431.726 298.66 436.083 302.496C444.829 310.204 446.023 325.409 438.587 334.397C438.304 334.736 437.415 335.208 434.773 335.517C432.738 335.748 430.335 335.986 427.98 335.986C422.928 335.986 419.431 334.896 416.972 332.56C415.506 331.153 414.472 329.301 413.378 327.34C412.251 325.324 411.083 323.24 409.353 321.51C407.861 320.018 406.101 318.936 404.397 317.891C402.288 316.596 400.298 315.368 399.111 313.549C397.954 311.786 397.589 309.516 397.198 307.117C396.704 304.066 396.198 300.919 394.006 298.415C393.158 297.436 392.172 296.718 391.224 296.015C390.428 295.435 389.68 294.888 389.092 294.244C386.227 291.153 387.064 285.904 387.823 283.046C388.091 282.031 388.4 281.011 388.709 279.996C389.691 276.763 390.707 273.43 390.524 269.91ZM427.98 339.464C430.51 339.464 433.036 339.219 435.168 338.973C437.441 338.709 439.941 338.222 441.269 336.607C449.982 326.079 448.631 308.917 438.378 299.884C433.538 295.617 427.482 293.4 421.618 291.257C418.3 290.041 414.866 288.783 411.756 287.176C404.937 283.653 399.066 278.043 395.23 271.383C393.675 268.675 392.392 265.691 391.149 262.808L390.178 260.546L388.348 262.157C386.376 263.98 386.678 266.603 386.919 268.712L387.016 269.598C387.303 272.674 386.369 275.736 385.383 278.98C385.059 280.04 384.736 281.101 384.457 282.161C383.314 286.491 382.745 292.511 386.532 296.599C387.343 297.489 388.27 298.166 389.163 298.82C389.996 299.434 390.785 300.015 391.387 300.699C392.924 302.459 393.333 304.989 393.765 307.671C394.192 310.323 394.639 313.069 396.198 315.45C397.809 317.924 400.231 319.412 402.574 320.852C404.178 321.841 405.692 322.771 406.894 323.969C408.285 325.357 409.282 327.143 410.338 329.036C411.514 331.135 412.727 333.307 414.572 335.071C417.675 338.028 422.061 339.464 427.98 339.464Z" fill="#E4C26D"/>
<path d="M494.562 246.052C494.618 246.107 494.667 246.167 494.722 246.226C496.05 247.7 497.423 249.225 498.346 251.412C498.971 252.908 499.06 257.097 499.12 259.872C499.138 261.085 499.164 262.153 499.22 262.901C499.283 263.853 499.19 264.846 499.09 265.903C499.023 266.554 498.963 267.209 498.937 267.867C498.647 275.728 503.238 282.235 507.676 288.53C508.391 289.538 509.097 290.542 509.778 291.539C511.943 294.728 518.588 305.706 513.201 313.106C511.646 315.226 509.332 316.718 506.876 318.292L506.233 318.705C497.051 324.65 488.788 331.863 481.649 340.174C480.284 337.474 478.982 334.88 477.71 332.34L473.617 324.211C469.142 315.189 465.034 305.65 468.219 297.101C469.305 294.177 471.192 291.558 473.189 288.783C476.069 284.78 479.049 280.639 479.45 275.464C479.618 273.392 479.335 271.368 479.06 269.407C478.725 267.038 478.409 264.798 478.922 262.718C480.087 257.994 483.442 255.535 487.68 252.424L488.071 252.142C490.53 250.337 492.419 248.194 493.595 245.944L494.436 247.595L494.562 246.052ZM480.942 346.477L482.631 344.412C489.923 335.517 498.502 327.853 508.119 321.625L508.751 321.22C511.371 319.542 514.071 317.808 516.01 315.159C522.554 306.167 515.846 294.277 512.654 289.586C511.962 288.567 511.24 287.547 510.519 286.524C506.411 280.702 502.166 274.683 502.408 268.005C502.434 267.421 502.494 266.826 502.55 266.23C502.661 265.084 502.773 263.898 502.691 262.655C502.635 261.945 502.617 260.944 502.594 259.802C502.505 255.479 502.375 252.015 501.549 250.066C500.403 247.335 498.759 245.508 497.304 243.898C496.378 242.867 495.559 241.963 494.972 240.951C495.02 239.255 494.629 237.633 493.807 236.107L490.73 230.4L490.541 236.881C490.485 238.626 490.775 240.185 491.422 241.643C491.028 244.273 489.038 247.119 486.013 249.337L485.626 249.623C481.199 252.871 477.014 255.936 475.544 261.885C474.875 264.619 475.25 267.302 475.615 269.895C475.875 271.747 476.121 273.5 475.987 275.192C475.659 279.396 473.085 282.968 470.366 286.751C468.319 289.59 466.206 292.525 464.956 295.888C461.292 305.743 465.689 316.052 470.507 325.77L474.599 333.902C476.24 337.172 477.929 340.532 479.737 344.096L480.942 346.477Z" fill="#E4C26D"/>
<path d="M588.741 372.715C587.349 372.715 586.166 372.98 585.121 373.523C583.145 374.557 582.055 376.395 581.099 378.009C580.578 378.884 580.091 379.706 579.511 380.364C577.23 382.946 573.145 383.274 569.838 383.274C569.191 383.274 568.543 383.259 567.907 383.244L557.68 382.946C556.155 382.901 554.577 382.853 553.286 382.347C552.204 381.923 551.199 381.164 550.128 380.357L549.73 380.059C540.046 372.734 528.134 368.534 517.073 368.534C517.014 368.534 516.958 368.534 516.902 368.534C520.381 358.199 529.198 349.252 540.422 344.843C551.144 340.635 564.164 340.323 577.115 343.887C581.415 345.081 585.831 346.685 590.106 348.24C597.55 350.952 605.21 353.738 612.896 354.586C608.875 356.774 605.791 359.572 603.681 362.961C603.034 363.995 602.442 365.119 601.851 366.253C600.158 369.482 598.555 372.537 595.701 373.139C594.626 373.359 593.157 373.188 591.806 373.002C590.768 372.857 589.738 372.715 588.741 372.715ZM569.838 386.752C573.874 386.752 578.919 386.287 582.115 382.667C582.915 381.763 583.51 380.759 584.087 379.788C584.916 378.389 585.631 377.183 586.728 376.607C587.826 376.038 589.589 376.201 591.322 376.443C593.086 376.689 594.916 376.863 596.423 376.54C600.876 375.602 603.03 371.491 604.931 367.868C605.482 366.815 606.033 365.762 606.632 364.806C609.649 359.966 615.125 356.476 622.919 354.438C624.299 354.226 625.672 353.921 627 353.534L626.204 350.152C624.876 350.394 623.54 350.688 622.216 351.026C620.687 351.257 619.094 351.372 617.472 351.372C608.875 351.368 599.935 348.117 591.293 344.97C586.959 343.396 582.476 341.763 578.041 340.539C564.369 336.759 550.578 337.124 539.149 341.603C526.099 346.733 516.028 357.581 512.866 369.921L512.274 372.239L514.659 372.09C525.604 371.38 537.821 375.416 547.639 382.838L548.037 383.136C549.243 384.044 550.489 384.985 552.018 385.588C553.87 386.313 555.842 386.369 557.576 386.421L567.799 386.715C568.473 386.737 569.153 386.752 569.838 386.752Z" fill="#E4C26D"/>
<path d="M595.359 515.838C590.255 517.535 585.482 520.452 580.817 523.309C574.968 526.884 568.923 530.582 562.446 531.694C560.995 531.943 559.503 532.066 558.011 532.066C546.653 532.07 535.753 524.979 525.563 517.713C523.952 516.56 522.464 515.485 521.616 514.041C520.902 512.806 520.641 511.262 520.362 509.629C520.213 508.774 520.065 507.91 519.856 507.073C518.51 501.556 514.741 497.304 511.095 493.189C510.355 492.356 509.618 491.523 508.904 490.682C505.537 486.72 501.883 480.89 503.267 475.332C508.022 471.381 514.324 469.212 521.073 469.212C529.086 469.212 536.571 472.263 541.601 477.579C543.35 479.428 545.016 481.649 546.627 483.796C551.114 489.77 555.749 495.95 563.372 496.467C564.213 496.526 565.08 496.5 565.935 496.471C567.498 496.422 568.86 496.448 569.79 496.787C571.46 497.397 572.714 499.008 574.038 500.708L574.581 501.393C579.86 508.074 587.245 513.137 595.359 515.838ZM558.008 535.548C558.008 535.548 558.008 535.548 558.011 535.548C559.7 535.548 561.393 535.403 563.034 535.124C570.169 533.897 576.501 530.024 582.628 526.277C590.114 521.694 597.201 517.356 605.203 517.892L605.463 514.421C594.604 513.476 584.075 507.803 577.308 499.235L576.784 498.569C575.285 496.649 573.592 494.477 570.976 493.517C568.99 492.802 567.331 492.944 565.824 492.996C565.087 493.014 564.339 493.044 563.607 492.996C557.572 492.587 553.61 487.3 549.41 481.709C547.74 479.484 546.013 477.185 544.131 475.187C538.443 469.179 530.039 465.734 521.073 465.734C513.301 465.734 506.028 468.327 500.596 473.033L500.213 473.364L500.068 473.844C498.346 479.543 500.481 486.147 506.255 492.936C506.984 493.792 507.735 494.644 508.491 495.496C511.854 499.294 515.336 503.219 516.482 507.907C516.668 508.669 516.798 509.443 516.932 510.213C517.252 512.073 517.576 514.001 518.61 515.79C519.838 517.881 521.783 519.28 523.498 520.515C534.19 528.138 545.626 535.548 558.008 535.548Z" fill="#E4C26D"/>
<path d="M351.904 524.235L355.364 523.855C351.834 491.731 341.261 458.594 325.591 430.558L322.555 432.259C338.002 459.896 348.426 492.56 351.904 524.235Z" fill="#E4C26D"/>
<path d="M286.331 380.706C296.926 380.706 307.83 386.283 314.787 395.26C322.172 404.791 325.669 417.756 324.717 431.934C319.199 431.161 312.745 430.35 306.182 429.524L303.738 429.215C301.807 428.977 299.813 428.724 298.117 427.95C295.635 426.812 293.82 424.572 291.896 422.198C290.308 420.238 288.66 418.21 286.517 416.663C284.623 415.305 282.532 414.438 280.508 413.608C279.422 413.162 278.336 412.712 277.294 412.187C271.468 409.256 267.149 403.701 265.739 397.336C265.326 395.465 265.155 393.556 264.973 391.536C264.798 389.609 264.619 387.622 264.214 385.651C263.808 383.701 263.172 381.938 262.335 380.412C262.558 380.531 262.778 380.65 263.005 380.773C265.534 382.161 268.157 383.601 271.409 383.355C273.421 383.21 275.319 382.667 277.16 382.146C277.949 381.919 278.742 381.696 279.541 381.502C281.733 380.974 284.017 380.706 286.331 380.706ZM327.86 435.896L328.031 434.081C329.508 418.307 325.78 403.765 317.533 393.132C309.936 383.322 297.979 377.228 286.331 377.228C283.742 377.228 281.182 377.529 278.726 378.124C277.886 378.322 277.045 378.563 276.208 378.801C274.463 379.296 272.811 379.769 271.152 379.888L270.698 379.903C268.667 379.903 266.729 378.842 264.671 377.719C262.242 376.394 259.485 374.888 256.092 374.888H247.696L255.404 378.225C259.083 379.821 260.408 384.445 260.806 386.357C261.174 388.132 261.338 389.936 261.505 391.845C261.691 393.887 261.881 395.997 262.346 398.087C263.976 405.461 268.979 411.897 275.732 415.294C276.848 415.859 278.016 416.343 279.18 416.823C281.108 417.615 282.923 418.367 284.485 419.486C286.253 420.762 287.681 422.522 289.195 424.39C291.286 426.968 293.448 429.635 296.673 431.112C298.853 432.109 301.219 432.403 303.306 432.667L305.751 432.976C313.027 433.891 320.178 434.792 326.052 435.64L327.86 435.896Z" fill="#E4C26D"/>
<path d="M324.907 431.552C317.518 423.776 309.014 416.857 301.171 409.688C310.286 415.551 319.341 422.02 324.907 431.552Z" fill="#E4C26D"/>
<path d="M269.292 386.909C266.509 385.272 264.128 383.084 262.041 380.647C264.582 382.508 267.082 384.684 269.292 386.909Z" fill="#E4C26D"/>
<path d="M289.084 408.508C289.188 408.508 289.273 408.523 289.381 408.56L289.084 408.508Z" fill="#E4C26D"/>
<path d="M312.108 423.379C311.323 423.189 310.405 422.892 309.761 422.542C310.576 422.698 311.379 422.977 312.108 423.379Z" fill="#E4C26D"/>
<path d="M299.917 406.543C290.111 401.484 280.107 396.406 271.815 388.995C280.963 394.214 293.102 400.472 299.917 406.543Z" fill="#E4C26D"/>
<path d="M317.986 428.944C312.194 428.438 306.628 426.716 301.394 424.249C306.959 425.399 312.771 427.133 317.986 428.944Z" fill="#E4C26D"/>
<path d="M319.222 417.951C314.679 411.69 310.661 404.874 306.16 398.702C312.008 403.833 316.402 410.961 319.222 417.951Z" fill="#E4C26D"/>
<path d="M323.411 426.247C321.83 421.117 320.041 416.076 318.698 410.875C317.987 408.405 317.325 406.128 315.952 404.022C321.082 410.004 322.559 418.922 323.411 426.247Z" fill="#E4C26D"/>
<path d="M271.833 405.045C267.64 398.981 266.316 391.656 263.92 384.84C267.778 390.997 269.292 398.408 271.833 405.045Z" fill="#E4C26D"/>
<path d="M270.84 382.649C277.205 384.249 283.221 384.788 289.586 385.555C290.877 385.674 292.402 385.815 293.552 385.971C292.89 386.005 292.25 386.053 291.588 386.094C284.824 386.578 277.796 386.198 271.446 383.639C269.835 382.976 268.265 382.11 267.067 380.804C268.302 381.797 269.4 382.214 270.84 382.649Z" fill="#E4C26D"/>
<path d="M533.145 497.133C526.378 494.227 519.994 490.47 514.082 486.087C509.838 483.13 505.913 479.603 501.247 477.289C513.197 481.377 522.62 490.418 533.145 497.133Z" fill="#E4C26D"/>
<path d="M569.54 510.626C578.532 512.315 587.852 514.607 596.724 515.756C598.324 515.983 600.032 516.154 601.557 516.296C601.07 516.31 600.567 516.348 600.08 516.366C590.117 516.712 580.218 515.15 570.463 513.267C559.507 511.18 548.658 508.122 538.588 503.252C548.711 506.504 559.157 508.487 569.54 510.626Z" fill="#E4C26D"/>
<path d="M582.427 517.706C576.043 519.722 569.228 519.931 562.758 518.119C569.317 518.42 575.924 518.119 582.427 517.706Z" fill="#E4C26D"/>
<path d="M591.974 513.84C583.733 511.667 575.857 507.928 569.18 502.623C576.743 506.262 584.756 509.982 591.974 513.84Z" fill="#E4C26D"/>
<path d="M533.751 488.174C540.861 493.914 546.795 500.015 554.618 504.521C555.314 504.937 556.099 505.32 556.81 505.637C555.82 505.358 554.845 504.989 553.904 504.573C544.22 500.469 536.43 492.973 529.336 487.895C520.987 482.192 511.873 477.307 502.52 473.668C513.699 476.347 524.655 481.027 533.751 488.174Z" fill="#E4C26D"/>
<path d="M559.265 362.931C545.109 363.244 532.397 366.023 518.044 369.639C530.793 363.567 545.384 360.442 559.265 362.931Z" fill="#E4C26D"/>
<path d="M618.012 351.536C618.667 351.38 619.801 351.086 620.166 351.049C618.916 351.517 617.681 352.005 616.446 352.529C610.464 355.033 603.641 358.288 597 360.111C589.262 362.194 581.174 363.069 573.175 362.819C588.551 360.978 603.157 355.662 618.012 351.536Z" fill="#E4C26D"/>
<path d="M586.564 367.222C583.034 369.067 579.213 370.335 575.244 370.823C578.964 369.591 582.844 368.148 586.564 367.222Z" fill="#E4C26D"/>
<path d="M578.357 351.101C574.86 350.773 571.49 349.888 568.13 348.891C571.56 349.296 575.195 349.951 578.357 351.101Z" fill="#E4C26D"/>
<path d="M589.972 350.287C594.462 352.043 596.564 353.103 600.72 354.703C591.519 352.872 582.583 349.558 574.358 345.049C579.503 346.927 584.897 348.148 589.972 350.287Z" fill="#E4C26D"/>
<path d="M537.003 357.954C530.864 360.979 524.324 363.244 518.044 365.778C523.684 361.849 530.429 359.394 537.003 357.954Z" fill="#E4C26D"/>
<path d="M546.099 376.718C554.395 379.62 560.842 380.617 569.347 380.405C570.88 380.387 572.863 380.264 574.15 380.212C573.123 380.457 572.081 380.68 571.051 380.911C563.994 382.559 556.464 382.247 549.771 379.274C547.126 378.11 544.328 376.841 542.36 374.683C543.525 375.744 544.931 376.212 546.099 376.718Z" fill="#E4C26D"/>
<path d="M487.192 311.952C486.85 322.618 484.361 333.017 482.549 343.467C482.136 332.771 484.606 322.25 487.192 311.952Z" fill="#E4C26D"/>
<path d="M493.874 245.248C495.559 256.319 494.22 267.748 492.609 278.462C491.909 267.346 493.196 256.304 493.874 245.248Z" fill="#E4C26D"/>
<path d="M490.485 285.226C491.385 289.143 491.247 293.314 490.399 297.175C490.261 293.195 490.377 289.206 490.485 285.226Z" fill="#E4C26D"/>
<path d="M493.907 317.92C495.942 312.302 498.412 306.83 500.484 301.227C498.691 310.963 495.648 321.086 489.179 328.772C491.355 325.245 492.449 321.8 493.907 317.92Z" fill="#E4C26D"/>
<path d="M474.324 300.408C474.45 299.921 474.588 299.381 474.711 298.927C474.636 299.854 474.588 300.788 474.536 301.714C474.048 312.183 474.517 321.431 476.92 331.085C472.292 321.591 471.597 310.561 474.324 300.408Z" fill="#E4C26D"/>
<path d="M512.222 299.068C511.021 307.815 508.271 316.613 502.832 323.693C506.448 315.94 509.127 307.19 512.222 299.068Z" fill="#E4C26D"/>
<path d="M412.854 303.106C407.426 299.241 402.001 295.089 398.177 289.694C402.905 293.973 408.936 298.463 412.854 303.106Z" fill="#E4C26D"/>
<path d="M440.782 334.177C440.001 332.354 439.097 330.65 437.791 329.363C432.575 323.972 427.46 318.306 421.756 313.451C429.167 317.294 440.901 328.477 440.782 334.177Z" fill="#E4C26D"/>
<path d="M420.312 308.497C417.548 306.183 415.045 303.556 412.418 301.09C415.599 302.842 418.259 305.606 420.312 308.497Z" fill="#E4C26D"/>
<path d="M413.668 315.26C409.063 310.688 405.093 305.468 401.983 299.765C406.139 304.564 410.625 310.063 413.668 315.26Z" fill="#E4C26D"/>
<path d="M428.453 130.693C429.424 129.249 430.625 127.322 431.44 126.121C430.938 127.371 430.435 128.606 429.877 129.822C425.93 138.762 419.479 148.241 409.286 150.258C418.174 146.5 423.095 138.379 428.453 130.693Z" fill="#E4C26D"/>
<path d="M449.807 81.4453C446.556 86.8546 445.112 92.7141 443.494 99.0794C441.425 107.041 439.301 115.062 435.983 122.606C439.428 108.938 440.8 91.8583 449.807 81.4453Z" fill="#E4C26D"/>
<path d="M443.46 122.799C443.286 127.285 441.998 131.634 440.172 135.719C440.938 131.404 442.24 126.727 443.46 122.799Z" fill="#E4C26D"/>
<path d="M439.372 98.5355C436.73 104.521 432.921 109.856 429.58 115.459C431.544 109.268 435.357 103.74 439.372 98.5355Z" fill="#E4C26D"/>
<path d="M447.37 104.901C448.345 111.757 448.639 118.658 448.605 125.582C447.028 118.814 446.73 111.79 447.37 104.901Z" fill="#E4C26D"/>
<path d="M446.451 100.05C446.589 107.215 445.112 114.205 443.963 121.233C443.475 114.105 444.919 107.01 446.451 100.05Z" fill="#E4C26D"/>
<path d="M369.252 73.5987C366.994 83.0222 364.453 92.4158 360.018 101.095C362.37 91.9657 365.234 81.3741 369.252 73.5987Z" fill="#E4C26D"/>
<path d="M379.007 8.9918C382.698 29.2338 374.907 48.9736 370.488 68.4492C371.916 48.1737 379.606 28.8692 379.007 8.9918Z" fill="#E4C26D"/>
<path d="M359.687 88.1562C359.687 92.9889 359.133 97.5685 358.489 102.104C358.054 97.4606 358.537 92.5722 359.687 88.1562Z" fill="#E4C26D"/>
<path d="M370.468 89.9968C369.583 93.6129 368.035 96.9909 366.264 100.257C367.202 96.6933 368.783 93.1293 370.468 89.9968Z" fill="#E4C26D"/>
<path d="M389.442 71.18C389.877 65.9121 390.729 60.6256 391.201 55.3911C392.087 63.1144 391.324 71.1466 388.594 78.4346C389.129 76.0834 389.185 73.6689 389.442 71.18Z" fill="#E4C26D"/>
<path d="M289.273 69.1452C287.971 75.9124 285.974 82.8023 282.194 88.606C284.474 82.1736 286.472 75.2167 289.273 69.1452Z" fill="#E4C26D"/>
<path d="M290.996 55.1491C290.803 58.0695 290.215 60.9751 289.222 63.7393C289.467 60.8672 290.092 57.6863 290.996 55.1491Z" fill="#E4C26D"/>
<path d="M294.039 3.47802C293.954 11.6552 294.772 19.7914 294.806 27.9686C294.437 34.4196 294.181 40.8668 294.162 47.3252C293.065 40.8854 292.525 34.4196 292.663 27.8979C292.388 19.7543 292.577 11.4245 294.039 3.47802Z" fill="#E4C26D"/>
<path d="M218.615 70.8861C219.262 71.1465 219.887 71.4069 220.512 71.671C227.696 74.5356 234.526 78.5015 239.939 84.1042C244.322 88.695 247.506 94.242 251.089 99.4429C246.788 95.0753 243.101 90.1348 238.719 85.8788C237.465 84.6958 236.267 83.6168 235.103 82.59C239.642 87.7203 243.224 93.6876 246.669 99.5991C240.929 93.2672 236.092 85.6183 230.996 79.2008C228.023 76.8868 224.943 74.7998 221.174 72.5006C220.356 71.9649 219.329 71.3548 218.615 70.8861Z" fill="#E4C26D"/>
<path d="M176.639 37.2173C184.302 42.0537 190.08 49.0776 196.583 55.2644C198.875 57.4221 201.468 59.2525 203.8 61.373C203.834 61.4102 203.867 61.4437 203.834 61.4921C203.8 61.5293 203.748 61.4921 203.711 61.4735C203.763 61.5144 203.819 61.4586 203.782 61.4103C203.332 61.042 202.788 60.8001 202.301 60.5062C198.983 58.6758 195.75 56.6446 192.878 54.1595C188.097 49.8923 184.027 44.7992 179.592 40.1749C181.944 44.8848 183.38 49.6839 185.366 54.6393C187.16 58.6758 189.976 64.8329 191.869 69.6357C188.934 64.8329 185.645 60.1565 183.61 54.8886C181.784 50.3648 180.772 44.1928 179.559 40.1377C178.599 39.1295 177.639 38.1548 176.639 37.2173Z" fill="#E4C26D"/>
<path d="M188.287 135.214C187.387 133.67 186.237 132.435 184.965 131.092C181.122 127.334 177.104 123.722 173.09 120.136C179.28 123.722 185.609 128.38 188.287 135.214Z" fill="#E4C26D"/>
<path d="M145.02 103.096C145.28 103.267 145.559 103.423 145.838 103.598C145.351 103.178 144.845 102.761 144.391 102.311C150.916 106.466 158.182 109.268 164.707 113.423C162.286 112.519 159.838 111.563 157.434 110.503C160.321 112.188 163.175 113.911 165.943 115.827C173.435 121.199 180.251 127.646 185.258 135.44C174.146 122.311 160.515 115.633 146.497 104.677C145.314 103.739 143.852 102.534 142.881 101.686C143.576 102.155 144.305 102.627 145.02 103.096Z" fill="#E4C26D"/>
<path d="M138.934 95.5327C134.604 90.4694 130.515 85.1308 127.438 79.2342C131.836 84.2268 135.701 89.7179 138.934 95.5327Z" fill="#E4C26D"/>
<path d="M139.715 108.677C131.82 99.2161 128.9 86.6751 124.447 75.3022C131.296 85.8417 134.012 98.1409 139.715 108.677Z" fill="#E4C26D"/>
<path d="M204.861 195.37C196.825 194.741 188.722 192.1 181.784 188.342C189.571 190.377 197.171 193.018 204.861 195.37Z" fill="#E4C26D"/>
<path d="M174.775 183.979C163.104 179.819 152.13 173.108 142.412 165.314C153.525 170.969 164.079 177.595 174.775 183.979Z" fill="#E4C26D"/>
<path d="M34.9187 181.297C45.1643 190.918 54.8332 201.454 66.3438 208.95C52.5378 203.109 41.8942 191.818 33.2706 179.876C33.0734 179.597 32.8502 179.281 32.7274 179.058C33.4417 179.821 34.1709 180.568 34.9187 181.297Z" fill="#E4C26D"/>
<path d="M100.046 242.201C93.3531 239.143 87.6275 234.116 82.2033 229.332C88.7621 232.777 94.3799 237.87 100.046 242.201Z" fill="#E4C26D"/>
<path d="M101.943 238.742C100.046 236.863 98.3789 234.672 96.9875 232.443C98.9481 234.274 100.518 236.461 101.943 238.742Z" fill="#E4C26D"/>
<path d="M103.215 230.672C102.553 229.943 101.82 229.021 101.403 228.239C102.132 228.95 102.727 229.768 103.215 230.672Z" fill="#E4C26D"/>
<path d="M78.9704 233.28C81.7197 235.315 83.5947 237.16 86.8462 238.935C79.6326 236.413 72.8468 230.672 68.1891 225.33C71.5113 227.782 76.7792 231.558 78.9704 233.28Z" fill="#E4C26D"/>
<path d="M74.3613 302.704C83.4053 300.13 92.5682 297.887 101.493 294.91C84.7073 302.998 65.8604 308.861 47.512 310.182C56.6229 308.322 65.4401 305.312 74.3613 302.704Z" fill="#E4C26D"/>
<path d="M33.1812 306.703C26.0829 309.173 18.4825 310.877 10.9712 309.519C18.5048 309.419 25.722 307.436 33.1812 306.703Z" fill="#E4C26D"/>
<path d="M190.37 324.181C178.253 338.18 162.862 348.876 150.042 362.165C160.671 346.703 176.151 335.974 190.37 324.181Z" fill="#E4C26D"/>
<path d="M192.636 331.033C191.155 333.589 188.997 336.16 186.914 337.99C188.622 335.505 190.634 333.277 192.636 331.033Z" fill="#E4C26D"/>
<path d="M183.833 325.52C183.316 325.989 182.669 326.476 182.115 326.789C182.632 326.301 183.208 325.87 183.833 325.52Z" fill="#E4C26D"/>
<path d="M155.489 339.642C153.245 342.931 150.686 346.301 147.855 348.983C149.979 345.557 152.516 342.372 155.489 339.642Z" fill="#E4C26D"/>
</svg>
