<svg width="106" height="107" viewBox="0 0 106 107" fill="none" xmlns="http://www.w3.org/2000/svg">
<path d="M88.6036 97.0115V39.0783C88.6036 20.2574 73.3462 5 54.5252 5H51.1174C32.2965 5 17.0391 20.2574 17.0391 39.0784V97.0115" stroke="#46413B" stroke-width="9.10714"/>
<path d="M67.1631 44.4522C63.6454 41.4545 58.4137 41.9937 55.1849 45.3253L53.9203 46.6284L52.6557 45.3253C49.4333 41.9937 44.1952 41.4545 40.6775 44.4522C36.6462 47.8929 36.4344 54.0682 40.042 57.7978L52.4631 70.6234C53.2655 71.4515 54.5686 71.4515 55.371 70.6234L67.7922 57.7978C71.4062 54.0682 71.1944 47.8929 67.1631 44.4522Z" fill="#46413B"/>
<rect y="96.9819" width="33.6964" height="10.0179" fill="#46413B"/>
<rect x="71.9463" y="96.9819" width="33.6964" height="10.0179" fill="#46413B"/>
</svg>
