<svg width="83" height="27" viewBox="0 0 83 27" fill="none" xmlns="http://www.w3.org/2000/svg">
<path fill-rule="evenodd" clip-rule="evenodd" d="M13.6658 0.923828C13.6385 0.923828 13.6115 0.923828 13.5846 0.923828C9.96474 0.923828 6.48042 1.76568 3.10466 3.46363C1.73534 6.72304 0.962707 10.0368 0.921904 13.4189C0.867625 16.7731 1.55902 20.2092 3.09118 23.7134C6.61593 25.2479 10.1407 26.0358 13.6658 26.0766C17.1906 26.0358 20.7157 25.2479 24.2404 23.7134C25.7726 20.2092 26.464 16.7731 26.4097 13.4189C26.3689 10.0368 25.5963 6.72304 24.2269 3.46363C20.8512 1.76568 17.3669 0.923828 13.747 0.923828C13.7201 0.923828 13.6931 0.923828 13.6658 0.923828Z" fill="#FEFEFE"/>
<path d="M2.53538 2.71642C6.08745 0.896225 9.77504 0 13.5847 0C13.6116 0 13.6386 0 13.6659 0C13.6932 0 13.7202 0 13.7471 0C17.5567 0 21.2443 0.896225 24.7964 2.71642L25.0135 2.94704C26.4641 6.36957 27.291 9.85998 27.3318 13.4048C27.3318 13.4726 27.3318 13.527 27.3318 13.5949V13.8394C27.3183 17.2484 26.5861 20.7253 25.0135 24.2566L24.7694 24.4872C21.0684 26.1308 17.367 26.9591 13.6659 27C9.96483 26.9591 6.26339 26.1308 2.56233 24.4872L2.31826 24.2566C0.745678 20.7253 0.0134761 17.2484 0 13.8394V13.5949C0 13.527 0 13.4726 0 13.4048C0.0408026 9.85998 0.867711 6.36957 2.31826 2.94704L2.53538 2.71642ZM13.6659 0.923599C13.6386 0.923599 13.6116 0.923599 13.5847 0.923599C9.96483 0.923599 6.48051 1.76545 3.10474 3.4634C1.73542 6.72281 0.962793 10.0366 0.92199 13.4186C0.867711 16.7729 1.55911 20.2089 3.09127 23.7132C6.61602 25.2477 10.1408 26.0355 13.6659 26.0764C17.1906 26.0355 20.7158 25.2477 24.2405 23.7132C25.7727 20.2089 26.4641 16.7729 26.4098 13.4186C26.369 10.0366 25.5964 6.72281 24.227 3.4634C20.8513 1.76545 17.3669 0.923599 13.7471 0.923599C13.7202 0.923599 13.6932 0.923599 13.6659 0.923599Z" fill="#003399"/>
<path fill-rule="evenodd" clip-rule="evenodd" d="M13.9103 21.0376C13.7205 18.4435 13.8425 15.7409 13.0695 13.269C12.3512 10.9602 9.62601 9.64284 9.57173 7.10303C9.51745 5.12009 11.0227 2.82478 13.8425 2.82478C16.4861 2.81128 18.1264 4.73985 18.3162 6.88591C18.5468 9.37135 15.5372 11.0415 14.7507 13.4047C13.9372 15.8223 14.1678 18.4978 13.9103 21.0376Z" fill="#003399"/>
<path fill-rule="evenodd" clip-rule="evenodd" d="M14.9539 20.413C14.8454 18.1585 14.8454 15.999 15.469 14.0839C16.1604 11.9108 17.5975 10.0775 19.7937 9.47979C21.2985 9.07255 23.5086 10.838 23.156 12.6443C22.8577 14.0974 21.4071 15.8089 19.0754 15.999C17.9905 16.0942 17.5297 16.9631 16.8518 17.4659C19.8888 17.1671 21.8544 15.9716 23.2238 14.7221C23.427 15.7815 23.5625 17.5608 22.7356 18.172C21.1088 19.3263 19.6039 18.3892 17.6922 18.9325C16.6212 19.2449 15.9571 19.924 14.9539 20.413Z" fill="#003399"/>
<path fill-rule="evenodd" clip-rule="evenodd" d="M12.8793 20.413C13.0013 18.1585 12.9879 15.999 12.3777 14.0839C11.6863 11.9108 10.2492 10.0775 8.05299 9.47979C6.54816 9.07255 4.3246 10.838 4.6907 12.6443C4.98905 14.0974 6.4396 15.8089 8.77172 15.999C9.84269 16.0942 10.317 16.9631 10.9949 17.4659C7.94443 17.1671 5.99227 15.9716 4.62295 14.7221C4.41968 15.7815 4.28417 17.5608 5.11108 18.172C6.73795 19.3263 8.24278 18.3892 10.1545 18.9325C11.2255 19.2449 11.8761 19.924 12.8793 20.413Z" fill="#003399"/>
<path fill-rule="evenodd" clip-rule="evenodd" d="M20.1058 23.7675V23.4007L20.3768 23.3329L20.1058 22.9252V22.2461L21.3261 23.9441L20.8922 24.0525L20.5939 23.6313L20.1058 23.7675ZM20.1058 22.2461V22.9252L19.916 22.6537L19.8347 23.4686L20.1058 23.4007V23.7675L19.7939 23.8353L19.7397 24.3378L19.3058 24.4466L19.5907 22.2326L20.0245 22.1239L20.1058 22.2461ZM16.0655 24.9491V24.5958H16.1606C16.3096 24.5823 16.4047 24.5688 16.4451 24.5549C16.4994 24.5414 16.5537 24.5006 16.581 24.4601C16.6214 24.4057 16.6353 24.3513 16.6353 24.2835C16.6214 24.2156 16.608 24.1612 16.5672 24.1203C16.5402 24.0798 16.4859 24.0525 16.4316 24.039C16.3774 24.0255 16.2553 24.0255 16.0655 24.039V23.6857C16.1741 23.6857 16.2419 23.6722 16.2692 23.6722C16.3369 23.6587 16.3912 23.6178 16.4316 23.5773C16.4725 23.5365 16.4859 23.4821 16.4725 23.4142C16.4725 23.3464 16.4451 23.292 16.4047 23.265C16.3774 23.2241 16.3231 23.1971 16.2419 23.1971C16.2149 23.1971 16.1606 23.1971 16.0655 23.2106V22.8574C16.2149 22.8439 16.3231 22.8439 16.3912 22.8574C16.4725 22.8574 16.5537 22.8847 16.6214 22.9252C16.6892 22.9526 16.7435 23.0066 16.7977 23.0749C16.8386 23.1427 16.8655 23.2241 16.879 23.319C16.8928 23.4142 16.8655 23.5095 16.8247 23.5908C16.7843 23.6722 16.7165 23.7401 16.6214 23.7945C16.7569 23.8218 16.8655 23.8758 16.9333 23.9576C17.0149 24.039 17.0553 24.1342 17.0688 24.2565C17.0688 24.3513 17.0553 24.4466 17.0283 24.5414C16.9875 24.6367 16.9333 24.7046 16.8655 24.7724C16.7843 24.8268 16.703 24.8673 16.5945 24.8947C16.5267 24.9082 16.3504 24.9217 16.0929 24.9491H16.0655ZM18.6279 23.808L19.0483 23.8623C19.0213 24.0933 18.9535 24.2835 18.8315 24.4192C18.7095 24.5414 18.5332 24.6367 18.3161 24.6772C18.045 24.7181 17.801 24.6637 17.5977 24.5144C17.3806 24.3513 17.2586 24.1203 17.1908 23.7945C17.1369 23.4551 17.1773 23.1697 17.3267 22.9526C17.4622 22.7351 17.6789 22.5994 17.9638 22.545C18.2213 22.5041 18.4246 22.545 18.6144 22.6672C18.723 22.7351 18.8177 22.8439 18.8854 23.0066L18.4924 23.1697C18.4519 23.0749 18.3838 22.9931 18.3026 22.9526C18.2079 22.8982 18.1128 22.8847 18.0042 22.8982C17.8552 22.9252 17.7467 23.0066 17.6655 23.1292C17.5842 23.265 17.5704 23.4416 17.6112 23.6857C17.6655 23.9441 17.7467 24.1203 17.8552 24.2156C17.9638 24.3108 18.0993 24.3513 18.2483 24.3243C18.3569 24.297 18.4381 24.2426 18.5058 24.1612C18.574 24.0798 18.6144 23.9576 18.6279 23.808ZM16.0655 22.8574V23.2106C16.0116 23.2106 15.9574 23.2241 15.8896 23.2241L15.6455 23.2515L15.686 23.7266L15.9708 23.6996C15.9978 23.6996 16.0386 23.6996 16.0655 23.6857V24.039C16.0655 24.039 16.0655 24.039 16.0521 24.039L15.7268 24.0663L15.7676 24.6228L16.0655 24.5958V24.9491L15.3876 25.0169L15.1978 22.9387L16.0251 22.8709C16.0386 22.8574 16.0521 22.8574 16.0655 22.8574ZM13.4489 24.2291V23.8758C13.544 23.8758 13.5983 23.8623 13.6387 23.8488C13.693 23.8353 13.7338 23.7945 13.7746 23.754C13.8016 23.6996 13.815 23.6452 13.815 23.5908C13.8289 23.5095 13.8016 23.4551 13.7608 23.4007C13.7203 23.3464 13.6661 23.319 13.5983 23.3055C13.5575 23.3055 13.5167 23.292 13.4489 23.292V22.9387C13.6526 22.9387 13.7746 22.9526 13.8424 22.9796C13.9644 23.0066 14.0591 23.0749 14.1403 23.1832C14.2219 23.292 14.2624 23.4277 14.2489 23.5908C14.2489 23.7131 14.2219 23.8218 14.1811 23.9167C14.1269 23.9985 14.0726 24.0663 14.0048 24.1203C13.9236 24.1612 13.8558 24.1882 13.7746 24.2156C13.693 24.2291 13.5848 24.2291 13.4489 24.2291ZM13.4489 22.9387V23.292C13.4085 23.292 13.3542 23.292 13.2865 23.292L13.0832 23.2785V23.8758H13.3C13.3542 23.8758 13.4085 23.8758 13.4489 23.8758V24.2291C13.422 24.2291 13.3812 24.2291 13.3408 24.2291H13.0694L13.0559 25.0169L12.6355 25.0031L12.6763 22.9252L13.3408 22.9387C13.3812 22.9387 13.422 22.9387 13.4489 22.9387ZM9.53114 24.0255V23.3872C9.65317 23.4142 9.7344 23.4142 9.7752 23.4142C9.82948 23.4007 9.86991 23.3872 9.91071 23.3464C9.93767 23.3055 9.96499 23.265 9.97847 23.1971C9.99194 23.1292 9.97847 23.0749 9.95114 23.0205C9.92419 22.9661 9.86991 22.9387 9.80216 22.9117C9.7752 22.8982 9.68012 22.8847 9.53114 22.8574V22.5041L9.70745 22.5315C9.92419 22.5724 10.0732 22.6129 10.1683 22.6672C10.263 22.7216 10.3311 22.803 10.3715 22.9117C10.4123 23.0066 10.4258 23.1292 10.3988 23.2515C10.3715 23.4007 10.3038 23.523 10.1952 23.6043C10.1005 23.6857 9.95114 23.7266 9.76135 23.7266C9.84296 23.7945 9.91071 23.8623 9.95114 23.9302C10.0054 24.012 10.0597 24.1342 10.1275 24.3108L10.3038 24.7589L9.81563 24.6637L9.59889 24.1612C9.57156 24.1203 9.55809 24.0663 9.53114 24.0255ZM10.7241 22.7351L11.1307 22.776L11.036 23.9032C11.0225 24.0798 11.0225 24.2021 11.0225 24.2426C11.036 24.3378 11.0764 24.4057 11.1307 24.4601C11.1984 24.5279 11.28 24.5549 11.4021 24.5688C11.5241 24.5823 11.6188 24.5549 11.6731 24.5144C11.7408 24.4736 11.7816 24.4192 11.8086 24.3513C11.8221 24.2835 11.8359 24.1612 11.8494 23.9985L11.9441 22.8439L12.3645 22.8847L12.2698 23.9711C12.2559 24.2291 12.229 24.4057 12.1882 24.5006C12.1612 24.5958 12.1069 24.6907 12.0527 24.7451C11.9849 24.8133 11.8902 24.8673 11.7816 24.8947C11.6866 24.9356 11.5511 24.9356 11.3882 24.9217C11.185 24.9082 11.036 24.8673 10.9409 24.8133C10.8462 24.7589 10.7646 24.6907 10.7107 24.6228C10.6564 24.5414 10.6291 24.4601 10.6156 24.3787C10.6021 24.2565 10.6021 24.0798 10.6156 23.8488L10.7241 22.7351ZM7.42961 23.3464L7.51084 23.0066L8.39241 23.2376L8.17529 24.039C8.06673 24.1068 7.93122 24.1477 7.74144 24.1612C7.56512 24.1747 7.40266 24.1612 7.23982 24.1203C7.02308 24.0663 6.84677 23.9711 6.72474 23.8488C6.58923 23.7131 6.50762 23.55 6.46719 23.3734C6.43987 23.1832 6.43987 22.9931 6.49415 22.803C6.54843 22.5994 6.64313 22.4228 6.77902 22.2735C6.90105 22.1374 7.06351 22.056 7.2533 22.0155C7.40266 21.9746 7.5786 21.9881 7.76876 22.0425C8.01245 22.1104 8.20224 22.2056 8.3108 22.3549C8.41936 22.4906 8.47364 22.6672 8.46016 22.8574L8.03978 22.8304C8.03978 22.7216 8.01245 22.6264 7.9447 22.545C7.87694 22.4771 7.79571 22.4093 7.67368 22.3823C7.49737 22.3414 7.34838 22.3549 7.21287 22.4363C7.07699 22.518 6.98228 22.6807 6.91453 22.8982C6.84677 23.1427 6.86025 23.3329 6.928 23.4821C7.00923 23.6313 7.13127 23.7266 7.2941 23.7675C7.38881 23.7945 7.47042 23.7945 7.56512 23.7945C7.6602 23.781 7.74144 23.754 7.82267 23.7266L7.89042 23.4686L7.42961 23.3464ZM9.53114 22.5041L8.82589 22.3823L8.47364 24.4327L8.88017 24.5006L9.02953 23.6452L9.12423 23.6587C9.21931 23.6722 9.28707 23.6996 9.3275 23.7131C9.3683 23.7401 9.39525 23.781 9.43605 23.8218C9.44953 23.8623 9.49033 23.9302 9.53114 24.0255V23.3872C9.49033 23.3872 9.44953 23.3734 9.39525 23.3734L9.09728 23.319L9.17851 22.803L9.50381 22.8574C9.51729 22.8574 9.53114 22.8574 9.53114 22.8574V22.5041Z" fill="#003399"/>
<path fill-rule="evenodd" clip-rule="evenodd" d="M74.145 19.965V16.1348H75.8262V9.39851L74.145 12.7667V4.35977H80.7476L82.4287 23.7269H75.8262V19.965H74.145ZM74.145 4.35977V12.7667L72.4639 16.1348H74.145V19.965H70.9729L69.6713 23.5232H65.5768V19.0957L70.1456 9.22189H69.2101L71.8133 4.35977H74.145ZM65.5768 10.8111L67.6241 5.9486L65.5768 4.80789V10.8111ZM49.2943 8.95039C49.3894 8.39354 49.3894 7.85018 49.2943 7.33419V8.95039ZM65.5768 4.80789V10.8111L65.3058 11.4628C61.2656 8.57016 55.3006 11.2048 54.9614 14.2606C54.6226 17.4522 57.0495 20.0328 63.2451 18.1043L61.1166 23.8082C52.9415 24.7183 49.769 21.4724 49.2943 17.6832V15.5375C49.4164 14.546 49.6743 13.5815 50.0265 12.6853C54.0533 2.66219 60.5877 4.91663 63.0688 4.72651L63.4349 3.61279L65.5768 4.80789ZM65.5768 19.0957L63.5296 23.5232H65.5768V19.0957ZM41.9465 23.401C46.3255 22.5318 50.6232 17.262 46.312 13.0655C47.9931 12.1689 49.0368 10.5531 49.2943 8.95039V7.33419C48.9964 5.66361 47.7083 4.3054 45.2815 4.26453L41.9465 4.19665V7.91805H43.3293C44.8072 7.91805 44.6174 11.7482 42.7734 11.7482H41.9465V14.6817C43.9395 15.062 43.2342 17.8324 41.9465 18.6881V23.401ZM49.2943 15.5375V17.6832C49.2131 16.977 49.2131 16.2571 49.2943 15.5375ZM36.1709 4.07441L33.473 9.31713L34.6795 9.22189L31.4258 23.5232H40.7396C41.1465 23.5232 41.5396 23.4824 41.9465 23.401V18.6881C41.7159 18.8512 41.4584 18.9461 41.2008 18.9461H37.852L38.9638 14.6409H41.4718C41.6482 14.6409 41.811 14.6544 41.9465 14.6817V11.7482H39.6144L40.5498 7.91805H41.9465V4.19665L36.1709 4.07441Z" fill="#003399"/>
</svg>
