<svg width="27" height="19" viewBox="0 0 27 19" fill="none" xmlns="http://www.w3.org/2000/svg">
<path d="M12.075 4.75C12.075 6.96475 10.2935 8.75 8.1 8.75C5.90653 8.75 4.125 6.96475 4.125 4.75C4.125 2.53525 5.90653 0.75 8.1 0.75C10.2935 0.75 12.075 2.53525 12.075 4.75ZM8.1 12.2857C9.19939 12.2857 10.2298 12.0305 11.1572 11.6071H11.34C13.6052 11.6071 15.45 13.456 15.45 15.7429V16.9643C15.45 17.6777 14.875 18.25 14.175 18.25H2.025C1.32497 18.25 0.75 17.6777 0.75 16.9643V15.7429C0.75 13.456 2.59482 11.6071 4.86 11.6071H5.04345C5.97295 12.03 6.99957 12.2857 8.1 12.2857ZM23.55 5.42857C23.55 7.26586 22.068 8.75 20.25 8.75C18.432 8.75 16.95 7.26586 16.95 5.42857C16.95 3.59128 18.432 2.10714 20.25 2.10714C22.068 2.10714 23.55 3.59128 23.55 5.42857ZM20.25 11.9464C20.9644 11.9464 21.6282 11.8082 22.2381 11.6071H22.275C24.4685 11.6071 26.25 13.3924 26.25 15.6071C26.25 16.3205 25.675 16.8929 24.975 16.8929H18.3V15.7429C18.3 14.2709 17.835 12.9149 17.0612 11.7947C17.4317 11.6737 17.8209 11.6071 18.225 11.6071H18.2619C18.8718 11.8082 19.5356 11.9464 20.25 11.9464Z" stroke="white" stroke-width="1.5"/>
</svg>
