<svg width="143" height="143" viewBox="0 0 143 143" fill="none" xmlns="http://www.w3.org/2000/svg">
<rect width="143" height="143" rx="4" fill="#5B5752"/>
<circle cx="70.6669" cy="39.6669" r="12.461" stroke="white" stroke-width="2.4118"/>
<path d="M66.6475 35.647L74.6868 43.6863" stroke="white" stroke-width="2.4118" stroke-linecap="round"/>
<path d="M74.6865 35.647L66.6472 43.6863" stroke="white" stroke-width="2.4118" stroke-linecap="round"/>
<g clip-path="url(#clip0_171_3936)">
<path d="M102.943 68.1562C102.926 68.3192 102.875 68.4737 102.797 68.6281C102.712 68.9884 102.669 69.4002 102.669 69.8548C102.669 69.8977 102.677 69.9406 102.677 69.9835V99.786C103.055 100.721 103.518 101.425 104.076 101.862C104.59 102.274 105.225 102.471 105.997 102.437C106.049 102.428 106.109 102.428 106.16 102.428H114.705C114.722 102.428 114.748 102.428 114.773 102.428C116.103 102.497 117.064 102.137 117.707 101.399C118.436 100.558 118.857 99.2113 119.003 97.4012V97.3754L121.602 70.4897C121.602 70.4468 121.602 70.4039 121.611 70.361C121.791 68.834 121.456 67.8388 120.701 67.2555C119.835 66.5863 118.402 66.3118 116.541 66.3118C116.498 66.3118 116.455 66.3204 116.412 66.3204H106.786V66.3118C105.32 66.3118 104.239 66.6035 103.578 67.204C103.304 67.4528 103.098 67.7702 102.943 68.1562ZM93.5238 101.124C93.3179 100.927 93.172 100.67 93.112 100.387L79.386 75.6798C77.859 73.1319 76.4864 73.0719 75.1567 73.8611C74.213 74.4187 73.2179 75.3281 72.2228 76.2374C71.6222 76.7865 71.0217 77.3355 70.5156 77.7559L68.1564 79.7032L68.1393 79.7118C66.4235 81.093 64.4847 81.8393 62.6489 81.9852C61.4393 82.0881 60.2726 81.9337 59.2088 81.5305C58.1193 81.1187 57.1585 80.4582 56.4379 79.5574C55.6572 78.588 55.1425 77.3527 55.0224 75.8943H55.031C55.0052 75.5425 55.1082 75.1908 55.3484 74.8991L62.8462 65.9772C61.2677 65.9515 59.8694 66.166 58.5568 66.5778C56.558 67.204 54.6878 68.2849 52.6461 69.6833C52.4145 69.8634 52.1142 69.9749 51.7968 69.9749H43.158V86.3003L43.1923 96.7406H48.2195C48.6999 96.7406 49.1631 96.9894 49.4119 97.4355L55.6572 108.322C56.5666 109.909 57.373 111.282 58.3767 112.182C59.3203 113.032 60.5557 113.555 62.4602 113.606C63.1722 113.624 63.8585 113.503 64.5019 113.238C64.8965 113.075 65.2911 112.851 65.6772 112.568L61.628 105.002C61.2677 104.333 61.5251 103.501 62.1942 103.149C62.8634 102.789 63.6955 103.046 64.0472 103.715L68.4481 111.942C70.0867 112.774 71.5708 113.032 72.9005 112.749C74.1187 112.483 75.2682 111.753 76.3491 110.57L70.0094 100.618C69.6062 99.9834 69.7864 99.1341 70.4298 98.7223C71.0646 98.3191 71.9139 98.4992 72.3257 99.1426L79 109.626C80.1753 110.106 81.2991 110.209 82.3714 109.918C83.3923 109.634 84.4217 108.982 85.4426 107.919L79.3946 96.5261C79.0343 95.857 79.2916 95.0163 79.9694 94.6645C80.6385 94.3042 81.4792 94.5616 81.8309 95.2393L88.0934 107.027C88.9084 107.498 89.8521 107.618 90.7528 107.473C91.5421 107.344 92.3056 107.001 92.9318 106.512C93.5323 106.031 94.0042 105.414 94.2272 104.71C94.476 103.947 94.4503 103.055 94.0471 102.085L93.5238 101.124ZM95.3425 98.7394H99.9235V69.9835C99.9235 69.9492 99.9235 69.9063 99.9321 69.872C99.9321 69.4259 99.9578 68.997 100.018 68.5938L95.351 65.4968C95.3253 65.4797 95.2996 65.4625 95.2738 65.4454C94.6647 65.0422 93.9355 64.5274 93.2064 64.0127C90.5555 62.1597 87.8361 60.2466 84.8936 59.4746C83.3065 59.0542 81.4706 58.7797 79.6005 58.7454C77.9619 58.7111 76.2977 58.8655 74.7277 59.2773C73.7927 59.5175 72.8833 59.852 72.0426 60.2981C71.2963 60.6927 70.6014 61.1732 69.9837 61.7565L66.861 65.4711C66.7667 65.6598 66.6294 65.8142 66.4664 65.9429L57.8534 76.2031C57.9821 76.8551 58.2394 77.4041 58.5911 77.8502C59.0029 78.3564 59.552 78.7338 60.1782 78.974C60.8474 79.2228 61.6194 79.3172 62.4258 79.2486C63.7384 79.137 65.1453 78.5966 66.4064 77.5843L68.7655 75.6369C69.366 75.1393 69.8722 74.6761 70.3783 74.2214C71.485 73.2091 72.5831 72.2054 73.7498 71.5105C76.4349 69.9063 79.1115 69.8548 81.7537 74.29L81.7795 74.3329L95.3425 98.7394ZM100.438 101.493H96.7751C97.2727 102.943 97.2469 104.316 96.8523 105.534C96.4491 106.786 95.6599 107.85 94.6476 108.656C93.661 109.437 92.46 109.978 91.1989 110.183C89.9722 110.389 88.6854 110.278 87.4843 109.78C86.0946 111.23 84.6276 112.148 83.1006 112.568C81.565 112.989 80.0123 112.903 78.4423 112.354C76.9496 114.01 75.3025 115.048 73.4838 115.434C71.6308 115.837 69.6663 115.554 67.5817 114.576C66.9297 115.082 66.252 115.485 65.5399 115.777C64.5362 116.197 63.481 116.386 62.3744 116.352C59.7321 116.274 57.9563 115.494 56.5408 114.224C55.1854 113.014 54.2846 111.47 53.2552 109.686L47.413 99.4944H42.8835C42.6175 100.807 42.1629 101.922 41.4766 102.814C40.3184 104.307 38.6284 105.096 36.2778 105.045C36.2521 105.045 36.2264 105.045 36.2006 105.045H28.4369C26.4809 105.362 24.8081 104.882 23.4955 103.363C22.3288 102.017 21.5396 99.8289 21.1964 96.6205C21.1878 96.5862 21.1878 96.5433 21.1793 96.5004L19.1375 71.1931C18.7343 68.4651 19.1804 66.5349 20.2785 65.2137C21.3852 63.884 23.058 63.2835 25.1083 63.1892C25.1684 63.1806 25.2199 63.1806 25.2799 63.1806H35.7374V63.1892C37.7105 63.1634 39.4091 63.498 40.6959 64.3301C41.7339 64.9993 42.4803 65.9429 42.8577 67.2297H51.3764C53.5211 65.7885 55.52 64.6561 57.7333 63.9612C59.9123 63.2835 62.2371 63.0433 65.0252 63.3779L67.8991 59.9807C67.9506 59.9121 68.002 59.852 68.0707 59.792C68.8856 59.0199 69.795 58.3851 70.773 57.8703C71.8024 57.3299 72.9005 56.9181 74.05 56.6178C75.8687 56.146 77.7818 55.9659 79.6519 56.0002C81.7709 56.0431 83.8298 56.3519 85.6056 56.8152C89.0028 57.7159 91.9367 59.7662 94.7848 61.7651C95.4197 62.2112 96.0545 62.6573 96.8094 63.1548C96.8352 63.172 96.8609 63.1892 96.8866 63.2063L101.022 65.9687C101.227 65.677 101.468 65.411 101.742 65.1708C102.926 64.1071 104.616 63.5838 106.795 63.5838V63.5752H116.42C116.455 63.5752 116.498 63.5752 116.532 63.5838C118.994 63.5752 121.001 64.0213 122.391 65.0936C123.935 66.2861 124.665 68.0962 124.356 70.6955C124.356 70.7213 124.347 70.7384 124.347 70.7642L121.748 97.6242C121.559 100.026 120.916 101.905 119.783 103.209C118.574 104.599 116.901 105.285 114.705 105.191H106.16H106.152C104.676 105.268 103.415 104.865 102.36 104.024C101.588 103.398 100.944 102.557 100.438 101.493ZM31.0105 91.0529C32.04 91.0529 32.8721 91.885 32.8721 92.9145C32.8721 93.9439 32.04 94.7761 31.0105 94.7761C29.9811 94.7761 29.1489 93.9439 29.1489 92.9145C29.1489 91.885 29.9811 91.0529 31.0105 91.0529ZM112.037 91.0529C113.066 91.0529 113.898 91.885 113.898 92.9145C113.898 93.9439 113.066 94.7761 112.037 94.7761C111.007 94.7761 110.175 93.9439 110.175 92.9145C110.175 91.885 111.007 91.0529 112.037 91.0529ZM40.4042 83.1261L40.3527 68.6023C40.3527 68.5766 40.3527 68.5509 40.3527 68.5166C40.2069 67.6072 39.8123 66.9981 39.2289 66.6207C38.4311 66.1059 37.2387 65.9086 35.7717 65.9258H35.7545V65.9344H25.2885C25.2713 65.9344 25.2542 65.9344 25.237 65.9344C23.9416 65.9944 22.9551 66.3032 22.3974 66.9724C21.7969 67.6844 21.591 68.9198 21.8741 70.8328C21.8827 70.8757 21.8827 70.91 21.8827 70.9529L23.9245 96.2859V96.3288C24.199 98.9539 24.7652 100.635 25.563 101.562C26.1978 102.3 27.0643 102.506 28.1023 102.317C28.1795 102.3 28.2653 102.291 28.3425 102.291V102.282H36.1921C36.2435 102.282 36.295 102.282 36.3379 102.291C37.7277 102.317 38.6885 101.905 39.289 101.124C39.9924 100.215 40.3356 98.7909 40.3871 96.9551H40.3785V83.1261H40.4042Z" fill="white"/>
</g>
<defs>
<clipPath id="clip0_171_3936">
<rect width="105.416" height="60.36" fill="white" transform="translate(19 56)"/>
</clipPath>
</defs>
</svg>
