<svg width="143" height="143" viewBox="0 0 143 143" fill="none" xmlns="http://www.w3.org/2000/svg">
<rect width="143" height="143" rx="4" fill="#5B5752"/>
<path d="M48.4923 62.3599C48.4923 68.0445 43.8799 72.6569 38.1954 72.6569C32.5108 72.6569 27.8984 68.0445 27.8984 62.3599C27.8984 56.6753 32.5108 52.0629 38.1954 52.0629C43.8799 52.0629 48.4923 56.6753 48.4923 62.3599ZM38.1954 78.5693C40.322 78.5693 42.3458 78.1127 44.1744 77.3071H48.293C53.2834 77.3071 57.3278 81.3515 57.3278 86.3419V87.6041C57.3278 89.1076 56.1076 90.3278 54.6041 90.3278H21.7866C20.2831 90.3278 19.0629 89.1076 19.0629 87.6041V86.3419C19.0629 81.3515 23.1073 77.3071 28.0977 77.3071H32.2172C34.0509 78.1121 36.0673 78.5693 38.1954 78.5693Z" stroke="white" stroke-width="2.12583"/>
<path d="M115.102 62.3599C115.102 68.0445 110.489 72.6569 104.805 72.6569C99.1202 72.6569 94.5078 68.0445 94.5078 62.3599C94.5078 56.6753 99.1202 52.0629 104.805 52.0629C110.489 52.0629 115.102 56.6753 115.102 62.3599ZM104.805 78.5693C106.931 78.5693 108.955 78.1127 110.784 77.3071H114.902C119.893 77.3071 123.937 81.3515 123.937 86.3419V87.6041C123.937 89.1076 122.717 90.3278 121.213 90.3278H88.396C86.8925 90.3278 85.6723 89.1076 85.6723 87.6041V86.3419C85.6723 81.3515 89.7167 77.3071 94.7071 77.3071H98.8266C100.66 78.1121 102.677 78.5693 104.805 78.5693Z" stroke="white" stroke-width="2.12583"/>
<path d="M60.8145 63.1174L82.4838 63.0415" stroke="white" stroke-width="2.12583"/>
<path d="M77.3678 56.7113C76.9527 56.2962 76.2797 56.2962 75.8646 56.7113C75.4495 57.1264 75.4495 57.7994 75.8646 58.2145L77.3678 56.7113ZM82.2709 63.1176L83.0225 63.8692C83.4376 63.4541 83.4376 62.7811 83.0225 62.366L82.2709 63.1176ZM75.8646 68.0207C75.4495 68.4358 75.4495 69.1088 75.8646 69.5239C76.2797 69.939 76.9527 69.939 77.3678 69.5239L75.8646 68.0207ZM75.8646 58.2145L81.5193 63.8692L83.0225 62.366L77.3678 56.7113L75.8646 58.2145ZM81.5193 62.366L75.8646 68.0207L77.3678 69.5239L83.0225 63.8692L81.5193 62.366Z" fill="white"/>
<path d="M63.2943 56.7113C63.7094 56.2962 64.3824 56.2962 64.7975 56.7113C65.2126 57.1264 65.2126 57.7994 64.7975 58.2145L63.2943 56.7113ZM58.3912 63.1176L57.6396 63.8692C57.2245 63.4541 57.2245 62.7811 57.6396 62.366L58.3912 63.1176ZM64.7975 68.0207C65.2126 68.4358 65.2126 69.1088 64.7975 69.5239C64.3824 69.939 63.7094 69.939 63.2943 69.5239L64.7975 68.0207ZM64.7975 58.2145L59.1428 63.8692L57.6396 62.366L63.2943 56.7113L64.7975 58.2145ZM59.1428 62.366L64.7975 68.0207L63.2943 69.5239L57.6396 63.8692L59.1428 62.366Z" fill="white"/>
</svg>
