<svg width="21" height="21" viewBox="0 0 21 21" fill="none" xmlns="http://www.w3.org/2000/svg">
<path d="M7 16.6692V4.38524C6.99994 3.90745 7.17094 3.44542 7.48203 3.08279C7.79312 2.72015 8.22376 2.48086 8.696 2.40824L17.696 1.02324C17.981 0.979407 18.2721 0.997728 18.5494 1.07694C18.8267 1.15616 19.0836 1.2944 19.3024 1.48218C19.5212 1.66997 19.6969 1.90286 19.8173 2.16488C19.9377 2.42691 20 2.71187 20 3.00024V14.6692" stroke="#5B5752" stroke-width="2" stroke-linecap="round" stroke-linejoin="round"/>
<path d="M7 7.66919L20 5.66919" stroke="#5B5752" stroke-width="2"/>
<path d="M7 16.6692C7 17.4648 6.68393 18.2279 6.12132 18.7905C5.55871 19.3531 4.79565 19.6692 4 19.6692C3.20435 19.6692 2.44129 19.3531 1.87868 18.7905C1.31607 18.2279 1 17.4648 1 16.6692C1 15.0122 2.343 14.6692 4 14.6692C5.657 14.6692 7 15.0122 7 16.6692ZM20 14.6692C20 15.4648 19.6839 16.2279 19.1213 16.7905C18.5587 17.3531 17.7956 17.6692 17 17.6692C16.2044 17.6692 15.4413 17.3531 14.8787 16.7905C14.3161 16.2279 14 15.4648 14 14.6692C14 13.0122 15.343 12.6692 17 12.6692C18.657 12.6692 20 13.0122 20 14.6692Z" stroke="#5B5752" stroke-width="2" stroke-linecap="round" stroke-linejoin="round"/>
</svg>
