<svg width="143" height="143" viewBox="0 0 143 143" fill="none" xmlns="http://www.w3.org/2000/svg">
<rect width="143" height="143" rx="4" fill="#5B5752"/>
<path d="M58.4725 53.8845C59.2916 53.8845 59.956 54.549 59.956 55.368V80.0933C59.956 80.9154 59.2916 81.5768 58.4725 81.5768H57.4835C56.6645 81.5768 56 80.9154 56 80.0933V55.368C56 54.549 56.6645 53.8845 57.4835 53.8845H58.4725ZM63.9121 54.8735V80.5878C63.9121 81.1318 63.467 81.5768 62.9231 81.5768C62.3791 81.5768 61.9341 81.1318 61.9341 80.5878V54.8735C61.9341 54.3271 62.3791 53.8845 62.9231 53.8845C63.467 53.8845 63.9121 54.3271 63.9121 54.8735ZM68.3626 53.8845C69.1848 53.8845 69.8462 54.549 69.8462 55.368V80.0933C69.8462 80.9154 69.1848 81.5768 68.3626 81.5768H67.3736C66.5515 81.5768 65.8901 80.9154 65.8901 80.0933V55.368C65.8901 54.549 66.5515 53.8845 67.3736 53.8845H68.3626ZM74.2967 53.8845C75.1188 53.8845 75.7802 54.549 75.7802 55.368V80.0933C75.7802 80.9154 75.1188 81.5768 74.2967 81.5768H73.3077C72.4856 81.5768 71.8242 80.9154 71.8242 80.0933V55.368C71.8242 54.549 72.4856 53.8845 73.3077 53.8845H74.2967ZM83.6923 55.368C83.6923 54.549 84.3537 53.8845 85.1758 53.8845H86.1648C86.987 53.8845 87.6484 54.549 87.6484 55.368V80.0933C87.6484 80.9154 86.987 81.5768 86.1648 81.5768H85.1758C84.3537 81.5768 83.6923 80.9154 83.6923 80.0933V55.368ZM79.7363 54.8735C79.7363 54.3271 80.1813 53.8845 80.7253 53.8845C81.2692 53.8845 81.7143 54.3271 81.7143 54.8735V80.5878C81.7143 81.1318 81.2692 81.5768 80.7253 81.5768C80.1813 81.5768 79.7363 81.1318 79.7363 80.5878V54.8735Z" fill="white"/>
<rect x="47.5" y="32.5" width="49" height="79" rx="2.5" stroke="white" stroke-width="3"/>
<path d="M64.3848 41.0771H81.0002V46.6156H64.3848V41.0771ZM69.9232 95.0771H75.4617V100.616H69.9232V95.0771Z" fill="white"/>
</svg>
