<svg width="15" height="15" viewBox="0 0 15 15" fill="none" xmlns="http://www.w3.org/2000/svg">
<path d="M7.66977 3.65419C5.58911 3.65419 3.91084 5.37125 3.91084 7.5C3.91084 9.62875 5.58911 11.3458 7.66977 11.3458C9.75042 11.3458 11.4287 9.62875 11.4287 7.5C11.4287 5.37125 9.75042 3.65419 7.66977 3.65419ZM7.66977 10.0003C6.32519 10.0003 5.22597 8.879 5.22597 7.5C5.22597 6.121 6.32192 4.99972 7.66977 4.99972C9.01761 4.99972 10.1136 6.121 10.1136 7.5C10.1136 8.879 9.01434 10.0003 7.66977 10.0003ZM12.4592 3.49688C12.4592 3.99559 12.0666 4.3939 11.5825 4.3939C11.095 4.3939 10.7057 3.99225 10.7057 3.49688C10.7057 3.00151 11.0983 2.59985 11.5825 2.59985C12.0666 2.59985 12.4592 3.00151 12.4592 3.49688ZM14.9488 4.40729C14.8932 3.20568 14.6249 2.1413 13.7645 1.26436C12.9074 0.387426 11.8671 0.112964 10.6926 0.0527167C9.48216 -0.0175722 5.8541 -0.0175722 4.64365 0.0527167C3.47246 0.109617 2.43213 0.384079 1.57174 1.26102C0.711339 2.13796 0.44635 3.20233 0.387463 4.40394C0.318762 5.64236 0.318762 9.35429 0.387463 10.5927C0.443078 11.7943 0.711339 12.8587 1.57174 13.7356C2.43213 14.6126 3.46919 14.887 4.64365 14.9473C5.8541 15.0176 9.48216 15.0176 10.6926 14.9473C11.8671 14.8904 12.9074 14.6159 13.7645 13.7356C14.6216 12.8587 14.8899 11.7943 14.9488 10.5927C15.0175 9.35429 15.0175 5.64571 14.9488 4.40729ZM13.385 11.9215C13.1299 12.5775 12.6359 13.083 11.9914 13.3474C11.0263 13.739 8.73627 13.6486 7.66977 13.6486C6.60327 13.6486 4.30996 13.7356 3.34815 13.3474C2.70694 13.0863 2.21295 12.5809 1.9545 11.9215C1.57174 10.9341 1.66007 8.59115 1.66007 7.5C1.66007 6.40885 1.57501 4.06253 1.9545 3.07849C2.20967 2.42246 2.70367 1.91705 3.34815 1.65263C4.31323 1.26102 6.60327 1.35139 7.66977 1.35139C8.73627 1.35139 11.0296 1.26436 11.9914 1.65263C12.6326 1.9137 13.1266 2.41911 13.385 3.07849C13.7678 4.06588 13.6795 6.40885 13.6795 7.5C13.6795 8.59115 13.7678 10.9375 13.385 11.9215Z" fill="#5B5752"/>
</svg>
