<svg width="22" height="22" viewBox="0 0 22 22" fill="none" xmlns="http://www.w3.org/2000/svg">
<path d="M22 18.0278C22 19.0813 21.5815 20.0916 20.8366 20.8366C20.0916 21.5815 19.0813 22 18.0278 22H3.97222C2.91872 22 1.90837 21.5815 1.16344 20.8366C0.418501 20.0916 0 19.0813 0 18.0278V3.97222C0 2.91872 0.418501 1.90837 1.16344 1.16344C1.90837 0.418501 2.91872 0 3.97222 0H18.0278C19.0813 0 20.0916 0.418501 20.8366 1.16344C21.5815 1.90837 22 2.91872 22 3.97222V18.0278ZM20.1667 18.0278V3.97222C20.1667 3.40495 19.9413 2.86092 19.5402 2.4598C19.1391 2.05868 18.595 1.83333 18.0278 1.83333H3.97222C3.40495 1.83333 2.86092 2.05868 2.4598 2.4598C2.05868 2.86092 1.83333 3.40495 1.83333 3.97222V18.0278C1.83333 19.2084 2.79156 20.1667 3.97222 20.1667H18.0278C18.595 20.1667 19.1391 19.9413 19.5402 19.5402C19.9413 19.1391 20.1667 18.595 20.1667 18.0278ZM17.1111 5.80556C17.1111 6.02707 17.0309 6.24108 16.8853 6.40803C16.7397 6.57497 16.5386 6.68354 16.3191 6.71367L16.1944 6.72222H5.80556C5.5733 6.72215 5.34974 6.63392 5.18003 6.47537C5.01033 6.31681 4.90713 6.09975 4.8913 5.86804C4.87547 5.63632 4.94819 5.40724 5.09475 5.22708C5.24132 5.04691 5.45081 4.9291 5.68089 4.89744L5.80556 4.88889H16.1944C16.4376 4.88889 16.6707 4.98547 16.8426 5.15737C17.0145 5.32928 17.1111 5.56244 17.1111 5.80556V5.80556ZM17.1111 16.1944C17.1111 16.416 17.0309 16.63 16.8853 16.7969C16.7397 16.9639 16.5386 17.0724 16.3191 17.1026L16.1944 17.1111H5.80556C5.5733 17.111 5.34974 17.0228 5.18003 16.8643C5.01033 16.7057 4.90713 16.4886 4.8913 16.2569C4.87547 16.0252 4.94819 15.7961 5.09475 15.616C5.24132 15.4358 5.45081 15.318 5.68089 15.2863L5.80556 15.2778H16.1944C16.4376 15.2778 16.6707 15.3744 16.8426 15.5463C17.0145 15.7182 17.1111 15.9513 17.1111 16.1944ZM17.1111 11C17.1111 11.2215 17.0309 11.4355 16.8853 11.6025C16.7397 11.7694 16.5386 11.878 16.3191 11.9081L16.1944 11.9167H5.80556C5.5733 11.9166 5.34974 11.8284 5.18003 11.6698C5.01033 11.5113 4.90713 11.2942 4.8913 11.0625C4.87547 10.8308 4.94819 10.6017 5.09475 10.4215C5.24132 10.2414 5.45081 10.1235 5.68089 10.0919L5.80556 10.0833H16.1944C16.4376 10.0833 16.6707 10.1799 16.8426 10.3518C17.0145 10.5237 17.1111 10.7569 17.1111 11Z" fill="white"/>
</svg>
