<svg width="103" height="103" viewBox="0 0 103 103" fill="none" xmlns="http://www.w3.org/2000/svg">
<path d="M86.3859 93.3053V27.8134C86.3859 14.6616 75.7243 4 62.5725 4H40.4257C27.2739 4 16.6123 14.6617 16.6123 27.8134V93.3053" stroke="#46413B" stroke-width="6.36392"/>
<path d="M65.482 42.2919C62.0523 39.3823 56.9515 39.9056 53.8035 43.1392L52.5705 44.404L51.3376 43.1392C48.1958 39.9056 43.0888 39.3823 39.6591 42.2919C35.7287 45.6314 35.5222 51.625 39.0395 55.2449L51.1499 67.6933C51.9322 68.497 53.2027 68.497 53.985 67.6933L66.0953 55.2449C69.6189 51.625 69.4123 45.6314 65.482 42.2919Z" fill="#46413B"/>
<rect y="93.2769" width="32.8531" height="9.72321" fill="#46413B"/>
<rect x="70.1465" y="93.2769" width="32.8531" height="9.72321" fill="#46413B"/>
</svg>
