<svg width="15" height="15" viewBox="0 0 15 15" fill="none" xmlns="http://www.w3.org/2000/svg">
<path d="M12.468 2.17969C11.0965 0.773437 9.26999 0 7.32892 0C3.3224 0 0.0621927 3.33482 0.0621927 7.43304C0.0621927 8.74219 0.396069 10.0212 1.03109 11.1496L0 15L3.85267 13.9654C4.91322 14.558 6.10798 14.8694 7.32565 14.8694H7.32892C11.3322 14.8694 14.6644 11.5346 14.6644 7.43638C14.6644 5.45089 13.8395 3.58594 12.468 2.17969ZM7.32892 13.6172C6.24218 13.6172 5.17836 13.3192 4.25202 12.7567L4.03271 12.6228L1.74794 13.2355L2.35678 10.9554L2.21275 10.721C1.60719 9.73661 1.28968 8.60156 1.28968 7.43304C1.28968 4.0279 3.99997 1.25558 7.33219 1.25558C8.94593 1.25558 10.4615 1.89844 11.6006 3.06696C12.7397 4.23549 13.4402 5.78571 13.4369 7.43638C13.4369 10.8449 10.6579 13.6172 7.32892 13.6172ZM10.6415 8.98995C10.4615 8.8962 9.56786 8.44754 9.40092 8.38728C9.23398 8.32366 9.11287 8.29353 8.99176 8.48103C8.87064 8.66853 8.52367 9.0837 8.41566 9.21094C8.31091 9.33482 8.20289 9.35156 8.02286 9.25781C6.95576 8.71205 6.25528 8.28348 5.55152 7.04799C5.36494 6.71987 5.73809 6.7433 6.08506 6.03348C6.14398 5.9096 6.11452 5.80245 6.0687 5.7087C6.02287 5.61495 5.65954 4.70089 5.50896 4.32924C5.36167 3.96763 5.21109 4.01786 5.0998 4.01116C4.99506 4.00446 4.87394 4.00446 4.75283 4.00446C4.63172 4.00446 4.43532 4.05134 4.26838 4.23549C4.10144 4.42299 3.63336 4.87165 3.63336 5.78571C3.63336 6.69978 4.28475 7.58371 4.37313 7.70759C4.46478 7.83147 5.65299 9.70647 7.47622 10.5134C8.62842 11.0223 9.08013 11.0658 9.65624 10.9788C10.0065 10.9252 10.7299 10.5301 10.8804 10.0949C11.031 9.6596 11.031 9.28795 10.9852 9.21094C10.9426 9.12723 10.8215 9.08036 10.6415 8.98995Z" fill="#5B5752"/>
</svg>
