<svg width="82" height="82" viewBox="0 0 82 82" fill="none" xmlns="http://www.w3.org/2000/svg">
<rect width="82" height="82" rx="5" fill="#F0F0F0"/>
<g clip-path="url(#clip0_3017_6655)">
<path d="M66.2498 52.526H60.1255C59.5215 52.526 59.0317 53.0157 59.0317 53.6198V53.7509H58.2516C57.2478 53.7509 56.9495 53.445 56.8514 53.3445C56.2409 52.7186 56.1965 51.0451 56.2393 49.3298C56.2525 48.8 56.2659 48.3222 56.2781 47.8884C56.4033 43.4401 56.3755 43.2861 54.7925 39.6504C54.3312 38.5911 53.6995 37.1402 52.8894 35.1402C50.5925 29.4694 48.6089 24.5719 48.95 16.7354C48.9966 15.6678 48.3004 14.7228 47.1332 14.2693C45.7731 13.7407 43.6928 13.9069 42.3401 15.5206C41.6964 16.2886 41.2744 17.0969 40.9999 17.9141C40.7256 17.0969 40.3035 16.2886 39.6598 15.5206C38.3071 13.9068 36.2268 13.7407 34.8667 14.2693C33.6994 14.7228 33.0033 15.6678 33.0498 16.7354C33.3911 24.5719 31.4073 29.4694 29.1104 35.1402C28.3003 37.1401 27.6687 38.591 27.2074 39.6502C25.6243 43.286 25.5965 43.4399 25.7218 47.8881C25.734 48.3219 25.7474 48.7997 25.7606 49.3296C25.8035 51.045 25.759 52.7185 25.1485 53.3444C25.0505 53.4449 24.7521 53.7508 23.7483 53.7508H22.9682V53.6197C22.9682 53.0156 22.4785 52.5259 21.8744 52.5259H15.7501C15.146 52.5259 14.6562 53.0156 14.6562 53.6197V68.9061C14.6562 69.5102 15.146 69.9999 15.7501 69.9999H21.8744C22.4785 69.9999 22.9682 69.5102 22.9682 68.9061V68.775H22.9731L31.1104 68.7384C34.601 68.7384 37.2328 67.7617 38.9325 65.8356C40.0866 64.5278 40.7037 62.9028 40.9999 61.1834C41.2961 62.9028 41.9133 64.5278 43.0674 65.8356C44.7672 67.7618 47.3989 68.7385 50.8847 68.7385L59.0268 68.7752H59.0317V68.9062C59.0317 69.5103 59.5215 70 60.1255 70H66.2498C66.8538 70 67.3436 69.5103 67.3436 68.9062V53.6198C67.3436 53.0157 66.8539 52.526 66.2498 52.526ZM38.3744 50.6564C38.4105 51.3639 38.515 52.1968 38.6359 53.1612C39.0854 56.7472 39.7012 61.6584 37.2923 64.3882C36.0259 65.8231 33.9461 66.5508 31.1056 66.5508L22.9683 66.5874V66.1856C22.9683 65.5815 22.4786 65.0918 21.8745 65.0918C21.2704 65.0918 20.7807 65.5815 20.7807 66.1856V67.8124H16.844V54.7136H20.7807V56.3413C20.7807 56.9454 21.2704 57.4351 21.8745 57.4351C22.4786 57.4351 22.9683 56.9454 22.9683 56.3413V55.9385H23.7484C25.0445 55.9385 26.0147 55.5897 26.7147 54.8719C27.8294 53.7292 28.0129 51.8832 27.9477 49.2752C27.9344 48.7427 27.9209 48.2626 27.9087 47.8266C27.7948 43.7813 27.7948 43.7813 29.2133 40.5236C29.6792 39.4533 30.3175 37.9876 31.1382 35.9615C33.4314 30.2999 35.5974 24.9522 35.2355 16.6403C35.2325 16.5714 35.378 16.4177 35.659 16.3085C36.2069 16.0955 37.2779 16.0845 37.9834 16.9261C39.4287 18.6504 39.3362 20.7503 39.247 22.7811C39.2415 22.9043 39.2361 23.0264 39.2312 23.1472C39.0884 24.9123 38.8814 26.8972 38.6811 28.8172C38.371 31.791 38.0529 34.8418 37.9551 37.2485C37.5137 37.0745 37.0731 36.9725 36.663 36.9414C35.423 36.8478 34.3909 37.3728 33.9045 38.3474C33.6673 38.8229 33.5054 39.3941 33.3005 40.1174C32.9229 41.4496 32.4059 43.2743 31.091 45.5002C30.335 46.7802 30.0179 48.1344 30.1216 49.6404C30.163 50.2431 30.685 50.6977 31.288 50.6566C31.8907 50.6151 32.3456 50.0929 32.3042 49.4901C32.2309 48.4257 32.444 47.5114 32.9747 46.6128C34.4336 44.1431 35.0185 42.0794 35.4054 40.7137C35.5723 40.1249 35.7163 39.6163 35.8623 39.3239C35.9705 39.1069 36.3424 39.1108 36.4977 39.1227C37.3934 39.1907 38.5712 39.9645 38.9894 41.2646C39.6817 43.4168 39.391 44.4514 38.9889 45.8836C38.6484 47.0949 38.2629 48.4678 38.3744 50.6564ZM41.4407 50.5452C41.4088 51.172 41.309 51.9677 41.1935 52.889C41.1301 53.3952 41.0625 53.9367 41 54.5022C40.9376 53.9368 40.87 53.3952 40.8065 52.889C40.691 51.9676 40.5913 51.1719 40.5593 50.5451C40.4756 48.9017 40.7246 47.8166 41 46.8153C41.2755 47.8167 41.5245 48.9018 41.4407 50.5452ZM41.8869 38.8264C41.5251 39.2682 41.2191 39.7892 41 40.389C40.7811 39.7891 40.475 39.2681 40.1132 38.8264C40.0887 36.4104 40.4789 32.6687 40.8569 29.0441C40.9046 28.5872 40.9525 28.1267 40.9999 27.6662C41.0474 28.1267 41.0954 28.5872 41.143 29.0439C41.5211 32.6687 41.9113 36.4104 41.8869 38.8264ZM50.8896 66.5509C48.0539 66.5509 45.9741 65.8233 44.7077 64.3882C42.2988 61.6584 42.9144 56.7473 43.3641 53.1612C43.485 52.1969 43.5894 51.3639 43.6255 50.6566C43.7371 48.4679 43.3515 47.095 43.0114 45.8837C42.6093 44.4515 42.3188 43.4169 43.0109 41.2647C43.4291 39.9646 44.6068 39.1908 45.5026 39.1228C45.6573 39.1111 46.0296 39.1071 46.138 39.324C46.2839 39.6164 46.4279 40.1249 46.5948 40.7137C46.9818 42.0794 47.5667 44.1431 49.0256 46.6128C49.5565 47.5116 49.7695 48.4258 49.6961 49.4901C49.6546 50.0928 50.1095 50.6151 50.7122 50.6567C51.3138 50.698 51.837 50.2432 51.8786 49.6406C51.9824 48.1348 51.6653 46.7805 50.9093 45.5003C49.5943 43.2743 49.0773 41.4496 48.6997 40.1174C48.4948 39.3943 48.3329 38.8231 48.0958 38.3475C47.6095 37.3729 46.5773 36.8467 45.3372 36.9415C44.9271 36.9726 44.4864 37.0746 44.0451 37.2486C43.9472 34.842 43.6291 31.7908 43.3189 28.8171C43.1188 26.8972 42.9117 24.9123 42.769 23.1473C42.764 23.0264 42.7586 22.9043 42.7532 22.7809C42.664 20.7502 42.5715 18.6504 44.0168 16.9262C44.7221 16.0847 45.7931 16.0959 46.3412 16.3086C46.6222 16.4178 46.7677 16.5715 46.7647 16.6404C46.4026 24.9523 48.5687 30.2999 50.8619 35.9616C51.6826 37.9878 52.3209 39.4536 52.7869 40.5238C54.2054 43.7815 54.2054 43.7815 54.0915 47.827C54.0793 48.2627 54.0658 48.7428 54.0525 49.2752C53.9873 51.8833 54.1708 53.7292 55.2854 54.872C55.9854 55.5898 56.9557 55.9386 58.2517 55.9386H59.0318V66.5875L50.8896 66.5509ZM65.156 67.8124H61.2193V54.7136H65.156V67.8124Z" fill="#36343B"/>
<path d="M21.8746 60.1697C21.2705 60.1697 20.7808 60.6598 20.7808 61.2639C20.7808 61.8681 21.2705 62.3578 21.8746 62.3578C22.4787 62.3578 22.9684 61.8681 22.9684 61.2639V61.2631C22.9684 60.6589 22.4787 60.1697 21.8746 60.1697Z" fill="#36343B"/>
</g>
<defs>
<clipPath id="clip0_3017_6655">
<rect width="56" height="56" fill="white" transform="translate(13 14)"/>
</clipPath>
</defs>
</svg>
