<svg width="67" height="67" viewBox="0 0 67 67" fill="none" xmlns="http://www.w3.org/2000/svg">
<g clip-path="url(#clip0_3017_5637)">
<path d="M56.495 45.5313C55.9529 45.5313 55.5136 45.9707 55.5136 46.5128V63.2588C55.5136 64.2395 54.7151 65.0372 53.7338 65.0372C53.2593 65.0372 52.8129 64.852 52.4767 64.5159C52.1407 64.1798 51.9555 63.7329 51.9555 63.2575V60.4977C51.9555 59.9557 51.5162 59.5163 50.9741 59.5163H11.486V13.1318C11.486 12.5898 11.0465 12.1504 10.5045 12.1504C9.96249 12.1504 9.52307 12.5898 9.52307 13.1318V59.5163H5.5083C4.67852 59.5163 4.00342 60.1914 4.00342 61.0211V63.2588C4.00342 65.3218 5.68182 67.0001 7.74469 67.0001H18.165C18.707 67.0001 19.1465 66.5607 19.1465 66.0187C19.1465 65.4766 18.707 65.0372 18.165 65.0372H7.74469C6.76403 65.0372 5.96631 64.2395 5.96631 63.2588V61.4791H49.9926V63.2575C49.9926 63.8893 50.1481 64.497 50.441 65.0372H22.7451C22.2031 65.0372 21.7637 65.4766 21.7637 66.0187C21.7637 66.5607 22.2031 67.0001 22.7451 67.0001H53.7339C55.7977 67.0001 57.4766 65.3218 57.4766 63.2588V46.5128C57.4765 45.9707 57.0371 45.5313 56.495 45.5313Z" fill="#36343B"/>
<path d="M10.5044 9.5331C11.0464 9.5331 11.4858 9.09368 11.4858 8.55166V3.74127C11.4858 2.76061 12.2836 1.96289 13.2642 1.96289H46.8336C47.3757 1.96289 47.815 1.52346 47.815 0.981445C47.815 0.439426 47.3757 0 46.8336 0H13.2642C11.2012 0 9.52295 1.67827 9.52295 3.74127V8.55166C9.52295 9.09368 9.96238 9.5331 10.5044 9.5331Z" fill="#36343B"/>
<path d="M20.6246 13.6705C19.9572 14.3378 19.9572 15.4237 20.6246 16.0912L21.8329 17.2994C23.1339 18.6004 24.8624 19.3564 26.7 19.4281C28.2641 19.4906 29.8084 19.0446 31.09 18.1668L32.8055 19.8822C32.9971 20.0738 33.2483 20.1697 33.4994 20.1697C33.7505 20.1697 34.0018 20.0739 34.1935 19.8822L35.9088 18.1668C37.1918 19.0455 38.7377 19.4913 40.3032 19.4279C42.139 19.3552 43.8661 18.5994 45.1661 17.2994L46.3743 16.0912C46.6976 15.7679 46.8756 15.338 46.8756 14.8808C46.8756 14.4234 46.6975 13.9935 46.3743 13.6703L45.1659 12.462C44.981 12.2771 44.7864 12.1045 44.5848 11.9419C45.0983 10.9278 45.3672 9.8063 45.3672 8.65527V6.94663C45.3672 6.00275 44.5993 5.23486 43.6554 5.23486H41.9465C40.4372 5.23486 39.0074 5.6862 37.784 6.54176C36.3223 6.20793 34.7253 6.6081 33.5891 7.74435L33.4994 7.83399C32.3696 6.64134 30.7145 6.19446 29.215 6.54176C27.9914 5.6862 26.5615 5.23486 25.0522 5.23486H23.3434C22.3995 5.23486 21.6317 6.00275 21.6317 6.94663V8.6554C21.6317 9.80657 21.9006 10.9279 22.4141 11.9421C22.2125 12.1046 22.0178 12.2772 21.8329 12.4621L20.6246 13.6705ZM43.7782 15.9115C42.0566 17.633 39.3762 17.9324 37.3314 16.7442L39.9601 14.1155C40.4542 13.6214 40.8184 13.0324 41.0378 12.39C42.0706 12.5919 43.0245 13.0966 43.778 13.8501L44.8088 14.8809L43.7782 15.9115ZM41.9467 7.19775H43.4044V8.6554C43.4044 9.44683 43.2304 10.2185 42.8979 10.9237C42.3726 10.6973 41.8206 10.5332 41.2522 10.4355C41.137 9.36714 40.6403 8.36829 39.8397 7.62985C40.4975 7.34549 41.209 7.19775 41.9467 7.19775ZM32.0218 9.13238L32.8053 9.9161C32.9895 10.1002 33.239 10.2036 33.4994 10.2036C33.7598 10.2036 34.0093 10.1002 34.1935 9.9161L34.977 9.13238C35.9683 8.14125 37.5808 8.14125 38.5723 9.13238C39.0524 9.6125 39.3168 10.2508 39.3168 10.9299C39.3168 11.6089 39.0523 12.2472 38.5722 12.7275L33.4994 17.8002L28.4267 12.7275C27.9465 12.2474 27.6821 11.609 27.6821 10.9299C27.6821 10.2508 27.9465 9.6125 28.4267 9.13225C28.9224 8.63668 29.5732 8.38884 30.2243 8.38884C30.8752 8.38897 31.5263 8.63681 32.0218 9.13238ZM23.5945 8.6554V7.19775H25.0522C25.7898 7.19775 26.5015 7.34549 27.1593 7.62985C26.3587 8.36829 25.8619 9.36701 25.7468 10.4355C25.1783 10.5332 24.6264 10.6973 24.1011 10.9237C23.7686 10.2186 23.5945 9.44683 23.5945 8.6554ZM23.2208 13.85C23.9743 13.0965 24.9283 12.5916 25.961 12.3897C26.1805 13.0322 26.5445 13.6212 27.0388 14.1154L29.6676 16.7442C27.6227 17.9328 24.9433 17.6338 23.2209 15.9114L22.1902 14.8808L23.2208 13.85Z" fill="#36343B"/>
<path d="M30.3994 51.8363C30.0017 52.4297 29.8938 53.1617 30.1032 53.8448C30.3125 54.5278 30.8123 55.0736 31.4742 55.3421C31.7948 55.4722 32.127 55.5345 32.4547 55.5345C33.3322 55.5345 34.1754 55.0875 34.6618 54.2992C35.3081 53.2515 35.6529 52.0591 35.6788 50.8523L36.9284 50.536L37.5108 51.5345C37.8105 52.0481 38.3444 52.3563 38.939 52.3589H38.9465C39.5382 52.3589 40.0718 52.0557 40.3747 51.5465L41.2253 50.1162L41.6764 50.8145C42.8028 52.5578 45.0379 53.1445 46.8753 52.1795L49.0812 51.0208C49.561 50.7687 49.7458 50.1754 49.4936 49.6955C49.2415 49.2157 48.648 49.0312 48.1684 49.2831L45.9625 50.4418C45.0305 50.9315 43.8967 50.6339 43.3251 49.7493L42.3362 48.2185C42.081 47.8237 41.648 47.593 41.1782 47.6023C40.7084 47.6111 40.2845 47.8575 40.0445 48.2613L38.9486 50.1041L38.453 49.2544C38.115 48.6754 37.4247 48.3856 36.7748 48.5503L35.4349 48.8894C35.1761 47.8528 34.394 47.026 33.3655 46.7288C32.3887 46.4437 31.3454 46.6698 30.5744 47.3338L30.3691 47.5107C29.9584 47.8644 29.9121 48.4842 30.2658 48.8949C30.6195 49.3056 31.2391 49.3519 31.65 48.9982L31.8555 48.8213C32.1245 48.5895 32.4743 48.5136 32.8151 48.6132C33.19 48.7192 33.4533 49.021 33.5387 49.3974C32.2609 49.8493 31.1604 50.7004 30.3994 51.8363ZM32.0302 52.9289C32.4445 52.3105 33.0047 51.8145 33.656 51.4797C33.5554 52.1073 33.3321 52.7162 32.9914 53.2685C32.828 53.533 32.5008 53.6406 32.2123 53.5233C32.0587 53.4609 32.0007 53.3375 31.9799 53.2696C31.959 53.2014 31.9378 53.0666 32.0302 52.9289Z" fill="#36343B"/>
<path d="M21.6981 55.2456C21.8897 55.4371 22.1409 55.5331 22.3921 55.5331C22.6432 55.5331 22.8944 55.4373 23.086 55.2456L26.4938 51.8377C27.6885 50.6432 27.6885 48.6995 26.4938 47.505C25.9152 46.9263 25.1459 46.6077 24.3275 46.6077C23.6136 46.6077 22.9371 46.8501 22.3919 47.296C21.8468 46.85 21.1702 46.6077 20.4564 46.6077C19.638 46.6077 18.8687 46.9263 18.29 47.505C17.0954 48.6995 17.0954 50.6432 18.29 51.8377L21.6981 55.2456ZM19.6782 48.8927C19.8861 48.6848 20.1626 48.5703 20.4566 48.5703C20.7507 48.5703 21.0271 48.6848 21.235 48.8927L21.6981 49.3558C22.0814 49.7391 22.7028 49.7391 23.086 49.3558L23.5491 48.8927C23.7569 48.6848 24.0334 48.5703 24.3275 48.5703C24.6215 48.5703 24.898 48.6848 25.1059 48.8927C25.3139 49.1007 25.4284 49.3772 25.4284 49.6712C25.4284 49.9653 25.3139 50.2418 25.1059 50.4497L22.3921 53.1636L19.6782 50.4497C19.4702 50.2418 19.3557 49.9653 19.3557 49.6712C19.3557 49.3772 19.4702 49.1007 19.6782 48.8927Z" fill="#36343B"/>
<path d="M59.2553 0C59.2552 0 59.2552 0 59.2553 0H51.4141C50.8719 0 50.4326 0.439426 50.4326 0.981445C50.4326 1.52346 50.8719 1.96289 51.4141 1.96289H55.964C55.6768 2.49222 55.5135 3.09836 55.5135 3.74179L55.514 41.9326C55.514 42.4746 55.9533 42.914 56.4955 42.914C57.0376 42.914 57.4769 42.4746 57.4769 41.9326V7.48359H61.4921C62.3218 7.48359 62.9969 6.80848 62.9969 5.9787V3.74179C62.9967 1.67866 61.3183 0.000130859 59.2553 0ZM61.0338 5.5207H57.4763V3.74179C57.4763 2.76087 58.2742 1.96289 59.255 1.96289C60.2359 1.96289 61.0339 2.76087 61.0339 3.74179V5.5207H61.0338Z" fill="#36343B"/>
<path d="M51.26 23.4695H46.6006C46.0584 23.4695 45.6191 23.9089 45.6191 24.4509C45.6191 24.9929 46.0584 25.4324 46.6006 25.4324H51.26C51.8021 25.4324 52.2414 24.9929 52.2414 24.4509C52.2414 23.9089 51.8021 23.4695 51.26 23.4695Z" fill="#36343B"/>
<path d="M14.7583 24.4509C14.7583 24.9929 15.1977 25.4324 15.7397 25.4324H42.0197C42.5619 25.4324 43.0012 24.9929 43.0012 24.4509C43.0012 23.9089 42.5619 23.4695 42.0197 23.4695H15.7397C15.1977 23.4695 14.7583 23.9089 14.7583 24.4509Z" fill="#36343B"/>
<path d="M51.2596 28.7043H27.9292C27.3872 28.7043 26.9478 29.1438 26.9478 29.6858C26.9478 30.2278 27.3872 30.6672 27.9292 30.6672H51.2596C51.8017 30.6672 52.241 30.2278 52.241 29.6858C52.241 29.1438 51.8017 28.7043 51.2596 28.7043Z" fill="#36343B"/>
<path d="M15.7397 30.6672H23.3488C23.8908 30.6672 24.3303 30.2278 24.3303 29.6858C24.3303 29.1438 23.8908 28.7043 23.3488 28.7043H15.7397C15.1977 28.7043 14.7583 29.1438 14.7583 29.6858C14.7583 30.2278 15.1977 30.6672 15.7397 30.6672Z" fill="#36343B"/>
<path d="M52.2414 34.9207C52.2414 34.3786 51.8021 33.9392 51.2599 33.9392H43.0571C42.515 33.9392 42.0757 34.3786 42.0757 34.9207C42.0757 35.4627 42.515 35.9021 43.0571 35.9021H51.2599C51.8021 35.9021 52.2414 35.4628 52.2414 34.9207Z" fill="#36343B"/>
<path d="M24.924 40.1555C24.924 39.6135 24.4846 39.1741 23.9425 39.1741H15.7397C15.1977 39.1741 14.7583 39.6135 14.7583 40.1555C14.7583 40.6975 15.1977 41.137 15.7397 41.137H23.9425C24.4846 41.137 24.924 40.6975 24.924 40.1555Z" fill="#36343B"/>
<path d="M39.4579 34.9207C39.4579 34.3786 39.0186 33.9392 38.4764 33.9392H15.7397C15.1977 33.9392 14.7583 34.3786 14.7583 34.9207C14.7583 35.4627 15.1977 35.9021 15.7397 35.9021H38.4764C39.0185 35.9021 39.4579 35.4628 39.4579 34.9207Z" fill="#36343B"/>
</g>
<defs>
<clipPath id="clip0_3017_5637">
<rect width="67" height="67" fill="white"/>
</clipPath>
</defs>
</svg>
