<svg width="82" height="82" viewBox="0 0 82 82" fill="none" xmlns="http://www.w3.org/2000/svg">
<rect width="82" height="82" rx="5.07508" fill="#F0F0F0"/>
<path d="M18.0356 55.194L52.1237 38.6169" stroke="#36343B" stroke-width="1.89589"/>
<path d="M40.6833 62.1983L29.0093 49.8239" stroke="#36343B" stroke-width="1.89589"/>
<path d="M23.8729 39.2288L15.4851 61.3814C15.2502 62.0016 15.7084 62.665 16.3716 62.665H66.576C67.2528 62.665 67.7115 61.9764 67.4508 61.3519L58.2027 39.1993C58.0553 38.8464 57.7103 38.6166 57.3279 38.6166H24.7594C24.3654 38.6166 24.0125 38.8603 23.8729 39.2288Z" stroke="#36343B" stroke-width="1.89589"/>
<path d="M47.4531 62.4319L63.3298 53.5597" stroke="#36343B" stroke-width="1.89589"/>
<path d="M41.7334 12.9484C49.527 12.9484 55.8447 19.2661 55.8447 27.0597C55.8447 28.5182 55.7177 29.666 55.375 30.8234C55.0301 31.9882 54.4528 33.2094 53.498 34.797C51.5647 38.0117 48.2309 42.5034 42.502 50.8087C42.131 51.3445 41.3357 51.3445 40.9648 50.8087C35.2359 42.5034 31.9021 38.0117 29.9688 34.797C29.014 33.2094 28.4367 31.9882 28.0918 30.8234C27.7491 29.666 27.6221 28.5183 27.6221 27.0597C27.6221 19.2661 33.9398 12.9484 41.7334 12.9484ZM41.7334 19.837C37.7444 19.837 34.5107 23.0707 34.5107 27.0597C34.5108 31.0487 37.7444 34.2823 41.7334 34.2823C45.7223 34.2823 48.956 31.0486 48.9561 27.0597C48.9561 23.0707 45.7224 19.8371 41.7334 19.837Z" fill="#F0F0F0" stroke="#36343B" stroke-width="1.89589"/>
</svg>
