<svg width="248" height="32" viewBox="0 0 248 32" fill="none" xmlns="http://www.w3.org/2000/svg">
<path d="M130.557 19.7559H127.52V18.2373H126.001V16.7799L127.52 16.7773H129.001V16.7786H130.522V18.2973H132.045V19.7559H130.557ZM124.481 22.8226H124.48V21.3413H124.481V19.8199V19.7786V18.2999H125.957V19.8013H127.473V24.3439H126.002V22.8226H124.481ZM116.874 18.2999V16.7773H118.356V16.7786H119.877H119.92H121.396V18.2546H119.897V19.7719H115.353V18.2999H116.874ZM116.841 12.2359H119.877V13.7546H121.396V15.2146H119.877H118.397V15.2133H116.874V13.6946H115.353V12.2359H116.841ZM122.917 9.16928H122.918V10.6506H122.917V12.1719V12.2146V13.6933H121.441V12.192H119.924V7.64794H121.396V9.16928H122.917ZM130.522 13.692V15.2146H129.041V15.2133H127.478L126.002 15.2146V13.7373H127.501V12.2213H132.045V13.692H130.522ZM119.941 22.8546V19.8186H121.461V18.2999H122.917V19.7786V19.8199V21.2999H122.916V22.8226H121.396V24.3439H119.941V22.8546ZM127.456 9.13728V12.1733H125.937V13.6933H124.481V12.2146V12.1719V10.692H124.482V9.16928H126.001V7.64794H127.456V9.13728ZM130.493 10.6573H129.02V9.17994H130.493V10.6573ZM122.96 15.2573H124.438V16.7373H122.96V16.7359V15.2573ZM116.904 21.3346H118.378V22.8119H116.904V21.3346ZM132.016 9.13595V9.13728H130.536V7.65729H130.537H132.016V9.13595ZM116.884 10.6719V9.19861H118.361V10.6719H116.884ZM115.361 7.67595H116.841V9.15595H115.361V7.67595ZM115.382 22.8559V22.8546H116.861V24.3346H115.382V22.8559ZM130.514 21.3199V22.7933H129.037V21.3199H130.514ZM132.037 24.3159H130.557V22.8359H132.037V24.3159ZM138.17 13.692H136.649V12.1666H133.565V12.1679H132.057V10.6999H133.58V9.17861V9.13595V7.65729V7.61461V6.09327H132.058H132.016H130.537H130.494H128.973V7.61594H127.52V6.08394V4.60662V4.56394V3.04262H126.001V1.52128H124.48V-5.53131e-05H122.917V1.52128H121.396V3.04262H119.87V4.56394V4.60662V6.1266V7.63461H118.404V6.11328H116.882H116.84H115.361H115.318H113.797V7.63461V7.67595V9.15595V9.19728V10.7186H115.32V12.176H113.789H112.312H112.269H110.748V13.6946H109.226V15.2159H107.705V16.7786H109.226V18.2999H110.748V19.8253H112.269H112.312H113.833H115.34V21.292H113.818V22.8133V22.8559V24.3346V24.3773V25.8986H115.34H115.382H116.861H116.904H118.425V24.376H119.877V25.908V27.3853V27.4293V28.9493H121.396V30.4706H122.917V31.9919H124.481V30.4706H126.002V28.9493H127.526V27.4293V27.3853V25.908V25.8653V24.3573H128.994V25.8786H130.516H130.558H132.037H132.08H133.601V24.3586V24.3159V22.8359V22.7946V21.2733H132.078V19.8173H133.608H135.086H135.129H136.649V18.2973H138.17V16.776H139.692V15.2133H138.17V13.692Z" fill="#CAC5CD"/>
<mask id="mask0_3020_4891" style="mask-type:luminance" maskUnits="userSpaceOnUse" x="163" y="9" width="14" height="14">
<path d="M167.644 16.7773H169.119V18.2519H167.644V16.7773ZM172.158 15.2146H170.683V13.7399H172.158V15.2146ZM170.638 15.2586V16.7333H169.164V15.2586H170.638ZM167.644 13.7399H169.119V15.2146H167.644V13.7399ZM172.158 18.2519H170.683V16.7773H172.158V18.2519ZM175.239 13.6959H172.202V10.6573H170.683V9.13861H169.119V10.6573H167.6V13.6959H164.563V15.0906H163.043V16.6533H164.563V18.2973H167.6V21.3346H169.119V22.8533H170.683V21.3346H172.202V18.2973H175.239V16.7773H176.759V15.2146H175.239V13.6959Z" fill="white"/>
</mask>
<g mask="url(#mask0_3020_4891)">
<path d="M167.644 16.7773H169.119V18.2519H167.644V16.7773ZM172.158 15.2146H170.683V13.7399H172.158V15.2146ZM170.638 15.2586V16.7333H169.164V15.2586H170.638ZM167.644 13.7399H169.119V15.2146H167.644V13.7399ZM172.158 18.2519H170.683V16.7773H172.158V18.2519ZM175.239 13.6959H172.202V10.6573H170.683V9.13861H169.119V10.6573H167.6V13.6959H164.563V15.0906H163.043V16.6533H164.563V18.2973H167.6V21.3346H169.119V22.8533H170.683V21.3346H172.202V18.2973H175.239V16.7773H176.759V15.2146H175.239V13.6959Z" fill="#CAC5CD"/>
</g>
<mask id="mask1_3020_4891" style="mask-type:luminance" maskUnits="userSpaceOnUse" x="198" y="9" width="15" height="14">
<path d="M202.964 16.7773H204.439V18.2519H202.964V16.7773ZM207.477 15.2146H206.003V13.7399H207.477V15.2146ZM205.957 15.2586V16.7333H204.484V15.2586H205.957ZM202.964 13.7399H204.439V15.2146H202.964V13.7399ZM207.477 18.2519H206.003V16.7773H207.477V18.2519ZM210.559 13.6959H207.521V10.6573H206.003V9.13861H204.439V10.6573H202.92V13.6959H199.883V15.0906H198.363V16.6533H199.883V18.2973H202.92V21.3346H204.439V22.8533H206.003V21.3346H207.521V18.2973H210.559V16.7773H212.079V15.2146H210.559V13.6959Z" fill="white"/>
</mask>
<g mask="url(#mask1_3020_4891)">
<path d="M202.964 16.7773H204.439V18.2519H202.964V16.7773ZM207.477 15.2146H206.003V13.7399H207.477V15.2146ZM205.957 15.2586V16.7333H204.484V15.2586H205.957ZM202.964 13.7399H204.439V15.2146H202.964V13.7399ZM207.477 18.2519H206.003V16.7773H207.477V18.2519ZM210.559 13.6959H207.521V10.6573H206.003V9.13861H204.439V10.6573H202.92V13.6959H199.883V15.0906H198.363V16.6533H199.883V18.2973H202.92V21.3346H204.439V22.8533H206.003V21.3346H207.521V18.2973H210.559V16.7773H212.079V15.2146H210.559V13.6959Z" fill="#CAC5CD"/>
</g>
<mask id="mask2_3020_4891" style="mask-type:luminance" maskUnits="userSpaceOnUse" x="233" y="9" width="15" height="14">
<path d="M238.284 16.7773H239.759V18.2519H238.284V16.7773ZM242.797 15.2146H241.323V13.7399H242.797V15.2146ZM241.277 15.2586V16.7333H239.804V15.2586H241.277ZM238.284 13.7399H239.759V15.2146H238.284V13.7399ZM242.797 18.2519H241.323V16.7773H242.797V18.2519ZM245.88 15.0906V13.6959H242.841V10.6573H241.323V9.13861H239.759V10.6573H238.24V13.6959H235.203V15.0906H233.683V15.2146V16.6533V16.7773H235.203V18.2973H238.24V21.3346H239.759V22.8533H241.323V21.3346H242.841V18.2973H245.879H245.88V16.7773H247.399V16.6533V15.2146V15.0906H245.88Z" fill="white"/>
</mask>
<g mask="url(#mask2_3020_4891)">
<path d="M238.284 16.7773H239.759V18.2519H238.284V16.7773ZM242.797 15.2146H241.323V13.7399H242.797V15.2146ZM241.277 15.2586V16.7333H239.804V15.2586H241.277ZM238.284 13.7399H239.759V15.2146H238.284V13.7399ZM242.797 18.2519H241.323V16.7773H242.797V18.2519ZM245.88 15.0906V13.6959H242.841V10.6573H241.323V9.13861H239.759V10.6573H238.24V13.6959H235.203V15.0906H233.683V15.2146V16.6533V16.7773H235.203V18.2973H238.24V21.3346H239.759V22.8533H241.323V21.3346H242.841V18.2973H245.879H245.88V16.7773H247.399V16.6533V15.2146V15.0906H245.88Z" fill="#CAC5CD"/>
</g>
<mask id="mask3_3020_4891" style="mask-type:luminance" maskUnits="userSpaceOnUse" x="70" y="9" width="15" height="14">
<path d="M75.2414 16.7773H76.7161V18.2519H75.2414V16.7773ZM79.7534 15.2146H78.2801V13.7399H79.7534V15.2146ZM78.2348 15.2586V16.7333H76.7601V15.2586H78.2348ZM75.2414 13.7399H76.7161V15.2146H75.2414V13.7399ZM79.7534 18.2519H78.2801V16.7773H79.7534V18.2519ZM82.8361 13.6959H79.7988V10.6573H78.2801V9.13861H76.7161V10.6573H75.1974V13.6959H72.1588V15.2146H70.6401V16.7773H72.1588V18.2973H75.1974V21.3346H76.7161V22.8533H78.2801V21.3346H79.7988V18.2973H82.8361V16.6533H84.3548V15.0906H82.8361V13.6959Z" fill="white"/>
</mask>
<g mask="url(#mask3_3020_4891)">
<path d="M75.2414 16.7773H76.7161V18.2519H75.2414V16.7773ZM79.7534 15.2146H78.2801V13.7399H79.7534V15.2146ZM78.2348 15.2586V16.7333H76.7601V15.2586H78.2348ZM75.2414 13.7399H76.7161V15.2146H75.2414V13.7399ZM79.7534 18.2519H78.2801V16.7773H79.7534V18.2519ZM82.8361 13.6959H79.7988V10.6573H78.2801V9.13861H76.7161V10.6573H75.1974V13.6959H72.1588V15.2146H70.6401V16.7773H72.1588V18.2973H75.1974V21.3346H76.7161V22.8533H78.2801V21.3346H79.7988V18.2973H82.8361V16.6533H84.3548V15.0906H82.8361V13.6959Z" fill="#CAC5CD"/>
</g>
<mask id="mask4_3020_4891" style="mask-type:luminance" maskUnits="userSpaceOnUse" x="35" y="9" width="15" height="14">
<path d="M39.9217 16.7773H41.3964V18.2519H39.9217V16.7773ZM44.4337 15.2146H42.9604V13.7399H44.4337V15.2146ZM42.915 15.2586V16.7333H41.4404V15.2586H42.915ZM39.9217 13.7399H41.3964V15.2146H39.9217V13.7399ZM44.4337 18.2519H42.9604V16.7773H44.4337V18.2519ZM47.5163 13.6959H44.479V10.6573H42.9604V9.13861H41.3964V10.6573H39.8777V13.6959H36.839V15.2146H35.3203V16.7773H36.839V18.2973H39.8777V21.3346H41.3964V22.8533H42.9604V21.3346H44.479V18.2973H47.5163V16.6533H49.035V15.0906H47.5163V13.6959Z" fill="white"/>
</mask>
<g mask="url(#mask4_3020_4891)">
<path d="M39.9217 16.7773H41.3964V18.2519H39.9217V16.7773ZM44.4337 15.2146H42.9604V13.7399H44.4337V15.2146ZM42.915 15.2586V16.7333H41.4404V15.2586H42.915ZM39.9217 13.7399H41.3964V15.2146H39.9217V13.7399ZM44.4337 18.2519H42.9604V16.7773H44.4337V18.2519ZM47.5163 13.6959H44.479V10.6573H42.9604V9.13861H41.3964V10.6573H39.8777V13.6959H36.839V15.2146H35.3203V16.7773H36.839V18.2973H39.8777V21.3346H41.3964V22.8533H42.9604V21.3346H44.479V18.2973H47.5163V16.6533H49.035V15.0906H47.5163V13.6959Z" fill="#CAC5CD"/>
</g>
<mask id="mask5_3020_4891" style="mask-type:luminance" maskUnits="userSpaceOnUse" x="0" y="9" width="14" height="14">
<path d="M4.60137 16.7773H6.07604V18.2519H4.60137V16.7773ZM9.11335 15.2146H7.64004V13.7399H9.11335V15.2146ZM7.59466 15.2586V16.7333H6.11999V15.2586H7.59466ZM4.60137 13.7399H6.07604V15.2146H4.60137V13.7399ZM9.11335 18.2519H7.64004V16.7773H9.11335V18.2519ZM12.196 13.6959H9.15866V10.6573H7.64004V9.13861H6.07604V10.6573H4.55736V13.6959H1.51868V15.2146H0V16.7773H1.51868V18.2973H4.55736V21.3346H6.07604V22.8533H7.64004V21.3346H9.15866V18.2973H12.196V16.6533H13.7147V15.0906H12.196V13.6959Z" fill="white"/>
</mask>
<g mask="url(#mask5_3020_4891)">
<path d="M4.60137 16.7773H6.07604V18.2519H4.60137V16.7773ZM9.11335 15.2146H7.64004V13.7399H9.11335V15.2146ZM7.59466 15.2586V16.7333H6.11999V15.2586H7.59466ZM4.60137 13.7399H6.07604V15.2146H4.60137V13.7399ZM9.11335 18.2519H7.64004V16.7773H9.11335V18.2519ZM12.196 13.6959H9.15866V10.6573H7.64004V9.13861H6.07604V10.6573H4.55736V13.6959H1.51868V15.2146H0V16.7773H1.51868V18.2973H4.55736V21.3346H6.07604V22.8533H7.64004V21.3346H9.15866V18.2973H12.196V16.6533H13.7147V15.0906H12.196V13.6959Z" fill="#CAC5CD"/>
</g>
</svg>
