<svg width="248" height="32" viewBox="0 0 248 32" fill="none" xmlns="http://www.w3.org/2000/svg">
<path d="M130.557 19.7562H127.52V18.2375H126.001V16.7802L127.52 16.7775H129.001V16.7789H130.522V18.2975H132.045V19.7562H130.557ZM124.481 22.8229H124.48V21.3415H124.481V19.8202V19.7788V18.3002H125.957V19.8015H127.473V24.3442H126.002V22.8229H124.481ZM116.874 18.3002V16.7775H118.356V16.7789H119.877H119.92H121.396V18.2549H119.897V19.7722H115.353V18.3002H116.874ZM116.841 12.2362H119.877V13.7549H121.396V15.2149H119.877H118.397V15.2135H116.874V13.6948H115.353V12.2362H116.841ZM122.917 9.16953H122.918V10.6509H122.917V12.1722V12.2149V13.6935H121.441V12.1922H119.924V7.64819H121.396V9.16953H122.917ZM130.522 13.6922V15.2149H129.041V15.2135H127.478L126.002 15.2149V13.7375H127.501V12.2215H132.045V13.6922H130.522ZM119.941 22.8549V19.8189H121.461V18.3002H122.917V19.7788V19.8202V21.3002H122.916V22.8229H121.396V24.3442H119.941V22.8549ZM127.456 9.13753V12.1735H125.937V13.6935H124.481V12.2149V12.1722V10.6922H124.482V9.16953H126.001V7.64819H127.456V9.13753ZM130.493 10.6575H129.02V9.18019H130.493V10.6575ZM122.96 15.2575H124.438V16.7375H122.96V16.7362V15.2575ZM116.904 21.3349H118.378V22.8122H116.904V21.3349ZM132.016 9.13619V9.13753H130.536V7.65753H130.537H132.016V9.13619ZM116.884 10.6722V9.19885H118.361V10.6722H116.884ZM115.361 7.6762H116.841V9.15619H115.361V7.6762ZM115.382 22.8562V22.8549H116.861V24.3349H115.382V22.8562ZM130.514 21.3202V22.7935H129.037V21.3202H130.514ZM132.037 24.3162H130.557V22.8362H132.037V24.3162ZM138.17 13.6922H136.649V12.1669H133.565V12.1682H132.057V10.7002H133.58V9.17885V9.13619V7.65753V7.61485V6.09352H132.058H132.016H130.537H130.494H128.973V7.61619H127.52V6.08419V4.60686V4.56419V3.04286H126.001V1.52153H124.48V0.000188828H122.917V1.52153H121.396V3.04286H119.87V4.56419V4.60686V6.12685V7.63486H118.404V6.11352H116.882H116.84H115.361H115.318H113.797V7.63486V7.6762V9.15619V9.19752V10.7189H115.32V12.1762H113.789H112.312H112.269H110.748V13.6948H109.226V15.2162H107.705V16.7789H109.226V18.3002H110.748V19.8255H112.269H112.312H113.833H115.34V21.2922H113.818V22.8135V22.8562V24.3349V24.3775V25.8989H115.34H115.382H116.861H116.904H118.425V24.3762H119.877V25.9082V27.3855V27.4295V28.9495H121.396V30.4709H122.917V31.9922H124.481V30.4709H126.002V28.9495H127.526V27.4295V27.3855V25.9082V25.8655V24.3575H128.994V25.8788H130.516H130.558H132.037H132.08H133.601V24.3589V24.3162V22.8362V22.7948V21.2735H132.078V19.8175H133.608H135.086H135.129H136.649V18.2975H138.17V16.7762H139.692V15.2135H138.17V13.6922Z" fill="url(#paint0_linear_2949_78100)"/>
<mask id="mask0_2949_78100" style="mask-type:luminance" maskUnits="userSpaceOnUse" x="163" y="9" width="14" height="14">
<path d="M167.644 16.7775H169.119V18.2522H167.644V16.7775ZM172.158 15.2148H170.683V13.7402H172.158V15.2148ZM170.638 15.2589V16.7335H169.164V15.2589H170.638ZM167.644 13.7402H169.119V15.2148H167.644V13.7402ZM172.158 18.2522H170.683V16.7775H172.158V18.2522ZM175.239 13.6962H172.202V10.6575H170.683V9.13885H169.119V10.6575H167.6V13.6962H164.563V15.0909H163.043V16.6535H164.563V18.2975H167.6V21.3348H169.119V22.8535H170.683V21.3348H172.202V18.2975H175.239V16.7775H176.759V15.2148H175.239V13.6962Z" fill="white"/>
</mask>
<g mask="url(#mask0_2949_78100)">
<path d="M167.644 16.7775H169.119V18.2522H167.644V16.7775ZM172.158 15.2148H170.683V13.7402H172.158V15.2148ZM170.638 15.2589V16.7335H169.164V15.2589H170.638ZM167.644 13.7402H169.119V15.2148H167.644V13.7402ZM172.158 18.2522H170.683V16.7775H172.158V18.2522ZM175.239 13.6962H172.202V10.6575H170.683V9.13885H169.119V10.6575H167.6V13.6962H164.563V15.0909H163.043V16.6535H164.563V18.2975H167.6V21.3348H169.119V22.8535H170.683V21.3348H172.202V18.2975H175.239V16.7775H176.759V15.2148H175.239V13.6962Z" fill="url(#paint1_linear_2949_78100)"/>
</g>
<mask id="mask1_2949_78100" style="mask-type:luminance" maskUnits="userSpaceOnUse" x="198" y="9" width="15" height="14">
<path d="M202.964 16.7775H204.439V18.2522H202.964V16.7775ZM207.477 15.2148H206.003V13.7402H207.477V15.2148ZM205.957 15.2589V16.7335H204.484V15.2589H205.957ZM202.964 13.7402H204.439V15.2148H202.964V13.7402ZM207.477 18.2522H206.003V16.7775H207.477V18.2522ZM210.559 13.6962H207.521V10.6575H206.003V9.13885H204.439V10.6575H202.92V13.6962H199.883V15.0909H198.363V16.6535H199.883V18.2975H202.92V21.3348H204.439V22.8535H206.003V21.3348H207.521V18.2975H210.559V16.7775H212.079V15.2148H210.559V13.6962Z" fill="white"/>
</mask>
<g mask="url(#mask1_2949_78100)">
<path d="M202.964 16.7775H204.439V18.2522H202.964V16.7775ZM207.477 15.2148H206.003V13.7402H207.477V15.2148ZM205.957 15.2589V16.7335H204.484V15.2589H205.957ZM202.964 13.7402H204.439V15.2148H202.964V13.7402ZM207.477 18.2522H206.003V16.7775H207.477V18.2522ZM210.559 13.6962H207.521V10.6575H206.003V9.13885H204.439V10.6575H202.92V13.6962H199.883V15.0909H198.363V16.6535H199.883V18.2975H202.92V21.3348H204.439V22.8535H206.003V21.3348H207.521V18.2975H210.559V16.7775H212.079V15.2148H210.559V13.6962Z" fill="url(#paint2_linear_2949_78100)"/>
</g>
<mask id="mask2_2949_78100" style="mask-type:luminance" maskUnits="userSpaceOnUse" x="233" y="9" width="15" height="14">
<path d="M238.284 16.7775H239.759V18.2522H238.284V16.7775ZM242.797 15.2148H241.323V13.7402H242.797V15.2148ZM241.277 15.2589V16.7335H239.804V15.2589H241.277ZM238.284 13.7402H239.759V15.2148H238.284V13.7402ZM242.797 18.2522H241.323V16.7775H242.797V18.2522ZM245.88 15.0909V13.6962H242.841V10.6575H241.323V9.13885H239.759V10.6575H238.24V13.6962H235.203V15.0909H233.683V15.2148V16.6535V16.7775H235.203V18.2975H238.24V21.3348H239.759V22.8535H241.323V21.3348H242.841V18.2975H245.879H245.88V16.7775H247.399V16.6535V15.2148V15.0909H245.88Z" fill="white"/>
</mask>
<g mask="url(#mask2_2949_78100)">
<path d="M238.284 16.7775H239.759V18.2522H238.284V16.7775ZM242.797 15.2148H241.323V13.7402H242.797V15.2148ZM241.277 15.2589V16.7335H239.804V15.2589H241.277ZM238.284 13.7402H239.759V15.2148H238.284V13.7402ZM242.797 18.2522H241.323V16.7775H242.797V18.2522ZM245.88 15.0909V13.6962H242.841V10.6575H241.323V9.13885H239.759V10.6575H238.24V13.6962H235.203V15.0909H233.683V15.2148V16.6535V16.7775H235.203V18.2975H238.24V21.3348H239.759V22.8535H241.323V21.3348H242.841V18.2975H245.879H245.88V16.7775H247.399V16.6535V15.2148V15.0909H245.88Z" fill="url(#paint3_linear_2949_78100)"/>
</g>
<mask id="mask3_2949_78100" style="mask-type:luminance" maskUnits="userSpaceOnUse" x="70" y="9" width="15" height="14">
<path d="M75.2414 16.7775H76.7161V18.2522H75.2414V16.7775ZM79.7534 15.2148H78.2801V13.7402H79.7534V15.2148ZM78.2348 15.2589V16.7335H76.7601V15.2589H78.2348ZM75.2414 13.7402H76.7161V15.2148H75.2414V13.7402ZM79.7534 18.2522H78.2801V16.7775H79.7534V18.2522ZM82.8361 13.6962H79.7988V10.6575H78.2801V9.13885H76.7161V10.6575H75.1974V13.6962H72.1588V15.2148H70.6401V16.7775H72.1588V18.2975H75.1974V21.3348H76.7161V22.8535H78.2801V21.3348H79.7988V18.2975H82.8361V16.6535H84.3548V15.0909H82.8361V13.6962Z" fill="white"/>
</mask>
<g mask="url(#mask3_2949_78100)">
<path d="M75.2414 16.7775H76.7161V18.2522H75.2414V16.7775ZM79.7534 15.2148H78.2801V13.7402H79.7534V15.2148ZM78.2348 15.2589V16.7335H76.7601V15.2589H78.2348ZM75.2414 13.7402H76.7161V15.2148H75.2414V13.7402ZM79.7534 18.2522H78.2801V16.7775H79.7534V18.2522ZM82.8361 13.6962H79.7988V10.6575H78.2801V9.13885H76.7161V10.6575H75.1974V13.6962H72.1588V15.2148H70.6401V16.7775H72.1588V18.2975H75.1974V21.3348H76.7161V22.8535H78.2801V21.3348H79.7988V18.2975H82.8361V16.6535H84.3548V15.0909H82.8361V13.6962Z" fill="url(#paint4_linear_2949_78100)"/>
</g>
<mask id="mask4_2949_78100" style="mask-type:luminance" maskUnits="userSpaceOnUse" x="35" y="9" width="15" height="14">
<path d="M39.9217 16.7775H41.3964V18.2522H39.9217V16.7775ZM44.4337 15.2148H42.9604V13.7402H44.4337V15.2148ZM42.915 15.2589V16.7335H41.4404V15.2589H42.915ZM39.9217 13.7402H41.3964V15.2148H39.9217V13.7402ZM44.4337 18.2522H42.9604V16.7775H44.4337V18.2522ZM47.5163 13.6962H44.479V10.6575H42.9604V9.13885H41.3964V10.6575H39.8777V13.6962H36.839V15.2148H35.3203V16.7775H36.839V18.2975H39.8777V21.3348H41.3964V22.8535H42.9604V21.3348H44.479V18.2975H47.5163V16.6535H49.035V15.0909H47.5163V13.6962Z" fill="white"/>
</mask>
<g mask="url(#mask4_2949_78100)">
<path d="M39.9217 16.7775H41.3964V18.2522H39.9217V16.7775ZM44.4337 15.2148H42.9604V13.7402H44.4337V15.2148ZM42.915 15.2589V16.7335H41.4404V15.2589H42.915ZM39.9217 13.7402H41.3964V15.2148H39.9217V13.7402ZM44.4337 18.2522H42.9604V16.7775H44.4337V18.2522ZM47.5163 13.6962H44.479V10.6575H42.9604V9.13885H41.3964V10.6575H39.8777V13.6962H36.839V15.2148H35.3203V16.7775H36.839V18.2975H39.8777V21.3348H41.3964V22.8535H42.9604V21.3348H44.479V18.2975H47.5163V16.6535H49.035V15.0909H47.5163V13.6962Z" fill="url(#paint5_linear_2949_78100)"/>
</g>
<mask id="mask5_2949_78100" style="mask-type:luminance" maskUnits="userSpaceOnUse" x="0" y="9" width="14" height="14">
<path d="M4.60137 16.7775H6.07604V18.2522H4.60137V16.7775ZM9.11335 15.2148H7.64004V13.7402H9.11335V15.2148ZM7.59466 15.2589V16.7335H6.11999V15.2589H7.59466ZM4.60137 13.7402H6.07604V15.2148H4.60137V13.7402ZM9.11335 18.2522H7.64004V16.7775H9.11335V18.2522ZM12.196 13.6962H9.15866V10.6575H7.64004V9.13885H6.07604V10.6575H4.55736V13.6962H1.51868V15.2148H0V16.7775H1.51868V18.2975H4.55736V21.3348H6.07604V22.8535H7.64004V21.3348H9.15866V18.2975H12.196V16.6535H13.7147V15.0909H12.196V13.6962Z" fill="white"/>
</mask>
<g mask="url(#mask5_2949_78100)">
<path d="M4.60137 16.7775H6.07604V18.2522H4.60137V16.7775ZM9.11335 15.2148H7.64004V13.7402H9.11335V15.2148ZM7.59466 15.2589V16.7335H6.11999V15.2589H7.59466ZM4.60137 13.7402H6.07604V15.2148H4.60137V13.7402ZM9.11335 18.2522H7.64004V16.7775H9.11335V18.2522ZM12.196 13.6962H9.15866V10.6575H7.64004V9.13885H6.07604V10.6575H4.55736V13.6962H1.51868V15.2148H0V16.7775H1.51868V18.2975H4.55736V21.3348H6.07604V22.8535H7.64004V21.3348H9.15866V18.2975H12.196V16.6535H13.7147V15.0909H12.196V13.6962Z" fill="url(#paint6_linear_2949_78100)"/>
</g>
<defs>
<linearGradient id="paint0_linear_2949_78100" x1="123.698" y1="-20.8278" x2="123.698" y2="43.6619" gradientUnits="userSpaceOnUse">
<stop stop-color="#F8EC9A"/>
<stop offset="1.12e-06" stop-color="#F8EC9A"/>
<stop offset="1" stop-color="#AA8D33"/>
</linearGradient>
<linearGradient id="paint1_linear_2949_78100" x1="169.9" y1="-20.8278" x2="169.9" y2="43.6619" gradientUnits="userSpaceOnUse">
<stop stop-color="#F8EC9A"/>
<stop offset="1.12e-06" stop-color="#F8EC9A"/>
<stop offset="1" stop-color="#AA8D33"/>
</linearGradient>
<linearGradient id="paint2_linear_2949_78100" x1="205.221" y1="-20.8278" x2="205.221" y2="43.6619" gradientUnits="userSpaceOnUse">
<stop stop-color="#F8EC9A"/>
<stop offset="1.12e-06" stop-color="#F8EC9A"/>
<stop offset="1" stop-color="#AA8D33"/>
</linearGradient>
<linearGradient id="paint3_linear_2949_78100" x1="240.541" y1="-20.8278" x2="240.541" y2="43.6619" gradientUnits="userSpaceOnUse">
<stop stop-color="#F8EC9A"/>
<stop offset="1.12e-06" stop-color="#F8EC9A"/>
<stop offset="1" stop-color="#AA8D33"/>
</linearGradient>
<linearGradient id="paint4_linear_2949_78100" x1="77.4975" y1="-20.8278" x2="77.4975" y2="43.6619" gradientUnits="userSpaceOnUse">
<stop stop-color="#F8EC9A"/>
<stop offset="1.12e-06" stop-color="#F8EC9A"/>
<stop offset="1" stop-color="#AA8D33"/>
</linearGradient>
<linearGradient id="paint5_linear_2949_78100" x1="42.1777" y1="-20.8278" x2="42.1777" y2="43.6619" gradientUnits="userSpaceOnUse">
<stop stop-color="#F8EC9A"/>
<stop offset="1.12e-06" stop-color="#F8EC9A"/>
<stop offset="1" stop-color="#AA8D33"/>
</linearGradient>
<linearGradient id="paint6_linear_2949_78100" x1="6.85736" y1="-20.8278" x2="6.85736" y2="43.6619" gradientUnits="userSpaceOnUse">
<stop stop-color="#F8EC9A"/>
<stop offset="1.12e-06" stop-color="#F8EC9A"/>
<stop offset="1" stop-color="#AA8D33"/>
</linearGradient>
</defs>
</svg>
