<svg width="88" height="89" viewBox="0 0 88 89" fill="none" xmlns="http://www.w3.org/2000/svg">
<circle cx="44" cy="44.8372" r="44" fill="#805D43"/>
<path d="M21.375 65.0872C21.375 66.954 22.8832 68.4622 24.75 68.4622H41.625V51.5872H21.375V65.0872ZM48.375 68.4622H65.25C67.1168 68.4622 68.625 66.954 68.625 65.0872V51.5872H48.375V68.4622ZM68.625 34.7122H64.1848C64.8387 33.436 65.25 32.0227 65.25 30.4934C65.25 25.3782 61.084 21.2122 55.9688 21.2122C51.5812 21.2122 48.7441 23.4586 45.1055 28.4157C41.4668 23.4586 38.6297 21.2122 34.2422 21.2122C29.127 21.2122 24.9609 25.3782 24.9609 30.4934C24.9609 32.0227 25.3617 33.436 26.0262 34.7122H21.375C19.5082 34.7122 18 36.2204 18 38.0872V46.5247C18 47.4528 18.7594 48.2122 19.6875 48.2122H70.3125C71.2406 48.2122 72 47.4528 72 46.5247V38.0872C72 36.2204 70.4918 34.7122 68.625 34.7122ZM34.2316 34.7122C31.9008 34.7122 30.0129 32.8243 30.0129 30.4934C30.0129 28.1625 31.9008 26.2747 34.2316 26.2747C36.3305 26.2747 37.8809 26.6227 43.3125 34.7122H34.2316ZM55.9688 34.7122H46.8879C52.309 26.6438 53.8172 26.2747 55.9688 26.2747C58.2996 26.2747 60.1875 28.1625 60.1875 30.4934C60.1875 32.8243 58.2996 34.7122 55.9688 34.7122Z" fill="white"/>
</svg>
