<svg width="269" height="146" viewBox="0 0 269 146" fill="none" xmlns="http://www.w3.org/2000/svg">
<path d="M124.382 74.5388C155.259 80.5429 187.897 76.3915 216.282 62.851L215.963 62.1847C187.72 75.6573 155.247 79.7879 124.523 73.8132L124.382 74.5388Z" fill="white"/>
<path d="M178.837 71.2412C178.815 71.1684 178.792 71.0961 178.769 71.0271C177.562 67.4944 177.987 63.2787 179.987 58.4172C181.163 55.5608 182.435 53.4817 183.993 51.8757C185.815 49.9992 188.02 48.8484 190.24 48.6052C190.184 53.3363 189.241 57.6617 187.438 61.4654C185.475 65.6062 182.43 69.0631 178.837 71.2412ZM177.803 70.3793C177.881 70.6774 177.97 70.9742 178.07 71.268C178.117 71.4026 178.158 71.5504 178.193 71.6842L178.265 71.9656C178.299 72.0948 178.389 72.4395 178.73 72.3866C178.976 72.3484 179.038 72.1668 179.049 71.9753C182.839 69.7289 186.05 66.1174 188.106 61.781C190.008 57.7706 190.975 53.2028 190.981 48.203L190.983 47.8101L190.589 47.8342C188.052 47.9885 185.522 49.2423 183.462 51.3618C181.837 53.0376 180.516 55.19 179.303 58.1359C177.397 62.7713 176.892 66.8905 177.803 70.3793Z" fill="white"/>
<path d="M173.466 50.8541C174.344 56.0364 172.082 61.3748 169.999 64.9797C167.243 69.7458 164.029 72.8307 160.434 74.1626C160.465 73.8623 160.474 73.4934 160.486 73.0521C160.494 72.7463 160.502 72.4216 160.52 72.1004C160.82 66.6396 163.953 61.7742 166.718 57.4816C168.616 54.5308 170.565 51.8059 173.466 50.8541ZM159.622 74.4722C159.629 74.459 159.663 74.4207 159.724 74.4015L159.934 75.1091L159.945 75.1063C164.01 73.8746 167.608 70.5919 170.638 65.3484C173.795 59.8893 174.997 54.6881 174.115 50.3109L174.039 49.926L173.659 50.0266C170.291 50.924 168.077 54.0045 166.097 57.082C163.421 61.2354 160.092 66.4039 159.781 72.0602C159.763 72.3882 159.755 72.7193 159.747 73.0324C159.733 73.574 159.713 74.3161 159.622 74.4722Z" fill="white"/>
<path d="M158.694 53.9186C158.441 61.9435 153.859 69.9507 146.862 74.6421C147.246 72.7543 147.658 70.9766 148.059 69.2502C148.823 65.9622 149.614 62.561 151.35 59.6055C153.151 56.5452 155.871 54.4486 158.694 53.9186ZM145.803 76.189L146.525 75.7406C154.27 70.9146 159.341 62.1801 159.443 53.4883L159.448 53.0626L159.025 53.1181C155.827 53.5369 152.72 55.8225 150.712 59.2313C148.919 62.2841 148.115 65.7408 147.339 69.0836C146.877 71.074 146.399 73.1325 145.966 75.3564L145.803 76.189Z" fill="white"/>
<path d="M194.651 66.9007C194.555 66.6475 194.471 66.3838 194.4 66.1148C193.575 62.9538 194.621 59.0356 195.764 55.2948C196.152 54.0313 196.549 52.7402 197.276 51.6707C197.894 50.7652 198.755 50.0167 199.594 49.3426C202.481 47.0246 205.672 45.1252 209.086 43.6942C209.098 43.7157 209.108 43.7334 209.116 43.7493C207.266 52.7468 202.01 61.153 194.651 66.9007ZM193.686 66.301C193.808 66.7687 193.968 67.2202 194.161 67.6398L194.353 68.0591L194.721 67.7797C202.449 61.8966 207.968 53.1508 209.863 43.784L209.859 43.6177C209.834 43.5214 209.802 43.4457 209.559 43.0405L209.396 42.7663L209.101 42.8879C205.51 44.3594 202.156 46.3379 199.131 48.7671C198.247 49.4773 197.337 50.2702 196.665 51.2553C195.874 52.4164 195.461 53.7624 195.061 55.064C193.884 58.9217 192.812 62.9536 193.686 66.301Z" fill="white"/>
<path d="M219.884 42.8275C220.241 48.3598 218.568 54.0259 215.251 58.4674C214.252 59.8028 212.842 61.3876 210.643 62.0765C210.767 60.9347 210.701 59.7838 210.638 58.6656C210.579 57.6376 210.518 56.5751 210.61 55.5504C210.902 52.3462 212.673 49.6439 214.107 47.942C215.567 46.2131 217.46 44.5358 219.884 42.8275ZM209.744 63.0667L210.285 62.9396C213.021 62.2984 214.692 60.4489 215.843 58.9089C219.396 54.1528 221.119 48.0345 220.571 42.1235L220.513 41.497L219.994 41.8527C217.259 43.7263 215.149 45.5619 213.542 47.4656C211.387 50.0239 210.119 52.796 209.875 55.4841C209.777 56.5633 209.839 57.6534 209.9 58.7078C209.975 60.0278 210.046 61.2745 209.837 62.5184L209.744 63.0667Z" fill="white"/>
<path d="M244.612 52.0715C243.947 52.5338 243.39 53.1353 242.848 53.7207C242.345 54.2631 241.826 54.823 241.24 55.2451C239.681 56.3679 237.636 56.5777 235.658 56.7797L235.213 56.8256C228.861 57.4892 222.707 59.1461 216.894 61.7548C219.663 58.4285 222.579 55.0927 226.258 52.6777C230.845 49.6668 236.071 48.7596 240.236 50.2519C240.894 50.487 241.549 50.7882 242.183 51.0793C242.967 51.4391 243.77 51.8078 244.612 52.0715ZM214.197 63.8494L215.722 63.1149C221.893 60.1411 228.476 58.2719 235.289 57.5599L235.734 57.5142C237.808 57.3018 239.954 57.0822 241.672 55.8443C242.318 55.3787 242.862 54.7912 243.39 54.2227C244.124 53.4305 244.818 52.6817 245.736 52.2807L246.811 51.8111L245.661 51.5802C244.565 51.3606 243.558 50.8988 242.492 50.4085C241.843 50.1107 241.174 49.8027 240.486 49.5576C236.102 47.9865 230.632 48.9231 225.852 52.0611C221.713 54.7773 218.555 58.5898 215.5 62.2765L214.197 63.8494Z" fill="white"/>
<path d="M240.505 69.6335C238.304 71.177 236.106 72.4289 233.734 72.2953C231.548 72.1728 229.704 70.9356 227.751 69.6256C227.061 69.1621 226.347 68.6837 225.625 68.2653C223.345 66.946 220.802 66.1497 218.188 65.9273C221.254 64.7436 224.049 64.0896 226.69 63.9343C230.745 63.6972 234.32 64.7567 236.758 66.9159C236.987 67.1199 237.217 67.3375 237.448 67.5572C238.343 68.4042 239.328 69.3378 240.505 69.6335ZM214.623 66.6244L216.468 66.6026C219.55 66.5666 222.589 67.3618 225.255 68.9038C225.955 69.3107 226.659 69.7821 227.339 70.2383C229.289 71.5466 231.304 72.8991 233.692 73.0328C236.603 73.1957 239.17 71.5236 241.761 69.6441L242.878 68.8337L241.505 68.9786C240.17 69.1182 239.045 68.0529 237.957 67.0213C237.719 66.796 237.483 66.5724 237.247 66.3637C234.663 64.073 230.898 62.9488 226.647 63.1979C223.472 63.3835 220.094 64.2655 216.317 65.894L214.623 66.6244Z" fill="white"/>
<path d="M224.943 82.1424C217.108 82.0701 208.779 79.364 201.813 74.6164C204.795 73.6374 208.523 73.0749 212.406 73.0261C213.707 73.0086 215.078 73.0546 216.3 73.5035C218.529 74.3201 219.975 76.243 221.505 78.2793C222.539 79.6564 223.602 81.0699 224.943 82.1424ZM200.217 74.4005L200.792 74.8065C208.34 80.1381 217.567 83.0778 226.109 82.8729L227.373 82.8422L226.291 82.1878C224.593 81.161 223.324 79.4706 222.096 77.8363C220.569 75.8032 218.99 73.7014 216.556 72.8101C215.221 72.3204 213.768 72.2689 212.396 72.2867C208.13 72.3413 204.04 73.0056 200.878 74.1586L200.217 74.4005Z" fill="white"/>
<path d="M205.767 89.8934C201.552 90.7151 197.5 91.2529 194.124 89.5118C191.464 88.1414 189.637 85.532 188.025 83.2314C186.549 81.1282 185.027 78.9585 183.989 76.8953C188.343 77.5237 192.81 78.2319 196.853 80.1536C201.379 82.3045 204.613 85.8426 205.767 89.8934ZM182.738 75.9692L183.019 76.5847C184.077 78.8917 185.777 81.3131 187.42 83.6552C189.08 86.0256 190.962 88.7138 193.785 90.1674C197.476 92.0713 201.81 91.4307 206.299 90.5409L206.68 90.4661L206.556 89.9727C205.414 85.6004 201.993 81.7787 197.171 79.4871C192.814 77.4156 187.816 76.6986 183.408 76.0654L182.738 75.9692Z" fill="white"/>
<path d="M174.168 85.1656C173.929 84.2523 173.644 83.3502 173.211 82.6225C178.886 85.0535 184.185 89.4558 189.352 96.0247C187.961 96.7576 186.348 97.4557 184.652 97.5075C182.13 97.5859 179.52 96.1928 177.67 93.7821C175.967 91.56 175.118 88.8613 174.569 86.7581C174.511 86.5372 174.456 86.3165 174.401 86.0958L174.373 85.9815C174.306 85.7123 174.239 85.4377 174.168 85.1656ZM171.507 81.9532C172.759 82.5353 173.228 84.4317 173.655 86.1578L173.683 86.2713C173.738 86.4963 173.795 86.7206 173.854 86.9445C174.42 89.115 175.3 91.9043 177.084 94.2319C179.078 96.8312 181.916 98.3313 184.675 98.2467C186.684 98.1842 188.54 97.3113 190.09 96.4665L190.471 96.2594L190.205 95.9165C184.36 88.3946 178.335 83.6037 171.787 81.2705L171.507 81.9532Z" fill="white"/>
<path d="M171.203 102.965C167.612 102.196 164.329 99.1392 162.148 94.5055C161.281 92.6639 160.595 90.6958 159.932 88.793C159.225 86.7644 158.498 84.6756 157.539 82.7018C158.182 82.9236 158.826 83.1312 159.455 83.334C162.245 84.236 164.882 85.0884 166.925 86.8854C168.629 88.3891 169.898 90.5979 170.595 93.2689C170.703 93.6801 170.796 94.0951 170.873 94.5108C171.384 97.2811 171.306 100.163 171.203 102.965ZM156.012 81.3643L156.465 82.217C157.611 84.38 158.436 86.7469 159.234 89.0352C159.904 90.9569 160.596 92.943 161.48 94.8202C163.85 99.8535 167.501 103.116 171.497 103.771L171.91 103.839L171.926 103.42C172.037 100.445 172.151 97.3684 171.599 94.3761C171.518 93.9434 171.423 93.5103 171.311 93.0823C170.576 90.2683 169.228 87.9342 167.414 86.3312C165.254 84.4321 162.548 83.558 159.682 82.6315C158.775 82.3388 157.838 82.0355 156.919 81.6978L156.012 81.3643Z" fill="white"/>
<path d="M153.857 92.8911C153.312 92.7605 152.753 92.725 152.21 92.6893C151.407 92.6366 150.649 92.5884 149.997 92.2506C149.28 91.8774 148.769 91.204 148.221 90.4268C147.052 88.761 145.857 86.9394 145.039 84.9183C144.771 84.2566 144.538 83.5516 144.348 82.824C144.052 81.6913 143.855 80.4962 143.761 79.2637C146.243 80.2649 148.666 81.9884 151.152 84.5186C152.212 85.599 153.382 86.9146 154.013 88.4716C154.116 88.7281 154.203 88.9895 154.271 89.2501C154.518 90.1956 154.635 91.5739 153.857 92.8911ZM143.634 83.0103C143.832 83.7684 144.073 84.5038 144.354 85.1956C145.2 87.2854 146.422 89.1489 147.616 90.8514C148.198 91.6777 148.792 92.4567 149.655 92.9052C150.446 93.3156 151.319 93.3722 152.162 93.4259C152.781 93.4669 153.366 93.5046 153.914 93.672L154.176 93.7523L154.33 93.5254C155.328 92.0424 155.458 90.0681 154.697 88.1945C154.018 86.5176 152.791 85.1339 151.68 84.0013C148.937 81.2101 146.256 79.3669 143.481 78.3669L142.958 78.1782L142.987 78.7331C143.062 80.2165 143.28 81.6559 143.634 83.0103Z" fill="white"/>
<path d="M176.652 74.5209L177.233 74.9806C177.979 74.0405 178.589 72.9992 179.049 71.8855L178.365 71.6039C177.932 72.6543 177.356 73.6351 176.652 74.5209Z" fill="white"/>
<path d="M157.27 76.3695L157.633 77.0131C158.692 76.4162 159.661 75.6638 160.514 74.7782L159.981 74.2663C159.178 75.1004 158.265 75.8079 157.27 76.3695Z" fill="white"/>
<path d="M144.966 76.3595L145.487 76.8844C145.966 76.4084 146.421 75.8979 146.821 75.4472L146.268 74.9568C145.875 75.3989 145.429 75.9007 144.966 76.3595Z" fill="white"/>
<path d="M150.423 77.237C150.985 77.4391 151.487 77.8939 151.888 78.2587C153.473 79.6908 155.062 81.1204 156.652 82.5496L157.146 82.0011C155.558 80.5716 153.968 79.1429 152.385 77.7121C151.935 77.3036 151.373 76.7935 150.673 76.5415L150.423 77.237Z" fill="white"/>
<path d="M140.912 76.7294C141.644 77.5115 142.357 78.3433 143.035 79.2015L143.615 78.744C142.926 77.87 142.198 77.0223 141.453 76.2242L140.912 76.7294Z" fill="white"/>
<path d="M163.243 76.7545C163.911 77.0669 164.565 77.3839 165.22 77.7015L165.293 77.7364C165.926 78.0442 166.581 78.3635 167.187 78.7264C168.006 79.2184 168.78 79.8152 169.529 80.3922L172.183 82.4366L172.634 81.852L169.98 79.8068C169.215 79.2175 168.424 78.6082 167.567 78.0925C166.932 77.7134 166.264 77.3879 165.617 77.0724L165.544 77.0375C164.885 76.7185 164.228 76.3998 163.556 76.0858L163.243 76.7545Z" fill="white"/>
<path d="M178.172 74.2741L178.397 74.6303L178.349 74.9329C180.135 75.222 181.814 76.0716 183.438 76.8925L183.772 76.2328C182.097 75.3862 180.365 74.5111 178.467 74.2036L178.252 74.2271L178.172 74.2741Z" fill="white"/>
<path d="M192.276 71.1343L192.978 71.3662C193.431 69.9903 194.176 68.6887 194.896 67.4293L194.254 67.0632C193.516 68.3542 192.752 69.6878 192.276 71.1343Z" fill="white"/>
<path d="M192.512 71.6738C194.018 71.835 195.379 72.5125 196.82 73.2295C198.188 73.9115 199.604 74.6148 201.156 74.8367L201.259 74.1042C199.827 73.9002 198.526 73.2536 197.15 72.5687C195.713 71.8539 194.227 71.1148 192.59 70.9388L192.512 71.6738Z" fill="white"/>
<path d="M205.122 66.8426L205.578 67.4248C206.101 67.0164 206.547 66.5319 206.978 66.0632C207.269 65.7475 207.559 65.431 207.873 65.1399C208.22 64.8159 208.608 64.5131 208.983 64.22C209.641 63.7071 210.321 63.1754 210.854 62.4876L210.27 62.0356C209.793 62.6507 209.178 63.1295 208.528 63.6379C208.141 63.9404 207.74 64.2533 207.369 64.599C207.037 64.906 206.731 65.24 206.433 65.5633C206.004 66.0298 205.598 66.4721 205.122 66.8426Z" fill="white"/>
<path d="M206.18 67.12C207.063 66.9836 207.963 67.0015 208.852 67.1714C209.033 67.2068 209.212 67.2475 209.392 67.2888C209.683 67.3558 209.975 67.4226 210.272 67.4646C210.971 67.5698 211.672 67.5399 212.325 67.492C214.233 67.3475 216.119 66.9679 217.931 66.365L217.698 65.664C215.944 66.2485 214.116 66.6153 212.27 66.7552C211.661 66.7997 211.009 66.8291 210.378 66.7345C210.101 66.6942 209.829 66.6318 209.558 66.5686C209.37 66.5261 209.183 66.4826 208.993 66.4456C208.019 66.2592 207.035 66.2405 206.067 66.39L206.18 67.12Z" fill="white"/>
<path d="M156.012 57.4717C156.082 57.7555 155.891 58.0492 155.835 58.3268C155.167 60.4124 154.295 62.4259 153.325 64.384C151.403 68.1975 149.091 71.8253 146.436 75.1704C148.265 72.843 149.597 69.9883 150.838 67.2454C151.819 64.907 153.045 62.6367 153.863 60.2455C153.509 60.9058 153.183 61.5868 152.844 62.2474C152.459 63.0301 152.11 63.8272 151.766 64.6303C152.001 63.4809 152.296 62.3167 152.824 61.268C153.534 60.2128 154.373 59.2423 155.178 58.2571C155.426 57.9909 155.649 57.6959 155.946 57.4815C155.965 57.4691 155.995 57.4538 156.012 57.4717Z" fill="white"/>
<path d="M186.57 55.2195C185.128 61.2547 181.712 66.5254 178.75 71.9039C180.707 67.2869 182.911 62.7827 184.815 58.1427C185.085 57.492 185.411 56.8536 185.624 56.1793C185.511 56.3614 185.403 56.5424 185.285 56.7225C184.898 57.3148 184.499 57.8993 184.1 58.4851C184.681 57.5973 185.158 56.6405 185.742 55.7601C185.727 55.7557 185.716 55.7669 185.707 55.7766C185.755 55.7142 185.804 55.6516 185.852 55.59C186.082 55.2551 186.33 54.9301 186.611 54.6292C186.86 54.2965 186.605 55.122 186.57 55.2195Z" fill="white"/>
<path d="M168.295 60.4543C166.908 63.5377 165.342 66.5369 163.636 69.4543C162.669 71.0337 161.759 72.7103 160.535 74.1091C161.305 73.1339 162.019 71.6008 162.865 69.9833C164.633 66.5305 166.555 63.1559 168.521 59.8117C168.613 59.6538 168.707 59.5004 168.8 59.3463C168.633 59.717 168.467 60.0895 168.295 60.4543Z" fill="white"/>
<path d="M160.536 74.1126C160.367 74.3275 160.194 74.5146 160.017 74.6711C160.194 74.4876 160.367 74.3012 160.536 74.1126Z" fill="white"/>
<path d="M204.253 51.2412C200.837 56.283 198.028 61.7271 194.534 66.7176C194.43 66.8932 194.331 67.0669 194.226 67.2402C194.257 67.1676 194.292 67.0933 194.322 67.021C194.262 67.1011 194.211 67.1829 194.153 67.2666C194.221 67.1648 194.285 67.0568 194.35 66.9525C196.191 62.6677 198.339 58.5015 200.967 54.646C199.756 56.8971 198.61 59.1762 197.429 61.4414C199.627 57.6588 202.088 54.0372 204.73 50.551C205.189 49.94 204.412 51.0004 204.253 51.2412Z" fill="white"/>
<path d="M146.451 82.8905C147.047 83.7812 147.786 84.5772 148.335 85.4996C147.375 84.5808 146.301 83.7624 145.532 82.6615C144.572 81.3547 143.869 79.7743 143.12 78.3979C144.394 79.7705 145.401 81.3556 146.451 82.8905Z" fill="white"/>
<path d="M156.903 81.9049C158.445 82.8623 159.646 83.6588 160.857 84.9235C162.652 86.8485 164.094 89.1326 165.115 91.5532C164.188 90.1809 163.04 88.892 161.91 87.4731C160.313 85.5274 158.84 83.7356 156.999 82.1549C156.812 81.9784 156.576 81.7615 156.415 81.6163C156.574 81.7123 156.74 81.8062 156.903 81.9049Z" fill="white"/>
<path d="M178.295 86.6137C180.237 89.1035 181.584 91.5834 184.016 93.61C181.13 91.985 179.146 89.2581 177.23 86.6399C176.572 85.7159 174.343 83.1793 172.697 81.7494C174.195 82.6137 176.884 84.7797 178.295 86.6137Z" fill="white"/>
<path d="M184.157 76.4047C185.122 76.7174 186.774 76.9889 187.974 77.4313C191.879 78.9287 196.036 81.8563 199.131 85.1789C196.859 83.3252 194.305 81.8537 191.783 80.3743C188.911 78.6524 186.765 77.6828 184.232 76.9272C184.262 76.9643 184.296 77.0061 184.336 77.0601C184.842 77.6949 185.364 78.3335 185.865 78.9662C185.84 78.9425 185.816 78.9219 185.79 78.8984C185.033 78.2058 184.223 77.5622 183.557 76.7823C183.491 76.7041 183.455 76.6066 183.479 76.5006C183.564 76.196 184.045 76.3693 184.157 76.4047Z" fill="white"/>
<path d="M201.654 74.3557C205.694 74.5005 213.181 75.0689 216.108 77.9958C214.428 76.7857 212.209 76.6154 210.178 76.2214C207.317 75.7423 204.504 75.0181 201.644 74.5141C201.357 74.4634 200.939 74.3852 200.735 74.3348C201.037 74.3359 201.346 74.3362 201.654 74.3557Z" fill="white"/>
<path d="M209.502 77.3901C208.218 76.8199 206.826 76.5646 205.493 76.1527C204.161 75.7402 202.481 75.0675 201.384 74.612C204.19 75.1301 207.105 75.7782 209.502 77.3901Z" fill="white"/>
<path d="M215.33 52.2943C214.243 56.1603 212.986 60.2706 209.867 63.0142C210.837 61.8577 211.539 60.4834 212.196 59.121C213.225 57.0206 213.859 55.3834 214.715 53.4384C214.93 52.9585 215.174 52.4607 215.413 52.0121C215.386 52.1032 215.358 52.1988 215.33 52.2943Z" fill="white"/>
<path d="M232.179 54.0701C229.876 54.961 227.701 56.2415 225.5 57.3946C222.646 58.901 219.723 60.2751 216.805 61.6488C216.627 61.7296 216.424 61.8404 216.28 61.9195C216.482 61.7452 216.696 61.5857 216.913 61.4306C221.532 58.1618 226.587 55.2384 232.179 54.0701Z" fill="white"/>
<path d="M220.788 65.6985C223.162 65.6304 225.512 66.1161 227.832 66.5739C228.756 66.7029 229.59 66.9969 230.538 66.7538C229.967 67.0561 229.297 67.0502 228.666 67.0735C225.94 67.1575 223.335 66.2947 220.685 65.8176C220.585 65.7972 220.263 65.7667 220.167 65.7501C220.376 65.7299 220.582 65.7106 220.788 65.6985Z" fill="white"/>
<path d="M144.712 74.5388C113.834 80.5429 81.1965 76.3915 52.8117 62.851L53.1303 62.1847C81.3736 75.6573 113.847 79.7879 144.571 73.8132L144.712 74.5388Z" fill="white"/>
<path d="M90.2569 71.2412C90.2784 71.1684 90.3013 71.0961 90.325 71.0271C91.5312 67.4944 91.1067 63.2787 89.1064 58.4172C87.9307 55.5608 86.6589 53.4817 85.101 51.8757C83.2787 49.9992 81.074 48.8484 78.8538 48.6052C78.91 53.3363 79.8524 57.6617 81.6559 61.4654C83.6189 65.6062 86.6635 69.0631 90.2569 71.2412ZM91.2909 70.3793C91.2131 70.6774 91.1241 70.9742 91.0237 71.268C90.9763 71.4026 90.936 71.5504 90.9011 71.6842L90.8284 71.9656C90.7947 72.0948 90.7046 72.4395 90.3638 72.3866C90.1172 72.3484 90.056 72.1668 90.0447 71.9753C86.2551 69.7289 83.0434 66.1174 80.9876 61.781C79.0862 57.7706 78.1188 53.2028 78.1123 48.203L78.1111 47.8101L78.5044 47.8342C81.0413 47.9885 83.572 49.2423 85.6315 51.3618C87.257 53.0376 88.5782 55.19 89.7903 58.1359C91.6968 62.7713 92.2021 66.8905 91.2909 70.3793Z" fill="white"/>
<path d="M95.6281 50.8541C94.7502 56.0364 97.0116 61.3748 99.095 64.9797C101.851 69.7458 105.065 72.8307 108.66 74.1626C108.629 73.8623 108.62 73.4934 108.608 73.0521C108.6 72.7463 108.591 72.4216 108.574 72.1004C108.274 66.6396 105.14 61.7742 102.375 57.4816C100.477 54.5308 98.5286 51.8059 95.6281 50.8541ZM109.472 74.4722C109.465 74.459 109.431 74.4207 109.369 74.4015L109.159 75.1091L109.149 75.1063C105.083 73.8746 101.486 70.5919 98.4553 65.3484C95.2988 59.8893 94.0964 54.6881 94.9782 50.3109L95.055 49.926L95.4348 50.0266C98.803 50.924 101.017 54.0045 102.997 57.082C105.672 61.2354 109.001 66.4039 109.313 72.0602C109.331 72.3882 109.339 72.7193 109.347 73.0324C109.361 73.574 109.38 74.3161 109.472 74.4722Z" fill="white"/>
<path d="M110.4 53.9186C110.652 61.9435 115.234 69.9507 122.232 74.6421C121.848 72.7543 121.436 70.9766 121.035 69.2502C120.271 65.9622 119.48 62.561 117.743 59.6055C115.943 56.5452 113.223 54.4486 110.4 53.9186ZM123.29 76.189L122.569 75.7406C114.823 70.9146 109.753 62.1801 109.651 53.4883L109.646 53.0626L110.069 53.1181C113.267 53.5369 116.374 55.8225 118.381 59.2313C120.175 62.2841 120.978 65.7408 121.755 69.0836C122.217 71.074 122.695 73.1325 123.128 75.3564L123.29 76.189Z" fill="white"/>
<path d="M74.4423 66.9007C74.5386 66.6475 74.623 66.3838 74.6933 66.1148C75.5189 62.9538 74.4725 59.0356 73.3299 55.2948C72.9417 54.0313 72.5452 52.7402 71.8178 51.6707C71.1997 50.7652 70.3386 50.0167 69.4999 49.3426C66.613 47.0246 63.4215 45.1252 60.0072 43.6942C59.9959 43.7157 59.9855 43.7334 59.9773 43.7493C61.8273 52.7468 67.0837 61.153 74.4423 66.9007ZM75.4078 66.301C75.2857 66.7687 75.1261 67.2202 74.9323 67.6398L74.7403 68.0591L74.3729 67.7797C66.6452 61.8966 61.1253 53.1508 59.2304 43.784L59.2346 43.6177C59.2598 43.5214 59.2918 43.4457 59.5349 43.0405L59.698 42.7663L59.9923 42.8879C63.584 44.3594 66.9378 46.3379 69.9631 48.7671C70.8464 49.4773 71.7563 50.2702 72.4288 51.2553C73.2197 52.4164 73.633 53.7624 74.0325 55.064C75.2099 58.9217 76.2821 62.9536 75.4078 66.301Z" fill="white"/>
<path d="M49.2097 42.8275C48.8532 48.3598 50.5258 54.0259 53.8427 58.4674C54.8414 59.8028 56.2521 61.3876 58.4508 62.0765C58.3266 60.9347 58.3926 59.7838 58.4559 58.6656C58.5144 57.6376 58.5753 56.5751 58.4835 55.5504C58.1919 52.3462 56.4209 49.6439 54.9869 47.942C53.5272 46.2131 51.6332 44.5358 49.2097 42.8275ZM59.35 63.0667L58.8088 62.9396C56.073 62.2984 54.4014 60.4489 53.2502 58.9089C49.6976 54.1528 47.9748 48.0345 48.5225 42.1235L48.5807 41.497L49.0999 41.8527C51.8349 43.7263 53.9449 45.5619 55.5518 47.4656C57.7067 50.0239 58.9749 52.796 59.219 55.4841C59.3163 56.5633 59.2547 57.6534 59.1942 58.7078C59.1191 60.0278 59.0476 61.2745 59.2571 62.5184L59.35 63.0667Z" fill="white"/>
<path d="M24.4813 52.0715C25.1466 52.5338 25.7037 53.1353 26.2461 53.7207C26.7484 54.2631 27.2681 54.823 27.854 55.2451C29.4124 56.3679 31.4576 56.5777 33.4353 56.7797L33.8809 56.8256C40.2331 57.4892 46.3871 59.1461 52.1994 61.7548C49.4312 58.4285 46.5142 55.0927 42.8355 52.6777C38.2485 49.6668 33.0231 48.7596 28.8574 50.2519C28.1995 50.487 27.5448 50.7882 26.9107 51.0793C26.1271 51.4391 25.324 51.8078 24.4813 52.0715ZM54.8963 63.8494L53.3714 63.1149C47.2009 60.1411 40.6178 58.2719 33.8043 57.5599L33.3595 57.5142C31.2856 57.3018 29.14 57.0822 27.4222 55.8443C26.7757 55.3787 26.2313 54.7912 25.704 54.2227C24.9696 53.4305 24.2762 52.6817 23.3579 52.2807L22.2826 51.8111L23.4329 51.5802C24.5289 51.3606 25.5353 50.8988 26.6014 50.4085C27.2503 50.1107 27.9199 49.8027 28.6082 49.5576C32.9913 47.9865 38.4616 48.9231 43.2417 52.0611C47.3802 54.7773 50.5387 58.5898 53.5936 62.2765L54.8963 63.8494Z" fill="white"/>
<path d="M28.5891 69.6335C30.7902 71.177 32.9874 72.4289 35.3601 72.2953C37.5461 72.1728 39.3899 70.9356 41.3426 69.6256C42.0324 69.1621 42.7465 68.6837 43.4687 68.2653C45.749 66.946 48.2916 66.1497 50.9057 65.9273C47.8392 64.7436 45.0447 64.0896 42.4033 63.9343C38.3485 63.6972 34.7738 64.7567 32.3362 66.9159C32.1072 67.1199 31.8771 67.3375 31.6457 67.5572C30.7512 68.4042 29.7662 69.3378 28.5891 69.6335ZM54.4702 66.6244L52.6259 66.6026C49.5433 66.5666 46.505 67.3618 43.8388 68.9038C43.1385 69.3107 42.4351 69.7821 41.7546 70.2383C39.8048 71.5466 37.7895 72.8991 35.402 73.0328C32.4905 73.1957 29.9242 71.5236 27.3328 69.6441L26.2158 68.8337L27.5892 68.9786C28.9238 69.1182 30.0486 68.0529 31.1368 67.0213C31.3747 66.796 31.6103 66.5724 31.8463 66.3637C34.431 64.073 38.1959 62.9488 42.447 63.1979C45.6213 63.3835 48.9994 64.2655 52.7767 65.894L54.4702 66.6244Z" fill="white"/>
<path d="M44.1506 82.1424C51.9859 82.0701 60.3148 79.364 67.2811 74.6164C64.2985 73.6374 60.5707 73.0749 56.6874 73.0261C55.3862 73.0086 54.0154 73.0546 52.7934 73.5035C50.5643 74.3201 49.1191 76.243 47.5888 78.2793C46.555 79.6564 45.4921 81.0699 44.1506 82.1424ZM68.8769 74.4005L68.3018 74.8065C60.754 80.1381 51.5267 83.0778 42.985 82.8729L41.7207 82.8422L42.8027 82.1878C44.5009 81.161 45.7701 79.4706 46.9977 77.8363C48.5247 75.8032 50.1041 73.7014 52.5382 72.8101C53.873 72.3204 55.3262 72.2689 56.6975 72.2867C60.9633 72.3413 65.0535 73.0056 68.2153 74.1586L68.8769 74.4005Z" fill="white"/>
<path d="M63.3264 89.8934C67.5412 90.7151 71.5933 91.2529 74.9699 89.5118C77.6296 88.1414 79.4567 85.532 81.0683 83.2314C82.545 81.1282 84.0668 78.9585 85.1049 76.8953C80.7508 77.5237 76.2834 78.2319 72.2402 80.1536C67.7147 82.3045 64.4807 85.8426 63.3264 89.8934ZM86.3559 75.9692L86.0742 76.5847C85.0166 78.8917 83.3171 81.3131 81.6734 83.6552C80.0133 86.0256 78.1313 88.7138 75.3086 90.1674C71.6173 92.0713 67.2832 91.4307 62.7945 90.5409L62.4136 90.4661L62.5376 89.9727C63.6795 85.6004 67.1003 81.7787 71.9224 79.4871C76.28 77.4156 81.2775 76.6986 85.6853 76.0654L86.3559 75.9692Z" fill="white"/>
<path d="M94.9261 85.1656C95.1646 84.2523 95.4492 83.3502 95.8828 82.6225C90.208 85.0535 84.909 89.4558 79.742 96.0247C81.1325 96.7576 82.7461 97.4557 84.442 97.5075C86.9635 97.5859 89.5735 96.1928 91.4239 93.7821C93.1269 91.56 93.9755 88.8613 94.5249 86.7581C94.5825 86.5372 94.6377 86.3165 94.6929 86.0958L94.7211 85.9815C94.7874 85.7123 94.855 85.4377 94.9261 85.1656ZM97.5872 81.9532C96.3345 82.5353 95.8654 84.4317 95.4383 86.1578L95.4103 86.2713C95.3556 86.4963 95.2986 86.7206 95.2401 86.9445C94.6733 89.115 93.7936 91.9043 92.0099 94.2319C90.0155 96.8312 87.1773 98.3313 84.4189 98.2467C82.4096 98.1842 80.554 97.3113 79.004 96.4665L78.6226 96.2594L78.8886 95.9165C84.7335 88.3946 90.7591 83.6037 97.3071 81.2705L97.5872 81.9532Z" fill="white"/>
<path d="M97.8904 102.965C101.482 102.196 104.764 99.1392 106.945 94.5055C107.813 92.6639 108.498 90.6958 109.162 88.793C109.869 86.7644 110.596 84.6756 111.554 82.7018C110.912 82.9236 110.267 83.1312 109.639 83.334C106.849 84.236 104.212 85.0884 102.168 86.8854C100.465 88.3891 99.196 90.5979 98.4984 93.2689C98.391 93.6801 98.2982 94.0951 98.2207 94.5108C97.7096 97.2811 97.7878 100.163 97.8904 102.965ZM113.081 81.3643L112.629 82.217C111.482 84.38 110.657 86.7469 109.86 89.0352C109.19 90.9569 108.498 92.943 107.614 94.8202C105.244 99.8535 101.592 103.116 97.5972 103.771L97.1832 103.839L97.1676 103.42C97.0572 100.445 96.9424 97.3684 97.4943 94.3761C97.5754 93.9434 97.6706 93.5103 97.7824 93.0823C98.5173 90.2683 99.8656 87.9342 101.68 86.3312C103.839 84.4321 106.546 83.558 109.412 82.6315C110.318 82.3388 111.256 82.0355 112.175 81.6978L113.081 81.3643Z" fill="white"/>
<path d="M115.237 92.8911C115.782 92.7605 116.341 92.725 116.884 92.6893C117.687 92.6366 118.445 92.5884 119.097 92.2506C119.814 91.8774 120.325 91.204 120.872 90.4268C122.042 88.761 123.237 86.9394 124.055 84.9183C124.322 84.2566 124.556 83.5516 124.746 82.824C125.041 81.6913 125.238 80.4962 125.333 79.2637C122.851 80.2649 120.427 81.9884 117.942 84.5186C116.882 85.599 115.712 86.9146 115.081 88.4716C114.978 88.7281 114.891 88.9895 114.823 89.2501C114.576 90.1956 114.458 91.5739 115.237 92.8911ZM125.46 83.0103C125.262 83.7684 125.02 84.5038 124.74 85.1956C123.894 87.2854 122.672 89.1489 121.477 90.8514C120.895 91.6777 120.301 92.4567 119.438 92.9052C118.648 93.3156 117.775 93.3722 116.932 93.4259C116.312 93.4669 115.727 93.5046 115.179 93.672L114.917 93.7523L114.764 93.5254C113.766 92.0424 113.636 90.0681 114.396 88.1945C115.075 86.5176 116.303 85.1339 117.413 84.0013C120.157 81.2101 122.838 79.3669 125.613 78.3669L126.135 78.1782L126.107 78.7331C126.032 80.2165 125.814 81.6559 125.46 83.0103Z" fill="white"/>
<path d="M92.4412 74.5209L91.861 74.9806C91.1151 74.0405 90.5044 72.9992 90.0449 71.8855L90.729 71.6039C91.1617 72.6543 91.7376 73.6351 92.4412 74.5209Z" fill="white"/>
<path d="M111.824 76.3695L111.46 77.0131C110.402 76.4162 109.433 75.6638 108.579 74.7782L109.113 74.2663C109.916 75.1004 110.829 75.8079 111.824 76.3695Z" fill="white"/>
<path d="M124.128 76.3595L123.606 76.8844C123.127 76.4084 122.673 75.8979 122.273 75.4472L122.826 74.9568C123.219 75.3989 123.665 75.9007 124.128 76.3595Z" fill="white"/>
<path d="M118.67 77.237C118.108 77.4391 117.607 77.8939 117.205 78.2587C115.62 79.6908 114.032 81.1204 112.442 82.5496L111.948 82.0011C113.536 80.5716 115.125 79.1429 116.709 77.7121C117.159 77.3036 117.721 76.7935 118.42 76.5415L118.67 77.237Z" fill="white"/>
<path d="M128.182 76.7294C127.45 77.5115 126.737 78.3433 126.059 79.2015L125.479 78.744C126.168 77.87 126.895 77.0223 127.641 76.2242L128.182 76.7294Z" fill="white"/>
<path d="M105.851 76.7545C105.182 77.0669 104.528 77.3839 103.873 77.7015L103.8 77.7364C103.168 78.0442 102.513 78.3635 101.907 78.7264C101.088 79.2184 100.314 79.8152 99.5644 80.3922L96.9106 82.4366L96.4594 81.852L99.1133 79.8068C99.8785 79.2175 100.67 78.6082 101.526 78.0925C102.161 77.7134 102.83 77.3879 103.477 77.0724L103.55 77.0375C104.209 76.7185 104.865 76.3998 105.537 76.0858L105.851 76.7545Z" fill="white"/>
<path d="M90.9217 74.2741L90.6963 74.6303L90.7448 74.9329C88.9586 75.222 87.2794 76.0716 85.6559 76.8925L85.3215 76.2328C86.9966 75.3862 88.7282 74.5111 90.6263 74.2036L90.8416 74.2271L90.9217 74.2741Z" fill="white"/>
<path d="M76.8181 71.1343L76.1159 71.3662C75.6628 69.9903 74.9182 68.6887 74.1976 67.4293L74.8392 67.0632C75.5777 68.3542 76.3417 69.6878 76.8181 71.1343Z" fill="white"/>
<path d="M76.5819 71.6738C75.0761 71.835 73.715 72.5125 72.2741 73.2295C70.9052 73.9115 69.4899 74.6148 67.9381 74.8367L67.8344 74.1042C69.2672 73.9002 70.5679 73.2536 71.9441 72.5687C73.3811 71.8539 74.8662 71.1148 76.5033 70.9388L76.5819 71.6738Z" fill="white"/>
<path d="M63.9714 66.8426L63.5162 67.4248C62.9927 67.0164 62.5471 66.5319 62.1153 66.0632C61.8251 65.7475 61.5351 65.431 61.2204 65.1399C60.8735 64.8159 60.4859 64.5131 60.1104 64.22C59.4524 63.7071 58.7723 63.1754 58.2393 62.4876L58.824 62.0356C59.3009 62.6507 59.9155 63.1295 60.5657 63.6379C60.9525 63.9404 61.3539 64.2533 61.7246 64.599C62.0563 64.906 62.3631 65.24 62.6603 65.5633C63.0902 66.0298 63.4961 66.4721 63.9714 66.8426Z" fill="white"/>
<path d="M62.9142 67.12C62.0304 66.9836 61.1308 67.0015 60.2414 67.1714C60.0606 67.2068 59.8816 67.2475 59.7016 67.2888C59.4103 67.3558 59.1183 67.4226 58.8221 67.4646C58.1228 67.5698 57.4221 67.5399 56.7686 67.492C54.8605 67.3475 52.9745 66.9679 51.1624 66.365L51.3962 65.664C53.1501 66.2485 54.9773 66.6153 56.8237 66.7552C57.4332 66.7997 58.085 66.8291 58.7153 66.7345C58.9931 66.6942 59.2644 66.6318 59.5358 66.5686C59.7235 66.5261 59.9105 66.4826 60.1008 66.4456C61.0746 66.2592 62.0586 66.2405 63.0272 66.39L62.9142 67.12Z" fill="white"/>
<path d="M113.082 57.4717C113.012 57.7555 113.203 58.0492 113.259 58.3268C113.926 60.4124 114.798 62.4259 115.768 64.384C117.69 68.1975 120.002 71.8253 122.658 75.1704C120.828 72.843 119.497 69.9883 118.256 67.2454C117.274 64.907 116.049 62.6367 115.231 60.2455C115.584 60.9058 115.911 61.5868 116.25 62.2474C116.634 63.0301 116.983 63.8272 117.328 64.6303C117.093 63.4809 116.798 62.3167 116.269 61.268C115.559 60.2128 114.72 59.2423 113.916 58.2571C113.668 57.9909 113.444 57.6959 113.148 57.4815C113.129 57.4691 113.098 57.4538 113.082 57.4717Z" fill="white"/>
<path d="M82.5242 55.2195C83.9655 61.2547 87.3821 66.5254 90.3441 71.9039C88.3869 67.2869 86.1828 62.7827 84.2782 58.1427C84.0086 57.492 83.6826 56.8536 83.4697 56.1793C83.5824 56.3614 83.6911 56.5424 83.8091 56.7225C84.1962 57.3148 84.5943 57.8993 84.9937 58.4851C84.4125 57.5973 83.936 56.6405 83.3521 55.7601C83.3663 55.7557 83.3781 55.7669 83.387 55.7766C83.3387 55.7142 83.2897 55.6516 83.2412 55.59C83.0117 55.2551 82.764 54.9301 82.4831 54.6292C82.2341 54.2965 82.4883 55.122 82.5242 55.2195Z" fill="white"/>
<path d="M100.799 60.4543C102.186 63.5377 103.752 66.5369 105.458 69.4543C106.425 71.0337 107.335 72.7103 108.558 74.1091C107.789 73.1339 107.075 71.6008 106.228 69.9833C104.46 66.5305 102.538 63.1559 100.573 59.8117C100.481 59.6538 100.387 59.5004 100.294 59.3463C100.46 59.717 100.627 60.0895 100.799 60.4543Z" fill="white"/>
<path d="M108.558 74.1126C108.727 74.3275 108.9 74.5146 109.077 74.6711C108.899 74.4876 108.727 74.3012 108.558 74.1126Z" fill="white"/>
<path d="M64.8411 51.2412C68.2562 56.283 71.0662 61.7271 74.5601 66.7176C74.6638 66.8932 74.763 67.0669 74.8673 67.2402C74.8364 67.1676 74.8019 67.0933 74.7718 67.021C74.8317 67.1011 74.8823 67.1829 74.9405 67.2666C74.8723 67.1648 74.809 67.0568 74.7439 66.9525C72.9025 62.6677 70.7549 58.5015 68.1265 54.646C69.3378 56.8971 70.4839 59.1762 71.6646 61.4414C69.4666 57.6588 67.0059 54.0372 64.3636 50.551C63.9046 49.94 64.6817 51.0004 64.8411 51.2412Z" fill="white"/>
<path d="M122.643 82.8905C122.047 83.7812 121.307 84.5772 120.758 85.4996C121.719 84.5808 122.792 83.7624 123.562 82.6615C124.522 81.3547 125.225 79.7743 125.974 78.3979C124.7 79.7705 123.692 81.3556 122.643 82.8905Z" fill="white"/>
<path d="M112.191 81.9049C110.649 82.8623 109.448 83.6588 108.236 84.9235C106.442 86.8485 105 89.1326 103.979 91.5532C104.906 90.1809 106.053 88.892 107.184 87.4731C108.78 85.5274 110.253 83.7356 112.095 82.1549C112.282 81.9784 112.518 81.7615 112.678 81.6163C112.52 81.7123 112.354 81.8062 112.191 81.9049Z" fill="white"/>
<path d="M90.7987 86.6137C88.8566 89.1035 87.5095 91.5834 85.0779 93.61C87.9635 91.985 89.9479 89.2581 91.8639 86.6399C92.522 85.7159 94.7509 83.1793 96.3966 81.7494C94.8986 82.6137 92.2092 84.7797 90.7987 86.6137Z" fill="white"/>
<path d="M84.9368 76.4047C83.9718 76.7174 82.3198 76.9889 81.1199 77.4313C77.2142 78.9287 73.0577 81.8563 69.9624 85.1789C72.2344 83.3252 74.7891 81.8537 77.3106 80.3743C80.1824 78.6524 82.3289 77.6828 84.8616 76.9272C84.8315 76.9643 84.7978 77.0061 84.7575 77.0601C84.2518 77.6949 83.7295 78.3335 83.2284 78.9662C83.2534 78.9425 83.2776 78.9219 83.3034 78.8984C84.0603 78.2058 84.8707 77.5622 85.5369 76.7823C85.6031 76.7041 85.6392 76.6066 85.6145 76.5006C85.5298 76.196 85.0482 76.3693 84.9368 76.4047Z" fill="white"/>
<path d="M67.44 74.3557C63.3996 74.5005 55.9128 75.0689 52.9861 77.9958C54.6652 76.7857 56.8843 76.6154 58.9157 76.2214C61.7768 75.7423 64.5899 75.0181 67.4493 74.5141C67.7371 74.4634 68.1547 74.3852 68.3591 74.3348C68.0564 74.3359 67.7475 74.3362 67.44 74.3557Z" fill="white"/>
<path d="M59.5913 77.3901C60.8754 76.8199 62.2676 76.5646 63.6011 76.1527C64.9322 75.7402 66.6124 75.0675 67.7096 74.612C64.9036 75.1301 61.9884 75.7782 59.5913 77.3901Z" fill="white"/>
<path d="M53.7638 52.2943C54.851 56.1603 56.1081 60.2706 59.2266 63.0142C58.2571 61.8577 57.5545 60.4834 56.8978 59.121C55.8684 57.0206 55.2346 55.3834 54.3787 53.4384C54.1632 52.9585 53.9198 52.4607 53.6806 52.0121C53.7075 52.1032 53.7357 52.1988 53.7638 52.2943Z" fill="white"/>
<path d="M36.9149 54.0701C39.2179 54.961 41.3931 56.2415 43.5933 57.3946C46.4474 58.901 49.3703 60.2751 52.2885 61.6488C52.4668 61.7296 52.6699 61.8404 52.8135 61.9195C52.6114 61.7452 52.3973 61.5857 52.1812 61.4306C47.5614 58.1618 42.5066 55.2384 36.9149 54.0701Z" fill="white"/>
<path d="M48.3056 65.6985C45.9321 65.6304 43.5816 66.1161 41.262 66.5739C40.3375 66.7029 39.504 66.9969 38.5557 66.7538C39.1264 67.0561 39.7965 67.0502 40.4278 67.0735C43.1535 67.1575 45.7586 66.2947 48.4085 65.8176C48.5086 65.7972 48.8304 65.7667 48.9263 65.7501C48.7175 65.7299 48.5116 65.7106 48.3056 65.6985Z" fill="white"/>
</svg>
