<svg width="322" height="543" viewBox="0 0 322 543" fill="none" xmlns="http://www.w3.org/2000/svg">
<path d="M276.496 487.1C276.219 486.253 275.571 483.468 274.887 480.519C274.243 477.758 273.516 474.626 273.266 473.868L273.204 473.513C273.032 467.553 268.341 463.339 263.374 458.879C261.636 457.316 259.835 455.7 258.253 454.008C246.244 441.163 246.041 422.877 245.845 405.193C245.767 398.39 245.693 391.36 244.935 384.775C241.764 357.291 224.322 329.882 197.085 309.577C194.913 307.964 192.699 306.394 190.476 304.821C183.646 299.989 176.585 294.994 170.91 288.612C164.841 281.778 160.548 273.572 156.405 265.64C145.426 244.656 134.077 222.952 126.89 199.605C119.064 174.164 117.708 145.998 123.266 124.255L125.68 124.872C120.235 146.189 121.579 173.852 129.273 198.871C136.392 222.003 147.687 243.601 158.611 264.484C162.689 272.283 166.907 280.352 172.777 286.957C178.252 293.119 185.2 298.037 191.914 302.79C194.156 304.371 196.389 305.949 198.573 307.578C226.361 328.293 244.158 356.327 247.408 384.494C248.185 391.199 248.263 398.304 248.337 405.17C248.536 423.166 248.724 440.171 260.077 452.306C261.581 453.919 263.338 455.496 265.041 457.023C270.138 461.601 275.407 466.334 275.692 473.267C276.004 474.306 276.641 477.055 277.316 479.953C277.961 482.722 278.629 485.585 278.867 486.339L276.496 487.1Z" fill="#E4C26D"/>
<path d="M77.4149 224.925C76.8642 215.797 75.0677 209.189 75.2474 200.214C75.2708 194.227 75.7433 188.267 75.8448 182.315C75.7667 178.101 75.3918 173.879 76.0401 169.692C76.2666 167.997 76.8877 164.709 77.4892 162.963C76.6924 164.514 76.1456 166.154 75.5949 167.822C73.2985 174.856 73.8999 182.389 72.6736 189.642C70.7833 201.163 72.5798 212.462 73.7242 222.753C74.146 229.338 74.5717 235.966 76.6143 242.304C79.4576 251.084 84.2223 259.137 88.3075 267.386C83.1795 252.978 77.2626 239.438 77.4149 224.925Z" fill="#E4C26D"/>
<path d="M151.425 4.15152C143.938 47.4601 123.86 89.3354 94.7517 122.267C87.2882 130.711 79.1256 138.729 71.2325 146.481C63.5893 153.992 55.6884 161.756 48.4475 169.876C37.8283 181.787 29.2948 195.316 23.6864 208.841C32.0794 192.918 43.632 178.643 57.6216 167.692C66.8231 160.483 77.0751 154.542 86.9913 148.797C92.6348 145.524 98.4776 142.142 104.043 138.569C121.54 127.356 132.854 116.131 139.333 103.501C137.83 104.274 136.326 105.04 134.826 105.805L126.125 110.25L131.479 104.79C138.767 97.3535 143.989 88.3121 148.551 79.6496C154.417 68.5149 159.927 56.4273 160.521 43.4413C161.064 31.6974 160.529 11.5486 151.425 4.15152ZM214.078 497.422L248.802 484.948C226.822 484.979 206.036 486.299 185.891 487.662L184.161 487.779C170.773 488.693 155.592 489.74 144.208 481.733L140.017 478.792L145.09 479.48C147.414 479.796 149.535 479.917 151.39 479.851C132.624 476.933 116.373 465.139 100.602 453.691C95.689 450.13 90.6118 446.443 85.5815 443.127C79.1529 438.893 72.3338 434.996 65.7413 431.227C55.8837 425.587 45.6941 419.76 36.5317 412.675C25.9867 404.513 8.1306 387.344 6.97456 364.024L6.72846 359.127L9.2827 363.317C11.4386 366.863 13.2663 370.289 15.0316 373.604C18.285 379.701 21.2649 385.298 25.4712 389.801C14.727 375.182 11.1417 355.198 8.48204 335.631L1.9989 288.053C-0.449881 270.135 -1.89494 254.165 5.3147 240.164L8.7125 233.559L7.65803 240.913C6.30671 250.302 6.55277 259.902 8.35322 269.186C8.3337 255.688 10.6848 242.003 15.0942 228.896L15.0473 228.888C18.7536 208.658 30.2516 186.544 46.5846 168.216C53.8801 160.037 61.8123 152.242 69.4867 144.704C77.3486 136.983 85.4799 128.992 92.8848 120.615C122.118 87.5427 142.153 45.3472 149.293 1.80038L149.589 -3.05176e-05L151.159 0.93335C162.279 7.53763 163.743 27.7567 163.013 43.5585C162.396 57.0287 156.756 69.4249 150.753 80.8135C147.082 87.7966 142.973 95.0297 137.701 101.536C138.959 100.888 140.216 100.24 141.466 99.5875L144.606 97.955L143.188 101.2C136.842 115.667 124.832 128.207 105.39 140.666C99.7781 144.271 93.9119 147.669 88.2411 150.953C78.3991 156.659 68.2252 162.557 59.1565 169.653C26.1273 195.504 6.9784 240.234 11.5049 280.961L12.7352 292.029L9.08742 281.508C5.53728 271.264 3.94379 260.336 4.3734 249.471C1.25678 260.879 2.54951 273.681 4.47104 287.718L10.9504 335.295C14.1724 358.962 18.7498 383.235 35.8834 397.213L43.1126 403.099L34.5906 399.319C23.2216 394.265 18.41 385.231 12.8329 374.772C11.958 373.136 11.0714 371.468 10.1341 369.773C13.6178 389.129 28.7713 403.513 38.0587 410.699C47.0805 417.682 57.1959 423.467 66.9793 429.063C73.607 432.852 80.4613 436.769 86.9523 441.045C92.0295 444.396 97.1301 448.095 102.067 451.676C119.505 464.334 137.545 477.426 158.639 478.015L162.529 478.125L159.303 480.296C156.959 481.87 153.624 482.229 150.285 482.358C160.216 486.92 172.277 486.096 183.993 485.291L185.724 485.174C208.02 483.663 231.082 482.097 255.793 482.522L262.596 482.643L234.082 492.888C250.368 491.759 267.334 492.212 280.156 494.215L279.773 496.68C264.569 494.301 243.444 494.133 224.642 496.239L214.078 497.422Z" fill="#E4C26D"/>
<path d="M308.014 520.829C300.484 511.823 292.107 503.5 283.229 495.845C276.844 490.682 270.533 485.421 264.155 480.282C256.695 474.974 249.064 469.932 241.659 464.597C222.733 450.283 205.208 437.723 188.106 423.405C167.004 405.526 147.106 385.982 132.745 363.537C125.942 352.27 118.334 341.471 112.897 329.407C111.077 325.786 109.679 322.541 108.335 319.205C111.698 324.99 115.119 330.75 119.029 336.21C121.825 340.475 124.071 345.06 126.965 349.274C131.726 355.562 136.787 361.592 141.775 367.681C149.101 376.781 157.709 384.686 165.883 393.012C172.117 400.394 179.178 407.002 185.958 413.856C191.141 418.918 197.452 425.901 202.213 429.115C206.778 432.665 211.543 436.477 217.523 439.664C221.588 442.132 227.048 446.471 229.688 448.299C240.788 456.071 251.614 466.546 263.409 476.814C274.45 486.523 285.776 495.916 296.493 506.019C303.203 512.971 310.186 518.357 314.247 526.34C315.294 528.136 316.071 530.159 316.77 532.296C314.169 528.183 311.225 524.368 308.014 520.829ZM322 542.595C320.887 536.815 320.153 530.874 317.591 525.488C313.576 516.619 305.69 510.554 299.086 503.672C288.939 493.975 278.043 485.125 267.592 475.767C262.632 471.557 257.441 466.87 252.329 462.305C251.981 461.68 251.661 461.059 251.333 460.41C246.771 450.561 241.362 441.133 235.453 432.064C239.265 441.73 243.881 451.139 249.591 459.836C249.618 459.887 249.642 459.91 249.689 459.965C243.631 454.626 237.718 449.615 232.43 446.026C227.029 442.089 221.838 437.793 215.878 434.7C210.043 431.107 207.028 428.299 202.443 424.96C191.543 415.172 177.928 401.097 166.879 389.095C156.78 379.222 146.879 369.126 138.205 357.956C134.838 353.691 131.202 349.532 129.304 346.775C126.313 342.272 123.817 337.456 120.724 333.043C116.557 327.653 113.397 321.623 109.558 316.034C106.562 311.5 103.82 306.786 101.231 302.025C98.587 295.667 95.8922 288.684 93.9199 281.806C94.619 285.422 95.4197 289.008 96.318 292.577C95.3963 290.734 95.4041 286.438 94.4824 284.598C95.7048 288.082 96.1383 293.921 97.5873 297.33C103.219 318.057 111.999 337.979 123.918 355.812C136.01 377.004 152.218 395.485 169.973 412.114C192.867 433.111 215.429 449.139 240.14 467.768C246.97 472.627 256.594 479.192 262.081 483.023C269.009 488.733 276.024 494.346 282.929 500.102C296.821 512.85 309.256 525.766 318.758 541.2C319.082 541.696 319.383 542.243 319.684 542.821L322 542.595Z" fill="#E4C26D"/>
<path d="M152.491 320.595C152.441 311.198 151.5 301.825 152.042 292.424C151.468 280.606 150.875 268.788 151.57 256.942C149.578 268.964 149.476 281.055 149.402 293.198C148.582 302.547 149.555 311.87 150 321.196C150.726 329.875 150.773 338.607 151.671 347.258C151.769 347.75 151.843 348.629 151.769 348.777C151.972 348.332 151.867 347.801 151.867 347.332C152.093 338.428 152.82 329.523 152.491 320.595Z" fill="#E4C26D"/>
<path d="M140.723 283.797C140.723 283.816 140.7 283.816 140.673 283.816H140.7C140.7 283.816 140.7 283.816 140.723 283.797Z" fill="#E4C26D"/>
<path d="M139.978 240.559C140.326 250.585 140.974 260.634 140.126 270.632C139.876 275.022 140.673 279.435 140.451 283.817C140.497 283.872 140.599 283.872 140.673 283.817C141.275 277.388 141.294 272.53 142.095 266.367C142.716 257.744 141.423 249.065 139.978 240.559Z" fill="#E4C26D"/>
<path d="M135.916 245.272C135.565 237.84 134.069 231.833 133.569 224.549C133.046 232.63 134.44 240.632 134.213 248.709C134.166 254.372 132.971 258.762 132.397 264.897C132.374 265.421 132.339 266.139 132.374 266.495C132.421 266.12 132.471 265.741 132.542 265.343C134.12 258.734 136.213 252.154 135.916 245.272Z" fill="#E4C26D"/>
<path d="M211.215 322.993C210.867 330.375 211.789 337.709 212.109 345.04C213.109 337.756 212.062 330.277 211.215 322.993Z" fill="#E4C26D"/>
<path d="M221.19 396.449C220.389 386.876 218.37 373.738 216.824 363.041C216.925 374.359 217.574 385.732 218.671 396.999C219.647 404.631 221.237 415.125 220.542 423.706C222.733 414.832 222.166 405.455 221.19 396.449Z" fill="#E4C26D"/>
<path d="M226.825 396.249C226.447 408.997 226.201 423.803 227.294 435.449C227.974 430.809 227.868 426.052 228.395 421.362C228.794 412.961 227.673 404.611 226.825 396.249Z" fill="#E4C26D"/>
<path d="M212.984 414.355C212.859 402.814 212.36 391.238 210.418 379.846C210.743 392.062 209.719 404.431 211.571 416.55C212.238 420.412 213.383 424.181 213.637 427.845C214.133 423.334 213.309 418.842 212.984 414.355Z" fill="#E4C26D"/>
<path d="M99.1064 242.801C93.623 248.386 92.3499 257.013 92.7287 264.547C94.1972 257.24 95.443 249.284 99.0322 243C99.1064 242.875 99.4111 242.606 99.4111 242.582C99.3056 242.676 99.208 242.734 99.1064 242.801Z" fill="#E4C26D"/>
<path d="M84.7227 252.557C87.9643 245.051 89.8584 237.068 91.5535 229.116C88.015 236.494 86.1404 244.523 84.7227 252.557Z" fill="#E4C26D"/>
<path d="M105.539 210.143C107.609 202.836 109.108 195.302 111.151 188.045C107.359 194.736 105.89 202.535 105.539 210.143Z" fill="#E4C26D"/>
<path d="M41.8822 304.122C39.3162 299.603 35.6489 295.916 32.4542 291.85C29.2126 287.367 24.6275 279.634 22.3115 273.377C23.5808 280.606 26.4709 287.761 30.9349 293.592C34.5046 297.709 38.7656 301.149 42.2063 305.364C42.6086 305.813 43.1046 306.387 43.4015 306.711C42.8781 305.84 42.3782 304.961 41.8822 304.122Z" fill="#E4C26D"/>
<path d="M24.2998 292.994C27.2172 301.575 32.6577 309.152 39.0941 315.467C34.3293 307.863 29.1192 300.552 24.2998 292.994Z" fill="#E4C26D"/>
<path d="M111.452 349.695C107.808 347.301 103.149 347.504 99.1377 346.012C91.432 342.868 82.6485 336.311 74.7241 331.421C82.2735 338.174 90.0807 346.305 100.305 348.531C103.797 349.273 108.136 348.797 111.128 350.199C112.073 350.597 113.073 351.168 113.92 351.621C113.147 350.949 112.323 350.273 111.452 349.695Z" fill="#E4C26D"/>
<path d="M86.7417 326.605C90.2059 329.007 94.1154 330.827 98.0873 332.101C94.3732 329.722 90.7293 328.031 86.7417 326.605Z" fill="#E4C26D"/>
<path d="M125.567 362.56C123.145 361.096 120.7 359.6 118.029 358.655C115.467 357.725 112.1 357.577 110.276 357.307C104.82 356.354 99.4776 354.808 94.045 353.64C84.449 351.847 75.5483 347.801 66.1945 345.161C57.5398 343.142 48.7133 341.873 39.9102 340.599C49.3381 343.322 58.938 345.462 68.159 348.75C76.966 352.191 85.7418 355.761 95.1424 357.159C100.434 358.022 105.691 359.252 111.026 359.471C116.018 359.221 120.278 360.397 124.664 362.47C125.438 362.81 126.613 363.267 127.238 363.369C126.656 363.138 126.109 362.869 125.567 362.56Z" fill="#E4C26D"/>
<path d="M128.976 373.562C111.327 362.111 89.4089 362.638 69.1353 362.618C81.6838 364.513 92.8459 365.18 104.914 367.551C112.721 368.25 120.278 370.203 128.132 373.538C128.757 373.761 130.027 374.21 130.304 374.136C129.827 374.011 129.406 373.78 128.976 373.562Z" fill="#E4C26D"/>
<path d="M101.477 412.813C93.553 411.563 85.4919 412.583 77.5168 412.032C67.1124 411.118 55.3021 407.646 43.9058 405.455C56.8683 410.188 70.2604 416.297 84.3984 414.676C90.6356 414.129 94.9981 413.231 101.653 413.079C102.098 413.059 102.571 413.059 103.024 413.032C102.501 412.961 101.973 412.879 101.477 412.813Z" fill="#E4C26D"/>
<path d="M137.533 427.498C134.292 427.548 128.406 427.748 126.484 427.396C114.045 424.432 100.95 423.205 88.3389 425.873C97.9348 425.576 106.293 426.72 114.49 427.994C119.079 428.618 123.59 430.013 128.261 429.939C131.152 429.911 134.541 429.239 136.682 428.966C139.177 428.548 143.618 428.298 145.61 427.369C142.97 427.798 140.224 427.451 137.533 427.498Z" fill="#E4C26D"/>
<path d="M171.589 426.673C180.244 431.512 189.324 436.144 198.846 438.839C190.195 433.98 181.22 429.391 171.589 426.673Z" fill="#E4C26D"/>
<path d="M202.115 446.772C200.069 446.541 198.022 447.119 195.98 447.119C187.177 447.221 178.401 446.92 169.605 447.1C178.748 448.642 188.106 450.361 197.401 449.388C202.935 448.045 208.001 449.013 214.008 450.185C210.993 448.763 206.029 447.143 202.115 446.772Z" fill="#E4C26D"/>
<path d="M128.355 461.081C141.197 460.959 156.089 461.28 167.083 454.847C154.714 458.562 141.373 457.941 128.355 461.081Z" fill="#E4C26D"/>
<path d="M238.249 475.016C230.962 475.247 216.253 472.029 205.384 471.829C216.253 474.7 227.548 477.395 238.816 475.368C239.343 475.192 238.171 474.973 238.249 475.016Z" fill="#E4C26D"/>
<path d="M229.189 476.642C218.425 476.744 207.724 479.462 196.929 478.263C207.349 481.657 220.096 479.888 228.767 478.712C233.387 478.29 238.218 478.54 242.585 476.744C238.171 477.615 233.656 476.744 229.189 476.642Z" fill="#E4C26D"/>
<path d="M233.254 469.134C225.927 465.697 218.401 462.604 211.543 458.261C221.119 467.115 234.8 473.946 247.415 474.325C241.787 473.001 238.269 471.45 233.254 469.134Z" fill="#E4C26D"/>
<path d="M263.003 467.569C261.386 463.776 259.988 461.581 258.886 458.07C254.946 446.346 248.841 435.52 242.233 425.123C246.349 435.176 250.138 444.151 255.031 454.177C257.125 458.988 259.64 463.523 262.753 467.737C263.049 468.194 263.428 468.939 263.577 469.135C263.409 468.615 263.198 468.088 263.003 467.569Z" fill="#E4C26D"/>
</svg>
