<svg width="112" height="32" viewBox="0 0 112 32" fill="none" xmlns="http://www.w3.org/2000/svg">
<path d="M37.143 9.20117H37.1055V9.20653C37.1162 9.20653 37.1269 9.20653 37.143 9.20117Z" fill="#168F8C"/>
<path d="M37.3945 8.8418V31.8338H42.7716V14.6005C42.7716 13.3136 42.0888 9.42625 37.3945 8.8418Z" fill="#0CA49D"/>
<path d="M8.80168 27.8339C9.48447 27.8339 10.0446 27.7481 10.4767 27.5711C10.9087 27.3942 11.2501 27.169 11.4955 26.8955C11.7409 26.6167 11.9063 26.3057 12.0023 25.9572C12.093 25.6087 12.141 25.2548 12.141 24.8955C12.141 24.4827 12.0876 24.118 11.9809 23.7856C11.8743 23.4585 11.6876 23.1797 11.4315 22.9545C11.1701 22.7293 10.8287 22.5524 10.3966 22.429C9.9699 22.3057 9.4258 22.2467 8.775 22.2467H5.15832V27.8339H8.80168ZM5.15832 13.228V18.7668H7.85216C8.42294 18.7668 8.94037 18.7239 9.39912 18.6435C9.85788 18.5631 10.2473 18.4183 10.5727 18.2146C10.8927 18.0108 11.1381 17.7266 11.3088 17.3674C11.4795 17.0081 11.5595 16.5577 11.5595 16.0108C11.5595 15.4746 11.4955 15.0349 11.3622 14.681C11.2288 14.3272 11.0261 14.043 10.7487 13.8285C10.4713 13.614 10.1246 13.4585 9.69785 13.3674C9.27643 13.2762 8.76967 13.228 8.18823 13.228H5.15298H5.15832ZM8.19356 9.33521C9.73519 9.33521 11.0474 9.47998 12.1303 9.76416C13.2132 10.0537 14.0987 10.4558 14.7815 10.9813C15.4643 11.5068 15.9657 12.1395 16.2751 12.8902C16.5845 13.6408 16.7445 14.4773 16.7445 15.3995C16.7445 15.9036 16.6752 16.3861 16.5311 16.8526C16.3871 17.3191 16.1631 17.7534 15.859 18.1609C15.555 18.5684 15.1602 18.9384 14.6801 19.2762C14.2 19.614 13.6239 19.9089 12.9518 20.1556C14.4241 20.5148 15.5123 21.0939 16.2164 21.8928C16.9206 22.6918 17.2726 23.732 17.2726 25.0028C17.2726 25.9572 17.0913 26.8473 16.7232 27.6676C16.3551 28.488 15.8163 29.2065 15.1069 29.8124C14.3974 30.4237 13.5226 30.9009 12.4824 31.244C11.4422 31.5872 10.2526 31.7588 8.9137 31.7588H0V9.33521H8.20956H8.19356Z" fill="#0CA49D"/>
<path d="M32.8231 13.8876C32.6684 14.1342 32.5083 14.3165 32.343 14.4398C32.1723 14.5632 31.9589 14.6222 31.6922 14.6222C31.4575 14.6222 31.2068 14.5471 30.9347 14.397C30.6627 14.2468 30.3586 14.0806 30.0172 13.8983C29.6758 13.716 29.2864 13.5444 28.8436 13.3996C28.4062 13.2495 27.9048 13.1744 27.3447 13.1744C26.3738 13.1744 25.6537 13.3835 25.1789 13.7964C24.7042 14.2093 24.4641 14.7723 24.4641 15.4801C24.4641 15.9305 24.6082 16.3058 24.8909 16.6061C25.1789 16.9063 25.5523 17.1583 26.0164 17.3782C26.4805 17.5927 27.014 17.7911 27.6114 17.9734C28.2089 18.1557 28.817 18.3541 29.4411 18.5739C30.0652 18.7937 30.6733 19.0511 31.2708 19.3514C31.8682 19.6516 32.4017 20.027 32.8657 20.4881C33.3298 20.9492 33.7032 21.5122 33.9913 22.1718C34.2793 22.8313 34.418 23.6302 34.418 24.5632C34.418 25.598 34.242 26.5685 33.8846 27.4693C33.5272 28.3701 33.0098 29.1583 32.327 29.8339C31.6495 30.5042 30.812 31.035 29.8145 31.4211C28.817 31.8071 27.6861 32.0002 26.4218 32.0002C25.7284 32.0002 25.0189 31.9305 24.2988 31.7857C23.5786 31.6409 22.8798 31.4372 22.2077 31.1798C21.5356 30.9171 20.9008 30.6061 20.3087 30.2468C19.7166 29.8876 19.1991 29.4854 18.7617 29.0457L20.2927 26.6168C20.4154 26.4398 20.5754 26.2951 20.7728 26.1771C20.9701 26.0592 21.1888 26.0002 21.4236 26.0002C21.7276 26.0002 22.037 26.0967 22.3517 26.2951C22.6611 26.4881 23.0132 26.7079 23.4079 26.9439C23.8027 27.1798 24.2508 27.3943 24.7629 27.5927C25.275 27.7857 25.8777 27.8876 26.5712 27.8876C27.5101 27.8876 28.2409 27.6785 28.7636 27.2656C29.2864 26.8474 29.5424 26.1932 29.5424 25.287C29.5424 24.7616 29.3984 24.338 29.1157 24.0109C28.8276 23.6838 28.4542 23.4104 27.9901 23.1959C27.5261 22.9814 26.998 22.7884 26.4058 22.6275C25.8137 22.4613 25.2056 22.279 24.5815 22.0806C23.9574 21.8822 23.3493 21.6356 22.7571 21.3407C22.165 21.0457 21.6369 20.665 21.1728 20.1878C20.7088 19.7106 20.33 19.1155 20.0473 18.4023C19.7592 17.6892 19.6205 16.8098 19.6205 15.7642C19.6205 14.9224 19.7912 14.102 20.1273 13.3031C20.4634 12.5042 20.9595 11.7911 21.6156 11.1637C22.2717 10.5364 23.0719 10.0377 24.0214 9.66237C24.9709 9.28703 26.0591 9.09937 27.286 9.09937C27.9688 9.09937 28.6356 9.15298 29.2864 9.26022C29.9372 9.36746 30.5506 9.52832 31.1321 9.73743C31.7135 9.94655 32.2576 10.1986 32.7644 10.4935C33.2712 10.7884 33.7192 11.1155 34.1193 11.4854L32.8337 13.9037L32.8231 13.8876Z" fill="#0CA49D"/>
<path d="M43.3617 0.557641C43.351 0.369973 43.3297 0.182306 43.303 0C44.5086 1.24933 46.2262 1.97855 48.0879 1.86059C48.9788 1.80161 49.8109 1.55496 50.5524 1.16354C49.9763 2.17158 49.6776 3.35657 49.7576 4.6059C49.8536 6.15013 50.5151 7.52279 51.5179 8.54156C51.0058 8.43968 50.4671 8.39678 49.9176 8.43432C47.7412 8.57373 45.9009 9.83914 44.93 11.63C44.5459 8.98123 42.5029 6.92225 39.9424 6.46649C42.1028 5.40483 43.5271 3.10992 43.367 0.552279L43.3617 0.557641Z" fill="#F9AD3C"/>
<path d="M52.591 22.6594C52.8364 22.6594 53.0498 22.6326 53.2258 22.5736C53.4018 22.5146 53.5512 22.4395 53.6632 22.3377C53.7806 22.2358 53.8659 22.1125 53.9193 21.9677C53.9726 21.8229 53.9993 21.6674 53.9993 21.4958C53.9993 21.1634 53.8819 20.9007 53.6472 20.713C53.4125 20.52 53.0604 20.4235 52.591 20.4235H51.2094V22.6594H52.591ZM51.2094 17.6138V19.8015H52.351C52.5963 19.8015 52.8044 19.7747 52.9858 19.721C53.1671 19.6674 53.3165 19.5924 53.4338 19.4958C53.5512 19.3993 53.6419 19.2867 53.6952 19.1527C53.7539 19.0133 53.7806 18.8685 53.7806 18.7023C53.7806 18.3216 53.6686 18.0481 53.4392 17.8712C53.2151 17.6942 52.8631 17.6084 52.3883 17.6084H51.2094V17.6138ZM52.3883 16.9275C52.783 16.9275 53.1191 16.965 53.4018 17.0454C53.6846 17.1205 53.9193 17.2331 54.1006 17.3779C54.2873 17.5227 54.4207 17.6996 54.506 17.9087C54.5914 18.1125 54.6341 18.3484 54.6341 18.6058C54.6341 18.7666 54.6074 18.9168 54.5594 19.0615C54.5114 19.2063 54.4367 19.3403 54.3407 19.4637C54.2447 19.587 54.1166 19.705 53.9673 19.8015C53.8179 19.898 53.6419 19.9784 53.4392 20.0428C53.9086 20.1339 54.2607 20.3001 54.4954 20.5468C54.7354 20.7934 54.8528 21.1151 54.8528 21.5119C54.8528 21.7854 54.8048 22.032 54.7034 22.2572C54.6074 22.4824 54.458 22.6755 54.266 22.8363C54.074 22.9972 53.8393 23.1205 53.5619 23.2117C53.2845 23.2975 52.9644 23.3403 52.607 23.3403H50.3506V16.9221H52.3883V16.9275Z" fill="#0CA49D"/>
<path d="M59.4151 20.9653L58.4122 18.354C58.3802 18.2789 58.3535 18.1878 58.3162 18.0859C58.2842 17.984 58.2522 17.8714 58.2202 17.7535C58.1562 17.9948 58.0922 18.1985 58.0281 18.3594L57.0253 20.9653H59.4097H59.4151ZM61.2128 23.346H60.546C60.4659 23.346 60.4073 23.3245 60.3593 23.287C60.3112 23.2495 60.2739 23.2012 60.2526 23.1368L59.6551 21.5873H56.7906L56.1931 23.1368C56.1771 23.1905 56.1398 23.2387 56.0918 23.2816C56.0438 23.3245 55.9798 23.346 55.9051 23.346H55.2383L57.7934 16.9277H58.6683L61.2234 23.346H61.2128Z" fill="#0CA49D"/>
<path d="M67.2237 16.9331V23.3513H66.7916C66.7222 23.3513 66.6636 23.3406 66.6156 23.3138C66.5729 23.2923 66.5249 23.2494 66.4822 23.1905L62.7908 18.354C62.7962 18.4291 62.8015 18.5041 62.8068 18.5738C62.8122 18.6436 62.8122 18.7133 62.8122 18.7776V23.3513H62.0547V16.9331H62.5028C62.5401 16.9331 62.5721 16.9385 62.5988 16.9438C62.6255 16.9492 62.6468 16.9545 62.6681 16.9653C62.6895 16.976 62.7108 16.9867 62.7321 17.0082C62.7535 17.0242 62.7748 17.0511 62.8015 17.0779L66.4929 21.909C66.4875 21.8285 66.4822 21.7588 66.4769 21.6838C66.4715 21.6087 66.4715 21.539 66.4715 21.4747V16.9277H67.229L67.2237 16.9331Z" fill="#0CA49D"/>
<path d="M69.7206 19.7427H70.046C70.158 19.7427 70.2487 19.7267 70.3181 19.6999C70.3874 19.6677 70.4514 19.6194 70.5048 19.5497L72.6278 17.1315C72.6865 17.0511 72.7505 16.9974 72.8145 16.9706C72.8785 16.9385 72.9586 16.9277 73.0546 16.9277H73.7854L71.3529 19.6891C71.2942 19.7588 71.2356 19.8232 71.1769 19.8661C71.1235 19.909 71.0649 19.9465 71.0009 19.9787C71.0809 20.0055 71.1555 20.043 71.2196 20.102C71.2836 20.1503 71.3476 20.22 71.4116 20.3058L73.9507 23.346H73.2039C73.1453 23.346 73.0973 23.3406 73.0546 23.3352C73.0172 23.3245 72.9799 23.3138 72.9532 23.2977C72.9212 23.2816 72.8945 23.2602 72.8732 23.2387C72.8519 23.2173 72.8305 23.1905 72.8092 23.1583L70.6061 20.6114C70.5474 20.5363 70.4834 20.4827 70.4141 20.4559C70.3447 20.4237 70.2434 20.4076 70.1047 20.4076H69.7153V23.346H68.8564V16.9277H69.7153V19.7427H69.7206Z" fill="#0CA49D"/>
<path d="M80.3035 17.9357C80.2768 17.9786 80.2448 18.0161 80.2128 18.0375C80.1808 18.059 80.1434 18.0697 80.1008 18.0697C80.0528 18.0697 79.9887 18.0429 79.9247 17.9946C79.8554 17.9464 79.77 17.8874 79.6687 17.8284C79.5673 17.7641 79.4446 17.7105 79.3006 17.6568C79.1566 17.6032 78.9859 17.5818 78.7778 17.5818C78.5858 17.5818 78.4151 17.6086 78.2657 17.6622C78.1217 17.7105 77.999 17.7855 77.8977 17.8713C77.8017 17.9625 77.727 18.0644 77.6736 18.1877C77.6256 18.3056 77.5989 18.4343 77.5989 18.5791C77.5989 18.756 77.6416 18.9062 77.727 19.0295C77.8177 19.1475 77.9297 19.244 78.0737 19.3298C78.2177 19.4156 78.3831 19.4853 78.5645 19.5496C78.7512 19.6086 78.9379 19.6729 79.1246 19.7373C79.3166 19.8016 79.5033 19.8767 79.6847 19.9625C79.8714 20.0429 80.0314 20.1448 80.1754 20.2735C80.3195 20.3968 80.4368 20.5523 80.5222 20.7346C80.6129 20.9169 80.6555 21.1421 80.6555 21.4048C80.6555 21.6837 80.6075 21.9518 80.5115 22.1984C80.4155 22.445 80.2768 22.6542 80.0901 22.8365C79.9087 23.0188 79.6847 23.1635 79.418 23.2654C79.1512 23.3673 78.8525 23.4209 78.5111 23.4209C78.095 23.4209 77.7163 23.3459 77.3802 23.1957C77.0442 23.0456 76.7508 22.8365 76.5107 22.5845L76.7615 22.1716C76.7828 22.1394 76.8148 22.1126 76.8468 22.0912C76.8841 22.0697 76.9215 22.0536 76.9642 22.0536C77.0015 22.0536 77.0442 22.0697 77.0922 22.1019C77.1402 22.1341 77.1989 22.1716 77.2629 22.2198C77.3269 22.2681 77.3962 22.3217 77.4763 22.3753C77.5563 22.4343 77.647 22.4826 77.7483 22.5308C77.8497 22.5791 77.967 22.6166 78.1004 22.6542C78.2337 22.6863 78.3778 22.6971 78.5431 22.6971C78.7458 22.6971 78.9325 22.6703 79.0926 22.6113C79.2526 22.5523 79.386 22.4772 79.498 22.3753C79.61 22.2735 79.6953 22.1448 79.754 22.0054C79.8127 21.8606 79.8447 21.6997 79.8447 21.5282C79.8447 21.3351 79.802 21.1743 79.7114 21.0509C79.626 20.9276 79.5086 20.8204 79.37 20.74C79.2259 20.6542 79.0659 20.5845 78.8792 20.5308C78.6925 20.4719 78.5058 20.4129 78.3191 20.3539C78.1271 20.2896 77.9403 20.2198 77.759 20.1394C77.5723 20.059 77.4122 19.9518 77.2682 19.8284C77.1242 19.6997 77.0122 19.5389 76.9215 19.3512C76.8361 19.1582 76.7935 18.9169 76.7935 18.6327C76.7935 18.4075 76.8361 18.1877 76.9215 17.9732C77.0122 17.7587 77.1402 17.5711 77.3056 17.4102C77.4763 17.244 77.679 17.1153 77.9243 17.0134C78.1697 16.9169 78.4524 16.8633 78.7725 16.8633C79.1299 16.8633 79.4553 16.9223 79.7434 17.0349C80.0367 17.1475 80.2981 17.3137 80.5168 17.5282L80.3088 17.941L80.3035 17.9357Z" fill="#0CA49D"/>
<path d="M84.1444 20.7935V23.3511H83.2803V20.7935L80.9385 16.9329H81.696C81.7706 16.9329 81.8346 16.9543 81.8773 16.9918C81.92 17.0294 81.9627 17.0776 81.9947 17.1366L83.4563 19.6299C83.5096 19.7372 83.5576 19.8337 83.6057 19.9248C83.6483 20.016 83.691 20.1071 83.723 20.1983C83.755 20.1071 83.7924 20.016 83.835 19.9248C83.8777 19.8337 83.9204 19.7318 83.9737 19.6299L85.43 17.1366C85.4567 17.0884 85.494 17.0401 85.542 16.9972C85.59 16.9543 85.6487 16.9329 85.7234 16.9329H86.4862L84.1444 20.7935Z" fill="#0CA49D"/>
<path d="M90.0703 20.9653L89.0675 18.354C89.0355 18.2789 89.0088 18.1878 88.9715 18.0859C88.9395 17.984 88.9075 17.8714 88.8755 17.7535C88.8114 17.9948 88.7474 18.1985 88.6834 18.3594L87.6806 20.9653H90.065H90.0703ZM91.868 23.346H91.2012C91.1212 23.346 91.0625 23.3245 91.0145 23.287C90.9665 23.2495 90.9292 23.2012 90.9078 23.1368L90.3104 21.5873H87.4459L86.8484 23.1368C86.8324 23.1905 86.7951 23.2387 86.7471 23.2816C86.699 23.3245 86.635 23.346 86.5603 23.346H85.8936L88.4487 16.9277H89.3235L91.8787 23.346H91.868Z" fill="#0CA49D"/>
<path d="M94.4819 20.0377C94.7327 20.0377 94.9514 20.0055 95.1434 19.9465C95.3354 19.8822 95.4955 19.7964 95.6235 19.6891C95.7569 19.5765 95.8529 19.4425 95.9169 19.287C95.9809 19.1315 96.0129 18.9599 96.0129 18.7722C96.0129 18.3915 95.8902 18.102 95.6395 17.909C95.3888 17.7159 95.0154 17.6194 94.5139 17.6194H93.5698V20.043H94.4766L94.4819 20.0377ZM97.4318 23.346H96.6637C96.5037 23.346 96.3916 23.287 96.317 23.1637L94.658 20.8688C94.61 20.799 94.5513 20.7454 94.4926 20.7186C94.4339 20.6864 94.3486 20.6704 94.2259 20.6704H93.5698V23.346H92.7109V16.9277H94.5139C94.9194 16.9277 95.2661 16.9706 95.5595 17.0511C95.8529 17.1315 96.0982 17.2495 96.285 17.4049C96.477 17.5604 96.621 17.7481 96.7117 17.9679C96.8024 18.1878 96.8504 18.4291 96.8504 18.7025C96.8504 18.9277 96.8131 19.1422 96.7437 19.3406C96.6744 19.539 96.5677 19.7159 96.4343 19.8714C96.301 20.0269 96.1356 20.161 95.9382 20.2682C95.7462 20.3808 95.5275 20.4612 95.2768 20.5202C95.3888 20.5846 95.4795 20.6757 95.5595 20.7937L97.4212 23.3406L97.4318 23.346Z" fill="#0CA49D"/>
<path d="M99.1664 23.3511H98.2969V16.9329H99.1664V23.3511Z" fill="#0CA49D"/>
<path d="M104.185 20.9653L103.182 18.354C103.15 18.2789 103.123 18.1878 103.086 18.0859C103.054 17.984 103.022 17.8714 102.99 17.7535C102.926 17.9948 102.862 18.1985 102.798 18.3594L101.795 20.9653H104.179H104.185ZM105.982 23.346H105.315C105.241 23.346 105.177 23.3245 105.129 23.287C105.081 23.2495 105.043 23.2012 105.022 23.1368L104.425 21.5873H101.56L100.963 23.1368C100.947 23.1905 100.909 23.2387 100.861 23.2816C100.813 23.3245 100.749 23.346 100.675 23.346H100.008L102.563 16.9277H103.438L105.993 23.346H105.982Z" fill="#0CA49D"/>
<path d="M112 16.9329V23.3511H111.135V20.4288H107.689V23.3511H106.825V16.9329H107.689V19.7961H111.135V16.9329H112Z" fill="#0CA49D"/>
<path d="M51.2108 31.8125H50.3467V25.3943H51.2108V31.8125Z" fill="#0CA49D"/>
<path d="M58.0157 25.394V31.8123H57.5836C57.5142 31.8123 57.4556 31.8015 57.4075 31.7747C57.3649 31.7533 57.3169 31.7104 57.2742 31.6514L53.5828 26.8149C53.5882 26.89 53.5935 26.9651 53.5988 27.0348C53.6042 27.1045 53.6042 27.1742 53.6042 27.2385V31.8123H52.8467V25.394H53.2948C53.3321 25.394 53.3641 25.3994 53.3908 25.4048C53.4175 25.4101 53.4388 25.4155 53.4601 25.4262C53.4815 25.4369 53.5028 25.4477 53.5241 25.4691C53.5455 25.4852 53.5668 25.512 53.5935 25.5388L57.2849 30.3699C57.2795 30.2948 57.2742 30.2198 57.2689 30.1447C57.2635 30.0696 57.2635 29.9999 57.2635 29.9356V25.3887H58.021L58.0157 25.394Z" fill="#0CA49D"/>
<path d="M65.1865 28.6058C65.1865 29.0884 65.1118 29.5227 64.9571 29.9195C64.8077 30.3163 64.589 30.6487 64.317 30.9329C64.0396 31.2117 63.7089 31.4316 63.3194 31.5871C62.9354 31.7372 62.5033 31.8176 62.0339 31.8176H59.6494V25.3994H62.0339C62.5033 25.3994 62.93 25.4745 63.3194 25.63C63.7089 25.7801 64.0396 26 64.317 26.2841C64.5944 26.563 64.8077 26.9008 64.9571 27.2975C65.1065 27.6943 65.1865 28.1286 65.1865 28.6112V28.6058ZM64.301 28.6058C64.301 28.2091 64.2476 27.8605 64.1409 27.5495C64.0342 27.2386 63.8849 26.9758 63.6875 26.7613C63.4901 26.5469 63.2554 26.3806 62.9727 26.268C62.6953 26.1554 62.3806 26.0965 62.0392 26.0965H60.5189V31.1099H62.0392C62.3859 31.1099 62.6953 31.0509 62.9727 30.9383C63.2501 30.8257 63.4901 30.6595 63.6875 30.4504C63.8849 30.2359 64.0342 29.9731 64.1409 29.6621C64.2476 29.3512 64.301 28.9973 64.301 28.6058Z" fill="#0CA49D"/>
<path d="M72.3282 28.6057C72.3282 29.0883 72.2535 29.528 72.0988 29.9301C71.9494 30.3323 71.7361 30.6754 71.4587 30.965C71.1813 31.2545 70.8506 31.4797 70.4612 31.6406C70.0771 31.8014 69.645 31.8765 69.1756 31.8765C68.7062 31.8765 68.2794 31.7961 67.89 31.6406C67.5059 31.4797 67.1752 31.2545 66.8978 30.965C66.6204 30.6754 66.4071 30.3323 66.2577 29.9301C66.1083 29.528 66.0283 29.0829 66.0283 28.6057C66.0283 28.1231 66.103 27.6835 66.2577 27.2867C66.4071 26.8845 66.6204 26.536 66.8978 26.2465C67.1752 25.9516 67.5059 25.7264 67.89 25.5655C68.2741 25.4046 68.7062 25.3242 69.1756 25.3242C69.645 25.3242 70.0718 25.4046 70.4612 25.5655C70.8506 25.7264 71.1813 25.9516 71.4587 26.2465C71.7361 26.536 71.9494 26.8845 72.0988 27.2867C72.2482 27.6888 72.3282 28.1285 72.3282 28.6057ZM71.4427 28.6057C71.4427 28.2089 71.3893 27.8604 71.2827 27.5441C71.176 27.2331 71.0266 26.965 70.8292 26.7505C70.6319 26.5307 70.3972 26.3644 70.1144 26.2465C69.837 26.1285 69.5223 26.0695 69.1809 26.0695C68.8395 26.0695 68.5301 26.1285 68.2474 26.2465C67.97 26.3644 67.73 26.5307 67.5326 26.7505C67.3352 26.965 67.1859 27.2277 67.0792 27.5441C66.9725 27.8551 66.9192 28.2089 66.9192 28.6057C66.9192 28.9971 66.9725 29.351 67.0792 29.6674C67.1859 29.9784 67.3352 30.2411 67.5326 30.4609C67.73 30.6754 67.97 30.8416 68.2474 30.9596C68.5248 31.0722 68.8395 31.1312 69.1809 31.1312C69.5277 31.1312 69.837 31.0722 70.1144 30.9596C70.3918 30.8416 70.6319 30.6754 70.8292 30.4609C71.0266 30.2411 71.176 29.9784 71.2827 29.6674C71.3893 29.3564 71.4427 29.0025 71.4427 28.6057Z" fill="#0CA49D"/>
<path d="M78.7403 25.394V31.8123H78.3082C78.2388 31.8123 78.1802 31.8015 78.1322 31.7747C78.0895 31.7533 78.0415 31.7104 77.9988 31.6514L74.3074 26.8149C74.3128 26.89 74.3181 26.9651 74.3234 27.0348C74.3288 27.1045 74.3288 27.1742 74.3288 27.2385V31.8123H73.5713V25.394H74.0194C74.0567 25.394 74.0887 25.3994 74.1154 25.4048C74.1421 25.4101 74.1634 25.4155 74.1847 25.4262C74.2061 25.4369 74.2274 25.4477 74.2488 25.4691C74.2701 25.4852 74.2914 25.512 74.3181 25.5388L78.0095 30.3699C78.0041 30.2948 77.9988 30.2198 77.9935 30.1447C77.9881 30.0696 77.9881 29.9999 77.9881 29.9356V25.3887H78.7456L78.7403 25.394Z" fill="#0CA49D"/>
<path d="M84.3088 31.1047L84.3035 31.8125H80.3721V25.3943H84.3035V26.1021H81.2362V28.2307H83.722V28.9117H81.2362V31.1047H84.3088Z" fill="#0CA49D"/>
<path d="M88.781 26.3966C88.7543 26.4395 88.7223 26.477 88.6903 26.4985C88.6583 26.5199 88.621 26.5307 88.5783 26.5307C88.5303 26.5307 88.4663 26.5038 88.4023 26.4556C88.3329 26.4073 88.2476 26.3483 88.1462 26.2894C88.0449 26.225 87.9222 26.1714 87.7781 26.1178C87.6341 26.0695 87.4634 26.0427 87.2554 26.0427C87.0633 26.0427 86.8926 26.0695 86.7433 26.1231C86.5993 26.1714 86.4766 26.2465 86.3752 26.3323C86.2792 26.4234 86.2045 26.5253 86.1512 26.6486C86.1032 26.7666 86.0765 26.9006 86.0765 27.04C86.0765 27.217 86.1192 27.3671 86.2045 27.4904C86.2952 27.6084 86.4072 27.7049 86.5512 27.7907C86.6953 27.8765 86.8606 27.9462 87.042 28.0105C87.2287 28.0695 87.4154 28.1339 87.6021 28.1982C87.7941 28.2626 87.9809 28.3376 88.1622 28.4234C88.3489 28.5038 88.509 28.6057 88.653 28.7344C88.797 28.8577 88.9144 29.0132 88.9997 29.1955C89.0904 29.3778 89.1331 29.603 89.1331 29.8658C89.1331 30.1446 89.0851 30.4127 88.989 30.6593C88.893 30.906 88.7543 31.1151 88.5676 31.2974C88.3863 31.4797 88.1622 31.6245 87.8955 31.7264C87.6288 31.8282 87.3301 31.8819 86.9887 31.8819C86.5726 31.8819 86.1938 31.8068 85.8578 31.6567C85.5217 31.5065 85.2283 31.2974 84.9883 31.0454L85.239 30.6325C85.2603 30.6004 85.2923 30.5735 85.3243 30.5521C85.3617 30.5307 85.399 30.5146 85.4417 30.5146C85.479 30.5146 85.5217 30.5307 85.5697 30.5628C85.6231 30.595 85.6764 30.6325 85.7404 30.6808C85.8044 30.729 85.8738 30.7827 85.9538 30.8363C86.0338 30.8953 86.1245 30.9435 86.2259 30.9918C86.3272 31.04 86.4446 31.0776 86.5779 31.1151C86.7113 31.1473 86.8553 31.158 87.0207 31.158C87.2234 31.158 87.4101 31.1312 87.5701 31.0722C87.7301 31.0132 87.8635 30.9382 87.9755 30.8363C88.0875 30.729 88.1729 30.6057 88.2316 30.4663C88.2902 30.3215 88.3222 30.1607 88.3222 29.9891C88.3222 29.7961 88.2796 29.6352 88.1889 29.5119C88.1035 29.3886 87.9862 29.2813 87.8475 29.2009C87.7035 29.1151 87.5434 29.0454 87.3567 28.9918C87.17 28.9328 86.9833 28.8738 86.7966 28.8148C86.6046 28.7505 86.4179 28.6808 86.2365 28.6004C86.0498 28.5199 85.8898 28.4127 85.7458 28.2894C85.6017 28.1607 85.4897 27.9998 85.399 27.8122C85.3137 27.6191 85.271 27.3778 85.271 27.0937C85.271 26.8685 85.3137 26.6486 85.399 26.4341C85.4897 26.2197 85.6177 26.032 85.7831 25.8711C85.9538 25.7049 86.1565 25.5762 86.4019 25.4744C86.6473 25.3778 86.93 25.3242 87.25 25.3242C87.6074 25.3242 87.9328 25.3832 88.2209 25.4958C88.5143 25.6084 88.7757 25.7746 88.9944 25.9891L88.7863 26.402L88.781 26.3966Z" fill="#0CA49D"/>
<path d="M91.2167 31.8125H90.3525V25.3943H91.2167V31.8125Z" fill="#0CA49D"/>
<path d="M96.2422 29.4262L95.2394 26.8149C95.2074 26.7345 95.1807 26.6487 95.1433 26.5468C95.1113 26.445 95.0793 26.3324 95.0473 26.2144C94.9833 26.4557 94.9193 26.6594 94.8553 26.8203L93.8524 29.4262H96.2369H96.2422ZM98.0399 31.8069H97.3731C97.2931 31.8069 97.2344 31.7855 97.1864 31.7479C97.1384 31.7104 97.1011 31.6621 97.0797 31.5978L96.4823 30.0482H93.6177L93.0203 31.5978C93.0043 31.6514 92.9669 31.6997 92.9189 31.7426C92.8709 31.7855 92.8069 31.8069 92.7322 31.8069H92.0654L94.6206 25.3887H95.4954L98.0506 31.8069H98.0399Z" fill="#0CA49D"/>
</svg>
