<svg width="82" height="83" viewBox="0 0 82 83" fill="none" xmlns="http://www.w3.org/2000/svg">
<rect y="0.267334" width="82" height="82" rx="5.07508" fill="#805D43"/>
<path d="M18.0354 55.4614L52.1235 38.8843" stroke="white" stroke-width="1.89589"/>
<path d="M40.683 62.4658L29.009 50.0913" stroke="white" stroke-width="1.89589"/>
<path d="M23.8727 39.4963L15.4848 61.6489C15.25 62.2691 15.7082 62.9325 16.3713 62.9325H66.5758C67.2525 62.9325 67.7113 62.2438 67.4506 61.6194L58.2024 39.4668C58.0551 39.1139 57.7101 38.884 57.3276 38.884H24.7592C24.3652 38.884 24.0122 39.1278 23.8727 39.4963Z" stroke="white" stroke-width="1.89589"/>
<path d="M47.4531 62.6994L63.3298 53.8271" stroke="white" stroke-width="1.89589"/>
<path d="M40.9655 51.077C38.9096 48.0967 37.1622 45.6074 35.6772 43.492C33.0236 39.7119 31.2081 37.1256 29.9684 35.0644C29.0137 33.4768 28.4363 32.2561 28.0914 31.0913C27.7486 29.9337 27.6218 28.7858 27.6218 27.327C27.6218 19.5334 33.9397 13.2155 41.7333 13.2155C49.5269 13.2155 55.8448 19.5334 55.8448 27.327C55.8448 28.7858 55.718 29.9337 55.3752 31.0913C55.0303 32.2561 54.4529 33.4768 53.4982 35.0644C52.2585 37.1256 50.443 39.7119 47.7894 43.492C46.3044 45.6074 44.557 48.0966 42.5012 51.0769C42.1303 51.612 41.3364 51.612 40.9655 51.077ZM41.7333 34.5498C45.7223 34.5498 48.956 31.3161 48.956 27.327C48.956 23.338 45.7223 20.1043 41.7333 20.1043C37.7443 20.1043 34.5106 23.338 34.5106 27.327C34.5106 31.3161 37.7443 34.5498 41.7333 34.5498Z" fill="#805D43" stroke="white" stroke-width="1.89589"/>
</svg>
