<svg width="89" height="89" viewBox="0 0 89 89" fill="none" xmlns="http://www.w3.org/2000/svg">
<circle cx="44.0989" cy="44.2673" r="44" fill="#805D43"/>
<g clip-path="url(#clip0_2118_633)">
<path d="M21.4739 64.5173C21.4739 66.3841 22.9821 67.8923 24.8489 67.8923H41.7239V51.0173H21.4739V64.5173ZM48.4739 67.8923H65.3489C67.2157 67.8923 68.7239 66.3841 68.7239 64.5173V51.0173H48.4739V67.8923ZM68.7239 34.1423H64.2836C64.9375 32.8662 65.3489 31.4529 65.3489 29.9236C65.3489 24.8083 61.1829 20.6423 56.0676 20.6423C51.6801 20.6423 48.843 22.8888 45.2043 27.8458C41.5657 22.8888 38.7286 20.6423 34.3411 20.6423C29.2258 20.6423 25.0598 24.8083 25.0598 29.9236C25.0598 31.4529 25.4606 32.8662 26.125 34.1423H21.4739C19.6071 34.1423 18.0989 35.6505 18.0989 37.5173V45.9548C18.0989 46.883 18.8583 47.6423 19.7864 47.6423H70.4114C71.3395 47.6423 72.0989 46.883 72.0989 45.9548V37.5173C72.0989 35.6505 70.5907 34.1423 68.7239 34.1423ZM34.3305 34.1423C31.9997 34.1423 30.1118 32.2544 30.1118 29.9236C30.1118 27.5927 31.9997 25.7048 34.3305 25.7048C36.4293 25.7048 37.9797 26.0529 43.4114 34.1423H34.3305ZM56.0676 34.1423H46.9868C52.4079 26.074 53.9161 25.7048 56.0676 25.7048C58.3985 25.7048 60.2864 27.5927 60.2864 29.9236C60.2864 32.2544 58.3985 34.1423 56.0676 34.1423Z" fill="white"/>
</g>
<defs>
<clipPath id="clip0_2118_633">
<rect width="54" height="54" fill="white" transform="translate(18.0989 17.2673)"/>
</clipPath>
</defs>
</svg>
