<svg width="82" height="83" viewBox="0 0 82 83" fill="none" xmlns="http://www.w3.org/2000/svg">
<rect y="0.267334" width="82" height="82" rx="5" fill="#805D43"/>
<path d="M21.0703 49.3748V31.3593C26.6728 28.832 37.9067 23.7776 40.9204 23.7776C43.9342 23.7776 55.6511 28.832 60.7705 31.3593V49.3198C60.7705 49.9529 60.5109 50.5756 60.0511 51.0107C44.3573 65.8597 28.4392 57.6085 21.7251 50.9849C21.2957 50.5613 21.0703 49.9779 21.0703 49.3748Z" stroke="white" stroke-width="1.78111" stroke-linejoin="round"/>
<path d="M14.3216 30.9883C14.3026 29.9116 15.4006 29.1737 16.3903 29.5979L20.7715 31.4755V47.0383L15.2051 43.4804C14.7862 43.2127 14.5292 42.753 14.5205 42.256L14.3216 30.9883Z" stroke="white" stroke-width="1.78111"/>
<path d="M67.5182 30.9883C67.5372 29.9116 66.4393 29.1737 65.4495 29.5979L61.0684 31.4755V47.0383L66.6347 43.4804C67.0536 43.2127 67.3106 42.753 67.3194 42.256L67.5182 30.9883Z" stroke="white" stroke-width="1.78111"/>
<path d="M41.2158 35.6287V47.4795" stroke="white" stroke-width="1.78111" stroke-linecap="round"/>
<path d="M35.2903 41.5537H47.1411" stroke="white" stroke-width="1.78111" stroke-linecap="round"/>
</svg>
