<svg width="82" height="83" viewBox="0 0 82 83" fill="none" xmlns="http://www.w3.org/2000/svg">
<rect y="0.267334" width="82" height="82" rx="2.1238" fill="#805D43"/>
<path d="M16 60.7673H65.5405C63.2568 63.9295 58.6892 66.2133 55.1757 67.0917H26.3649C21.7838 67.0917 17.3468 62.8754 16 60.7673Z" stroke="white" stroke-width="2.10811" stroke-linejoin="round"/>
<path d="M16 54.0916H65.5405C63.2568 57.2537 58.6892 59.5375 55.1757 60.4159H26.3649C21.7838 60.4159 17.3468 56.1997 16 54.0916Z" stroke="white" stroke-width="2.10811" stroke-linejoin="round"/>
<path d="M18.3776 54.0917C16.2277 50.3074 15 45.9307 15 41.2673C15 26.9079 26.6406 15.2673 41 15.2673C55.3594 15.2673 67 26.9079 67 41.2673C67 45.9307 65.7723 50.3074 63.6224 54.0917" stroke="white" stroke-width="2.10811"/>
<path d="M26.0675 53.9695C23.1098 50.5028 21.3242 46.0058 21.3242 41.0917C21.3242 30.1281 30.212 21.2404 41.1756 21.2404C52.1392 21.2404 61.0269 30.1281 61.0269 41.0917C61.0269 46.0058 59.2414 50.5028 56.2837 53.9695" stroke="white" stroke-width="2.10811"/>
<path d="M55.5811 41.0917C55.7568 36.9926 53.8243 28.3025 44.6892 26.335" stroke="white" stroke-width="1.40541" stroke-linecap="round"/>
<circle cx="41.3514" cy="26.1593" r="1.05405" fill="white"/>
</svg>
