<svg width="82" height="83" viewBox="0 0 82 83" fill="none" xmlns="http://www.w3.org/2000/svg">
<rect y="0.267334" width="82" height="82" rx="5.07508" fill="#805D43"/>
<path d="M34.6806 37.9832V37.4072C34.6806 35.6599 34.0539 33.9706 32.9143 32.6461L29.7355 28.9517H21.4938L18.0226 32.5826C16.724 33.9409 15.9993 35.7478 15.9993 37.627V63.6174C15.9993 65.6332 17.6334 67.2673 19.6492 67.2673H31.0306C33.0465 67.2673 34.6806 65.6332 34.6806 63.6174V62.0673" stroke="white" stroke-width="1.65116" stroke-linecap="round" stroke-linejoin="round"/>
<path d="M22.0458 25.3638C22.0458 24.4759 22.7656 23.7561 23.6535 23.7561H27.0287C27.9166 23.7561 28.6364 24.4759 28.6364 25.3638V28.6734H22.0458V25.3638Z" fill="#805D43" stroke="white" stroke-width="1.65116"/>
<rect x="23.693" y="19.9247" width="3.29389" height="3.27513" fill="#805D43" stroke="white" stroke-width="1.65116"/>
<path d="M35.6417 15.2673H18.8639C18.1919 15.2673 17.6472 15.812 17.6472 16.484V18.1559C17.6472 18.8279 18.1919 19.3726 18.8639 19.3726H35.4455C35.7815 19.3726 36.0538 19.6449 36.0538 19.9809V22.3221C36.0538 22.6581 36.3262 22.9305 36.6621 22.9305H39.2916C39.6276 22.9305 39.9 22.6581 39.9 22.3221V19.5256C39.9 17.1738 37.9935 15.2673 35.6417 15.2673Z" fill="#805D43" stroke="white" stroke-width="1.65116" stroke-linecap="round" stroke-linejoin="round"/>
<path d="M38.51 33.6353C36.7406 31.1559 37.1281 27.7937 39.2925 25.7675L41.496 28.8551C43.0277 31.0015 42.5251 33.9769 40.3732 35.501C40.1781 35.6391 39.9074 35.5934 39.7685 35.3988L38.51 33.6353Z" fill="#805D43" stroke="white" stroke-width="1.65116"/>
<path d="M65.9987 56.5936L58.3846 48.6044C56.9328 45.5182 52.6138 41.0432 46.952 47.8329C44.2434 47.8329 42.124 47.8329 40.546 47.8329C38.6711 47.8329 37.1526 49.3528 37.1526 51.2277V51.2277C37.1526 52.4777 38.1659 53.491 39.4158 53.491H47.7686" stroke="white" stroke-width="1.65116" stroke-linecap="round" stroke-linejoin="round"/>
<path d="M59.9562 67.2675L54.2529 61.5859C53.6828 61.0179 52.9109 60.6991 52.1063 60.6991H38.6342C36.9858 60.6991 35.408 60.0301 34.2619 58.8453L23.2236 47.4339C22.2885 46.4672 22.3676 44.9106 23.396 44.0437V44.0437C24.3345 43.2527 25.7264 43.3284 26.5734 44.2167L34.6068 52.6408C35.1808 53.2427 35.9763 53.5833 36.808 53.5833H41.8243" stroke="white" stroke-width="1.65116" stroke-linecap="round" stroke-linejoin="round"/>
<path d="M27.2634 44.2778L27.864 43.6795C29.0509 42.4971 30.9705 42.4971 32.1573 43.6795L37.703 49.2041" stroke="white" stroke-width="1.65116" stroke-linecap="round" stroke-linejoin="round"/>
<path d="M31.6589 43.1828L32.5716 42.2736C33.7437 41.1059 35.6343 41.0893 36.8268 42.2362L42.6479 47.8354" stroke="white" stroke-width="1.65116" stroke-linecap="round" stroke-linejoin="round"/>
</svg>
