<svg width="82" height="83" viewBox="0 0 82 83" fill="none" xmlns="http://www.w3.org/2000/svg">
<rect y="0.267334" width="82" height="82" rx="2.19704" fill="#805D43"/>
<g clip-path="url(#clip0_2112_18887)">
<path d="M58.697 40.6155C58.6871 40.709 58.6576 40.7975 58.6133 40.8861C58.5641 41.0927 58.5395 41.3288 58.5395 41.5896C58.5395 41.6141 58.5445 41.6387 58.5445 41.6633V58.7529C58.7609 59.2891 59.0266 59.6925 59.3463 59.9434C59.6415 60.1795 60.0055 60.2926 60.4482 60.273C60.4777 60.268 60.5122 60.268 60.5417 60.268H65.4413C65.4511 60.268 65.4659 60.268 65.4806 60.268C66.2431 60.3074 66.7941 60.1008 67.163 59.6777C67.5812 59.1956 67.8222 58.4233 67.9058 57.3853V57.3706L69.3964 41.9536C69.3964 41.929 69.3964 41.9044 69.4013 41.8798C69.5046 41.0042 69.3128 40.4335 68.8799 40.099C68.383 39.7153 67.5615 39.5579 66.494 39.5579C66.4694 39.5579 66.4448 39.5628 66.4202 39.5628H60.9008V39.5579C60.0596 39.5579 59.4398 39.7251 59.061 40.0695C58.9036 40.2122 58.7855 40.3942 58.697 40.6155ZM53.2956 59.5203C53.1775 59.4072 53.0939 59.2596 53.0595 59.0973L45.1886 44.9297C44.313 43.4687 43.5259 43.4343 42.7634 43.8869C42.2223 44.2066 41.6517 44.728 41.081 45.2495C40.7367 45.5643 40.3923 45.8792 40.1021 46.1202L38.7493 47.2369L38.7395 47.2418C37.7556 48.0338 36.6438 48.4618 35.5911 48.5454C34.8975 48.6044 34.2285 48.5159 33.6185 48.2847C32.9937 48.0486 32.4428 47.6698 32.0296 47.1533C31.5819 46.5974 31.2867 45.889 31.2179 45.0527H31.2228C31.208 44.851 31.2671 44.6493 31.4048 44.4821L35.7043 39.366C34.7991 39.3513 33.9973 39.4743 33.2446 39.7104C32.0984 40.0695 31.026 40.6893 29.8552 41.4912C29.7224 41.5945 29.5502 41.6584 29.3682 41.6584H24.4145V51.0198L24.4342 57.0066H27.3169C27.5924 57.0066 27.858 57.1492 28.0007 57.405L31.5819 63.6476C32.1033 64.5577 32.5658 65.3447 33.1413 65.8613C33.6824 66.3483 34.3908 66.6483 35.4829 66.6779C35.8912 66.6877 36.2847 66.6188 36.6537 66.4663C36.88 66.3729 37.1063 66.245 37.3276 66.0826L35.0057 61.7438C34.7991 61.3601 34.9467 60.883 35.3304 60.6813C35.7141 60.4747 36.1913 60.6222 36.393 61.0059L38.9165 65.7235C39.8561 66.2007 40.7072 66.3483 41.4697 66.1859C42.1682 66.0334 42.8274 65.6153 43.4472 64.9364L39.8119 59.2301C39.5806 58.8661 39.684 58.379 40.0529 58.1429C40.4169 57.9117 40.9039 58.015 41.1401 58.384L44.9673 64.3953C45.6412 64.6708 46.2856 64.7298 46.9005 64.5626C47.4859 64.4002 48.0762 64.0264 48.6616 63.4164L45.1935 56.8836C44.9869 56.4999 45.1345 56.0178 45.5231 55.8161C45.9068 55.6095 46.3889 55.7571 46.5906 56.1457L50.1817 62.9048C50.649 63.1753 51.1901 63.2442 51.7067 63.1606C52.1592 63.0868 52.5971 62.89 52.9562 62.6096C53.3005 62.3341 53.5711 61.98 53.699 61.5766C53.8416 61.1388 53.8269 60.6272 53.5957 60.0713L53.2956 59.5203ZM54.3385 58.1528H56.9654V41.6633C56.9654 41.6437 56.9654 41.6191 56.9703 41.5994C56.9703 41.3436 56.9851 41.0976 57.0195 40.8664L54.3434 39.0906C54.3286 39.0807 54.3139 39.0709 54.2991 39.061C53.9499 38.8298 53.5317 38.5347 53.1136 38.2395C51.5935 37.177 50.0341 36.08 48.3468 35.6372C47.4367 35.3962 46.384 35.2388 45.3116 35.2191C44.372 35.1994 43.4177 35.288 42.5175 35.5241C41.9813 35.6618 41.4598 35.8537 40.9777 36.1095C40.5497 36.3358 40.1513 36.6112 39.7971 36.9458L38.0065 39.0758C37.9524 39.184 37.8737 39.2726 37.7802 39.3464L32.8412 45.2298C32.915 45.6037 33.0626 45.9185 33.2643 46.1743C33.5004 46.4646 33.8153 46.681 34.1744 46.8187C34.5581 46.9614 35.0008 47.0155 35.4632 46.9762C36.2159 46.9122 37.0226 46.6023 37.7458 46.0218L39.0986 44.9051C39.4429 44.6198 39.7331 44.3542 40.0234 44.0935C40.658 43.513 41.2876 42.9374 41.9567 42.539C43.4964 41.6191 45.0312 41.5896 46.5463 44.1328L46.5611 44.1574L54.3385 58.1528ZM57.2605 59.7318H55.16C55.4453 60.5632 55.4306 61.3503 55.2043 62.0488C54.9731 62.767 54.5205 63.377 53.94 63.8394C53.3743 64.2871 52.6856 64.597 51.9625 64.7151C51.259 64.8331 50.5211 64.7692 49.8324 64.4839C49.0355 65.3152 48.1943 65.8416 47.3187 66.0826C46.4381 66.3237 45.5477 66.2745 44.6475 65.9597C43.7915 66.9091 42.847 67.5043 41.8042 67.7257C40.7416 67.9569 39.6151 67.7945 38.4197 67.2337C38.0458 67.524 37.6572 67.7552 37.2489 67.9224C36.6734 68.1635 36.0683 68.2717 35.4337 68.252C33.9186 68.2078 32.9003 67.7601 32.0886 67.0321C31.3113 66.3384 30.7948 65.453 30.2045 64.4298L26.8545 58.5857H24.2571C24.1046 59.3383 23.8439 59.9778 23.4503 60.4894C22.7862 61.3454 21.8171 61.7979 20.4693 61.7684C20.4545 61.7684 20.4397 61.7684 20.425 61.7684H15.973C14.8514 61.9504 13.8922 61.675 13.1395 60.8042C12.4705 60.0319 12.0179 58.7775 11.8212 56.9377C11.8163 56.918 11.8163 56.8934 11.8113 56.8688L10.6405 42.357C10.4093 40.7926 10.6651 39.6858 11.2948 38.9282C11.9294 38.1657 12.8887 37.8214 14.0644 37.7673C14.0988 37.7624 14.1283 37.7624 14.1627 37.7624H20.1593V37.7673C21.2908 37.7525 22.2648 37.9444 23.0027 38.4215C23.5979 38.8052 24.0259 39.3464 24.2423 40.0843H29.1272C30.357 39.2578 31.5032 38.6085 32.7724 38.21C34.0219 37.8214 35.355 37.6836 36.9538 37.8755L38.6017 35.9275C38.6312 35.8881 38.6607 35.8537 38.7001 35.8192C39.1674 35.3765 39.6889 35.0125 40.2497 34.7173C40.84 34.4074 41.4697 34.1713 42.1288 33.9991C43.1717 33.7285 44.2687 33.6252 45.3411 33.6449C46.5562 33.6695 47.7368 33.8466 48.7551 34.1122C50.7031 34.6288 52.3855 35.8045 54.0187 36.9507C54.3828 37.2065 54.7468 37.4623 55.1797 37.7476C55.1944 37.7574 55.2092 37.7673 55.2239 37.7771L57.595 39.3611C57.7131 39.1939 57.8508 39.0414 58.0083 38.9036C58.6871 38.2936 59.6562 37.9936 60.9057 37.9936V37.9886H66.4251C66.4448 37.9886 66.4694 37.9886 66.4891 37.9936C67.9009 37.9886 69.052 38.2444 69.849 38.8594C70.7344 39.5431 71.1526 40.5811 70.9755 42.0716C70.9755 42.0864 70.9706 42.0962 70.9706 42.111L69.48 57.5133C69.3718 58.8906 69.0028 59.968 68.3535 60.7157C67.6599 61.5126 66.7006 61.9062 65.4413 61.8521H60.5417H60.5368C59.6907 61.8963 58.9675 61.6651 58.3624 61.183C57.9197 60.8239 57.5508 60.3418 57.2605 59.7318ZM17.4488 53.7451C18.0391 53.7451 18.5163 54.2223 18.5163 54.8126C18.5163 55.4029 18.0391 55.8801 17.4488 55.8801C16.8585 55.8801 16.3813 55.4029 16.3813 54.8126C16.3813 54.2223 16.8585 53.7451 17.4488 53.7451ZM63.9114 53.7451C64.5017 53.7451 64.9789 54.2223 64.9789 54.8126C64.9789 55.4029 64.5017 55.8801 63.9114 55.8801C63.3211 55.8801 62.8439 55.4029 62.8439 54.8126C62.8439 54.2223 63.3211 53.7451 63.9114 53.7451ZM22.8354 49.1997L22.8059 40.8713C22.8059 40.8566 22.8059 40.8418 22.8059 40.8221C22.7223 40.3007 22.496 39.9514 22.1615 39.735C21.704 39.4398 21.0202 39.3267 20.179 39.3365H20.1692V39.3414H14.1677C14.1578 39.3414 14.148 39.3414 14.1381 39.3414C13.3953 39.3759 12.8296 39.553 12.5099 39.9367C12.1655 40.345 12.0475 41.0533 12.2098 42.1503C12.2147 42.1749 12.2147 42.1946 12.2147 42.2192L13.3855 56.7458V56.7704C13.5429 58.2757 13.8676 59.2399 14.3251 59.7712C14.6891 60.1943 15.186 60.3123 15.7812 60.2041C15.8255 60.1943 15.8747 60.1893 15.9189 60.1893V60.1844H20.4201C20.4496 60.1844 20.4791 60.1844 20.5037 60.1893C21.3006 60.2041 21.8516 59.968 22.1959 59.5203C22.5993 58.9989 22.7961 58.1823 22.8256 57.1295H22.8207V49.1997H22.8354Z" fill="white"/>
</g>
<circle cx="38.7278" cy="23.7673" r="7.7482" stroke="white" stroke-width="1.5036"/>
<path d="M34.9998 24.1205L37.032 26.1527C37.363 26.4837 37.9061 26.4611 38.2084 26.1038L42.4998 21.0322" stroke="white" stroke-width="1.5" stroke-linecap="round"/>
<defs>
<clipPath id="clip0_2112_18887">
<rect width="60.4481" height="34.612" fill="white" transform="translate(10.5615 33.645)"/>
</clipPath>
</defs>
</svg>
