<svg width="23" height="24" viewBox="0 0 23 24" fill="none" xmlns="http://www.w3.org/2000/svg">
<path d="M16.1759 11.5032C16.1759 14.0856 14.0825 16.179 11.5 16.179C8.9176 16.179 6.82422 14.0856 6.82422 11.5032C6.82422 8.92078 8.9176 6.82739 11.5 6.82739C14.0825 6.82739 16.1759 8.92078 16.1759 11.5032Z" fill="#5F7180"/>
<path d="M21.9661 3.40372L21.9662 3.40369C21.7673 2.8647 21.45 2.37682 21.0376 1.97637L21.0324 1.97128L21.0273 1.96603C20.6268 1.55364 20.1393 1.23636 19.6001 1.0375L19.592 1.03453L19.5921 1.03446C19.1475 0.861802 18.4584 0.644889 17.1459 0.585151L17.1459 0.585149C15.6779 0.518206 15.2434 0.503662 11.5002 0.503662C7.75657 0.503662 7.32202 0.517836 5.8546 0.584772L21.9661 3.40372ZM21.9661 3.40372L21.9693 3.41191M21.9661 3.40372L21.9693 3.41191M21.9693 3.41191C22.1422 3.85622 22.3591 4.5456 22.4189 5.85812L22.4189 5.85817C22.4858 7.32567 22.5 7.76016 22.5 11.5038C22.5 15.2471 22.4858 15.6816 22.4189 17.1494C22.3588 18.462 22.1419 19.1511 21.9692 19.5957L21.9688 19.5968C21.5477 20.6885 20.6848 21.5513 19.5931 21.9724L19.5917 21.973C19.1474 22.1459 18.4581 22.3628 17.1455 22.4225L17.1455 22.4225C15.6784 22.4895 15.2439 22.5037 11.4998 22.5037C7.75613 22.5037 7.322 22.4895 5.85451 22.4225L5.85446 22.4225C4.54193 22.3628 3.85256 22.1459 3.40825 21.973L3.40828 21.9729L3.39994 21.9698C2.86073 21.771 2.37322 21.4537 1.9727 21.0413L1.96761 21.036L1.96237 21.031C1.55011 20.6306 1.23306 20.143 1.03374 19.6035L1.03381 19.6034L1.0308 19.5957C0.85814 19.1512 0.641227 18.462 0.581489 17.1496L0.581487 17.1495C0.514544 15.6816 0.5 15.2471 0.5 11.5038C0.5 7.76027 0.514544 7.32572 0.581486 5.85817L0.581489 5.85812C0.641228 4.54563 0.858151 3.85614 1.0308 3.41161L1.03087 3.41163L1.03374 3.40385C1.23301 2.86445 1.55036 2.37687 1.96275 1.97636L1.96806 1.9712L1.97322 1.96589C2.3732 1.55371 2.86098 1.2364 3.40031 1.0375L3.40034 1.03757M21.9693 3.41191L3.40034 1.03757M3.40034 1.03757L3.40844 1.03442M3.40034 1.03757L3.40844 1.03442M3.40844 1.03442C3.85251 0.861816 4.54198 0.644883 5.85451 0.584776L3.40844 1.03442ZM21.1714 4.01581V4.01561C21.1714 2.80982 20.1938 1.83225 18.9881 1.83225C17.7823 1.83225 16.8047 2.80982 16.8047 4.01561C16.8047 5.2214 17.7823 6.19896 18.9881 6.19896C20.194 6.19896 21.1709 5.22126 21.1714 4.01581ZM3.79673 11.5035C3.79673 15.758 7.24568 19.2066 11.5002 19.2066C15.7543 19.2066 19.2033 15.758 19.2033 11.5035C19.2033 7.24892 15.7543 3.80039 11.5002 3.80039C7.24568 3.80039 3.79673 7.2489 3.79673 11.5035Z" fill="#5F7180" stroke="#5F7180"/>
</svg>
