<svg width="82" height="82" viewBox="0 0 82 82" fill="none" xmlns="http://www.w3.org/2000/svg">
<rect width="82" height="82" rx="5" fill="#5B5752"/>
<path d="M18.0354 55.1938L52.1235 38.6167" stroke="white" stroke-width="1.86784"/>
<path d="M40.683 62.1982L29.009 49.8237" stroke="white" stroke-width="1.86784"/>
<path d="M23.8773 39.2199L15.4788 61.4005C15.2475 62.0115 15.6989 62.6652 16.3522 62.6652H66.5981C67.2648 62.6652 67.7168 61.9867 67.4599 61.3714L58.2 39.1908C58.0549 38.8431 57.715 38.6167 57.3382 38.6167H24.7507C24.3625 38.6167 24.0148 38.8569 23.8773 39.2199Z" stroke="white" stroke-width="1.86784"/>
<path d="M47.4531 62.4318L63.3298 53.5596" stroke="white" stroke-width="1.86784"/>
<path d="M40.9539 50.8174C38.8984 47.8376 37.1512 45.3485 35.6662 43.2332C33.0123 39.4527 31.1963 36.8657 29.9564 34.804C29.0013 33.2159 28.4233 31.994 28.0779 30.8277C27.7346 29.6685 27.6077 28.5191 27.6077 27.0595C27.6077 19.2581 33.9319 12.9339 41.7333 12.9339C49.5347 12.9339 55.8589 19.2581 55.8589 27.0595C55.8589 28.5191 55.732 29.6685 55.3887 30.8277C55.0433 31.994 54.4653 33.2159 53.5102 34.804C52.2703 36.8657 50.4543 39.4526 47.8004 43.2332C46.3155 45.3485 44.5682 47.8375 42.5128 50.8173C42.1363 51.3605 41.3304 51.3605 40.9539 50.8174ZM41.7333 34.2682C45.7146 34.2682 48.942 31.0407 48.942 27.0595C48.942 23.0782 45.7146 19.8508 41.7333 19.8508C37.752 19.8508 34.5246 23.0782 34.5246 27.0595C34.5246 31.0407 37.752 34.2682 41.7333 34.2682Z" fill="#5B5752" stroke="white" stroke-width="1.86784"/>
</svg>
