<svg width="89" height="88" viewBox="0 0 89 88" fill="none" xmlns="http://www.w3.org/2000/svg">
<circle cx="44.5" cy="44" r="44" fill="#5B5752"/>
<path d="M59.8951 61.5636V35.0123C59.8951 27.2735 53.6216 21 45.8828 21H42.8509C35.1122 21 28.8386 27.2735 28.8386 35.0123V61.5636" stroke="white" stroke-width="3.53053"/>
<path d="M50.3017 38.3465C48.8093 37.024 46.5898 37.2619 45.22 38.7317L44.6835 39.3066L44.147 38.7317C42.7799 37.2619 40.5576 37.024 39.0653 38.3465C37.355 39.8645 37.2651 42.5889 38.7956 44.2343L44.0653 49.8927C44.4057 50.258 44.9585 50.258 45.299 49.8927L50.5686 44.2343C52.1018 42.5889 52.012 39.8645 50.3017 38.3465Z" fill="white"/>
<rect x="22.5" y="61.5635" width="14.5775" height="4.43664" fill="white"/>
<rect x="52.9224" y="61.5635" width="14.5775" height="4.43664" fill="white"/>
</svg>
