<svg width="77" height="23" viewBox="0 0 77 23" fill="none" xmlns="http://www.w3.org/2000/svg">
<path d="M0.0796999 15.4128C0.0796999 14.2988 0.0602325 13.3661 6.10352e-05 12.5317H2.10695L2.20694 13.9634H2.26534C2.74229 13.2077 3.61654 12.3122 5.24648 12.3122C6.51893 12.3122 7.51176 13.029 7.92942 14.1015H7.97012C8.30815 13.5652 8.70457 13.167 9.16117 12.8901C9.69829 12.5113 10.3159 12.3122 11.1097 12.3122C12.7201 12.3122 14.3483 13.4051 14.3483 16.5074V22.2096H11.9636V16.8632C11.9636 15.2545 11.407 14.2988 10.2345 14.2988C9.40008 14.2988 8.78332 14.897 8.52583 15.5925C8.45417 15.8579 8.41407 16.1309 8.40637 16.4057V22.2104H6.02163V16.6039C6.02163 15.2553 5.4854 14.2997 4.35187 14.2997C3.43957 14.2997 2.8237 15.0164 2.60248 15.6907C2.50426 15.9296 2.46355 16.2092 2.46355 16.4853V22.2104H0.0796999V15.4128ZM23.6404 19.8859C23.6404 20.7593 23.6802 21.6132 23.7784 22.2104H21.5724L21.414 21.138H21.3538C20.7574 21.8937 19.7434 22.4281 18.4939 22.4281C16.5454 22.4281 15.4526 21.0185 15.4526 19.547C15.4526 17.1003 17.617 15.8703 21.1963 15.8898V15.7314C21.1963 15.0943 20.9371 14.0413 19.2275 14.0413C18.2727 14.0413 17.2799 14.3404 16.6242 14.7563L16.1472 13.1661C16.8631 12.7281 18.1152 12.3114 19.6443 12.3114C22.7458 12.3114 23.6413 14.2811 23.6413 16.3853L23.6404 19.8859ZM21.2547 17.4817C19.5248 17.441 17.8763 17.8188 17.8763 19.2895C17.8763 20.2434 18.4939 20.6814 19.2682 20.6814C20.2407 20.6814 20.9574 20.0434 21.176 19.3488C21.2295 19.1751 21.2564 18.9943 21.2556 18.8125V17.4817H21.2547ZM25.3287 15.4128C25.3287 14.2988 25.3084 13.3661 25.2508 12.5317H27.3949L27.5135 13.9847H27.5736C27.9904 13.2281 29.0443 12.3122 30.6539 12.3122C32.344 12.3122 34.0916 13.4051 34.0916 16.4676V22.2096H31.6476V16.7455C31.6476 15.3544 31.1299 14.2979 29.7991 14.2979C28.8266 14.2979 28.1488 14.9943 27.8913 15.7305C27.8117 15.9482 27.7922 16.2473 27.7922 16.5234V22.2087H25.3278L25.3287 15.4128ZM44.6906 8.64355V19.4877C44.6906 20.4814 44.7313 21.5565 44.7703 22.2104H42.5855L42.4855 20.6814H42.4448C41.8697 21.7539 40.6954 22.429 39.2858 22.429C36.9799 22.429 35.1526 20.4619 35.1526 17.4826C35.1313 14.2422 37.1577 12.3131 39.4849 12.3131C40.8158 12.3131 41.7697 12.8697 42.2068 13.5882H42.2484V8.64444H44.6915V8.64355H44.6906ZM42.2475 16.5658C42.2475 16.3685 42.228 16.1296 42.1873 15.9296C41.9688 14.9775 41.1954 14.2015 40.0813 14.2015C38.5116 14.2015 37.6355 15.5934 37.6355 17.4012C37.6355 19.1683 38.5107 20.4611 40.0619 20.4611C41.0538 20.4611 41.929 19.7841 42.167 18.7311C42.2272 18.5134 42.2484 18.2736 42.2484 18.0161V16.5658H42.2475ZM46.4197 22.2104V12.5317H48.8858V22.2104H46.4197ZM50.6131 15.6526C50.6131 14.3413 50.5945 13.4059 50.5352 12.5326H52.6616L52.7395 14.3793H52.82C53.2969 13.0086 54.4287 12.5326 55.4649 12.5326C55.7029 12.5326 55.8409 12.4919 56.0392 12.5326V14.6802C55.8046 14.6283 55.5653 14.6016 55.3251 14.6005C54.15 14.6005 53.3553 15.3562 53.1377 16.4473C53.0895 16.697 53.0632 16.9504 53.0589 17.2047V22.2113H50.6131V15.6526ZM57.1736 22.2104V12.5317H59.6362V22.2104H57.1736Z" fill="#0D2B5B"/>
<path d="M74.9763 2.29558C73.7561 0.903676 72.4589 1.53371 71.428 2.04605C70.9944 2.26019 67.8646 4.03436 67.8646 4.03436C66.1497 4.74138 64.8144 3.96977 64.2906 3.32027C64.2405 3.25868 64.1952 3.19329 64.1552 3.12471L64.0331 2.91323C63.8267 2.55627 63.5973 2.2131 63.3464 1.88589C63.1942 1.68755 63.0292 1.49927 62.8527 1.32222C61.6793 0.137375 59.8043 -0.691753 56.6701 0.814303C55.1861 1.6744 50.3521 4.43609 50.3521 4.43609C48.5354 5.18381 47.1462 4.27328 46.6949 3.6052C46.6745 3.58018 46.6568 3.55321 46.6418 3.52467L46.5825 3.4238L46.2763 2.92296C46.1382 2.70357 45.9899 2.49067 45.8321 2.28497C45.6783 2.0879 45.5132 1.89998 45.3375 1.72218C44.1721 0.544417 42.3068 -0.28294 39.2 1.1948C37.3214 2.26727 32.9519 4.76527 32.9519 4.76527L32.9501 4.76704L29.7522 6.5943L31.4069 8.62597C32.1033 9.28963 33.412 10.378 35.4366 9.46041C35.4366 9.46041 41.0246 6.22443 41.0467 6.21469C45.8242 3.59281 48.1815 6.09789 49.2238 7.76765C49.2601 7.81985 49.2893 7.87648 49.3221 7.92692L49.3238 7.92958C49.3371 7.94993 49.3451 7.96851 49.3566 7.98798L49.4743 8.18088C49.9822 8.95072 50.783 9.44802 51.7378 9.42502C52.2643 9.4144 52.6218 9.24273 53.1421 8.95338L58.5486 5.81738L58.5602 5.81207C63.3978 3.15834 65.7949 5.82712 66.8187 7.49687C66.8983 7.64111 66.9886 7.77915 67.0815 7.90746C67.5885 8.595 68.2876 9.0454 69.176 9.02328C69.7627 9.01178 70.4201 8.6596 70.5183 8.595L77 4.85375C77.0018 4.85552 76.3399 3.85473 74.9763 2.29558Z" fill="#FDD213"/>
</svg>
