<svg width="37" height="81" viewBox="0 0 37 81" fill="none" xmlns="http://www.w3.org/2000/svg">
    <path
        d="M82.4395 72.4177C82.3568 72.2919 82.1635 71.8786 81.9597 71.4409C81.7676 71.031 81.551 70.5661 81.4764 70.4536L81.4578 70.4009C81.4066 69.5162 80.0081 68.8907 78.5269 68.2286C78.0087 67.9967 77.4718 67.7567 77.0002 67.5057C73.4195 65.599 73.3589 62.8847 73.3007 60.2597C73.2774 59.2498 73.2553 58.2063 73.0294 57.2289C72.0839 53.1494 66.8834 49.0808 58.7623 46.0668C58.1149 45.8274 57.4546 45.5944 56.792 45.3607C54.7554 44.6436 52.65 43.9021 50.9581 42.9549C49.1485 41.9404 47.8687 40.7223 46.6332 39.5449C43.3599 36.43 39.976 33.2085 37.8334 29.7429C35.4998 25.9666 35.0957 21.7856 36.7527 18.5582L37.4724 18.6498C35.8491 21.814 36.2497 25.9202 38.5437 29.6339C40.6665 33.0676 44.0341 36.2735 47.2912 39.3733C48.5069 40.531 49.7645 41.7288 51.5147 42.7091C53.1473 43.6239 55.2189 44.3538 57.2206 45.0593C57.889 45.2941 58.555 45.5283 59.206 45.77C67.4912 48.8449 72.7977 53.0062 73.7665 57.1872C73.9982 58.1825 74.0215 59.2371 74.0437 60.2562C74.1031 62.9276 74.159 65.4517 77.5441 67.2529C77.9924 67.4924 78.5164 67.7266 79.0241 67.9533C80.5437 68.6327 82.1146 69.3353 82.1996 70.3643C82.2928 70.5185 82.4826 70.9267 82.684 71.3568C82.8762 71.7678 83.0753 72.1928 83.1463 72.3047L82.4395 72.4177Z"
        fill="#E4C26D" />
    <path
        d="M23.0818 33.5014C22.9176 32.1466 22.382 31.1657 22.4356 29.8335C22.4426 28.9448 22.5834 28.0601 22.6137 27.1766C22.5904 26.5511 22.4786 25.9244 22.6719 25.3029C22.7395 25.0513 22.9247 24.5632 23.104 24.3041C22.8664 24.5342 22.7034 24.7777 22.5392 25.0252C21.8545 26.0693 22.0338 27.1876 21.6682 28.2642C21.1046 29.9744 21.6402 31.6515 21.9814 33.1791C22.1072 34.1565 22.2341 35.1403 22.8431 36.0812C23.6909 37.3844 25.1115 38.5798 26.3296 39.8042C24.8006 37.6656 23.0364 35.6557 23.0818 33.5014Z"
        fill="#E4C26D" />
    <path
        d="M45.1485 0.730522C42.9162 7.1591 36.9297 13.3749 28.2509 18.2632C26.0256 19.5166 23.5919 20.7067 21.2385 21.8575C18.9597 22.9723 16.6039 24.1248 14.445 25.3301C11.2788 27.0982 8.73446 29.1064 7.06228 31.114C9.56472 28.7504 13.0092 26.6315 17.1803 25.006C19.9238 23.9358 22.9805 23.054 25.9371 22.2013C27.6198 21.7155 29.3619 21.2134 31.0212 20.683C36.238 19.0186 39.6115 17.3524 41.5433 15.4776C41.095 15.5924 40.6467 15.706 40.1995 15.8196L37.6051 16.4794L39.2016 15.6689C41.3745 14.5651 42.9314 13.223 44.2915 11.9372C46.0405 10.2844 47.6836 8.49017 47.8606 6.56258C48.0224 4.81934 47.8629 1.82852 45.1485 0.730522ZM63.829 73.95L74.1822 72.0983C67.6286 72.1029 61.4313 72.2989 55.425 72.5012L54.9091 72.5186C50.9173 72.6543 46.391 72.8096 42.9966 71.6212L41.7471 71.1847L43.2598 71.2867C43.9526 71.3336 44.5849 71.3516 45.1381 71.3418C39.5428 70.9087 34.6974 69.1579 29.9953 67.4588C28.5304 66.93 27.0166 66.3828 25.5168 65.8906C23.6001 65.2622 21.5669 64.6836 19.6013 64.1242C16.6622 63.287 13.624 62.4221 10.8922 61.3705C7.74814 60.1588 2.4242 57.6104 2.07952 54.1488L2.00614 53.4218L2.76771 54.0439C3.4105 54.5703 3.95546 55.0787 4.4818 55.5709C5.4518 56.4758 6.34029 57.3066 7.59442 57.975C4.39097 55.8051 3.32199 52.8386 2.52899 49.9342L0.595986 42.872C-0.134135 40.2122 -0.56499 37.8417 1.58462 35.7634L2.5977 34.7831L2.2833 35.8747C1.88039 37.2683 1.95376 38.6933 2.49058 40.0713C2.48476 38.0678 3.18577 36.0364 4.50045 34.0909L4.48646 34.0897C5.59155 31.0867 9.01974 27.8043 13.8895 25.0837C16.0648 23.8697 18.4298 22.7126 20.718 21.5937C23.0621 20.4476 25.4865 19.2615 27.6943 18.018C36.4104 13.1088 42.3841 6.84547 44.5127 0.381523L44.6012 0.114281L45.0694 0.252831C48.3846 1.23315 48.8213 4.2344 48.6035 6.57997C48.4195 8.57944 46.738 10.4195 44.9482 12.11C43.8536 13.1465 42.6286 14.2202 41.0566 15.186C41.4316 15.0898 41.8065 14.9935 42.1791 14.8967L43.1154 14.6544L42.6927 15.1361C40.8004 17.2834 37.2197 19.145 31.423 20.9943C29.7496 21.5294 28.0006 22.0337 26.3098 22.5213C23.3753 23.3683 20.3419 24.2436 17.638 25.297C7.79006 29.1342 2.08067 35.7738 3.43028 41.8192L3.79711 43.4622L2.70949 41.9004C1.65098 40.3797 1.17587 38.7577 1.30396 37.1449C0.374718 38.8383 0.760157 40.7386 1.33308 42.8221L3.26494 49.8844C4.22563 53.3975 5.59039 57.0005 10.6989 59.0753L12.8543 59.949L10.3135 59.3878C6.9237 58.6376 5.48908 57.2967 3.82622 55.7442C3.56538 55.5013 3.30103 55.2538 3.02155 55.0022C4.06026 57.8753 8.5784 60.0104 11.3475 61.0771C14.0374 62.1137 17.0534 62.9723 19.9704 63.803C21.9465 64.3653 23.9902 64.9468 25.9255 65.5816C27.4393 66.079 28.9601 66.628 30.432 67.1596C35.6313 69.0385 41.01 70.9818 47.2993 71.0693L48.4591 71.0855L47.4973 71.4079C46.7986 71.6415 45.8041 71.6948 44.8085 71.7139C47.7698 72.3911 51.3656 72.2687 54.859 72.1493L55.3749 72.1319C62.0229 71.9076 68.899 71.6751 76.2666 71.7383L78.2951 71.7563L69.7934 73.2769C74.6492 73.1093 79.7076 73.1766 83.5306 73.474L83.4165 73.8398C78.8832 73.4868 72.5846 73.4618 66.9788 73.7743L63.829 73.95Z"
        fill="#E4C26D" />
    <path
        d="M91.8368 77.4245C89.5917 76.0877 87.0939 74.8523 84.447 73.716C82.5431 72.9496 80.6614 72.1687 78.7598 71.4058C76.5357 70.618 74.2603 69.8695 72.0524 69.0776C66.4094 66.9529 61.1845 65.0885 56.0853 62.9633C49.7936 60.3093 43.8607 57.4083 39.5789 54.0766C37.5504 52.4041 35.282 50.8012 33.6611 49.0104C33.1184 48.473 32.7016 47.9912 32.301 47.4962C33.3036 48.3547 34.3237 49.2098 35.4893 50.0203C36.3231 50.6533 36.9926 51.3339 37.8555 51.9595C39.275 52.8928 40.7841 53.7879 42.2712 54.6917C44.4557 56.0425 47.0222 57.2158 49.4594 58.4518C51.3179 59.5475 53.4233 60.5284 55.4448 61.5458C56.9901 62.2971 58.8718 63.3337 60.2913 63.8108C61.6526 64.3378 63.0732 64.9036 64.856 65.3767C66.0682 65.743 67.6962 66.3871 68.4834 66.6584C71.7928 67.8121 75.0207 69.3669 78.5374 70.891C81.8293 72.3322 85.2063 73.7264 88.4016 75.2262C90.4021 76.2581 92.4842 77.0576 93.6953 78.2425C94.0073 78.5092 94.2391 78.8095 94.4475 79.1266C93.672 78.5161 92.794 77.9498 91.8368 77.4245ZM96.0067 80.6553C95.6748 79.7973 95.4559 78.9156 94.6921 78.1161C93.495 76.7996 91.1439 75.8993 89.1748 74.8778C86.1495 73.4383 82.9006 72.1247 79.7845 70.7356C78.3057 70.1107 76.7581 69.415 75.2338 68.7373C75.1301 68.6446 75.0346 68.5524 74.9368 68.4562C73.5767 66.9941 71.964 65.5946 70.2021 64.2485C71.3386 65.6833 72.715 67.0799 74.4175 68.3709C74.4256 68.3785 74.4326 68.382 74.4466 68.3901C72.6405 67.5976 70.8775 66.8538 69.3008 66.321C67.6904 65.7367 66.1428 65.099 64.3658 64.6398C62.6261 64.1065 61.7271 63.6896 60.36 63.194C57.11 61.7412 53.0506 59.6518 49.7564 57.8703C46.7451 56.4048 43.7931 54.9062 41.2069 53.2482C40.2031 52.6151 39.119 51.9977 38.553 51.5884C37.661 50.92 36.9169 50.2052 35.9947 49.5501C34.7522 48.7501 33.8101 47.855 32.6655 47.0254C31.7723 46.3524 30.9549 45.6526 30.1828 44.9459C29.3945 44.0021 28.591 42.9656 28.0029 41.9447C28.2114 42.4815 28.4501 43.0137 28.7179 43.5436C28.4431 43.2699 28.4454 42.6322 28.1706 42.3592C28.5351 42.8763 28.6644 43.743 29.0964 44.2491C30.7755 47.3257 33.3933 50.2829 36.9472 52.9299C40.5524 56.0755 45.3849 58.8188 50.6786 61.2873C57.5047 64.4039 64.2319 66.7831 71.5995 69.5484C73.6361 70.2695 76.5054 71.2441 78.1414 71.8128C80.2072 72.6603 82.2986 73.4934 84.3574 74.3479C88.4994 76.2401 92.2071 78.1573 95.0402 80.4484C95.1369 80.522 95.2265 80.6032 95.3162 80.689L96.0067 80.6553Z"
        fill="#E4C26D" />
    <path
        d="M29.5494 36.1549C27.9144 36.9839 27.5348 38.2645 27.6478 39.3828C28.0856 38.2981 28.4571 37.1172 29.5272 36.1845C29.5494 36.1659 29.6402 36.1259 29.6402 36.1224C29.6088 36.1363 29.5796 36.145 29.5494 36.1549Z"
        fill="#E4C26D" />
    <path
        d="M25.2607 37.603C26.2273 36.4888 26.792 35.3038 27.2974 34.1235C26.2424 35.2186 25.6834 36.4105 25.2607 37.603Z"
        fill="#E4C26D" />
    <path
        d="M31.4673 31.3071C32.0845 30.2225 32.5316 29.1042 33.1406 28.027C32.0099 29.0201 31.5721 30.1778 31.4673 31.3071Z"
        fill="#E4C26D" />
    <path
        d="M12.4875 45.2572C11.7224 44.5865 10.629 44.0392 9.67646 43.4357C8.70996 42.7702 7.34287 41.6224 6.65234 40.6936C7.0308 41.7667 7.89248 42.8288 9.22347 43.6943C10.2878 44.3053 11.5582 44.8161 12.5841 45.4416C12.7041 45.5083 12.852 45.5935 12.9405 45.6416C12.7844 45.5123 12.6354 45.3819 12.4875 45.2572Z"
        fill="#E4C26D" />
    <path
        d="M7.24512 43.6052C8.11498 44.8788 9.73709 46.0035 11.6561 46.9409C10.2355 45.8122 8.68207 44.7269 7.24512 43.6052Z"
        fill="#E4C26D" />
    <path
        d="M33.2302 52.0218C32.1438 51.6664 30.7545 51.6966 29.5586 51.4751C27.2611 51.0085 24.6422 50.0351 22.2795 49.3093C24.5305 50.3116 26.8582 51.5186 29.9068 51.8491C30.9478 51.9592 32.2416 51.8885 33.1335 52.0966C33.4153 52.1557 33.7134 52.2404 33.9661 52.3076C33.7356 52.2079 33.4899 52.1076 33.2302 52.0218Z"
        fill="#E4C26D" />
    <path
        d="M25.8628 48.5936C26.8957 48.9505 28.0613 49.221 29.2456 49.4102C28.1382 49.0567 27.0517 48.8054 25.8628 48.5936Z"
        fill="#E4C26D" />
    <path
        d="M37.4385 53.9318C36.7166 53.7144 35.9876 53.4923 35.1911 53.352C34.4272 53.2141 33.4235 53.192 32.8797 53.152C31.2529 53.0106 29.6599 52.781 28.0401 52.6077C25.179 52.3416 22.5252 51.741 19.7363 51.3491C17.1558 51.0494 14.5241 50.8609 11.8994 50.672C14.7104 51.076 17.5727 51.3937 20.322 51.8818C22.9479 52.3926 25.5645 52.9225 28.3673 53.13C29.9452 53.2581 31.5126 53.4407 33.1032 53.4732C34.5914 53.4361 35.8618 53.6106 37.1695 53.9184C37.4001 53.9689 37.7506 54.0367 37.9369 54.0518C37.7634 54.0176 37.6004 53.9776 37.4385 53.9318Z"
        fill="#E4C26D" />
    <path
        d="M38.4553 55.5645C33.193 53.8649 26.658 53.9432 20.6133 53.9403C24.3547 54.2214 27.6828 54.3205 31.281 54.6724C33.6088 54.7761 35.862 55.066 38.2037 55.561C38.3901 55.594 38.7685 55.6607 38.8512 55.6497C38.7091 55.6311 38.5834 55.5969 38.4553 55.5645Z"
        fill="#E4C26D" />
    <path
        d="M30.2562 61.391C27.8935 61.2055 25.4901 61.3568 23.1122 61.2751C20.0101 61.1394 16.4887 60.6241 13.0908 60.2989C16.9557 61.0015 20.9486 61.908 25.164 61.6675C27.0237 61.5863 28.3244 61.453 30.3086 61.4304C30.4414 61.4275 30.5823 61.4275 30.7174 61.4234C30.5613 61.413 30.4041 61.4008 30.2562 61.391Z"
        fill="#E4C26D" />
    <path
        d="M41.0065 63.5702C40.04 63.5777 38.2852 63.6073 37.7122 63.5551C34.0034 63.1146 30.0989 62.9324 26.3389 63.3288C29.2 63.2846 31.692 63.4547 34.1362 63.6439C35.5044 63.7368 36.8494 63.944 38.2421 63.9329C39.1038 63.9289 40.1145 63.829 40.7527 63.7884C41.4968 63.7263 42.8208 63.6892 43.4146 63.551C42.6275 63.6149 41.8089 63.5632 41.0065 63.5702Z"
        fill="#E4C26D" />
</svg>