<svg width="38" height="81" viewBox="0 0 38 81" fill="none" xmlns="http://www.w3.org/2000/svg">
    <path
        d="M-44.4326 72.4177C-44.35 72.2919 -44.1567 71.8786 -43.9529 71.4409C-43.7607 71.031 -43.5441 70.5661 -43.4696 70.4536L-43.451 70.4009C-43.3998 69.5162 -42.0012 68.8907 -40.52 68.2286C-40.0018 67.9967 -39.465 67.7567 -38.9934 67.5057C-35.4127 65.599 -35.3521 62.8847 -35.2939 60.2597C-35.2706 59.2498 -35.2485 58.2063 -35.0226 57.2289C-34.077 53.1494 -28.8765 49.0808 -20.7555 46.0668C-20.1081 45.8274 -19.4478 45.5944 -18.7852 45.3607C-16.7486 44.6436 -14.6432 43.9021 -12.9512 42.9549C-11.1417 41.9404 -9.86189 40.7223 -8.62639 39.5449C-5.35307 36.43 -1.96914 33.2085 0.17348 29.7429C2.50708 25.9666 2.91115 21.7856 1.25411 18.5582L0.534477 18.6498C2.15775 21.814 1.75717 25.9202 -0.536829 29.6339C-2.65965 33.0676 -6.02731 36.2735 -9.28433 39.3733C-10.5 40.531 -11.7577 41.7288 -13.5079 42.7091C-15.1404 43.6239 -17.212 44.3538 -19.2138 45.0593C-19.8822 45.2941 -20.5482 45.5283 -21.1992 45.77C-29.4843 48.8449 -34.7908 53.0062 -35.7597 57.1872C-35.9914 58.1825 -36.0147 59.2371 -36.0368 60.2562C-36.0962 62.9276 -36.1521 65.4517 -39.5372 67.2529C-39.9855 67.4924 -40.5096 67.7266 -41.0173 67.9533C-42.5369 68.6327 -44.1078 69.3353 -44.1928 70.3643C-44.2859 70.5185 -44.4757 70.9267 -44.6772 71.3568C-44.8693 71.7678 -45.0684 72.1928 -45.1395 72.3047L-44.4326 72.4177Z"
        fill="#E4C26D" />
    <path
        d="M14.925 33.5014C15.0892 32.1466 15.6248 31.1657 15.5713 29.8335C15.5643 28.9448 15.4234 28.0601 15.3931 27.1766C15.4164 26.5511 15.5282 25.9244 15.3349 25.3029C15.2674 25.0513 15.0822 24.5632 14.9029 24.3041C15.1404 24.5342 15.3034 24.7777 15.4676 25.0252C16.1523 26.0693 15.973 27.1876 16.3387 28.2642C16.9023 29.9744 16.3666 31.6515 16.0254 33.1791C15.8997 34.1565 15.7727 35.1403 15.1637 36.0812C14.316 37.3844 12.8953 38.5798 11.6773 39.8042C13.2062 37.6656 14.9704 35.6557 14.925 33.5014Z"
        fill="#E4C26D" />
    <path
        d="M-7.14169 0.730522C-4.90941 7.1591 1.07711 13.3749 9.75589 18.2632C11.9812 19.5166 14.4149 20.7067 16.7683 21.8575C19.0472 22.9723 21.4029 24.1248 23.5618 25.3301C26.728 27.0982 29.2724 29.1064 30.9446 31.114C28.4421 28.7504 24.9976 26.6315 20.8265 25.006C18.083 23.9358 15.0263 23.054 12.0697 22.2013C10.387 21.7155 8.64498 21.2134 6.98562 20.683C1.7688 19.0186 -1.60465 17.3524 -3.5365 15.4776C-3.08818 15.5924 -2.63986 15.706 -2.1927 15.8196L0.401737 16.4794L-1.19477 15.6689C-3.36767 14.5651 -4.92456 13.223 -6.28466 11.9372C-8.03369 10.2844 -9.67675 8.49017 -9.85374 6.56258C-10.0156 4.81934 -9.85607 1.82852 -7.14169 0.730522ZM-25.8221 73.95L-36.1754 72.0983C-29.6218 72.1029 -23.4245 72.2989 -17.4181 72.5012L-16.9023 72.5186C-12.9105 72.6543 -8.38419 72.8096 -4.98976 71.6212L-3.74029 71.1847L-5.25293 71.2867C-5.94579 71.3336 -6.57811 71.3516 -7.13123 71.3418C-1.53596 70.9087 3.30939 69.1579 8.01152 67.4588C9.47642 66.93 10.9902 66.3828 12.4901 65.8906C14.4068 65.2622 16.4399 64.6836 18.4056 64.1242C21.3447 63.287 24.3828 62.4221 27.1146 61.3705C30.2587 60.1588 35.5826 57.6104 35.9273 54.1488L36.0007 53.4218L35.2391 54.0439C34.5963 54.5703 34.0514 55.0787 33.525 55.5709C32.555 56.4758 31.6665 57.3066 30.4124 57.975C33.6159 55.8051 34.6848 52.8386 35.4778 49.9342L37.4108 42.872C38.141 40.2122 38.5718 37.8417 36.4222 35.7634L35.4091 34.7831L35.7235 35.8747C36.1264 37.2683 36.0531 38.6933 35.5163 40.0713C35.5221 38.0678 34.8211 36.0364 33.5064 34.0909L33.5204 34.0897C32.4153 31.0867 28.9871 27.8043 24.1173 25.0837C21.9421 23.8697 19.577 22.7126 17.2888 21.5937C14.9448 20.4476 12.5203 19.2615 10.3125 18.018C1.59647 13.1088 -4.37725 6.84547 -6.5059 0.381523L-6.5944 0.114281L-7.06252 0.252831C-10.3778 1.23315 -10.8144 4.2344 -10.5967 6.57997C-10.4127 8.57944 -8.7312 10.4195 -6.94141 12.11C-5.84681 13.1465 -4.6218 14.2202 -3.04977 15.186C-3.42472 15.0898 -3.79967 14.9935 -4.1723 14.8967L-5.10854 14.6544L-4.68585 15.1361C-2.79359 17.2834 0.787155 19.145 6.58388 20.9943C8.25722 21.5294 10.0063 22.0337 11.6971 22.5213C14.6315 23.3683 17.665 24.2436 20.3689 25.297C30.2168 29.1342 35.9262 35.7738 34.5766 41.8192L34.2097 43.4622L35.2974 41.9004C36.3559 40.3797 36.831 38.7577 36.7029 37.1449C37.6321 38.8383 37.2467 40.7386 36.6738 42.8221L34.7419 49.8844C33.7812 53.3975 32.4164 57.0005 27.3079 59.0753L25.1525 59.949L27.6934 59.3878C31.0831 58.6376 32.5178 57.2967 34.1806 55.7442C34.4415 55.5013 34.7058 55.2538 34.9853 55.0022C33.9466 57.8753 29.4284 60.0104 26.6593 61.0771C23.9694 62.1137 20.9534 62.9723 18.0364 63.803C16.0603 64.3653 14.0167 64.9468 12.0813 65.5816C10.5675 66.079 9.04673 66.628 7.57484 67.1596C2.37549 69.0385 -3.00317 70.9818 -9.29247 71.0693L-10.4523 71.0855L-9.49045 71.4079C-8.79176 71.6415 -7.7973 71.6948 -6.80168 71.7139C-9.76292 72.3911 -13.3588 72.2687 -16.8522 72.1493L-17.3681 72.1319C-24.016 71.9076 -30.8922 71.6751 -38.2598 71.7383L-40.2883 71.7563L-31.7865 73.2769C-36.6423 73.1093 -41.7008 73.1766 -45.5238 73.474L-45.4096 73.8398C-40.8764 73.4868 -34.5777 73.4618 -28.972 73.7743L-25.8221 73.95Z"
        fill="#E4C26D" />
    <path
        d="M-53.8299 77.4245C-51.5848 76.0877 -49.087 74.8523 -46.4402 73.716C-44.5363 72.9496 -42.6545 72.1687 -40.753 71.4058C-38.5288 70.618 -36.2534 69.8695 -34.0456 69.0776C-28.4026 66.9529 -23.1776 65.0885 -18.0784 62.9633C-11.7868 60.3093 -5.85384 57.4083 -1.57209 54.0766C0.456412 52.4041 2.7248 50.8012 4.34574 49.0104C4.88839 48.473 5.30526 47.9912 5.70584 47.4962C4.70323 48.3547 3.68317 49.2098 2.51754 50.0203C1.68378 50.6533 1.0142 51.3339 0.151327 51.9595C-1.26816 52.8928 -2.7773 53.7879 -4.26433 54.6917C-6.44887 56.0425 -9.01536 57.2158 -11.4526 58.4518C-13.3111 59.5475 -15.4165 60.5284 -17.438 61.5458C-18.9832 62.2971 -20.865 63.3337 -22.2845 63.8108C-23.6457 64.3378 -25.0664 64.9036 -26.8492 65.3767C-28.0614 65.743 -29.6893 66.3871 -30.4765 66.6584C-33.7859 67.8121 -37.0138 69.3669 -40.5305 70.891C-43.8225 72.3322 -47.1995 73.7264 -50.3948 75.2262C-52.3953 76.2581 -54.4774 77.0576 -55.6884 78.2425C-56.0005 78.5092 -56.2322 78.8095 -56.4407 79.1266C-55.6651 78.5161 -54.7871 77.9498 -53.8299 77.4245ZM-57.9999 80.6553C-57.668 79.7973 -57.4491 78.9156 -56.6852 78.1161C-55.4881 76.7996 -53.1371 75.8993 -51.1679 74.8778C-48.1427 73.4383 -44.8938 72.1247 -41.7777 70.7356C-40.2988 70.1107 -38.7512 69.415 -37.2269 68.7373C-37.1233 68.6446 -37.0278 68.5524 -36.93 68.4562C-35.5699 66.9941 -33.9571 65.5946 -32.1953 64.2485C-33.3318 65.6833 -34.7082 67.0799 -36.4106 68.3709C-36.4188 68.3785 -36.4258 68.382 -36.4398 68.3901C-34.6337 67.5976 -32.8707 66.8538 -31.294 66.321C-29.6835 65.7367 -28.1359 65.099 -26.3589 64.6398C-24.6192 64.1065 -23.7203 63.6896 -22.3532 63.194C-19.1032 61.7412 -15.0438 59.6518 -11.7495 57.8703C-8.73822 56.4048 -5.7863 54.9062 -3.20002 53.2482C-2.19624 52.6151 -1.11212 51.9977 -0.546188 51.5884C0.345795 50.92 1.08989 50.2052 2.01215 49.5501C3.25463 48.7501 4.1967 47.855 5.34137 47.0254C6.23452 46.3524 7.05198 45.6526 7.82402 44.9459C8.61237 44.0021 9.41585 42.9656 10.0039 41.9447C9.79547 42.4815 9.55673 43.0137 9.28891 43.5436C9.56372 43.2699 9.56139 42.6322 9.8362 42.3592C9.47172 42.8763 9.34247 43.743 8.91045 44.2491C7.23129 47.3257 4.61358 50.2829 1.05962 52.9299C-2.54558 56.0755 -7.37811 58.8188 -12.6718 61.2873C-19.4979 64.4039 -26.225 66.7831 -33.5926 69.5484C-35.6293 70.2695 -38.4985 71.2441 -40.1346 71.8128C-42.2004 72.6603 -44.2918 73.4934 -46.3506 74.3479C-50.4926 76.2401 -54.2002 78.1573 -57.0334 80.4484C-57.13 80.522 -57.2197 80.6032 -57.3094 80.689L-57.9999 80.6553Z"
        fill="#E4C26D" />
    <path
        d="M8.45748 36.1549C10.0924 36.9839 10.472 38.2645 10.359 39.3828C9.92119 38.2981 9.54974 37.1172 8.47959 36.1845C8.45747 36.1659 8.36664 36.1259 8.36664 36.1224C8.39808 36.1363 8.4272 36.145 8.45748 36.1549Z"
        fill="#E4C26D" />
    <path
        d="M12.7461 37.603C11.7796 36.4888 11.2148 35.3038 10.7094 34.1235C11.7644 35.2186 12.3234 36.4105 12.7461 37.603Z"
        fill="#E4C26D" />
    <path
        d="M6.53955 31.3071C5.92238 30.2225 5.47521 29.1042 4.8662 28.027C5.99689 29.0201 6.43475 30.1778 6.53955 31.3071Z"
        fill="#E4C26D" />
    <path
        d="M25.5194 45.2572C26.2844 44.5865 27.3778 44.0392 28.3304 43.4357C29.2969 42.7702 30.664 41.6224 31.3545 40.6936C30.976 41.7667 30.1144 42.8288 28.7834 43.6943C27.719 44.3053 26.4486 44.8161 25.4227 45.4416C25.3028 45.5083 25.1549 45.5935 25.0664 45.6416C25.2224 45.5123 25.3715 45.3819 25.5194 45.2572Z"
        fill="#E4C26D" />
    <path
        d="M30.7617 43.6052C29.8919 44.8788 28.2697 46.0035 26.3507 46.9409C27.7713 45.8122 29.3248 44.7269 30.7617 43.6052Z"
        fill="#E4C26D" />
    <path
        d="M4.77663 52.0218C5.86308 51.6664 7.25229 51.6966 8.4482 51.4751C10.7457 51.0085 13.3646 50.0351 15.7273 49.3093C13.4764 50.3116 11.1486 51.5186 8.10003 51.8491C7.05899 51.9592 5.76527 51.8885 4.87329 52.0966C4.59149 52.1557 4.2934 52.2404 4.04071 52.3076C4.27127 52.2079 4.51695 52.1076 4.77663 52.0218Z"
        fill="#E4C26D" />
    <path
        d="M12.144 48.5936C11.1112 48.9505 9.94552 49.221 8.76126 49.4102C9.86867 49.0567 10.9551 48.8054 12.144 48.5936Z"
        fill="#E4C26D" />
    <path
        d="M0.568295 53.9318C1.29027 53.7144 2.01923 53.4923 2.81573 53.352C3.57962 53.2141 4.58337 53.192 5.12718 53.152C6.75394 53.0106 8.34694 52.781 9.96671 52.6077C12.8278 52.3416 15.4816 51.741 18.2705 51.3491C20.851 51.0494 23.4827 50.8609 26.1074 50.672C23.2964 51.076 20.4341 51.3937 17.6848 51.8818C15.0589 52.3926 12.4424 52.9225 9.63949 53.13C8.06164 53.2581 6.49427 53.4407 4.90361 53.4732C3.41542 53.4361 2.14499 53.6106 0.837294 53.9184C0.60673 53.9689 0.256214 54.0367 0.0698986 54.0518C0.243404 54.0176 0.406433 53.9776 0.568295 53.9318Z"
        fill="#E4C26D" />
    <path
        d="M-0.448427 55.5645C4.81381 53.8649 11.3488 53.9432 17.3936 53.9403C13.6521 54.2214 10.3241 54.3205 6.72585 54.6724C4.39807 54.7761 2.14483 55.066 -0.196913 55.561C-0.383228 55.594 -0.761686 55.6607 -0.844364 55.6497C-0.702299 55.6311 -0.576519 55.5969 -0.448427 55.5645Z"
        fill="#E4C26D" />
    <path
        d="M7.7506 61.391C10.1133 61.2055 12.5168 61.3568 14.8946 61.2751C17.9968 61.1394 21.5181 60.6241 24.916 60.2989C21.0511 61.0015 17.0582 61.908 12.8428 61.6675C10.9832 61.5863 9.68246 61.453 7.6982 61.4304C7.56545 61.4275 7.42455 61.4275 7.28947 61.4234C7.44551 61.413 7.60271 61.4008 7.7506 61.391Z"
        fill="#E4C26D" />
    <path
        d="M-2.9997 63.5702C-2.03319 63.5777 -0.278333 63.6073 0.294586 63.5551C4.00342 63.1146 7.9079 62.9324 11.668 63.3288C8.80687 63.2846 6.31488 63.4547 3.87066 63.6439C2.50241 63.7368 1.15745 63.944 -0.235252 63.9329C-1.09696 63.9289 -2.1077 63.829 -2.74582 63.7884C-3.48992 63.7263 -4.81393 63.6892 -5.40781 63.551C-4.62063 63.6149 -3.80202 63.5632 -2.9997 63.5702Z"
        fill="#E4C26D" />
</svg>