<svg width="61" height="97" viewBox="0 0 61 97" fill="none" xmlns="http://www.w3.org/2000/svg">
    <path
        d="M98.3085 86.8896C98.2099 86.7396 97.9794 86.2467 97.7364 85.7248C97.5073 85.236 97.249 84.6816 97.1601 84.5475L97.1379 84.4846C97.0768 83.4296 95.4091 82.6837 93.6427 81.8942C93.0248 81.6177 92.3846 81.3315 91.8223 81.0321C87.5523 78.7584 87.4801 75.5216 87.4106 72.3914C87.3829 71.1871 87.3565 69.9427 87.0871 68.7772C85.9595 63.9124 79.758 59.0607 70.0738 55.4665C69.3017 55.181 68.5144 54.9031 67.7242 54.6245C65.2955 53.7694 62.785 52.8852 60.7673 51.7556C58.6094 50.5457 57.0833 49.0933 55.61 47.6892C51.7066 43.9748 47.6713 40.1331 45.1162 36.0004C42.3334 31.4972 41.8516 26.5114 43.8276 22.6629L44.6857 22.7721C42.75 26.5453 43.2277 31.4419 45.9633 35.8705C48.4947 39.9651 52.5106 43.7881 56.3945 47.4846C57.8443 48.8652 59.344 50.2934 61.4311 51.4624C63.3779 52.5533 65.8482 53.4237 68.2353 54.265C69.0323 54.545 69.8266 54.8243 70.6028 55.1126C80.4828 58.7793 86.8107 63.7416 87.9661 68.7274C88.2424 69.9144 88.2702 71.1719 88.2966 72.3872C88.3674 75.5728 88.4341 78.5828 92.4708 80.7307C93.0054 81.0162 93.6303 81.2955 94.2357 81.5658C96.0478 82.376 97.9211 83.2139 98.0224 84.441C98.1335 84.6249 98.3599 85.1116 98.6001 85.6245C98.8292 86.1147 99.0667 86.6214 99.1514 86.7548L98.3085 86.8896Z"
        fill="#E4C26D" />
    <path
        d="M27.5255 40.4821C27.3297 38.8664 26.691 37.6967 26.7549 36.1081C26.7632 35.0483 26.9312 33.9934 26.9673 32.9398C26.9395 32.1939 26.8062 31.4465 27.0367 30.7055C27.1173 30.4054 27.3381 29.8233 27.5519 29.5143C27.2687 29.7888 27.0742 30.0791 26.8785 30.3743C26.0619 31.6194 26.2758 32.9529 25.8398 34.2367C25.1677 36.2761 25.8064 38.2761 26.2133 40.0977C26.3633 41.2632 26.5146 42.4364 27.2409 43.5584C28.2518 45.1125 29.9459 46.538 31.3984 47.998C29.5751 45.4478 27.4714 43.051 27.5255 40.4821Z"
        fill="#E4C26D" />
    <path
        d="M53.8391 1.40298C51.1771 9.069 44.0383 16.4813 33.6889 22.3105C31.0353 23.8051 28.1331 25.2244 25.3267 26.5967C22.6092 27.9261 19.8 29.3004 17.2255 30.7376C13.4498 32.8462 10.4157 35.2409 8.42169 37.6349C11.4058 34.8164 15.5133 32.2896 20.4873 30.3512C23.7589 29.075 27.404 28.0235 30.9297 27.0066C32.9363 26.4273 35.0137 25.8286 36.9924 25.1961C43.2134 23.2113 47.2362 21.2244 49.5399 18.9887C49.0053 19.1256 48.4707 19.2611 47.9375 19.3966L44.8436 20.1833L46.7475 19.2169C49.3386 17.9006 51.1952 16.3002 52.8171 14.7668C54.9028 12.7959 56.8621 10.6563 57.0732 8.35764C57.2662 6.27885 57.0759 2.71234 53.8391 1.40298ZM76.1153 88.7163L88.4614 86.5082C80.6463 86.5138 73.2561 86.7474 66.0936 86.9887L65.4785 87.0095C60.7183 87.1712 55.3207 87.3565 51.2729 85.9393L49.7829 85.4187L51.5868 85.5404C52.413 85.5964 53.167 85.6178 53.8266 85.6061C47.1543 85.0897 41.3763 83.0019 35.7691 80.9756C34.0222 80.3452 32.217 79.6926 30.4284 79.1056C28.1428 78.3562 25.7183 77.6663 23.3743 76.9992C19.8694 76.0009 16.2465 74.9695 12.9888 73.7154C9.23957 72.2706 2.89083 69.2315 2.4798 65.1037L2.3923 64.2368L3.30046 64.9786C4.06697 65.6063 4.71684 66.2126 5.3445 66.7995C6.50121 67.8786 7.56072 68.8693 9.05626 69.6664C5.23618 67.0788 3.96143 63.5413 3.01579 60.0778L0.710706 51.6562C-0.159955 48.4844 -0.673744 45.6576 1.88964 43.1793L3.09773 42.0103L2.72281 43.312C2.24235 44.9739 2.32983 46.6732 2.96999 48.3164C2.96304 45.9273 3.79899 43.5049 5.36673 41.1848L5.35006 41.1834C6.66785 37.6024 10.7559 33.6882 16.5631 30.4438C19.1571 28.9962 21.9773 27.6163 24.706 26.2821C27.5013 24.9154 30.3923 23.5009 33.0252 22.0181C43.4189 16.164 50.5425 8.695 53.0809 0.986816L53.1864 0.668129L53.7447 0.833344C57.6981 2.00236 58.2188 5.58131 57.9591 8.37839C57.7397 10.7627 55.7345 12.957 53.6002 14.9728C52.2949 16.2089 50.8341 17.4893 48.9595 18.641C49.4066 18.5262 49.8538 18.4115 50.2981 18.296L51.4146 18.007L50.9105 18.5815C48.654 21.1422 44.384 23.362 37.4715 25.5673C35.4761 26.2054 33.3903 26.8068 31.3741 27.3882C27.8748 28.3982 24.2574 29.4421 21.0331 30.6982C9.28955 35.2741 2.48117 43.1917 4.09057 50.4008L4.52801 52.36L3.23103 50.4976C1.96878 48.6842 1.40221 46.7499 1.55496 44.8267C0.446847 46.846 0.906478 49.1122 1.58968 51.5967L3.8934 60.0184C5.03901 64.2077 6.66648 68.5043 12.7583 70.9785L15.3287 72.0203L12.2987 71.3511C8.25643 70.4566 6.54566 68.8575 4.56272 67.0062C4.25167 66.7165 3.93644 66.4213 3.60317 66.1213C4.84181 69.5475 10.2296 72.0936 13.5318 73.3656C16.7395 74.6017 20.336 75.6255 23.8145 76.6162C26.1709 77.2868 28.608 77.9802 30.9159 78.7372C32.7211 79.3303 34.5346 79.985 36.2898 80.6189C42.49 82.8595 48.9039 85.1768 56.4039 85.2812L57.7869 85.3005L56.6399 85.6849C55.8068 85.9635 54.6209 86.0271 53.4336 86.0499C56.9649 86.8574 61.2529 86.7115 65.4188 86.5691L66.0339 86.5483C73.9615 86.2808 82.1613 86.0036 90.947 86.0789L93.366 86.1004L83.2277 87.9137C89.0183 87.7139 95.0504 87.7941 99.6092 88.1487L99.4731 88.585C94.0673 88.164 86.5562 88.1342 79.8714 88.5068L76.1153 88.7163Z"
        fill="#E4C26D" />
    <path
        d="M109.514 92.8601C106.837 91.2659 103.859 89.7928 100.702 88.4378C98.4318 87.5239 96.1879 86.5926 93.9203 85.6829C91.268 84.7434 88.5546 83.8509 85.9218 82.9065C79.1926 80.3729 72.9619 78.1496 66.8812 75.6152C59.3785 72.4504 52.3035 68.991 47.1975 65.018C44.7786 63.0236 42.0736 61.1121 40.1406 58.9766C39.4935 58.3358 38.9964 57.7613 38.5187 57.1709C39.7143 58.1947 40.9307 59.2144 42.3207 60.1809C43.315 60.9358 44.1134 61.7474 45.1424 62.4933C46.8351 63.6064 48.6347 64.6738 50.408 65.7515C53.013 67.3623 56.0736 68.7615 58.9799 70.2354C61.1962 71.542 63.7068 72.7117 66.1174 73.925C67.9601 74.8209 70.2041 76.057 71.8968 76.6259C73.5201 77.2543 75.2142 77.9291 77.3402 78.4932C78.7857 78.9301 80.727 79.6981 81.6657 80.0217C85.6122 81.3974 89.4614 83.2515 93.655 85.069C97.5806 86.7876 101.608 88.4502 105.418 90.2386C107.804 91.4692 110.286 92.4225 111.731 93.8356C112.103 94.1536 112.379 94.5117 112.628 94.8898C111.703 94.1619 110.656 93.4865 109.514 92.8601ZM114.487 96.7128C114.091 95.6897 113.83 94.6382 112.919 93.6849C111.492 92.1149 108.688 91.0413 106.34 89.8232C102.732 88.1066 98.8582 86.5401 95.1422 84.8837C93.3787 84.1385 91.5332 83.3089 89.7155 82.5007C89.5919 82.3901 89.4781 82.2802 89.3614 82.1655C87.7395 80.422 85.8163 78.7531 83.7153 77.1479C85.0706 78.8589 86.712 80.5243 88.7421 82.0638C88.7518 82.0728 88.7602 82.077 88.7768 82.0866C86.6231 81.1416 84.5207 80.2547 82.6405 79.6193C80.7201 78.9225 78.8746 78.162 76.7556 77.6145C74.681 76.9785 73.609 76.4814 71.9788 75.8904C68.1031 74.1579 63.2624 71.6664 59.334 69.542C55.7431 67.7944 52.2229 66.0073 49.1388 64.0301C47.9418 63.2752 46.649 62.539 45.9742 62.0509C44.9105 61.2538 44.0232 60.4014 42.9234 59.6202C41.4417 58.6662 40.3183 57.5988 38.9533 56.6096C37.8883 55.8069 36.9134 54.9725 35.9928 54.1298C35.0527 53.0043 34.0946 51.7683 33.3933 50.5509C33.6419 51.191 33.9266 51.8256 34.2459 52.4575C33.9182 52.1312 33.921 51.3708 33.5933 51.0451C34.0279 51.6618 34.1821 52.6953 34.6972 53.2988C36.6996 56.9677 39.8212 60.4941 44.0593 63.6506C48.3584 67.4017 54.1212 70.673 60.4338 73.6166C68.5739 77.3332 76.5959 80.1703 85.3817 83.4679C87.8104 84.3279 91.2319 85.49 93.1829 86.1682C95.6463 87.1789 98.1403 88.1723 100.595 89.1913C105.535 91.4478 109.956 93.7339 113.334 96.466C113.45 96.5538 113.557 96.6506 113.664 96.7529L114.487 96.7128Z"
        fill="#E4C26D" />
    <path
        d="M54.2184 57.4163C54.2003 55.7529 53.8657 54.0938 54.0587 52.4298C53.8546 50.3379 53.6435 48.2459 53.8907 46.1492C53.1825 48.277 53.1464 50.4174 53.12 52.5667C52.8284 54.2217 53.1741 55.8718 53.3324 57.5227C53.5907 59.0588 53.6074 60.6046 53.9268 62.1359C53.9615 62.223 53.9879 62.3785 53.9615 62.4048C54.0337 62.326 53.9962 62.232 53.9962 62.149C54.0767 60.5728 54.335 58.9966 54.2184 57.4163Z"
        fill="#E4C26D" />
    <path
        d="M50.0357 50.9023C50.0357 50.9067 50.0269 50.9067 50.0166 50.9067H50.0269C50.0269 50.9067 50.0269 50.9067 50.0357 50.9023Z"
        fill="#E4C26D" />
    <path
        d="M49.7688 43.2493C49.8924 45.0239 50.1229 46.8027 49.8215 48.5724C49.7327 49.3495 50.016 50.1307 49.9368 50.9063C49.9535 50.916 49.9896 50.916 50.0159 50.9063C50.2298 49.7684 50.2368 48.9084 50.5214 47.8175C50.7422 46.2911 50.2826 44.755 49.7688 43.2493Z"
        fill="#E4C26D" />
    <path
        d="M48.3253 44.0842C48.2003 42.7686 47.6685 41.7054 47.4908 40.4161C47.3047 41.8464 47.8004 43.2629 47.7199 44.6926C47.7032 45.695 47.2783 46.472 47.0742 47.5581C47.0658 47.6507 47.0533 47.7779 47.0658 47.8408C47.0825 47.7745 47.1006 47.7074 47.1256 47.6369C47.6866 46.4672 48.4308 45.3023 48.3253 44.0842Z"
        fill="#E4C26D" />
    <path
        d="M35.2378 43.6464C33.2882 44.6349 32.8355 46.1621 32.9702 47.4956C33.4923 46.2022 33.9353 44.7939 35.2114 43.6816C35.2378 43.6595 35.3461 43.6118 35.3461 43.6076C35.3086 43.6242 35.2739 43.6346 35.2378 43.6464Z"
        fill="#E4C26D" />
    <path
        d="M30.1235 45.373C31.2761 44.0443 31.9496 42.6313 32.5522 41.2238C31.2941 42.5297 30.6276 43.951 30.1235 45.373Z"
        fill="#E4C26D" />
    <path
        d="M37.5244 37.8652C38.2604 36.5718 38.7936 35.2382 39.5199 33.9538C38.1715 35.138 37.6494 36.5185 37.5244 37.8652Z"
        fill="#E4C26D" />
    <path
        d="M14.8912 54.5006C13.9789 53.7008 12.675 53.0482 11.5391 52.3285C10.3865 51.5349 8.75631 50.1661 7.93286 49.0586C8.38416 50.3382 9.41171 51.6047 10.9989 52.6369C12.2681 53.3655 13.7831 53.9746 15.0065 54.7205C15.1495 54.8 15.3258 54.9016 15.4314 54.959C15.2453 54.8048 15.0675 54.6493 14.8912 54.5006Z"
        fill="#E4C26D" />
    <path
        d="M8.63965 52.5309C9.67694 54.0498 11.6113 55.3909 13.8997 56.5088C12.2056 55.1628 10.3532 53.8686 8.63965 52.5309Z"
        fill="#E4C26D" />
    <path
        d="M39.6276 62.5679C38.3321 62.1441 36.6754 62.18 35.2493 61.916C32.5096 61.3595 29.3866 60.1987 26.5691 59.3332C29.2533 60.5285 32.0291 61.9678 35.6645 62.3619C36.9059 62.4932 38.4487 62.4089 39.5124 62.6571C39.8484 62.7276 40.2039 62.8285 40.5052 62.9087C40.2303 62.7898 39.9373 62.6702 39.6276 62.5679Z"
        fill="#E4C26D" />
    <path
        d="M30.8418 58.4807C32.0735 58.9057 33.4635 59.2278 34.8757 59.4531C33.5552 59.0322 32.2596 58.733 30.8418 58.4807Z"
        fill="#E4C26D" />
    <path
        d="M44.6446 64.8447C43.7836 64.5855 42.9143 64.3207 41.9645 64.1534C41.0536 63.9888 39.8566 63.9626 39.2081 63.9149C37.2683 63.7462 35.3686 63.4724 33.4371 63.2657C30.0252 62.9484 26.8606 62.2322 23.5348 61.7649C20.4577 61.4075 17.3194 61.1828 14.1895 60.9574C17.5416 61.4393 20.9548 61.8181 24.2333 62.4002C27.3646 63.0092 30.4849 63.6411 33.8273 63.8886C35.7088 64.0414 37.5779 64.2591 39.4747 64.2979C41.2494 64.2536 42.7644 64.4617 44.3238 64.8288C44.5987 64.8889 45.0167 64.9698 45.2389 64.9878C45.032 64.947 44.8376 64.8993 44.6446 64.8447Z"
        fill="#E4C26D" />
    <path
        d="M45.8579 66.7924C39.5827 64.7655 31.7898 64.8588 24.5815 64.8554C29.0432 65.1907 33.0118 65.3089 37.3027 65.7285C40.0785 65.8522 42.7655 66.1979 45.558 66.7883C45.7801 66.8277 46.2314 66.9072 46.33 66.8941C46.1606 66.8719 46.0106 66.8312 45.8579 66.7924Z"
        fill="#E4C26D" />
    <path
        d="M36.0799 73.7403C33.2624 73.5191 30.3963 73.6995 27.5607 73.6021C23.8615 73.4403 19.6623 72.8258 15.6104 72.438C20.2192 73.2758 24.9807 74.3569 30.0075 74.07C32.2251 73.9732 33.7762 73.8143 36.1424 73.7873C36.3007 73.7839 36.4687 73.7839 36.6298 73.779C36.4437 73.7666 36.2563 73.7521 36.0799 73.7403Z"
        fill="#E4C26D" />
    <path
        d="M48.8997 76.3395C47.7472 76.3485 45.6545 76.3837 44.9713 76.3215C40.5486 75.797 35.8925 75.58 31.4087 76.052C34.8205 75.9995 37.7922 76.202 40.7069 76.4273C42.3385 76.5379 43.9424 76.7846 45.6031 76.7715C46.6307 76.7666 47.836 76.6478 48.597 76.5994C49.4843 76.5254 51.0632 76.4812 51.7714 76.3167C50.8326 76.3927 49.8565 76.3312 48.8997 76.3395Z"
        fill="#E4C26D" />
    <path
        d="M71.8621 79.7499C71.1344 79.709 70.4068 79.8116 69.6805 79.8116C66.5506 79.8296 63.4304 79.7762 60.3032 79.8081C63.554 80.0818 66.8811 80.3866 70.186 80.2141C72.1537 79.9758 73.9547 80.1476 76.0904 80.3555C75.0184 80.1033 73.2534 79.8157 71.8621 79.7499Z"
        fill="#E4C26D" />
    <path
        d="M45.6367 82.2837C50.2025 82.2623 55.4973 82.3189 59.4062 81.1807C55.0085 81.8379 50.265 81.728 45.6367 82.2837Z"
        fill="#E4C26D" />
</svg>