<svg width="143" height="143" viewBox="0 0 143 143" fill="none" xmlns="http://www.w3.org/2000/svg">
<rect width="143" height="143" rx="4" fill="#008386"/>
<path d="M36.4334 85.6422V54.2217C46.2036 49.8145 65.7944 41 71.0501 41C76.3057 41 96.7388 49.8145 105.667 54.2217V85.5465C105.667 86.6484 105.215 87.7322 104.414 88.4896C77.0435 114.39 49.2809 99.9963 37.573 88.4446C36.8258 87.7074 36.4334 86.6919 36.4334 85.6422Z" stroke="white" stroke-width="3.1" stroke-linejoin="round"/>
<path d="M24.6625 53.5619C24.6294 51.688 26.5403 50.4036 28.2631 51.1419L35.9167 54.422V81.5696L26.2011 75.3596C25.4721 74.8936 25.0248 74.0936 25.0095 73.2285L24.6625 53.5619Z" stroke="white" stroke-width="3.1"/>
<path d="M117.438 53.5619C117.471 51.688 115.56 50.4036 113.837 51.1419L106.183 54.422V81.5696L115.899 75.3596C116.628 74.8936 117.075 74.0936 117.09 73.2285L117.438 53.5619Z" stroke="white" stroke-width="3.1"/>
<path d="M71.5666 61.6667V82.3334" stroke="white" stroke-width="3.1" stroke-linecap="round"/>
<path d="M61.2334 71.9999H81.9001" stroke="white" stroke-width="3.1" stroke-linecap="round"/>
</svg>
