<svg width="235" height="507" viewBox="0 0 235 507" fill="none" xmlns="http://www.w3.org/2000/svg">
<path d="M6.80818 357.241C9.45207 365.021 13.8007 375.476 16.8486 381.387C19.0282 386.583 21.1086 391.839 24.1672 396.609C26.2865 400.55 29.3912 403.715 32.5809 406.795C36.444 411.154 40.4061 415.432 45.2793 418.742C51.609 423.785 59.5514 426.046 66.3844 430.278C70.1235 432.748 73.2812 434.01 76.5666 435.707C83.7186 439.918 90.619 444.532 97.5194 449.154C100.348 450.802 103.764 452.978 106.908 455.08C105.075 454.81 103.495 454.672 102.747 454.69C99.2808 454.445 95.6197 453.222 91.2073 453.701C88.4713 454.062 85.7564 454.81 83.2649 455.98C82.9034 456.072 82.269 456.483 82.9034 456.168C82.6943 456.21 82.5171 456.302 82.3647 456.433C81.702 456.866 81.5921 457.816 81.9501 458.45C82.2265 458.904 82.7192 459.198 83.2473 459.219C83.4883 459.467 86.1641 460.282 87.2273 460.938C92.0189 463.358 97.3599 464.198 102.474 465.669C107.496 467.615 110.824 468.565 115.236 471.46C117.565 472.974 120.737 477.344 122.367 479.651C124.578 482.663 126.46 484.471 128.495 488.816C130.331 493.026 133.751 496.262 137.614 498.636C141.438 501.351 143.745 503.726 149.015 506.058C153.885 507.486 159.066 506.348 163.769 504.885C165.424 504.364 167.324 503.86 168.816 503.297C168.072 503.481 167.324 503.637 166.576 503.701C157.801 505.292 150.897 506.309 145.152 500.873C145.85 501.532 144.535 500.288 144.248 500.175C144.021 499.976 143.678 499.657 143.589 499.608C143.298 499.359 142.955 499.203 142.636 498.948C143.632 499.632 139.673 496.301 140.534 497.098C137.681 494.968 134.81 493.001 133.541 491.123C131.419 488.476 130.469 485.13 128.431 482.412C124.965 478.293 123.2 474.675 118.387 470.036C114.325 466.484 109.016 464.946 104.104 462.955C101.184 461.845 98.0864 461.459 95.0987 460.576C91.8382 459.651 89.9846 458.787 87.4718 457.66C91.0939 456.589 95.2298 456.483 98.7207 457.256C104.033 458.135 110.147 457.816 114.942 460.598C116.413 461.03 117.614 459.06 116.487 457.979C113.602 455.966 110.827 453.789 107.907 451.822C98.5116 446.226 89.5983 439.918 80.2808 434.219C76.9104 431.954 74.5926 431.501 71.612 429.714C67.6497 427.407 63.7831 425.004 59.5763 423.154C53.009 420.344 46.5162 416.272 42.1038 412.246C38.2584 408.694 35.0688 404.505 31.2164 400.979C25.5388 394.865 22.218 385.619 18.5746 377.673C14.7966 369.748 11.4686 362.125 8.98067 352.967C5.3338 337.167 3.52992 323.119 3.21097 306.784C3.0054 301.287 3.50162 295.787 4.04385 290.307C4.88736 293.43 4.83762 296.503 5.60669 299.696C7.94225 306.784 12.1244 313.231 16.5828 319.135C24.2487 329.877 36.5112 346.223 45.8393 358.645C38.099 344.926 29.2493 331.788 20.0418 319.047C15.6542 313.571 10.2672 306.667 6.85422 299.469C5.8158 296.804 4.97595 291.867 4.04385 290.283C4.22461 288.341 4.43011 286.395 4.61441 284.453C4.95464 280.986 6.85426 275.646 7.87851 271.006C9.16147 266.211 10.9973 263.681 12.6701 258.861C14.8391 251.978 15.9272 244.854 17.7346 237.88C20.0241 229.689 18.8226 221.137 18.7943 212.759C20.6726 199.66 28.895 185.317 37.7162 173.147C42.4901 164.294 46.2681 154.909 49.5003 145.407C51.2015 136.696 52.7644 129.661 57.4249 122.434C59.5513 119.043 61.5007 116.328 63.6236 114.768C66.1576 113.113 69.3756 112.571 72.4483 110.012C74.6705 108.343 76.0032 105.809 76.8821 103.179C76.7935 108.456 76.9104 113.748 77.1372 119.018C78.3741 111.281 78.849 103.477 78.895 95.6657C80.4367 88.4996 81.1385 81.6843 84.6684 76.0953C83.4634 83.8816 83.0841 91.7743 83.357 99.582C84.9164 91.5971 85.4835 83.4244 85.1929 75.3049C85.5225 74.83 85.8911 74.3551 86.249 73.905C88.9922 69.808 95.0561 65.4878 98.8766 60.6855C104.356 53.8773 109.714 45.3006 114.13 36.3872C114.084 38.3329 114.244 40.3212 114.219 42.2031C114.265 47.5653 113.921 52.9062 113.946 58.2436C113.946 60.3488 114.733 61.5255 115.374 63.379C116.913 69.964 120.418 75.9145 123.696 81.78C125.805 84.7358 127.155 88.1274 128.973 91.2781C130.873 94.3332 132.709 97.413 134.534 100.511C139.223 108.024 147.569 114.836 151.783 121.038C157.801 131.536 162.234 142.912 168.437 153.325C171.917 158.393 175.447 163.436 179.296 168.235C182.074 171.718 184.633 173.962 186.604 177.017C189.839 182.014 192.643 187.288 195.85 192.288C197.282 195.113 198.71 197.945 200.248 200.702C199.678 201.205 199.139 201.723 198.576 202.198C194.255 205.526 189.889 209.803 186.575 214.645C183.864 218.738 183.166 222.495 181.057 226.117C176.351 234.017 168.777 241.796 161.012 249.582C169.812 243.157 178.863 236.001 184.36 226.432C186.171 222.697 186.877 219.532 188.5 216.495C191.739 210.934 194.84 207.22 199.405 202.332C199.728 201.95 200.085 201.524 200.45 201.071C201.354 202.673 202.283 204.278 203.303 205.841C209.183 217.221 214.57 228.92 218.777 239.106C222.626 249.873 226.517 259.892 229.303 271.729C230.884 276.099 230.359 279.65 231.472 284.424C230.721 285.672 230.068 286.937 229.367 288.202C226.22 294.38 222.558 303.456 222.172 308.886C221.151 312.121 219.865 315.286 219.025 318.568C218.171 321.51 217.827 324.582 217.058 327.556C214.751 334.839 213.893 340.336 211.898 347.803C211.015 351.556 211.178 353.619 209.91 357.62C208.46 361.739 205.04 366.201 202.556 369.596C199.749 373.693 199.649 375.653 197.505 379.254C194.319 384.821 190.155 389.436 186.901 393.263C185.197 395.23 181.376 401.206 179.856 403.148C175.426 408.51 170.854 413.468 167.349 418.31C164.109 422.609 161.398 427.223 158.41 431.681C156.355 435.148 153.952 438.383 151.687 441.679V441.658C153.091 438.199 156.192 432.723 158.662 428.609C158.705 428.424 159.406 427.496 159.672 427.134C159.722 427.088 159.768 427.042 159.789 427L160.104 426.748C160.062 426.773 160.037 426.773 159.991 426.794C160.626 426.227 160.714 425.189 160.104 424.572C159.651 424.101 158.882 423.987 158.297 424.31C158.272 424.327 158.254 424.327 158.208 424.349C158.045 424.444 157.85 424.533 157.726 424.572C156.511 425.096 155.377 425.777 154.898 427.088C154.81 427.177 154.763 427.269 154.739 427.315C154.7 427.358 154.654 427.432 154.607 427.471C153.952 428.244 153.562 429.193 152.998 430.03C149.582 434.464 144.762 440.01 143.972 446.57C143.539 448.108 143.525 454.374 143.266 455.916C142.593 458.021 141.622 460.194 140.669 462.363C140.874 461.161 141.055 459.921 141.165 458.787C141.37 456.118 141.707 453.587 141.689 452.092C141.392 450.958 140.261 449.965 139.109 450.646C138.379 451.029 138.315 451.961 138.11 452.659C137.84 453.676 137.429 454.647 137.075 455.643C134.534 462.143 133.198 469.04 132.882 475.986C132.638 474.923 132.432 473.881 132.095 472.843C129.466 461.097 125.51 449.763 119.808 439.149C115.913 432.068 113.992 425.508 110.53 417.7C106.163 407.518 105.664 395.028 104.172 384.261C104.016 381.543 103.381 379.03 103.424 376.34C103.424 375.135 103.133 378.442 103.154 378.74C103.204 390.23 102.651 401.996 105.621 413.195C106.681 417.225 108.63 420.684 109.739 423.604C110.824 426.886 112.153 430.079 113.581 433.198C107.429 429.647 101.744 425.295 95.4389 421.999C86.8622 417.268 77.9523 412.99 70.0064 407.245C67.1534 405.009 63.985 402.719 60.9761 399.536C57.9884 396.223 55.2701 392.562 51.361 390.276C50.7266 389.84 49.9327 389.461 49.2558 389.255C50.1135 389.663 50.8826 390.254 51.5808 390.889C57.1982 395.929 59.8633 402.719 66.3561 407.695C74.4579 414.96 84.5124 419.468 94.3047 423.899C100.865 426.748 107.003 430.483 113.602 433.244C115.35 437.047 117.246 440.8 119.152 444.532C124.72 455.101 128.36 465.489 132.298 477.234C132.386 477.57 132.609 478.18 132.953 478.269C134.399 489.766 142.955 505.586 156.355 499.019C151.73 500.784 145.942 499.902 142.657 496.01C138.95 490.79 137.047 486.211 136.122 480.041C135.53 475.937 135.966 471.46 136.979 466.871C137.004 467.112 137.047 467.363 137.142 467.615C137.663 468.724 137.954 470.128 139.021 470.78C139.673 471.117 140.576 470.737 140.828 470.057C140.892 469.288 142.909 463.068 143.337 462.387C144.744 459.559 146.279 456.689 146.148 453.453C146.254 449.377 146.917 445.351 147.973 442.746C148.335 441.842 148.795 441.006 149.267 440.187C149.107 440.641 148.926 441.095 148.838 441.569C148.838 441.818 148.884 442.069 148.994 442.292C149.132 442.541 149.444 443.402 149.175 442.721C149.224 442.856 149.242 442.994 149.267 443.125C149.511 444.465 149.788 446.772 151.62 446.166C160.966 433.517 167.161 422.339 176.46 411.951C181.266 406.795 186.494 398.966 188.999 395.549C193.022 391.116 200.493 381.901 202.375 376.287C204.778 370.344 210.477 365.924 213.096 357.826C213.978 354.728 214.184 352.06 214.616 349.93C215.566 345.539 216.941 341.222 217.629 336.763C218.192 334.864 220.092 328.616 220.747 325.11C221.587 320.085 223.232 315.311 224.866 310.516C225.971 303.066 229.87 293.292 233.85 286.441C234.304 286.26 234.619 285.874 234.725 285.307C234.725 285.264 234.754 285.243 234.754 285.193C234.754 285.126 234.796 285.062 234.796 284.991C234.818 284.945 234.818 284.878 234.818 284.789C234.842 284.765 234.864 284.722 234.864 284.697C235.207 283.992 234.864 283.202 234.254 282.798C234.091 281.848 233.91 280.717 233.8 279.105C233.488 274.04 231.812 269.224 230.568 264.333C228.194 256.029 225.677 248.608 222.782 241.392C221.474 236.593 218.802 231.724 217.373 228.265C212.826 216.725 206.695 205.933 200.766 195.095C197.084 187.968 192.845 181.061 188.5 174.295C185.608 170.319 180.94 165.722 178.959 162.734C174.072 156.217 169.316 149.589 165.984 142.125C161.373 133.704 158.155 124.334 152.392 116.622C148.632 111.919 142.792 106.394 139.97 102.796C137.047 99.0858 135.016 94.8116 132.386 90.9166C127.566 81.4149 121.052 72.6149 118.561 63.2195C116.657 57.9707 116.913 58.1054 117.246 51.3433C117.405 48.0863 117.295 44.0814 117.246 40.5267C127.318 37.6064 137.298 32.9707 144.174 24.8973C148.497 18.5321 151.687 10.5472 149.175 2.89905C148.926 1.94214 148.409 0.659202 148.09 0C148.607 1.94216 148.795 3.76026 148.816 5.81938C149.082 10.5259 147.505 13.7121 145.283 17.9685C143.065 21.8812 141.551 24.1884 137.954 27.0627C132.138 32.471 124.965 36.6105 117.228 40.346C117.203 37.2945 117.228 34.5975 117.565 33.0416C118.337 30.4331 122.657 27.0166 125.709 24.5322C128.402 22.3101 132.819 18.649 137.568 18.1705C139.744 17.809 145.56 16.2248 147.257 15.8208C144.808 16.0016 139.4 17.2668 136.915 17.2881C132.159 17.5149 128.133 19.8682 124.38 22.6042C122.392 24.1672 120.304 25.3438 118.224 27.2186C118.224 27.2186 118.224 27.2187 118.224 27.2009C118.224 27.2009 118.224 27.2186 118.196 27.2186C117.657 27.7219 117.118 28.2393 116.569 28.8737C115.286 30.2524 114.623 31.8614 114.325 33.5838C108.495 42.7878 101.591 52.3392 96.3497 58.7859C91.4766 64.421 85.115 68.7873 81.3795 75.3722C76.953 82.386 76.4107 96.1194 73.4655 103.339C71.2753 109.222 66.1541 109.091 60.7281 113.021C56.8083 116.831 54.0048 121.626 51.6586 126.514C48.7348 132.074 47.7814 138.298 46.4984 144.365C44.2763 151.262 42.0791 156.536 39.3678 162.49C37.2166 168.125 34.1614 173.239 30.387 177.921C27.0307 183.166 24.2486 188.755 21.3779 194.255C18.8474 199.848 16.604 205.682 15.7215 211.792C15.399 220.797 16.9691 229.42 14.6123 237.27C12.8686 244.061 11.7841 251.028 9.70367 257.723C8.48097 261.437 6.10649 265.446 4.8129 270.195C3.86308 274.625 2.22922 278.924 1.58064 283.432C0.83284 290.626 0.0354309 297.867 -1.52588e-05 305.104C0.308334 322.708 2.37097 340.223 6.80818 357.241Z" fill="#E4C26D"/>
<path d="M158.272 424.257C158.47 424.147 158.573 424.101 158.183 424.31C158.208 424.281 158.229 424.281 158.272 424.257Z" fill="#E4C26D"/>
<path d="M158.545 424.146C158.545 424.146 158.364 424.221 158.272 424.256C158.364 424.221 158.449 424.168 158.545 424.146Z" fill="#E4C26D"/>
<path d="M158.183 424.31L158.208 424.282L158.183 424.31Z" fill="#E4C26D"/>
<path d="M158.254 424.28C158.254 424.28 158.272 424.28 158.272 424.255C158.254 424.28 158.229 424.28 158.183 424.309C158.208 424.28 158.229 424.28 158.254 424.28Z" fill="#E4C26D"/>
<path d="M84.3667 278.903C84.7742 287.728 85.5044 296.553 87.7903 305.104C93.2659 327.308 98.1036 349.64 104.125 371.673C101.414 346.018 94.4851 321.11 89.0768 295.94C87.9923 290.56 87.9462 284.903 87.0673 278.563C86.1636 271.439 84.0265 264.443 84.1045 257.206C84.1045 255.533 84.1045 253.697 84.1045 252.088C83.8777 253.811 83.6224 255.508 83.3991 257.227C82.4316 264.468 83.8563 271.691 84.3667 278.903Z" fill="#E4C26D"/>
<path d="M80.2556 177.531C81.7016 196.52 83.4418 211.863 83.3745 231.5C84.4838 221.478 84.8489 211.363 84.9162 201.269C84.1861 194.213 83.7608 187.125 83.3319 180.047C82.6515 170.251 84.5121 160.494 84.5298 150.702C85.1465 137.887 83.7005 124.837 87.0461 113.432C89.7822 104.671 91.6393 95.6906 93.9429 86.8162C96.1615 79.7635 99.6702 73.8803 102.52 66.4341C103.672 63.131 104.788 59.3105 105.752 56.252C104.246 59.353 102.888 62.5215 101.389 65.6403C98.1995 71.9062 94.2406 77.793 91.6393 84.3318C93.1101 78.5195 94.3682 72.654 95.1479 66.7106C91.3167 76.7971 88.4885 87.2521 87.9038 98.0687C88.0349 97.5442 88.1945 97.0551 88.3291 96.5306C87.9038 98.4302 87.4714 100.309 86.9291 102.162C85.3697 108.251 83.1476 114.201 82.2687 120.45C81.411 129.023 81.7193 137.646 81.4571 146.244C81.7016 156.692 80.0075 167.079 80.2556 177.531Z" fill="#E4C26D"/>
<path d="M67.2418 161.1C69.5064 147.441 71.4096 132.981 68.6063 119.361C68.5496 133.279 66.8625 147.168 67.2418 161.1Z" fill="#E4C26D"/>
<path d="M74.9854 224.482C72.6073 213.691 69.1482 201.903 64.8918 192.309C66.9048 203.395 70.1229 214.251 74.9854 224.482Z" fill="#E4C26D"/>
<path d="M51.2012 190.797C50.588 182.985 48.6885 175.249 47.1751 167.671C46.8349 175.543 48.7557 183.372 51.2012 190.797Z" fill="#E4C26D"/>
<path d="M106.549 162.893C109.264 157.804 112.978 153.345 116.072 148.479C120.449 141.987 124.266 136.217 129.111 130.475C130.167 128.955 131.826 126.69 132.386 125.489C131.73 126.396 130.961 127.211 130.213 128.048C124.38 133.885 118.766 139.906 113.921 146.626C110.122 151.828 105.982 156.854 103.104 162.67C96.2714 176.194 92.5182 191.04 87.0674 205.156C94.9211 191.2 99.7766 176.247 106.549 162.893Z" fill="#E4C26D"/>
<path d="M124.628 100.355C116.097 110.718 108.332 121.868 100.645 134.006C110.395 124.136 118.312 112.618 124.628 100.355Z" fill="#E4C26D"/>
<path d="M103.041 97.1611C98.738 102.552 94.875 108.385 90.5973 113.765C95.637 109.402 100.485 102.162 103.041 97.1611Z" fill="#E4C26D"/>
<path d="M170.042 212.451C166.168 215.34 162.167 218.26 159.537 222.403C153.817 230.98 151.687 241.346 147.519 250.688C156.528 237.657 158.272 223.243 170.042 212.451Z" fill="#E4C26D"/>
<path d="M144.716 264.967C138.794 271.978 133.839 280.083 128.115 287.635C135.26 281.44 140.328 273.229 144.716 264.967Z" fill="#E4C26D"/>
<path d="M118.468 327.488C112.996 335.086 108.853 343.734 105.575 352.08C110.87 344.453 114.967 336.011 118.468 327.488Z" fill="#E4C26D"/>
<path d="M149.444 283.406C139.021 290.579 131.28 301.19 123.859 311.468C133.297 303.115 141.144 292.437 149.444 283.406Z" fill="#E4C26D"/>
<path d="M21.4699 269.085C27.2184 281.773 34.59 293.589 42.3091 305.149C36.7236 292.642 30.5214 280.355 23.8656 268.379C20.1833 262.865 16.5826 257.474 15.5193 251.364C15.5193 257.705 18.4609 263.609 21.4699 269.085Z" fill="#E4C26D"/>
<path d="M112.408 444.604C102.52 438.809 92.4686 432.359 81.7016 428.627C91.8661 434.943 100.103 440.549 112.408 444.604Z" fill="#E4C26D"/>
<path d="M107.113 421.319C106.684 420.957 106.188 420.596 105.709 420.323C106.142 420.709 106.613 421.028 107.113 421.319Z" fill="#E4C26D"/>
<path d="M143.227 433.758C145.378 431.025 147.161 428.512 149.947 426.205C140.622 432.496 134.31 442.313 127.52 451.078C133.155 445.683 138.407 439.896 143.227 433.758Z" fill="#E4C26D"/>
<path d="M149.174 424.665C139.79 430.278 131.73 437.615 123.905 445.174C133.091 439.394 141.236 432.047 149.174 424.665Z" fill="#E4C26D"/>
<path d="M193.213 354.974C200.588 347.308 207.489 338.887 212.688 329.566C207.237 336.491 200.674 342.463 194.975 349.204C189.116 355.973 182.393 362.306 176.35 368.647C182.01 364.298 188.212 360.247 193.213 354.974Z" fill="#E4C26D"/>
<path d="M178.526 336.713C188.368 331.641 197.164 324.925 205.131 317.305C213.485 309.271 221.133 299.404 224.252 288.13C218.982 299.787 209.526 308.952 200.265 317.614C194.474 323.231 188.053 329.182 182.46 333.233C180.429 334.771 177.959 336.67 176.102 337.964C176.914 337.553 177.729 337.149 178.526 336.713Z" fill="#E4C26D"/>
<path d="M54.547 149.273C57.3114 158.821 60.7527 168.234 63.0103 177.938C62.4467 167.965 60.2281 158.144 57.1731 148.639C56.6981 146.332 56.723 141.806 56.2481 138.343C56.1382 134.771 56.4927 132.733 57.1094 129.519C57.3787 128.161 57.6763 126.602 57.7649 125.333C57.6019 125.925 57.4247 126.513 57.2156 127.098C56.0213 130.405 54.756 133.704 54.4122 137.213C54.3059 141.2 54.0508 145.269 54.547 149.273Z" fill="#E4C26D"/>
<path d="M61.9717 161.741C64.0804 169.655 68.9217 176.446 72.8096 183.551C70.2047 176.991 67.3553 171.626 65.2749 165.342C64.0345 160.515 62.6061 153.98 62.039 150.244C61.1565 142.015 60.0048 133.406 61.6811 125.829C61.7201 124.879 61.9505 124.043 62.1773 123.135C62.1773 123.096 62.1525 122.958 62.1525 123.068C62.0391 123.639 61.6564 124.11 61.5181 124.677C57.29 136.489 58.6013 149.84 61.9717 161.741Z" fill="#E4C26D"/>
<path d="M72.469 129.427C72.6923 142.71 76.5448 154.048 77.0445 166.736C78.1042 153.729 75.1873 138.344 74.3686 127.644C73.5535 121.938 72.4265 116.898 73.4933 111.051C73.5181 110.835 73.5819 110.672 73.5535 110.558C72.9014 112.461 72.3768 114.425 72.1039 116.413C71.5935 120.74 72.1784 125.107 72.469 129.427Z" fill="#E4C26D"/>
<path d="M104.419 88.0213C107.722 80.5538 110.008 72.7285 111.706 64.7578C108.127 72.7497 104.877 80.894 102.651 89.3573C102.134 91.1436 101.591 93.9044 100.62 94.9677C102.651 93.2204 103.268 90.3497 104.419 88.0213Z" fill="#E4C26D"/>
<path d="M110.122 106.872C115.374 99.5142 119.283 91.2564 124.851 84.1328C117.231 90.8949 111.66 99.7658 106.709 108.591C104.919 112.301 102.201 115.81 101.591 119.925C103.54 115.105 107.496 111.348 110.122 106.872Z" fill="#E4C26D"/>
<path d="M107.091 144.135C111.029 137.873 112.95 130.044 117 124.724C111.571 129.909 109.101 137.214 104.649 143.143C95.4382 154.03 90.597 167.512 83.4415 179.661C92.4293 168.554 98.7449 155.65 107.091 144.135Z" fill="#E4C26D"/>
<path d="M149.926 416.86C155.54 413.128 160.966 409.031 164.992 403.556C167.778 400.299 170.152 396.765 172.282 393.079C173.569 391.205 175.606 389.167 177.577 387.292C178.254 386.633 179.342 385.725 179.792 385.293C178.367 386.204 176.914 387.129 175.578 388.174C172.732 390.205 170.379 392.764 168.455 395.709C167.186 397.424 163.727 401.185 161.621 403.488C151.305 413.965 139.131 421.432 126.96 430.597C134.878 426.475 142.547 421.861 149.926 416.86Z" fill="#E4C26D"/>
<path d="M178.799 397.041C182.616 392.356 186.444 388.237 191.576 385.367C191.806 385.229 191.966 385.186 192.125 385.076C190.764 385.48 189.495 386.09 188.212 386.678C183.364 388.985 179.561 392.877 175.808 396.609C168.206 403.892 161.256 411.816 153.789 419.234C162.982 412.897 171.374 405.37 178.799 397.041Z" fill="#E4C26D"/>
<path d="M14.8424 272.708C15.7639 281.139 18.0994 289.362 21.1792 297.254C19.797 288.972 18.3688 280.668 16.3557 272.524C15.6363 269.401 14.9275 266.325 15.4308 263.312C14.2506 266.275 14.5022 269.607 14.8424 272.708Z" fill="#E4C26D"/>
</svg>
