<svg width="143" height="143" viewBox="0 0 143 143" fill="none" xmlns="http://www.w3.org/2000/svg">
<rect width="143" height="143" rx="4" fill="#008386"/>
<path d="M60.5685 65.7525V64.2573C60.5685 61.5134 59.5869 58.86 57.8012 56.7767L51.9475 49.9473H37.579L31.1711 56.6756C29.1355 58.813 28.0001 61.6515 28.0001 64.603V111.252C28.0001 114.427 30.5733 117 33.7475 117H54.8211C57.9953 117 60.5685 114.427 60.5685 111.252V107.9" stroke="white" stroke-width="2.6" stroke-linecap="round" stroke-linejoin="round"/>
<path d="M38.4 43.2422C38.4 41.8441 39.5334 40.7106 40.9316 40.7106H47.6368C49.035 40.7106 50.1684 41.8441 50.1684 43.2422V49.6054H38.4V43.2422Z" fill="#008386" stroke="white" stroke-width="2.6"/>
<rect x="41.2737" y="34.0056" width="6.02104" height="6.02104" fill="#008386" stroke="white" stroke-width="2.6"/>
<path d="M62.9633 26H32.7897C31.7316 26 30.8739 26.8577 30.8739 27.9158V31.2684C30.8739 32.3265 31.7316 33.1842 32.7897 33.1842H62.0054C62.5345 33.1842 62.9633 33.6131 62.9633 34.1421V38.4526C62.9633 38.9817 63.3922 39.4105 63.9212 39.4105H68.7107C69.2397 39.4105 69.6686 38.9817 69.6686 38.4526V32.7053C69.6686 29.002 66.6665 26 62.9633 26Z" fill="#008386" stroke="white" stroke-width="2.6" stroke-linecap="round" stroke-linejoin="round"/>
<path d="M67.1283 58.2257C63.968 53.7806 64.6959 47.7437 68.6284 44.1611L72.5711 49.7068C75.2833 53.5217 74.3893 58.8131 70.5744 61.5253C70.1707 61.8123 69.6109 61.7177 69.3239 61.3141L67.1283 58.2257Z" fill="#008386" stroke="white" stroke-width="2.6"/>
<path d="M115.168 98.3213L101.894 84.3402C99.3631 78.9393 91.8335 71.1081 81.9628 82.99C77.1433 82.99 73.3939 82.99 70.6257 82.99C67.4516 82.99 64.8789 85.5632 64.8789 88.7374V89.0601C64.8789 91.1762 66.5944 92.8917 68.7105 92.8917H83.3865" stroke="white" stroke-width="2.6" stroke-linecap="round" stroke-linejoin="round"/>
<path d="M104.631 117L94.5395 106.908C93.6413 106.01 92.4231 105.506 91.1529 105.506H67.0351C64.4331 105.506 61.9431 104.447 60.1375 102.573L40.5814 82.2793C38.9555 80.5921 39.0933 77.8821 40.882 76.3686V76.3686C42.523 74.9801 44.9621 75.1129 46.4426 76.6713L60.589 91.5623C61.4932 92.5141 62.7485 93.053 64.0614 93.053H73.021" stroke="white" stroke-width="2.6" stroke-linecap="round" stroke-linejoin="round"/>
<path d="M47.6368 76.7686L49.0396 75.3658C50.91 73.4954 53.9425 73.4954 55.8129 75.3658L65.8367 85.3896" stroke="white" stroke-width="2.6" stroke-linecap="round" stroke-linejoin="round"/>
<path d="M55.3001 74.8525L57.2407 72.9119C59.088 71.0646 62.0748 71.0384 63.9541 72.853L74.458 82.9946" stroke="white" stroke-width="2.6" stroke-linecap="round" stroke-linejoin="round"/>
</svg>
