<svg width="184" height="103" viewBox="0 0 184 103" fill="none" xmlns="http://www.w3.org/2000/svg">
<path d="M50.3312 53.9885C49.9969 53.9885 49.8298 53.8213 49.8298 53.487C49.8298 53.3533 49.8465 53.1694 49.8799 52.9354C49.9134 52.668 49.9969 52.434 50.1307 52.2334C51.2338 52.0997 52.0361 51.7988 52.5376 51.3308C53.0725 50.8294 53.3399 49.9435 53.3399 48.6732V24.0021C53.3399 23.133 53.273 22.4978 53.1393 22.0967C53.039 21.6955 52.7549 21.4448 52.2869 21.3445C51.8523 21.2108 51.1168 21.1439 50.0805 21.1439C50.0805 20.9768 50.0972 20.7595 50.1307 20.492C50.1641 20.2246 50.1975 20.0073 50.2309 19.8402C50.3312 19.3722 50.5485 19.1381 50.8828 19.1381H62.065C64.1042 19.1381 66.0097 19.4223 67.7815 19.9906C69.5532 20.5255 70.9907 21.4281 72.0939 22.6984C73.1971 23.9353 73.7486 25.6068 73.7486 27.7128C73.7486 30.1866 73.0466 32.3094 71.6426 34.0812C70.272 35.8529 68.3498 37.1567 65.876 37.9924C67.748 41.0679 69.2858 43.525 70.4893 45.3636C71.7262 47.2023 72.7792 48.5896 73.6484 49.5256C74.5175 50.4282 75.3198 51.0299 76.0553 51.3308C76.8242 51.6317 77.6933 51.7821 78.6628 51.7821C78.6628 52.4173 78.5458 53.0357 78.3118 53.6374C77.9106 53.8714 77.4593 54.0386 76.9579 54.1389C76.4899 54.2057 75.9884 54.2392 75.4535 54.2392C74.6178 54.2392 73.7821 53.955 72.9463 53.3867C72.1106 52.8184 71.1913 51.732 70.1884 50.1273L63.0178 38.6944C61.714 38.9284 60.31 39.0454 58.8056 39.0454C58.4045 39.0454 57.9866 39.0287 57.552 38.9953C57.1509 38.9619 56.7497 38.9284 56.3486 38.895V48.7233C56.3486 49.9602 56.4154 50.7959 56.5491 51.2305C56.7163 51.6317 57.1174 51.8657 57.7526 51.9325C57.9866 51.966 58.3042 51.9827 58.7053 51.9827C59.1399 51.9827 59.5244 51.9827 59.8587 51.9827C59.8587 52.1498 59.8419 52.3671 59.8085 52.6346C59.8085 52.902 59.7751 53.1193 59.7082 53.2864C59.6079 53.6207 59.4909 53.8213 59.3572 53.8882C59.2235 53.955 59.1232 53.9885 59.0564 53.9885H50.3312ZM56.3486 36.3878C57.6857 36.6218 58.9895 36.7388 60.2598 36.7388C62.2322 36.7388 63.9872 36.4547 65.525 35.8864C67.0627 35.2846 68.2829 34.382 69.1855 33.1786C70.0881 31.9417 70.5394 30.3705 70.5394 28.465C70.5394 25.9243 69.5867 24.069 67.6812 22.899C65.8091 21.7289 63.4189 21.1439 60.5105 21.1439C59.6414 21.1439 58.7555 21.1941 57.8529 21.2943C56.85 21.3946 56.3486 21.8961 56.3486 22.7987V36.3878Z" fill="#5B5752"/>
<path d="M109.458 83.9885C109.123 83.9885 108.956 83.8213 108.956 83.487C108.956 83.3533 108.973 83.1694 109.006 82.9354C109.04 82.668 109.123 82.434 109.257 82.2334C110.36 82.0997 111.162 81.7988 111.664 81.3308C112.199 80.8294 112.466 79.9602 112.466 78.7233V54.0021C112.466 53.133 112.399 52.4978 112.266 52.0967C112.165 51.6955 111.881 51.4448 111.413 51.3445C110.979 51.2108 110.243 51.1439 109.207 51.1439C109.207 50.9768 109.224 50.7595 109.257 50.492C109.29 50.2246 109.324 50.0073 109.357 49.8402C109.458 49.3722 109.675 49.1381 110.009 49.1381H121.442C123.749 49.1381 125.821 49.4557 127.66 50.0909C129.532 50.6926 131.02 51.6621 132.123 52.9993C133.226 54.303 133.778 56.0413 133.778 58.2143C133.778 60.8218 133.059 63.0114 131.621 64.7832C130.184 66.5215 128.295 67.8253 125.955 68.6944C123.648 69.5636 121.141 69.9982 118.433 69.9982C117.497 69.9982 116.511 69.948 115.475 69.8478V78.7233C115.475 79.9602 115.642 80.7792 115.976 81.1804C116.344 81.5815 116.845 81.8155 117.481 81.8824C117.715 81.9158 118.149 81.9493 118.784 81.9827C119.453 81.9827 119.954 81.9827 120.289 81.9827C120.289 82.1498 120.272 82.3671 120.239 82.6346C120.239 82.902 120.205 83.1193 120.138 83.2864C120.038 83.6207 119.921 83.8213 119.787 83.8882C119.654 83.955 119.553 83.9885 119.486 83.9885H109.458ZM115.475 67.14C117.079 67.4743 118.634 67.6414 120.138 67.6414C122.01 67.6414 123.732 67.3238 125.303 66.6887C126.874 66.0535 128.145 65.084 129.114 63.7803C130.084 62.4765 130.568 60.8385 130.568 58.8661C130.568 57.0609 130.1 55.59 129.164 54.4534C128.262 53.3168 127.008 52.4811 125.403 51.9462C123.832 51.4114 122.027 51.1439 119.988 51.1439C119.052 51.1439 118.049 51.1941 116.979 51.2943C116.511 51.3278 116.143 51.4949 115.876 51.7958C115.609 52.0632 115.475 52.3975 115.475 52.7987V67.14Z" fill="#5B5752"/>
<path d="M99.3804 58.4819C99.0223 58.4819 98.5475 58.2795 97.9558 57.8747C97.3641 57.4699 96.7102 56.9483 95.994 56.3099C95.2778 56.995 94.4448 57.5166 93.495 57.8747C92.5452 58.2328 91.5488 58.4119 90.5056 58.4119C89.1666 58.4119 88.0689 58.1705 87.2125 57.6879C86.3562 57.2052 85.7256 56.5746 85.3208 55.7961C84.916 55.0176 84.7136 54.2002 84.7136 53.3439C84.7136 52.5654 84.8693 51.8258 85.1807 51.1251C85.5076 50.4245 85.9592 49.8017 86.5353 49.2567C87.1269 48.7118 87.8276 48.2992 88.6372 48.0189C88.1234 47.3183 87.7575 46.7656 87.5395 46.3607C87.3215 45.9404 87.1814 45.6212 87.1191 45.4032C87.0724 45.1696 87.0491 44.9828 87.0491 44.8427C87.0491 44.0175 87.2437 43.348 87.6329 42.8342C88.0378 42.3203 88.5438 41.9389 89.151 41.6898C89.7582 41.4406 90.3888 41.3161 91.0428 41.3161C91.8524 41.3161 92.5141 41.4718 93.0279 41.7832C93.5573 42.079 93.9465 42.4683 94.1957 42.9509C94.4604 43.418 94.5927 43.9085 94.5927 44.4223C94.5927 44.9205 94.4837 45.3798 94.2657 45.8002C94.0477 46.2206 93.7753 46.5554 93.4483 46.8045C93.1369 47.0536 92.8255 47.1782 92.5141 47.1782C92.4674 47.147 92.4051 47.1003 92.3273 47.038C92.2494 46.9758 92.1949 46.8979 92.1638 46.8045C92.5842 46.6332 92.8878 46.3841 93.0746 46.0571C93.2615 45.7302 93.3549 45.3721 93.3549 44.9828C93.3549 44.5313 93.2381 44.0953 93.0046 43.6749C92.771 43.239 92.4285 42.8809 91.9769 42.6006C91.541 42.3203 91.0194 42.1802 90.4122 42.1802C89.6648 42.1802 89.0887 42.3826 88.6839 42.7874C88.2947 43.1923 88.1 43.6282 88.1 44.0953C88.1 44.4846 88.2635 44.975 88.5905 45.5667C88.9175 46.1583 89.439 46.9213 90.1553 47.8555C91.1517 49.1322 92.1638 50.3622 93.1914 51.5455C94.219 52.7133 95.2155 53.7331 96.1808 54.605C96.897 53.4996 97.2552 52.1683 97.2552 50.6113C97.2552 50.3311 97.2396 49.9885 97.2084 49.5837C97.0216 49.5681 96.8348 49.5526 96.6479 49.537C95.9006 49.4903 95.2856 49.5759 94.8029 49.7939L94.6628 49.2334C94.6316 49.0933 94.7173 48.9921 94.9197 48.9298C95.2311 48.8519 95.6125 48.7897 96.0641 48.7429C96.5156 48.6962 96.8893 48.6729 97.1851 48.6729C97.6989 48.6729 98.1582 48.6807 98.563 48.6962C98.9678 48.7118 99.326 48.7196 99.6374 48.7196C100.058 48.7196 100.424 48.6884 100.735 48.6262C101.062 48.5639 101.373 48.4393 101.669 48.2525C101.794 48.486 101.864 48.7118 101.879 48.9298C101.786 49.2723 101.607 49.5059 101.342 49.6304C101.093 49.7394 100.743 49.7939 100.291 49.7939C100.073 49.7939 99.8242 49.7861 99.5439 49.7706C99.2637 49.7394 98.9601 49.7083 98.6331 49.6771C98.602 50.8293 98.4307 51.8725 98.1193 52.8067C97.8235 53.7253 97.4264 54.5427 96.9282 55.259C97.7067 55.9129 98.4463 56.4267 99.1469 56.8004C99.8475 57.1585 100.478 57.322 101.039 57.2908C101.039 57.431 101.031 57.5789 101.015 57.7346C101 57.8747 100.969 58.007 100.922 58.1316C100.828 58.2095 100.673 58.2795 100.455 58.3418C100.237 58.3885 100.019 58.4274 99.8008 58.4586C99.5984 58.4741 99.4583 58.4819 99.3804 58.4819ZM95.3167 55.656C94.5849 54.9553 93.8376 54.1924 93.0746 53.3672C92.3117 52.5264 91.5877 51.7012 90.9026 50.8916C90.2175 50.0664 89.6181 49.3112 89.1043 48.6262C88.1545 49.0621 87.4227 49.7005 86.9089 50.5413C86.4107 51.3665 86.1616 52.215 86.1616 53.087C86.1616 53.7876 86.3251 54.4571 86.652 55.0955C86.979 55.7183 87.5006 56.2321 88.2168 56.6369C88.933 57.0261 89.8672 57.2208 91.0194 57.2208C91.8913 57.2208 92.6854 57.0884 93.4016 56.8237C94.1334 56.5435 94.7717 56.1542 95.3167 55.656Z" fill="#5B5752"/>
<path d="M27.7168 88.2554C18.3748 68.7895 15.4797 46.3926 19.5638 25.1918L20.062 25.2879C15.9985 46.3829 18.879 68.6668 28.1748 88.0361L27.7168 88.2554Z" fill="#46413B"/>
<path d="M20.4737 51.516C20.5258 51.5176 20.5779 51.5203 20.6279 51.5241C23.1854 51.7124 25.9145 50.6993 28.7998 48.5275C30.4951 47.2512 31.657 46.0459 32.4547 44.7327C33.3864 43.1969 33.7696 41.5331 33.5465 40.0164C30.411 40.8744 27.6988 42.2505 25.4825 44.1081C23.0698 46.13 21.2991 48.7517 20.4737 51.516ZM21.2259 52.0532C21.0142 52.0532 20.8015 52.0456 20.5888 52.0299C20.4911 52.0218 20.3858 52.0207 20.2909 52.0207L20.0912 52.0212C19.9994 52.0212 19.7547 52.0212 19.7308 51.7857C19.7134 51.6153 19.8236 51.5431 19.949 51.5024C20.7858 48.5959 22.6303 45.8365 25.1569 43.719C27.4936 41.7605 30.3627 40.3257 33.6854 39.4542L33.9464 39.3853L33.9986 39.6506C34.3356 41.3622 33.9405 43.2604 32.8882 44.9959C32.0558 46.3661 30.8538 47.6169 29.1053 48.9329C26.354 51.0032 23.7031 52.0532 21.2259 52.0532Z" fill="#46413B"/>
<path d="M34.9577 51.5475C31.3603 51.8633 28.2031 54.2912 26.1676 56.3001C23.4765 58.957 21.9826 61.6269 21.7199 64.2453C21.9142 64.1725 22.1578 64.1025 22.4492 64.0184C22.6511 63.9598 22.8655 63.8979 23.076 63.8306C26.6544 62.684 29.346 59.759 31.7207 57.1781C33.3535 55.4058 34.8274 53.6389 34.9577 51.5475ZM21.6548 64.8384C21.6624 64.8313 21.6819 64.802 21.6841 64.7581L21.1772 64.7412V64.7336C21.2917 61.8201 22.8508 58.8615 25.8116 55.9392C28.8939 52.896 32.1434 51.1953 35.2062 51.0216L35.4754 51.0059L35.4743 51.2756C35.4612 53.6682 33.7969 55.6728 32.094 57.5216C29.7964 60.019 26.9371 63.1263 23.2307 64.3142C23.0158 64.3831 22.7971 64.446 22.5903 64.5057C22.2327 64.6088 21.7427 64.7505 21.6548 64.8384Z" fill="#46413B"/>
<path d="M35.4795 61.8902C30.1886 63.4498 25.6595 67.8818 23.7531 73.3426C24.9416 72.7603 26.0518 72.178 27.1301 71.6126C29.1836 70.5349 31.3076 69.4197 32.9714 67.7537C34.6938 66.0269 35.6163 63.8568 35.4795 61.8902ZM22.9082 74.314L23.0813 73.7572C24.9475 67.7759 29.8755 62.8936 35.6358 61.3182L35.918 61.2412L35.9544 61.5315C36.23 63.7282 35.2489 66.1881 33.3306 68.1124C31.612 69.8332 29.4533 70.9663 27.3657 72.0619C26.1224 72.7136 24.8368 73.3882 23.4335 74.0616L22.9082 74.314Z" fill="#46413B"/>
<path d="M20.6189 40.2587C20.8039 40.2787 20.9939 40.2891 21.1849 40.2891C23.4293 40.2891 25.8529 38.9145 28.1418 37.5068C28.9146 37.0298 29.7042 36.5425 30.2891 35.8739C30.7841 35.3063 31.1325 34.6046 31.4353 33.9307C32.4761 31.6113 33.1859 29.1623 33.5457 26.6465C33.5294 26.6427 33.5158 26.6389 33.5039 26.6362C27.8428 29.4255 23.165 34.3746 20.6189 40.2587ZM21.1849 40.7959C20.8528 40.7959 20.525 40.7682 20.2124 40.7123L19.9004 40.6575L20.0225 40.365C22.5947 34.2123 27.4526 29.0293 33.3514 26.1462L33.4626 26.1201C33.531 26.1201 33.5869 26.1282 33.8984 26.2194L34.1089 26.2802L34.0791 26.4967C33.7231 29.1373 32.9889 31.7079 31.8981 34.1385C31.5791 34.8483 31.2095 35.5901 30.6712 36.2077C30.0363 36.9343 29.213 37.4422 28.417 37.9334C26.0564 39.3844 23.5617 40.7959 21.1849 40.7959Z" fill="#46413B"/>
<path d="M32.2506 19.3249C28.5111 20.0477 25.0343 22.1413 22.6563 25.1145C21.9417 26.0094 21.1325 27.2212 21.0555 28.8009C21.793 28.5203 22.5695 28.3646 23.3238 28.2126C24.0173 28.0731 24.7342 27.9294 25.3995 27.6906C27.479 26.9412 28.9686 25.2963 29.8515 24.0487C30.748 22.7795 31.5349 21.2307 32.2506 19.3249ZM20.553 29.5698L20.5437 29.1883C20.496 27.2602 21.4359 25.8292 22.2602 24.7976C24.8064 21.6133 28.5752 19.4079 32.5996 18.7464L33.0261 18.6764L32.8796 19.0828C32.1079 21.2242 31.2532 22.9439 30.2661 24.3413C28.9388 26.2162 27.3157 27.5392 25.571 28.1676C24.8704 28.4194 24.1351 28.5675 23.4237 28.7103C22.5332 28.8893 21.692 29.0581 20.9014 29.413L20.553 29.5698Z" fill="#46413B"/>
<path d="M21.821 4.50541C21.6289 5.02745 21.3256 5.50172 21.0304 5.96352C20.7569 6.39114 20.4747 6.83343 20.2956 7.29578C19.8191 8.52546 20.034 9.9201 20.2424 11.2686L20.2891 11.5725C20.9484 15.9062 20.9131 20.2806 20.186 24.5932C21.9176 22.1778 23.6297 19.662 24.5978 16.8C25.8047 13.2314 25.5025 9.60372 23.7887 7.09607C23.5185 6.69992 23.2048 6.31734 22.9015 5.9467C22.5265 5.48869 22.1423 5.01931 21.821 4.50541ZM19.2607 26.7476L19.4849 25.6074C20.3927 20.9937 20.4948 16.2975 19.7877 11.649L19.741 11.3457C19.5229 9.93149 19.2971 8.46847 19.8224 7.11289C20.0199 6.60279 20.3162 6.13936 20.6027 5.69057C21.0022 5.06543 21.3798 4.47501 21.4873 3.7956L21.6132 3.00004L21.9659 3.72395C22.3018 4.41367 22.7832 5.00194 23.2938 5.62491C23.6042 6.00424 23.9249 6.39549 24.2071 6.81008C26.0109 9.44852 26.336 13.2439 25.0781 16.9628C23.9895 20.1824 22.0023 22.9413 20.0807 25.6096L19.2607 26.7476Z" fill="#46413B"/>
<path d="M10.8564 10.2805C10.2118 12.01 9.76025 13.6863 10.26 15.2389C10.7202 16.6693 11.862 17.6792 13.0711 18.7488C13.4987 19.1265 13.9404 19.5178 14.3436 19.9248C15.6156 21.2103 16.5854 22.7607 17.1861 24.4582C17.4417 22.2164 17.3923 20.2471 17.0379 18.4661C16.4931 15.7321 15.1695 13.5419 13.312 12.2976C13.1367 12.1809 12.9522 12.0659 12.7661 11.9503C12.0481 11.5032 11.2569 11.011 10.8564 10.2805ZM17.3402 26.9463L17.0352 25.7177C16.5251 23.6642 15.4702 21.7845 13.9833 20.2813C13.5915 19.8868 13.1563 19.5015 12.7352 19.1287C11.5277 18.0607 10.2796 16.9569 9.77708 15.3946C9.16441 13.4893 9.83134 11.495 10.6318 9.44807L10.9769 8.56572L11.1186 9.5029C11.2569 10.4135 12.1599 10.9757 13.0341 11.5194C13.2252 11.6383 13.4146 11.756 13.5942 11.8765C15.5646 13.1957 16.9641 15.501 17.535 18.3673C17.9615 20.5076 17.9605 22.904 17.5323 25.6949L17.3402 26.9463Z" fill="#46413B"/>
<path d="M5.23627 22.7848C6.64177 27.9759 9.88365 33.0379 14.2467 36.8409C14.3807 34.6903 14.1088 32.117 13.4685 29.5296C13.2547 28.6624 12.9866 27.7599 12.4765 27.0263C11.5475 25.6875 10.0188 25.0613 8.39999 24.3981C7.30544 23.9504 6.18159 23.4897 5.23627 22.7848ZM14.6667 37.8633L14.2971 37.5518C9.44516 33.4639 5.89233 27.8457 4.54869 22.1374L4.3501 21.2925L4.97252 21.8976C5.94931 22.8472 7.29296 23.3969 8.5921 23.9287C10.2082 24.5902 11.879 25.2746 12.8932 26.7365C13.45 27.538 13.736 28.4942 13.9618 29.408C14.6645 32.2505 14.9315 35.0821 14.7128 37.3819L14.6667 37.8633Z" fill="#46413B"/>
<path d="M3.40557 36.8655C3.58954 39.8073 3.93411 42.5917 5.6766 44.5323C7.04846 46.061 9.09974 46.8218 10.9084 47.4931C12.5625 48.109 14.2686 48.7434 15.8201 49.0749C14.6479 46.2921 13.4031 43.448 11.4251 41.0961C9.21098 38.4637 6.29852 36.9296 3.40557 36.8655ZM16.6525 49.7451L16.1945 49.6648C14.4775 49.3625 12.5733 48.6538 10.7315 47.9684C8.86803 47.2771 6.75489 46.4935 5.29947 44.8709C3.39417 42.7496 3.0691 39.7601 2.88297 36.6246L2.8667 36.3587L3.21617 36.3554C6.32075 36.3554 9.45409 37.9644 11.8131 40.7694C13.9452 43.3042 15.2877 46.4989 16.4724 49.3164L16.6525 49.7451Z" fill="#46413B"/>
<path d="M12.0235 57.032C12.672 57.032 13.321 57.0646 13.88 57.2263C11.2806 53.8792 7.43582 51.1235 2.1736 48.8313C1.92724 49.8819 1.74275 51.0747 2.00214 52.2099C2.38689 53.8982 3.76524 55.39 5.68844 56.2007C7.46078 56.9463 9.4019 57.0418 10.8953 57.0418C11.0521 57.0418 11.2084 57.0402 11.3647 57.0386L11.4456 57.0375C11.6361 57.0348 11.8303 57.032 12.0235 57.032ZM14.6202 58.2422C14.0162 57.5112 12.6742 57.5286 11.4526 57.5443L11.3723 57.5454C11.2133 57.5481 11.0543 57.5492 10.8953 57.5492C9.35415 57.5492 7.34738 57.4488 5.49093 56.6679C3.41741 55.7942 1.92835 54.1695 1.5067 52.3228C1.20009 50.9776 1.45894 49.5937 1.75198 48.4178L1.8236 48.1286L2.09764 48.2458C8.1109 50.8229 12.3399 53.9937 15.0255 57.9378L14.6202 58.2422Z" fill="#46413B"/>
<path d="M0.703847 62.089C1.83693 64.3411 4.43792 65.9908 7.89632 66.6355C9.27089 66.8922 10.6981 67.0061 12.0781 67.1168C13.5492 67.2346 15.0638 67.3551 16.542 67.6492C16.2832 67.2606 16.0336 66.8688 15.7899 66.4868C14.7068 64.7899 13.6833 63.1869 12.1345 62.1411C10.8397 61.2707 9.15148 60.8111 7.25487 60.8111C6.96292 60.8111 6.67096 60.8214 6.38118 60.842C4.45092 60.9831 2.54836 61.535 0.703847 62.089ZM17.6957 68.4312L17.0505 68.2787C15.4138 67.8923 13.6974 67.755 12.0379 67.622C10.6444 67.5108 9.20413 67.3958 7.80297 67.1342C4.04611 66.4331 1.24432 64.5739 0.116667 62.0342L0 61.771L0.275678 61.688C2.23415 61.0987 4.25991 60.4887 6.34482 60.3362C6.64655 60.3151 6.95098 60.3031 7.25487 60.3031C9.25296 60.3031 11.0383 60.7937 12.4183 61.7206C14.055 62.8254 15.1051 64.4713 16.2175 66.2138C16.5692 66.7652 16.9333 67.3355 17.3169 67.8869L17.6957 68.4312Z" fill="#46413B"/>
<path d="M10.4076 71.8629C10.5889 72.2021 10.7094 72.5673 10.8271 72.9217C11.0013 73.4459 11.1647 73.9408 11.5022 74.3152C11.8745 74.7266 12.4106 74.9491 13.0222 75.1781C14.3322 75.6659 15.7502 76.1435 17.2354 76.3361C17.7217 76.3991 18.2307 76.4316 18.7473 76.4316C19.5515 76.4316 20.3802 76.3551 21.2159 76.2043C20.1202 74.7293 18.5547 73.4188 16.4421 72.207C15.5402 71.6904 14.463 71.1417 13.3185 70.9925C13.1302 70.9686 12.9413 70.9561 12.7563 70.9561C12.085 70.9561 11.1484 71.1173 10.4076 71.8629ZM18.7473 76.9385C18.209 76.9385 17.6782 76.9054 17.1698 76.8392C15.634 76.64 14.1835 76.1516 12.8448 75.6535C12.1946 75.4103 11.5738 75.1509 11.1261 74.6555C10.7164 74.2018 10.5276 73.632 10.3458 73.0812C10.2112 72.6769 10.0848 72.2949 9.87854 71.9601L9.77979 71.8L9.90406 71.6589C10.717 70.7385 12.0069 70.3098 13.3842 70.49C14.6165 70.6501 15.7491 71.2253 16.6944 71.7663C19.0252 73.104 20.715 74.5649 21.8606 76.2346L22.0765 76.5488L21.7027 76.6259C20.7036 76.8337 19.7089 76.9385 18.7473 76.9385Z" fill="#46413B"/>
<path d="M18.6715 53.5356L18.2656 53.2301C18.7611 52.5719 19.3472 51.9858 20.0076 51.4876L20.3131 51.893C19.6901 52.3624 19.1382 52.9148 18.6715 53.5356Z" fill="#46413B"/>
<path d="M20.8006 66.7295L20.3101 66.5998C20.5233 65.7934 20.8554 65.0196 21.2961 64.2994L21.7286 64.5648C21.3135 65.2426 21.0014 65.9714 20.8006 66.7295Z" fill="#46413B"/>
<path d="M22.9395 74.8999L22.5005 74.6449C22.7338 74.2444 22.9943 73.8542 23.2244 73.5101L23.6461 73.7923C23.4203 74.1299 23.1642 74.513 22.9395 74.8999Z" fill="#46413B"/>
<path d="M21.4093 71.4272C21.1775 71.0892 20.7885 70.8352 20.4764 70.6317C19.25 69.8275 18.0247 69.0205 16.7993 68.2125L17.0783 67.7892C18.3036 68.5962 19.5284 69.4037 20.7537 70.2073C21.1032 70.4353 21.5395 70.7196 21.8282 71.1407L21.4093 71.4272Z" fill="#46413B"/>
<path d="M23.3948 77.6562C22.7485 77.3062 22.0723 76.9768 21.3848 76.6757L21.5883 76.2111C22.2883 76.5172 22.9775 76.8531 23.6368 77.2096L23.3948 77.6562Z" fill="#46413B"/>
<path d="M19.5083 62.8286C19.1849 62.439 18.8609 62.0597 18.5364 61.6798L18.5005 61.6375C18.1863 61.2706 17.8607 60.8913 17.5145 60.5516C17.0457 60.093 16.5149 59.6828 16.0016 59.285L14.1831 57.8773L14.4935 57.4763L16.3125 58.884C16.8367 59.2899 17.3789 59.7099 17.87 60.1891C18.2319 60.5451 18.564 60.9325 18.8858 61.3075L18.9217 61.3499C19.2478 61.7319 19.5734 62.1128 19.8985 62.5046L19.5083 62.8286Z" fill="#46413B"/>
<path d="M18.5704 52.4834L18.2947 52.3955L18.1021 52.4801C17.6007 51.3443 16.7454 50.3768 15.9189 49.4412L16.2993 49.1048C17.1519 50.0702 18.0332 51.0681 18.566 52.275L18.5878 52.4221L18.5704 52.4834Z" fill="#46413B"/>
<path d="M18.2156 42.5708L17.9399 42.1448C18.7756 41.6054 19.5115 40.8853 20.2235 40.1885L20.5779 40.551C19.848 41.2652 19.0942 42.0037 18.2156 42.5708Z" fill="#46413B"/>
<path d="M17.8148 42.5083C17.4469 41.5364 16.7609 40.7501 16.0348 39.9176C15.3446 39.127 14.632 38.3092 14.2158 37.3172L14.6847 37.1213C15.0684 38.0373 15.7233 38.7889 16.4169 39.5839C17.1408 40.4142 17.8891 41.2721 18.2896 42.3287L17.8148 42.5083Z" fill="#46413B"/>
<path d="M18.8431 33.2944L18.3774 33.0931C18.5581 32.6747 18.8029 32.2948 19.0395 31.9269C19.199 31.6795 19.3591 31.432 19.498 31.1726C19.6532 30.8861 19.7873 30.5762 19.917 30.2761C20.1438 29.7503 20.3793 29.2066 20.744 28.7334L21.1456 29.0432C20.8194 29.4665 20.6078 29.9576 20.3826 30.4775C20.2486 30.7868 20.1102 31.1075 19.9447 31.4136C19.7982 31.6871 19.6294 31.9486 19.466 32.2021C19.2305 32.5684 19.0069 32.9146 18.8431 33.2944Z" fill="#46413B"/>
<path d="M18.4749 32.6401C18.4125 32.0296 18.2448 31.4354 17.9778 30.8743C17.923 30.7603 17.865 30.6486 17.8064 30.5362C17.7114 30.3544 17.6164 30.1721 17.5372 29.9827C17.3462 29.5366 17.2447 29.0661 17.1633 28.6239C16.9289 27.3318 16.8545 26.0137 16.9413 24.7058L17.4477 24.7395C17.363 26.0055 17.4357 27.2824 17.6626 28.5327C17.7385 28.9451 17.8319 29.383 18.0039 29.7852C18.0788 29.9626 18.1672 30.1319 18.2562 30.3012C18.317 30.4185 18.3783 30.5351 18.4358 30.6551C18.7283 31.2694 18.9112 31.9195 18.9796 32.5886L18.4749 32.6401Z" fill="#463C3B"/>
<path d="M33.5821 64.288C33.3814 64.2907 33.2191 64.4681 33.0444 64.5539C31.7735 65.3586 30.5861 66.2871 29.4525 67.271C27.2504 69.2088 25.2392 71.3735 23.4756 73.7173C24.7058 72.0985 26.3729 70.7191 27.9813 69.4194C29.3657 68.3617 30.6626 67.1543 32.1105 66.196C31.7328 66.5454 31.3366 66.8802 30.9562 67.22C30.5025 67.6112 30.0331 67.9813 29.5589 68.3492C30.2822 67.9938 31.0051 67.596 31.6107 67.0631C32.1892 66.4087 32.6889 65.6831 33.2045 64.9777C33.3385 64.7671 33.4959 64.5674 33.5871 64.3335C33.5919 64.3183 33.5968 64.2956 33.5821 64.288Z" fill="#46413B"/>
<path d="M29.7848 43.6012C26.0225 45.6052 23.1106 48.7885 20.0483 51.6885C22.7785 49.5878 25.3909 47.3428 28.1454 45.2731C28.5313 44.9812 28.8992 44.6539 29.3105 44.3956C29.2091 44.502 29.1076 44.6056 29.0083 44.7152C28.6816 45.075 28.362 45.4408 28.0418 45.8076C28.5313 45.2677 29.0848 44.7853 29.5688 44.2448C29.5743 44.2534 29.5688 44.2632 29.564 44.2708C29.5971 44.2279 29.6302 44.1845 29.6627 44.1417C29.8456 43.9311 30.0187 43.7102 30.1701 43.4715C30.3481 43.2484 29.8434 43.5605 29.7848 43.6012Z" fill="#46413B"/>
<path d="M29.4707 56.6471C27.6614 58.1031 25.9391 59.6633 24.2953 61.3021C23.4129 62.2181 22.4562 63.1135 21.7383 64.1685C22.2533 63.4885 23.1487 62.7483 24.0772 61.9056C26.066 60.1327 27.9762 58.2708 29.8587 56.3856C29.9477 56.2971 30.0335 56.2081 30.1197 56.1197C29.9021 56.2944 29.6834 56.4697 29.4707 56.6471Z" fill="#46413B"/>
<path d="M21.7352 64.1686C21.6218 64.3184 21.5274 64.4655 21.4541 64.6104C21.5453 64.4606 21.6392 64.3135 21.7352 64.1686Z" fill="#46413B"/>
<path d="M29.3654 31.1665C26.6054 34.309 23.4732 37.1195 20.7609 40.3055C20.6622 40.4048 20.564 40.5008 20.4668 40.6001C20.5097 40.567 20.5531 40.5312 20.596 40.4987C20.5531 40.5524 20.5075 40.6001 20.4619 40.6533C20.5178 40.5904 20.5786 40.5296 20.6367 40.4683C23.166 38.5022 25.5635 36.3532 27.6712 33.9389C26.3846 35.1339 25.0681 36.2903 23.7668 37.4673C25.9005 35.3515 27.8818 33.0891 29.7415 30.7296C30.0682 30.3188 29.4978 31.0189 29.3654 31.1665Z" fill="#46413B"/>
<path d="M18.3393 75.0463C17.6442 74.8054 16.987 74.4521 16.2788 74.2475C17.0559 74.7261 17.7858 75.297 18.6508 75.6172C19.6857 76.028 20.8578 76.2206 21.9024 76.4795C20.7693 75.8712 19.5413 75.4772 18.3393 75.0463Z" fill="#46413B"/>
<path d="M17.1823 67.9335C16.2787 67.0756 15.5413 66.4162 14.4907 65.8307C12.9001 64.9728 11.1321 64.4116 9.34619 64.1533C10.419 64.531 11.4745 65.0693 12.6136 65.574C14.1835 66.2969 15.6297 66.9643 16.9994 67.9129C17.1492 68.0068 17.3342 68.1256 17.4585 68.207C17.3673 68.1186 17.2761 68.0247 17.1823 67.9335Z" fill="#46413B"/>
<path d="M10.3462 54.5421C8.35459 53.6841 6.47264 53.2196 4.7041 51.9563C6.28434 53.5908 8.44088 54.4357 10.5133 55.254C11.2416 55.5308 13.314 56.5711 14.5496 57.416C13.7156 56.5711 11.8097 55.1607 10.3462 54.5421Z" fill="#46413B"/>
<path d="M16.1164 48.8778C15.7415 48.2912 15.2748 47.2411 14.7728 46.521C13.1008 44.187 10.4347 41.9344 7.68994 40.4551C9.31576 41.6424 10.7365 43.0838 12.1566 44.5017C13.7987 46.1102 14.8151 47.3675 15.7561 48.9185C15.7263 48.9049 15.6926 48.8897 15.6497 48.8724C15.1402 48.6466 14.6252 48.4105 14.1178 48.1875C14.1379 48.2 14.1558 48.2125 14.1759 48.2255C14.7674 48.6081 15.3356 49.0346 15.9694 49.3418C16.0329 49.3722 16.1039 49.3792 16.1702 49.3445C16.3579 49.2354 16.1593 48.9456 16.1164 48.8778Z" fill="#46413B"/>
<path d="M14.4474 36.9011C13.6514 34.2432 11.9767 29.37 9.52441 27.9341C10.6195 28.8393 11.1171 30.2833 11.7309 31.564C12.5449 33.3809 13.5135 35.1233 14.3438 36.9348C14.4274 37.1171 14.5516 37.3808 14.6206 37.5078C14.5674 37.307 14.5137 37.1019 14.4474 36.9011Z" fill="#46413B"/>
<path d="M11.0713 32.2161C11.6726 32.9698 12.0834 33.85 12.588 34.664C13.0927 35.4764 13.8307 36.4754 14.3235 37.125C13.4932 35.3516 12.5576 33.5282 11.0713 32.2161Z" fill="#46413B"/>
<path d="M26.7452 23.9916C24.364 25.3841 21.8498 26.9318 20.5664 29.4785C21.1671 28.6341 21.9589 27.9292 22.7506 27.2569C23.9684 26.209 24.9468 25.5041 26.0912 24.5984C26.3729 24.3721 26.6616 24.1241 26.9183 23.8875C26.8624 23.9211 26.8038 23.9564 26.7452 23.9916Z" fill="#46413B"/>
<path d="M22.6467 13.1102C22.4535 14.7941 21.9793 16.4606 21.594 18.1217C21.0871 20.2783 20.6801 22.4576 20.2726 24.6337C20.2498 24.7661 20.2113 24.9202 20.1836 25.0293C20.2645 24.8649 20.3334 24.695 20.399 24.5246C21.7714 20.8898 22.8388 17.0261 22.6467 13.1102Z" fill="#46413B"/>
<path d="M16.8883 22.6912C16.5226 21.1033 15.7927 19.6268 15.0867 18.1659C14.8409 17.5744 14.5012 17.0719 14.4985 16.4001C14.3964 16.8315 14.5164 17.2754 14.6102 17.6987C15.0265 19.5231 16.051 21.1034 16.827 22.7802C16.858 22.8431 16.9339 23.0515 16.9616 23.1123C16.9388 22.9701 16.916 22.8301 16.8883 22.6912Z" fill="#46413B"/>
<path d="M156.283 92.2554C165.625 72.7895 168.52 50.3926 164.436 29.1918L163.938 29.2879C168.001 50.3829 165.121 72.6668 155.825 92.0361L156.283 92.2554Z" fill="#46413B"/>
<path d="M163.526 55.516C163.474 55.5176 163.422 55.5203 163.372 55.5241C160.815 55.7124 158.086 54.6993 155.2 52.5275C153.505 51.2512 152.343 50.0459 151.545 48.7327C150.614 47.1969 150.23 45.5331 150.453 44.0164C153.589 44.8744 156.301 46.2505 158.517 48.1081C160.93 50.13 162.701 52.7517 163.526 55.516ZM162.774 56.0532C162.986 56.0532 163.199 56.0456 163.411 56.0299C163.509 56.0218 163.614 56.0207 163.709 56.0207L163.909 56.0212C164.001 56.0212 164.245 56.0212 164.269 55.7857C164.287 55.6153 164.176 55.5431 164.051 55.5024C163.214 52.5959 161.37 49.8365 158.843 47.719C156.506 45.7605 153.637 44.3257 150.315 43.4542L150.054 43.3853L150.001 43.6506C149.664 45.3622 150.06 47.2604 151.112 48.9959C151.944 50.3661 153.146 51.6169 154.895 52.9329C157.646 55.0032 160.297 56.0532 162.774 56.0532Z" fill="#46413B"/>
<path d="M149.042 55.5475C152.64 55.8633 155.797 58.2912 157.832 60.3001C160.523 62.957 162.017 65.6269 162.28 68.2453C162.086 68.1725 161.842 68.1025 161.551 68.0184C161.349 67.9598 161.135 67.8979 160.924 67.8306C157.346 66.684 154.654 63.759 152.279 61.1781C150.646 59.4058 149.173 57.6389 149.042 55.5475ZM162.345 68.8384C162.338 68.8313 162.318 68.802 162.316 68.7581L162.823 68.7412V68.7336C162.708 65.8201 161.149 62.8615 158.188 59.9392C155.106 56.896 151.857 55.1953 148.794 55.0216L148.525 55.0059L148.526 55.2756C148.539 57.6682 150.203 59.6728 151.906 61.5216C154.204 64.019 157.063 67.1263 160.769 68.3142C160.984 68.3831 161.203 68.446 161.41 68.5057C161.767 68.6088 162.257 68.7505 162.345 68.8384Z" fill="#46413B"/>
<path d="M148.52 65.8902C153.811 67.4498 158.34 71.8818 160.247 77.3426C159.058 76.7603 157.948 76.178 156.87 75.6126C154.816 74.5349 152.692 73.4197 151.029 71.7537C149.306 70.0269 148.384 67.8568 148.52 65.8902ZM161.092 78.314L160.919 77.7572C159.052 71.7759 154.125 66.8936 148.364 65.3182L148.082 65.2412L148.046 65.5315C147.77 67.7282 148.751 70.1881 150.669 72.1124C152.388 73.8332 154.547 74.9663 156.634 76.0619C157.878 76.7136 159.163 77.3882 160.567 78.0616L161.092 78.314Z" fill="#46413B"/>
<path d="M163.381 44.2587C163.196 44.2787 163.006 44.2891 162.815 44.2891C160.571 44.2891 158.147 42.9145 155.858 41.5068C155.085 41.0298 154.296 40.5425 153.711 39.8739C153.216 39.3063 152.868 38.6046 152.565 37.9307C151.524 35.6113 150.814 33.1623 150.454 30.6465C150.471 30.6427 150.484 30.6389 150.496 30.6362C156.157 33.4255 160.835 38.3746 163.381 44.2587ZM162.815 44.7959C163.147 44.7959 163.475 44.7682 163.788 44.7123L164.1 44.6575L163.978 44.365C161.405 38.2123 156.547 33.0293 150.649 30.1462L150.537 30.1201C150.469 30.1201 150.413 30.1282 150.102 30.2194L149.891 30.2802L149.921 30.4967C150.277 33.1373 151.011 35.7079 152.102 38.1385C152.421 38.8483 152.79 39.5901 153.329 40.2077C153.964 40.9343 154.787 41.4422 155.583 41.9334C157.944 43.3844 160.438 44.7959 162.815 44.7959Z" fill="#46413B"/>
<path d="M151.749 23.3249C155.489 24.0477 158.966 26.1413 161.344 29.1145C162.058 30.0094 162.867 31.2212 162.945 32.8009C162.207 32.5203 161.43 32.3646 160.676 32.2126C159.983 32.0731 159.266 31.9294 158.601 31.6906C156.521 30.9412 155.031 29.2963 154.148 28.0487C153.252 26.7795 152.465 25.2307 151.749 23.3249ZM163.447 33.5698L163.456 33.1883C163.504 31.2602 162.564 29.8292 161.74 28.7976C159.194 25.6133 155.425 23.4079 151.4 22.7464L150.974 22.6764L151.12 23.0828C151.892 25.2242 152.747 26.9439 153.734 28.3413C155.061 30.2162 156.684 31.5392 158.429 32.1676C159.13 32.4194 159.865 32.5675 160.576 32.7103C161.467 32.8893 162.308 33.0581 163.099 33.413L163.447 33.5698Z" fill="#46413B"/>
<path d="M162.179 8.50541C162.371 9.02745 162.674 9.50172 162.97 9.96352C163.243 10.3911 163.525 10.8334 163.704 11.2958C164.181 12.5255 163.966 13.9201 163.758 15.2686L163.711 15.5725C163.052 19.9062 163.087 24.2806 163.814 28.5932C162.082 26.1778 160.37 23.662 159.402 20.8C158.195 17.2314 158.498 13.6037 160.211 11.0961C160.482 10.6999 160.795 10.3173 161.099 9.9467C161.474 9.48869 161.858 9.01931 162.179 8.50541ZM164.739 30.7476L164.515 29.6074C163.607 24.9937 163.505 20.2975 164.212 15.649L164.259 15.3457C164.477 13.9315 164.703 12.4685 164.178 11.1129C163.98 10.6028 163.684 10.1394 163.397 9.69057C162.998 9.06543 162.62 8.47501 162.513 7.7956L162.387 7.00004L162.034 7.72395C161.698 8.41367 161.217 9.00194 160.706 9.62491C160.396 10.0042 160.075 10.3955 159.793 10.8101C157.989 13.4485 157.664 17.2439 158.922 20.9628C160.01 24.1824 161.998 26.9413 163.919 29.6096L164.739 30.7476Z" fill="#46413B"/>
<path d="M173.144 14.2805C173.788 16.01 174.24 17.6863 173.74 19.2389C173.28 20.6693 172.138 21.6792 170.929 22.7488C170.501 23.1265 170.06 23.5178 169.656 23.9248C168.384 25.2103 167.415 26.7607 166.814 28.4582C166.558 26.2164 166.608 24.2471 166.962 22.4661C167.507 19.7321 168.83 17.5419 170.688 16.2976C170.863 16.1809 171.048 16.0659 171.234 15.9503C171.952 15.5032 172.743 15.011 173.144 14.2805ZM166.66 30.9463L166.965 29.7177C167.475 27.6642 168.53 25.7845 170.017 24.2813C170.409 23.8868 170.844 23.5015 171.265 23.1287C172.472 22.0607 173.72 20.9569 174.223 19.3946C174.836 17.4893 174.169 15.495 173.368 13.4481L173.023 12.5657L172.881 13.5029C172.743 14.4135 171.84 14.9757 170.966 15.5194C170.775 15.6383 170.585 15.756 170.406 15.8765C168.435 17.1957 167.036 19.501 166.465 22.3673C166.038 24.5076 166.04 26.904 166.468 29.6949L166.66 30.9463Z" fill="#46413B"/>
<path d="M178.764 26.7848C177.358 31.9759 174.116 37.0379 169.753 40.8409C169.619 38.6903 169.891 36.117 170.532 33.5296C170.745 32.6624 171.013 31.7599 171.524 31.0263C172.453 29.6875 173.981 29.0613 175.6 28.3981C176.695 27.9504 177.818 27.4897 178.764 26.7848ZM169.333 41.8633L169.703 41.5518C174.555 37.4639 178.108 31.8457 179.451 26.1374L179.65 25.2925L179.027 25.8976C178.051 26.8472 176.707 27.3969 175.408 27.9287C173.792 28.5902 172.121 29.2746 171.107 30.7365C170.55 31.538 170.264 32.4942 170.038 33.408C169.335 36.2505 169.068 39.0821 169.287 41.3819L169.333 41.8633Z" fill="#46413B"/>
<path d="M180.594 40.8655C180.41 43.8073 180.066 46.5917 178.323 48.5323C176.952 50.061 174.9 50.8218 173.092 51.4931C171.438 52.109 169.731 52.7434 168.18 53.0749C169.352 50.2921 170.597 47.448 172.575 45.0961C174.789 42.4637 177.701 40.9296 180.594 40.8655ZM167.347 53.7451L167.805 53.6648C169.522 53.3625 171.427 52.6538 173.268 51.9684C175.132 51.2771 177.245 50.4935 178.701 48.8709C180.606 46.7496 180.931 43.7601 181.117 40.6246L181.133 40.3587L180.784 40.3554C177.679 40.3554 174.546 41.9644 172.187 44.7694C170.055 47.3042 168.712 50.4989 167.528 53.3164L167.347 53.7451Z" fill="#46413B"/>
<path d="M171.976 61.032C171.328 61.032 170.679 61.0646 170.12 61.2263C172.719 57.8792 176.564 55.1235 181.826 52.8313C182.073 53.8819 182.257 55.0747 181.998 56.2099C181.613 57.8982 180.235 59.39 178.312 60.2007C176.539 60.9463 174.598 61.0418 173.105 61.0418C172.948 61.0418 172.792 61.0402 172.635 61.0386L172.554 61.0375C172.364 61.0348 172.17 61.032 171.976 61.032ZM169.38 62.2422C169.984 61.5112 171.326 61.5286 172.547 61.5443L172.628 61.5454C172.787 61.5481 172.946 61.5492 173.105 61.5492C174.646 61.5492 176.653 61.4488 178.509 60.6679C180.583 59.7942 182.072 58.1695 182.493 56.3228C182.8 54.9776 182.541 53.5937 182.248 52.4178L182.176 52.1286L181.902 52.2458C175.889 54.8229 171.66 57.9937 168.974 61.9378L169.38 62.2422Z" fill="#46413B"/>
<path d="M183.296 66.089C182.163 68.3411 179.562 69.9908 176.104 70.6355C174.729 70.8922 173.302 71.0061 171.922 71.1168C170.451 71.2346 168.936 71.3551 167.458 71.6492C167.717 71.2606 167.966 70.8688 168.21 70.4868C169.293 68.7899 170.317 67.1869 171.865 66.1411C173.16 65.2707 174.849 64.8111 176.745 64.8111C177.037 64.8111 177.329 64.8214 177.619 64.842C179.549 64.9831 181.452 65.535 183.296 66.089ZM166.304 72.4312L166.949 72.2787C168.586 71.8923 170.303 71.755 171.962 71.622C173.356 71.5108 174.796 71.3958 176.197 71.1342C179.954 70.4331 182.756 68.5739 183.883 66.0342L184 65.771L183.724 65.688C181.766 65.0987 179.74 64.4887 177.655 64.3362C177.353 64.3151 177.049 64.3031 176.745 64.3031C174.747 64.3031 172.962 64.7937 171.582 65.7206C169.945 66.8254 168.895 68.4713 167.782 70.2138C167.431 70.7652 167.067 71.3355 166.683 71.8869L166.304 72.4312Z" fill="#46413B"/>
<path d="M173.592 75.8629C173.411 76.2021 173.291 76.5673 173.173 76.9217C172.999 77.4459 172.835 77.9408 172.498 78.3152C172.126 78.7266 171.589 78.9491 170.978 79.1781C169.668 79.6659 168.25 80.1435 166.765 80.3361C166.278 80.3991 165.769 80.4316 165.253 80.4316C164.448 80.4316 163.62 80.3551 162.784 80.2043C163.88 78.7293 165.445 77.4188 167.558 76.207C168.46 75.6904 169.537 75.1417 170.682 74.9925C170.87 74.9686 171.059 74.9561 171.244 74.9561C171.915 74.9561 172.852 75.1173 173.592 75.8629ZM165.253 80.9385C165.791 80.9385 166.322 80.9054 166.83 80.8392C168.366 80.64 169.816 80.1516 171.155 79.6535C171.805 79.4103 172.426 79.1509 172.874 78.6555C173.284 78.2018 173.472 77.632 173.654 77.0812C173.789 76.6769 173.915 76.2949 174.121 75.9601L174.22 75.8L174.096 75.6589C173.283 74.7385 171.993 74.3098 170.616 74.49C169.383 74.6501 168.251 75.2253 167.306 75.7663C164.975 77.104 163.285 78.5649 162.139 80.2346L161.923 80.5488L162.297 80.6259C163.296 80.8337 164.291 80.9385 165.253 80.9385Z" fill="#46413B"/>
<path d="M165.328 57.5356L165.734 57.2301C165.239 56.5719 164.653 55.9858 163.992 55.4876L163.687 55.893C164.31 56.3624 164.862 56.9148 165.328 57.5356Z" fill="#46413B"/>
<path d="M163.199 70.7295L163.69 70.5998C163.477 69.7934 163.145 69.0196 162.704 68.2994L162.271 68.5648C162.687 69.2426 162.999 69.9714 163.199 70.7295Z" fill="#46413B"/>
<path d="M161.06 78.8999L161.5 78.6449C161.266 78.2444 161.006 77.8542 160.776 77.5101L160.354 77.7923C160.58 78.1299 160.836 78.513 161.06 78.8999Z" fill="#46413B"/>
<path d="M162.591 75.4272C162.822 75.0892 163.212 74.8352 163.524 74.6317C164.75 73.8275 165.975 73.0205 167.201 72.2125L166.922 71.7892C165.696 72.5962 164.472 73.4037 163.246 74.2073C162.897 74.4353 162.46 74.7196 162.172 75.1407L162.591 75.4272Z" fill="#46413B"/>
<path d="M160.605 81.6562C161.252 81.3062 161.928 80.9768 162.615 80.6757L162.412 80.2111C161.712 80.5172 161.023 80.8531 160.363 81.2096L160.605 81.6562Z" fill="#46413B"/>
<path d="M164.492 66.8286C164.815 66.439 165.139 66.0597 165.464 65.6798L165.499 65.6375C165.814 65.2706 166.139 64.8913 166.485 64.5516C166.954 64.093 167.485 63.6828 167.998 63.285L169.817 61.8773L169.506 61.4763L167.687 62.884C167.163 63.2899 166.621 63.7099 166.13 64.1891C165.768 64.5451 165.436 64.9325 165.114 65.3075L165.078 65.3499C164.752 65.7319 164.427 66.1128 164.102 66.5046L164.492 66.8286Z" fill="#46413B"/>
<path d="M165.43 56.4834L165.705 56.3955L165.898 56.4801C166.399 55.3443 167.255 54.3768 168.081 53.4412L167.701 53.1048C166.848 54.0702 165.967 55.0681 165.434 56.275L165.412 56.4221L165.43 56.4834Z" fill="#46413B"/>
<path d="M165.784 46.5708L166.06 46.1448C165.224 45.6054 164.488 44.8853 163.777 44.1885L163.422 44.551C164.152 45.2652 164.906 46.0037 165.784 46.5708Z" fill="#46413B"/>
<path d="M166.185 46.5083C166.553 45.5364 167.239 44.7501 167.965 43.9176C168.655 43.127 169.368 42.3092 169.784 41.3172L169.315 41.1213C168.932 42.0373 168.277 42.7889 167.583 43.5839C166.859 44.4142 166.111 45.2721 165.71 46.3287L166.185 46.5083Z" fill="#46413B"/>
<path d="M165.157 37.2944L165.623 37.0931C165.442 36.6747 165.197 36.2948 164.96 35.9269C164.801 35.6795 164.641 35.432 164.502 35.1726C164.347 34.8861 164.213 34.5762 164.083 34.2761C163.856 33.7503 163.621 33.2066 163.256 32.7334L162.854 33.0432C163.181 33.4665 163.392 33.9576 163.617 34.4775C163.751 34.7868 163.89 35.1075 164.055 35.4136C164.202 35.6871 164.371 35.9486 164.534 36.2021C164.769 36.5684 164.993 36.9146 165.157 37.2944Z" fill="#46413B"/>
<path d="M165.525 36.6401C165.587 36.0296 165.755 35.4354 166.022 34.8743C166.077 34.7603 166.135 34.6486 166.194 34.5362C166.289 34.3544 166.384 34.1721 166.463 33.9827C166.654 33.5366 166.755 33.0661 166.837 32.6239C167.071 31.3318 167.145 30.0137 167.059 28.7058L166.552 28.7395C166.637 30.0055 166.564 31.2824 166.337 32.5327C166.261 32.9451 166.168 33.383 165.996 33.7852C165.921 33.9626 165.833 34.1319 165.744 34.3012C165.683 34.4185 165.622 34.5351 165.564 34.6551C165.272 35.2694 165.089 35.9195 165.02 36.5886L165.525 36.6401Z" fill="#463C3B"/>
<path d="M150.418 68.288C150.619 68.2907 150.781 68.4681 150.956 68.5539C152.227 69.3586 153.414 70.2871 154.548 71.271C156.75 73.2088 158.761 75.3735 160.524 77.7173C159.294 76.0985 157.627 74.7191 156.019 73.4194C154.634 72.3617 153.337 71.1543 151.89 70.196C152.267 70.5454 152.663 70.8802 153.044 71.22C153.497 71.6112 153.967 71.9813 154.441 72.3492C153.718 71.9938 152.995 71.596 152.389 71.0631C151.811 70.4087 151.311 69.6831 150.796 68.9777C150.662 68.7671 150.504 68.5674 150.413 68.3335C150.408 68.3183 150.403 68.2956 150.418 68.288Z" fill="#46413B"/>
<path d="M154.215 47.6012C157.977 49.6052 160.889 52.7885 163.952 55.6885C161.222 53.5878 158.609 51.3428 155.855 49.2731C155.469 48.9812 155.101 48.6539 154.689 48.3956C154.791 48.502 154.892 48.6056 154.992 48.7152C155.318 49.075 155.638 49.4408 155.958 49.8076C155.469 49.2677 154.915 48.7853 154.431 48.2448C154.426 48.2534 154.431 48.2632 154.436 48.2708C154.403 48.2279 154.37 48.1845 154.337 48.1417C154.154 47.9311 153.981 47.7102 153.83 47.4715C153.652 47.2484 154.157 47.5605 154.215 47.6012Z" fill="#46413B"/>
<path d="M154.529 60.6471C156.339 62.1031 158.061 63.6633 159.705 65.3021C160.587 66.2181 161.544 67.1135 162.262 68.1685C161.747 67.4885 160.851 66.7483 159.923 65.9056C157.934 64.1327 156.024 62.2708 154.141 60.3856C154.052 60.2971 153.967 60.2081 153.88 60.1197C154.098 60.2944 154.317 60.4697 154.529 60.6471Z" fill="#46413B"/>
<path d="M162.265 68.1686C162.378 68.3184 162.473 68.4655 162.546 68.6104C162.455 68.4606 162.361 68.3135 162.265 68.1686Z" fill="#46413B"/>
<path d="M154.635 35.1665C157.395 38.309 160.527 41.1195 163.239 44.3055C163.338 44.4048 163.436 44.5008 163.533 44.6001C163.49 44.567 163.447 44.5312 163.404 44.4987C163.447 44.5524 163.493 44.6001 163.538 44.6533C163.482 44.5904 163.421 44.5296 163.363 44.4683C160.834 42.5022 158.436 40.3532 156.329 37.9389C157.615 39.1339 158.932 40.2903 160.233 41.4673C158.099 39.3515 156.118 37.0891 154.259 34.7296C153.932 34.3188 154.502 35.0189 154.635 35.1665Z" fill="#46413B"/>
<path d="M165.661 79.0463C166.356 78.8054 167.013 78.4521 167.721 78.2475C166.944 78.7261 166.214 79.297 165.349 79.6172C164.314 80.028 163.142 80.2206 162.098 80.4795C163.231 79.8712 164.459 79.4772 165.661 79.0463Z" fill="#46413B"/>
<path d="M166.818 71.9335C167.721 71.0756 168.459 70.4162 169.509 69.8307C171.1 68.9728 172.868 68.4116 174.654 68.1533C173.581 68.531 172.525 69.0693 171.386 69.574C169.817 70.2969 168.37 70.9643 167.001 71.9129C166.851 72.0068 166.666 72.1256 166.542 72.207C166.633 72.1186 166.724 72.0247 166.818 71.9335Z" fill="#46413B"/>
<path d="M173.654 58.5421C175.645 57.6841 177.527 57.2196 179.296 55.9563C177.716 57.5908 175.559 58.4357 173.487 59.254C172.758 59.5308 170.686 60.5711 169.45 61.416C170.284 60.5711 172.19 59.1607 173.654 58.5421Z" fill="#46413B"/>
<path d="M167.884 52.8778C168.259 52.2912 168.725 51.2411 169.227 50.521C170.899 48.187 173.565 45.9344 176.31 44.4551C174.684 45.6424 173.264 47.0838 171.843 48.5017C170.201 50.1102 169.185 51.3675 168.244 52.9185C168.274 52.9049 168.307 52.8897 168.35 52.8724C168.86 52.6466 169.375 52.4105 169.882 52.1875C169.862 52.2 169.844 52.2125 169.824 52.2255C169.233 52.6081 168.664 53.0346 168.031 53.3418C167.967 53.3722 167.896 53.3792 167.83 53.3445C167.642 53.2354 167.841 52.9456 167.884 52.8778Z" fill="#46413B"/>
<path d="M169.553 40.9011C170.349 38.2432 172.023 33.37 174.476 31.9341C173.38 32.8393 172.883 34.2833 172.269 35.564C171.455 37.3809 170.486 39.1233 169.656 40.9348C169.573 41.1171 169.448 41.3808 169.379 41.5078C169.433 41.307 169.486 41.1019 169.553 40.9011Z" fill="#46413B"/>
<path d="M172.929 36.2161C172.327 36.9698 171.917 37.85 171.412 38.664C170.907 39.4764 170.169 40.4754 169.677 41.125C170.507 39.3516 171.442 37.5282 172.929 36.2161Z" fill="#46413B"/>
<path d="M157.255 27.9916C159.636 29.3841 162.15 30.9318 163.434 33.4785C162.833 32.6341 162.041 31.9292 161.249 31.2569C160.032 30.209 159.053 29.5041 157.909 28.5984C157.627 28.3721 157.338 28.1241 157.082 27.8875C157.138 27.9211 157.196 27.9564 157.255 27.9916Z" fill="#46413B"/>
<path d="M161.353 17.1102C161.546 18.7941 162.021 20.4606 162.406 22.1217C162.913 24.2783 163.32 26.4576 163.727 28.6337C163.75 28.7661 163.789 28.9202 163.816 29.0293C163.736 28.8649 163.667 28.695 163.601 28.5246C162.229 24.8898 161.161 21.0261 161.353 17.1102Z" fill="#46413B"/>
<path d="M167.112 26.6912C167.477 25.1033 168.207 23.6268 168.913 22.1659C169.159 21.5744 169.499 21.0719 169.502 20.4001C169.604 20.8315 169.484 21.2754 169.39 21.6987C168.974 23.5231 167.949 25.1034 167.173 26.7802C167.142 26.8431 167.066 27.0515 167.038 27.1123C167.061 26.9701 167.084 26.8301 167.112 26.6912Z" fill="#46413B"/>
</svg>
