<svg width="268" height="146" viewBox="0 0 268 146" fill="none" xmlns="http://www.w3.org/2000/svg">
<path d="M123.387 74.5392C154.264 80.5434 186.902 76.3919 215.287 62.8514L214.968 62.1852C186.725 75.6577 154.252 79.7884 123.528 73.8137L123.387 74.5392Z" fill="#46413B"/>
<path d="M177.842 71.2416C177.82 71.1688 177.797 71.0964 177.774 71.0275C176.567 67.4948 176.992 63.2791 178.992 58.4176C180.168 55.5611 181.44 53.482 182.998 51.8761C184.82 49.9996 187.025 48.8487 189.245 48.6056C189.189 53.3367 188.246 57.6621 186.443 61.4658C184.48 65.6065 181.435 69.0635 177.842 71.2416ZM176.808 70.3797C176.886 70.6778 176.975 70.9746 177.075 71.2684C177.122 71.403 177.163 71.5508 177.198 71.6845L177.27 71.966C177.304 72.0952 177.394 72.4399 177.735 72.387C177.981 72.3488 178.043 72.1671 178.054 71.9756C181.844 69.7293 185.055 66.1177 187.111 61.7814C189.013 57.7709 189.98 53.2031 189.986 48.2034L189.988 47.8105L189.594 47.8346C187.057 47.9888 184.527 49.2427 182.467 51.3622C180.842 53.038 179.521 55.1904 178.308 58.1363C176.402 62.7717 175.897 66.8909 176.808 70.3797Z" fill="#46413B"/>
<path d="M172.47 50.8543C173.348 56.0366 171.086 61.3751 169.003 64.9799C166.247 69.746 163.033 72.8309 159.438 74.1628C159.469 73.8625 159.478 73.4937 159.49 73.0523C159.498 72.7465 159.507 72.4219 159.524 72.1006C159.824 66.6398 162.958 61.7745 165.723 57.4819C167.621 54.531 169.569 51.8062 172.47 50.8543ZM158.626 74.4725C158.633 74.4592 158.667 74.4209 158.729 74.4017L158.939 75.1093L158.949 75.1065C163.015 73.8748 166.612 70.5921 169.643 65.3487C172.799 59.8896 174.002 54.6884 173.12 50.3111L173.043 49.9263L172.663 50.0269C169.295 50.9243 167.081 54.0047 165.101 57.0823C162.426 61.2357 159.097 66.4042 158.785 72.0605C158.767 72.3885 158.759 72.7196 158.751 73.0327C158.737 73.5742 158.718 74.3164 158.626 74.4725Z" fill="#46413B"/>
<path d="M157.698 53.9191C157.446 61.944 152.864 69.9512 145.866 74.6426C146.25 72.7548 146.662 70.9771 147.063 69.2507C147.827 65.9626 148.618 62.5614 150.355 59.606C152.155 56.5457 154.875 54.4491 157.698 53.9191ZM144.808 76.1895L145.529 75.7411C153.275 70.9151 158.345 62.1806 158.447 53.4888L158.452 53.0631L158.029 53.1186C154.831 53.5374 151.724 55.823 149.717 59.2318C147.923 62.2846 147.12 65.7413 146.343 69.0841C145.881 71.0745 145.403 73.133 144.97 75.3569L144.808 76.1895Z" fill="#46413B"/>
<path d="M193.656 66.9011C193.56 66.6479 193.475 66.3842 193.405 66.1151C192.58 62.9542 193.626 59.036 194.769 55.2952C195.157 54.0316 195.553 52.7406 196.281 51.6711C196.899 50.7655 197.76 50.0171 198.599 49.343C201.485 47.025 204.677 45.1256 208.091 43.6946C208.103 43.7161 208.113 43.7338 208.121 43.7496C206.271 52.7472 201.015 61.1534 193.656 66.9011ZM192.691 66.3014C192.813 66.7691 192.972 67.2205 193.166 67.6402L193.358 68.0595L193.726 67.7801C201.453 61.897 206.973 53.1511 208.868 43.7844L208.864 43.6181C208.839 43.5218 208.807 43.4461 208.564 43.0409L208.4 42.7667L208.106 42.8883C204.514 44.3598 201.161 46.3383 198.135 48.7675C197.252 49.4776 196.342 50.2706 195.67 51.2556C194.879 52.4168 194.465 53.7628 194.066 55.0644C192.889 58.9221 191.816 62.9539 192.691 66.3014Z" fill="#46413B"/>
<path d="M218.888 42.8278C219.245 48.3601 217.572 54.0262 214.255 58.4677C213.257 59.8031 211.846 61.3879 209.647 62.0768C209.771 60.935 209.705 59.7841 209.642 58.6659C209.584 57.6379 209.523 56.5754 209.614 55.5507C209.906 52.3466 211.677 49.6442 213.111 47.9423C214.571 46.2134 216.465 44.5361 218.888 42.8278ZM208.748 63.067L209.289 62.9399C212.025 62.2987 213.697 60.4492 214.848 58.9092C218.4 54.1532 220.123 48.0348 219.575 42.1238L219.517 41.4973L218.998 41.853C216.263 43.7266 214.153 45.5622 212.546 47.4659C210.391 50.0242 209.123 52.7963 208.879 55.4844C208.782 56.5636 208.843 57.6537 208.904 58.7081C208.979 60.0281 209.05 61.2748 208.841 62.5187L208.748 63.067Z" fill="#46413B"/>
<path d="M243.617 52.0716C242.952 52.534 242.395 53.1355 241.852 53.7209C241.35 54.2633 240.83 54.8232 240.244 55.2453C238.686 56.3681 236.641 56.5779 234.663 56.7799L234.217 56.8258C227.865 57.4894 221.711 59.1463 215.899 61.755C218.667 58.4286 221.584 55.0929 225.263 52.6779C229.85 49.667 235.075 48.7598 239.241 50.2521C239.899 50.4872 240.554 50.7884 241.188 51.0795C241.971 51.4393 242.774 51.808 243.617 52.0716ZM213.202 63.8496L214.727 63.1151C220.897 60.1413 227.481 58.2721 234.294 57.5601L234.739 57.5144C236.813 57.302 238.958 57.0824 240.676 55.8445C241.323 55.3789 241.867 54.7913 242.394 54.2229C243.129 53.4307 243.822 52.6818 244.741 52.2809L245.816 51.8112L244.665 51.5804C243.57 51.3607 242.563 50.899 241.497 50.4086C240.848 50.1108 240.179 49.8029 239.49 49.5578C235.107 47.9867 229.637 48.9233 224.857 52.0613C220.718 54.7774 217.56 58.5899 214.505 62.2767L213.202 63.8496Z" fill="#46413B"/>
<path d="M239.509 69.6339C237.308 71.1774 235.111 72.4293 232.738 72.2958C230.552 72.1732 228.708 70.936 226.755 69.626C226.066 69.1625 225.352 68.6841 224.629 68.2657C222.349 66.9464 219.807 66.1502 217.192 65.9277C220.259 64.744 223.053 64.09 225.695 63.9347C229.75 63.6976 233.324 64.7572 235.762 66.9163C235.991 67.1204 236.221 67.338 236.452 67.5577C237.347 68.4046 238.332 69.3382 239.509 69.6339ZM213.628 66.6248L215.472 66.603C218.555 66.567 221.593 67.3622 224.259 68.9042C224.96 69.3111 225.663 69.7826 226.344 70.2387C228.293 71.547 230.309 72.8995 232.696 73.0332C235.608 73.1961 238.174 71.524 240.765 69.6445L241.882 68.8341L240.509 68.979C239.174 69.1187 238.049 68.0534 236.961 67.0218C236.723 66.7964 236.488 66.5729 236.252 66.3641C233.667 64.0735 229.902 62.9492 225.651 63.1983C222.477 63.3839 219.099 64.2659 215.321 65.8945L213.628 66.6248Z" fill="#46413B"/>
<path d="M223.948 82.1425C216.113 82.0703 207.784 79.3642 200.818 74.6165C203.8 73.6376 207.528 73.0751 211.411 73.0263C212.712 73.0088 214.083 73.0548 215.305 73.5037C217.534 74.3203 218.98 76.2432 220.51 78.2795C221.544 79.6566 222.607 81.0701 223.948 82.1425ZM199.222 74.4006L199.797 74.8067C207.345 80.1383 216.572 83.078 225.114 82.8731L226.378 82.8423L225.296 82.188C223.598 81.1612 222.329 79.4708 221.101 77.8364C219.574 75.8034 217.995 73.7016 215.56 72.8103C214.226 72.3206 212.772 72.2691 211.401 72.2869C207.135 72.3415 203.045 73.0058 199.883 74.1588L199.222 74.4006Z" fill="#46413B"/>
<path d="M204.772 89.8938C200.557 90.7155 196.505 91.2533 193.129 89.5122C190.469 88.1418 188.642 85.5325 187.03 83.2318C185.554 81.1287 184.032 78.9589 182.994 76.8957C187.348 77.5241 191.815 78.2324 195.858 80.154C200.384 82.305 203.618 85.8431 204.772 89.8938ZM181.743 75.9696L182.024 76.5851C183.082 78.8922 184.782 81.3135 186.425 83.6556C188.085 86.0261 189.967 88.7142 192.79 90.1678C196.481 92.0717 200.815 91.4312 205.304 90.5413L205.685 90.4665L205.561 89.9731C204.419 85.6008 200.998 81.7792 196.176 79.4875C191.819 77.4161 186.821 76.699 182.413 76.0658L181.743 75.9696Z" fill="#46413B"/>
<path d="M173.173 85.1659C172.934 84.2526 172.649 83.3505 172.216 82.6228C177.891 85.0538 183.19 89.4561 188.357 96.025C186.966 96.7579 185.353 97.456 183.657 97.5078C181.135 97.5862 178.525 96.1931 176.675 93.7824C174.972 91.5603 174.123 88.8616 173.574 86.7584C173.516 86.5375 173.461 86.3168 173.406 86.0961L173.378 85.9818C173.311 85.7126 173.244 85.438 173.173 85.1659ZM170.512 81.9535C171.764 82.5356 172.233 84.432 172.66 86.1581L172.688 86.2716C172.743 86.4966 172.8 86.7209 172.859 86.9448C173.425 89.1153 174.305 91.9046 176.089 94.2322C178.083 96.8315 180.921 98.3316 183.68 98.247C185.689 98.1845 187.545 97.3116 189.095 96.4668L189.476 96.2597L189.21 95.9168C183.365 88.3949 177.34 83.6041 170.792 81.2708L170.512 81.9535Z" fill="#46413B"/>
<path d="M170.208 102.965C166.617 102.196 163.334 99.1394 161.153 94.5057C160.286 92.6641 159.6 90.696 158.937 88.7932C158.23 86.7646 157.503 84.6758 156.544 82.702C157.187 82.9238 157.831 83.1314 158.46 83.3342C161.25 84.2362 163.887 85.0886 165.93 86.8856C167.634 88.3893 168.903 90.598 169.6 93.2691C169.708 93.6803 169.801 94.0953 169.878 94.5109C170.389 97.2812 170.311 100.163 170.208 102.965ZM155.017 81.3645L155.47 82.2171C156.616 84.3802 157.441 86.7471 158.239 89.0353C158.909 90.9571 159.601 92.9432 160.485 94.8204C162.855 99.8537 166.506 103.117 170.502 103.772L170.915 103.839L170.931 103.42C171.042 100.446 171.156 97.3686 170.604 94.3763C170.523 93.9436 170.428 93.5105 170.316 93.0825C169.581 90.2685 168.233 87.9344 166.419 86.3314C164.259 84.4323 161.553 83.5582 158.687 82.6317C157.78 82.339 156.843 82.0357 155.924 81.698L155.017 81.3645Z" fill="#46413B"/>
<path d="M152.861 92.8915C152.316 92.7609 151.757 92.7254 151.214 92.6897C150.411 92.637 149.653 92.5888 149.001 92.2509C148.284 91.8778 147.773 91.2044 147.226 90.4272C146.056 88.7614 144.861 86.9398 144.043 84.9187C143.776 84.257 143.542 83.552 143.352 82.8244C143.057 81.6917 142.86 80.4965 142.765 79.2641C145.247 80.2653 147.671 81.9888 150.156 84.5189C151.216 85.5994 152.386 86.9149 153.017 88.472C153.12 88.7284 153.207 88.9899 153.275 89.2505C153.522 90.1959 153.64 91.5743 152.861 92.8915ZM142.638 83.0106C142.836 83.7688 143.078 84.5042 143.358 85.196C144.204 87.2858 145.426 89.1493 146.621 90.8517C147.203 91.678 147.797 92.4571 148.66 92.9056C149.45 93.316 150.323 93.3726 151.166 93.4263C151.786 93.4673 152.371 93.505 152.919 93.6724L153.181 93.7527L153.334 93.5258C154.332 92.0427 154.462 90.0685 153.702 88.1949C153.023 86.518 151.795 85.1343 150.685 84.0016C147.941 81.2105 145.26 79.3672 142.485 78.3673L141.963 78.1785L141.991 78.7334C142.066 80.2169 142.284 81.6563 142.638 83.0106Z" fill="#46413B"/>
<path d="M175.657 74.5213L176.237 74.981C176.983 74.0409 177.594 72.9996 178.054 71.8858L177.369 71.6043C176.937 72.6547 176.361 73.6354 175.657 74.5213Z" fill="#46413B"/>
<path d="M156.275 76.3697L156.638 77.0134C157.697 76.4165 158.666 75.6641 159.519 74.7785L158.986 74.2665C158.183 75.1006 157.27 75.8082 156.275 76.3697Z" fill="#46413B"/>
<path d="M143.97 76.3598L144.491 76.8848C144.97 76.4088 145.425 75.8983 145.825 75.4476L145.272 74.9571C144.879 75.3993 144.433 75.901 143.97 76.3598Z" fill="#46413B"/>
<path d="M149.428 77.2371C149.99 77.4393 150.491 77.894 150.893 78.2588C152.478 79.6909 154.066 81.1205 155.657 82.5497L156.151 82.0013C154.562 80.5717 152.973 79.1431 151.389 77.7123C150.939 77.3037 150.378 76.7936 149.678 76.5416L149.428 77.2371Z" fill="#46413B"/>
<path d="M139.916 76.7295C140.648 77.5116 141.361 78.3434 142.039 79.2016L142.619 78.7442C141.93 77.8701 141.203 77.0224 140.457 76.2243L139.916 76.7295Z" fill="#46413B"/>
<path d="M162.248 76.7549C162.916 77.0674 163.57 77.3844 164.225 77.7019L164.298 77.7368C164.931 78.0446 165.585 78.3639 166.192 78.7268C167.011 79.2188 167.784 79.8156 168.534 80.3926L171.188 82.437L171.639 81.8524L168.985 79.8073C168.22 79.218 167.428 78.6087 166.572 78.0929C165.937 77.7138 165.269 77.3884 164.621 77.0728L164.549 77.0379C163.89 76.7189 163.233 76.4002 162.561 76.0863L162.248 76.7549Z" fill="#46413B"/>
<path d="M177.176 74.2744L177.402 74.6305L177.353 74.9331C179.14 75.2223 180.819 76.0719 182.442 76.8927L182.777 76.233C181.102 75.3864 179.37 74.5113 177.472 74.2039L177.257 74.2273L177.176 74.2744Z" fill="#46413B"/>
<path d="M191.28 71.1345L191.983 71.3664C192.436 69.9905 193.18 68.6889 193.901 67.4295L193.259 67.0633C192.521 68.3543 191.757 69.688 191.28 71.1345Z" fill="#46413B"/>
<path d="M191.517 71.6741C193.022 71.8353 194.383 72.5128 195.824 73.2299C197.193 73.9118 198.608 74.6151 200.16 74.837L200.264 74.1045C198.831 73.9005 197.531 73.2539 196.154 72.569C194.717 71.8542 193.232 71.1151 191.595 70.9391L191.517 71.6741Z" fill="#46413B"/>
<path d="M204.126 66.8429L204.582 67.425C205.105 67.0166 205.551 66.5321 205.983 66.0635C206.273 65.7477 206.563 65.4312 206.878 65.1401C207.224 64.8161 207.612 64.5133 207.988 64.2203C208.646 63.7074 209.326 63.1756 209.859 62.4878L209.274 62.0358C208.797 62.651 208.182 63.1297 207.532 63.6381C207.145 63.9407 206.744 64.2535 206.373 64.5993C206.042 64.9062 205.735 65.2402 205.438 65.5635C205.008 66.03 204.602 66.4723 204.126 66.8429Z" fill="#46413B"/>
<path d="M205.185 67.1205C206.068 66.9841 206.968 67.002 207.857 67.1719C208.038 67.2073 208.217 67.248 208.397 67.2893C208.688 67.3563 208.98 67.4231 209.277 67.4651C209.976 67.5703 210.677 67.5404 211.33 67.4925C213.238 67.348 215.124 66.9684 216.936 66.3655L216.703 65.6645C214.949 66.249 213.121 66.6158 211.275 66.7557C210.665 66.8002 210.014 66.8296 209.383 66.735C209.106 66.6947 208.834 66.6323 208.563 66.5691C208.375 66.5266 208.188 66.4831 207.998 66.4461C207.024 66.2597 206.04 66.241 205.072 66.3905L205.185 67.1205Z" fill="#463C3B"/>
<path d="M155.016 57.4722C155.086 57.756 154.896 58.0497 154.839 58.3273C154.172 60.4129 153.3 62.4264 152.33 64.3845C150.408 68.198 148.096 71.8258 145.44 75.1709C147.27 72.8435 148.602 69.9887 149.842 67.2458C150.824 64.9075 152.049 62.6372 152.868 60.246C152.514 60.9063 152.188 61.5873 151.849 62.2478C151.464 63.0306 151.115 63.8277 150.771 64.6308C151.006 63.4814 151.3 62.3172 151.829 61.2685C152.539 60.2133 153.378 59.2428 154.183 58.2575C154.43 57.9914 154.654 57.6964 154.95 57.482C154.97 57.4696 155 57.4543 155.016 57.4722Z" fill="#46413B"/>
<path d="M185.574 55.2199C184.132 61.2551 180.716 66.5259 177.754 71.9043C179.711 67.2873 181.915 62.7831 183.82 58.1431C184.089 57.4925 184.415 56.854 184.628 56.1798C184.516 56.3618 184.407 56.5428 184.289 56.7229C183.902 57.3152 183.504 57.8998 183.104 58.4855C183.685 57.5977 184.162 56.6409 184.746 55.7606C184.732 55.7561 184.72 55.7673 184.711 55.777C184.759 55.7146 184.808 55.6521 184.857 55.5905C185.086 55.2555 185.334 54.9306 185.615 54.6296C185.864 54.297 185.61 55.1224 185.574 55.2199Z" fill="#46413B"/>
<path d="M167.299 60.4546C165.912 63.5379 164.346 66.5372 162.64 69.4546C161.674 71.034 160.763 72.7105 159.54 74.1094C160.309 73.1342 161.023 71.601 161.87 69.9836C163.638 66.5308 165.56 63.1562 167.525 59.8119C167.617 59.6541 167.711 59.5006 167.804 59.3466C167.638 59.7173 167.471 60.0898 167.299 60.4546Z" fill="#46413B"/>
<path d="M159.541 74.1129C159.371 74.3278 159.199 74.5149 159.021 74.6714C159.199 74.4879 159.372 74.3015 159.541 74.1129Z" fill="#46413B"/>
<path d="M203.258 51.2417C199.842 56.2835 197.032 61.7276 193.539 66.7181C193.435 66.8937 193.336 67.0674 193.231 67.2406C193.262 67.1681 193.297 67.0938 193.327 67.0215C193.267 67.1016 193.216 67.1833 193.158 67.2671C193.226 67.1652 193.29 67.0573 193.355 66.953C195.196 62.6682 197.344 58.502 199.972 54.6464C198.761 56.8976 197.615 59.1767 196.434 61.4419C198.632 57.6593 201.093 54.0377 203.735 50.5515C204.194 49.9405 203.417 51.0009 203.258 51.2417Z" fill="#46413B"/>
<path d="M145.456 82.8906C146.051 83.7813 146.791 84.5773 147.34 85.4997C146.38 84.5809 145.306 83.7625 144.536 82.6616C143.577 81.3548 142.874 79.7744 142.124 78.398C143.399 79.7706 144.406 81.3557 145.456 82.8906Z" fill="#46413B"/>
<path d="M155.907 81.9052C157.449 82.8626 158.65 83.6591 159.862 84.9238C161.657 86.8488 163.098 89.133 164.119 91.5535C163.192 90.1812 162.045 88.8923 160.914 87.4734C159.318 85.5277 157.845 83.7359 156.004 82.1552C155.816 81.9787 155.581 81.7618 155.42 81.6166C155.578 81.7126 155.744 81.8065 155.907 81.9052Z" fill="#46413B"/>
<path d="M177.3 86.6139C179.242 89.1037 180.589 91.5835 183.02 93.6102C180.135 91.9851 178.15 89.2583 176.234 86.6401C175.576 85.7161 173.347 83.1795 171.702 81.7496C173.2 82.6139 175.889 84.7799 177.3 86.6139Z" fill="#46413B"/>
<path d="M183.161 76.4052C184.126 76.7178 185.778 76.9894 186.978 77.4318C190.884 78.9292 195.04 81.8568 198.136 85.1794C195.864 83.3256 193.309 81.8541 190.787 80.3748C187.916 78.6529 185.769 77.6832 183.236 76.9277C183.266 76.9648 183.3 77.0066 183.34 77.0606C183.846 77.6954 184.368 78.334 184.87 78.9667C184.845 78.943 184.82 78.9224 184.795 78.8989C184.038 78.2063 183.227 77.5627 182.561 76.7828C182.495 76.7046 182.459 76.607 182.483 76.501C182.568 76.1965 183.05 76.3698 183.161 76.4052Z" fill="#46413B"/>
<path d="M200.658 74.3558C204.699 74.5006 212.186 75.069 215.112 77.9959C213.433 76.7859 211.214 76.6155 209.183 76.2215C206.322 75.7424 203.509 75.0182 200.649 74.5142C200.361 74.4635 199.944 74.3853 199.739 74.3349C200.042 74.336 200.351 74.3363 200.658 74.3558Z" fill="#46413B"/>
<path d="M208.507 77.3904C207.223 76.8203 205.83 76.565 204.497 76.1531C203.166 75.7406 201.485 75.0679 200.388 74.6124C203.194 75.1305 206.11 75.7785 208.507 77.3904Z" fill="#46413B"/>
<path d="M214.335 52.2947C213.248 56.1607 211.991 60.271 208.872 63.0146C209.842 61.8582 210.544 60.4838 211.201 59.1215C212.23 57.021 212.864 55.3838 213.72 53.4388C213.935 52.9589 214.179 52.4611 214.418 52.0126C214.391 52.1037 214.363 52.1992 214.335 52.2947Z" fill="#46413B"/>
<path d="M231.184 54.0706C228.881 54.9614 226.706 56.2419 224.505 57.395C221.651 58.9014 218.728 60.2755 215.81 61.6492C215.632 61.73 215.429 61.8409 215.285 61.9199C215.487 61.7456 215.701 61.5861 215.917 61.431C220.537 58.1622 225.592 55.2388 231.184 54.0706Z" fill="#46413B"/>
<path d="M219.793 65.6986C222.166 65.6305 224.517 66.1162 226.836 66.574C227.761 66.703 228.594 66.997 229.543 66.7539C228.972 67.0562 228.302 67.0503 227.671 67.0736C224.945 67.1576 222.34 66.2949 219.69 65.8177C219.59 65.7973 219.268 65.7668 219.172 65.7502C219.381 65.73 219.587 65.7107 219.793 65.6986Z" fill="#46413B"/>
<path d="M143.715 74.5392C112.837 80.5434 80.1996 76.3919 51.8147 62.8514L52.1333 62.1852C80.3766 75.6577 112.85 79.7884 143.574 73.8137L143.715 74.5392Z" fill="#46413B"/>
<path d="M89.2597 71.2416C89.2812 71.1688 89.3042 71.0964 89.3279 71.0275C90.5341 67.4948 90.1096 63.2791 88.1093 58.4176C86.9335 55.5611 85.6617 53.482 84.1038 51.8761C82.2815 49.9996 80.0769 48.8487 77.8566 48.6056C77.9128 53.3367 78.8553 57.6621 80.6588 61.4658C82.6218 65.6065 85.6663 69.0635 89.2597 71.2416ZM90.2937 70.3797C90.2159 70.6778 90.1269 70.9746 90.0265 71.2684C89.9791 71.403 89.9389 71.5508 89.9039 71.6845L89.8312 71.966C89.7975 72.0952 89.7075 72.4399 89.3667 72.387C89.1201 72.3488 89.0588 72.1671 89.0476 71.9756C85.2579 69.7293 82.0462 66.1177 79.9905 61.7814C78.089 57.7709 77.1216 53.2031 77.1151 48.2034L77.114 47.8105L77.5073 47.8346C80.0441 47.9888 82.5748 49.2427 84.6343 51.3622C86.2598 53.038 87.5811 55.1904 88.7931 58.1363C90.6997 62.7717 91.2049 66.8909 90.2937 70.3797Z" fill="#46413B"/>
<path d="M94.6316 50.8543C93.7537 56.0366 96.0151 61.3751 98.0985 64.9799C100.854 69.746 104.069 72.8309 107.663 74.1628C107.632 73.8625 107.623 73.4937 107.612 73.0523C107.603 72.7465 107.595 72.4219 107.578 72.1006C107.277 66.6398 104.144 61.7745 101.379 57.4819C99.4809 54.531 97.5321 51.8062 94.6316 50.8543ZM108.475 74.4725C108.468 74.4592 108.434 74.4209 108.373 74.4017L108.163 75.1093L108.152 75.1065C104.087 73.8748 100.489 70.5921 97.4588 65.3487C94.3023 59.8896 93.1 54.6884 93.9817 50.3111L94.0586 49.9263L94.4384 50.0269C97.8066 50.9243 100.02 54.0047 102 57.0823C104.676 61.2357 108.005 66.4042 108.316 72.0605C108.334 72.3885 108.343 72.7196 108.351 73.0327C108.364 73.5742 108.384 74.3164 108.475 74.4725Z" fill="#46413B"/>
<path d="M109.403 53.9191C109.656 61.944 114.238 69.9512 121.235 74.6426C120.852 72.7548 120.439 70.9771 120.039 69.2507C119.275 65.9626 118.484 62.5614 116.747 59.606C114.946 56.5457 112.226 54.4491 109.403 53.9191ZM122.294 76.1895L121.573 75.7411C113.827 70.9151 108.756 62.1806 108.654 53.4888L108.65 53.0631L109.072 53.1186C112.271 53.5374 115.378 55.823 117.385 59.2318C119.179 62.2846 119.982 65.7413 120.759 69.0841C121.22 71.0745 121.698 73.133 122.131 75.3569L122.294 76.1895Z" fill="#46413B"/>
<path d="M73.4454 66.9011C73.5418 66.6479 73.6262 66.3842 73.6964 66.1151C74.522 62.9542 73.4756 59.036 72.3331 55.2952C71.9448 54.0316 71.5483 52.7406 70.821 51.6711C70.2028 50.7655 69.3417 50.0171 68.503 49.343C65.6161 47.025 62.4246 45.1256 59.0103 43.6946C58.999 43.7161 58.9886 43.7338 58.9804 43.7496C60.8304 52.7472 66.0868 61.1534 73.4454 66.9011ZM74.4109 66.3014C74.2888 66.7691 74.1292 67.2205 73.9354 67.6402L73.7434 68.0595L73.376 67.7801C65.6483 61.897 60.1284 53.1511 58.2335 43.7844L58.2377 43.6181C58.2629 43.5218 58.2949 43.4461 58.538 43.0409L58.7011 42.7667L58.9954 42.8883C62.5871 44.3598 65.9409 46.3383 68.9662 48.7675C69.8495 49.4776 70.7594 50.2706 71.432 51.2556C72.2228 52.4168 72.6361 53.7628 73.0356 55.0644C74.213 58.9221 75.2852 62.9539 74.4109 66.3014Z" fill="#46413B"/>
<path d="M48.2133 42.8278C47.8568 48.3601 49.5294 54.0262 52.8464 58.4677C53.845 59.8031 55.2557 61.3879 57.4544 62.0768C57.3302 60.935 57.3962 59.7841 57.4595 58.6659C57.518 57.6379 57.579 56.5754 57.4871 55.5507C57.1955 52.3466 55.4246 49.6442 53.9905 47.9423C52.5308 46.2134 50.6369 44.5361 48.2133 42.8278ZM58.3537 63.067L57.8124 62.9399C55.0767 62.2987 53.405 60.4492 52.2539 58.9092C48.7012 54.1532 46.9784 48.0348 47.5262 42.1238L47.5844 41.4973L48.1035 41.853C50.8385 43.7266 52.9485 45.5622 54.5554 47.4659C56.7103 50.0242 57.9785 52.7963 58.2226 55.4844C58.3199 56.5636 58.2583 57.6537 58.1978 58.7081C58.1227 60.0281 58.0512 61.2748 58.2607 62.5187L58.3537 63.067Z" fill="#46413B"/>
<path d="M23.4845 52.0716C24.1498 52.534 24.7068 53.1355 25.2493 53.7209C25.7515 54.2633 26.2713 54.8232 26.8572 55.2453C28.4155 56.3681 30.4607 56.5779 32.4385 56.7799L32.8841 56.8258C39.2363 57.4894 45.3903 59.1463 51.2026 61.755C48.4343 58.4286 45.5174 55.0929 41.8387 52.6779C37.2517 49.667 32.0262 48.7598 27.8606 50.2521C27.2027 50.4872 26.5479 50.7884 25.9138 51.0795C25.1302 51.4393 24.3272 51.808 23.4845 52.0716ZM53.8994 63.8496L52.3745 63.1151C46.2041 60.1413 39.6209 58.2721 32.8075 57.5601L32.3627 57.5144C30.2888 57.302 28.1432 57.0824 26.4253 55.8445C25.7788 55.3789 25.2345 54.7913 24.7072 54.2229C23.9728 53.4307 23.2794 52.6818 22.361 52.2809L21.2858 51.8112L22.4361 51.5804C23.532 51.3607 24.5384 50.899 25.6045 50.4086C26.2535 50.1108 26.923 49.8029 27.6113 49.5578C31.9945 47.9867 37.4647 48.9233 42.2448 52.0613C46.3834 54.7774 49.5419 58.5899 52.5968 62.2767L53.8994 63.8496Z" fill="#46413B"/>
<path d="M27.5925 69.6339C29.7936 71.1774 31.9908 72.4293 34.3635 72.2958C36.5496 72.1732 38.3933 70.936 40.3461 69.626C41.0359 69.1625 41.75 68.6841 42.4721 68.2657C44.7525 66.9464 47.295 66.1502 49.9091 65.9277C46.8427 64.744 44.0481 64.09 41.4068 63.9347C37.3519 63.6976 33.7772 64.7572 31.3396 66.9163C31.1106 67.1204 30.8806 67.338 30.6491 67.5577C29.7546 68.4046 28.7696 69.3382 27.5925 69.6339ZM53.4737 66.6248L51.6294 66.603C48.5467 66.567 45.5084 67.3622 42.8422 68.9042C42.1419 69.3111 41.4386 69.7826 40.7581 70.2387C38.8082 71.547 36.7929 72.8995 34.4054 73.0332C31.4939 73.1961 28.9276 71.524 26.3362 69.6445L25.2192 68.8341L26.5926 68.979C27.9273 69.1187 29.0521 68.0534 30.1403 67.0218C30.3781 66.7964 30.6138 66.5729 30.8497 66.3641C33.4344 64.0735 37.1993 62.9492 41.4504 63.1983C44.6247 63.3839 48.0029 64.2659 51.7801 65.8945L53.4737 66.6248Z" fill="#46413B"/>
<path d="M43.1535 82.1425C50.9889 82.0703 59.3177 79.3642 66.284 74.6165C63.3014 73.6376 59.5736 73.0751 55.6903 73.0263C54.3892 73.0088 53.0183 73.0548 51.7963 73.5037C49.5672 74.3203 48.122 76.2432 46.5917 78.2795C45.5579 79.6566 44.495 81.0701 43.1535 82.1425ZM67.8798 74.4006L67.3048 74.8067C59.7569 80.1383 50.5296 83.078 41.9879 82.8731L40.7236 82.8423L41.8056 82.188C43.5038 81.1612 44.773 79.4708 46.0006 77.8364C47.5276 75.8034 49.107 73.7016 51.5411 72.8103C52.8759 72.3206 54.3291 72.2691 55.7004 72.2869C59.9662 72.3415 64.0564 73.0058 67.2182 74.1588L67.8798 74.4006Z" fill="#46413B"/>
<path d="M62.3293 89.8938C66.5441 90.7155 70.5962 91.2533 73.9728 89.5122C76.6325 88.1418 78.4596 85.5325 80.0712 83.2318C81.5479 81.1287 83.0697 78.9589 84.1078 76.8957C79.7536 77.5241 75.2863 78.2324 71.2431 80.154C66.7176 82.305 63.4836 85.8431 62.3293 89.8938ZM85.3588 75.9696L85.0771 76.5851C84.0194 78.8922 82.3199 81.3135 80.6763 83.6556C79.0162 86.0261 77.1342 88.7142 74.3115 90.1678C70.6202 92.0717 66.2861 91.4312 61.7974 90.5413L61.4165 90.4665L61.5405 89.9731C62.6824 85.6008 66.1032 81.7792 70.9253 79.4875C75.2829 77.4161 80.2804 76.699 84.6882 76.0658L85.3588 75.9696Z" fill="#46413B"/>
<path d="M93.9289 85.1659C94.1675 84.2526 94.4521 83.3505 94.8857 82.6228C89.2109 85.0538 83.9119 89.4561 78.7449 96.025C80.1354 96.7579 81.749 97.456 83.4449 97.5078C85.9664 97.5862 88.5764 96.1931 90.4267 93.7824C92.1298 91.5603 92.9784 88.8616 93.5277 86.7584C93.5854 86.5375 93.6406 86.3168 93.6958 86.0961L93.724 85.9818C93.7902 85.7126 93.8579 85.438 93.9289 85.1659ZM96.59 81.9535C95.3374 82.5356 94.8683 84.432 94.4411 86.1581L94.4131 86.2716C94.3585 86.4966 94.3015 86.7209 94.243 86.9448C93.6761 89.1153 92.7965 91.9046 91.0128 94.2322C89.0184 96.8315 86.1802 98.3316 83.4217 98.247C81.4125 98.1845 79.5569 97.3116 78.0069 96.4668L77.6255 96.2597L77.8915 95.9168C83.7364 88.3949 89.7619 83.6041 96.31 81.2708L96.59 81.9535Z" fill="#46413B"/>
<path d="M96.8933 102.965C100.485 102.196 103.767 99.1394 105.948 94.5057C106.816 92.6641 107.501 90.696 108.165 88.7932C108.872 86.7646 109.599 84.6758 110.557 82.702C109.914 82.9238 109.27 83.1314 108.642 83.3342C105.851 84.2362 103.215 85.0886 101.171 86.8856C99.4678 88.3893 98.1989 90.598 97.5013 93.2691C97.3939 93.6803 97.301 94.0953 97.2235 94.5109C96.7124 97.2812 96.7907 100.163 96.8933 102.965ZM112.084 81.3645L111.632 82.2171C110.485 84.3802 109.66 86.7471 108.862 89.0353C108.193 90.9571 107.501 92.9432 106.617 94.8204C104.247 99.8537 100.595 103.117 96.6 103.772L96.1861 103.839L96.1704 103.42C96.06 100.446 95.9452 97.3686 96.4971 94.3763C96.5783 93.9436 96.6734 93.5105 96.7852 93.0825C97.5201 90.2685 98.8684 87.9344 100.683 86.3314C102.842 84.4323 105.549 83.5582 108.414 82.6317C109.321 82.339 110.259 82.0357 111.177 81.698L112.084 81.3645Z" fill="#46413B"/>
<path d="M114.241 92.8915C114.785 92.7609 115.345 92.7254 115.887 92.6897C116.691 92.637 117.448 92.5888 118.1 92.2509C118.817 91.8778 119.328 91.2044 119.876 90.4272C121.046 88.7614 122.24 86.9398 123.058 84.9187C123.326 84.257 123.559 83.552 123.749 82.8244C124.045 81.6917 124.242 80.4965 124.337 79.2641C121.854 80.2653 119.431 81.9888 116.945 84.5189C115.885 85.5994 114.716 86.9149 114.084 88.472C113.981 88.7284 113.894 88.9899 113.826 89.2505C113.579 90.1959 113.462 91.5743 114.241 92.8915ZM124.464 83.0106C124.266 83.7688 124.024 84.5042 123.743 85.196C122.898 87.2858 121.676 89.1493 120.481 90.8517C119.899 91.678 119.305 92.4571 118.442 92.9056C117.651 93.316 116.779 93.3726 115.935 93.4263C115.316 93.4673 114.731 93.505 114.183 93.6724L113.921 93.7527L113.768 93.5258C112.769 92.0427 112.639 90.0685 113.4 88.1949C114.079 86.518 115.306 85.1343 116.417 84.0016C119.16 81.2105 121.841 79.3672 124.617 78.3673L125.139 78.1785L125.11 78.7334C125.036 80.2169 124.817 81.6563 124.464 83.0106Z" fill="#46413B"/>
<path d="M91.4443 74.5213L90.8641 74.981C90.1182 74.0409 89.5074 72.9996 89.048 71.8858L89.7321 71.6043C90.1647 72.6547 90.7406 73.6354 91.4443 74.5213Z" fill="#46413B"/>
<path d="M110.827 76.3697L110.464 77.0134C109.405 76.4165 108.436 75.6641 107.583 74.7785L108.116 74.2665C108.919 75.1006 109.832 75.8082 110.827 76.3697Z" fill="#46413B"/>
<path d="M123.131 76.3598L122.61 76.8848C122.131 76.4088 121.677 75.8983 121.276 75.4476L121.83 74.9571C122.222 75.3993 122.668 75.901 123.131 76.3598Z" fill="#46413B"/>
<path d="M117.674 77.2371C117.112 77.4393 116.61 77.894 116.209 78.2588C114.624 79.6909 113.035 81.1205 111.445 82.5497L110.951 82.0013C112.539 80.5717 114.129 79.1431 115.712 77.7123C116.162 77.3037 116.724 76.7936 117.424 76.5416L117.674 77.2371Z" fill="#46413B"/>
<path d="M127.185 76.7295C126.454 77.5116 125.74 78.3434 125.063 79.2016L124.482 78.7442C125.172 77.8701 125.899 77.0224 126.644 76.2243L127.185 76.7295Z" fill="#46413B"/>
<path d="M104.854 76.7549C104.185 77.0674 103.531 77.3844 102.876 77.7019L102.804 77.7368C102.171 78.0446 101.516 78.3639 100.91 78.7268C100.091 79.2188 99.3171 79.8156 98.5674 80.3926L95.9137 82.437L95.4625 81.8524L98.1164 79.8073C98.8816 79.218 99.6732 78.6087 100.529 78.0929C101.165 77.7138 101.833 77.3884 102.48 77.0728L102.553 77.0379C103.212 76.7189 103.868 76.4002 104.54 76.0863L104.854 76.7549Z" fill="#46413B"/>
<path d="M89.9251 74.2744L89.6996 74.6305L89.7481 74.9331C87.9619 75.2223 86.2827 76.0719 84.6593 76.8927L84.3248 76.233C86 75.3864 87.7316 74.5113 89.6296 74.2039L89.845 74.2273L89.9251 74.2744Z" fill="#46413B"/>
<path d="M75.8212 71.1345L75.119 71.3664C74.666 69.9905 73.9213 68.6889 73.2008 67.4295L73.8424 67.0633C74.5808 68.3543 75.3449 69.688 75.8212 71.1345Z" fill="#46413B"/>
<path d="M75.585 71.6741C74.0792 71.8353 72.7181 72.5128 71.2772 73.2299C69.9084 73.9118 68.4931 74.6151 66.9412 74.837L66.8375 74.1045C68.2703 73.9005 69.5711 73.2539 70.9472 72.569C72.3843 71.8542 73.8693 71.1151 75.5065 70.9391L75.585 71.6741Z" fill="#46413B"/>
<path d="M62.9751 66.8429L62.5198 67.425C61.9963 67.0166 61.5507 66.5321 61.119 66.0635C60.8287 65.7477 60.5387 65.4312 60.224 65.1401C59.8771 64.8161 59.4895 64.5133 59.1141 64.2203C58.456 63.7074 57.776 63.1756 57.2429 62.4878L57.8276 62.0358C58.3045 62.651 58.9191 63.1297 59.5693 63.6381C59.9562 63.9407 60.3575 64.2535 60.7282 64.5993C61.0599 64.9062 61.3667 65.2402 61.6639 65.5635C62.0938 66.03 62.4997 66.4723 62.9751 66.8429Z" fill="#46413B"/>
<path d="M61.9171 67.1205C61.0333 66.9841 60.1337 67.002 59.2443 67.1719C59.0635 67.2073 58.8845 67.248 58.7045 67.2893C58.4132 67.3563 58.1212 67.4231 57.825 67.4651C57.1257 67.5703 56.425 67.5404 55.7715 67.4925C53.8633 67.348 51.9774 66.9684 50.1653 66.3655L50.3991 65.6645C52.153 66.249 53.9802 66.6158 55.8266 66.7557C56.4361 66.8002 57.0879 66.8296 57.7182 66.735C57.996 66.6947 58.2673 66.6323 58.5387 66.5691C58.7264 66.5266 58.9134 66.4831 59.1037 66.4461C60.0775 66.2597 61.0615 66.241 62.0301 66.3905L61.9171 67.1205Z" fill="#463C3B"/>
<path d="M112.085 57.4722C112.015 57.756 112.206 58.0497 112.262 58.3273C112.93 60.4129 113.802 62.4264 114.772 64.3845C116.694 68.198 119.006 71.8258 121.661 75.1709C119.832 72.8435 118.5 69.9887 117.259 67.2458C116.278 64.9075 115.052 62.6372 114.234 60.246C114.588 60.9063 114.914 61.5873 115.253 62.2478C115.638 63.0306 115.987 63.8277 116.331 64.6308C116.096 63.4814 115.801 62.3172 115.273 61.2685C114.563 60.2133 113.724 59.2428 112.919 58.2575C112.671 57.9914 112.448 57.6964 112.151 57.482C112.132 57.4696 112.101 57.4543 112.085 57.4722Z" fill="#46413B"/>
<path d="M81.5277 55.2199C82.9691 61.2551 86.3857 66.5259 89.3477 71.9043C87.3904 67.2873 85.1864 62.7831 83.2818 58.1431C83.0121 57.4925 82.6862 56.854 82.4733 56.1798C82.5859 56.3618 82.6947 56.5428 82.8127 56.7229C83.1998 57.3152 83.5979 57.8998 83.9972 58.4855C83.4161 57.5977 82.9396 56.6409 82.3556 55.7606C82.3699 55.7561 82.3816 55.7673 82.3906 55.777C82.3423 55.7146 82.2933 55.6521 82.2448 55.5905C82.0153 55.2555 81.7675 54.9306 81.4866 54.6296C81.2377 54.297 81.4919 55.1224 81.5277 55.2199Z" fill="#46413B"/>
<path d="M99.8022 60.4546C101.189 63.5379 102.755 66.5372 104.461 69.4546C105.428 71.034 106.338 72.7105 107.562 74.1094C106.792 73.1342 106.078 71.601 105.232 69.9836C103.464 66.5308 101.542 63.1562 99.5762 59.8119C99.4842 59.6541 99.3903 59.5006 99.2973 59.3466C99.4636 59.7173 99.6303 60.0898 99.8022 60.4546Z" fill="#46413B"/>
<path d="M107.561 74.1129C107.73 74.3278 107.903 74.5149 108.08 74.6714C107.902 74.4879 107.73 74.3015 107.561 74.1129Z" fill="#46413B"/>
<path d="M63.844 51.2417C67.2591 56.2835 70.0691 61.7276 73.5629 66.7181C73.6666 66.8937 73.7659 67.0674 73.8702 67.2406C73.8393 67.1681 73.8048 67.0938 73.7746 67.0215C73.8346 67.1016 73.8852 67.1833 73.9434 67.2671C73.8752 67.1652 73.8118 67.0573 73.7467 66.953C71.9054 62.6682 69.7577 58.502 67.1294 54.6464C68.3407 56.8976 69.4868 59.1767 70.6674 61.4419C68.4694 57.6593 66.0088 54.0377 63.3665 50.5515C62.9075 49.9405 63.6846 51.0009 63.844 51.2417Z" fill="#46413B"/>
<path d="M121.646 82.8906C121.05 83.7813 120.31 84.5773 119.761 85.4997C120.722 84.5809 121.795 83.7625 122.565 82.6616C123.525 81.3548 124.228 79.7744 124.977 78.398C123.703 79.7706 122.695 81.3557 121.646 82.8906Z" fill="#46413B"/>
<path d="M111.194 81.9052C109.652 82.8626 108.452 83.6591 107.24 84.9238C105.445 86.8488 104.003 89.133 102.982 91.5535C103.909 90.1812 105.057 88.8923 106.187 87.4734C107.784 85.5277 109.257 83.7359 111.098 82.1552C111.285 81.9787 111.521 81.7618 111.682 81.6166C111.523 81.7126 111.357 81.8065 111.194 81.9052Z" fill="#46413B"/>
<path d="M89.8021 86.6139C87.8599 89.1037 86.5128 91.5835 84.0813 93.6102C86.9668 91.9851 88.9513 89.2583 90.8673 86.6401C91.5253 85.7161 93.7542 83.1795 95.3999 81.7496C93.9019 82.6139 91.2126 84.7799 89.8021 86.6139Z" fill="#46413B"/>
<path d="M83.9404 76.4052C82.9754 76.7178 81.3234 76.9894 80.1235 77.4318C76.2178 78.9292 72.0613 81.8568 68.966 85.1794C71.238 83.3256 73.7927 81.8541 76.3142 80.3748C79.186 78.6529 81.3325 77.6832 83.8652 76.9277C83.8351 76.9648 83.8014 77.0066 83.7611 77.0606C83.2554 77.6954 82.7331 78.334 82.232 78.9667C82.257 78.943 82.2812 78.9224 82.307 78.8989C83.0639 78.2063 83.8743 77.5627 84.5405 76.7828C84.6067 76.7046 84.6428 76.607 84.6181 76.501C84.5334 76.1965 84.0518 76.3698 83.9404 76.4052Z" fill="#46413B"/>
<path d="M66.4432 74.3558C62.4028 74.5006 54.916 75.069 51.9893 77.9959C53.6684 76.7859 55.8874 76.6155 57.9189 76.2215C60.7799 75.7424 63.5931 75.0182 66.4524 74.5142C66.7403 74.4635 67.1578 74.3853 67.3622 74.3349C67.0596 74.336 66.7506 74.3363 66.4432 74.3558Z" fill="#46413B"/>
<path d="M58.595 77.3904C59.879 76.8203 61.2713 76.565 62.6047 76.1531C63.9359 75.7406 65.6161 75.0679 66.7133 74.6124C63.9072 75.1305 60.992 75.7785 58.595 77.3904Z" fill="#46413B"/>
<path d="M52.7667 52.2947C53.8539 56.1607 55.111 60.271 58.2295 63.0146C57.26 61.8582 56.5574 60.4838 55.9007 59.1215C54.8713 57.021 54.2375 55.3838 53.3816 53.4388C53.1661 52.9589 52.9227 52.4611 52.6835 52.0126C52.7104 52.1037 52.7386 52.1992 52.7667 52.2947Z" fill="#46413B"/>
<path d="M35.9178 54.0706C38.2209 54.9614 40.396 56.2419 42.5963 57.395C45.4503 58.9014 48.3732 60.2755 51.2914 61.6492C51.4697 61.73 51.6728 61.8409 51.8164 61.9199C51.6143 61.7456 51.4002 61.5861 51.1841 61.431C46.5643 58.1622 41.5095 55.2388 35.9178 54.0706Z" fill="#46413B"/>
<path d="M47.3087 65.6986C44.9353 65.6305 42.5848 66.1162 40.2652 66.574C39.3407 66.703 38.5071 66.997 37.5589 66.7539C38.1296 67.0562 38.7996 67.0503 39.431 67.0736C42.1566 67.1576 44.7618 66.2949 47.4117 65.8177C47.5118 65.7973 47.8336 65.7668 47.9295 65.7502C47.7206 65.73 47.5148 65.7107 47.3087 65.6986Z" fill="#46413B"/>
</svg>
