<svg width="82" height="82" viewBox="0 0 82 82" fill="none" xmlns="http://www.w3.org/2000/svg">
<rect y="0.00012207" width="82" height="82" rx="2.11872" fill="#3175A8"/>
<path d="M27.8529 35.759C27.8529 39.0444 25.1872 41.7101 21.9018 41.7101C18.6165 41.7101 15.9508 39.0444 15.9508 35.759C15.9508 32.4736 18.6165 29.8079 21.9018 29.8079C25.1872 29.8079 27.8529 32.4736 27.8529 35.759ZM21.9018 45.0074C23.1181 45.0074 24.2753 44.7456 25.3206 44.2836H27.6921C30.5794 44.2836 32.9194 46.6236 32.9194 49.5109V50.2347C32.9194 51.1225 32.1989 51.843 31.3111 51.843H12.4926C11.6048 51.843 10.8843 51.1225 10.8843 50.2347V49.5109C10.8843 46.6236 13.2243 44.2836 16.1116 44.2836H18.4836C19.5319 44.7452 20.6849 45.0074 21.9018 45.0074Z" stroke="white" stroke-width="1.12601"/>
<path d="M66.0482 35.7591C66.0482 39.0444 63.3825 41.7101 60.0972 41.7101C56.8118 41.7101 54.1461 39.0444 54.1461 35.7591C54.1461 32.4737 56.8118 29.808 60.0972 29.808C63.3825 29.808 66.0482 32.4737 66.0482 35.7591ZM60.0972 45.0075C61.3134 45.0075 62.4706 44.7456 63.5159 44.2837H65.8874C68.7747 44.2837 71.1147 46.6237 71.1147 49.511V50.2348C71.1147 51.1226 70.3942 51.8431 69.5064 51.8431H50.688C49.8001 51.8431 49.0796 51.1226 49.0796 50.2348V49.511C49.0796 46.6237 51.4196 44.2837 54.3069 44.2837H56.6789C57.7272 44.7453 58.8802 45.0075 60.0972 45.0075Z" stroke="white" stroke-width="1.12601"/>
<path d="M34.8721 36.1934L47.2978 36.1499" stroke="white" stroke-width="1.12601"/>
<path d="M44.3317 32.5528C44.1118 32.3329 43.7554 32.3329 43.5355 32.5528C43.3156 32.7726 43.3156 33.1291 43.5355 33.349L44.3317 32.5528ZM47.1762 36.1934L47.5743 36.5915C47.7941 36.3717 47.7941 36.0152 47.5743 35.7953L47.1762 36.1934ZM43.5355 39.0379C43.3156 39.2577 43.3156 39.6142 43.5355 39.8341C43.7554 40.054 44.1118 40.054 44.3317 39.8341L43.5355 39.0379ZM43.5355 33.349L46.778 36.5915L47.5743 35.7953L44.3317 32.5528L43.5355 33.349ZM46.778 35.7953L43.5355 39.0379L44.3317 39.8341L47.5743 36.5915L46.778 35.7953Z" fill="white"/>
<path d="M36.3265 32.5528C36.5464 32.3329 36.9028 32.3329 37.1227 32.5528C37.3426 32.7726 37.3426 33.1291 37.1227 33.349L36.3265 32.5528ZM33.4821 36.1934L33.0839 36.5915C32.8641 36.3717 32.8641 36.0152 33.0839 35.7953L33.4821 36.1934ZM37.1227 39.0379C37.3426 39.2577 37.3426 39.6142 37.1227 39.8341C36.9028 40.054 36.5464 40.054 36.3265 39.8341L37.1227 39.0379ZM37.1227 33.349L33.8802 36.5915L33.0839 35.7953L36.3265 32.5528L37.1227 33.349ZM33.8802 35.7953L37.1227 39.0379L36.3265 39.8341L33.0839 36.5915L33.8802 35.7953Z" fill="white"/>
</svg>
