<svg width="82" height="82" viewBox="0 0 82 82" fill="none" xmlns="http://www.w3.org/2000/svg">
<rect y="-0.0012207" width="82" height="82" rx="2.19704" fill="#3175A8"/>
<g clip-path="url(#clip0_1307_35100)">
<path d="M58.697 40.3469C58.6871 40.4403 58.6576 40.5289 58.6133 40.6174C58.5641 40.824 58.5395 41.0602 58.5395 41.3209C58.5395 41.3455 58.5445 41.3701 58.5445 41.3947V58.4842C58.7609 59.0204 59.0266 59.4238 59.3463 59.6747C59.6415 59.9108 60.0055 60.024 60.4482 60.0043C60.4777 59.9994 60.5122 59.9994 60.5417 59.9994H65.4413C65.4511 59.9994 65.4659 59.9994 65.4806 59.9994C66.2431 60.0387 66.7941 59.8321 67.163 59.4091C67.5812 58.927 67.8222 58.1547 67.9058 57.1167V57.1019L69.3964 41.6849C69.3964 41.6603 69.3964 41.6357 69.4013 41.6111C69.5046 40.7355 69.3128 40.1649 68.8799 39.8303C68.383 39.4466 67.5615 39.2892 66.494 39.2892C66.4694 39.2892 66.4448 39.2941 66.4202 39.2941H60.9008V39.2892C60.0596 39.2892 59.4398 39.4565 59.061 39.8008C58.9036 39.9435 58.7855 40.1255 58.697 40.3469ZM53.2956 59.2517C53.1775 59.1385 53.0939 58.9909 53.0595 58.8286L45.1886 44.6611C44.313 43.2001 43.5259 43.1656 42.7634 43.6182C42.2223 43.9379 41.6517 44.4594 41.081 44.9808C40.7367 45.2957 40.3923 45.6105 40.1021 45.8515L38.7493 46.9682L38.7395 46.9731C37.7556 47.7651 36.6438 48.1931 35.5911 48.2767C34.8975 48.3358 34.2285 48.2472 33.6185 48.016C32.9937 47.7799 32.4428 47.4011 32.0296 46.8846C31.5819 46.3287 31.2867 45.6203 31.2179 44.7841H31.2228C31.208 44.5824 31.2671 44.3807 31.4048 44.2134L35.7043 39.0974C34.7991 39.0826 33.9973 39.2056 33.2446 39.4417C32.0984 39.8008 31.026 40.4207 29.8552 41.2225C29.7224 41.3258 29.5502 41.3898 29.3682 41.3898H24.4145V50.7511L24.4342 56.7379H27.3169C27.5924 56.7379 27.858 56.8806 28.0007 57.1364L31.5819 63.3789C32.1033 64.289 32.5658 65.0761 33.1413 65.5926C33.6824 66.0796 34.3908 66.3797 35.4829 66.4092C35.8912 66.419 36.2847 66.3502 36.6537 66.1977C36.88 66.1042 37.1063 65.9763 37.3276 65.814L35.0057 61.4752C34.7991 61.0915 34.9467 60.6143 35.3304 60.4126C35.7141 60.206 36.1913 60.3536 36.393 60.7373L38.9165 65.4549C39.8561 65.932 40.7072 66.0796 41.4697 65.9173C42.1682 65.7648 42.8274 65.3466 43.4472 64.6678L39.8119 58.9614C39.5806 58.5974 39.684 58.1104 40.0529 57.8743C40.4169 57.643 40.9039 57.7464 41.1401 58.1153L44.9673 64.1267C45.6412 64.4021 46.2856 64.4612 46.9005 64.2939C47.4859 64.1316 48.0762 63.7577 48.6616 63.1477L45.1935 56.6149C44.9869 56.2312 45.1345 55.7491 45.5231 55.5474C45.9068 55.3408 46.3889 55.4884 46.5906 55.877L50.1817 62.6361C50.649 62.9067 51.1901 62.9755 51.7067 62.8919C52.1592 62.8181 52.5971 62.6214 52.9562 62.341C53.3005 62.0655 53.5711 61.7113 53.699 61.3079C53.8416 60.8701 53.8269 60.3585 53.5957 59.8026L53.2956 59.2517ZM54.3385 57.8841H56.9654V41.3947C56.9654 41.375 56.9654 41.3504 56.9703 41.3307C56.9703 41.0749 56.9851 40.829 57.0195 40.5978L54.3434 38.8219C54.3286 38.8121 54.3139 38.8022 54.2991 38.7924C53.9499 38.5612 53.5317 38.266 53.1136 37.9709C51.5935 36.9083 50.0341 35.8113 48.3468 35.3686C47.4367 35.1275 46.384 34.9701 45.3116 34.9504C44.372 34.9307 43.4177 35.0193 42.5175 35.2554C41.9813 35.3932 41.4598 35.585 40.9777 35.8408C40.5497 36.0671 40.1513 36.3426 39.7971 36.6771L38.0065 38.8071C37.9524 38.9154 37.8737 39.0039 37.7802 39.0777L32.8412 44.9612C32.915 45.335 33.0626 45.6499 33.2643 45.9057C33.5004 46.1959 33.8153 46.4123 34.1744 46.5501C34.5581 46.6927 35.0008 46.7469 35.4632 46.7075C36.2159 46.6435 37.0226 46.3336 37.7458 45.7532L39.0986 44.6365C39.4429 44.3512 39.7331 44.0855 40.0234 43.8248C40.658 43.2443 41.2876 42.6688 41.9567 42.2703C43.4964 41.3504 45.0312 41.3209 46.5463 43.8642L46.5611 43.8888L54.3385 57.8841ZM57.2605 59.4632H55.16C55.4453 60.2945 55.4306 61.0816 55.2043 61.7802C54.9731 62.4984 54.5205 63.1084 53.94 63.5708C53.3743 64.0184 52.6856 64.3283 51.9625 64.4464C51.259 64.5645 50.5211 64.5005 49.8324 64.2152C49.0355 65.0466 48.1943 65.5729 47.3187 65.814C46.4381 66.055 45.5477 66.0058 44.6475 65.691C43.7915 66.6404 42.847 67.2356 41.8042 67.457C40.7416 67.6882 39.6151 67.5259 38.4197 66.9651C38.0458 67.2553 37.6572 67.4865 37.2489 67.6538C36.6734 67.8948 36.0683 68.003 35.4337 67.9834C33.9186 67.9391 32.9003 67.4914 32.0886 66.7634C31.3113 66.0698 30.7948 65.1843 30.2045 64.1611L26.8545 58.317H24.2571C24.1046 59.0696 23.8439 59.7091 23.4503 60.2208C22.7862 61.0767 21.8171 61.5293 20.4693 61.4998C20.4545 61.4998 20.4397 61.4998 20.425 61.4998H15.973C14.8514 61.6818 13.8922 61.4063 13.1395 60.5356C12.4705 59.7633 12.0179 58.5088 11.8212 56.669C11.8163 56.6494 11.8163 56.6248 11.8113 56.6002L10.6405 42.0883C10.4093 40.524 10.6651 39.4171 11.2948 38.6596C11.9294 37.8971 12.8887 37.5527 14.0644 37.4986C14.0988 37.4937 14.1283 37.4937 14.1627 37.4937H20.1593V37.4986C21.2908 37.4839 22.2648 37.6757 23.0027 38.1529C23.5979 38.5366 24.0259 39.0777 24.2423 39.8156H29.1272C30.357 38.9892 31.5032 38.3398 32.7724 37.9413C34.0219 37.5527 35.355 37.415 36.9538 37.6068L38.6017 35.6588C38.6312 35.6194 38.6607 35.585 38.7001 35.5506C39.1674 35.1078 39.6889 34.7438 40.2497 34.4487C40.84 34.1387 41.4697 33.9026 42.1288 33.7304C43.1717 33.4599 44.2687 33.3566 45.3411 33.3763C46.5562 33.4009 47.7368 33.5779 48.7551 33.8436C50.7031 34.3601 52.3855 35.5358 54.0187 36.682C54.3828 36.9378 54.7468 37.1936 55.1797 37.4789C55.1944 37.4888 55.2092 37.4986 55.2239 37.5084L57.595 39.0925C57.7131 38.9252 57.8508 38.7727 58.0083 38.635C58.6871 38.025 59.6562 37.7249 60.9057 37.7249V37.72H66.4251C66.4448 37.72 66.4694 37.72 66.4891 37.7249C67.9009 37.72 69.052 37.9758 69.849 38.5907C70.7344 39.2745 71.1526 40.3124 70.9755 41.803C70.9755 41.8177 70.9706 41.8276 70.9706 41.8423L69.48 57.2446C69.3718 58.622 69.0028 59.6993 68.3535 60.447C67.6599 61.244 66.7006 61.6375 65.4413 61.5834H60.5417H60.5368C59.6907 61.6277 58.9675 61.3965 58.3624 60.9144C57.9197 60.5553 57.5508 60.0732 57.2605 59.4632ZM17.4488 53.4764C18.0391 53.4764 18.5163 53.9536 18.5163 54.5439C18.5163 55.1342 18.0391 55.6114 17.4488 55.6114C16.8585 55.6114 16.3813 55.1342 16.3813 54.5439C16.3813 53.9536 16.8585 53.4764 17.4488 53.4764ZM63.9114 53.4764C64.5017 53.4764 64.9789 53.9536 64.9789 54.5439C64.9789 55.1342 64.5017 55.6114 63.9114 55.6114C63.3211 55.6114 62.8439 55.1342 62.8439 54.5439C62.8439 53.9536 63.3211 53.4764 63.9114 53.4764ZM22.8354 48.931L22.8059 40.6027C22.8059 40.5879 22.8059 40.5732 22.8059 40.5535C22.7223 40.032 22.496 39.6828 22.1615 39.4663C21.704 39.1712 21.0202 39.058 20.179 39.0679H20.1692V39.0728H14.1677C14.1578 39.0728 14.148 39.0728 14.1381 39.0728C13.3953 39.1072 12.8296 39.2843 12.5099 39.668C12.1655 40.0763 12.0475 40.7847 12.2098 41.8817C12.2147 41.9063 12.2147 41.926 12.2147 41.9506L13.3855 56.4772V56.5018C13.5429 58.0071 13.8676 58.9713 14.3251 59.5025C14.6891 59.9256 15.186 60.0437 15.7812 59.9354C15.8255 59.9256 15.8747 59.9207 15.9189 59.9207V59.9158H20.4201C20.4496 59.9158 20.4791 59.9158 20.5037 59.9207C21.3006 59.9354 21.8516 59.6993 22.1959 59.2517C22.5993 58.7302 22.7961 57.9136 22.8256 56.8609H22.8207V48.931H22.8354Z" fill="white"/>
</g>
<circle cx="38.7278" cy="23.4987" r="7.7482" stroke="white" stroke-width="1.5036"/>
<path d="M34.9998 23.8518L37.032 25.884C37.363 26.215 37.9061 26.1924 38.2084 25.8351L42.4998 20.7635" stroke="white" stroke-width="1.5" stroke-linecap="round"/>
<defs>
<clipPath id="clip0_1307_35100">
<rect width="60.4481" height="34.612" fill="white" transform="translate(10.5615 33.3764)"/>
</clipPath>
</defs>
</svg>
