<svg width="82" height="82" viewBox="0 0 82 82" fill="none" xmlns="http://www.w3.org/2000/svg">
<rect y="-0.0012207" width="82" height="82" rx="5.07508" fill="#3175A8"/>
<path d="M18.0354 55.1928L52.1235 38.6157" stroke="white" stroke-width="1.89589"/>
<path d="M40.683 62.1972L29.009 49.8227" stroke="white" stroke-width="1.89589"/>
<path d="M23.8727 39.2277L15.4848 61.3802C15.25 62.0004 15.7082 62.6638 16.3713 62.6638H66.5758C67.2525 62.6638 67.7113 61.9752 67.4506 61.3507L58.2024 39.1981C58.0551 38.8452 57.7101 38.6154 57.3276 38.6154H24.7592C24.3652 38.6154 24.0122 38.8592 23.8727 39.2277Z" stroke="white" stroke-width="1.89589"/>
<path d="M47.4531 62.4307L63.3298 53.5585" stroke="white" stroke-width="1.89589"/>
<path d="M40.9655 50.8084C38.9096 47.828 37.1622 45.3388 35.6772 43.2234C33.0236 39.4433 31.2081 36.857 29.9684 34.7957C29.0137 33.2081 28.4363 31.9874 28.0914 30.8226C27.7486 29.6651 27.6218 28.5171 27.6218 27.0584C27.6218 19.2648 33.9397 12.9469 41.7333 12.9469C49.5269 12.9469 55.8448 19.2648 55.8448 27.0584C55.8448 28.5171 55.718 29.6651 55.3752 30.8226C55.0303 31.9874 54.4529 33.2081 53.4982 34.7957C52.2585 36.857 50.443 39.4433 47.7894 43.2234C46.3044 45.3387 44.557 47.828 42.5012 50.8083C42.1303 51.3433 41.3364 51.3433 40.9655 50.8084ZM41.7333 34.2811C45.7223 34.2811 48.956 31.0474 48.956 27.0584C48.956 23.0694 45.7223 19.8357 41.7333 19.8357C37.7443 19.8357 34.5106 23.0694 34.5106 27.0584C34.5106 31.0474 37.7443 34.2811 41.7333 34.2811Z" fill="#3175A8" stroke="white" stroke-width="1.89589"/>
</svg>
