<svg width="88" height="88" viewBox="0 0 88 88" fill="none" xmlns="http://www.w3.org/2000/svg">
<circle cx="44" cy="43.9988" r="44" fill="#12538C"/>
<path d="M21.375 64.2488C21.375 66.1156 22.8832 67.6238 24.75 67.6238H41.625V50.7488H21.375V64.2488ZM48.375 67.6238H65.25C67.1168 67.6238 68.625 66.1156 68.625 64.2488V50.7488H48.375V67.6238ZM68.625 33.8738H64.1848C64.8387 32.5976 65.25 31.1843 65.25 29.655C65.25 24.5398 61.084 20.3738 55.9688 20.3738C51.5812 20.3738 48.7441 22.6203 45.1055 27.5773C41.4668 22.6203 38.6297 20.3738 34.2422 20.3738C29.127 20.3738 24.9609 24.5398 24.9609 29.655C24.9609 31.1843 25.3617 32.5976 26.0262 33.8738H21.375C19.5082 33.8738 18 35.382 18 37.2488V45.6863C18 46.6144 18.7594 47.3738 19.6875 47.3738H70.3125C71.2406 47.3738 72 46.6144 72 45.6863V37.2488C72 35.382 70.4918 33.8738 68.625 33.8738ZM34.2316 33.8738C31.9008 33.8738 30.0129 31.9859 30.0129 29.655C30.0129 27.3242 31.9008 25.4363 34.2316 25.4363C36.3305 25.4363 37.8809 25.7843 43.3125 33.8738H34.2316ZM55.9688 33.8738H46.8879C52.309 25.8054 53.8172 25.4363 55.9688 25.4363C58.2996 25.4363 60.1875 27.3242 60.1875 29.655C60.1875 31.9859 58.2996 33.8738 55.9688 33.8738Z" fill="white"/>
</svg>
