<svg width="82" height="82" viewBox="0 0 82 82" fill="none" xmlns="http://www.w3.org/2000/svg">
<rect y="0.00012207" width="82" height="82" rx="2.50267" fill="#3175A8"/>
<path d="M34.7312 37.7044V37.0692C34.7312 35.3524 34.1171 33.6923 32.9998 32.3888L29.7877 28.6413H21.5485L18.0396 32.3256C16.766 33.6629 16.0557 35.4388 16.0557 37.2855V63.4951C16.0557 65.4811 17.6656 67.091 19.6516 67.091H31.1353C33.1213 67.091 34.7312 65.4811 34.7312 63.4951V61.8728" stroke="white" stroke-width="1.62674" stroke-linecap="round" stroke-linejoin="round"/>
<path d="M22.0868 24.9965C22.0868 24.1217 22.796 23.4126 23.6707 23.4126H27.1154C27.9901 23.4126 28.6993 24.1217 28.6993 24.9965V28.3772H22.0868V24.9965Z" fill="#3175A8" stroke="white" stroke-width="1.62674"/>
<rect x="23.7352" y="19.5678" width="3.3168" height="3.3168" fill="#3175A8" stroke="white" stroke-width="1.62674"/>
<path d="M35.7538 14.9092H18.9018C18.2398 14.9092 17.7031 15.4458 17.7031 16.1078V17.8301C17.7031 18.4921 18.2398 19.0288 18.9018 19.0288H35.5047C35.8357 19.0288 36.1041 19.2971 36.1041 19.6281V21.9998C36.1041 22.3308 36.3724 22.5991 36.7034 22.5991H39.3497C39.6807 22.5991 39.949 22.3308 39.949 21.9998V19.1044C39.949 16.7875 38.0707 14.9092 35.7538 14.9092Z" fill="#3175A8" stroke="white" stroke-width="1.62674" stroke-linecap="round" stroke-linejoin="round"/>
<path d="M38.548 33.3489C36.7712 30.8497 37.1619 27.4631 39.3422 25.4255L41.5584 28.5426C43.0919 30.6997 42.5864 33.6915 40.4294 35.225C40.2285 35.3678 39.9499 35.3207 39.8071 35.1199L38.548 33.3489Z" fill="#3175A8" stroke="white" stroke-width="1.62674"/>
<path d="M66.0404 56.3802L58.4286 48.3631C56.9773 45.2661 52.6596 40.7754 46.9995 47.5888C44.2991 47.5888 42.1845 47.5888 40.6083 47.5888C38.7268 47.5888 37.2031 49.1141 37.2031 50.9956V50.9956C37.2031 52.2499 38.22 53.2667 39.4743 53.2667H47.8159" stroke="white" stroke-width="1.62674" stroke-linecap="round" stroke-linejoin="round"/>
<path d="M59.9986 67.0913L54.2849 61.3776C53.7229 60.8157 52.9607 60.5 52.1659 60.5H38.6525C37.0245 60.5 35.4666 59.8377 34.3369 58.6654L23.2705 47.1814C22.3382 46.2139 22.4172 44.6599 23.4429 43.792V43.792C24.3839 42.9958 25.7826 43.072 26.6315 43.9656L34.6694 52.4266C35.2352 53.0221 36.0206 53.3593 36.842 53.3593H41.8723" stroke="white" stroke-width="1.62674" stroke-linecap="round" stroke-linejoin="round"/>
<path d="M27.3164 44.0213L27.9439 43.3938C29.1141 42.2236 31.0115 42.2236 32.1817 43.3938L37.7528 48.9648" stroke="white" stroke-width="1.62674" stroke-linecap="round" stroke-linejoin="round"/>
<path d="M31.7109 42.9226L32.6499 41.9836C33.8057 40.8279 35.6744 40.8115 36.8503 41.9468L42.6966 47.5915" stroke="white" stroke-width="1.62674" stroke-linecap="round" stroke-linejoin="round"/>
</svg>
