<svg width="82" height="82" viewBox="0 0 82 82" fill="none" xmlns="http://www.w3.org/2000/svg">
<rect y="-0.0012207" width="82" height="82" rx="2.1238" fill="#3175A8"/>
<path d="M16 60.4988H65.5405C63.2568 63.6609 58.6892 65.9447 55.1757 66.8231H26.3649C21.7838 66.8231 17.3468 62.6069 16 60.4988Z" stroke="white" stroke-width="2.10811" stroke-linejoin="round"/>
<path d="M16 53.823H65.5405C63.2568 56.9852 58.6892 59.2689 55.1757 60.1473H26.3649C21.7838 60.1473 17.3468 55.9311 16 53.823Z" stroke="white" stroke-width="2.10811" stroke-linejoin="round"/>
<path d="M18.3776 53.8231C16.2277 50.0388 15 45.6622 15 40.9988C15 26.6394 26.6406 14.9988 41 14.9988C55.3594 14.9988 67 26.6394 67 40.9988C67 45.6622 65.7723 50.0388 63.6224 53.8231" stroke="white" stroke-width="2.10811"/>
<path d="M26.0675 53.7009C23.1098 50.2342 21.3242 45.7372 21.3242 40.8231C21.3242 29.8595 30.212 20.9718 41.1756 20.9718C52.1392 20.9718 61.0269 29.8595 61.0269 40.8231C61.0269 45.7372 59.2414 50.2342 56.2837 53.7009" stroke="white" stroke-width="2.10811"/>
<path d="M55.5811 40.8231C55.7568 36.724 53.8243 28.0339 44.6892 26.0663" stroke="white" stroke-width="1.40541" stroke-linecap="round"/>
<circle cx="41.3514" cy="25.8907" r="1.05405" fill="white"/>
</svg>
