<svg width="83" height="82" viewBox="0 0 83 82" fill="none" xmlns="http://www.w3.org/2000/svg">
<rect x="0.178711" y="0.00012207" width="82" height="82" rx="2.2982" fill="#3175A8"/>
<path d="M21.0703 49.1078V31.0923C26.6728 28.565 37.9067 23.5106 40.9204 23.5106C43.9342 23.5106 55.6511 28.565 60.7705 31.0923V49.0528C60.7705 49.6859 60.5109 50.3086 60.0511 50.7437C44.3573 65.5927 28.4392 57.3414 21.7251 50.7178C21.2957 50.2943 21.0703 49.7109 21.0703 49.1078Z" stroke="white" stroke-width="1.78111" stroke-linejoin="round"/>
<path d="M14.3224 30.7211C14.3034 29.6444 15.4013 28.9064 16.3911 29.3306L20.7722 31.2083V46.7711L15.2058 43.2132C14.787 42.9454 14.53 42.4858 14.5212 41.9888L14.3224 30.7211Z" stroke="white" stroke-width="1.78111"/>
<path d="M67.5184 30.7211C67.5374 29.6444 66.4395 28.9064 65.4497 29.3306L61.0686 31.2083V46.7711L66.635 43.2132C67.0538 42.9454 67.3109 42.4858 67.3196 41.9888L67.5184 30.7211Z" stroke="white" stroke-width="1.78111"/>
<path d="M41.2168 35.3615V47.2123" stroke="white" stroke-width="1.78111" stroke-linecap="round"/>
<path d="M35.291 41.2868H47.1418" stroke="white" stroke-width="1.78111" stroke-linecap="round"/>
</svg>
