<svg width="143" height="143" viewBox="0 0 143 143" fill="none" xmlns="http://www.w3.org/2000/svg">
<rect width="143" height="143" rx="4" fill="#008386"/>
<circle cx="70.6669" cy="39.6669" r="12.461" stroke="white" stroke-width="2.4118"/>
<path d="M66.6472 35.6472L74.6866 43.6866" stroke="white" stroke-width="2.4118" stroke-linecap="round"/>
<path d="M74.6865 35.6472L66.6472 43.6866" stroke="white" stroke-width="2.4118" stroke-linecap="round"/>
<g clip-path="url(#clip0_88_34132)">
<path d="M102.943 68.1561C102.926 68.3191 102.874 68.4735 102.797 68.628C102.711 68.9883 102.668 69.4 102.668 69.8547C102.668 69.8976 102.677 69.9405 102.677 69.9834V99.7859C103.055 100.721 103.518 101.424 104.075 101.862C104.59 102.274 105.225 102.471 105.997 102.437C106.048 102.428 106.109 102.428 106.16 102.428H114.704C114.722 102.428 114.747 102.428 114.773 102.428C116.103 102.497 117.064 102.137 117.707 101.399C118.436 100.558 118.857 99.2112 119.002 97.401V97.3753L121.602 70.4895C121.602 70.4466 121.602 70.4038 121.61 70.3609C121.79 68.8338 121.456 67.8387 120.701 67.2554C119.835 66.5862 118.402 66.3117 116.54 66.3117C116.497 66.3117 116.454 66.3203 116.412 66.3203H106.786V66.3117C105.319 66.3117 104.238 66.6034 103.578 67.2039C103.303 67.4527 103.097 67.7701 102.943 68.1561ZM93.5235 101.124C93.3176 100.927 93.1718 100.67 93.1117 100.386L79.3858 75.6797C77.8587 73.1318 76.4861 73.0717 75.1564 73.861C74.2128 74.4186 73.2177 75.3279 72.2225 76.2373C71.622 76.7863 71.0215 77.3354 70.5153 77.7557L68.1562 79.7031L68.139 79.7117C66.4233 81.0929 64.4845 81.8392 62.6486 81.985C61.439 82.088 60.2723 81.9336 59.2086 81.5304C58.1191 81.1186 57.1583 80.458 56.4376 79.5573C55.657 78.5879 55.1423 77.3525 55.0221 75.8941H55.0307C55.005 75.5424 55.1079 75.1907 55.3481 74.899L62.846 65.9771C61.2675 65.9514 59.8691 66.1659 58.5566 66.5776C56.5577 67.2039 54.6876 68.2848 52.6458 69.6831C52.4142 69.8633 52.114 69.9748 51.7965 69.9748H43.1578V86.3002L43.1921 96.7405H48.2192C48.6996 96.7405 49.1629 96.9893 49.4117 97.4354L55.657 108.322C56.5663 109.909 57.3727 111.281 58.3764 112.182C59.3201 113.031 60.5554 113.555 62.4599 113.606C63.1719 113.623 63.8582 113.503 64.5017 113.237C64.8963 113.074 65.2909 112.851 65.6769 112.568L61.6278 105.002C61.2675 104.333 61.5248 103.501 62.194 103.149C62.8631 102.788 63.6952 103.046 64.047 103.715L68.4479 111.942C70.0864 112.774 71.5705 113.032 72.9002 112.748C74.1184 112.482 75.268 111.753 76.3489 110.569L70.0092 100.618C69.606 99.9832 69.7862 99.1339 70.4296 98.7222C71.0644 98.319 71.9137 98.4991 72.3255 99.1425L78.9997 109.626C80.175 110.106 81.2988 110.209 82.3712 109.917C83.392 109.634 84.4215 108.982 85.4423 107.919L79.3943 96.526C79.034 95.8569 79.2914 95.0161 79.9691 94.6644C80.6383 94.3041 81.479 94.5615 81.8307 95.2392L88.0932 107.026C88.9082 107.498 89.8518 107.618 90.7526 107.472C91.5418 107.344 92.3053 107.001 92.9316 106.512C93.5321 106.031 94.0039 105.414 94.227 104.71C94.4758 103.947 94.45 103.054 94.0468 102.085L93.5235 101.124ZM95.3422 98.7393H99.9233V69.9834C99.9233 69.9491 99.9233 69.9062 99.9318 69.8719C99.9318 69.4258 99.9576 68.9968 100.018 68.5936L95.3508 65.4967C95.3251 65.4796 95.2993 65.4624 95.2736 65.4452C94.6645 65.042 93.9353 64.5273 93.2061 64.0126C90.5553 62.1596 87.8358 60.2465 84.8933 59.4744C83.3062 59.0541 81.4704 58.7796 79.6002 58.7452C77.9617 58.7109 76.2974 58.8653 74.7275 59.2771C73.7924 59.5173 72.8831 59.8519 72.0424 60.298C71.296 60.6926 70.6011 61.173 69.9835 61.7564L66.8608 65.471C66.7664 65.6597 66.6292 65.8141 66.4662 65.9428L57.8531 76.203C57.9818 76.855 58.2392 77.404 58.5909 77.8501C59.0027 78.3562 59.5517 78.7337 60.178 78.9739C60.8471 79.2227 61.6192 79.3171 62.4256 79.2484C63.7381 79.1369 65.1451 78.5964 66.4061 77.5842L68.7653 75.6368C69.3658 75.1392 69.8719 74.676 70.3781 74.2213C71.4847 73.209 72.5828 72.2053 73.7495 71.5104C76.4347 69.9062 79.1112 69.8547 81.7535 74.2899L81.7792 74.3328L95.3422 98.7393ZM100.438 101.493H96.7749C97.2724 102.943 97.2467 104.316 96.8521 105.534C96.4489 106.786 95.6596 107.85 94.6473 108.656C93.6608 109.437 92.4598 109.977 91.1987 110.183C89.9719 110.389 88.6851 110.278 87.4841 109.78C86.0943 111.23 84.6274 112.148 83.1004 112.568C81.5648 112.989 80.012 112.903 78.4421 112.354C76.9494 114.009 75.3023 115.048 73.4836 115.434C71.6306 115.837 69.6661 115.554 67.5814 114.576C66.9294 115.082 66.2517 115.485 65.5397 115.777C64.536 116.197 63.4808 116.386 62.3741 116.351C59.7319 116.274 57.9561 115.494 56.5406 114.224C55.1851 113.014 54.2844 111.47 53.2549 109.686L47.4128 99.4943H42.8832C42.6173 100.807 42.1626 101.922 41.4763 102.814C40.3182 104.307 38.6282 105.096 36.2776 105.045C36.2519 105.045 36.2261 105.045 36.2004 105.045H28.4366C26.4807 105.362 24.8078 104.882 23.4953 103.363C22.3286 102.016 21.5393 99.8288 21.1962 96.6204C21.1876 96.5861 21.1876 96.5432 21.179 96.5003L19.1373 71.193C18.7341 68.465 19.1802 66.5347 20.2783 65.2136C21.3849 63.8839 23.0578 63.2834 25.1081 63.189C25.1681 63.1805 25.2196 63.1805 25.2797 63.1805H35.7371V63.189C37.7103 63.1633 39.4088 63.4979 40.6957 64.33C41.7337 64.9991 42.48 65.9428 42.8575 67.2296H51.3762C53.5209 65.7884 55.5197 64.656 57.733 63.9611C59.912 63.2834 62.2369 63.0432 65.025 63.3778L67.8988 59.9806C67.9503 59.912 68.0018 59.8519 68.0704 59.7919C68.8854 59.0198 69.7947 58.3849 70.7727 57.8702C71.8022 57.3298 72.9002 56.918 74.0498 56.6177C75.8685 56.1459 77.7815 55.9657 79.6517 56.0001C81.7706 56.0429 83.8295 56.3518 85.6053 56.815C89.0025 57.7158 91.9365 59.7661 94.7846 61.765C95.4194 62.2111 96.0542 62.6572 96.8092 63.1547C96.8349 63.1719 96.8606 63.189 96.8864 63.2062L101.021 65.9685C101.227 65.6769 101.467 65.4109 101.742 65.1707C102.926 64.107 104.616 63.5837 106.795 63.5837V63.5751H116.42C116.454 63.5751 116.497 63.5751 116.532 63.5837C118.994 63.5751 121.001 64.0212 122.391 65.0935C123.935 66.286 124.664 68.0961 124.356 70.6954C124.356 70.7212 124.347 70.7383 124.347 70.7641L121.748 97.6241C121.559 100.026 120.915 101.905 119.783 103.209C118.573 104.599 116.901 105.285 114.704 105.191H106.16H106.151C104.676 105.268 103.415 104.865 102.36 104.024C101.588 103.398 100.944 102.557 100.438 101.493ZM31.0103 91.0528C32.0397 91.0528 32.8718 91.8849 32.8718 92.9144C32.8718 93.9438 32.0397 94.7759 31.0103 94.7759C29.9808 94.7759 29.1487 93.9438 29.1487 92.9144C29.1487 91.8849 29.9808 91.0528 31.0103 91.0528ZM112.036 91.0528C113.066 91.0528 113.898 91.8849 113.898 92.9144C113.898 93.9438 113.066 94.7759 112.036 94.7759C111.007 94.7759 110.175 93.9438 110.175 92.9144C110.175 91.8849 111.007 91.0528 112.036 91.0528ZM40.404 83.126L40.3525 68.6022C40.3525 68.5765 40.3525 68.5507 40.3525 68.5164C40.2067 67.6071 39.812 66.998 39.2287 66.6205C38.4309 66.1058 37.2384 65.9085 35.7715 65.9257H35.7543V65.9342H25.2882C25.2711 65.9342 25.2539 65.9342 25.2368 65.9342C23.9414 65.9943 22.9548 66.3031 22.3972 66.9723C21.7967 67.6843 21.5908 68.9196 21.8739 70.8327C21.8825 70.8756 21.8825 70.9099 21.8825 70.9528L23.9242 96.2858V96.3287C24.1987 98.9538 24.7649 100.635 25.5628 101.562C26.1976 102.299 27.064 102.505 28.1021 102.317C28.1793 102.299 28.2651 102.291 28.3423 102.291V102.282H36.1918C36.2433 102.282 36.2948 102.282 36.3377 102.291C37.7274 102.317 38.6882 101.905 39.2887 101.124C39.9922 100.215 40.3353 98.7908 40.3868 96.9549H40.3782V83.126H40.404Z" fill="white"/>
</g>
<defs>
<clipPath id="clip0_88_34132">
<rect width="105.416" height="60.36" fill="white" transform="translate(19 56)"/>
</clipPath>
</defs>
</svg>
