<svg width="127" height="105" viewBox="0 0 127 105" fill="none" xmlns="http://www.w3.org/2000/svg">
<path d="M5.46001 71.345C6.36248 71.345 7.32319 71.7426 8.03255 72.4096C8.90301 73.23 9.4212 74.3045 9.92387 75.3422L10.2004 75.91C12.8953 81.3035 17.7114 85.4981 23.4426 87.4545C24.6702 86.1176 26.4314 84.9808 28.4295 84.2379C31.0118 83.2823 33.7473 82.7969 36.5605 82.7969C39.4698 82.7969 42.3966 83.3396 45.0613 84.3693C43.8861 82.8349 41.9822 81.81 40.1394 80.8173C37.6067 79.4521 34.9875 78.0422 34.2054 75.2206C33.9822 74.4154 33.9511 73.587 33.921 72.7868C33.8958 72.1448 33.8735 71.5395 33.76 70.9423C33.6484 70.3597 33.4504 69.7823 33.1544 69.1834C32.8342 69.1348 32.511 69.1105 32.1898 69.1105L32.0472 69.1124C31.6619 69.1211 31.2709 69.1636 30.8808 69.2065C30.4218 69.2571 29.9482 69.3087 29.4805 69.3087C28.8419 69.3087 28.3237 69.2134 27.8502 69.0083C26.545 68.4454 25.9035 67.1909 25.2815 65.9785C24.8604 65.1539 24.4227 64.302 23.789 63.7098C22.5062 62.5073 20.5799 62.4033 18.5537 62.3991L17.8744 62.3983C13.494 62.3983 8.91658 62.5909 5.32996 64.8834C3.31734 66.1699 1.04952 68.6163 0.808857 70.6157C0.67203 71.7578 0.968967 72.8434 1.62593 73.587C2.05582 74.0751 2.63419 74.4211 3.33386 74.6129C3.28339 74.5077 3.23875 74.396 3.20381 74.2764C2.92725 73.3557 3.21061 72.356 3.89184 71.8444C4.32852 71.517 4.87194 71.345 5.46001 71.345ZM23.6852 88.3547L23.4407 88.2742C17.4086 86.2905 12.3305 81.9112 9.50562 76.2571L9.22421 75.6825C8.75357 74.7071 8.26642 73.6979 7.50077 72.9774C6.60024 72.1273 5.16499 71.8641 4.35761 72.4676C3.88212 72.8236 3.79187 73.5346 3.94811 74.0526C4.01118 74.2646 4.21595 74.7614 4.74094 74.7918L4.71765 75.5697C3.15239 75.5617 1.88212 75.0554 1.04369 74.1024C0.241162 73.1913 -0.125638 71.8862 0.0383605 70.5223C0.342098 67.9961 3.1194 65.3738 4.91174 64.2271C8.67497 61.8217 13.3795 61.6205 17.8744 61.6205L18.5556 61.6216C20.6566 61.6243 22.8322 61.7458 24.3199 63.1412C25.0525 63.8257 25.5202 64.7407 25.9734 65.6234C26.5576 66.7639 27.1088 67.8415 28.1568 68.2946C28.8283 68.5844 29.7667 68.5434 30.7963 68.4325C31.2097 68.3888 31.6212 68.344 32.0278 68.3334L32.1898 68.3314C32.6207 68.3314 33.0554 68.3714 33.4805 68.4492L33.6678 68.483L33.7561 68.6512C34.1365 69.3805 34.3868 70.0828 34.5227 70.7965C34.6469 71.4516 34.6721 72.1159 34.6964 72.7575C34.7275 73.5471 34.7556 74.295 34.9545 75.0114C35.6474 77.5132 38.0074 78.7852 40.5081 80.1317C42.4975 81.2031 44.5557 82.3119 45.8405 84.1183C46.024 84.4285 46.1957 84.7153 46.3743 85.0051L47.0303 86.0766L45.7037 85.4826C45.564 85.4184 45.4242 85.3561 45.2835 85.2968C42.5751 84.1711 39.5591 83.5759 36.5605 83.5759C33.8395 83.5759 31.1952 84.0434 28.7003 84.9671C26.7255 85.7013 25.004 86.8351 23.8541 88.1603L23.6852 88.3547Z" fill="white"/>
<path d="M100.008 33.983C98.4259 34.008 97.2497 35.3731 96.814 36.6315C96.3045 38.09 96.4385 39.7243 96.6607 41.2732L96.7558 41.917C96.9644 43.3213 97.1818 44.7718 97.0042 46.2246C96.6947 48.7427 95.2575 50.8637 93.8669 52.9132C93.0644 54.0967 92.2337 55.3209 91.6379 56.6005C90.4578 59.1411 90.1434 62.0231 89.8387 64.8106C89.7126 65.9668 89.5825 67.1511 89.3923 68.3217C90.091 67.3193 90.782 66.3109 91.4739 65.3029C94.5491 60.8134 97.7291 56.1717 101.602 52.2132C102.676 51.1136 103.766 50.1731 104.843 49.4158C105.407 46.2887 106.647 43.3368 108.438 40.868C108.843 40.3096 109.282 39.746 109.727 39.1751C111.851 36.4476 114.049 33.629 113.121 30.6216C112.521 28.6777 110.756 27.3582 109.05 26.0835C107.307 24.7788 105.407 23.2007 104.93 20.9575C104.69 19.8294 105.03 18.5229 105.816 17.5484C106.509 16.6937 107.422 16.2581 108.344 16.3204C107.944 13.2964 104.586 11.2 101.605 11.1709L101.503 11.1699C98.1376 11.1699 94.9838 13.0008 92.3424 14.7909C89.2963 16.86 86.9197 19.0167 85.273 21.2055C86.6713 23.7556 87.6747 26.4588 88.2589 29.2467C88.2725 29.3165 88.287 29.3864 88.3016 29.4567C88.3084 29.4498 88.3161 29.4412 88.3239 29.4324C88.8673 28.8372 89.4282 28.2208 90.0687 27.6958C91.5466 26.4823 93.4758 25.8143 95.4981 25.8143C97.1459 25.8143 98.7121 26.2568 100.028 27.0958C103.308 29.1794 104.492 33.2419 102.905 36.9737L102.186 36.6801C102.38 36.1772 102.286 35.5874 101.926 35.0602C101.479 34.4049 100.725 33.983 100.008 33.983ZM87.7815 71.936L88.3035 69.83C88.3278 69.7346 88.3511 69.6411 88.3724 69.5439C88.7111 67.9726 88.8916 66.3226 89.0663 64.7263C89.3778 61.8754 89.7 58.9279 90.9333 56.2715C91.5563 54.9345 92.4045 53.6842 93.2245 52.4756C94.6238 50.4113 95.9474 48.4609 96.2327 46.1293C96.3977 44.7824 96.1891 43.3854 95.9872 42.0329L95.8911 41.3834C95.6563 39.7372 95.5156 37.9908 96.0804 36.3759C96.7179 34.536 98.3152 33.2313 99.9639 33.204C99.9649 33.204 99.9649 33.204 99.9649 33.204C100.974 33.204 101.978 33.7601 102.567 34.6207C102.622 34.7024 102.673 34.7852 102.72 34.8687C103.192 32.0577 102.044 29.2972 99.6117 27.7532C98.4191 26.9936 96.9984 26.5921 95.4981 26.5921C93.6544 26.5921 91.9018 27.1979 90.5607 28.2975C89.9639 28.7875 89.4224 29.3819 88.8974 29.9573C88.7131 30.1597 88.5287 30.3618 88.3414 30.56L88.3404 30.562L88.3414 30.5631C88.2948 30.6128 88.2482 30.6614 88.2007 30.7101L87.8106 31.1241L87.7407 30.7302L87.4137 30.4017C87.4903 30.3249 87.567 30.246 87.6427 30.1673C87.5971 29.9125 87.5505 29.6588 87.4981 29.4062C86.9139 26.6164 85.896 23.9106 84.4733 21.3647L84.3511 21.147L84.4995 20.9458C86.2026 18.616 88.6946 16.3291 91.9067 14.1472C94.6461 12.29 97.929 10.392 101.503 10.392H101.612C105.178 10.427 109.062 13.0047 109.16 16.7832L109.172 17.3209L108.66 17.1673C107.873 16.9329 107.049 17.2616 106.42 18.0386C105.787 18.8233 105.5 19.9043 105.69 20.796C106.111 22.7727 107.884 24.2398 109.515 25.4594C111.236 26.7456 113.189 28.2052 113.863 30.391C114.911 33.7874 112.482 36.9038 110.34 39.6545C109.899 40.2174 109.465 40.7745 109.066 41.326C107.314 43.7401 106.11 46.6386 105.581 49.7094L105.553 49.8708L105.418 49.9631C104.339 50.7079 103.241 51.6483 102.157 52.7578C98.3317 56.6684 95.1701 61.2821 92.1134 65.7442C91.0731 67.2619 90.0328 68.7808 88.9644 70.2773L87.7815 71.936Z" fill="white"/>
<path d="M63.5795 92.1596C64.1986 92.2549 64.8556 92.2804 65.5213 92.2318C68.6111 89.8621 72.3103 88.0332 77.1458 86.4862C77.4883 86.2014 77.827 85.9124 78.1608 85.6169C81.96 82.2673 86.8159 76.7591 88.3724 69.5441C88.7111 67.9728 88.8916 66.3228 89.0663 64.7264C89.3778 61.8755 89.6999 58.9281 90.9333 56.2717C91.5563 54.9347 92.4045 53.6844 93.2244 52.4758C94.6238 50.4115 95.9474 48.4611 96.2327 46.1294C96.3977 44.7825 96.1891 43.3856 95.9872 42.0331L95.8911 41.3835C95.6553 39.7374 95.5156 37.991 96.0804 36.376C96.7179 34.5362 98.3152 33.2315 99.9639 33.2042C99.9649 33.2042 99.9649 33.2042 99.9649 33.2042C100.974 33.2042 101.978 33.7602 102.568 34.6209C102.622 34.7025 102.673 34.7854 102.72 34.8689C103.191 32.0579 102.043 29.2973 99.6117 27.7533C98.419 26.9938 96.9984 26.5923 95.4981 26.5923C93.6544 26.5923 91.9018 27.198 90.5607 28.2977C89.9658 28.7857 89.4263 29.379 88.9052 29.9536C88.157 30.7763 87.3846 31.6271 86.4045 32.2348C85.4049 32.8539 84.2686 33.1719 83.1701 33.4803C81.9309 33.8286 80.7615 34.156 79.7989 34.8757C77.8872 36.3019 77.3923 38.7054 76.8683 41.251C76.5015 43.0316 76.124 44.8722 75.2263 46.4336C74.0812 48.4212 72.2074 49.7688 70.3937 51.072C69.2933 51.8623 68.155 52.6808 67.203 53.6289C64.9177 55.9082 63.5116 59.1093 63.0235 63.1453C63.86 64.3151 64.5936 65.5556 65.203 66.8371C68.0162 72.7471 68.4403 80.2907 66.4966 89.897L66.4403 90.1762L66.1579 90.2074C65.564 90.2704 64.8634 90.4474 63.9667 90.7585C63.8464 91.2614 63.7193 91.7251 63.5795 92.1596ZM64.8566 93.0339C64.2093 93.0339 63.5815 92.9698 62.9876 92.8425L62.5548 92.749L62.7023 92.3328C62.91 91.7437 63.0914 91.1038 63.2583 90.3756L63.3068 90.1675L63.5067 90.0964C64.4335 89.7641 65.1525 89.5666 65.7901 89.4694C67.6358 80.1642 67.2137 72.8687 64.5014 67.1717C63.89 65.8883 63.1525 64.6467 62.3054 63.4799L62.2161 63.3572L62.2336 63.2057C62.7256 58.9194 64.2132 55.5105 66.6557 53.0759C67.6514 52.085 68.8158 51.2486 69.9415 50.44C71.7678 49.1273 73.4932 47.8876 74.5538 46.0458C75.3874 44.5923 75.7542 42.8136 76.1075 41.0945C76.6383 38.5178 77.1866 35.8549 79.3341 34.2506C80.4132 33.4453 81.7077 33.0814 82.9605 32.7305C84.056 32.4233 85.0895 32.1326 85.9959 31.5717C86.8838 31.022 87.5854 30.2491 88.3307 29.4296C88.8712 28.8355 89.4302 28.219 90.0687 27.696C91.5466 26.4825 93.4758 25.8144 95.4981 25.8144C97.1459 25.8144 98.7121 26.2569 100.028 27.0959C103.308 29.1796 104.492 33.2421 102.905 36.9738L102.186 36.6803C102.38 36.1774 102.286 35.5864 101.926 35.0604C101.479 34.4051 100.725 33.9832 100.008 33.9832C98.4258 34.0082 97.2497 35.3733 96.814 36.6316C96.3045 38.0902 96.4384 39.7244 96.6607 41.2734L96.7558 41.9172C96.9644 43.3214 97.1818 44.7719 97.0042 46.2247C96.6946 48.7429 95.2575 50.8638 93.8669 52.9133C93.0643 54.0968 92.2337 55.321 91.6378 56.6006C90.4578 59.1412 90.1434 62.0232 89.8387 64.8107C89.6621 66.4269 89.4787 68.0985 89.1313 69.7096C87.5311 77.1306 82.5616 82.7739 78.6752 86.2021C78.3151 86.5193 77.9512 86.8285 77.5834 87.1338L77.4534 87.2049C72.6227 88.7431 68.9527 90.5594 65.9037 92.9192L65.8124 92.9903L65.6979 92.9998C65.4155 93.0222 65.1351 93.0339 64.8566 93.0339Z" fill="white"/>
<path d="M48.9303 22.802C53.4243 24.3198 59.0322 26.601 63.335 30.7608C67.7649 35.0429 70.7829 41.3931 71.8319 48.6419C71.8494 48.7585 71.8649 48.8743 71.8804 48.9901C72.8479 48.213 73.8494 47.265 74.5539 46.0458C75.3875 44.5923 75.7543 42.8136 76.1075 41.0945C76.6383 38.5178 77.1866 35.855 79.3341 34.2506C80.4132 33.4453 81.7077 33.0815 82.9605 32.7305C84.0561 32.4233 85.0896 32.1327 85.9959 31.5717C86.6277 31.1798 87.1779 30.6548 87.6427 30.1694C87.5981 29.9146 87.5515 29.6589 87.4981 29.4063C86.125 22.85 82.2987 16.7396 76.9983 12.6432L76.5054 12.2688C75.5 11.5084 74.4607 10.7247 73.7572 9.62794C72.9207 8.32598 72.6771 6.36576 73.83 5.14159C74.5325 4.39386 75.9309 4.22176 76.9042 4.80419C76.3559 2.80993 74.352 1.30183 72.3831 0.920673C70.189 0.492844 67.6912 1.02374 64.6781 2.56587C57.0594 6.47563 51.1933 14.0219 48.9303 22.802ZM71.272 50.4407L71.1934 49.7638C71.1536 49.4266 71.1109 49.0893 71.0633 48.7528C70.0386 41.6753 67.1031 35.4842 62.7955 31.3207C58.4966 27.1631 52.8129 24.918 48.3432 23.4254L48.0026 23.3118L48.089 22.9635C50.3384 13.8187 56.4073 5.93501 64.3248 1.87259C67.4981 0.247818 70.1618 -0.305443 72.5316 0.157391C75.272 0.688286 78.0706 3.18135 77.8115 6.28311L77.0372 6.28214C76.9479 5.11922 75.0672 4.96267 74.3957 5.67442C73.5253 6.60009 73.7533 8.185 74.4103 9.20596C75.0401 10.1861 76.0221 10.9289 76.9741 11.6465L77.4729 12.0267C82.9178 16.235 86.8489 22.5115 88.2589 29.2469C88.3269 29.5723 88.3851 29.9012 88.4414 30.2278L88.4753 30.4212L88.3424 30.5621C87.8164 31.1205 87.175 31.7563 86.4045 32.2348C85.405 32.8539 84.2686 33.1719 83.1701 33.4803C81.9309 33.8286 80.7616 34.156 79.7989 34.8757C77.8872 36.3019 77.3923 38.7055 76.8683 41.251C76.5015 43.0316 76.124 44.8722 75.2264 46.4336C74.322 48.0022 72.9935 49.1311 71.8135 50.0286L71.272 50.4407Z" fill="white"/>
<path d="M29.9452 45.5285C22.2218 52.5897 26.7623 59.4385 28.3285 61.8033C29.0165 62.8429 29.9035 63.814 30.7604 64.7534C32.3848 66.5339 34.0636 68.3746 34.5226 70.7974C34.6468 71.4518 34.6721 72.1161 34.6963 72.7577C34.7274 73.5473 34.7555 74.2951 34.9545 75.0115C35.6473 77.5134 38.0074 78.7854 40.5081 80.1319C42.4974 81.2033 44.5557 82.312 45.8405 84.1184C48.1171 87.9709 50.9225 91.945 54.5897 92.4144C54.8711 92.4505 55.1554 92.4668 55.4407 92.4668C55.4407 92.4668 55.4407 92.4668 55.4417 92.4668C57.4921 92.4668 59.6183 91.6202 61.6736 90.8005C63.1418 90.2149 64.5344 89.66 65.7901 89.4693C67.6358 80.1641 67.2137 72.8686 64.5014 67.1717C61.0409 59.9035 53.9657 54.8541 46.8963 54.6073C46.1277 54.5788 45.3271 54.643 44.2694 54.8044C40.6963 55.3529 37.7376 55.3433 35.2815 54.7842C34.0646 54.507 32.968 54.0888 32.0219 53.5415C30.2577 52.5236 29.232 51.3352 28.9709 50.011C28.6643 48.4531 29.2601 46.9053 29.9452 45.5285ZM55.4417 93.2458C55.4407 93.2458 55.4407 93.2458 55.4407 93.2458C55.1224 93.2458 54.8051 93.2265 54.4916 93.1865C50.4926 92.6742 47.5455 88.5289 45.1893 84.5434C44.0287 82.9118 42.0511 81.846 40.1394 80.8175C37.6066 79.4523 34.9875 78.0424 34.2053 75.2208C33.9821 74.4156 33.9511 73.5872 33.921 72.7869C33.8958 72.145 33.8734 71.5396 33.7599 70.9425C33.3417 68.7362 31.8094 67.057 30.1869 65.2787C29.3096 64.3177 28.4023 63.3241 27.6813 62.234C22.8137 54.8891 24.0607 48.6848 31.4959 43.2678C31.4969 43.2666 31.4998 43.2666 31.4989 43.2648L31.9559 43.8941C31.493 44.2322 31.068 45.0473 30.9079 45.3534C30.183 46.7401 29.4338 48.3445 29.7327 49.861C30.0006 51.2223 31.3358 52.2474 32.4091 52.8677C33.2892 53.3751 34.313 53.7652 35.4542 54.0247C37.8094 54.5613 40.6789 54.5682 44.152 54.0352C45.2602 53.8651 46.1083 53.8009 46.9235 53.8282C54.2743 54.0862 61.6193 59.3132 65.203 66.8362C68.0162 72.7471 68.4403 80.2906 66.4965 89.8969L66.4402 90.1762L66.1579 90.2073C64.9352 90.3387 63.4902 90.9141 61.9609 91.5237C59.9356 92.3309 57.6406 93.2458 55.4417 93.2458Z" fill="white"/>
<path d="M65.0701 93.5889C67.6834 93.8077 70.0017 95.9769 71.9406 98.1004C73.9988 100.355 76.4413 102.763 79.3448 102.57C81.1682 102.452 82.6713 101.351 84.2618 100.186C85.3846 99.3637 86.5452 98.5129 87.8552 98.007C89.0023 97.5637 90.2599 97.3662 91.9339 97.3662C92.6733 97.3662 93.4224 97.4031 94.1726 97.441C95.733 97.5219 97.3419 97.5599 98.552 97.3692C102.129 96.8102 105.367 94.145 106.611 90.7368C106.797 90.2237 106.944 89.6954 107.092 89.1674C107.278 88.4967 107.471 87.8035 107.745 87.1392C108.342 85.675 109.293 84.6392 110.424 84.2234C111.685 83.7596 113.788 84.2963 114.263 85.8053C114.471 86.4703 114.392 87.1354 114.039 87.677C113.806 88.0348 113.473 88.3072 113.084 88.4694C113.718 89.2514 114.477 89.6597 115.306 89.6597C116.376 89.6597 117.519 88.9904 118.439 87.8236C120.128 85.7556 120.321 82.4489 118.891 80.1278C117.61 78.046 115.134 76.7079 112.432 76.6372L112.189 76.633C109.853 76.633 107.393 77.5511 105.264 79.2166C104.76 79.6135 104.278 80.0449 103.798 80.4757C103.027 81.1673 102.229 81.8818 101.329 82.4557C101.058 82.6296 100.71 82.8765 100.316 83.1556C98.6636 84.3282 96.3385 85.9443 94.8984 85.6993L94.8451 85.7566L94.6393 85.7722C94.455 85.7722 94.2987 85.6594 94.1949 85.5561C93.1468 85.3073 92.4171 85.0305 91.8252 84.8068C90.6024 84.3437 89.8038 84.1212 87.894 84.542C80.1929 86.2459 71.5068 88.167 65.0701 93.5889ZM79.0139 103.359C75.9474 103.359 73.4593 100.916 71.3671 98.6265C69.2884 96.3483 66.7799 94.0215 64.0618 94.3869L62.8333 94.5525L63.7484 93.7142C70.4054 87.6136 80.0105 85.4882 87.7262 83.7828C89.864 83.3102 90.8218 83.594 92.1008 84.0783C92.6888 84.3019 93.3526 84.553 94.322 84.7863L94.323 84.6833L94.8557 84.8805C94.9615 84.9253 95.0896 84.9496 95.2361 84.9496C96.4462 84.9496 98.5045 83.4872 99.8679 82.5206C100.274 82.2319 100.632 81.9782 100.913 81.7993C101.758 81.2596 102.533 80.5664 103.281 79.8953C103.774 79.4528 104.267 79.0114 104.786 78.6039C107.052 76.8306 109.681 75.8552 112.189 75.8552L112.452 75.8583C115.414 75.9368 118.135 77.417 119.553 79.7194C121.148 82.3098 120.93 86.0047 119.044 88.3121C117.981 89.6605 116.615 90.4376 115.306 90.4376C114.435 90.4376 113.173 90.0931 112.111 88.4488L111.767 87.919L112.394 87.851C112.807 87.8055 113.17 87.5874 113.388 87.2512C113.612 86.9079 113.658 86.4771 113.522 86.0385C113.198 85.0088 111.582 84.6286 110.692 84.9545C109.447 85.4125 108.762 86.7047 108.463 87.4339C108.207 88.0572 108.02 88.728 107.839 89.3767C107.686 89.9241 107.534 90.4695 107.341 91.0035C105.981 94.7264 102.578 97.5269 98.6714 98.1384C97.4031 98.3358 95.7466 98.3006 94.1328 98.2189C93.3972 98.182 92.6617 98.1441 91.9339 98.1441C90.3608 98.1441 89.1886 98.3272 88.1347 98.7335C86.9207 99.2023 85.8019 100.022 84.7199 100.814C83.1099 101.994 81.4447 103.213 79.3952 103.347C79.2681 103.355 79.14 103.359 79.0139 103.359Z" fill="white"/>
<path d="M46.5674 53.8224C46.6868 53.8224 46.8052 53.8243 46.9236 53.8281C52.6451 54.0275 58.353 57.1621 62.3598 62.2623C62.9527 58.4167 64.3957 55.3296 66.6558 53.0757C67.6505 52.084 68.815 51.2476 69.9406 50.4386C70.353 50.1412 70.7635 49.8453 71.1663 49.543C71.1342 49.2786 71.1003 49.0162 71.0634 48.7526C70.0386 41.6751 67.1032 35.484 62.7955 31.3205C57.2322 25.9426 49.3884 23.645 42.4684 21.6164C40.746 21.1128 38.9109 20.6471 37.1671 20.6471C35.628 20.6471 34.3927 21.0129 33.3893 21.7645C32.8973 22.1337 32.4762 22.593 32.0298 23.0772C31.432 23.7275 30.8139 24.3986 30.0065 24.8449C28.9284 25.4408 27.2379 25.2259 26.4674 24.4093C26.1219 24.0435 25.956 23.5884 25.9832 23.0935L25.9948 22.8934L27.037 22.231C26.808 22.1406 26.5596 22.095 26.2918 22.095C24.9992 22.095 23.6804 23.1501 23.4097 24.3986C22.9924 26.3365 24.3044 28.2507 25.792 29.2903C27.1933 30.2733 28.9031 30.7944 30.5557 31.3003L31.4184 31.5654C33.3524 32.1743 35.5194 33.0231 36.9371 34.7043C38.3821 36.4145 38.8197 38.6453 39.2438 40.8018C39.3583 41.3852 39.4728 41.9675 39.6067 42.5372C39.892 43.7519 41.0652 47.7453 44.1773 48.1487L44.4811 48.1885L44.514 48.4939C44.7334 50.5408 45.1545 52.3423 45.7659 53.8494C46.0337 53.8319 46.3006 53.8224 46.5674 53.8224ZM62.8916 64.2876L62.3055 63.4797C58.4209 58.125 52.6606 54.8073 46.8964 54.6071C46.452 54.5904 46.0017 54.609 45.5505 54.647L45.2768 54.6701L45.1176 54.3154C44.4704 52.7752 44.0191 50.9461 43.7746 48.8711C40.3966 48.2053 39.1555 44.0144 38.8508 42.7154C38.7139 42.1369 38.5985 41.5448 38.482 40.9526C38.0773 38.8933 37.6591 36.7628 36.3442 35.2078C35.0565 33.6814 33.105 32.9123 31.1855 32.3083L30.3296 32.0448C28.6188 31.5217 26.8488 30.982 25.3476 29.928C23.6503 28.743 22.1569 26.5222 22.6508 24.233C22.9992 22.6249 24.6314 21.316 26.2918 21.316C26.9419 21.316 27.5397 21.5242 28.023 21.9191L28.4403 22.2595L26.7653 23.326C26.7915 23.5304 26.8808 23.7138 27.0312 23.8745C27.5601 24.4343 28.8643 24.587 29.6319 24.1631C30.3277 23.7791 30.8779 23.1813 31.4582 22.5501C31.9085 22.06 32.3743 21.5553 32.9235 21.142C34.0667 20.2855 35.4553 19.8693 37.1671 19.8693C39.0089 19.8693 40.908 20.3498 42.6868 20.8689C49.6921 22.9227 57.6339 25.2494 63.3351 30.7606C67.765 35.0427 70.7829 41.3929 71.8319 48.6416C71.8814 48.9858 71.9241 49.3292 71.9649 49.6725L71.9901 49.8939L71.8135 50.0284C71.3497 50.3824 70.8722 50.7254 70.3938 51.0706C69.2934 51.861 68.1551 52.6799 67.2031 53.6287C64.8897 55.9353 63.4768 59.1877 63.0051 63.2947L62.8916 64.2876Z" fill="white"/>
<path d="M36.5606 83.5756C33.8396 83.5756 31.1952 84.0431 28.7003 84.9669C25.6387 86.1037 22.1326 88.6724 22.3209 92.1739C22.3364 92.4588 22.3771 92.7437 22.416 93.0274C22.4868 93.5421 22.5605 94.0731 22.5052 94.6192C22.3616 95.971 21.4543 97.0649 20.7255 97.9426C20.0278 98.7828 19.2379 99.7369 19.1127 100.844C19.0244 101.627 19.4688 102.549 20.2238 103.254C20.1423 101.928 20.6586 100.573 21.6416 99.6647C22.8439 98.5496 24.7876 98.1876 26.3189 98.7976C27.4436 99.2477 28.3209 100.121 29.17 100.966C30.1976 101.988 31.1671 102.953 32.4616 103.08C34.1229 103.241 35.3786 101.995 36.7207 100.667C37.6348 99.7631 38.579 98.8284 39.7144 98.2784C40.5315 97.8815 41.4776 97.6802 42.5257 97.6802C43.6213 97.6802 44.8265 97.8872 46.3209 98.3335C46.6722 98.4406 47.0225 98.5522 47.3748 98.6643C49.0449 99.196 50.7683 99.7426 52.4908 99.6347C53.1817 99.5888 53.8959 99.3905 54.5762 99.057C53.7183 97.1591 53.5281 95.0355 54.0424 93.1121C50.4345 92.3927 47.7426 88.7191 45.7736 85.5142L45.7038 85.4823C45.564 85.4181 45.4243 85.3558 45.2836 85.2966C42.5752 84.1708 39.5591 83.5756 36.5606 83.5756ZM21.4494 105L20.5819 104.488C19.1127 103.619 18.1908 102.085 18.3402 100.758C18.4916 99.4178 19.399 98.3247 20.1287 97.445C20.7895 96.6474 21.6144 95.655 21.7318 94.5387C21.7784 94.0855 21.7134 93.6244 21.6464 93.1357C21.6037 92.8292 21.562 92.5238 21.5455 92.2157C21.334 88.2915 25.1214 85.4656 28.4296 84.2376C31.0118 83.282 33.7474 82.7966 36.5606 82.7966C39.661 82.7966 42.7789 83.4131 45.5805 84.5772C45.729 84.6391 45.8775 84.7064 46.024 84.7724L46.3112 84.9027L46.3743 85.0049C48.1841 87.9655 51.0041 91.9551 54.5898 92.414L55.0575 92.4732L54.909 92.9218C54.2666 94.8759 54.4588 97.1105 55.434 99.0521L55.6009 99.3829L55.2778 99.5656C54.4035 100.059 53.4573 100.352 52.5412 100.411C50.6819 100.535 48.876 99.9583 47.139 99.4061C46.7906 99.2952 46.4442 99.1843 46.0968 99.0794C43.367 98.2636 41.5533 98.2492 40.0541 98.9784C39.0332 99.4733 38.1356 100.361 37.2671 101.222C35.8629 102.61 34.4044 104.058 32.3859 103.854C30.8158 103.702 29.7008 102.592 28.6227 101.519C27.8279 100.729 27.0079 99.9109 26.0317 99.5208C24.775 99.0183 23.1583 99.3195 22.1685 100.236C21.1622 101.166 20.743 102.729 21.1496 104.036L21.4494 105Z" fill="white"/>
<path d="M55.6212 84.1604C55.7861 84.3006 55.9395 84.4628 56.0802 84.6477C56.7565 85.5335 57.0535 86.8655 56.839 88.0411C56.6459 89.095 56.184 90.0579 55.7376 90.9873C55.4358 91.6144 55.1253 92.2638 54.9089 92.9225C53.9443 95.8547 54.8973 99.3418 57.2233 101.403C58.6712 102.685 60.6712 103.421 62.711 103.421C63.8318 103.421 64.9458 103.196 65.9327 102.77C68.7702 101.542 70.809 98.619 71.007 95.498C71.0351 95.0575 71.0293 94.615 71.0244 94.1736C71.0157 93.4679 71.006 92.7375 71.1312 92.012C71.3291 90.8627 72.0113 89.4833 73.3291 89.0583C73.7309 88.9298 74.1938 88.9348 74.6198 89.0662C74.0016 88.4729 73.0914 88.1102 72.2015 88.1102L72.0802 88.1132C70.4373 88.1706 68.7731 89.2272 67.6251 90.9387C67.0894 91.736 66.646 92.6677 66.2287 93.8713C66.0666 94.6966 65.8143 95.5261 65.4902 96.2816L64.7595 96.0211C64.9711 95.2781 65.2098 94.436 65.4951 93.6145C65.9977 91.0739 65.7775 88.1091 64.8827 85.4206C62.9109 87.9973 61.5902 91.2361 61.1447 94.618L60.3723 94.5356C60.5557 92.2301 60.7634 89.6166 59.7726 87.3665C58.9924 85.5965 57.2786 84.2881 55.6212 84.1604ZM62.711 104.2C60.4849 104.2 58.2966 103.393 56.709 101.985C54.1559 99.7247 53.1127 95.8976 54.1714 92.6794C54.4033 91.9733 54.7255 91.3003 55.038 90.6501C55.4805 89.7252 55.8997 88.8519 56.0753 87.9013C56.252 86.9316 56.0123 85.8396 55.464 85.1203C55.2165 84.7974 54.7866 84.3986 54.1403 84.3443L52.2878 84.1867L54.0491 83.5877C54.4683 83.4449 54.9099 83.3731 55.3592 83.3731C57.3883 83.3731 59.5436 84.9201 60.4839 87.0513C60.9846 88.1911 61.202 89.419 61.2718 90.6371C62.0482 88.3233 63.2214 86.178 64.7158 84.3834L65.1399 83.8729L65.3776 84.4939C66.1928 86.641 66.5868 89.0009 66.5247 91.2498C66.6702 90.9884 66.8216 90.7412 66.9808 90.5042C68.2656 88.5865 70.1617 87.4014 72.0511 87.3342L72.2015 87.3316C73.3748 87.3316 74.5344 87.8253 75.3039 88.6518C75.9211 89.3149 76.2161 90.1092 76.1608 90.9524C76.1589 91.034 76.1492 91.1168 76.1346 91.2004L75.367 91.0739C75.3748 91.0203 75.3806 90.9668 75.3845 90.9155C75.3893 90.6071 75.2205 90.3678 75.0778 90.2212C74.6974 89.8292 74.0482 89.6454 73.5669 89.7993C72.579 90.1171 72.056 91.2198 71.8968 92.1454C71.7843 92.7998 71.792 93.4629 71.8007 94.1641C71.8066 94.6259 71.8114 95.0886 71.7823 95.5474C71.5659 98.9536 69.3398 102.143 66.2403 103.484C65.1574 103.952 63.9366 104.2 62.711 104.2Z" fill="white"/>
<path d="M89.009 70.215C88.2104 73.556 86.6636 76.8258 84.4122 79.9373C84.1686 80.2749 83.9309 80.5917 83.6864 80.9069C83.4049 81.2647 83.1681 81.5591 82.9265 81.8489L82.8198 81.9723C82.5946 82.2409 82.3666 82.5083 82.1327 82.77L81.9532 82.9652C81.7416 83.1996 81.5291 83.4328 81.3117 83.6633L80.9129 84.0708C80.7625 84.2262 80.6121 84.3808 80.4598 84.5334C80.3491 84.6414 80.2385 84.7484 80.1279 84.8536L79.5776 85.3804C79.3816 85.5655 79.1836 85.747 78.9828 85.927C81.8183 85.1074 84.7421 84.4423 87.7261 83.783C89.8639 83.3104 90.8217 83.5942 92.1007 84.0785C92.6888 84.3021 93.3526 84.5532 94.322 84.7864L94.323 84.6843L94.8557 84.8799C95.1022 84.9877 95.471 84.9672 95.9377 84.8244C97.2779 83.6645 98.4287 82.37 99.3613 80.975C99.7553 80.3847 100.12 79.7702 100.484 79.1537C101.42 77.5756 102.386 75.9432 103.849 74.7626C105.117 73.7387 106.663 73.1328 108.158 72.5486C110.024 71.8175 111.788 71.127 112.998 69.6966C114.143 68.3464 114.587 66.5483 114.895 64.8068L115.028 64.0377C115.292 62.4694 115.566 60.8465 116.287 59.383C117.259 57.4053 119.041 56.0926 120.827 56.0414C120.829 56.0414 120.83 56.0414 120.831 56.0414C122.013 56.0414 123.126 56.6218 123.82 57.5553C124.246 58.1289 124.46 58.759 124.448 59.3842C125.567 58.8263 126.09 57.5561 126.202 56.4497C126.317 55.311 125.94 53.7564 125.303 52.7518C124.437 51.3799 122.891 50.0816 121.169 49.2775C118.813 48.1761 115.88 47.5448 113.119 47.5448C112.412 47.5448 111.728 47.587 111.084 47.6705C108.035 48.0682 105.115 49.7318 102.157 52.7578C98.3317 56.6684 95.1701 61.2821 92.1133 65.7442C91.0876 67.2414 90.0619 68.7391 89.009 70.215ZM75.5417 87.8132L77.0886 86.5336C77.4496 86.2343 77.8076 85.9289 78.1608 85.6167C78.4607 85.3543 78.7567 85.085 79.0478 84.8119L79.5932 84.2885C79.6989 84.1875 79.8067 84.0853 79.9115 83.9813C80.0609 83.8316 80.2084 83.68 80.3559 83.5281L80.7489 83.1255C80.9605 82.901 81.1691 82.6735 81.3768 82.4441L81.5543 82.2485C81.7834 81.994 82.0056 81.7312 82.2269 81.4706L82.2996 81.3863C82.5655 81.0661 82.7984 80.7786 83.0245 80.4888C83.3127 80.1211 83.5447 79.81 83.7717 79.497C85.9911 76.4293 87.5 73.2274 88.2696 69.9633L88.3317 69.8261C89.3972 68.3327 90.4355 66.8168 91.4739 65.3029C94.5491 60.8134 97.7291 56.1717 101.602 52.2132C104.686 49.0581 107.754 47.3196 110.984 46.8995C111.661 46.811 112.379 46.7662 113.119 46.7662C115.989 46.7662 119.042 47.4244 121.497 48.5726C123.349 49.4363 125.017 50.8432 125.959 52.3347C126.691 53.489 127.109 55.2149 126.975 56.5276C126.775 58.5015 125.657 59.9646 124.057 60.3489L123.402 60.5054L123.595 59.8586C123.774 59.2588 123.633 58.6051 123.197 58.0199C122.655 57.2899 121.757 56.8193 120.912 56.8193C119.026 56.8724 117.627 58.4194 116.985 59.7275C116.314 61.0896 116.048 62.654 115.793 64.168L115.66 64.944C115.349 66.7029 114.859 68.7049 113.59 70.2002C112.254 71.7815 110.315 72.54 108.44 73.2741C107 73.837 105.511 74.4204 104.337 75.3684C102.983 76.4604 102.093 77.9614 101.154 79.5502C100.781 80.1796 100.408 80.8067 100.008 81.4076C99.0207 82.8824 97.8028 84.2479 96.3831 85.4659L96.2512 85.5412C95.7223 85.7151 95.2827 85.7675 94.8994 85.6984L94.845 85.7568L94.6393 85.7724C94.4549 85.7724 94.2987 85.6596 94.1949 85.5563C93.1468 85.3075 92.4171 85.0307 91.8251 84.807C90.6024 84.3439 89.8038 84.1214 87.894 84.5422C84.3025 85.3356 80.8033 86.137 77.4534 87.2047L75.5417 87.8132Z" fill="white"/>
<path d="M13.6192 34.9279C14.4499 35.2109 15.2058 35.9409 15.5329 36.8423C15.9424 37.9654 15.822 39.1557 15.7066 40.307L15.6619 40.7582C14.971 48.1324 17.8657 55.8849 23.2146 60.9915C25.3136 62.9943 27.8522 64.6415 30.6227 65.8083C30.4897 65.6625 30.3568 65.5148 30.2228 65.3689C29.9861 65.1084 29.7493 64.8486 29.5154 64.5861L29.3893 64.4441C29.2767 64.3168 29.168 64.1922 29.0613 64.0669L28.8439 63.8094C28.7624 63.714 28.6789 63.6126 28.5984 63.5128C28.5052 63.4 28.416 63.2822 28.3257 63.1637L28.0491 62.7991L28.054 62.7648C27.9249 62.5909 27.8007 62.4139 27.6814 62.2338C22.8138 54.8889 24.0608 48.6846 31.496 43.2677C31.497 43.2665 31.4999 43.2665 31.4989 43.2646L31.956 43.8939C31.4931 44.232 31.0681 45.0471 30.908 45.3532C30.1831 46.74 29.4339 48.3443 29.7328 49.8609C30.0006 51.2221 31.3359 52.2473 32.4092 52.8675C33.2893 53.375 34.3131 53.7651 35.4543 54.0245C37.8095 54.5611 40.679 54.568 44.1521 54.0351C44.4238 53.9933 44.6945 53.9565 44.9643 53.9253C44.4228 52.4949 44.0366 50.8325 43.8163 48.9694C40.4383 48.3013 39.1981 44.1105 38.8934 42.8114C38.7556 42.23 38.6392 41.636 38.5218 41.0411C38.4228 40.5364 38.3238 40.0309 38.2103 39.5318C36.121 38.1279 34.1239 37.5153 32.1773 37.7527C30.7915 37.9217 29.3922 38.5461 28.0385 39.1508C26.4625 39.8546 24.8332 40.582 23.2204 40.582C22.5266 40.582 21.888 40.4528 21.2689 40.1881C19.988 39.6358 19.0933 38.5731 18.2296 37.5464C17.8405 37.0834 17.4378 36.6052 17.0117 36.1901C16.0666 35.2702 14.6343 34.7392 13.6192 34.9279ZM32.8827 67.4465L31.8201 67.1043C28.381 65.8976 25.2204 63.9792 22.6799 61.5552C17.1612 56.287 14.1762 48.2907 14.8885 40.6852L14.9331 40.2291C15.0409 39.1652 15.1525 38.0657 14.8031 37.1101C14.4217 36.0557 13.2359 35.3139 12.3819 35.6823L10.9516 36.3029L11.9259 35.0825C12.4324 34.4456 13.1748 34.1102 14.0704 34.1102C15.2369 34.1102 16.6032 34.7073 17.5523 35.6318C18.0074 36.0735 18.4217 36.5673 18.8235 37.0435C19.6668 38.0463 20.4635 38.9932 21.5756 39.4718C22.0957 39.6955 22.6343 39.8033 23.2204 39.8033C24.6683 39.8033 26.152 39.1402 27.7221 38.4401C29.1282 37.8119 30.5819 37.1632 32.0831 36.9794C34.2685 36.7169 36.4829 37.4006 38.7741 38.9749L38.8993 39.0593L38.9342 39.2082C39.0623 39.7635 39.1739 40.3275 39.2845 40.8904C39.399 41.4764 39.5135 42.0598 39.6494 42.6326C39.9347 43.8473 41.1069 47.8426 44.22 48.2479L44.5228 48.287L44.5558 48.5912C44.7848 50.7166 45.2292 52.572 45.8745 54.108L46.0822 54.6003L45.5504 54.647C45.1244 54.6846 44.6984 54.7393 44.2685 54.8042C40.6964 55.3527 37.7377 55.3432 35.2816 54.7841C34.0647 54.5069 32.9681 54.0887 32.022 53.5414C30.2578 52.5234 29.2321 51.335 28.971 50.0109C28.6644 48.4529 29.2602 46.9052 29.9453 45.5283C22.2219 52.5895 26.7624 59.4384 28.3286 61.8032C28.4684 62.0144 28.6168 62.2225 28.7702 62.4257L28.872 62.5605L28.8672 62.594L28.8837 62.6152C29.0273 62.8009 29.1127 62.9138 29.202 63.0228C29.2796 63.12 29.3582 63.2141 29.4378 63.3076L29.6513 63.5622C29.7561 63.6837 29.8609 63.8045 29.9667 63.923L30.0899 64.0631C30.3257 64.3285 30.5615 64.5861 30.7964 64.8436C31.2903 65.3863 31.7823 65.9261 32.2413 66.4802L32.8827 67.4465Z" fill="white"/>
</svg>
