<svg width="141" height="60" viewBox="0 0 141 60" fill="none" xmlns="http://www.w3.org/2000/svg">
<path d="M42.4707 33.5965C42.4707 33.5258 42.4795 33.4285 42.4972 33.3046C42.5149 33.1631 42.5591 33.0392 42.6299 32.9331C43.2137 32.8623 43.6383 32.7031 43.9037 32.4554C44.169 32.1901 44.3106 31.7212 44.3283 31.049L44.7263 18.1254C44.744 17.6654 44.7175 17.3205 44.6467 17.0905C44.5936 16.8428 44.4433 16.6836 44.1956 16.6128C43.9479 16.5243 43.5498 16.4801 43.0014 16.4801C43.0014 16.3917 43.0103 16.2767 43.028 16.1351C43.0456 15.9936 43.0633 15.8786 43.081 15.7902C43.1341 15.5955 43.196 15.4894 43.2668 15.4717C43.3552 15.4363 43.4083 15.4186 43.426 15.4186H45.3101C45.5224 15.4186 45.6994 15.454 45.8409 15.5248C45.9824 15.5955 46.0974 15.7282 46.1859 15.9228L52.6344 29.271C52.7228 29.4833 52.8113 29.4833 52.8997 29.271L59.3483 16.0025C59.5429 15.6132 59.8525 15.4186 60.277 15.4186H62.6388C62.8158 15.4186 62.9042 15.5071 62.9042 15.684C62.9042 15.7548 62.8865 15.8609 62.8511 16.0025C62.8158 16.1263 62.7627 16.2413 62.6919 16.3474C62.0904 16.4359 61.657 16.5951 61.3916 16.8251C61.1262 17.0374 61.0024 17.4531 61.0201 18.0723L61.4447 31.049C61.4801 31.7212 61.5243 32.1724 61.5774 32.4024C61.6481 32.6147 61.8516 32.7385 62.1877 32.7739C62.3116 32.7916 62.4796 32.8004 62.6919 32.8004C62.9219 32.8004 63.1254 32.8004 63.3023 32.8004C63.3023 32.8889 63.2934 33.0039 63.2757 33.1454C63.2757 33.2869 63.258 33.4019 63.2227 33.4904C63.1696 33.6673 63.1077 33.7734 63.0369 33.8088C62.9661 33.8442 62.9131 33.8619 62.8777 33.8619H58.2602C58.0833 33.8619 57.9949 33.7734 57.9949 33.5965C57.9949 33.5258 58.0037 33.4285 58.0214 33.3046C58.0391 33.1631 58.0833 33.0392 58.1541 32.9331C58.7379 32.8623 59.1713 32.7031 59.4544 32.4554C59.7552 32.1901 59.8878 31.7212 59.8525 31.049L59.4279 18.9215C59.4279 18.8861 59.419 18.8685 59.4013 18.8685C59.3836 18.8508 59.3659 18.8596 59.3483 18.895L53.2713 31.1551C53.1651 31.3851 52.9794 31.5001 52.714 31.5001H52.3159C52.0506 31.5001 51.8648 31.3851 51.7586 31.1551L46.0266 19.4523C46.009 19.4169 45.9913 19.408 45.9736 19.4257C45.9559 19.4257 45.947 19.4434 45.947 19.4788L45.5224 31.049C45.5047 31.7212 45.5578 32.1724 45.6817 32.4024C45.8232 32.6147 46.062 32.7385 46.3982 32.7739C46.5928 32.7916 46.8051 32.8004 47.0351 32.8004C47.265 32.8004 47.4685 32.8004 47.6454 32.8004C47.6454 32.8889 47.6366 33.0039 47.6189 33.1454C47.6189 33.2869 47.6012 33.4019 47.5658 33.4904C47.5127 33.6673 47.4508 33.7734 47.38 33.8088C47.3093 33.8442 47.2562 33.8619 47.2208 33.8619H42.736C42.5591 33.8619 42.4707 33.7734 42.4707 33.5965Z" fill="#12538C"/>
<path d="M76.4792 49.4784C76.4792 49.4076 76.488 49.3103 76.5057 49.1865C76.5234 49.0449 76.5676 48.9211 76.6384 48.8149C77.2222 48.7442 77.6468 48.5849 77.9122 48.3373C78.1952 48.0719 78.3368 47.6031 78.3368 46.9308V33.8746C78.3368 33.4146 78.3014 33.0785 78.2306 32.8662C78.1776 32.6539 78.0272 32.5212 77.7795 32.4681C77.5495 32.3973 77.1603 32.362 76.6119 32.362C76.6119 32.2735 76.6207 32.1585 76.6384 32.017C76.6561 31.8754 76.6738 31.7604 76.6915 31.672C76.7446 31.4774 76.8065 31.3712 76.8772 31.3535C76.9657 31.3182 77.0188 31.3005 77.0365 31.3005H79.1063C79.5309 31.3005 79.8494 31.4685 80.0617 31.8047L90.1192 46.5062C90.1546 46.5593 90.19 46.577 90.2254 46.5593C90.2608 46.5416 90.2785 46.5062 90.2785 46.4531V33.8746C90.2785 33.4146 90.2254 33.0785 90.1192 32.8662C90.0131 32.6539 89.8185 32.5212 89.5354 32.4681C89.2524 32.3973 88.8366 32.362 88.2882 32.362C88.2882 32.2735 88.297 32.1585 88.3147 32.017C88.3324 31.8754 88.3501 31.7604 88.3678 31.672C88.4209 31.4774 88.4828 31.3712 88.5535 31.3535C88.642 31.3182 88.6951 31.3005 88.7128 31.3005H93.0648C93.2418 31.3005 93.3302 31.3889 93.3302 31.5658C93.3302 31.6366 93.3125 31.7428 93.2771 31.8843C93.2418 32.0081 93.1887 32.1231 93.1179 32.2293C92.5164 32.3177 92.0918 32.4769 91.8441 32.7069C91.5965 32.9192 91.4726 33.335 91.4726 33.9542V49.7437H90.703C90.4377 49.7437 90.2254 49.6287 90.0662 49.3988L79.7167 34.2992C79.6813 34.2461 79.6459 34.2284 79.6106 34.2461C79.5752 34.2638 79.5575 34.2992 79.5575 34.3522L79.5309 46.9308C79.5309 47.6031 79.5929 48.0542 79.7167 48.2842C79.8405 48.4965 80.0705 48.6203 80.4067 48.6557C80.6013 48.6734 80.8136 48.6823 81.0436 48.6823C81.2735 48.6823 81.477 48.6823 81.6539 48.6823C81.6539 48.7707 81.6451 48.8857 81.6274 49.0272C81.6274 49.1688 81.6097 49.2838 81.5743 49.3722C81.5212 49.5491 81.4593 49.6553 81.3885 49.6907C81.3178 49.726 81.2647 49.7437 81.2293 49.7437H76.7446C76.5676 49.7437 76.4792 49.6553 76.4792 49.4784Z" fill="#12538C"/>
<path d="M72.7577 35.6507C72.5682 35.6507 72.3169 35.5436 72.0038 35.3294C71.6906 35.1151 71.3446 34.8391 70.9655 34.5013C70.5865 34.8638 70.1457 35.1399 69.643 35.3294C69.1404 35.5189 68.6131 35.6136 68.061 35.6136C67.3524 35.6136 66.7715 35.4859 66.3183 35.2305C65.8651 34.9751 65.5314 34.6413 65.3171 34.2293C65.1029 33.8174 64.9958 33.3848 64.9958 32.9316C64.9958 32.5196 65.0782 32.1282 65.243 31.7574C65.416 31.3866 65.655 31.057 65.9598 30.7686C66.273 30.4802 66.6438 30.2619 67.0722 30.1136C66.8003 29.7428 66.6067 29.4503 66.4913 29.236C66.376 29.0135 66.3018 28.8446 66.2688 28.7293C66.2441 28.6057 66.2318 28.5068 66.2318 28.4326C66.2318 27.9959 66.3348 27.6416 66.5408 27.3697C66.755 27.0978 67.0228 26.8959 67.3441 26.7641C67.6655 26.6322 67.9992 26.5663 68.3453 26.5663C68.7737 26.5663 69.1239 26.6487 69.3959 26.8135C69.676 26.9701 69.882 27.1761 70.0138 27.4315C70.1539 27.6787 70.224 27.9382 70.224 28.2102C70.224 28.4738 70.1663 28.7169 70.0509 28.9394C69.9356 29.1619 69.7914 29.339 69.6183 29.4709C69.4535 29.6027 69.2887 29.6686 69.1239 29.6686C69.0992 29.6521 69.0663 29.6274 69.0251 29.5945C68.9839 29.5615 68.955 29.5203 68.9385 29.4709C69.161 29.3802 69.3217 29.2484 69.4206 29.0753C69.5194 28.9023 69.5689 28.7128 69.5689 28.5068C69.5689 28.2678 69.5071 28.0371 69.3835 27.8146C69.2599 27.5839 69.0786 27.3944 68.8397 27.2461C68.6089 27.0978 68.3329 27.0236 68.0116 27.0236C67.6161 27.0236 67.3112 27.1307 67.0969 27.345C66.8909 27.5592 66.7879 27.7899 66.7879 28.0371C66.7879 28.2431 66.8745 28.5027 67.0475 28.8158C67.2205 29.1289 67.4966 29.5327 67.8756 30.027C68.403 30.7027 68.9385 31.3537 69.4824 31.9799C70.0262 32.5979 70.5535 33.1376 71.0644 33.599C71.4434 33.014 71.633 32.3095 71.633 31.4855C71.633 31.3372 71.6247 31.1559 71.6082 30.9417C71.5094 30.9334 71.4105 30.9252 71.3116 30.9169C70.9161 30.8922 70.5906 30.9375 70.3352 31.0529L70.261 30.7563C70.2446 30.6821 70.2899 30.6285 70.397 30.5956C70.5618 30.5544 70.7637 30.5214 71.0026 30.4967C71.2416 30.472 71.4393 30.4596 71.5959 30.4596C71.8678 30.4596 72.1109 30.4638 72.3251 30.472C72.5393 30.4802 72.7289 30.4844 72.8937 30.4844C73.1161 30.4844 73.3098 30.4679 73.4746 30.4349C73.6476 30.402 73.8124 30.336 73.969 30.2372C74.0349 30.3608 74.072 30.4802 74.0802 30.5956C74.0308 30.7769 73.936 30.9005 73.7959 30.9664C73.6641 31.0241 73.4787 31.0529 73.2397 31.0529C73.1244 31.0529 72.9925 31.0488 72.8442 31.0405C72.6959 31.0241 72.5352 31.0076 72.3622 30.9911C72.3457 31.6008 72.2551 32.1529 72.0903 32.6473C71.9337 33.1335 71.7236 33.566 71.4599 33.9451C71.8719 34.2911 72.2633 34.5631 72.6341 34.7608C73.0049 34.9503 73.3386 35.0369 73.6352 35.0204C73.6352 35.0945 73.6311 35.1728 73.6229 35.2552C73.6146 35.3294 73.5982 35.3994 73.5734 35.4653C73.524 35.5065 73.4416 35.5436 73.3262 35.5766C73.2109 35.6013 73.0955 35.6219 72.9802 35.6384C72.8731 35.6466 72.7989 35.6507 72.7577 35.6507ZM70.6071 34.1552C70.2198 33.7844 69.8243 33.3806 69.4206 32.9439C69.0168 32.499 68.6337 32.0623 68.2711 31.6338C67.9086 31.1971 67.5913 30.7975 67.3194 30.4349C66.8168 30.6656 66.4295 31.0035 66.1576 31.4484C65.8939 31.8851 65.7621 32.3342 65.7621 32.7956C65.7621 33.1664 65.8486 33.5207 66.0216 33.8586C66.1947 34.1882 66.4707 34.4601 66.8497 34.6743C67.2288 34.8803 67.7232 34.9833 68.3329 34.9833C68.7943 34.9833 69.2146 34.9133 69.5936 34.7732C69.9809 34.6249 70.3187 34.4189 70.6071 34.1552Z" fill="#12538C"/>
<path d="M14.9541 31.7974C14.9541 31.7974 14.9541 31.7974 14.9554 31.7979C14.9554 31.7979 14.9565 31.7952 14.9552 31.7947L14.9541 31.7974Z" fill="#D8EEFF"/>
<path d="M16.424 30.6971C14.4949 29.7678 12.9396 28.082 12.1688 26.0854C12.0238 27.0261 12.3278 27.9985 12.8526 28.7934C13.3774 29.5884 14.1075 30.2272 14.8746 30.7914C17.1985 32.5022 19.899 33.6092 22.5829 34.6773C21.935 33.6123 21.0023 32.724 19.9049 32.1301C18.8016 31.5338 17.5575 31.2413 16.4268 30.6959L16.424 30.6971Z" fill="#D8EEFF"/>
<path d="M21.4715 22.7103C21.5004 23.1514 21.536 23.593 21.5752 24.0314C21.7966 23.4822 22.1057 22.9659 22.4879 22.5136C22.9669 21.9464 23.5496 21.4808 24.1288 21.0184C25.2012 20.1644 26.2716 19.3096 27.3944 18.5242C29.313 17.1776 31.3696 16.0359 33.4178 14.8978C31.8196 17.1131 29.7556 18.9914 27.4013 20.376C26.2844 21.0328 25.0985 21.5815 24.0344 22.3239C23.0408 23.0167 22.1352 23.9127 21.6726 25.0262C21.7648 25.8971 21.8768 26.7646 22.0035 27.6241C22.214 25.9794 23.2168 24.5117 24.4654 23.4141C25.7489 22.287 27.2891 21.4976 28.8043 20.7073C30.3196 19.917 31.8491 19.1026 33.0999 17.937C32.4634 19.5845 31.0849 20.8388 29.606 21.8068C28.1271 22.7748 26.5107 23.5197 25.0574 24.521C23.8126 25.3812 22.6644 26.4803 22.0353 27.8414C22.2102 29.0029 22.4148 30.1534 22.6408 31.285C23.1171 29.2261 23.7198 27.0757 25.3098 25.7068C26.6833 24.5218 28.7002 24.1336 30.4175 24.7225C26.9816 26.135 24.2176 29.1 23.051 32.6263L22.8181 32.1443C22.9103 32.5765 23.0041 33.0048 23.1015 33.4299C24.8744 31.1058 26.6576 28.779 28.7143 26.7026C29.934 25.4716 31.2473 24.3335 32.6377 23.2999C31.4508 25.7201 29.8467 27.9331 27.9322 29.828C28.6128 29.6039 29.3464 29.539 30.0522 29.6513C28.0977 30.3518 26.4802 31.9369 25.746 33.8781C25.3392 34.9498 24.7222 35.9391 23.9442 36.7808C24.0938 37.3327 24.2467 37.8766 24.4035 38.4107C25.4788 36.0052 26.7739 33.6585 28.6389 31.8011C30.5607 29.8884 33.1609 28.5318 35.8714 28.577C33.34 29.3183 31.126 30.9133 29.2866 32.8041C27.4861 34.6553 26.0115 36.7919 24.5528 38.9234C24.663 39.2939 24.7747 39.6605 24.8869 40.0204C25.4443 38.7062 26.226 37.4847 27.1886 36.4303C28.9878 34.4568 31.3539 33.1114 33.6775 31.7972C32.8806 32.7714 32.0773 33.7499 31.1048 34.5499C30.2397 35.26 29.258 35.8152 28.3566 36.4785C27.0006 37.4777 25.8323 38.7294 24.9269 40.1491C25.0842 40.6535 25.2427 41.1492 25.4032 41.6342C26.0052 40.779 26.6064 39.9258 27.2084 39.0705C27.8028 38.2283 28.4033 37.377 29.1769 36.6944C29.8105 36.1367 30.5487 35.7016 31.2884 35.2739C31.565 34.9467 31.8558 34.6298 32.1592 34.3272L31.9833 34.8719C32.8783 34.3438 33.728 33.7745 34.3529 32.9537C34.0113 34.1941 33.2259 35.3108 32.1728 36.0485C31.9449 36.2093 31.706 36.3518 31.4616 36.4853C31.2932 37.0054 31.1237 37.5228 30.9554 38.0429C30.7424 38.6967 30.5262 39.3583 30.15 39.9325C29.6043 40.7621 28.768 41.3438 27.9954 41.9671C27.2746 42.5471 26.5679 43.2177 26.2472 44.0761C28.4106 50.1276 30.4736 54.1266 30.4736 54.1266L29.6692 54.9255C27.884 51.0523 26.4436 47.4007 25.2937 43.9742C25.2208 44.0069 25.129 44.0066 25.0475 44.0036C24.243 43.9596 23.4405 43.9163 22.636 43.8722C22.1772 43.848 21.7085 43.8198 21.2837 43.6486C20.8569 43.4766 20.4753 43.1298 20.3836 42.6794C20.9909 43.2412 21.9037 43.3014 22.7283 43.2387C23.5034 43.1791 24.3001 43.0431 25.0484 43.2322C24.8821 42.7219 24.7208 42.2159 24.5667 41.7151C23.7296 41.8715 22.8933 42.0259 22.0562 42.1823C21.4451 42.2965 20.8139 42.4096 20.2086 42.2758C19.6764 42.1601 19.1982 41.8593 18.7977 41.4911C18.3963 41.1249 18.062 40.6893 17.7301 40.2592C19.0731 40.4147 20.2793 41.1375 21.5862 41.4852C22.5472 41.7393 23.5593 41.7867 24.5393 41.6236C24.3875 41.1283 24.2409 40.6374 24.1005 40.1536C22.5617 40.4498 20.9339 40.7215 19.4749 40.1586C18.6225 39.8288 17.8804 39.2196 17.3928 38.4465C17.121 38.0154 16.9292 37.5338 16.8249 37.0347C16.4717 37.0393 16.118 37.0391 15.766 37.0121C14.8563 36.944 13.9029 36.6653 13.3217 35.9648C14.9946 36.584 16.8411 35.1486 18.581 35.5445C19.5089 35.7554 20.2377 36.4489 20.9865 37.0356C21.7097 37.6004 22.6012 38.1068 23.4937 37.9498C23.3793 37.5155 23.2709 37.0836 23.1668 36.6581C22.7045 36.7565 22.2001 36.629 21.7687 36.4115C21.2606 36.1561 20.8178 35.7847 20.3248 35.5033C19.5333 35.051 18.6347 34.8357 17.7751 34.5352C17.121 34.306 16.4718 34.019 15.9434 33.5694C15.4168 33.1206 15.0154 32.4925 14.9607 31.802C16.3948 32.9337 18.0882 33.5704 19.7274 34.3758C20.9015 34.9502 22.0041 35.6565 23.096 36.3723C22.9649 35.8256 22.8402 35.2861 22.7237 34.7545L22.6091 34.7198C22.6004 34.7071 22.5925 34.6925 22.5839 34.6798C22.6293 34.6981 22.6728 34.7156 22.7182 34.7339C22.6029 34.2051 22.4932 33.6854 22.3925 33.1717C20.902 32.1229 19.2986 31.24 17.7847 30.2209C16.1112 29.0961 14.5158 27.7662 13.488 26.0312C12.9248 25.0807 12.5391 23.9123 12.9287 22.8773C14.2699 25.345 16.0916 27.5493 18.2634 29.3298C19.6993 30.5081 21.3205 31.5406 22.3722 33.0624C22.1763 32.067 22.0076 31.1009 21.8602 30.1618C21.3729 29.2396 20.5096 28.5608 19.6158 28.0145C18.6727 27.4368 17.6577 26.9633 16.7968 26.2671C15.3245 25.0764 14.3875 23.2471 14.281 21.3575C16.2121 24.0768 19.39 27.2528 21.7766 29.6228C21.6763 28.9484 21.5887 28.2884 21.5137 27.6426C18.9204 25.8025 17.3342 22.7973 14.812 20.8435C14.1117 20.3016 13.3364 19.8375 12.7496 19.1737C12.1627 18.5099 11.7831 17.5714 12.067 16.7303C12.7512 17.9616 13.8342 18.9219 14.9585 19.7679C16.0841 20.6166 17.2767 21.3845 18.2919 22.3588C19.4441 23.4664 20.6817 25.0057 21.3967 26.571C21.2856 25.4904 21.2077 24.4529 21.1566 23.463C18.2544 22.2012 16.0031 19.8375 15.0248 17.0108C14.9715 16.8584 14.9224 16.7008 14.8801 16.5436C13.9113 15.8017 13.0674 14.8184 12.8364 13.625C13.3998 14.199 14.0636 14.6434 14.7611 15.044C14.8636 14.4307 15.2071 13.8181 15.7832 13.4715C15.8064 14.2458 15.9072 15.0099 16.0765 15.758C16.8085 16.1473 17.5365 16.5464 18.1906 17.0489C19.6027 18.1327 20.637 19.698 21.0873 21.4184C21.0705 20.4631 21.0804 19.5552 21.1088 18.6984C19.6729 17.4972 18.4569 16.0124 17.6801 14.3097C16.951 12.7112 16.6238 10.9646 16.3001 9.23776C18.0641 11.8644 20.5209 15.3308 21.1157 18.4761C21.1588 17.3267 21.2387 16.2679 21.3387 15.3022C19.9245 14.4059 18.9839 12.8646 18.6358 11.2267C18.2835 9.57101 18.4978 7.83139 19.0306 6.22476C18.9722 8.36948 19.4645 10.5271 20.4487 12.433C20.9017 13.3092 21.4733 14.2218 21.3389 15.1989L21.3476 15.2231C21.4007 14.7323 21.4585 14.2641 21.5202 13.8204C21.5131 13.8267 21.5048 13.8302 21.4976 13.8365C21.5048 13.8302 21.5127 13.8219 21.5218 13.8164C21.5767 13.4182 21.6378 13.0386 21.6977 12.6792C20.8519 11.3873 20.4553 9.84702 20.2295 8.31589C20.1142 7.52519 20.0384 6.72749 19.83 5.95672C19.6216 5.18595 19.2684 4.4326 18.6808 3.89026C19.819 4.31461 20.7361 5.29297 21.0842 6.45772C21.6716 8.41943 20.9454 10.7451 21.7018 12.6349C21.9538 11.1723 22.2361 10.0389 22.4684 9.24598C22.2106 9.21324 21.8789 8.85672 21.7917 8.61715C21.7022 8.37204 21.7017 8.10542 21.6779 7.84545C21.6325 7.36548 21.5036 6.8932 21.5029 6.41058C21.4998 5.80295 21.7059 5.1947 22.0771 4.71268C22.2155 5.6229 22.2605 6.5483 22.2133 7.46871C22.1837 8.04935 22.2137 8.65864 22.49 9.16968C22.5447 8.98272 22.5982 8.81592 22.6456 8.66968L22.6405 8.65384C22.5215 8.50479 22.5319 8.2908 22.591 8.11017C22.65 7.92955 22.7525 7.76644 22.8056 7.58343C22.8778 7.34153 22.858 7.08315 22.9156 6.83765C23.0036 6.4597 23.2656 6.14037 23.5767 5.90978C23.8887 5.67722 24.2479 5.52114 24.6035 5.36821C24.3683 5.61562 24.1322 5.86499 23.9298 6.13938C23.7273 6.41377 23.5579 6.7199 23.4708 7.04998C23.3997 7.31761 23.3859 7.59685 23.2981 7.86008C23.1937 8.17627 22.9809 8.4534 22.7074 8.64176C22.6191 8.9576 22.5348 9.27503 22.4545 9.59405C22.9544 9.16855 23.324 8.67902 23.6223 8.08722C23.8935 7.55114 24.068 6.96455 24.3882 6.4551C24.8899 5.66053 25.7499 5.09991 26.6795 4.96473C26.2893 5.15199 25.983 5.47871 25.7364 5.83408C25.4918 6.19025 25.3005 6.57939 25.0811 6.95263C24.4087 8.09645 23.5296 9.02372 22.4185 9.74032C22.2333 10.5017 22.0734 11.2687 21.94 12.0441C21.988 11.9762 22.0341 11.9075 22.0833 11.8424C22.0451 11.9257 22.0049 12.0083 21.9687 12.0925L21.9267 12.1169C21.8391 12.6305 21.7622 13.1462 21.6951 13.6658C22.7621 12.7339 23.6756 11.6643 24.39 10.5075C24.779 9.87878 25.1253 9.20759 25.7192 8.7143C26.2854 8.24428 27.0179 7.98832 27.7361 7.76792C29.4587 7.2381 31.2189 6.84288 32.9915 6.58812C31.6478 7.12371 30.3014 7.66047 28.9577 8.19606C28.2243 8.48841 27.4826 8.7843 26.8409 9.23078C26.0625 9.77144 25.4779 10.4982 24.8463 11.1761C23.906 12.1867 22.8479 12.92 21.6879 13.7065C21.561 14.6935 21.4749 15.6878 21.4196 16.6853C22.3066 14.73 23.2752 12.897 24.9801 11.5792C26.1083 10.7063 27.4863 10.2053 28.8878 9.93646C30.2873 9.66685 31.7206 9.61531 33.1457 9.5673C31.4366 10.5137 29.2917 10.3703 27.5688 11.2882C26.5507 11.831 25.7572 12.7055 24.8979 13.4754C23.6321 14.6097 22.2327 15.3065 21.4207 16.734C21.3653 17.7659 21.3475 18.8015 21.3593 19.8376L21.4168 19.661C21.6972 18.6348 21.9809 17.6007 22.4348 16.6398C22.8895 15.677 23.5332 14.7811 24.4098 14.179C25.3182 13.5552 26.4147 13.2852 27.4674 12.9585C29.3464 12.3769 31.1596 11.5826 32.8628 10.5994C31.5818 11.8172 30.1355 12.858 28.5727 13.6866C27.5122 14.249 26.3962 14.7156 25.4094 15.3973C23.7326 16.5543 22.5258 18.2544 21.3619 19.9282C21.3728 20.7159 21.4031 21.5067 21.4513 22.2933C22.2007 20.457 23.4671 17.4464 24.8773 16.5747C26.4461 15.6062 28.1828 14.9558 29.881 14.2415C31.5792 13.5273 33.2733 12.7264 34.6631 11.5181C33.6288 13.2234 31.9672 14.4508 30.2425 15.453C28.5178 16.4551 26.688 17.2794 25.0532 18.4234C23.5023 19.5071 22.1068 20.9405 21.4747 22.7139L21.4715 22.7103ZM21.1413 23.2387C21.1132 22.6531 21.0942 22.085 21.083 21.5316C20.3087 20.4155 19.3354 19.4398 18.2215 18.6646C17.7303 18.3219 17.2117 18.0187 16.6931 17.7155C17.5967 19.9011 19.132 21.8361 21.1413 23.2387ZM24.0624 40.0487C23.888 39.4386 23.7211 38.8385 23.5633 38.2443C21.8283 38.2293 20.2172 37.2744 18.4875 37.0756C18.1517 37.0367 17.8155 37.0275 17.4781 37.027C18.187 37.9007 19.1588 38.5612 20.2395 38.8774C20.9687 39.091 21.7344 39.1516 22.4741 39.328C23.0422 39.4629 23.6144 39.6843 24.0597 40.0499L24.0624 40.0487ZM25.1013 43.4144C25.1013 43.4144 25.1021 43.4124 25.101 43.4096C25.101 43.4096 25.1002 43.4116 25.1013 43.4144ZM25.4079 41.6568C25.6684 42.4463 25.9298 43.2109 26.1925 43.9438C26.2475 43.0495 26.3368 42.0818 26.9434 41.4259C27.252 41.0933 27.6664 40.8744 27.9968 40.562C28.5187 40.065 28.7876 39.3695 29.0896 38.7172C29.3036 38.2545 29.5406 37.8034 29.7997 37.3658C29.6028 37.4839 29.4114 37.6112 29.2278 37.7531C28.4703 38.3389 27.9053 39.1309 27.3091 39.8806C26.7649 40.5639 26.1654 41.2363 25.4079 41.6568ZM23.121 33.5182C23.3533 34.526 23.6011 35.5124 23.8596 36.478C24.0635 35.3681 24.2813 34.2523 24.6967 33.2048C24.8417 32.8452 25.0091 32.4923 25.2047 32.1554C24.534 32.6454 23.8378 33.102 23.1202 33.5202L23.121 33.5182Z" fill="#D8EEFF"/>
<path d="M28.0484 6.72013C27.2408 6.51859 26.3695 6.73699 25.6579 7.16905C24.9462 7.6011 24.3745 8.22737 23.8676 8.88664C23.1642 9.79975 22.5638 10.7934 22.0803 11.8389C22.6965 10.994 23.4208 10.2914 24.1211 9.49415C25.196 8.26912 26.4631 7.09169 28.0492 6.71815L28.0484 6.72013Z" fill="#D8EEFF"/>
<g style="mix-blend-mode:multiply">
<path d="M14.969 31.7412C14.969 31.7412 14.969 31.7412 14.9703 31.7417C14.9703 31.7417 14.9714 31.7391 14.9701 31.7385L14.969 31.7412Z" fill="url(#paint0_linear_1303_24186)"/>
<path d="M22.0945 11.7828C22.7107 10.9379 23.435 10.2353 24.1353 9.43813C25.2102 8.2131 26.4773 7.03567 28.0634 6.66213C28.0255 6.65373 27.9875 6.64532 27.9515 6.6377C27.9955 6.62556 28.0386 6.61539 28.0818 6.60522C27.2741 6.40368 26.4028 6.62208 25.6912 7.05413C24.9796 7.48619 24.4079 8.11245 23.9009 8.77173C23.1975 9.68483 22.5971 10.6785 22.1137 11.724C22.1232 11.7117 22.1327 11.6995 22.1423 11.6872C22.1295 11.7189 22.112 11.7508 22.0973 11.7817L22.0945 11.7828Z" fill="url(#paint1_linear_1303_24186)"/>
<path d="M14.9846 31.6836C14.9846 31.6836 14.9846 31.6836 14.986 31.6841C14.986 31.6841 14.987 31.6815 14.9857 31.6809L14.9846 31.6836Z" fill="url(#paint2_linear_1303_24186)"/>
<path d="M22.612 34.5622C21.9641 33.4971 21.0313 32.6089 19.934 32.0149C18.8307 31.4186 17.5866 31.1261 16.4558 30.5807C14.5267 29.6514 12.9714 27.9656 12.2006 25.969C12.197 25.9951 12.1941 26.0192 12.1905 26.0453C12.1882 26.0398 12.1866 26.0323 12.1823 26.0259C12.0373 26.9666 12.3413 27.939 12.8661 28.734C13.3909 29.5289 14.121 30.1678 14.8881 30.732C17.212 32.4428 19.9124 33.5497 22.5964 34.6179C22.5779 34.5898 22.5594 34.5616 22.5436 34.5323C22.5673 34.5419 22.5911 34.5514 22.6148 34.561L22.612 34.5622Z" fill="url(#paint3_linear_1303_24186)"/>
<path d="M30.5007 54.0119L30.4698 54.043C30.4788 54.0605 30.4843 54.0696 30.4843 54.0696L29.6799 54.8685C27.9113 51.0341 26.483 47.415 25.3382 44.0158C25.0852 44.0907 24.5239 44.2067 23.2806 44.3509C21.0053 44.6166 20.2198 42.3545 20.2198 42.3545C20.282 42.4508 20.351 42.536 20.4252 42.6141C20.4209 42.5963 20.4166 42.5785 20.4123 42.5607C21.0196 43.1225 21.9324 43.1827 22.757 43.12C23.5198 43.0623 24.3034 42.9303 25.0392 43.1051C24.8803 42.6162 24.7265 42.1316 24.5771 41.6533C23.74 41.8097 22.9037 41.9641 22.0666 42.1205C21.4555 42.2347 20.8242 42.3478 20.2189 42.214C19.6868 42.0983 19.2085 41.7975 18.808 41.4294C18.4067 41.0632 18.0716 40.6295 17.7405 40.1974C17.7626 40.1995 17.7859 40.2043 17.8081 40.2063C17.7919 40.1837 17.775 40.1631 17.7568 40.1397C19.0998 40.2952 20.306 41.018 21.6129 41.3657C22.5632 41.6178 23.5639 41.6652 24.5339 41.5096C24.3865 41.0321 24.2461 40.5598 24.1109 40.0918C22.572 40.388 20.9443 40.6597 19.4853 40.0969C18.6329 39.767 17.8908 39.1578 17.4031 38.3847C17.1313 37.9536 16.9396 37.472 16.8353 36.9729C16.482 36.9775 16.1284 36.9774 15.7764 36.9503C14.8667 36.8822 13.9133 36.6035 13.3321 35.903C13.3637 35.9157 13.3969 35.9245 13.4293 35.9353C13.4021 35.9059 13.3749 35.8766 13.3504 35.8461C15.0233 36.4653 16.8698 35.0299 18.6097 35.4258C19.5376 35.6368 20.2656 36.3322 21.0152 36.9169C21.7293 37.4758 22.6098 37.9754 23.4931 37.8353C23.4669 37.7352 23.4406 37.635 23.4152 37.5329C23.405 37.4898 23.3929 37.4458 23.3819 37.4046C23.3568 37.3073 23.3318 37.2099 23.3087 37.1133C23.266 36.9399 23.2226 36.7685 23.1791 36.5971C22.7168 36.6956 22.2124 36.568 21.783 36.3513C21.2749 36.0959 20.8321 35.7245 20.3391 35.4431C19.5476 34.9908 18.649 34.7756 17.7894 34.475C17.1353 34.2458 16.4861 33.9588 15.9577 33.5092C15.4312 33.0604 15.0297 32.4323 14.975 31.7418C14.9841 31.7478 14.9924 31.7557 14.9995 31.7609C14.9964 31.7344 14.9925 31.7098 14.9914 31.6841C16.4255 32.8158 18.1189 33.4525 19.758 34.2579C20.9184 34.8267 22.0087 35.5235 23.0903 36.2306C22.9643 35.7112 22.8466 35.1998 22.7341 34.6927L22.6234 34.6596C22.6147 34.6469 22.6068 34.6323 22.5982 34.6196C22.6416 34.6371 22.6851 34.6546 22.7286 34.6722C22.7255 34.6571 22.7223 34.6421 22.7192 34.627L22.639 34.6039C22.6303 34.5912 22.6224 34.5765 22.6138 34.5639C22.6473 34.5774 22.679 34.5901 22.7125 34.6037C22.6012 34.0994 22.4969 33.6003 22.3989 33.1083C20.9103 32.0604 19.309 31.1783 17.7962 30.1619C16.1227 29.0371 14.5273 27.7072 13.4995 25.9722C12.9619 25.0665 12.5891 23.963 12.892 22.9665C12.9104 22.8981 12.9335 22.8293 12.9586 22.7614C14.2998 25.2291 16.1215 27.4334 18.2932 29.2138C19.7087 30.3747 21.303 31.3941 22.3576 32.8803C22.1703 31.9205 22.005 30.9857 21.8631 30.0787C21.373 29.1691 20.5188 28.4963 19.6329 27.9531C18.6898 27.3754 17.6748 26.9019 16.8139 26.2058C15.3415 25.0151 14.4045 23.1857 14.2981 21.2961C14.3055 21.306 14.3142 21.3187 14.3217 21.3286C14.3202 21.2982 14.3179 21.2697 14.3164 21.2392C16.2376 23.9431 19.388 27.0964 21.7694 29.4621C21.6754 28.8178 21.5893 28.1882 21.5165 27.5709C18.9327 25.73 17.3454 22.7336 14.8291 20.7821C14.1288 20.2403 13.3535 19.7761 12.7666 19.1123C12.1893 18.4593 11.812 17.5377 12.0721 16.7101C12.0809 16.6769 12.0909 16.6464 12.1016 16.614C12.7859 17.8453 13.8688 18.8055 14.9931 19.6516C16.1187 20.5003 17.3113 21.2682 18.3265 22.2425C19.4538 23.3262 20.6603 24.8232 21.3821 26.3545C21.2793 25.3277 21.2036 24.3417 21.1531 23.3957C18.2604 22.1331 16.019 19.7734 15.0431 16.9522C14.9897 16.7998 14.9407 16.6422 14.8984 16.485C14.2036 15.9523 13.5732 15.2939 13.186 14.5223C13.0124 14.1951 12.8812 13.8482 12.8094 13.4793C12.8323 13.5023 12.8552 13.5253 12.88 13.5491C12.8761 13.536 12.8742 13.5238 12.8711 13.5087C13.4332 14.0799 14.0943 14.5255 14.7898 14.9253C14.8063 14.8447 14.8247 14.7648 14.8478 14.6846C14.855 14.6553 14.8642 14.6269 14.8742 14.5964C14.8766 14.5905 14.8797 14.5826 14.8821 14.5767C14.8921 14.5462 14.9021 14.5158 14.914 14.4862C14.9172 14.4783 14.9204 14.4704 14.9244 14.4605C14.9355 14.4328 14.9467 14.4052 14.9586 14.3755C14.9626 14.3656 14.9666 14.3558 14.9706 14.3459C14.9817 14.3182 14.9941 14.2933 15.0064 14.2684C15.0112 14.2566 15.0159 14.2447 15.0227 14.2337C15.035 14.2088 15.0474 14.1839 15.0609 14.1618C15.0664 14.1479 15.0752 14.1377 15.0827 14.1247C15.0962 14.1025 15.1078 14.0796 15.1213 14.0575C15.1288 14.0445 15.1391 14.0303 15.1467 14.0172C15.1594 13.9971 15.1729 13.975 15.1876 13.9556C15.1979 13.9414 15.2083 13.9272 15.2186 13.913C15.2333 13.8936 15.2452 13.8755 15.2599 13.8561C15.2702 13.8419 15.2833 13.8265 15.2956 13.8131C15.3095 13.7957 15.3234 13.7784 15.3392 13.7618C15.3523 13.7464 15.3674 13.7318 15.3805 13.7164C15.3956 13.7018 15.4095 13.6844 15.4245 13.6699C15.4396 13.6553 15.4555 13.6387 15.4725 13.6249C15.4868 13.6123 15.4999 13.5969 15.5161 13.585C15.534 13.5693 15.5518 13.5535 15.5717 13.5385C15.5851 13.5279 15.5994 13.5152 15.6129 13.5046C15.6335 13.4876 15.6561 13.4715 15.6787 13.4553C15.6914 13.4467 15.7021 13.4372 15.7148 13.4285C15.75 13.4037 15.7865 13.3816 15.8229 13.3596C15.8262 13.4712 15.8322 13.5815 15.8383 13.6919C15.8405 13.7319 15.8436 13.7699 15.8459 13.8098C15.8504 13.8783 15.8562 13.9495 15.8607 14.0179C15.8657 14.0682 15.8688 14.1177 15.8746 14.1659C15.88 14.2209 15.8865 14.2787 15.8919 14.3337C15.8985 14.3915 15.9051 14.4493 15.9124 14.5051C15.9163 14.5296 15.9182 14.5533 15.9221 14.5779C15.9442 14.7453 15.9711 14.9123 15.9999 15.0801C15.9999 15.0801 16.0003 15.0848 16.0015 15.0876C16.0159 15.1715 16.0323 15.2562 16.0506 15.3417C16.0538 15.3567 16.0569 15.3718 16.06 15.3868C16.0776 15.4743 16.0959 15.5598 16.1155 15.6481C16.8475 16.0373 17.5755 16.4364 18.2296 16.939C19.5979 17.989 20.6089 19.4921 21.082 21.1505C21.0689 20.2656 21.0763 19.421 21.1026 18.6208C19.6793 17.4223 18.4747 15.9491 17.7027 14.2575C16.9736 12.6589 16.6464 10.9123 16.3227 9.18551C16.3357 9.20453 16.3487 9.22355 16.3617 9.24257C16.3539 9.20497 16.3468 9.16539 16.341 9.12859C18.0703 11.7045 20.4661 15.0889 21.12 18.1845C21.1632 17.1201 21.2347 16.1337 21.3289 15.2277C19.9337 14.3299 19.0073 12.7989 18.6612 11.1733C18.3311 9.61614 18.5004 7.98242 18.9654 6.45868C19.0001 6.34405 19.0348 6.22943 19.0735 6.11639C19.0151 8.26111 19.5074 10.4188 20.4917 12.3246C20.8722 13.0614 21.3381 13.8257 21.3953 14.6297C21.4816 13.8858 21.5811 13.2002 21.6873 12.5723C20.8643 11.2919 20.4752 9.773 20.2541 8.26443C20.1387 7.47374 20.0629 6.67603 19.8546 5.90526C19.6462 5.13449 19.2929 4.38114 18.7046 3.84077C18.748 3.8583 18.7895 3.87502 18.833 3.89254C18.7975 3.85526 18.7592 3.81917 18.7221 3.78584C19.8603 4.21019 20.7774 5.18856 21.1256 6.35331C21.7035 8.28136 21.011 10.5632 21.7078 12.4358C21.9469 11.0507 22.2148 9.96438 22.4388 9.18646C22.1914 9.11657 21.8967 8.79338 21.8155 8.56767C21.7259 8.32257 21.7255 8.05594 21.7016 7.79597C21.6562 7.31601 21.5273 6.84373 21.5267 6.36111C21.5262 6.08301 21.5689 5.80621 21.6487 5.5398C21.7458 5.20223 21.9045 4.88262 22.1172 4.60549C22.2556 5.51571 22.3006 6.44111 22.2534 7.36152C22.2255 7.91526 22.2512 8.49526 22.494 8.99277C22.5422 8.83308 22.5877 8.68605 22.6288 8.55561C22.5465 8.41219 22.5581 8.22392 22.612 8.06187C22.6128 8.0599 22.6143 8.05595 22.6159 8.052C22.6223 8.03619 22.6247 8.01879 22.6303 8.00496C22.6865 7.83698 22.7771 7.68058 22.8334 7.51261C22.8957 7.27819 22.8821 7.02695 22.9386 6.79015C22.9454 6.75614 22.9569 6.72176 22.9677 6.68935C23.064 6.33081 23.3176 6.02649 23.6161 5.80457C23.928 5.57201 24.2872 5.41593 24.6429 5.263C24.6155 5.29101 24.5901 5.31982 24.5627 5.34783C24.5849 5.3384 24.6043 5.33015 24.6265 5.32071C24.3913 5.56811 24.1552 5.81749 23.9527 6.09188C23.7753 6.33271 23.6234 6.59537 23.5305 6.87717C23.5237 6.8997 23.5169 6.92224 23.5102 6.94477C23.4434 7.19579 23.4265 7.45999 23.3511 7.7098C23.3423 7.74301 23.3327 7.77819 23.3219 7.8106C23.2182 8.12481 23.0054 8.40194 22.732 8.5903C22.6489 8.88756 22.5698 9.18642 22.4946 9.48686C22.9946 9.06136 23.3642 8.57182 23.6625 7.98003C23.9337 7.44395 24.1081 6.85736 24.4283 6.34791C24.9301 5.55333 25.79 4.99272 26.7196 4.85754C26.6689 4.88075 26.6206 4.90949 26.5722 4.93824C26.6146 4.93005 26.6589 4.92266 26.7032 4.91526C26.3131 5.10251 26.0068 5.42924 25.7602 5.7846C25.5136 6.13997 25.3242 6.52991 25.1049 6.90315C24.4333 8.04499 23.555 8.97029 22.4458 9.68769C22.2658 10.4305 22.1103 11.1809 21.9801 11.9369C22.0282 11.869 22.0742 11.8003 22.1235 11.7352C22.1099 11.7688 22.0932 11.7988 22.0777 11.8316C22.0872 11.8193 22.0956 11.8043 22.1051 11.7921C22.0669 11.8755 22.0267 11.958 21.9905 12.0422L21.9568 12.0631C21.9512 12.0998 21.9456 12.1366 21.9379 12.1726C21.8675 12.6265 21.8077 13.0825 21.7539 13.5408C22.8098 12.6136 23.719 11.5492 24.4301 10.4003C24.8191 9.77158 25.1655 9.10041 25.7594 8.60712C26.3255 8.13709 27.0581 7.88113 27.7762 7.66074C29.4989 7.13091 31.2591 6.73569 33.0316 6.48093C32.9576 6.5108 32.8835 6.54066 32.8094 6.57053C32.8775 6.56122 32.9464 6.54993 33.0152 6.53864C31.6716 7.07423 30.3251 7.61099 28.9815 8.14658C28.2481 8.43893 27.5063 8.73482 26.8647 9.1813C26.0863 9.72196 25.5017 10.4487 24.8701 11.1266C23.9385 12.1269 22.8914 12.8556 21.7453 13.6361C21.6404 14.5631 21.5686 15.4989 21.527 16.4399C22.3952 14.5367 23.3589 12.7615 25.0226 11.4775C26.1508 10.6047 27.5288 10.1036 28.9303 9.83481C30.3298 9.56521 31.7631 9.51367 33.1882 9.46566C33.1497 9.48692 33.1121 9.5062 33.0745 9.52549C33.1069 9.52478 33.1394 9.52407 33.1726 9.52139C31.4635 10.4678 29.3186 10.3244 27.5957 11.2423C26.5776 11.7851 25.7841 12.6596 24.9248 13.4295C23.7003 14.5299 22.3487 15.2162 21.5267 16.5546C21.4869 17.5079 21.4772 18.4663 21.4944 19.4265C21.5847 19.1 21.675 18.7734 21.7712 18.4493C21.966 17.7951 22.1865 17.1513 22.4781 16.5362C22.9328 15.5734 23.5765 14.6775 24.4531 14.0754C25.3615 13.4516 26.458 13.1816 27.5107 12.8549C29.3897 12.2733 31.2029 11.479 32.9061 10.4958C32.8625 10.5356 32.8209 10.5763 32.7772 10.6161C32.8157 10.5949 32.8521 10.5728 32.8906 10.5515C31.6095 11.7693 30.1633 12.8102 28.6004 13.6387C27.54 14.2011 26.4239 14.6677 25.4371 15.3494C23.8146 16.4686 22.6318 18.098 21.5036 19.7173C21.5218 20.4527 21.5562 21.1878 21.6049 21.9217C22.3658 20.074 23.5778 17.301 24.9234 16.4699C26.4921 15.5014 28.2289 14.851 29.9271 14.1367C31.6253 13.4225 33.3194 12.6216 34.7091 11.4133C34.6905 11.4425 34.671 11.4737 34.6523 11.5029C34.6658 11.4923 34.6793 11.4816 34.6908 11.4702C33.6565 13.1755 31.9949 14.403 30.2702 15.4051C28.5456 16.4073 26.7157 17.2315 25.0809 18.3755C23.6279 19.393 22.3103 20.7131 21.6314 22.3344C21.6643 22.7772 21.7007 23.2168 21.7438 23.6568C21.9515 23.2099 22.2177 22.7889 22.5359 22.4096C23.0149 21.8424 23.5977 21.3768 24.1769 20.9143C25.2492 20.0604 26.3196 19.2056 27.4424 18.4202C29.3611 17.0736 31.4176 15.9319 33.4658 14.7938C33.446 14.8202 33.4261 14.8467 33.4055 14.8751C33.4202 14.8672 33.4348 14.8594 33.4495 14.8515C31.8513 17.0669 29.7872 18.9451 27.433 20.3297C26.316 20.9865 25.1302 21.5352 24.066 22.2776C23.1656 22.9046 22.3406 23.6975 21.8483 24.6682C21.9352 25.4382 22.0364 26.2071 22.1495 26.9693C22.1739 26.8689 22.203 26.7681 22.2334 26.6701C22.6237 25.3712 23.4853 24.2141 24.5126 23.3121C25.7962 22.185 27.3363 21.3955 28.8516 20.6053C30.3668 19.815 31.8964 19.0006 33.1472 17.835C33.1384 17.8567 33.1296 17.8785 33.1209 17.9002C33.1225 17.8962 33.128 17.8939 33.1308 17.8927C32.4942 19.5402 31.1158 20.7945 29.6369 21.7625C28.158 22.7305 26.5416 23.4754 25.0883 24.4767C23.9421 25.2687 22.8793 26.2644 22.2269 27.4782C22.3964 28.5618 22.589 29.634 22.8033 30.692C22.9009 30.2903 23.0072 29.8899 23.1262 29.4922C23.5685 28.0076 24.2024 26.6002 25.357 25.6048C26.7305 24.4198 28.7475 24.0316 30.4647 24.6204C30.437 24.6322 30.4093 24.644 30.3815 24.6558C30.4033 24.6646 30.4266 24.6694 30.4483 24.6781C27.0837 26.062 24.3647 28.9326 23.1588 32.3627C23.214 32.6077 23.2691 32.8527 23.3262 33.0985C24.9419 30.9821 26.575 28.8681 28.42 26.9521C28.5585 26.8081 28.6961 26.666 28.8357 26.5248C30.0555 25.2938 31.3687 24.1557 32.7592 23.1222C32.2381 24.1869 31.6353 25.2094 30.9617 26.1851C30.1011 27.4483 29.1193 28.6305 28.0356 29.7119C28.7004 29.5044 29.4114 29.4442 30.0986 29.5512C30.0606 29.5658 30.0226 29.5803 29.9826 29.594C30.0154 29.5981 30.0483 29.6021 30.0803 29.6082C28.1258 30.3086 26.5103 31.8946 25.7741 33.8349C25.406 34.8051 24.8651 35.708 24.1878 36.4938C24.3233 36.9894 24.4632 37.4799 24.6043 37.9617C25.6485 35.6792 26.9076 33.4673 28.6814 31.6994C30.6032 29.7868 33.2034 28.4302 35.9139 28.4754C35.8513 28.4938 35.7888 28.5122 35.7274 28.5334C35.7848 28.5336 35.8402 28.533 35.8975 28.5331C33.3661 29.2744 31.1521 30.8694 29.3127 32.7601C27.5979 34.5242 26.1782 36.5474 24.7851 38.5789C24.8854 38.9111 24.9846 39.2405 25.0874 39.5667C25.6306 38.3846 26.3566 37.29 27.2311 36.3287C29.0303 34.3552 31.3964 33.0098 33.72 31.6955C33.6966 31.7251 33.6712 31.7539 33.6478 31.7836C33.666 31.7725 33.6843 31.7615 33.7037 31.7532C32.9067 32.7274 32.1034 33.7059 31.1309 34.506C30.2658 35.2161 29.2841 35.7713 28.3827 36.4346C27.127 37.3617 26.031 38.5024 25.1564 39.7944C25.3125 40.296 25.4726 40.7878 25.6319 41.27C26.1724 40.5048 26.7116 39.7368 27.2521 38.9716C27.8465 38.1295 28.4469 37.2782 29.2206 36.5955C29.8542 36.0378 30.5923 35.6027 31.332 35.175C31.5817 34.8806 31.8415 34.5949 32.1109 34.3199C32.3279 33.9182 32.4631 33.6626 32.4631 33.6626C32.4631 33.6626 32.3533 33.8894 32.1656 34.2639C32.1771 34.2524 32.1894 34.239 32.2009 34.2276C32.193 34.2473 32.187 34.2679 32.1818 34.2865C32.1818 34.2865 32.1818 34.2865 32.1826 34.2845C32.161 34.3493 32.1403 34.4121 32.1207 34.4778C32.2095 34.2747 32.2991 34.0696 32.3858 33.8657C32.3195 34.1215 32.2737 34.3832 32.2374 34.6442C33.052 34.1503 33.817 33.6089 34.3918 32.8552C34.3866 32.8738 34.3806 32.8943 34.3754 32.9129C34.0339 34.1534 33.2492 35.268 32.1954 36.0077C32.17 36.025 31.4919 36.4821 31.4666 36.4994C31.4178 37.2699 31.0327 37.9232 30.6747 38.6861C30.1789 39.7449 29.4501 40.6754 28.5241 41.3885C27.5054 42.1722 27.1096 42.704 26.2598 43.5926C28.4147 49.62 30.6754 53.7837 30.6754 53.7837L30.4822 53.9723C30.5003 54.0071 30.5086 54.0265 30.5086 54.0265L30.5007 54.0119ZM20.6232 22.7158C20.7894 22.8448 20.9592 22.9707 21.1325 23.0934C21.106 22.5268 21.0873 21.9749 21.0765 21.4377C20.3072 20.3375 19.3406 19.3736 18.2398 18.606C17.7648 18.2744 17.2651 17.9811 16.7655 17.6879C16.795 17.7572 16.8233 17.8237 16.8528 17.893C16.8677 17.9243 16.8807 17.9548 16.8948 17.9881C16.9342 18.0728 16.9735 18.1576 17.0128 18.2423C17.029 18.2764 17.0459 18.3085 17.062 18.3426C17.0974 18.4143 17.1348 18.4868 17.1722 18.5592C17.1915 18.5969 17.2108 18.6345 17.2308 18.6702C17.2659 18.7371 17.3017 18.8021 17.3375 18.8671C17.3576 18.9027 17.3757 18.9376 17.3958 18.9732C17.4403 19.0509 17.4848 19.1285 17.5301 19.2042C17.5521 19.2407 17.5742 19.2771 17.5974 19.3163C17.6305 19.371 17.6656 19.4265 17.6986 19.4812C17.7305 19.5331 17.7644 19.5858 17.7991 19.6365C17.833 19.6892 17.8688 19.7427 17.9047 19.7962C17.9319 19.837 17.961 19.8787 17.9882 19.9195C18.0347 19.9865 18.0812 20.0534 18.1297 20.1212C18.1608 20.1636 18.1931 20.2088 18.2243 20.2512C18.2531 20.2881 18.2791 20.3261 18.3078 20.363C18.3615 20.4351 18.4159 20.5053 18.4722 20.5763C18.4979 20.6096 18.5235 20.6429 18.5519 20.675C18.5901 20.7226 18.6284 20.7701 18.6686 20.8185C18.6887 20.8427 18.7088 20.8669 18.7309 20.8918C18.8007 20.9751 18.8713 21.0564 18.9439 21.1385C18.9628 21.1599 18.9817 21.1813 19.0006 21.2027C19.0898 21.3007 19.1789 21.3986 19.2697 21.4926C19.2736 21.4942 19.276 21.4997 19.2791 21.5033C19.3292 21.5557 19.3793 21.608 19.4302 21.6584C19.4365 21.6655 19.4436 21.6707 19.45 21.6778C19.5466 21.7742 19.6441 21.8686 19.7435 21.9638C19.7518 21.9718 19.762 21.9805 19.7703 21.9884C20.0422 22.2427 20.3256 22.4856 20.6205 22.717C20.6205 22.717 20.6205 22.717 20.6225 22.7178L20.6232 22.7158ZM22.5107 39.2125C23.0614 39.3449 23.6135 39.5537 24.0552 39.8994C23.889 39.3203 23.7312 38.749 23.5816 38.1857C21.8465 38.1707 20.2355 37.2158 18.5057 37.017C18.1921 36.9801 17.8789 36.971 17.5624 36.9697C18.267 37.8142 19.2191 38.4553 20.2753 38.7639C21.0046 38.9775 21.7702 39.0381 22.5099 39.2145L22.5107 39.2125ZM25.1995 32.115C24.6094 32.5477 23.9975 32.9488 23.3683 33.3245C23.567 34.1649 23.7764 34.9958 23.9938 35.8069C24.1169 35.1767 24.2527 34.5493 24.4403 33.9358C24.5261 33.6488 24.6218 33.3659 24.7313 33.0884C24.8659 32.7545 25.0203 32.4286 25.1976 32.1142L25.1995 32.115ZM29.7965 37.3261C29.6079 37.4407 29.4229 37.5636 29.2493 37.6981C28.4917 38.2839 27.9267 39.0759 27.3305 39.8255C26.8506 40.4291 26.3261 41.0238 25.6853 41.4454C25.8799 42.0338 26.0773 42.6095 26.2732 43.1662C26.3076 42.8815 26.3574 42.5984 26.4392 42.3328C26.5475 41.9561 26.7141 41.6052 26.9823 41.316C27.291 40.9833 27.7054 40.7645 28.0357 40.4521C28.5576 39.955 28.8265 39.2595 29.1285 38.6072C29.3303 38.1694 29.5549 37.7432 29.7977 37.3289L29.7965 37.3261ZM21.7435 13.578C21.7435 13.578 21.7435 13.578 21.7427 13.58C21.7443 13.576 21.7498 13.5737 21.7534 13.5705C21.7498 13.5737 21.7471 13.5748 21.7435 13.578Z" fill="url(#paint4_linear_1303_24186)"/>
</g>
<path d="M126.104 31.7974C126.104 31.7974 126.104 31.7974 126.103 31.7979C126.103 31.7979 126.102 31.7952 126.103 31.7947L126.104 31.7974Z" fill="#D8EEFF"/>
<path d="M124.634 30.6971C126.563 29.7678 128.119 28.082 128.89 26.0854C129.035 27.0261 128.731 27.9985 128.206 28.7934C127.681 29.5884 126.951 30.2272 126.184 30.7914C123.86 32.5022 121.159 33.6092 118.475 34.6773C119.123 33.6123 120.056 32.724 121.153 32.1301C122.257 31.5338 123.501 31.2413 124.632 30.6959L124.634 30.6971Z" fill="#D8EEFF"/>
<path d="M119.586 22.7103C119.557 23.1514 119.522 23.593 119.483 24.0314C119.261 23.4822 118.952 22.9659 118.57 22.5136C118.091 21.9464 117.508 21.4808 116.929 21.0184C115.857 20.1644 114.786 19.3096 113.663 18.5242C111.745 17.1776 109.688 16.0359 107.64 14.8978C109.238 17.1131 111.302 18.9914 113.657 20.376C114.774 21.0328 115.959 21.5815 117.024 22.3239C118.017 23.0167 118.923 23.9127 119.385 25.0262C119.293 25.8971 119.181 26.7646 119.054 27.6241C118.844 25.9794 117.841 24.5117 116.592 23.4141C115.309 22.287 113.769 21.4976 112.254 20.7073C110.738 19.917 109.209 19.1026 107.958 17.937C108.595 19.5845 109.973 20.8388 111.452 21.8068C112.931 22.7748 114.547 23.5197 116 24.521C117.245 25.3812 118.393 26.4803 119.023 27.8414C118.848 29.0029 118.643 30.1534 118.417 31.285C117.941 29.2261 117.338 27.0757 115.748 25.7068C114.375 24.5218 112.358 24.1336 110.64 24.7225C114.076 26.135 116.84 29.1 118.007 32.6263L118.24 32.1443C118.148 32.5765 118.054 33.0048 117.956 33.4299C116.183 31.1058 114.4 28.779 112.344 26.7026C111.124 25.4716 109.811 24.3335 108.42 23.2999C109.607 25.7201 111.211 27.9331 113.126 29.828C112.445 29.6039 111.711 29.539 111.006 29.6513C112.96 30.3518 114.578 31.9369 115.312 33.8781C115.719 34.9498 116.336 35.9391 117.114 36.7808C116.964 37.3327 116.811 37.8766 116.654 38.4107C115.579 36.0052 114.284 33.6585 112.419 31.8011C110.497 29.8884 107.897 28.5318 105.186 28.577C107.718 29.3183 109.932 30.9133 111.771 32.8041C113.572 34.6553 115.046 36.7919 116.505 38.9234C116.395 39.2939 116.283 39.6605 116.171 40.0204C115.614 38.7062 114.832 37.4847 113.869 36.4303C112.07 34.4568 109.704 33.1114 107.38 31.7972C108.177 32.7714 108.981 33.7499 109.953 34.5499C110.818 35.26 111.8 35.8152 112.701 36.4785C114.057 37.4777 115.226 38.7294 116.131 40.1491C115.974 40.6535 115.815 41.1492 115.655 41.6342C115.053 40.779 114.451 39.9258 113.849 39.0705C113.255 38.2283 112.655 37.377 111.881 36.6944C111.247 36.1367 110.509 35.7016 109.769 35.2739C109.493 34.9467 109.202 34.6298 108.899 34.3272L109.075 34.8719C108.18 34.3438 107.33 33.7745 106.705 32.9537C107.047 34.1941 107.832 35.3108 108.885 36.0485C109.113 36.2093 109.352 36.3518 109.596 36.4853C109.765 37.0054 109.934 37.5228 110.102 38.0429C110.315 38.6967 110.532 39.3583 110.908 39.9325C111.454 40.7621 112.29 41.3438 113.062 41.9671C113.783 42.5471 114.49 43.2177 114.811 44.0761C112.647 50.1276 110.584 54.1266 110.584 54.1266L111.389 54.9255C113.174 51.0523 114.614 47.4007 115.764 43.9742C115.837 44.0069 115.929 44.0066 116.01 44.0036C116.815 43.9596 117.617 43.9163 118.422 43.8722C118.881 43.848 119.349 43.8198 119.774 43.6486C120.201 43.4766 120.583 43.1298 120.674 42.6794C120.067 43.2412 119.154 43.3014 118.33 43.2387C117.554 43.1791 116.758 43.0431 116.009 43.2322C116.176 42.7219 116.337 42.2159 116.491 41.7151C117.328 41.8715 118.165 42.0259 119.002 42.1823C119.613 42.2965 120.244 42.4096 120.849 42.2758C121.381 42.1601 121.86 41.8593 122.26 41.4911C122.662 41.1249 122.996 40.6893 123.328 40.2592C121.985 40.4147 120.779 41.1375 119.472 41.4852C118.511 41.7393 117.499 41.7867 116.519 41.6236C116.67 41.1283 116.817 40.6374 116.957 40.1536C118.496 40.4498 120.124 40.7215 121.583 40.1586C122.435 39.8288 123.177 39.2196 123.665 38.4465C123.937 38.0154 124.129 37.5338 124.233 37.0347C124.586 37.0393 124.94 37.0391 125.292 37.0121C126.202 36.944 127.155 36.6653 127.736 35.9648C126.063 36.584 124.217 35.1486 122.477 35.5445C121.549 35.7554 120.82 36.4489 120.071 37.0356C119.348 37.6004 118.457 38.1068 117.564 37.9498C117.679 37.5155 117.787 37.0836 117.891 36.6581C118.353 36.7565 118.858 36.629 119.289 36.4115C119.797 36.1561 120.24 35.7847 120.733 35.5033C121.525 35.051 122.423 34.8357 123.283 34.5352C123.937 34.306 124.586 34.019 125.115 33.5694C125.641 33.1206 126.042 32.4925 126.097 31.802C124.663 32.9337 122.97 33.5704 121.331 34.3758C120.156 34.9502 119.054 35.6565 117.962 36.3723C118.093 35.8256 118.218 35.2861 118.334 34.7545L118.449 34.7198C118.457 34.7071 118.465 34.6925 118.474 34.6798C118.429 34.6981 118.385 34.7156 118.34 34.7339C118.455 34.2051 118.565 33.6854 118.665 33.1717C120.156 32.1229 121.759 31.24 123.273 30.2209C124.947 29.0961 126.542 27.7662 127.57 26.0312C128.133 25.0807 128.519 23.9123 128.129 22.8773C126.788 25.345 124.966 27.5493 122.795 29.3298C121.359 30.5081 119.737 31.5406 118.686 33.0624C118.882 32.067 119.05 31.1009 119.198 30.1618C119.685 29.2396 120.548 28.5608 121.442 28.0145C122.385 27.4368 123.4 26.9633 124.261 26.2671C125.733 25.0764 126.67 23.2471 126.777 21.3575C124.846 24.0768 121.668 27.2528 119.281 29.6228C119.382 28.9484 119.469 28.2884 119.544 27.6426C122.137 25.8025 123.724 22.7973 126.246 20.8435C126.946 20.3016 127.721 19.8375 128.308 19.1737C128.895 18.5099 129.275 17.5714 128.991 16.7303C128.307 17.9616 127.224 18.9219 126.099 19.7679C124.974 20.6166 123.781 21.3845 122.766 22.3588C121.614 23.4664 120.376 25.0057 119.661 26.571C119.772 25.4904 119.85 24.4529 119.901 23.463C122.803 22.2012 125.055 19.8375 126.033 17.0108C126.086 16.8584 126.135 16.7008 126.178 16.5436C127.147 15.8017 127.99 14.8184 128.221 13.625C127.658 14.199 126.994 14.6434 126.297 15.044C126.194 14.4307 125.851 13.8181 125.275 13.4715C125.251 14.2458 125.151 15.0099 124.981 15.758C124.249 16.1473 123.521 16.5464 122.867 17.0489C121.455 18.1327 120.421 19.698 119.971 21.4184C119.987 20.4631 119.977 19.5552 119.949 18.6984C121.385 17.4972 122.601 16.0124 123.378 14.3097C124.107 12.7112 124.434 10.9646 124.758 9.23776C122.994 11.8644 120.537 15.3308 119.942 18.4761C119.899 17.3267 119.819 16.2679 119.719 15.3022C121.133 14.4059 122.074 12.8646 122.422 11.2267C122.774 9.57101 122.56 7.83139 122.027 6.22476C122.086 8.36948 121.593 10.5271 120.609 12.433C120.156 13.3092 119.585 14.2218 119.719 15.1989L119.71 15.2231C119.657 14.7323 119.599 14.2641 119.538 13.8204C119.545 13.8267 119.553 13.8302 119.56 13.8365C119.553 13.8302 119.545 13.8219 119.536 13.8164C119.481 13.4182 119.42 13.0386 119.36 12.6792C120.206 11.3873 120.603 9.84702 120.828 8.31589C120.944 7.52519 121.019 6.72749 121.228 5.95672C121.436 5.18595 121.789 4.4326 122.377 3.89026C121.239 4.31461 120.322 5.29297 119.974 6.45772C119.386 8.41943 120.112 10.7451 119.356 12.6349C119.104 11.1723 118.822 10.0389 118.589 9.24598C118.847 9.21324 119.179 8.85672 119.266 8.61715C119.356 8.37204 119.356 8.10542 119.38 7.84545C119.425 7.36548 119.554 6.8932 119.555 6.41058C119.558 5.80295 119.352 5.1947 118.981 4.71268C118.842 5.6229 118.797 6.5483 118.845 7.46871C118.874 8.04935 118.844 8.65864 118.568 9.16968C118.513 8.98272 118.46 8.81592 118.412 8.66968L118.417 8.65384C118.536 8.50479 118.526 8.2908 118.467 8.11017C118.408 7.92955 118.305 7.76644 118.252 7.58343C118.18 7.34153 118.2 7.08315 118.142 6.83765C118.054 6.4597 117.792 6.14037 117.481 5.90978C117.169 5.67722 116.81 5.52114 116.454 5.36821C116.69 5.61562 116.926 5.86499 117.128 6.13938C117.331 6.41377 117.5 6.7199 117.587 7.04998C117.658 7.31761 117.672 7.59685 117.76 7.86008C117.864 8.17627 118.077 8.4534 118.35 8.64176C118.439 8.9576 118.523 9.27503 118.603 9.59405C118.103 9.16855 117.734 8.67902 117.436 8.08722C117.164 7.55114 116.99 6.96455 116.67 6.4551C116.168 5.66053 115.308 5.09991 114.378 4.96473C114.769 5.15199 115.075 5.47871 115.321 5.83408C115.566 6.19025 115.757 6.57939 115.977 6.95263C116.649 8.09645 117.528 9.02372 118.639 9.74032C118.825 10.5017 118.984 11.2687 119.118 12.0441C119.07 11.9762 119.024 11.9075 118.975 11.8424C119.013 11.9257 119.053 12.0083 119.089 12.0925L119.131 12.1169C119.219 12.6305 119.296 13.1462 119.363 13.6658C118.296 12.7339 117.382 11.6643 116.668 10.5075C116.279 9.87878 115.933 9.20759 115.339 8.7143C114.772 8.24428 114.04 7.98832 113.322 7.76792C111.599 7.2381 109.839 6.84288 108.066 6.58812C109.41 7.12371 110.756 7.66047 112.1 8.19606C112.834 8.48841 113.575 8.7843 114.217 9.23078C114.995 9.77144 115.58 10.4982 116.212 11.1761C117.152 12.1867 118.21 12.92 119.37 13.7065C119.497 14.6935 119.583 15.6878 119.638 16.6853C118.751 14.73 117.783 12.897 116.078 11.5792C114.95 10.7063 113.572 10.2053 112.17 9.93646C110.771 9.66685 109.337 9.61531 107.912 9.5673C109.621 10.5137 111.766 10.3703 113.489 11.2882C114.507 11.831 115.301 12.7055 116.16 13.4754C117.426 14.6097 118.825 15.3065 119.637 16.734C119.693 17.7659 119.71 18.8015 119.699 19.8376L119.641 19.661C119.361 18.6348 119.077 17.6007 118.623 16.6398C118.168 15.677 117.525 14.7811 116.648 14.179C115.74 13.5552 114.643 13.2852 113.59 12.9585C111.711 12.3769 109.898 11.5826 108.195 10.5994C109.476 11.8172 110.922 12.858 112.485 13.6866C113.546 14.249 114.662 14.7156 115.648 15.3973C117.325 16.5543 118.532 18.2544 119.696 19.9282C119.685 20.7159 119.655 21.5067 119.607 22.2933C118.857 20.457 117.591 17.4464 116.181 16.5747C114.612 15.6062 112.875 14.9558 111.177 14.2415C109.479 13.5273 107.785 12.7264 106.395 11.5181C107.429 13.2234 109.091 14.4508 110.815 15.453C112.54 16.4551 114.37 17.2794 116.005 18.4234C117.556 19.5071 118.951 20.9405 119.583 22.7139L119.586 22.7103ZM119.917 23.2387C119.945 22.6531 119.964 22.085 119.975 21.5316C120.749 20.4155 121.722 19.4398 122.836 18.6646C123.328 18.3219 123.846 18.0187 124.365 17.7155C123.461 19.9011 121.926 21.8361 119.917 23.2387ZM116.995 40.0487C117.17 39.4386 117.337 38.8385 117.495 38.2443C119.23 38.2293 120.841 37.2744 122.57 37.0756C122.906 37.0367 123.242 37.0275 123.58 37.027C122.871 37.9007 121.899 38.5612 120.818 38.8774C120.089 39.091 119.323 39.1516 118.584 39.328C118.016 39.4629 117.443 39.6843 116.998 40.0499L116.995 40.0487ZM115.957 43.4144C115.957 43.4144 115.956 43.4124 115.957 43.4096C115.957 43.4096 115.958 43.4116 115.957 43.4144ZM115.65 41.6568C115.389 42.4463 115.128 43.2109 114.865 43.9438C114.81 43.0495 114.721 42.0818 114.114 41.4259C113.806 41.0933 113.391 40.8744 113.061 40.562C112.539 40.065 112.27 39.3695 111.968 38.7172C111.754 38.2545 111.517 37.8034 111.258 37.3658C111.455 37.4839 111.646 37.6112 111.83 37.7531C112.588 38.3389 113.153 39.1309 113.749 39.8806C114.293 40.5639 114.892 41.2363 115.65 41.6568ZM117.937 33.5182C117.705 34.526 117.457 35.5124 117.198 36.478C116.994 35.3681 116.777 34.2523 116.361 33.2048C116.216 32.8452 116.049 32.4923 115.853 32.1554C116.524 32.6454 117.22 33.102 117.938 33.5202L117.937 33.5182Z" fill="#D8EEFF"/>
<path d="M113.009 6.72013C113.817 6.51859 114.688 6.73699 115.4 7.16905C116.111 7.6011 116.683 8.22737 117.19 8.88664C117.893 9.79975 118.494 10.7934 118.977 11.8389C118.361 10.994 117.637 10.2914 116.936 9.49415C115.861 8.26912 114.594 7.09169 113.008 6.71815L113.009 6.72013Z" fill="#D8EEFF"/>
<g style="mix-blend-mode:multiply">
<path d="M126.089 31.7412C126.089 31.7412 126.089 31.7412 126.087 31.7417C126.087 31.7417 126.086 31.7391 126.088 31.7385L126.089 31.7412Z" fill="url(#paint5_linear_1303_24186)"/>
<path d="M118.962 11.7828C118.346 10.9379 117.621 10.2353 116.921 9.43813C115.846 8.2131 114.579 7.03567 112.993 6.66213C113.031 6.65373 113.069 6.64532 113.105 6.6377C113.061 6.62556 113.018 6.61539 112.975 6.60522C113.782 6.40368 114.654 6.62208 115.365 7.05413C116.077 7.48619 116.649 8.11245 117.155 8.77173C117.859 9.68483 118.459 10.6785 118.943 11.724C118.933 11.7117 118.924 11.6995 118.914 11.6872C118.927 11.7189 118.944 11.7508 118.959 11.7817L118.962 11.7828Z" fill="url(#paint6_linear_1303_24186)"/>
<path d="M126.072 31.6836C126.072 31.6836 126.072 31.6836 126.07 31.6841C126.07 31.6841 126.069 31.6815 126.071 31.6809L126.072 31.6836Z" fill="url(#paint7_linear_1303_24186)"/>
<path d="M118.445 34.5622C119.093 33.4971 120.026 32.6089 121.123 32.0149C122.226 31.4186 123.471 31.1261 124.601 30.5807C126.53 29.6514 128.086 27.9656 128.857 25.969C128.86 25.9951 128.863 26.0192 128.867 26.0453C128.869 26.0398 128.871 26.0323 128.875 26.0259C129.02 26.9666 128.716 27.939 128.191 28.734C127.666 29.5289 126.936 30.1678 126.169 30.732C123.845 32.4428 121.145 33.5497 118.461 34.6179C118.479 34.5898 118.498 34.5616 118.513 34.5323C118.49 34.5419 118.466 34.5514 118.442 34.561L118.445 34.5622Z" fill="url(#paint8_linear_1303_24186)"/>
<path d="M110.556 54.0119L110.587 54.043C110.578 54.0605 110.572 54.0696 110.572 54.0696L111.376 54.8685C113.145 51.0341 114.573 47.415 115.718 44.0158C115.971 44.0907 116.532 44.2067 117.776 44.3509C120.051 44.6166 120.837 42.3545 120.837 42.3545C120.774 42.4508 120.705 42.536 120.631 42.6141C120.636 42.5963 120.64 42.5785 120.644 42.5607C120.037 43.1225 119.124 43.1827 118.299 43.12C117.537 43.0623 116.753 42.9303 116.017 43.1051C116.176 42.6162 116.33 42.1316 116.479 41.6533C117.316 41.8097 118.153 41.9641 118.99 42.1205C119.601 42.2347 120.232 42.3478 120.837 42.214C121.37 42.0983 121.848 41.7975 122.248 41.4294C122.65 41.0632 122.985 40.6295 123.316 40.1974C123.294 40.1995 123.27 40.2043 123.248 40.2063C123.264 40.1837 123.281 40.1631 123.3 40.1397C121.957 40.2952 120.75 41.018 119.444 41.3657C118.493 41.6178 117.492 41.6652 116.522 41.5096C116.67 41.0321 116.81 40.5598 116.946 40.0918C118.484 40.388 120.112 40.6597 121.571 40.0969C122.424 39.767 123.166 39.1578 123.653 38.3847C123.925 37.9536 124.117 37.472 124.221 36.9729C124.574 36.9775 124.928 36.9774 125.28 36.9503C126.19 36.8822 127.143 36.6035 127.724 35.903C127.693 35.9157 127.66 35.9245 127.627 35.9353C127.654 35.9059 127.682 35.8766 127.706 35.8461C126.033 36.4653 124.187 35.0299 122.447 35.4258C121.519 35.6368 120.791 36.3322 120.041 36.9169C119.327 37.4758 118.447 37.9754 117.563 37.8353C117.59 37.7352 117.616 37.635 117.641 37.5329C117.651 37.4898 117.664 37.4458 117.675 37.4046C117.7 37.3073 117.725 37.2099 117.748 37.1133C117.79 36.9399 117.834 36.7685 117.877 36.5971C118.34 36.6956 118.844 36.568 119.273 36.3513C119.781 36.0959 120.224 35.7245 120.717 35.4431C121.509 34.9908 122.407 34.7756 123.267 34.475C123.921 34.2458 124.57 33.9588 125.099 33.5092C125.625 33.0604 126.027 32.4323 126.081 31.7418C126.072 31.7478 126.064 31.7557 126.057 31.7609C126.06 31.7344 126.064 31.7098 126.065 31.6841C124.631 32.8158 122.937 33.4525 121.298 34.2579C120.138 34.8267 119.048 35.5235 117.966 36.2306C118.092 35.7112 118.21 35.1998 118.322 34.6927L118.433 34.6596C118.442 34.6469 118.45 34.6323 118.458 34.6196C118.415 34.6371 118.371 34.6546 118.328 34.6722C118.331 34.6571 118.334 34.6421 118.337 34.627L118.417 34.6039C118.426 34.5912 118.434 34.5765 118.443 34.5639C118.409 34.5774 118.377 34.5901 118.344 34.6037C118.455 34.0994 118.56 33.6003 118.658 33.1083C120.146 32.0604 121.747 31.1783 123.26 30.1619C124.934 29.0371 126.529 27.7072 127.557 25.9722C128.094 25.0665 128.467 23.963 128.164 22.9665C128.146 22.8981 128.123 22.8293 128.098 22.7614C126.757 25.2291 124.935 27.4334 122.763 29.2138C121.348 30.3747 119.753 31.3941 118.699 32.8803C118.886 31.9205 119.051 30.9857 119.193 30.0787C119.683 29.1691 120.538 28.4963 121.423 27.9531C122.367 27.3754 123.382 26.9019 124.243 26.2058C125.715 25.0151 126.652 23.1857 126.758 21.2961C126.751 21.306 126.742 21.3187 126.735 21.3286C126.736 21.2982 126.738 21.2697 126.74 21.2392C124.819 23.9431 121.668 27.0964 119.287 29.4621C119.381 28.8178 119.467 28.1882 119.54 27.5709C122.124 25.73 123.711 22.7336 126.227 20.7821C126.928 20.2403 127.703 19.7761 128.29 19.1123C128.867 18.4593 129.244 17.5377 128.984 16.7101C128.976 16.6769 128.966 16.6464 128.955 16.614C128.271 17.8453 127.188 18.8055 126.063 19.6516C124.938 20.5003 123.745 21.2682 122.73 22.2425C121.603 23.3262 120.396 24.8232 119.674 26.3545C119.777 25.3277 119.853 24.3417 119.903 23.3957C122.796 22.1331 125.037 19.7734 126.013 16.9522C126.067 16.7998 126.116 16.6422 126.158 16.485C126.853 15.9523 127.483 15.2939 127.87 14.5223C128.044 14.1951 128.175 13.8482 128.247 13.4793C128.224 13.5023 128.201 13.5253 128.176 13.5491C128.18 13.536 128.182 13.5238 128.185 13.5087C127.623 14.0799 126.962 14.5255 126.267 14.9253C126.25 14.8447 126.232 14.7648 126.209 14.6846C126.201 14.6553 126.192 14.6269 126.182 14.5964C126.18 14.5905 126.177 14.5826 126.174 14.5767C126.164 14.5462 126.154 14.5158 126.142 14.4862C126.139 14.4783 126.136 14.4704 126.132 14.4605C126.121 14.4328 126.11 14.4052 126.098 14.3755C126.094 14.3656 126.09 14.3558 126.086 14.3459C126.075 14.3182 126.062 14.2933 126.05 14.2684C126.045 14.2566 126.04 14.2447 126.034 14.2337C126.021 14.2088 126.009 14.1839 125.996 14.1618C125.99 14.1479 125.981 14.1377 125.974 14.1247C125.96 14.1025 125.949 14.0796 125.935 14.0575C125.928 14.0445 125.917 14.0303 125.91 14.0172C125.897 13.9971 125.883 13.975 125.869 13.9556C125.858 13.9414 125.848 13.9272 125.838 13.913C125.823 13.8936 125.811 13.8755 125.797 13.8561C125.786 13.8419 125.773 13.8265 125.761 13.8131C125.747 13.7957 125.733 13.7784 125.717 13.7618C125.704 13.7464 125.689 13.7318 125.676 13.7164C125.661 13.7018 125.647 13.6844 125.632 13.6699C125.617 13.6553 125.601 13.6387 125.584 13.6249C125.57 13.6123 125.557 13.5969 125.54 13.585C125.522 13.5693 125.505 13.5535 125.485 13.5385C125.471 13.5279 125.457 13.5152 125.444 13.5046C125.423 13.4876 125.4 13.4715 125.378 13.4553C125.365 13.4467 125.354 13.4372 125.342 13.4285C125.306 13.4037 125.27 13.3816 125.233 13.3596C125.23 13.4712 125.224 13.5815 125.218 13.6919C125.216 13.7319 125.213 13.7699 125.211 13.8098C125.206 13.8783 125.2 13.9495 125.196 14.0179C125.191 14.0682 125.188 14.1177 125.182 14.1659C125.176 14.2209 125.17 14.2787 125.164 14.3337C125.158 14.3915 125.151 14.4493 125.144 14.5051C125.14 14.5296 125.138 14.5533 125.134 14.5779C125.112 14.7453 125.085 14.9123 125.056 15.0801C125.056 15.0801 125.056 15.0848 125.055 15.0876C125.041 15.1715 125.024 15.2562 125.006 15.3417C125.003 15.3567 125 15.3718 124.996 15.3868C124.979 15.4743 124.96 15.5598 124.941 15.6481C124.209 16.0373 123.481 16.4364 122.827 16.939C121.459 17.989 120.447 19.4921 119.974 21.1505C119.987 20.2656 119.98 19.421 119.954 18.6208C121.377 17.4223 122.582 15.9491 123.354 14.2575C124.083 12.6589 124.41 10.9123 124.734 9.18551C124.721 9.20453 124.708 9.22355 124.695 9.24257C124.703 9.20497 124.71 9.16539 124.715 9.12859C122.986 11.7045 120.59 15.0889 119.936 18.1845C119.893 17.1201 119.822 16.1337 119.728 15.2277C121.123 14.3299 122.049 12.7989 122.395 11.1733C122.725 9.61614 122.556 7.98242 122.091 6.45868C122.056 6.34405 122.022 6.22943 121.983 6.11639C122.041 8.26111 121.549 10.4188 120.565 12.3246C120.184 13.0614 119.718 13.8257 119.661 14.6297C119.575 13.8858 119.475 13.2002 119.369 12.5723C120.192 11.2919 120.581 9.773 120.802 8.26443C120.918 7.47374 120.993 6.67603 121.202 5.90526C121.41 5.13449 121.763 4.38114 122.352 3.84077C122.308 3.8583 122.267 3.87502 122.223 3.89254C122.259 3.85526 122.297 3.81917 122.334 3.78584C121.196 4.21019 120.279 5.18856 119.931 6.35331C119.353 8.28136 120.045 10.5632 119.349 12.4358C119.11 11.0507 118.842 9.96438 118.618 9.18646C118.865 9.11657 119.16 8.79338 119.241 8.56767C119.33 8.32257 119.331 8.05594 119.355 7.79597C119.4 7.31601 119.529 6.84373 119.53 6.36111C119.53 6.08301 119.487 5.80621 119.408 5.5398C119.311 5.20223 119.152 4.88262 118.939 4.60549C118.801 5.51571 118.756 6.44111 118.803 7.36152C118.831 7.91526 118.805 8.49526 118.562 8.99277C118.514 8.83308 118.469 8.68605 118.428 8.55561C118.51 8.41219 118.498 8.22392 118.444 8.06187C118.444 8.0599 118.442 8.05595 118.44 8.052C118.434 8.03619 118.432 8.01879 118.426 8.00496C118.37 7.83698 118.279 7.68058 118.223 7.51261C118.161 7.27819 118.174 7.02695 118.118 6.79015C118.111 6.75614 118.099 6.72176 118.089 6.68935C117.992 6.33081 117.739 6.02649 117.44 5.80457C117.128 5.57201 116.769 5.41593 116.414 5.263C116.441 5.29101 116.466 5.31982 116.494 5.34783C116.471 5.3384 116.452 5.33015 116.43 5.32071C116.665 5.56811 116.901 5.81749 117.104 6.09188C117.281 6.33271 117.433 6.59537 117.526 6.87717C117.533 6.8997 117.539 6.92224 117.546 6.94477C117.613 7.19579 117.63 7.45999 117.705 7.7098C117.714 7.74301 117.724 7.77819 117.734 7.8106C117.838 8.12481 118.051 8.40194 118.324 8.5903C118.407 8.88756 118.487 9.18642 118.562 9.48686C118.062 9.06136 117.692 8.57182 117.394 7.98003C117.123 7.44395 116.948 6.85736 116.628 6.34791C116.126 5.55333 115.266 4.99272 114.337 4.85754C114.387 4.88075 114.436 4.90949 114.484 4.93824C114.442 4.93005 114.397 4.92266 114.353 4.91526C114.743 5.10251 115.05 5.42924 115.296 5.7846C115.543 6.13997 115.732 6.52991 115.952 6.90315C116.623 8.04499 117.501 8.97029 118.611 9.68769C118.791 10.4305 118.946 11.1809 119.076 11.9369C119.028 11.869 118.982 11.8003 118.933 11.7352C118.946 11.7688 118.963 11.7988 118.979 11.8316C118.969 11.8193 118.961 11.8043 118.951 11.7921C118.989 11.8755 119.03 11.958 119.066 12.0422L119.1 12.0631C119.105 12.0998 119.111 12.1366 119.118 12.1726C119.189 12.6265 119.249 13.0825 119.303 13.5408C118.247 12.6136 117.337 11.5492 116.626 10.4003C116.237 9.77158 115.891 9.10041 115.297 8.60712C114.731 8.13709 113.998 7.88113 113.28 7.66074C111.558 7.13091 109.797 6.73569 108.025 6.48093C108.099 6.5108 108.173 6.54066 108.247 6.57053C108.179 6.56122 108.11 6.54993 108.041 6.53864C109.385 7.07423 110.731 7.61099 112.075 8.14658C112.808 8.43893 113.55 8.73482 114.192 9.1813C114.97 9.72196 115.555 10.4487 116.186 11.1266C117.118 12.1269 118.165 12.8556 119.311 13.6361C119.416 14.5631 119.488 15.4989 119.529 16.4399C118.661 14.5367 117.698 12.7615 116.034 11.4775C114.906 10.6047 113.528 10.1036 112.126 9.83481C110.727 9.56521 109.293 9.51367 107.868 9.46566C107.907 9.48692 107.944 9.5062 107.982 9.52549C107.949 9.52478 107.917 9.52407 107.884 9.52139C109.593 10.4678 111.738 10.3244 113.461 11.2423C114.479 11.7851 115.272 12.6596 116.132 13.4295C117.356 14.5299 118.708 15.2162 119.53 16.5546C119.569 17.5079 119.579 18.4663 119.562 19.4265C119.472 19.1 119.381 18.7734 119.285 18.4493C119.09 17.7951 118.87 17.1513 118.578 16.5362C118.124 15.5734 117.48 14.6775 116.603 14.0754C115.695 13.4516 114.598 13.1816 113.546 12.8549C111.667 12.2733 109.854 11.479 108.15 10.4958C108.194 10.5356 108.236 10.5763 108.279 10.6161C108.241 10.5949 108.204 10.5728 108.166 10.5515C109.447 11.7693 110.893 12.8102 112.456 13.6387C113.516 14.2011 114.632 14.6677 115.619 15.3494C117.242 16.4686 118.425 18.098 119.553 19.7173C119.535 20.4527 119.5 21.1878 119.452 21.9217C118.691 20.074 117.479 17.301 116.133 16.4699C114.564 15.5014 112.827 14.851 111.129 14.1367C109.431 13.4225 107.737 12.6216 106.347 11.4133C106.366 11.4425 106.385 11.4737 106.404 11.5029C106.391 11.4923 106.377 11.4816 106.366 11.4702C107.4 13.1755 109.061 14.403 110.786 15.4051C112.511 16.4073 114.341 17.2315 115.976 18.3755C117.428 19.393 118.746 20.7131 119.425 22.3344C119.392 22.7772 119.356 23.2168 119.313 23.6568C119.105 23.2099 118.839 22.7889 118.52 22.4096C118.041 21.8424 117.459 21.3768 116.88 20.9143C115.807 20.0604 114.737 19.2056 113.614 18.4202C111.695 17.0736 109.639 15.9319 107.591 14.7938C107.61 14.8202 107.63 14.8467 107.651 14.8751C107.636 14.8672 107.622 14.8594 107.607 14.8515C109.205 17.0669 111.269 18.9451 113.623 20.3297C114.74 20.9865 115.926 21.5352 116.99 22.2776C117.891 22.9046 118.716 23.6975 119.208 24.6682C119.121 25.4382 119.02 26.2071 118.907 26.9693C118.882 26.8689 118.853 26.7681 118.823 26.6701C118.433 25.3712 117.571 24.2141 116.544 23.3121C115.26 22.185 113.72 21.3955 112.205 20.6053C110.69 19.815 109.16 19.0006 107.909 17.835C107.918 17.8567 107.927 17.8785 107.936 17.9002C107.934 17.8962 107.928 17.8939 107.926 17.8927C108.562 19.5402 109.941 20.7945 111.42 21.7625C112.898 22.7305 114.515 23.4754 115.968 24.4767C117.114 25.2687 118.177 26.2644 118.83 27.4782C118.66 28.5618 118.467 29.634 118.253 30.692C118.155 30.2903 118.049 29.8899 117.93 29.4922C117.488 28.0076 116.854 26.6002 115.699 25.6048C114.326 24.4198 112.309 24.0316 110.592 24.6204C110.619 24.6322 110.647 24.644 110.675 24.6558C110.653 24.6646 110.63 24.6694 110.608 24.6781C113.973 26.062 116.692 28.9326 117.898 32.3627C117.842 32.6077 117.787 32.8527 117.73 33.0985C116.115 30.9821 114.481 28.8681 112.636 26.9521C112.498 26.8081 112.36 26.666 112.221 26.5248C111.001 25.2938 109.688 24.1557 108.297 23.1222C108.818 24.1869 109.421 25.2094 110.095 26.1851C110.955 27.4483 111.937 28.6305 113.021 29.7119C112.356 29.5044 111.645 29.4442 110.958 29.5512C110.996 29.5658 111.034 29.5803 111.074 29.594C111.041 29.5981 111.008 29.6021 110.976 29.6082C112.931 30.3086 114.546 31.8946 115.282 33.8349C115.65 34.8051 116.191 35.708 116.869 36.4938C116.733 36.9894 116.593 37.4799 116.452 37.9617C115.408 35.6792 114.149 33.4673 112.375 31.6994C110.453 29.7868 107.853 28.4302 105.143 28.4754C105.205 28.4938 105.268 28.5122 105.329 28.5334C105.272 28.5336 105.216 28.533 105.159 28.5331C107.69 29.2744 109.904 30.8694 111.744 32.7601C113.459 34.5242 114.878 36.5474 116.271 38.5789C116.171 38.9111 116.072 39.2405 115.969 39.5667C115.426 38.3846 114.7 37.29 113.825 36.3287C112.026 34.3552 109.66 33.0098 107.336 31.6955C107.36 31.7251 107.385 31.7539 107.409 31.7836C107.39 31.7725 107.372 31.7615 107.353 31.7532C108.15 32.7274 108.953 33.7059 109.925 34.506C110.791 35.2161 111.772 35.7713 112.674 36.4346C113.929 37.3617 115.025 38.5024 115.9 39.7944C115.744 40.296 115.584 40.7878 115.424 41.27C114.884 40.5048 114.345 39.7368 113.804 38.9716C113.21 38.1295 112.609 37.2782 111.836 36.5955C111.202 36.0378 110.464 35.6027 109.724 35.175C109.475 34.8806 109.215 34.5949 108.946 34.3199C108.728 33.9182 108.593 33.6626 108.593 33.6626C108.593 33.6626 108.703 33.8894 108.891 34.2639C108.879 34.2524 108.867 34.239 108.855 34.2276C108.863 34.2473 108.869 34.2679 108.875 34.2865C108.875 34.2865 108.875 34.2865 108.874 34.2845C108.895 34.3493 108.916 34.4121 108.936 34.4778C108.847 34.2747 108.757 34.0696 108.671 33.8657C108.737 34.1215 108.783 34.3832 108.819 34.6442C108.004 34.1503 107.239 33.6089 106.665 32.8552C106.67 32.8738 106.676 32.8943 106.681 32.9129C107.023 34.1534 107.807 35.268 108.861 36.0077C108.886 36.025 109.564 36.4821 109.59 36.4994C109.639 37.2699 110.024 37.9232 110.382 38.6861C110.877 39.7449 111.606 40.6754 112.532 41.3885C113.551 42.1722 113.947 42.704 114.797 43.5926C112.642 49.62 110.381 53.7837 110.381 53.7837L110.574 53.9723C110.556 54.0071 110.548 54.0265 110.548 54.0265L110.556 54.0119ZM120.433 22.7158C120.267 22.8448 120.097 22.9707 119.924 23.0934C119.95 22.5268 119.969 21.9749 119.98 21.4377C120.749 20.3375 121.716 19.3736 122.817 18.606C123.292 18.2744 123.791 17.9811 124.291 17.6879C124.261 17.7572 124.233 17.8237 124.204 17.893C124.189 17.9243 124.176 17.9548 124.162 17.9881C124.122 18.0728 124.083 18.1576 124.044 18.2423C124.027 18.2764 124.011 18.3085 123.994 18.3426C123.959 18.4143 123.922 18.4868 123.884 18.5592C123.865 18.5969 123.846 18.6345 123.826 18.6702C123.791 18.7371 123.755 18.8021 123.719 18.8671C123.699 18.9027 123.681 18.9376 123.661 18.9732C123.616 19.0509 123.572 19.1285 123.526 19.2042C123.504 19.2407 123.482 19.2771 123.459 19.3163C123.426 19.371 123.391 19.4265 123.358 19.4812C123.326 19.5331 123.292 19.5858 123.257 19.6365C123.223 19.6892 123.188 19.7427 123.152 19.7962C123.125 19.837 123.095 19.8787 123.068 19.9195C123.022 19.9865 122.975 20.0534 122.927 20.1212C122.896 20.1636 122.863 20.2088 122.832 20.2512C122.803 20.2881 122.777 20.3261 122.749 20.363C122.695 20.4351 122.641 20.5053 122.584 20.5763C122.559 20.6096 122.533 20.6429 122.505 20.675C122.466 20.7226 122.428 20.7701 122.388 20.8185C122.368 20.8427 122.348 20.8669 122.325 20.8918C122.256 20.9751 122.185 21.0564 122.113 21.1385C122.094 21.1599 122.075 21.1813 122.056 21.2027C121.967 21.3007 121.877 21.3986 121.787 21.4926C121.783 21.4942 121.78 21.4997 121.777 21.5033C121.727 21.5557 121.677 21.608 121.626 21.6584C121.62 21.6655 121.613 21.6707 121.606 21.6778C121.51 21.7742 121.412 21.8686 121.313 21.9638C121.305 21.9718 121.294 21.9805 121.286 21.9884C121.014 22.2427 120.731 22.4856 120.436 22.717C120.436 22.717 120.436 22.717 120.434 22.7178L120.433 22.7158ZM118.546 39.2125C117.995 39.3449 117.443 39.5537 117.001 39.8994C117.167 39.3203 117.325 38.749 117.475 38.1857C119.21 38.1707 120.821 37.2158 122.551 37.017C122.864 36.9801 123.178 36.971 123.494 36.9697C122.789 37.8142 121.837 38.4553 120.781 38.7639C120.052 38.9775 119.286 39.0381 118.546 39.2145L118.546 39.2125ZM115.857 32.115C116.447 32.5477 117.059 32.9488 117.688 33.3245C117.489 34.1649 117.28 34.9958 117.063 35.8069C116.939 35.1767 116.804 34.5493 116.616 33.9358C116.53 33.6488 116.435 33.3659 116.325 33.0884C116.19 32.7545 116.036 32.4286 115.859 32.1142L115.857 32.115ZM111.26 37.3261C111.448 37.4407 111.634 37.5636 111.807 37.6981C112.565 38.2839 113.13 39.0759 113.726 39.8255C114.206 40.4291 114.73 41.0238 115.371 41.4454C115.177 42.0338 114.979 42.6095 114.783 43.1662C114.749 42.8815 114.699 42.5984 114.617 42.3328C114.509 41.9561 114.342 41.6052 114.074 41.316C113.765 40.9833 113.351 40.7645 113.021 40.4521C112.499 39.955 112.23 39.2595 111.928 38.6072C111.726 38.1694 111.501 37.7432 111.259 37.3289L111.26 37.3261ZM119.313 13.578C119.313 13.578 119.313 13.578 119.314 13.58C119.312 13.576 119.307 13.5737 119.303 13.5705C119.307 13.5737 119.309 13.5748 119.313 13.578Z" fill="url(#paint9_linear_1303_24186)"/>
</g>
<defs>
<linearGradient id="paint0_linear_1303_24186" x1="14.9675" y1="31.7404" x2="14.9689" y2="31.7408" gradientUnits="userSpaceOnUse">
<stop stop-color="#A2AF78" stop-opacity="0"/>
<stop offset="1" stop-color="#7C7E48"/>
</linearGradient>
<linearGradient id="paint1_linear_1303_24186" x1="23.0435" y1="8.58773" x2="27.1273" y2="9.80243" gradientUnits="userSpaceOnUse">
<stop stop-color="#A2AF78" stop-opacity="0"/>
<stop offset="1" stop-color="#7C7E48"/>
</linearGradient>
<linearGradient id="paint2_linear_1303_24186" x1="14.9836" y1="31.6832" x2="14.9849" y2="31.6836" gradientUnits="userSpaceOnUse">
<stop stop-color="#A2AF78" stop-opacity="0"/>
<stop offset="1" stop-color="#7C7E48"/>
</linearGradient>
<linearGradient id="paint3_linear_1303_24186" x1="11.4394" y1="28.5256" x2="23.3517" y2="32.0688" gradientUnits="userSpaceOnUse">
<stop stop-color="#A2AF78" stop-opacity="0"/>
<stop offset="1" stop-color="#7C7E48"/>
</linearGradient>
<linearGradient id="paint4_linear_1303_24186" x1="35.5306" y1="52.5614" x2="16.6396" y2="4.59184" gradientUnits="userSpaceOnUse">
<stop stop-color="#A2AF78" stop-opacity="0"/>
<stop offset="1" stop-color="#7C7E48"/>
</linearGradient>
<linearGradient id="paint5_linear_1303_24186" x1="126.09" y1="31.7404" x2="126.089" y2="31.7408" gradientUnits="userSpaceOnUse">
<stop stop-color="#A2AF78" stop-opacity="0"/>
<stop offset="1" stop-color="#7C7E48"/>
</linearGradient>
<linearGradient id="paint6_linear_1303_24186" x1="118.013" y1="8.58773" x2="113.929" y2="9.80243" gradientUnits="userSpaceOnUse">
<stop stop-color="#A2AF78" stop-opacity="0"/>
<stop offset="1" stop-color="#7C7E48"/>
</linearGradient>
<linearGradient id="paint7_linear_1303_24186" x1="126.073" y1="31.6832" x2="126.071" y2="31.6836" gradientUnits="userSpaceOnUse">
<stop stop-color="#A2AF78" stop-opacity="0"/>
<stop offset="1" stop-color="#7C7E48"/>
</linearGradient>
<linearGradient id="paint8_linear_1303_24186" x1="129.618" y1="28.5256" x2="117.705" y2="32.0688" gradientUnits="userSpaceOnUse">
<stop stop-color="#A2AF78" stop-opacity="0"/>
<stop offset="1" stop-color="#7C7E48"/>
</linearGradient>
<linearGradient id="paint9_linear_1303_24186" x1="105.526" y1="52.5614" x2="124.417" y2="4.59184" gradientUnits="userSpaceOnUse">
<stop stop-color="#A2AF78" stop-opacity="0"/>
<stop offset="1" stop-color="#7C7E48"/>
</linearGradient>
</defs>
</svg>
