<svg width="140" height="59" viewBox="0 0 140 59" fill="none" xmlns="http://www.w3.org/2000/svg">
<path d="M41.6765 33.1497C41.6765 33.079 41.6853 32.9817 41.703 32.8578C41.7207 32.7163 41.7649 32.5925 41.8357 32.4863C42.4195 32.4156 42.8441 32.2563 43.1095 32.0087C43.3749 31.7433 43.5164 31.2745 43.5341 30.6022L43.9321 17.6786C43.9498 17.2187 43.9233 16.8737 43.8525 16.6437C43.7995 16.396 43.6491 16.2368 43.4014 16.166C43.1537 16.0776 42.7557 16.0333 42.2072 16.0333C42.2072 15.9449 42.2161 15.8299 42.2338 15.6884C42.2515 15.5468 42.2691 15.4318 42.2868 15.3434C42.3399 15.1488 42.4018 15.0426 42.4726 15.0249C42.5611 14.9895 42.6141 14.9719 42.6318 14.9719H44.516C44.7282 14.9719 44.9052 15.0072 45.0467 15.078C45.1882 15.1488 45.3032 15.2815 45.3917 15.4761L51.8402 28.8242C51.9286 29.0365 52.0171 29.0365 52.1056 28.8242L58.5541 15.5557C58.7487 15.1665 59.0583 14.9719 59.4829 14.9719H61.8447C62.0216 14.9719 62.11 15.0603 62.11 15.2372C62.11 15.308 62.0923 15.4141 62.057 15.5557C62.0216 15.6795 61.9685 15.7945 61.8977 15.9007C61.2962 15.9891 60.8628 16.1483 60.5974 16.3783C60.332 16.5906 60.2082 17.0064 60.2259 17.6256L60.6505 30.6022C60.6859 31.2745 60.7301 31.7256 60.7832 31.9556C60.8539 32.1679 61.0574 32.2917 61.3935 32.3271C61.5174 32.3448 61.6854 32.3536 61.8977 32.3536C62.1277 32.3536 62.3312 32.3536 62.5081 32.3536C62.5081 32.4421 62.4992 32.5571 62.4815 32.6986C62.4815 32.8402 62.4639 32.9551 62.4285 33.0436C62.3754 33.2205 62.3135 33.3267 62.2427 33.362C62.1719 33.3974 62.1189 33.4151 62.0835 33.4151H57.466C57.2891 33.4151 57.2007 33.3267 57.2007 33.1497C57.2007 33.079 57.2095 32.9817 57.2272 32.8578C57.2449 32.7163 57.2891 32.5925 57.3599 32.4863C57.9437 32.4156 58.3771 32.2563 58.6602 32.0087C58.961 31.7433 59.0936 31.2745 59.0583 30.6022L58.6337 18.4748C58.6337 18.4394 58.6248 18.4217 58.6071 18.4217C58.5894 18.404 58.5718 18.4128 58.5541 18.4482L52.4771 30.7083C52.3709 30.9383 52.1852 31.0533 51.9198 31.0533H51.5217C51.2564 31.0533 51.0706 30.9383 50.9645 30.7083L45.2325 19.0055C45.2148 18.9701 45.1971 18.9613 45.1794 18.979C45.1617 18.979 45.1528 18.9966 45.1528 19.032L44.7282 30.6022C44.7106 31.2745 44.7636 31.7256 44.8875 31.9556C45.029 32.1679 45.2678 32.2917 45.604 32.3271C45.7986 32.3448 46.0109 32.3536 46.2409 32.3536C46.4708 32.3536 46.6743 32.3536 46.8512 32.3536C46.8512 32.4421 46.8424 32.5571 46.8247 32.6986C46.8247 32.8402 46.807 32.9551 46.7716 33.0436C46.7185 33.2205 46.6566 33.3267 46.5858 33.362C46.5151 33.3974 46.462 33.4151 46.4266 33.4151H41.9419C41.7649 33.4151 41.6765 33.3267 41.6765 33.1497Z" fill="white"/>
<path d="M75.685 49.0316C75.685 48.9608 75.6938 48.8635 75.7115 48.7397C75.7292 48.5981 75.7734 48.4743 75.8442 48.3682C76.428 48.2974 76.8526 48.1382 77.118 47.8905C77.4011 47.6251 77.5426 47.1563 77.5426 46.484V33.4278C77.5426 32.9678 77.5072 32.6317 77.4364 32.4194C77.3834 32.2071 77.233 32.0744 76.9853 32.0213C76.7553 31.9506 76.3661 31.9152 75.8177 31.9152C75.8177 31.8267 75.8265 31.7117 75.8442 31.5702C75.8619 31.4287 75.8796 31.3137 75.8973 31.2252C75.9504 31.0306 76.0123 30.9245 76.083 30.9068C76.1715 30.8714 76.2246 30.8537 76.2423 30.8537H78.3122C78.7368 30.8537 79.0552 31.0218 79.2675 31.3579L89.325 46.0594C89.3604 46.1125 89.3958 46.1302 89.4312 46.1125C89.4666 46.0948 89.4843 46.0594 89.4843 46.0064V33.4278C89.4843 32.9678 89.4312 32.6317 89.325 32.4194C89.2189 32.2071 89.0243 32.0744 88.7412 32.0213C88.4582 31.9506 88.0424 31.9152 87.494 31.9152C87.494 31.8267 87.5028 31.7117 87.5205 31.5702C87.5382 31.4287 87.5559 31.3137 87.5736 31.2252C87.6267 31.0306 87.6886 30.9245 87.7594 30.9068C87.8478 30.8714 87.9009 30.8537 87.9186 30.8537H92.2707C92.4476 30.8537 92.536 30.9422 92.536 31.1191C92.536 31.1898 92.5183 31.296 92.483 31.4375C92.4476 31.5613 92.3945 31.6763 92.3237 31.7825C91.7222 31.8709 91.2976 32.0302 91.05 32.2602C90.8023 32.4725 90.6784 32.8882 90.6784 33.5074V49.297H89.9089C89.6435 49.297 89.4312 49.182 89.272 48.952L78.9225 33.8524C78.8871 33.7993 78.8517 33.7816 78.8164 33.7993C78.781 33.817 78.7633 33.8524 78.7633 33.9055L78.7368 46.484C78.7368 47.1563 78.7987 47.6074 78.9225 47.8374C79.0464 48.0497 79.2763 48.1736 79.6125 48.2089C79.8071 48.2266 80.0194 48.2355 80.2494 48.2355C80.4794 48.2355 80.6828 48.2355 80.8597 48.2355C80.8597 48.3239 80.8509 48.4389 80.8332 48.5805C80.8332 48.722 80.8155 48.837 80.7801 48.9254C80.727 49.1024 80.6651 49.2085 80.5943 49.2439C80.5236 49.2793 80.4705 49.297 80.4351 49.297H75.9504C75.7734 49.297 75.685 49.2085 75.685 49.0316Z" fill="white"/>
<path d="M71.9635 35.2039C71.774 35.2039 71.5227 35.0968 71.2096 34.8826C70.8965 34.6684 70.5504 34.3923 70.1713 34.0545C69.7923 34.417 69.3515 34.6931 68.8489 34.8826C68.3462 35.0721 67.8189 35.1669 67.2668 35.1669C66.5582 35.1669 65.9773 35.0391 65.5241 34.7837C65.0709 34.5283 64.7372 34.1946 64.523 33.7826C64.3087 33.3706 64.2016 32.938 64.2016 32.4848C64.2016 32.0728 64.284 31.6814 64.4488 31.3106C64.6218 30.9398 64.8608 30.6102 65.1657 30.3218C65.4788 30.0335 65.8496 29.8151 66.278 29.6668C66.0061 29.296 65.8125 29.0035 65.6971 28.7892C65.5818 28.5668 65.5076 28.3978 65.4747 28.2825C65.4499 28.1589 65.4376 28.06 65.4376 27.9859C65.4376 27.5491 65.5406 27.1948 65.7466 26.9229C65.9608 26.651 66.2286 26.4491 66.5499 26.3173C66.8713 26.1855 67.205 26.1195 67.5511 26.1195C67.9796 26.1195 68.3297 26.2019 68.6017 26.3667C68.8818 26.5233 69.0878 26.7293 69.2196 26.9847C69.3597 27.2319 69.4298 27.4915 69.4298 27.7634C69.4298 28.0271 69.3721 28.2701 69.2567 28.4926C69.1414 28.7151 68.9972 28.8922 68.8241 29.0241C68.6593 29.1559 68.4945 29.2218 68.3297 29.2218C68.305 29.2054 68.2721 29.1806 68.2309 29.1477C68.1897 29.1147 68.1608 29.0735 68.1444 29.0241C68.3668 28.9334 68.5275 28.8016 68.6264 28.6286C68.7253 28.4555 68.7747 28.266 68.7747 28.06C68.7747 27.8211 68.7129 27.5903 68.5893 27.3679C68.4657 27.1372 68.2844 26.9476 68.0455 26.7993C67.8148 26.651 67.5387 26.5768 67.2174 26.5768C66.8219 26.5768 66.517 26.684 66.3028 26.8982C66.0968 27.1124 65.9938 27.3432 65.9938 27.5903C65.9938 27.7963 66.0803 28.0559 66.2533 28.369C66.4263 28.6821 66.7024 29.0859 67.0814 29.5803C67.6088 30.2559 68.1444 30.9069 68.6882 31.5331C69.232 32.1511 69.7594 32.6908 70.2702 33.1522C70.6493 32.5672 70.8388 31.8627 70.8388 31.0387C70.8388 30.8904 70.8305 30.7091 70.8141 30.4949C70.7152 30.4866 70.6163 30.4784 70.5174 30.4702C70.1219 30.4454 69.7964 30.4908 69.541 30.6061L69.4668 30.3095C69.4504 30.2353 69.4957 30.1818 69.6028 30.1488C69.7676 30.1076 69.9695 30.0747 70.2084 30.0499C70.4474 30.0252 70.6451 30.0129 70.8017 30.0129C71.0736 30.0129 71.3167 30.017 71.5309 30.0252C71.7452 30.0335 71.9347 30.0376 72.0995 30.0376C72.3219 30.0376 72.5156 30.0211 72.6804 29.9881C72.8534 29.9552 73.0182 29.8893 73.1748 29.7904C73.2407 29.914 73.2778 30.0335 73.286 30.1488C73.2366 30.3301 73.1418 30.4537 73.0017 30.5196C72.8699 30.5773 72.6845 30.6061 72.4455 30.6061C72.3302 30.6061 72.1983 30.602 72.05 30.5938C71.9017 30.5773 71.741 30.5608 71.568 30.5443C71.5515 31.1541 71.4609 31.7061 71.2961 32.2005C71.1395 32.6867 70.9294 33.1193 70.6657 33.4983C71.0777 33.8444 71.4691 34.1163 71.8399 34.314C72.2107 34.5036 72.5444 34.5901 72.8411 34.5736C72.8411 34.6478 72.8369 34.726 72.8287 34.8084C72.8205 34.8826 72.804 34.9526 72.7793 35.0185C72.7298 35.0597 72.6474 35.0968 72.5321 35.1298C72.4167 35.1545 72.3013 35.1751 72.186 35.1916C72.0789 35.1998 72.0047 35.2039 71.9635 35.2039ZM69.8129 33.7084C69.4256 33.3376 69.0301 32.9339 68.6264 32.4972C68.2226 32.0522 67.8395 31.6155 67.4769 31.187C67.1144 30.7503 66.7971 30.3507 66.5252 29.9881C66.0226 30.2189 65.6353 30.5567 65.3634 31.0016C65.0997 31.4383 64.9679 31.8874 64.9679 32.3488C64.9679 32.7196 65.0544 33.0739 65.2275 33.4118C65.4005 33.7414 65.6765 34.0133 66.0556 34.2275C66.4346 34.4335 66.929 34.5365 67.5387 34.5365C68.0002 34.5365 68.4204 34.4665 68.7994 34.3264C69.1867 34.1781 69.5245 33.9721 69.8129 33.7084Z" fill="white"/>
<path d="M14.1599 31.3506C14.1599 31.3506 14.1599 31.3506 14.1612 31.3511C14.1612 31.3511 14.1623 31.3485 14.161 31.3479L14.1599 31.3506Z" fill="#D8EEFF"/>
<path d="M15.6298 30.2503C13.7007 29.321 12.1454 27.6352 11.3746 25.6386C11.2297 26.5793 11.5336 27.5517 12.0584 28.3466C12.5832 29.1416 13.3133 29.7804 14.0805 30.3446C16.4043 32.0554 19.1048 33.1624 21.7887 34.2306C21.1409 33.1655 20.2081 32.2773 19.1107 31.6833C18.0074 31.087 16.7633 30.7945 15.6326 30.2491L15.6298 30.2503Z" fill="#D8EEFF"/>
<path d="M20.6773 22.2635C20.7062 22.7047 20.7418 23.1462 20.781 23.5846C21.0024 23.0354 21.3115 22.5192 21.6937 22.0668C22.1727 21.4997 22.7555 21.034 23.3347 20.5716C24.407 19.7176 25.4774 18.8628 26.6002 18.0774C28.5188 16.7309 30.5754 15.5892 32.6236 14.451C31.0254 16.6664 28.9614 18.5446 26.6071 19.9292C25.4902 20.586 24.3043 21.1347 23.2402 21.8772C22.2466 22.5699 21.3411 23.4659 20.8784 24.5794C20.9706 25.4503 21.0826 26.3178 21.2093 27.1773C21.4198 25.5326 22.4226 24.0649 23.6712 22.9674C24.9547 21.8402 26.4949 21.0508 28.0101 20.2605C29.5254 19.4702 31.0549 18.6559 32.3057 17.4902C31.6692 19.1377 30.2907 20.392 28.8118 21.36C27.3329 22.328 25.7165 23.0729 24.2632 24.0742C23.0184 24.9344 21.8702 26.0335 21.2411 27.3946C21.416 28.5561 21.6206 29.7066 21.8466 30.8382C22.3229 28.7793 22.9256 26.6289 24.5156 25.2601C25.8891 24.075 27.906 23.6868 29.6233 24.2757C26.1874 25.6882 23.4234 28.6533 22.2568 32.1796L22.0239 31.6975C22.1161 32.1297 22.2099 32.558 22.3073 32.9831C24.0802 30.6591 25.8634 28.3323 27.9201 26.2558C29.1398 25.0248 30.4531 23.8867 31.8436 22.8532C30.6566 25.2734 29.0525 27.4863 27.138 29.3812C27.8186 29.1571 28.5522 29.0923 29.258 29.2045C27.3035 29.905 25.686 31.4901 24.9518 33.4313C24.545 34.503 23.928 35.4923 23.15 36.334C23.2997 36.8859 23.4525 37.4298 23.6093 37.9639C24.6846 35.5585 25.9797 33.2117 27.8447 31.3543C29.7665 29.4416 32.3667 28.085 35.0772 28.1303C32.5458 28.8715 30.3318 30.4665 28.4924 32.3573C26.6919 34.2085 25.2173 36.3451 23.7586 38.4766C23.8688 38.8472 23.9806 39.2138 24.0927 39.5737C24.6501 38.2594 25.4319 37.038 26.3944 35.9835C28.1937 34.01 30.5597 32.6646 32.8833 31.3504C32.0864 32.3246 31.2831 33.3031 30.3106 34.1031C29.4455 34.8133 28.4638 35.3684 27.5624 36.0318C26.2064 37.031 25.0381 38.2826 24.1327 39.7023C24.29 40.2067 24.4485 40.7024 24.609 41.1875C25.211 40.3322 25.8122 39.479 26.4142 38.6237C27.0087 37.7816 27.6091 36.9303 28.3827 36.2476C29.0163 35.6899 29.7545 35.2548 30.4942 34.8271C30.7708 34.4999 31.0616 34.1831 31.365 33.8805L31.1891 34.4251C32.0842 33.897 32.9338 33.3277 33.5587 32.5069C33.2171 33.7474 32.4317 34.864 31.3786 35.6017C31.1507 35.7625 30.9118 35.9051 30.6674 36.0385C30.499 36.5586 30.3295 37.076 30.1612 37.5962C29.9482 38.2499 29.732 38.9115 29.3559 39.4857C28.8101 40.3154 27.9739 40.897 27.2012 41.5204C26.4805 42.1003 25.7737 42.7709 25.453 43.6293C27.6164 49.6809 29.6794 53.6798 29.6794 53.6798L28.875 54.4788C27.0898 50.6055 25.6494 46.954 24.4995 43.5275C24.4266 43.5601 24.3348 43.5599 24.2533 43.5569C23.4488 43.5128 22.6463 43.4695 21.8418 43.4254C21.383 43.4012 20.9143 43.3731 20.4895 43.2018C20.0627 43.0298 19.6811 42.683 19.5894 42.2326C20.1967 42.7944 21.1095 42.8546 21.9341 42.7919C22.7092 42.7323 23.5059 42.5964 24.2542 42.7855C24.0879 42.2751 23.9266 41.7691 23.7725 41.2683C22.9354 41.4247 22.0991 41.5791 21.262 41.7355C20.651 41.8498 20.0197 41.9628 19.4144 41.829C18.8823 41.7133 18.404 41.4125 18.0035 41.0444C17.6021 40.6782 17.2678 40.2425 16.9359 39.8124C18.2789 39.9679 19.4851 40.6907 20.792 41.0384C21.753 41.2926 22.7652 41.34 23.7451 41.1768C23.5933 40.6816 23.4467 40.1906 23.3063 39.7068C21.7675 40.003 20.1397 40.2747 18.6807 39.7119C17.8283 39.382 17.0863 38.7728 16.5986 37.9997C16.3268 37.5686 16.135 37.087 16.0307 36.5879C15.6775 36.5925 15.3238 36.5924 14.9718 36.5653C14.0622 36.4972 13.1087 36.2185 12.5275 35.518C14.2004 36.1372 16.0469 34.7018 17.7868 35.0977C18.7147 35.3087 19.4435 36.0021 20.1923 36.5888C20.9155 37.1537 21.807 37.66 22.6995 37.503C22.5851 37.0687 22.4767 36.6368 22.3726 36.2113C21.9103 36.3098 21.4059 36.1822 20.9745 35.9647C20.4664 35.7093 20.0236 35.3379 19.5306 35.0565C18.7391 34.6042 17.8405 34.389 16.9809 34.0884C16.3268 33.8592 15.6777 33.5722 15.1492 33.1226C14.6227 32.6738 14.2212 32.0457 14.1665 31.3553C15.6006 32.4869 17.294 33.1236 18.9332 33.9291C20.1073 34.5034 21.2099 35.2097 22.3018 35.9255C22.1707 35.3788 22.046 34.8393 21.9295 34.3077L21.8149 34.273C21.8062 34.2603 21.7984 34.2457 21.7897 34.233C21.8351 34.2513 21.8786 34.2688 21.924 34.2872C21.8088 33.7583 21.699 33.2386 21.5983 32.7249C20.1078 31.6762 18.5044 30.7933 16.9905 29.7741C15.317 28.6494 13.7216 27.3195 12.6938 25.5844C12.1306 24.6339 11.7449 23.4655 12.1346 22.4305C13.4757 24.8982 15.2974 27.1026 17.4692 28.883C18.9052 30.0613 20.5263 31.0938 21.578 32.6157C21.3821 31.6202 21.2134 30.6542 21.066 29.715C20.5787 28.7928 19.7154 28.114 18.8216 27.5677C17.8785 26.99 16.8635 26.5165 16.0026 25.8204C14.5303 24.6297 13.5933 22.8003 13.4868 20.9107C15.4179 23.63 18.5958 26.806 20.9824 29.176C20.8821 28.5017 20.7945 27.8416 20.7195 27.1958C18.1262 25.3557 16.54 22.3505 14.0179 20.3967C13.3175 19.8548 12.5422 19.3907 11.9554 18.7269C11.3685 18.0631 10.9889 17.1246 11.2728 16.2835C11.957 17.5149 13.04 18.4751 14.1643 19.3211C15.2899 20.1699 16.4825 20.9377 17.4977 21.912C18.6499 23.0196 19.8875 24.559 20.6025 26.1242C20.4915 25.0436 20.4135 24.0062 20.3624 23.0163C17.4602 21.7545 15.2089 19.3907 14.2307 16.564C14.1773 16.4116 14.1282 16.254 14.0859 16.0968C13.1172 15.3549 12.2732 14.3716 12.0422 13.1783C12.6056 13.7522 13.2694 14.1966 13.9669 14.5972C14.0694 13.984 14.4129 13.3713 14.989 13.0248C15.0122 13.799 15.113 14.5631 15.2823 15.3112C16.0143 15.7005 16.7423 16.0996 17.3964 16.6022C18.8086 17.6859 19.8428 19.2512 20.2931 20.9717C20.2763 20.0163 20.2862 19.1084 20.3146 18.2517C18.8787 17.0504 17.6627 15.5656 16.886 13.8629C16.1568 12.2644 15.8296 10.5178 15.5059 8.79098C17.2699 11.4177 19.7267 14.884 20.3215 18.0294C20.3646 16.8799 20.4446 15.8211 20.5445 14.8554C19.1303 13.9591 18.1897 12.4178 17.8416 10.7799C17.4893 9.12423 17.7036 7.38462 18.2364 5.77798C18.178 7.9227 18.6703 10.0804 19.6546 11.9862C20.1075 12.8624 20.6791 13.775 20.5447 14.7521L20.5534 14.7763C20.6065 14.2855 20.6643 13.8173 20.726 13.3736C20.7189 13.3799 20.7106 13.3835 20.7035 13.3898C20.7106 13.3835 20.7185 13.3752 20.7276 13.3696C20.7825 12.9714 20.8437 12.5918 20.9036 12.2324C20.0577 10.9405 19.6611 9.40024 19.4353 7.86911C19.32 7.07842 19.2442 6.28071 19.0358 5.50994C18.8274 4.73918 18.4742 3.98582 17.8866 3.44348C19.0248 3.86783 19.9419 4.8462 20.2901 6.01095C20.8774 7.97266 20.1512 10.2983 20.9076 12.1881C21.1596 10.7255 21.4419 9.59212 21.6743 8.7992C21.4164 8.76646 21.0847 8.40994 20.9975 8.17038C20.908 7.92527 20.9075 7.65864 20.8837 7.39867C20.8383 6.9187 20.7094 6.44642 20.7087 5.96381C20.7056 5.35617 20.9117 4.74792 21.2829 4.2659C21.4213 5.17612 21.4663 6.10153 21.4191 7.02193C21.3895 7.60257 21.4195 8.21186 21.6958 8.72291C21.7505 8.53594 21.804 8.36914 21.8514 8.2229L21.8463 8.20707C21.7273 8.05801 21.7377 7.84402 21.7968 7.6634C21.8558 7.48277 21.9583 7.31967 22.0114 7.13665C22.0837 6.89475 22.0638 6.63637 22.1214 6.39087C22.2094 6.01292 22.4714 5.69359 22.7825 5.46301C23.0945 5.23045 23.4537 5.07437 23.8093 4.92144C23.5741 5.16884 23.3381 5.41821 23.1356 5.6926C22.9331 5.96699 22.7637 6.27312 22.6766 6.60321C22.6055 6.87083 22.5917 7.15007 22.504 7.4133C22.3995 7.72949 22.1867 8.00662 21.9132 8.19498C21.825 8.51082 21.7406 8.82825 21.6603 9.14727C22.1602 8.72177 22.5299 8.23224 22.8281 7.64045C23.0994 7.10436 23.2738 6.51778 23.594 6.00833C24.0958 5.21375 24.9557 4.65313 25.8853 4.51795C25.4951 4.70521 25.1889 5.03194 24.9422 5.3873C24.6976 5.74347 24.5063 6.13261 24.2869 6.50585C23.6145 7.64967 22.7354 8.57695 21.6243 9.29354C21.4391 10.0549 21.2792 10.822 21.1458 11.5974C21.1938 11.5294 21.2399 11.4607 21.2891 11.3956C21.2509 11.479 21.2107 11.5615 21.1745 11.6457L21.1325 11.6701C21.0449 12.1837 20.968 12.6994 20.9009 13.219C21.9679 12.2871 22.8814 11.2175 23.5958 10.0607C23.9848 9.432 24.3311 8.76082 24.925 8.26753C25.4912 7.7975 26.2237 7.54154 26.9419 7.32115C28.6645 6.79132 30.4248 6.3961 32.1973 6.14134C30.8536 6.67693 29.5072 7.21369 28.1635 7.74928C27.4301 8.04163 26.6884 8.33752 26.0467 8.78401C25.2683 9.32467 24.6837 10.0514 24.0521 10.7293C23.1119 11.7399 22.0537 12.4732 20.8937 13.2597C20.7668 14.2468 20.6807 15.241 20.6254 16.2386C21.5124 14.2832 22.481 12.4503 24.1859 11.1324C25.3141 10.2596 26.6921 9.75848 28.0936 9.48968C29.4931 9.22008 30.9265 9.16853 32.3515 9.12053C30.6424 10.0669 28.4975 9.92354 26.7746 10.8414C25.7565 11.3842 24.963 12.2587 24.1037 13.0286C22.8379 14.1629 21.4385 14.8598 20.6265 16.2872C20.5711 17.3192 20.5533 18.3548 20.5651 19.3908L20.6226 19.2142C20.903 18.188 21.1867 17.1539 21.6406 16.193C22.0953 15.2302 22.739 14.3343 23.6156 13.7322C24.524 13.1084 25.6205 12.8384 26.6732 12.5117C28.5523 11.9301 30.3654 11.1359 32.0686 10.1527C30.7876 11.3704 29.3413 12.4113 27.7785 13.2398C26.718 13.8022 25.602 14.2688 24.6152 14.9505C22.9384 16.1075 21.7316 17.8077 20.5677 19.4814C20.5786 20.2691 20.6089 21.0599 20.6571 21.8465C21.4065 20.0102 22.6729 16.9996 24.0831 16.128C25.6519 15.1594 27.3886 14.509 29.0868 13.7947C30.785 13.0805 32.4791 12.2796 33.8689 11.0713C32.8346 12.7767 31.173 14.0041 29.4483 15.0062C27.7237 16.0084 25.8938 16.8326 24.259 17.9766C22.7081 19.0603 21.3126 20.4938 20.6805 22.2671L20.6773 22.2635ZM20.3472 22.7919C20.3191 22.2064 20.3 21.6383 20.2888 21.0848C19.5145 19.9687 18.5412 18.993 17.4273 18.2178C16.9361 17.8751 16.4175 17.5719 15.8989 17.2687C16.8025 19.4543 18.3378 21.3893 20.3472 22.7919ZM23.2682 39.6019C23.0938 38.9918 22.9269 38.3917 22.7691 37.7975C21.0341 37.7826 19.4231 36.8276 17.6933 36.6288C17.3575 36.5899 17.0213 36.5807 16.6839 36.5802C17.3928 37.454 18.3646 38.1144 19.4453 38.4306C20.1746 38.6442 20.9402 38.7048 21.6799 38.8813C22.248 39.0161 22.8202 39.2376 23.2655 39.6031L23.2682 39.6019ZM24.3071 42.9676C24.3071 42.9676 24.3079 42.9656 24.3068 42.9628C24.3068 42.9628 24.306 42.9648 24.3071 42.9676ZM24.6137 41.21C24.8742 41.9995 25.1357 42.7641 25.3983 43.497C25.4533 42.6028 25.5426 41.635 26.1492 40.9792C26.4578 40.6465 26.8722 40.4277 27.2026 40.1152C27.7245 39.6182 27.9934 38.9227 28.2954 38.2704C28.5094 37.8077 28.7464 37.3566 29.0055 36.919C28.8086 37.0371 28.6172 37.1644 28.4336 37.3063C27.6761 37.8921 27.1111 38.6842 26.5149 39.4338C25.9707 40.1171 25.3712 40.7896 24.6137 41.21V41.21ZM22.3268 33.0714C22.5591 34.0792 22.8069 35.0657 23.0654 36.0312C23.2693 34.9213 23.4871 33.8056 23.9025 32.758C24.0475 32.3984 24.215 32.0456 24.4105 31.7087C23.7398 32.1986 23.0436 32.6552 22.326 33.0734L22.3268 33.0714Z" fill="#D8EEFF"/>
<path d="M27.2542 6.27335C26.4466 6.07181 25.5753 6.29022 24.8637 6.72227C24.152 7.15432 23.5803 7.78059 23.0734 8.43986C22.37 9.35297 21.7696 10.3467 21.2861 11.3921C21.9023 10.5472 22.6266 9.84458 23.3269 9.04737C24.4018 7.82235 25.6689 6.64491 27.255 6.27138L27.2542 6.27335Z" fill="#D8EEFF"/>
<g style="mix-blend-mode:multiply">
<path d="M14.1748 31.2944C14.1748 31.2944 14.1748 31.2944 14.1761 31.295C14.1761 31.295 14.1772 31.2923 14.1759 31.2918L14.1748 31.2944Z" fill="white"/>
<path d="M21.3003 11.3361C21.9166 10.4912 22.6408 9.78856 23.3411 8.99135C24.4161 7.76633 25.6831 6.58889 27.2692 6.21536C27.2313 6.20695 27.1933 6.19854 27.1573 6.19093C27.2013 6.17878 27.2444 6.16861 27.2876 6.15844C26.4799 5.9569 25.6087 6.1753 24.897 6.60736C24.1854 7.03941 23.6137 7.66567 23.1067 8.32495C22.4033 9.23806 21.8029 10.2317 21.3195 11.2772C21.329 11.2649 21.3385 11.2527 21.3481 11.2405C21.3353 11.2721 21.3178 11.3041 21.3031 11.3349L21.3003 11.3361Z" fill="white"/>
<path d="M14.1904 31.2368C14.1904 31.2368 14.1904 31.2368 14.1918 31.2374C14.1918 31.2374 14.1928 31.2347 14.1915 31.2341L14.1904 31.2368Z" fill="white"/>
<path d="M21.8178 34.1154C21.1699 33.0503 20.2371 32.1621 19.1398 31.5681C18.0365 30.9718 16.7924 30.6793 15.6617 30.1339C13.7325 29.2047 12.1772 27.5189 11.4064 25.5222C11.4028 25.5483 11.4 25.5725 11.3963 25.5986C11.394 25.593 11.3924 25.5855 11.3881 25.5792C11.2431 26.5199 11.5471 27.4922 12.0719 28.2872C12.5967 29.0821 13.3268 29.721 14.0939 30.2852C16.4178 31.996 19.1183 33.103 21.8022 34.1711C21.7837 34.143 21.7652 34.1148 21.7494 34.0855C21.7732 34.0951 21.7969 34.1046 21.8206 34.1142L21.8178 34.1154Z" fill="white"/>
<path d="M29.7065 53.5651L29.6756 53.5963C29.6846 53.6137 29.6901 53.6228 29.6901 53.6228L28.8857 54.4217C27.1171 50.5873 25.6888 46.9682 24.544 43.569C24.291 43.6439 23.7297 43.7599 22.4864 43.9041C20.2111 44.1698 19.4256 41.9077 19.4256 41.9077C19.4878 42.004 19.5568 42.0892 19.631 42.1673C19.6267 42.1495 19.6224 42.1317 19.6181 42.1139C20.2254 42.6757 21.1382 42.7359 21.9628 42.6732C22.7256 42.6155 23.5093 42.4835 24.245 42.6584C24.0861 42.1694 23.9323 41.6848 23.7829 41.2065C22.9458 41.3629 22.1095 41.5173 21.2724 41.6737C20.6613 41.788 20.03 41.901 19.4248 41.7673C18.8926 41.6515 18.4144 41.3508 18.0138 40.9826C17.6125 40.6164 17.2774 40.1827 16.9463 39.7506C16.9684 39.7527 16.9917 39.7575 17.0139 39.7595C16.9977 39.7369 16.9808 39.7163 16.9626 39.6929C18.3056 39.8484 19.5118 40.5712 20.8187 40.9189C21.769 41.1711 22.7697 41.2184 23.7397 41.0628C23.5923 40.5853 23.4519 40.113 23.3167 39.6451C21.7779 39.9412 20.1501 40.213 18.6911 39.6501C17.8387 39.3203 17.0966 38.711 16.6089 37.9379C16.3371 37.5068 16.1454 37.0253 16.0411 36.5262C15.6878 36.5307 15.3342 36.5306 14.9822 36.5035C14.0725 36.4354 13.1191 36.1568 12.5379 35.4562C12.5695 35.4689 12.6027 35.4777 12.6351 35.4885C12.6079 35.4592 12.5807 35.4298 12.5562 35.3993C14.2291 36.0185 16.0756 34.5831 17.8155 34.979C18.7434 35.19 19.4714 35.8854 20.221 36.4701C20.9351 37.029 21.8156 37.5286 22.6989 37.3886C22.6727 37.2884 22.6464 37.1883 22.621 37.0861C22.6108 37.043 22.5987 36.999 22.5877 36.9579C22.5626 36.8605 22.5376 36.7631 22.5145 36.6665C22.4719 36.4931 22.4284 36.3217 22.385 36.1503C21.9226 36.2488 21.4182 36.1212 20.9888 35.9045C20.4807 35.6492 20.0379 35.2777 19.545 34.9963C18.7534 34.544 17.8548 34.3288 16.9952 34.0282C16.3411 33.799 15.692 33.512 15.1635 33.0624C14.637 32.6136 14.2355 31.9855 14.1808 31.2951C14.1899 31.301 14.1982 31.309 14.2053 31.3141C14.2022 31.2876 14.1983 31.2631 14.1972 31.2374C15.6313 32.369 17.3247 33.0057 18.9638 33.8112C20.1242 34.38 21.2145 35.0767 22.2961 35.7838C22.1701 35.2644 22.0524 34.753 21.9399 34.246L21.8292 34.2128C21.8205 34.2002 21.8127 34.1855 21.804 34.1728C21.8475 34.1903 21.8909 34.2079 21.9344 34.2254C21.9313 34.2103 21.9281 34.1953 21.925 34.1803L21.8448 34.1571C21.8361 34.1444 21.8282 34.1298 21.8196 34.1171C21.8532 34.1306 21.8848 34.1434 21.9184 34.1569C21.807 33.6526 21.7027 33.1535 21.6047 32.6615C20.1161 31.6136 18.5148 30.7315 17.002 29.7151C15.3285 28.5903 13.7331 27.2605 12.7053 25.5254C12.1677 24.6197 11.7949 23.5162 12.0978 22.5197C12.1162 22.4513 12.1393 22.3826 12.1644 22.3146C13.5056 24.7823 15.3273 26.9866 17.499 28.7671C18.9145 29.9279 20.5088 30.9473 21.5634 32.4336C21.3761 31.4738 21.2108 30.5389 21.0689 29.6319C20.5788 28.7223 19.7246 28.0495 18.8387 27.5063C17.8956 26.9286 16.8806 26.4552 16.0197 25.759C14.5473 24.5683 13.6104 22.739 13.5039 20.8494C13.5114 20.8593 13.52 20.8719 13.5275 20.8819C13.526 20.8514 13.5237 20.8229 13.5222 20.7924C15.4435 23.4963 18.5938 26.6496 20.9752 29.0153C20.8812 28.371 20.7951 27.7414 20.7223 27.1241C18.1386 25.2832 16.5512 22.2868 14.0349 20.3353C13.3346 19.7935 12.5593 19.3293 11.9725 18.6656C11.3951 18.0125 11.0178 17.0909 11.2779 16.2633C11.2867 16.2301 11.2967 16.1996 11.3074 16.1672C11.9917 17.3986 13.0746 18.3588 14.199 19.2048C15.3245 20.0536 16.5171 20.8214 17.5324 21.7957C18.6596 22.8795 19.8661 24.3764 20.5879 25.9077C20.4851 24.8809 20.4094 23.8949 20.3589 22.9489C17.4662 21.6863 15.2248 19.3266 14.2489 16.5054C14.1955 16.353 14.1465 16.1954 14.1042 16.0382C13.4094 15.5055 12.779 14.8471 12.3918 14.0755C12.2182 13.7483 12.087 13.4014 12.0152 13.0325C12.0381 13.0555 12.061 13.0785 12.0859 13.1023C12.0819 13.0893 12.08 13.077 12.0769 13.062C12.6391 13.6331 13.3001 14.0787 13.9956 14.4785C14.0121 14.3979 14.0305 14.318 14.0536 14.2378C14.0608 14.2085 14.07 14.1801 14.08 14.1496C14.0824 14.1437 14.0856 14.1358 14.0879 14.1299C14.0979 14.0995 14.1079 14.069 14.1198 14.0394C14.123 14.0315 14.1262 14.0236 14.1302 14.0137C14.1413 13.986 14.1525 13.9584 14.1644 13.9287C14.1684 13.9189 14.1724 13.909 14.1764 13.8991C14.1875 13.8714 14.1999 13.8466 14.2122 13.8217C14.217 13.8098 14.2217 13.798 14.2285 13.7869C14.2408 13.762 14.2532 13.7371 14.2667 13.715C14.2722 13.7012 14.281 13.6909 14.2885 13.6779C14.302 13.6558 14.3136 13.6328 14.3271 13.6107C14.3346 13.5977 14.345 13.5835 14.3525 13.5704C14.3652 13.5503 14.3787 13.5282 14.3934 13.5088C14.4037 13.4946 14.4141 13.4804 14.4244 13.4662C14.4391 13.4469 14.451 13.4287 14.4657 13.4094C14.476 13.3951 14.4891 13.3797 14.5014 13.3663C14.5153 13.349 14.5292 13.3316 14.5451 13.315C14.5581 13.2996 14.5732 13.285 14.5863 13.2696C14.6014 13.255 14.6153 13.2377 14.6303 13.2231C14.6454 13.2085 14.6613 13.1919 14.6783 13.1781C14.6926 13.1655 14.7057 13.1501 14.722 13.1383C14.7398 13.1225 14.7576 13.1067 14.7775 13.0917C14.7909 13.0811 14.8052 13.0685 14.8187 13.0578C14.8393 13.0409 14.8619 13.0247 14.8845 13.0086C14.8972 12.9999 14.9079 12.9904 14.9206 12.9818C14.9558 12.9569 14.9923 12.9349 15.0287 12.9128C15.032 13.0244 15.038 13.1348 15.0441 13.2451C15.0463 13.2851 15.0494 13.3231 15.0517 13.3631C15.0562 13.4315 15.062 13.5027 15.0665 13.5712C15.0716 13.6214 15.0746 13.6709 15.0804 13.7192C15.0858 13.7742 15.0923 13.8319 15.0977 13.8869C15.1043 13.9447 15.1109 14.0025 15.1182 14.0583C15.1221 14.0828 15.1241 14.1066 15.1279 14.1311C15.15 14.2985 15.1769 14.4655 15.2057 14.6333C15.2057 14.6333 15.2061 14.638 15.2073 14.6408C15.2217 14.7247 15.2381 14.8094 15.2564 14.8949C15.2596 14.91 15.2627 14.925 15.2658 14.94C15.2834 15.0275 15.3017 15.113 15.3213 15.2013C16.0533 15.5905 16.7813 15.9896 17.4354 16.4922C18.8037 17.5422 19.8148 19.0454 20.2878 20.7038C20.2747 19.8188 20.2821 18.9742 20.3084 18.174C18.8851 16.9755 17.6806 15.5023 16.9085 13.8107C16.1794 12.2121 15.8522 10.4655 15.5285 8.73873C15.5415 8.75775 15.5545 8.77677 15.5675 8.7958C15.5597 8.75819 15.5527 8.71862 15.5468 8.68181C17.2762 11.2578 19.6719 14.6421 20.3258 17.7377C20.369 16.6733 20.4405 15.6869 20.5347 14.7809C19.1395 13.8831 18.2131 12.3521 17.867 10.7265C17.5369 9.16936 17.7062 7.53565 18.1712 6.0119C18.2059 5.89728 18.2406 5.78265 18.2793 5.66962C18.2209 7.81433 18.7132 9.972 19.6975 11.8778C20.078 12.6146 20.544 13.3789 20.6011 14.1829C20.6874 13.4391 20.7869 12.7534 20.8931 12.1255C20.0701 10.8451 19.681 9.32622 19.4599 7.81765C19.3445 7.02696 19.2688 6.22925 19.0604 5.45848C18.852 4.68772 18.4988 3.93436 17.9104 3.394C17.9538 3.41152 17.9953 3.42825 18.0388 3.44577C18.0033 3.40849 17.965 3.37239 17.9279 3.33906C19.0661 3.76341 19.9832 4.74178 20.3314 5.90653C20.9093 7.83459 20.2168 10.1165 20.9136 11.9891C21.1527 10.604 21.4206 9.5176 21.6447 8.73968C21.3972 8.66979 21.1026 8.3466 21.0213 8.1209C20.9317 7.87579 20.9313 7.60916 20.9074 7.3492C20.862 6.86923 20.7332 6.39695 20.7325 5.91433C20.732 5.63623 20.7747 5.35944 20.8545 5.09302C20.9516 4.75545 21.1103 4.43584 21.323 4.15871C21.4614 5.06893 21.5064 5.99433 21.4593 6.91474C21.4313 7.46849 21.457 8.04848 21.6998 8.54599C21.7481 8.3863 21.7935 8.23927 21.8346 8.10883C21.7523 7.96541 21.7639 7.77714 21.8178 7.6151C21.8186 7.61312 21.8202 7.60917 21.8217 7.60522C21.8281 7.58941 21.8305 7.57201 21.8361 7.55818C21.8923 7.39021 21.983 7.2338 22.0392 7.06583C22.1015 6.83141 22.088 6.58017 22.1444 6.34337C22.1512 6.30937 22.1627 6.27498 22.1735 6.24257C22.2698 5.88403 22.5234 5.57971 22.8219 5.35779C23.1338 5.12523 23.493 4.96915 23.8487 4.81622C23.8213 4.84423 23.7959 4.87304 23.7686 4.90105C23.7907 4.89162 23.8101 4.88337 23.8323 4.87393C23.5971 5.12134 23.361 5.37071 23.1585 5.6451C22.9811 5.88594 22.8293 6.14859 22.7363 6.4304C22.7295 6.45293 22.7228 6.47546 22.716 6.49799C22.6492 6.74901 22.6323 7.01321 22.5569 7.26302C22.5481 7.29623 22.5385 7.33141 22.5277 7.36382C22.424 7.67803 22.2113 7.95517 21.9378 8.14353C21.8547 8.44078 21.7756 8.73964 21.7004 9.04008C22.2004 8.61458 22.57 8.12505 22.8683 7.53326C23.1395 6.99717 23.3139 6.41058 23.6341 5.90113C24.1359 5.10656 24.9958 4.54594 25.9254 4.41077C25.8747 4.43397 25.8264 4.46272 25.778 4.49146C25.8204 4.48327 25.8647 4.47588 25.909 4.46848C25.5189 4.65573 25.2126 4.98246 24.966 5.33783C24.7194 5.6932 24.5301 6.08313 24.3107 6.45637C23.6391 7.59822 22.7608 8.52352 21.6516 9.24091C21.4716 9.98374 21.3161 10.7341 21.1859 11.4902C21.234 11.4222 21.28 11.3535 21.3293 11.2884C21.3157 11.322 21.299 11.352 21.2835 11.3848C21.293 11.3726 21.3014 11.3576 21.3109 11.3453C21.2727 11.4287 21.2325 11.5113 21.1963 11.5954L21.1626 11.6163C21.157 11.6531 21.1514 11.6898 21.1438 11.7258C21.0733 12.1798 21.0135 12.6357 20.9597 13.0941C22.0156 12.1669 22.9248 11.1024 23.6359 9.95354C24.0249 9.3248 24.3713 8.65363 24.9652 8.16034C25.5313 7.69031 26.2639 7.43435 26.982 7.21396C28.7047 6.68413 30.4649 6.28891 32.2374 6.03415C32.1634 6.06402 32.0893 6.09389 32.0153 6.12375C32.0833 6.11444 32.1522 6.10315 32.221 6.09187C30.8774 6.62745 29.531 7.16422 28.1873 7.6998C27.4539 7.99215 26.7121 8.28804 26.0705 8.73452C25.2921 9.27519 24.7075 10.0019 24.0759 10.6798C23.1444 11.6801 22.0973 12.4088 20.9511 13.1894C20.8462 14.1163 20.7745 15.0521 20.7328 15.9931C21.601 14.0899 22.5647 12.3147 24.2284 11.0307C25.3566 10.1579 26.7346 9.65684 28.1361 9.38803C29.5356 9.11843 30.969 9.06689 32.394 9.01888C32.3556 9.04014 32.3179 9.05942 32.2803 9.07871C32.3127 9.078 32.3452 9.0773 32.3784 9.07462C30.6693 10.021 28.5244 9.87762 26.8016 10.7955C25.7834 11.3383 24.9899 12.2128 24.1306 12.9827C22.9061 14.0831 21.5545 14.7694 20.7325 16.1078C20.6927 17.0611 20.683 18.0196 20.7002 18.9797C20.7905 18.6532 20.8808 18.3267 20.977 18.0025C21.1718 17.3484 21.3923 16.7046 21.6839 16.0894C22.1386 15.1266 22.7823 14.2307 23.6589 13.6286C24.5673 13.0048 25.6638 12.7348 26.7165 12.4081C28.5956 11.8265 30.4087 11.0323 32.1119 10.049C32.0683 10.0889 32.0267 10.1295 31.9831 10.1693C32.0215 10.1481 32.0579 10.126 32.0964 10.1048C30.8154 11.3225 29.3691 12.3634 27.8063 13.1919C26.7458 13.7544 25.6298 14.2209 24.6429 14.9027C23.0204 16.0218 21.8376 17.6512 20.7094 19.2705C20.7276 20.0059 20.762 20.741 20.8107 21.475C21.5716 19.6272 22.7836 16.8543 24.1292 16.0232C25.6979 15.0546 27.4347 14.4042 29.1329 13.6899C30.8311 12.9757 32.5252 12.1748 33.9149 10.9665C33.8963 10.9957 33.8768 11.0269 33.8581 11.0561C33.8716 11.0455 33.8851 11.0348 33.8966 11.0234C32.8623 12.7288 31.2007 13.9562 29.476 14.9583C27.7514 15.9605 25.9215 16.7847 24.2867 17.9287C22.8337 18.9463 21.5161 20.2664 20.8372 21.8876C20.8701 22.3304 20.9065 22.77 20.9496 23.21C21.1573 22.7631 21.4235 22.3422 21.7417 21.9628C22.2207 21.3957 22.8035 20.93 23.3827 20.4676C24.455 19.6136 25.5254 18.7588 26.6482 17.9734C28.5669 16.6269 30.6234 15.4852 32.6717 14.347C32.6518 14.3734 32.632 14.3999 32.6113 14.4283C32.626 14.4205 32.6406 14.4126 32.6553 14.4047C31.0571 16.6201 28.993 18.4983 26.6388 19.8829C25.5218 20.5398 24.336 21.0884 23.2718 21.8309C22.3714 22.4578 21.5464 23.2507 21.0541 24.2214C21.141 24.9914 21.2422 25.7603 21.3553 26.5225C21.3797 26.4221 21.4089 26.3213 21.4392 26.2233C21.8295 24.9244 22.6911 23.7673 23.7185 22.8653C25.002 21.7382 26.5422 20.9488 28.0574 20.1585C29.5726 19.3682 31.1022 18.5538 32.353 17.3882C32.3442 17.4099 32.3355 17.4317 32.3267 17.4534C32.3283 17.4495 32.3338 17.4471 32.3366 17.4459C31.7 19.0934 30.3216 20.3477 28.8427 21.3157C27.3638 22.2837 25.7474 23.0286 24.2941 24.0299C23.1479 24.822 22.0851 25.8176 21.4327 27.0315C21.6022 28.115 21.7948 29.1872 22.0091 30.2452C22.1067 29.8435 22.213 29.4431 22.332 29.0454C22.7743 27.5608 23.4082 26.1534 24.5628 25.158C25.9363 23.973 27.9533 23.5848 29.6705 24.1737C29.6428 24.1855 29.6151 24.1972 29.5874 24.209C29.6091 24.2178 29.6324 24.2226 29.6541 24.2314C26.2895 25.6152 23.5705 28.4858 22.3646 31.9159C22.4198 32.1609 22.4749 32.4059 22.532 32.6518C24.1477 30.5353 25.7808 28.4213 27.6258 26.5053C27.7643 26.3613 27.9019 26.2193 28.0415 26.078C29.2613 24.847 30.5745 23.7089 31.965 22.6754C31.4439 23.7401 30.8411 24.7627 30.1675 25.7384C29.3069 27.0015 28.3251 28.1837 27.2414 29.2651C27.9062 29.0576 28.6172 28.9974 29.3045 29.1045C29.2664 29.119 29.2284 29.1335 29.1884 29.1473C29.2213 29.1513 29.2541 29.1554 29.2861 29.1614C27.3316 29.8619 25.7161 31.4478 24.9799 33.3882C24.6118 34.3583 24.071 35.2612 23.3936 36.047C23.5291 36.5426 23.669 37.0332 23.8102 37.515C24.8543 35.2325 26.1134 33.0205 27.8872 31.2527C29.809 29.34 32.4093 27.9834 35.1197 28.0286C35.0571 28.047 34.9946 28.0655 34.9332 28.0867C34.9906 28.0868 35.046 28.0862 35.1033 28.0863C32.572 28.8276 30.3579 30.4226 28.5185 32.3133C26.8037 34.0774 25.384 36.1006 23.9909 38.1322C24.0913 38.4643 24.1904 38.7937 24.2932 39.12C24.8364 37.9378 25.5624 36.8432 26.4369 35.8819C28.2362 33.9084 30.6022 32.563 32.9258 31.2488C32.9024 31.2784 32.877 31.3072 32.8536 31.3368C32.8718 31.3257 32.8901 31.3147 32.9095 31.3065C32.1125 32.2806 31.3092 33.2592 30.3367 34.0592C29.4716 34.7693 28.4899 35.3245 27.5885 35.9878C26.3328 36.9149 25.2368 38.0556 24.3622 39.3476C24.5183 39.8492 24.6784 40.341 24.8377 40.8232C25.3782 40.058 25.9174 39.2901 26.4579 38.5249C27.0523 37.6827 27.6527 36.8314 28.4264 36.1487C29.06 35.591 29.7982 35.1559 30.5379 34.7283C30.7875 34.4338 31.0473 34.1481 31.3167 33.8731C31.5338 33.4714 31.6689 33.2158 31.6689 33.2158C31.6689 33.2158 31.5591 33.4426 31.3714 33.8171C31.3829 33.8057 31.3952 33.7922 31.4067 33.7808C31.3988 33.8006 31.3928 33.8211 31.3876 33.8397C31.3876 33.8397 31.3876 33.8397 31.3884 33.8377C31.3669 33.9025 31.3461 33.9654 31.3265 34.031C31.4153 33.8279 31.5049 33.6228 31.5917 33.4189C31.5253 33.6747 31.4795 33.9365 31.4432 34.1974C32.2579 33.7036 33.0228 33.1621 33.5976 32.4084C33.5924 32.427 33.5864 32.4476 33.5812 32.4661C33.2397 33.7066 32.455 34.8212 31.4012 35.5609C31.3758 35.5783 30.6977 36.0353 30.6724 36.0527C30.6236 36.8231 30.2386 37.4764 29.8805 38.2393C29.3847 39.2982 28.656 40.2286 27.73 40.9418C26.7112 41.7255 26.3154 42.2573 25.4656 43.1458C27.6205 49.1732 29.8812 53.3369 29.8812 53.3369L29.688 53.5255C29.7061 53.5604 29.7144 53.5798 29.7144 53.5798L29.7065 53.5651ZM19.8291 22.269C19.9953 22.3981 20.165 22.5239 20.3384 22.6466C20.3118 22.0801 20.2931 21.5282 20.2823 20.9909C19.513 19.8907 18.5464 18.9269 17.4456 18.1592C16.9706 17.8276 16.4709 17.5344 15.9713 17.2411C16.0008 17.3104 16.0291 17.3769 16.0586 17.4462C16.0735 17.4775 16.0865 17.508 16.1007 17.5413C16.14 17.626 16.1793 17.7108 16.2186 17.7956C16.2348 17.8296 16.2517 17.8617 16.2678 17.8958C16.3032 17.9675 16.3406 18.04 16.378 18.1125C16.3973 18.1501 16.4166 18.1877 16.4367 18.2234C16.4717 18.2903 16.5075 18.3553 16.5433 18.4203C16.5634 18.4559 16.5815 18.4908 16.6016 18.5265C16.6461 18.6041 16.6906 18.6818 16.7359 18.7574C16.7579 18.7939 16.78 18.8303 16.8032 18.8696C16.8363 18.9243 16.8714 18.9797 16.9044 19.0344C16.9363 19.0863 16.9702 19.139 17.0049 19.1897C17.0388 19.2424 17.0746 19.296 17.1105 19.3495C17.1377 19.3903 17.1668 19.4319 17.194 19.4727C17.2405 19.5397 17.287 19.6067 17.3355 19.6744C17.3666 19.7168 17.399 19.762 17.4301 19.8044C17.4589 19.8413 17.4849 19.8794 17.5137 19.9162C17.5673 19.9884 17.6217 20.0585 17.678 20.1295C17.7037 20.1628 17.7293 20.1961 17.7577 20.2282C17.7959 20.2758 17.8342 20.3234 17.8744 20.3717C17.8945 20.3959 17.9146 20.4201 17.9367 20.4451C18.0065 20.5283 18.0771 20.6096 18.1497 20.6917C18.1686 20.7131 18.1875 20.7345 18.2065 20.7559C18.2956 20.8539 18.3847 20.9518 18.4755 21.0458C18.4794 21.0474 18.4818 21.053 18.4849 21.0565C18.535 21.1089 18.5851 21.1612 18.636 21.2116C18.6423 21.2187 18.6495 21.2239 18.6558 21.231C18.7524 21.3274 18.8499 21.4218 18.9493 21.5171C18.9576 21.525 18.9679 21.5337 18.9761 21.5416C19.248 21.7959 19.5314 22.0388 19.8263 22.2702C19.8263 22.2702 19.8263 22.2702 19.8283 22.271L19.8291 22.269ZM21.7165 38.7657C22.2672 38.8982 22.8193 39.1069 23.261 39.4527C23.0949 38.8735 22.937 38.3022 22.7874 37.7389C21.0524 37.724 19.4413 36.7691 17.7115 36.5702C17.3979 36.5333 17.0847 36.5242 16.7682 36.523C17.4729 37.3674 18.4249 38.0085 19.4811 38.3171C20.2104 38.5307 20.9761 38.5913 21.7157 38.7677L21.7165 38.7657ZM24.4054 31.6682C23.8152 32.101 23.2033 32.502 22.5741 32.8777C22.7728 33.7181 22.9822 34.549 23.1996 35.3601C23.3227 34.7299 23.4585 34.1025 23.6461 33.489C23.7319 33.2021 23.8276 32.9191 23.9371 32.6417C24.0717 32.3078 24.2261 31.9818 24.4034 31.6674L24.4054 31.6682ZM29.0024 36.8793C28.8138 36.9939 28.6287 37.1169 28.4551 37.2513C27.6975 37.8371 27.1325 38.6291 26.5363 39.3788C26.0564 39.9823 25.5319 40.5771 24.8911 40.9986C25.0857 41.587 25.2831 42.1627 25.479 42.7194C25.5134 42.4347 25.5632 42.1516 25.6451 41.886C25.7533 41.5093 25.92 41.1584 26.1881 40.8692C26.4968 40.5365 26.9112 40.3177 27.2415 40.0053C27.7635 39.5082 28.0323 38.8127 28.3343 38.1604C28.5361 37.7226 28.7607 37.2964 29.0035 36.8821L29.0024 36.8793ZM20.9493 13.1312C20.9493 13.1312 20.9493 13.1312 20.9485 13.1332C20.9501 13.1292 20.9557 13.1269 20.9592 13.1237C20.9557 13.1269 20.9529 13.1281 20.9493 13.1312Z" fill="white"/>
</g>
<path d="M125.31 31.3506C125.31 31.3506 125.31 31.3506 125.308 31.3511C125.308 31.3511 125.307 31.3485 125.309 31.3479L125.31 31.3506Z" fill="white"/>
<path d="M123.84 30.2503C125.769 29.321 127.325 27.6352 128.095 25.6386C128.24 26.5793 127.936 27.5517 127.412 28.3466C126.887 29.1416 126.157 29.7804 125.39 30.3446C123.066 32.0554 120.365 33.1624 117.681 34.2306C118.329 33.1655 119.262 32.2773 120.359 31.6833C121.463 31.087 122.707 30.7945 123.837 30.2491L123.84 30.2503Z" fill="white"/>
<path d="M118.792 22.2635C118.763 22.7047 118.728 23.1462 118.689 23.5846C118.467 23.0354 118.158 22.5192 117.776 22.0668C117.297 21.4997 116.714 21.034 116.135 20.5716C115.062 19.7176 113.992 18.8628 112.869 18.0774C110.951 16.7309 108.894 15.5892 106.846 14.451C108.444 16.6664 110.508 18.5446 112.862 19.9292C113.979 20.586 115.165 21.1347 116.229 21.8772C117.223 22.5699 118.128 23.4659 118.591 24.5794C118.499 25.4503 118.387 26.3178 118.26 27.1773C118.05 25.5326 117.047 24.0649 115.798 22.9674C114.515 21.8402 112.975 21.0508 111.459 20.2605C109.944 19.4702 108.415 18.6559 107.164 17.4902C107.8 19.1377 109.179 20.392 110.658 21.36C112.137 22.328 113.753 23.0729 115.206 24.0742C116.451 24.9344 117.599 26.0335 118.228 27.3946C118.053 28.5561 117.849 29.7066 117.623 30.8382C117.147 28.7793 116.544 26.6289 114.954 25.2601C113.58 24.075 111.563 23.6868 109.846 24.2757C113.282 25.6882 116.046 28.6533 117.213 32.1796L117.446 31.6975C117.353 32.1297 117.26 32.558 117.162 32.9831C115.389 30.6591 113.606 28.3323 111.549 26.2558C110.33 25.0248 109.016 23.8867 107.626 22.8532C108.813 25.2734 110.417 27.4863 112.332 29.3812C111.651 29.1571 110.917 29.0923 110.211 29.2045C112.166 29.905 113.783 31.4901 114.518 33.4313C114.924 34.503 115.541 35.4923 116.319 36.334C116.17 36.8859 116.017 37.4298 115.86 37.9639C114.785 35.5585 113.49 33.2117 111.625 31.3543C109.703 29.4416 107.103 28.085 104.392 28.1303C106.924 28.8715 109.138 30.4665 110.977 32.3573C112.778 34.2085 114.252 36.3451 115.711 38.4766C115.601 38.8472 115.489 39.2138 115.377 39.5737C114.819 38.2594 114.038 37.038 113.075 35.9835C111.276 34.01 108.91 32.6646 106.586 31.3504C107.383 32.3246 108.186 33.3031 109.159 34.1031C110.024 34.8133 111.006 35.3684 111.907 36.0318C113.263 37.031 114.431 38.2826 115.337 39.7023C115.179 40.2067 115.021 40.7024 114.86 41.1875C114.258 40.3322 113.657 39.479 113.055 38.6237C112.461 37.7816 111.86 36.9303 111.087 36.2476C110.453 35.6899 109.715 35.2548 108.975 34.8271C108.699 34.4999 108.408 34.1831 108.104 33.8805L108.28 34.4251C107.385 33.897 106.536 33.3277 105.911 32.5069C106.252 33.7474 107.038 34.864 108.091 35.6017C108.319 35.7625 108.558 35.9051 108.802 36.0385C108.97 36.5586 109.14 37.076 109.308 37.5962C109.521 38.2499 109.737 38.9115 110.114 39.4857C110.659 40.3154 111.496 40.897 112.268 41.5204C112.989 42.1003 113.696 42.7709 114.017 43.6293C111.853 49.6809 109.79 53.6798 109.79 53.6798L110.594 54.4788C112.38 50.6055 113.82 46.954 114.97 43.5275C115.043 43.5601 115.135 43.5599 115.216 43.5569C116.021 43.5128 116.823 43.4695 117.628 43.4254C118.086 43.4012 118.555 43.3731 118.98 43.2018C119.407 43.0298 119.788 42.683 119.88 42.2326C119.273 42.7944 118.36 42.8546 117.535 42.7919C116.76 42.7323 115.964 42.5964 115.215 42.7855C115.382 42.2751 115.543 41.7691 115.697 41.2683C116.534 41.4247 117.37 41.5791 118.207 41.7355C118.819 41.8498 119.45 41.9628 120.055 41.829C120.587 41.7133 121.065 41.4125 121.466 41.0444C121.867 40.6782 122.202 40.2425 122.534 39.8124C121.191 39.9679 119.984 40.6907 118.677 41.0384C117.717 41.2926 116.704 41.34 115.724 41.1768C115.876 40.6816 116.023 40.1906 116.163 39.7068C117.702 40.003 119.33 40.2747 120.789 39.7119C121.641 39.382 122.383 38.7728 122.871 37.9997C123.143 37.5686 123.334 37.087 123.439 36.5879C123.792 36.5925 124.146 36.5924 124.498 36.5653C125.407 36.4972 126.361 36.2185 126.942 35.518C125.269 36.1372 123.423 34.7018 121.683 35.0977C120.755 35.3087 120.026 36.0021 119.277 36.5888C118.554 37.1537 117.662 37.66 116.77 37.503C116.884 37.0687 116.993 36.6368 117.097 36.2113C117.559 36.3098 118.064 36.1822 118.495 35.9647C119.003 35.7093 119.446 35.3379 119.939 35.0565C120.73 34.6042 121.629 34.389 122.489 34.0884C123.143 33.8592 123.792 33.5722 124.32 33.1226C124.847 32.6738 125.248 32.0457 125.303 31.3553C123.869 32.4869 122.175 33.1236 120.536 33.9291C119.362 34.5034 118.26 35.2097 117.168 35.9255C117.299 35.3788 117.424 34.8393 117.54 34.3077L117.655 34.273C117.663 34.2603 117.671 34.2457 117.68 34.233C117.634 34.2513 117.591 34.2688 117.545 34.2872C117.661 33.7583 117.77 33.2386 117.871 32.7249C119.362 31.6762 120.965 30.7933 122.479 29.7741C124.152 28.6494 125.748 27.3195 126.776 25.5844C127.339 24.6339 127.725 23.4655 127.335 22.4305C125.994 24.8982 124.172 27.1026 122 28.883C120.564 30.0613 118.943 31.0938 117.891 32.6157C118.087 31.6202 118.256 30.6542 118.403 29.715C118.891 28.7928 119.754 28.114 120.648 27.5677C121.591 26.99 122.606 26.5165 123.467 25.8204C124.939 24.6297 125.876 22.8003 125.983 20.9107C124.052 23.63 120.874 26.806 118.487 29.176C118.587 28.5017 118.675 27.8416 118.75 27.1958C121.343 25.3557 122.929 22.3505 125.452 20.3967C126.152 19.8548 126.927 19.3907 127.514 18.7269C128.101 18.0631 128.481 17.1246 128.197 16.2835C127.512 17.5149 126.43 18.4751 125.305 19.3211C124.18 20.1699 122.987 20.9377 121.972 21.912C120.82 23.0196 119.582 24.559 118.867 26.1242C118.978 25.0436 119.056 24.0062 119.107 23.0163C122.009 21.7545 124.261 19.3907 125.239 16.564C125.292 16.4116 125.341 16.254 125.384 16.0968C126.352 15.3549 127.196 14.3716 127.427 13.1783C126.864 13.7522 126.2 14.1966 125.503 14.5972C125.4 13.984 125.057 13.3713 124.48 13.0248C124.457 13.799 124.356 14.5631 124.187 15.3112C123.455 15.7005 122.727 16.0996 122.073 16.6022C120.661 17.6859 119.627 19.2512 119.176 20.9717C119.193 20.0163 119.183 19.1084 119.155 18.2517C120.591 17.0504 121.807 15.5656 122.584 13.8629C123.313 12.2644 123.64 10.5178 123.964 8.79098C122.2 11.4177 119.743 14.884 119.148 18.0294C119.105 16.8799 119.025 15.8211 118.925 14.8554C120.339 13.9591 121.28 12.4178 121.628 10.7799C121.98 9.12423 121.766 7.38462 121.233 5.77798C121.291 7.9227 120.799 10.0804 119.815 11.9862C119.362 12.8624 118.79 13.775 118.925 14.7521L118.916 14.7763C118.863 14.2855 118.805 13.8173 118.743 13.3736C118.751 13.3799 118.759 13.3835 118.766 13.3898C118.759 13.3835 118.751 13.3752 118.742 13.3696C118.687 12.9714 118.626 12.5918 118.566 12.2324C119.412 10.9405 119.808 9.40024 120.034 7.86911C120.15 7.07842 120.225 6.28071 120.434 5.50994C120.642 4.73918 120.995 3.98582 121.583 3.44348C120.445 3.86783 119.528 4.8462 119.179 6.01095C118.592 7.97266 119.318 10.2983 118.562 12.1881C118.31 10.7255 118.028 9.59212 117.795 8.7992C118.053 8.76646 118.385 8.40994 118.472 8.17038C118.562 7.92527 118.562 7.65864 118.586 7.39867C118.631 6.9187 118.76 6.44642 118.761 5.96381C118.764 5.35617 118.558 4.74792 118.187 4.2659C118.048 5.17612 118.003 6.10153 118.05 7.02193C118.08 7.60257 118.05 8.21186 117.774 8.72291C117.719 8.53594 117.666 8.36914 117.618 8.2229L117.623 8.20707C117.742 8.05801 117.732 7.84402 117.673 7.6634C117.614 7.48277 117.511 7.31967 117.458 7.13665C117.386 6.89475 117.406 6.63637 117.348 6.39087C117.26 6.01292 116.998 5.69359 116.687 5.46301C116.375 5.23045 116.016 5.07437 115.66 4.92144C115.895 5.16884 116.131 5.41821 116.334 5.6926C116.536 5.96699 116.706 6.27312 116.793 6.60321C116.864 6.87083 116.878 7.15007 116.966 7.4133C117.07 7.72949 117.283 8.00662 117.556 8.19498C117.645 8.51082 117.729 8.82825 117.809 9.14727C117.309 8.72177 116.94 8.23224 116.641 7.64045C116.37 7.10436 116.196 6.51778 115.875 6.00833C115.374 5.21375 114.514 4.65313 113.584 4.51795C113.974 4.70521 114.281 5.03194 114.527 5.3873C114.772 5.74347 114.963 6.13261 115.183 6.50585C115.855 7.64967 116.734 8.57695 117.845 9.29354C118.03 10.0549 118.19 10.822 118.324 11.5974C118.276 11.5294 118.23 11.4607 118.18 11.3956C118.219 11.479 118.259 11.5615 118.295 11.6457L118.337 11.6701C118.425 12.1837 118.502 12.6994 118.569 13.219C117.502 12.2871 116.588 11.2175 115.874 10.0607C115.485 9.432 115.138 8.76082 114.544 8.26753C113.978 7.7975 113.246 7.54154 112.528 7.32115C110.805 6.79132 109.045 6.3961 107.272 6.14134C108.616 6.67693 109.962 7.21369 111.306 7.74928C112.039 8.04163 112.781 8.33752 113.423 8.78401C114.201 9.32467 114.786 10.0514 115.417 10.7293C116.358 11.7399 117.416 12.4732 118.576 13.2597C118.703 14.2468 118.789 15.241 118.844 16.2386C117.957 14.2832 116.989 12.4503 115.284 11.1324C114.155 10.2596 112.777 9.75848 111.376 9.48968C109.976 9.22008 108.543 9.16853 107.118 9.12053C108.827 10.0669 110.972 9.92354 112.695 10.8414C113.713 11.3842 114.506 12.2587 115.366 13.0286C116.632 14.1629 118.031 14.8598 118.843 16.2872C118.898 17.3192 118.916 18.3548 118.904 19.3908L118.847 19.2142C118.566 18.188 118.283 17.1539 117.829 16.193C117.374 15.2302 116.73 14.3343 115.854 13.7322C114.945 13.1084 113.849 12.8384 112.796 12.5117C110.917 11.9301 109.104 11.1359 107.401 10.1527C108.682 11.3704 110.128 12.4113 111.691 13.2398C112.751 13.8022 113.867 14.2688 114.854 14.9505C116.531 16.1075 117.738 17.8077 118.902 19.4814C118.891 20.2691 118.861 21.0599 118.812 21.8465C118.063 20.0102 116.797 16.9996 115.386 16.128C113.818 15.1594 112.081 14.509 110.383 13.7947C108.684 13.0805 106.99 12.2796 105.601 11.0713C106.635 12.7767 108.296 14.0041 110.021 15.0062C111.746 16.0084 113.576 16.8326 115.211 17.9766C116.761 19.0603 118.157 20.4938 118.789 22.2671L118.792 22.2635ZM119.122 22.7919C119.15 22.2064 119.169 21.6383 119.181 21.0848C119.955 19.9687 120.928 18.993 122.042 18.2178C122.533 17.8751 123.052 17.5719 123.571 17.2687C122.667 19.4543 121.132 21.3893 119.122 22.7919ZM116.201 39.6019C116.376 38.9918 116.543 38.3917 116.7 37.7975C118.435 37.7826 120.046 36.8276 121.776 36.6288C122.112 36.5899 122.448 36.5807 122.786 36.5802C122.077 37.454 121.105 38.1144 120.024 38.4306C119.295 38.6442 118.529 38.7048 117.79 38.8813C117.221 39.0161 116.649 39.2376 116.204 39.6031L116.201 39.6019ZM115.162 42.9676C115.162 42.9676 115.162 42.9656 115.163 42.9628C115.163 42.9628 115.164 42.9648 115.162 42.9676ZM114.856 41.21C114.595 41.9995 114.334 42.7641 114.071 43.497C114.016 42.6028 113.927 41.635 113.32 40.9792C113.012 40.6465 112.597 40.4277 112.267 40.1152C111.745 39.6182 111.476 38.9227 111.174 38.2704C110.96 37.8077 110.723 37.3566 110.464 36.919C110.661 37.0371 110.852 37.1644 111.036 37.3063C111.793 37.8921 112.358 38.6842 112.955 39.4338C113.499 40.1171 114.098 40.7896 114.856 41.21V41.21ZM117.143 33.0714C116.91 34.0792 116.663 35.0657 116.404 36.0312C116.2 34.9213 115.982 33.8056 115.567 32.758C115.422 32.3984 115.255 32.0456 115.059 31.7087C115.73 32.1986 116.426 32.6552 117.143 33.0734L117.143 33.0714Z" fill="white"/>
<path d="M112.215 6.27335C113.022 6.07181 113.894 6.29022 114.605 6.72227C115.317 7.15432 115.889 7.78059 116.396 8.43986C117.099 9.35297 117.699 10.3467 118.183 11.3921C117.567 10.5472 116.842 9.84458 116.142 9.04737C115.067 7.82235 113.8 6.64491 112.214 6.27138L112.215 6.27335Z" fill="white"/>
<g style="mix-blend-mode:multiply">
<path d="M125.294 31.2944C125.294 31.2944 125.294 31.2944 125.293 31.295C125.293 31.295 125.292 31.2923 125.293 31.2918L125.294 31.2944Z" fill="white"/>
<path d="M118.168 11.3361C117.551 10.4912 116.827 9.78856 116.127 8.99135C115.052 7.76633 113.785 6.58889 112.199 6.21536C112.237 6.20695 112.275 6.19854 112.311 6.19093C112.267 6.17878 112.224 6.16861 112.18 6.15844C112.988 5.9569 113.859 6.1753 114.571 6.60736C115.283 7.03941 115.854 7.66567 116.361 8.32495C117.065 9.23806 117.665 10.2317 118.149 11.2772C118.139 11.2649 118.129 11.2527 118.12 11.2405C118.133 11.2721 118.15 11.3041 118.165 11.3349L118.168 11.3361Z" fill="white"/>
<path d="M125.278 31.2368C125.278 31.2368 125.278 31.2368 125.276 31.2374C125.276 31.2374 125.275 31.2347 125.277 31.2341L125.278 31.2368Z" fill="white"/>
<path d="M117.651 34.1154C118.299 33.0503 119.232 32.1621 120.329 31.5681C121.432 30.9718 122.676 30.6793 123.807 30.1339C125.736 29.2047 127.292 27.5189 128.062 25.5222C128.066 25.5483 128.069 25.5725 128.072 25.5986C128.075 25.593 128.076 25.5855 128.081 25.5792C128.226 26.5199 127.922 27.4922 127.397 28.2872C126.872 29.0821 126.142 29.721 125.375 30.2852C123.051 31.996 120.35 33.103 117.667 34.1711C117.685 34.143 117.704 34.1148 117.719 34.0855C117.696 34.0951 117.672 34.1046 117.648 34.1142L117.651 34.1154Z" fill="white"/>
<path d="M109.762 53.5651L109.792 53.5963C109.783 53.6137 109.778 53.6228 109.778 53.6228L110.582 54.4217C112.351 50.5873 113.779 46.9682 114.924 43.569C115.177 43.6439 115.738 43.7599 116.982 43.9041C119.257 44.1698 120.042 41.9077 120.042 41.9077C119.98 42.004 119.911 42.0892 119.837 42.1673C119.841 42.1495 119.846 42.1317 119.85 42.1139C119.243 42.6757 118.33 42.7359 117.505 42.6732C116.742 42.6155 115.959 42.4835 115.223 42.6584C115.382 42.1694 115.536 41.6848 115.685 41.2065C116.522 41.3629 117.359 41.5173 118.196 41.6737C118.807 41.788 119.438 41.901 120.043 41.7673C120.575 41.6515 121.054 41.3508 121.454 40.9826C121.856 40.6164 122.191 40.1827 122.522 39.7506C122.5 39.7527 122.476 39.7575 122.454 39.7595C122.47 39.7369 122.487 39.7163 122.505 39.6929C121.162 39.8484 119.956 40.5712 118.649 40.9189C117.699 41.1711 116.698 41.2184 115.728 41.0628C115.876 40.5853 116.016 40.113 116.151 39.6451C117.69 39.9412 119.318 40.213 120.777 39.6501C121.629 39.3203 122.371 38.711 122.859 37.9379C123.131 37.5068 123.323 37.0253 123.427 36.5262C123.78 36.5307 124.134 36.5306 124.486 36.5035C125.396 36.4354 126.349 36.1568 126.93 35.4562C126.899 35.4689 126.865 35.4777 126.833 35.4885C126.86 35.4592 126.887 35.4298 126.912 35.3993C125.239 36.0185 123.392 34.5831 121.653 34.979C120.725 35.19 119.997 35.8854 119.247 36.4701C118.533 37.029 117.652 37.5286 116.769 37.3886C116.795 37.2884 116.822 37.1883 116.847 37.0861C116.857 37.043 116.869 36.999 116.88 36.9579C116.905 36.8605 116.93 36.7631 116.954 36.6665C116.996 36.4931 117.04 36.3217 117.083 36.1503C117.545 36.2488 118.05 36.1212 118.479 35.9045C118.987 35.6492 119.43 35.2777 119.923 34.9963C120.715 34.544 121.613 34.3288 122.473 34.0282C123.127 33.799 123.776 33.512 124.305 33.0624C124.831 32.6136 125.232 31.9855 125.287 31.2951C125.278 31.301 125.27 31.309 125.263 31.3141C125.266 31.2876 125.27 31.2631 125.271 31.2374C123.837 32.369 122.143 33.0057 120.504 33.8112C119.344 34.38 118.254 35.0767 117.172 35.7838C117.298 35.2644 117.416 34.753 117.528 34.246L117.639 34.2128C117.647 34.2002 117.655 34.1855 117.664 34.1728C117.621 34.1903 117.577 34.2079 117.534 34.2254C117.537 34.2103 117.54 34.1953 117.543 34.1803L117.623 34.1571C117.632 34.1444 117.64 34.1298 117.648 34.1171C117.615 34.1306 117.583 34.1434 117.55 34.1569C117.661 33.6526 117.765 33.1535 117.863 32.6615C119.352 31.6136 120.953 30.7315 122.466 29.7151C124.139 28.5903 125.735 27.2605 126.763 25.5254C127.3 24.6197 127.673 23.5162 127.37 22.5197C127.352 22.4513 127.329 22.3826 127.304 22.3146C125.962 24.7823 124.141 26.9866 121.969 28.7671C120.554 29.9279 118.959 30.9473 117.905 32.4336C118.092 31.4738 118.257 30.5389 118.399 29.6319C118.889 28.7223 119.743 28.0495 120.629 27.5063C121.572 26.9286 122.587 26.4552 123.448 25.759C124.921 24.5683 125.858 22.739 125.964 20.8494C125.957 20.8593 125.948 20.8719 125.941 20.8819C125.942 20.8514 125.944 20.8229 125.946 20.7924C124.025 23.4963 120.874 26.6496 118.493 29.0153C118.587 28.371 118.673 27.7414 118.746 27.1241C121.329 25.2832 122.917 22.2868 125.433 20.3353C126.133 19.7935 126.909 19.3293 127.496 18.6656C128.073 18.0125 128.45 17.0909 128.19 16.2633C128.181 16.2301 128.171 16.1996 128.161 16.1672C127.476 17.3986 126.393 18.3588 125.269 19.2048C124.144 20.0536 122.951 20.8214 121.936 21.7957C120.808 22.8795 119.602 24.3764 118.88 25.9077C118.983 24.8809 119.059 23.8949 119.109 22.9489C122.002 21.6863 124.243 19.3266 125.219 16.5054C125.272 16.353 125.322 16.1954 125.364 16.0382C126.059 15.5055 126.689 14.8471 127.076 14.0755C127.25 13.7483 127.381 13.4014 127.453 13.0325C127.43 13.0555 127.407 13.0785 127.382 13.1023C127.386 13.0893 127.388 13.077 127.391 13.062C126.829 13.6331 126.168 14.0787 125.472 14.4785C125.456 14.3979 125.438 14.318 125.414 14.2378C125.407 14.2085 125.398 14.1801 125.388 14.1496C125.386 14.1437 125.382 14.1358 125.38 14.1299C125.37 14.0995 125.36 14.069 125.348 14.0394C125.345 14.0315 125.342 14.0236 125.338 14.0137C125.327 13.986 125.316 13.9584 125.304 13.9287C125.3 13.9189 125.296 13.909 125.292 13.8991C125.28 13.8714 125.268 13.8466 125.256 13.8217C125.251 13.8098 125.246 13.798 125.24 13.7869C125.227 13.762 125.215 13.7371 125.201 13.715C125.196 13.7012 125.187 13.6909 125.179 13.6779C125.166 13.6558 125.154 13.6328 125.141 13.6107C125.133 13.5977 125.123 13.5835 125.116 13.5704C125.103 13.5503 125.089 13.5282 125.075 13.5088C125.064 13.4946 125.054 13.4804 125.044 13.4662C125.029 13.4469 125.017 13.4287 125.002 13.4094C124.992 13.3951 124.979 13.3797 124.967 13.3663C124.953 13.349 124.939 13.3316 124.923 13.315C124.91 13.2996 124.895 13.285 124.882 13.2696C124.867 13.255 124.853 13.2377 124.838 13.2231C124.823 13.2085 124.807 13.1919 124.79 13.1781C124.775 13.1655 124.762 13.1501 124.746 13.1383C124.728 13.1225 124.71 13.1067 124.691 13.0917C124.677 13.0811 124.663 13.0685 124.649 13.0578C124.629 13.0409 124.606 13.0247 124.584 13.0086C124.571 12.9999 124.56 12.9904 124.547 12.9818C124.512 12.9569 124.476 12.9349 124.439 12.9128C124.436 13.0244 124.43 13.1348 124.424 13.2451C124.422 13.2851 124.419 13.3231 124.416 13.3631C124.412 13.4315 124.406 13.5027 124.401 13.5712C124.396 13.6214 124.393 13.6709 124.388 13.7192C124.382 13.7742 124.376 13.8319 124.37 13.8869C124.364 13.9447 124.357 14.0025 124.35 14.0583C124.346 14.0828 124.344 14.1066 124.34 14.1311C124.318 14.2985 124.291 14.4655 124.262 14.6333C124.262 14.6333 124.262 14.638 124.261 14.6408C124.246 14.7247 124.23 14.8094 124.212 14.8949C124.208 14.91 124.205 14.925 124.202 14.94C124.185 15.0275 124.166 15.113 124.147 15.2013C123.415 15.5905 122.687 15.9896 122.033 16.4922C120.664 17.5422 119.653 19.0454 119.18 20.7038C119.193 19.8188 119.186 18.9742 119.16 18.174C120.583 16.9755 121.787 15.5023 122.559 13.8107C123.289 12.2121 123.616 10.4655 123.94 8.73873C123.927 8.75775 123.914 8.77677 123.901 8.7958C123.908 8.75819 123.915 8.71862 123.921 8.68181C122.192 11.2578 119.796 14.6421 119.142 17.7377C119.099 16.6733 119.028 15.6869 118.933 14.7809C120.329 13.8831 121.255 12.3521 121.601 10.7265C121.931 9.16936 121.762 7.53565 121.297 6.0119C121.262 5.89728 121.227 5.78265 121.189 5.66962C121.247 7.81433 120.755 9.972 119.771 11.8778C119.39 12.6146 118.924 13.3789 118.867 14.1829C118.781 13.4391 118.681 12.7534 118.575 12.1255C119.398 10.8451 119.787 9.32622 120.008 7.81765C120.123 7.02696 120.199 6.22925 120.408 5.45848C120.616 4.68772 120.969 3.93436 121.558 3.394C121.514 3.41152 121.473 3.42825 121.429 3.44577C121.465 3.40849 121.503 3.37239 121.54 3.33906C120.402 3.76341 119.485 4.74178 119.137 5.90653C118.559 7.83459 119.251 10.1165 118.554 11.9891C118.315 10.604 118.047 9.5176 117.823 8.73968C118.071 8.66979 118.365 8.3466 118.447 8.1209C118.536 7.87579 118.537 7.60916 118.561 7.3492C118.606 6.86923 118.735 6.39695 118.736 5.91433C118.736 5.63623 118.693 5.35944 118.613 5.09302C118.516 4.75545 118.358 4.43584 118.145 4.15871C118.007 5.06893 117.962 5.99433 118.009 6.91474C118.037 7.46849 118.011 8.04848 117.768 8.54599C117.72 8.3863 117.674 8.23927 117.633 8.10883C117.716 7.96541 117.704 7.77714 117.65 7.6151C117.649 7.61312 117.648 7.60917 117.646 7.60522C117.64 7.58941 117.637 7.57201 117.632 7.55818C117.576 7.39021 117.485 7.2338 117.429 7.06583C117.366 6.83141 117.38 6.58017 117.324 6.34337C117.317 6.30937 117.305 6.27498 117.295 6.24257C117.198 5.88403 116.945 5.57971 116.646 5.35779C116.334 5.12523 115.975 4.96915 115.619 4.81622C115.647 4.84423 115.672 4.87304 115.699 4.90105C115.677 4.89162 115.658 4.88337 115.636 4.87393C115.871 5.12134 116.107 5.37071 116.309 5.6451C116.487 5.88594 116.639 6.14859 116.732 6.4304C116.738 6.45293 116.745 6.47546 116.752 6.49799C116.819 6.74901 116.836 7.01321 116.911 7.26302C116.92 7.29623 116.93 7.33141 116.94 7.36382C117.044 7.67803 117.257 7.95517 117.53 8.14353C117.613 8.44078 117.692 8.73964 117.768 9.04008C117.268 8.61458 116.898 8.12505 116.6 7.53326C116.329 6.99717 116.154 6.41058 115.834 5.90113C115.332 5.10656 114.472 4.54594 113.543 4.41077C113.593 4.43397 113.642 4.46272 113.69 4.49146C113.648 4.48327 113.603 4.47588 113.559 4.46848C113.949 4.65573 114.255 4.98246 114.502 5.33783C114.749 5.6932 114.938 6.08313 115.157 6.45637C115.829 7.59822 116.707 8.52352 117.816 9.24091C117.996 9.98374 118.152 10.7341 118.282 11.4902C118.234 11.4222 118.188 11.3535 118.139 11.2884C118.152 11.322 118.169 11.352 118.185 11.3848C118.175 11.3726 118.167 11.3576 118.157 11.3453C118.195 11.4287 118.235 11.5113 118.272 11.5954L118.305 11.6163C118.311 11.6531 118.317 11.6898 118.324 11.7258C118.395 12.1798 118.454 12.6357 118.508 13.0941C117.452 12.1669 116.543 11.1024 115.832 9.95354C115.443 9.3248 115.097 8.65363 114.503 8.16034C113.937 7.69031 113.204 7.43435 112.486 7.21396C110.763 6.68413 109.003 6.28891 107.231 6.03415C107.305 6.06402 107.379 6.09389 107.453 6.12375C107.385 6.11444 107.316 6.10315 107.247 6.09187C108.591 6.62745 109.937 7.16422 111.281 7.6998C112.014 7.99215 112.756 8.28804 113.398 8.73452C114.176 9.27519 114.761 10.0019 115.392 10.6798C116.324 11.6801 117.371 12.4088 118.517 13.1894C118.622 14.1163 118.694 15.0521 118.735 15.9931C117.867 14.0899 116.903 12.3147 115.24 11.0307C114.111 10.1579 112.733 9.65684 111.332 9.38803C109.932 9.11843 108.499 9.06689 107.074 9.01888C107.112 9.04014 107.15 9.05942 107.188 9.07871C107.155 9.078 107.123 9.0773 107.09 9.07462C108.799 10.021 110.944 9.87762 112.666 10.7955C113.685 11.3383 114.478 12.2128 115.337 12.9827C116.562 14.0831 117.913 14.7694 118.736 16.1078C118.775 17.0611 118.785 18.0196 118.768 18.9797C118.677 18.6532 118.587 18.3267 118.491 18.0025C118.296 17.3484 118.076 16.7046 117.784 16.0894C117.329 15.1266 116.686 14.2307 115.809 13.6286C114.901 13.0048 113.804 12.7348 112.751 12.4081C110.872 11.8265 109.059 11.0323 107.356 10.049C107.4 10.0889 107.441 10.1295 107.485 10.1693C107.447 10.1481 107.41 10.126 107.372 10.1048C108.653 11.3225 110.099 12.3634 111.662 13.1919C112.722 13.7544 113.838 14.2209 114.825 14.9027C116.448 16.0218 117.63 17.6512 118.759 19.2705C118.74 20.0059 118.706 20.741 118.657 21.475C117.896 19.6272 116.684 16.8543 115.339 16.0232C113.77 15.0546 112.033 14.4042 110.335 13.6899C108.637 12.9757 106.943 12.1748 105.553 10.9665C105.572 10.9957 105.591 11.0269 105.61 11.0561C105.596 11.0455 105.583 11.0348 105.571 11.0234C106.606 12.7288 108.267 13.9562 109.992 14.9583C111.717 15.9605 113.546 16.7847 115.181 17.9287C116.634 18.9463 117.952 20.2664 118.631 21.8876C118.598 22.3304 118.562 22.77 118.518 23.21C118.311 22.7631 118.045 22.3422 117.726 21.9628C117.247 21.3957 116.665 20.93 116.085 20.4676C115.013 19.6136 113.943 18.7588 112.82 17.9734C110.901 16.6269 108.845 15.4852 106.796 14.347C106.816 14.3734 106.836 14.3999 106.857 14.4283C106.842 14.4205 106.827 14.4126 106.813 14.4047C108.411 16.6201 110.475 18.4983 112.829 19.8829C113.946 20.5398 115.132 21.0884 116.196 21.8309C117.097 22.4578 117.922 23.2507 118.414 24.2214C118.327 24.9914 118.226 25.7603 118.113 26.5225C118.088 26.4221 118.059 26.3213 118.029 26.2233C117.638 24.9244 116.777 23.7673 115.75 22.8653C114.466 21.7382 112.926 20.9488 111.411 20.1585C109.895 19.3682 108.366 18.5538 107.115 17.3882C107.124 17.4099 107.133 17.4317 107.141 17.4534C107.14 17.4495 107.134 17.4471 107.131 17.4459C107.768 19.0934 109.146 20.3477 110.625 21.3157C112.104 22.2837 113.721 23.0286 115.174 24.0299C116.32 24.822 117.383 25.8176 118.035 27.0315C117.866 28.115 117.673 29.1872 117.459 30.2452C117.361 29.8435 117.255 29.4431 117.136 29.0454C116.694 27.5608 116.06 26.1534 114.905 25.158C113.532 23.973 111.515 23.5848 109.797 24.1737C109.825 24.1855 109.853 24.1972 109.881 24.209C109.859 24.2178 109.836 24.2226 109.814 24.2314C113.178 25.6152 115.898 28.4858 117.103 31.9159C117.048 32.1609 116.993 32.4059 116.936 32.6518C115.32 30.5353 113.687 28.4213 111.842 26.5053C111.704 26.3613 111.566 26.2193 111.426 26.078C110.207 24.847 108.894 23.7089 107.503 22.6754C108.024 23.7401 108.627 24.7627 109.3 25.7384C110.161 27.0015 111.143 28.1837 112.227 29.2651C111.562 29.0576 110.851 28.9974 110.164 29.1045C110.202 29.119 110.24 29.1335 110.28 29.1473C110.247 29.1513 110.214 29.1554 110.182 29.1614C112.136 29.8619 113.752 31.4478 114.488 33.3882C114.856 34.3583 115.397 35.2612 116.074 36.047C115.939 36.5426 115.799 37.0332 115.658 37.515C114.614 35.2325 113.355 33.0205 111.581 31.2527C109.659 29.34 107.059 27.9834 104.348 28.0286C104.411 28.047 104.473 28.0655 104.535 28.0867C104.477 28.0868 104.422 28.0862 104.365 28.0863C106.896 28.8276 109.11 30.4226 110.949 32.3133C112.664 34.0774 114.084 36.1006 115.477 38.1322C115.377 38.4643 115.278 38.7937 115.175 39.12C114.632 37.9378 113.906 36.8432 113.031 35.8819C111.232 33.9084 108.866 32.563 106.542 31.2488C106.566 31.2784 106.591 31.3072 106.614 31.3368C106.596 31.3257 106.578 31.3147 106.559 31.3065C107.355 32.2806 108.159 33.2592 109.131 34.0592C109.996 34.7693 110.978 35.3245 111.879 35.9878C113.135 36.9149 114.231 38.0556 115.106 39.3476C114.95 39.8492 114.79 40.341 114.63 40.8232C114.09 40.058 113.551 39.2901 113.01 38.5249C112.416 37.6827 111.815 36.8314 111.042 36.1487C110.408 35.591 109.67 35.1559 108.93 34.7283C108.681 34.4338 108.421 34.1481 108.151 33.8731C107.934 33.4714 107.799 33.2158 107.799 33.2158C107.799 33.2158 107.909 33.4426 108.097 33.8171C108.085 33.8057 108.073 33.7922 108.061 33.7808C108.069 33.8006 108.075 33.8211 108.08 33.8397C108.08 33.8397 108.08 33.8397 108.08 33.8377C108.101 33.9025 108.122 33.9654 108.141 34.031C108.053 33.8279 107.963 33.6228 107.876 33.4189C107.943 33.6747 107.989 33.9365 108.025 34.1974C107.21 33.7036 106.445 33.1621 105.87 32.4084C105.876 32.427 105.882 32.4476 105.887 32.4661C106.228 33.7066 107.013 34.8212 108.067 35.5609C108.092 35.5783 108.77 36.0353 108.796 36.0527C108.844 36.8231 109.229 37.4764 109.588 38.2393C110.083 39.2982 110.812 40.2286 111.738 40.9418C112.757 41.7255 113.153 42.2573 114.002 43.1458C111.848 49.1732 109.587 53.3369 109.587 53.3369L109.78 53.5255C109.762 53.5604 109.754 53.5798 109.754 53.5798L109.762 53.5651ZM119.639 22.269C119.473 22.3981 119.303 22.5239 119.13 22.6466C119.156 22.0801 119.175 21.5282 119.186 20.9909C119.955 19.8907 120.922 18.9269 122.022 18.1592C122.497 17.8276 122.997 17.5344 123.497 17.2411C123.467 17.3104 123.439 17.3769 123.409 17.4462C123.394 17.4775 123.382 17.508 123.367 17.5413C123.328 17.626 123.289 17.7108 123.249 17.7956C123.233 17.8296 123.216 17.8617 123.2 17.8958C123.165 17.9675 123.127 18.04 123.09 18.1125C123.071 18.1501 123.051 18.1877 123.031 18.2234C122.996 18.2903 122.961 18.3553 122.925 18.4203C122.905 18.4559 122.886 18.4908 122.866 18.5265C122.822 18.6041 122.777 18.6818 122.732 18.7574C122.71 18.7939 122.688 18.8303 122.665 18.8696C122.632 18.9243 122.597 18.9797 122.564 19.0344C122.532 19.0863 122.498 19.139 122.463 19.1897C122.429 19.2424 122.393 19.296 122.358 19.3495C122.33 19.3903 122.301 19.4319 122.274 19.4727C122.227 19.5397 122.181 19.6067 122.133 19.6744C122.101 19.7168 122.069 19.762 122.038 19.8044C122.009 19.8413 121.983 19.8794 121.954 19.9162C121.901 19.9884 121.846 20.0585 121.79 20.1295C121.764 20.1628 121.739 20.1961 121.71 20.2282C121.672 20.2758 121.634 20.3234 121.594 20.3717C121.574 20.3959 121.553 20.4201 121.531 20.4451C121.462 20.5283 121.391 20.6096 121.318 20.6917C121.299 20.7131 121.28 20.7345 121.262 20.7559C121.172 20.8539 121.083 20.9518 120.993 21.0458C120.989 21.0474 120.986 21.053 120.983 21.0565C120.933 21.1089 120.883 21.1612 120.832 21.2116C120.826 21.2187 120.819 21.2239 120.812 21.231C120.716 21.3274 120.618 21.4218 120.519 21.5171C120.51 21.525 120.5 21.5337 120.492 21.5416C120.22 21.7959 119.937 22.0388 119.642 22.2702C119.642 22.2702 119.642 22.2702 119.64 22.271L119.639 22.269ZM117.751 38.7657C117.201 38.8982 116.649 39.1069 116.207 39.4527C116.373 38.8735 116.531 38.3022 116.681 37.7389C118.416 37.724 120.027 36.7691 121.756 36.5702C122.07 36.5333 122.383 36.5242 122.7 36.523C121.995 37.3674 121.043 38.0085 119.987 38.3171C119.258 38.5307 118.492 38.5913 117.752 38.7677L117.751 38.7657ZM115.063 31.6682C115.653 32.101 116.265 32.502 116.894 32.8777C116.695 33.7181 116.486 34.549 116.268 35.3601C116.145 34.7299 116.009 34.1025 115.822 33.489C115.736 33.2021 115.64 32.9191 115.531 32.6417C115.396 32.3078 115.242 31.9818 115.065 31.6674L115.063 31.6682ZM110.466 36.8793C110.654 36.9939 110.839 37.1169 111.013 37.2513C111.77 37.8371 112.336 38.6291 112.932 39.3788C113.412 39.9823 113.936 40.5771 114.577 40.9986C114.382 41.587 114.185 42.1627 113.989 42.7194C113.955 42.4347 113.905 42.1516 113.823 41.886C113.715 41.5093 113.548 41.1584 113.28 40.8692C112.971 40.5365 112.557 40.3177 112.226 40.0053C111.705 39.5082 111.436 38.8127 111.134 38.1604C110.932 37.7226 110.707 37.2964 110.464 36.8821L110.466 36.8793ZM118.519 13.1312C118.519 13.1312 118.519 13.1312 118.52 13.1332C118.518 13.1292 118.512 13.1269 118.509 13.1237C118.512 13.1269 118.515 13.1281 118.519 13.1312Z" fill="white"/>
</g>
</svg>
