<svg width="455" height="415" viewBox="0 0 455 415" fill="none" xmlns="http://www.w3.org/2000/svg">
<path d="M130.329 86.745C125.991 82.7392 122.862 78.3673 121.023 73.7557C120.446 72.3037 119.988 70.8115 119.547 69.3664C119.156 68.0813 118.763 66.7982 118.288 65.5443C115.245 57.5383 108.63 51.011 100.595 48.086L101.407 45.8542C110.084 49.0099 117.224 56.0545 120.508 64.7003C121.004 66.0023 121.414 67.3379 121.821 68.67C122.248 70.0686 122.69 71.5165 123.23 72.8761C124.937 77.1567 127.867 81.234 131.942 85.0007L130.329 86.745Z" fill="#E4C26D"/>
<path d="M136.365 106.113C133.353 102.427 129.203 98.9871 125.26 96.9058L124.047 96.2919C122.484 95.5074 120.867 94.6979 119.468 93.484C117.249 91.563 115.952 88.9693 114.978 86.6856C113.896 84.1536 113.022 81.517 112.177 78.9708C111.387 76.5908 110.572 74.1272 109.598 71.7979C107.232 66.1291 104.293 62.2634 100.61 59.9699L101.866 57.9518C105.983 60.5145 109.228 64.7426 111.791 70.8799C112.798 73.2927 113.628 75.8003 114.433 78.2214C115.262 80.7236 116.122 83.3084 117.164 85.7549C118.032 87.7872 119.169 90.0808 121.023 91.6891C122.196 92.7053 123.613 93.4162 125.113 94.1676C125.533 94.3774 125.951 94.5867 126.367 94.8022C130.578 97.0273 135.002 100.69 138.204 104.607L136.365 106.113Z" fill="#E4C26D"/>
<path d="M123.772 60.059C121.195 57.674 118.096 53.3925 116.564 50.095C116.177 49.2629 115.836 48.4122 115.495 47.5641C115.187 46.7944 114.88 46.0247 114.537 45.2739C111.805 39.3629 106.186 35.2903 100.749 31.3542L99.2306 30.2521L100.632 28.3337L102.143 29.4309C107.824 33.5452 113.701 37.8001 116.694 44.2823C117.055 45.0698 117.378 45.8732 117.7 46.6814C118.025 47.488 118.351 48.3025 118.719 49.0923C120.116 52.0974 123.043 56.15 125.386 58.3148L123.772 60.059Z" fill="#E4C26D"/>
<path d="M175.715 182.758C174.501 177.431 175.653 171.434 179.235 164.429C180.215 162.514 181.294 160.642 182.371 158.77C184.283 155.452 186.26 152.016 187.594 148.41C190.017 141.864 189.881 135.549 187.23 131.522L189.214 130.214C192.282 134.871 192.509 141.981 189.824 149.237C188.419 153.026 186.391 156.55 184.431 159.956C183.371 161.795 182.313 163.632 181.349 165.514C178.034 172 176.948 177.469 178.032 182.23L175.715 182.758Z" fill="#E4C26D"/>
<path d="M186.638 199.159C186.1 199.006 185.73 198.488 185.783 197.912C186.186 193.416 189.092 189.68 191.242 187.259C191.676 186.769 192.427 186.714 192.919 187.161C193.412 187.598 193.456 188.348 193.02 188.839C191.091 191.01 188.489 194.329 188.149 198.121C188.092 198.776 187.513 199.258 186.861 199.199C186.783 199.194 186.709 199.18 186.638 199.159Z" fill="#E4C26D"/>
<path d="M195.878 183.226C195.708 183.178 195.548 183.091 195.409 182.963C194.922 182.523 194.886 181.772 195.325 181.287C196.965 179.474 198.239 177.416 199.111 175.172C199.352 174.558 200.037 174.273 200.65 174.493C201.261 174.733 201.565 175.42 201.326 176.031C200.347 178.551 198.922 180.854 197.087 182.879C196.773 183.228 196.301 183.347 195.878 183.226Z" fill="#E4C26D"/>
<path d="M189.55 170.431C189.447 170.402 189.348 170.358 189.254 170.303C188.694 169.958 188.516 169.228 188.86 168.67C189.705 167.291 190.601 165.949 191.498 164.607C192.77 162.71 194.085 160.745 195.192 158.729C195.512 158.149 195.826 157.602 196.132 157.076C197.61 154.508 198.679 152.651 198.615 149.696C198.599 149.041 199.122 148.497 199.777 148.484C200.437 148.462 200.977 148.989 200.99 149.647C201.07 153.264 199.735 155.583 198.189 158.263C197.894 158.777 197.584 159.31 197.274 159.876C196.118 161.981 194.773 163.986 193.476 165.929C192.594 167.245 191.713 168.559 190.886 169.909C190.601 170.375 190.049 170.574 189.55 170.431Z" fill="#E4C26D"/>
<path d="M184.818 180.128C184.74 180.106 184.664 180.076 184.593 180.037C184.01 179.736 183.784 179.016 184.087 178.437C184.936 176.81 185.799 175.177 186.655 173.554C186.962 172.974 187.681 172.745 188.262 173.059C188.841 173.365 189.065 174.084 188.758 174.664C187.902 176.282 187.04 177.912 186.195 179.532C185.931 180.044 185.348 180.279 184.818 180.128Z" fill="#E4C26D"/>
<path d="M190.082 160.416C189.927 160.372 189.777 160.292 189.645 160.183C189.144 159.759 189.079 159.008 189.502 158.505C192.812 154.573 195.121 149.823 196.182 144.767C196.317 144.124 196.948 143.712 197.59 143.851C198.24 143.967 198.642 144.614 198.508 145.255C197.366 150.694 194.882 155.806 191.318 160.036C191.009 160.406 190.519 160.541 190.082 160.416Z" fill="#E4C26D"/>
<path d="M164.825 140.923C164.309 140.776 163.941 140.291 163.965 139.729C164.244 133.308 168.01 127.801 171.334 122.939C174.823 117.829 177.959 112.792 178.016 107.338C178.023 106.682 178.561 106.153 179.217 106.161C179.87 106.178 180.4 106.707 180.392 107.36C180.329 113.481 177 118.854 173.294 124.278C170.152 128.877 166.589 134.091 166.339 139.833C166.312 140.488 165.755 140.996 165.101 140.968C165.006 140.962 164.912 140.948 164.825 140.923Z" fill="#E4C26D"/>
<path d="M166.352 143.929C165.79 143.769 165.42 143.216 165.503 142.624C166.308 136.829 170.101 131.932 173.446 127.61C177.07 122.934 180.107 118.655 180.567 113.641C180.628 112.988 181.206 112.507 181.86 112.568C182.519 112.626 182.994 113.205 182.935 113.858C182.416 119.501 179.04 124.274 175.326 129.067C172.006 133.354 168.574 137.782 167.858 142.95C167.767 143.601 167.165 144.053 166.518 143.963C166.461 143.955 166.404 143.944 166.352 143.929Z" fill="#E4C26D"/>
<path d="M168.173 151.888C167.693 151.75 167.333 151.32 167.312 150.795C167.226 148.72 167.127 146.368 167.551 144.08C168.172 140.692 169.938 137.54 172.527 135.209C173.013 134.772 173.767 134.815 174.206 135.298C174.645 135.785 174.606 136.535 174.118 136.974C171.917 138.956 170.415 141.633 169.887 144.512C169.511 146.535 169.605 148.748 169.688 150.694C169.716 151.349 169.206 151.904 168.55 151.931C168.418 151.939 168.291 151.921 168.173 151.888Z" fill="#E4C26D"/>
<path d="M170.682 163.49C170.151 163.338 169.779 162.827 169.823 162.255C170.354 155.413 174.505 149.345 177.842 144.47C178.213 143.93 178.954 143.789 179.493 144.16C180.034 144.531 180.173 145.269 179.803 145.814C176.461 150.697 172.674 156.233 172.193 162.438C172.143 163.095 171.572 163.582 170.918 163.533C170.837 163.528 170.756 163.511 170.682 163.49Z" fill="#E4C26D"/>
<path d="M172.722 173.709C172.24 173.571 171.879 173.136 171.859 172.61C171.674 167.396 174.44 162.618 176.532 159.48C177.139 158.57 177.769 157.671 178.403 156.771C180.373 153.963 182.236 151.311 183.43 148.287C183.671 147.677 184.357 147.362 184.97 147.619C185.582 147.857 185.88 148.55 185.641 149.158C184.342 152.444 182.312 155.34 180.347 158.137C179.725 159.02 179.106 159.903 178.51 160.798C176.599 163.665 174.074 167.996 174.236 172.524C174.259 173.18 173.747 173.73 173.09 173.754C172.962 173.757 172.84 173.743 172.722 173.709Z" fill="#E4C26D"/>
<path d="M185.567 144.978C184.95 144.801 184.582 144.166 184.743 143.54C185.165 141.887 185.435 140.195 185.538 138.511C185.578 137.854 186.141 137.357 186.798 137.396C187.453 137.448 187.949 138.002 187.91 138.657C187.795 140.49 187.504 142.329 187.045 144.13C186.883 144.763 186.236 145.148 185.598 144.985C185.588 144.983 185.577 144.98 185.567 144.978Z" fill="#E4C26D"/>
<path d="M158.339 131.028C157.895 130.902 157.545 130.519 157.485 130.029C157.043 126.39 158.426 123.009 159.763 119.744C160.093 118.943 160.417 118.146 160.716 117.347C161.607 114.946 162.24 112.495 162.589 110.066C162.69 109.417 162.873 108.685 163.071 107.916C163.496 106.258 164.024 104.197 163.346 103.289C162.952 102.765 163.058 102.02 163.584 101.626C164.11 101.237 164.857 101.341 165.247 101.866C166.609 103.681 165.951 106.246 165.374 108.507C165.197 109.189 165.029 109.842 164.94 110.414C164.566 113.001 163.894 115.617 162.942 118.175C162.637 119.001 162.3 119.819 161.964 120.643C160.686 123.765 159.477 126.717 159.845 129.743C159.925 130.393 159.461 130.987 158.809 131.065C158.648 131.088 158.489 131.071 158.339 131.028Z" fill="#E4C26D"/>
<path d="M149.581 123.388C149.527 123.372 149.476 123.353 149.424 123.329C146.867 122.193 144.312 121.046 141.761 119.895C138.735 118.529 135.692 117.153 132.885 115.382C129.16 113.037 125.818 109.931 123.212 106.398C122.823 105.87 122.935 105.127 123.465 104.736C123.994 104.346 124.735 104.462 125.124 104.988C127.555 108.283 130.676 111.183 134.15 113.374C136.82 115.053 139.788 116.395 142.657 117.692C145.286 118.876 147.838 120.022 150.39 121.158C150.989 121.424 151.259 122.128 150.991 122.728C150.748 123.275 150.14 123.547 149.581 123.388Z" fill="#E4C26D"/>
<path d="M140.853 125.634C127.519 121.828 115.966 111.745 110.64 98.9189C110.389 98.3131 110.675 97.6173 111.282 97.365C111.888 97.1125 112.583 97.4009 112.834 98.0061C118.481 111.607 131.51 121.963 146.021 124.367C146.655 124.472 147.297 124.565 147.938 124.658C150.803 125.071 153.767 125.497 156.381 127.009C156.952 127.333 157.147 128.061 156.819 128.63C156.495 129.199 155.758 129.393 155.197 129.067C152.974 127.792 150.365 127.41 147.597 127.011C146.939 126.915 146.282 126.818 145.631 126.711C144.019 126.444 142.423 126.082 140.853 125.634Z" fill="#E4C26D"/>
<path d="M168.092 152.177C167.748 152.079 167.455 151.828 167.313 151.471C165.797 147.662 164.077 143.344 161.361 139.869C157.215 134.568 150.453 131.242 143.725 131.199C143.073 131.198 142.542 130.66 142.545 130.003C142.55 129.349 143.085 128.82 143.741 128.821C151.292 128.875 158.582 132.457 163.233 138.405C166.16 142.152 167.945 146.633 169.52 150.594C169.764 151.203 169.465 151.895 168.857 152.136C168.605 152.236 168.335 152.247 168.092 152.177Z" fill="#E4C26D"/>
<path d="M191.208 206.357C191.07 206.318 190.936 206.253 190.815 206.161C186.689 203.032 178.54 200.161 168.222 196.527C166.389 195.882 164.497 195.215 162.551 194.522C154.554 191.664 143.298 186.725 137.876 176.869C137.12 175.501 136.498 174.073 135.893 172.69C135.352 171.441 134.789 170.148 134.144 168.952C131.11 163.288 126.052 159.014 121.163 154.879C120.662 154.459 120.599 153.709 121.023 153.206C121.446 152.706 122.197 152.639 122.697 153.068C127.523 157.145 132.992 161.766 136.237 167.829C136.928 169.11 137.51 170.447 138.073 171.739C138.681 173.133 139.255 174.453 139.957 175.721C144.992 184.871 155.718 189.556 163.351 192.282C165.293 192.976 167.183 193.643 169.009 194.288C179.525 197.989 187.83 200.915 192.251 204.268C192.775 204.666 192.878 205.409 192.48 205.934C192.175 206.334 191.663 206.487 191.208 206.357Z" fill="#E4C26D"/>
<path d="M203.301 224.859C203.115 224.806 202.94 224.707 202.792 224.561C192.946 214.822 179.339 209.134 167.335 204.108C166.728 203.856 166.445 203.158 166.698 202.554C166.95 201.95 167.663 201.64 168.252 201.916C180.454 207.022 194.286 212.81 204.462 222.87C204.93 223.331 204.935 224.083 204.473 224.551C204.158 224.871 203.704 224.974 203.301 224.859Z" fill="#E4C26D"/>
<path d="M182.556 194.93C182.431 194.895 182.311 194.837 182.197 194.757C181.4 194.194 180.675 193.649 179.979 193.122C178.01 191.633 176.312 190.347 173.808 189.453C171.579 188.642 169.237 188.291 166.759 187.911C165.335 187.69 163.911 187.471 162.508 187.166C157.349 186.045 152.418 183.736 148.232 180.472C147.716 180.066 147.624 179.32 148.026 178.804C148.43 178.287 149.183 178.197 149.694 178.597C153.601 181.642 158.2 183.816 163.013 184.844C164.367 185.14 165.745 185.348 167.12 185.561C169.6 185.944 172.165 186.337 174.61 187.213C177.454 188.233 179.38 189.686 181.412 191.226C182.088 191.739 182.79 192.27 183.567 192.816C184.103 193.194 184.231 193.934 183.853 194.472C183.554 194.896 183.027 195.065 182.556 194.93Z" fill="#E4C26D"/>
<path d="M177.475 185.595C177.186 185.513 176.93 185.323 176.769 185.045C175.349 182.567 172.044 180.372 167.702 179.016C166.121 178.522 164.441 178.132 162.817 177.764C160.764 177.292 158.64 176.804 156.594 176.075C149.559 173.546 143.878 168.232 138.863 163.542C138.385 163.091 138.359 162.34 138.808 161.861C139.258 161.381 140.008 161.357 140.486 161.806C145.331 166.339 150.822 171.478 157.396 173.835C159.304 174.52 161.359 174.99 163.346 175.446C165.013 175.829 166.735 176.228 168.412 176.744C171.293 177.648 176.481 179.769 178.832 183.863C179.158 184.429 178.961 185.155 178.392 185.484C178.102 185.65 177.771 185.68 177.475 185.595Z" fill="#E4C26D"/>
<path d="M136.656 161.045C136.472 160.992 136.299 160.894 136.151 160.75C135.305 159.917 134.466 159.101 133.615 158.276C133.143 157.822 133.131 157.068 133.585 156.598C134.044 156.123 134.794 156.107 135.266 156.57C136.124 157.394 136.964 158.217 137.815 159.052C138.286 159.514 138.293 160.265 137.831 160.733C137.517 161.055 137.061 161.161 136.656 161.045Z" fill="#E4C26D"/>
<path d="M174.079 181.475C173.677 181.361 173.351 181.04 173.247 180.609C172.495 177.453 169.666 174.62 165.488 172.835C161.726 171.227 157.56 170.52 153.639 168.952C142.429 164.459 135.007 153.753 129.041 145.148C128.665 144.609 128.799 143.868 129.34 143.497C129.88 143.119 130.62 143.254 130.995 143.795C136.777 152.138 143.974 162.519 154.522 166.745C158.335 168.272 162.518 168.985 166.422 170.649C171.301 172.731 174.63 176.161 175.56 180.056C175.711 180.694 175.316 181.335 174.68 181.486C174.474 181.536 174.267 181.529 174.079 181.475Z" fill="#E4C26D"/>
<path d="M138.244 132.151C138.151 132.125 138.062 132.086 137.977 132.038L130.838 127.909C128.317 126.449 125.726 124.944 123.408 123.074C120.771 120.939 118.51 118.333 116.515 116.037C114.393 113.599 111.833 110.865 109.356 108.22C106.905 105.609 104.372 102.907 102.252 100.475C101.82 99.9813 101.873 99.2299 102.368 98.7971C102.859 98.3663 103.612 98.418 104.044 98.911C106.136 101.311 108.653 103.998 111.089 106.597C113.581 109.257 116.159 112.007 118.306 114.479C120.24 116.703 122.428 119.221 124.902 121.228C127.077 122.979 129.587 124.439 132.018 125.848L139.161 129.976C139.729 130.304 139.927 131.032 139.6 131.6C139.323 132.081 138.755 132.297 138.244 132.151Z" fill="#E4C26D"/>
<path d="M140.094 140.81C139.867 140.745 139.656 140.611 139.496 140.411C135.922 135.958 130.019 133.3 124.309 130.73C119.372 128.507 114.267 126.206 110.451 122.707C109.97 122.259 109.936 121.509 110.38 121.029C110.825 120.542 111.572 120.51 112.059 120.956C115.592 124.198 120.519 126.415 125.286 128.564C131.251 131.249 137.418 134.026 141.347 138.923C141.759 139.435 141.678 140.183 141.165 140.594C140.854 140.844 140.452 140.912 140.094 140.81Z" fill="#E4C26D"/>
<path d="M163.176 171.644C163.088 171.619 163.004 171.581 162.919 171.533C160.622 170.239 157.946 168.171 155.589 166.346C154.952 165.855 154.343 165.385 153.778 164.956C151.358 163.137 148.854 161.249 146.774 158.908C144.378 156.212 142.907 153.236 142.523 150.295C142.434 149.646 142.892 149.05 143.543 148.963C144.198 148.881 144.792 149.336 144.876 149.986C145.201 152.453 146.472 154.991 148.551 157.33C150.474 159.493 152.881 161.306 155.209 163.06C155.781 163.493 156.396 163.97 157.042 164.466C159.335 166.242 161.939 168.256 164.087 169.467C164.659 169.788 164.86 170.514 164.536 171.085C164.261 171.57 163.692 171.791 163.176 171.644Z" fill="#E4C26D"/>
<path d="M171.479 170.107C171.103 169.999 170.787 169.709 170.666 169.309C167.636 159.261 161.746 150.929 157.339 145.706C156.912 145.206 156.978 144.456 157.478 144.032C157.98 143.61 158.73 143.673 159.153 144.175C163.707 149.567 169.795 158.185 172.942 168.621C173.13 169.251 172.776 169.914 172.146 170.102C171.92 170.17 171.691 170.167 171.479 170.107Z" fill="#E4C26D"/>
<path d="M327.461 312.208C327.439 312.202 327.418 312.193 327.394 312.186C326.776 311.97 326.449 311.293 326.665 310.672C327.143 309.296 327.424 307.83 327.721 306.279C328.283 303.328 328.865 300.28 330.922 297.879C331.683 296.991 332.573 296.28 333.432 295.595C333.775 295.32 334.117 295.048 334.452 294.762C337.631 292.033 339.741 288.207 341.624 284.526C341.924 283.94 342.641 283.714 343.226 284.007C343.809 284.309 344.041 285.025 343.74 285.607C341.745 289.503 339.505 293.554 335.996 296.567C335.641 296.868 335.28 297.159 334.914 297.451C334.106 298.098 333.34 298.707 332.726 299.422C331.082 301.346 330.582 303.96 330.053 306.722C329.756 308.292 329.446 309.914 328.911 311.453C328.701 312.052 328.063 312.38 327.461 312.208Z" fill="#E4C26D"/>
<path d="M342.767 281.52C342.747 281.515 342.726 281.507 342.704 281.5C342.084 281.283 341.756 280.608 341.972 279.99C342.474 278.535 342.989 277.074 343.506 275.607C343.726 274.993 344.383 274.7 345.023 274.884C345.643 275.104 345.964 275.782 345.748 276.403C345.232 277.857 344.718 279.315 344.218 280.763C344.01 281.363 343.368 281.692 342.767 281.52Z" fill="#E4C26D"/>
<path d="M328.265 317.515C327.685 317.35 327.313 316.774 327.423 316.168C329.199 306.072 334.139 297.656 341.33 292.467C341.862 292.083 342.605 292.203 342.99 292.736C343.372 293.267 343.255 294.011 342.72 294.393C336.034 299.22 331.431 307.098 329.764 316.579C329.648 317.226 329.03 317.658 328.386 317.543C328.343 317.536 328.304 317.527 328.265 317.515Z" fill="#E4C26D"/>
<path d="M326.294 299.345C326.27 299.338 326.244 299.328 326.217 299.32C325.601 299.099 325.279 298.418 325.501 297.8C326.683 294.502 328.923 291.469 331.09 288.535C332.425 286.729 333.686 285.025 334.686 283.299C337.055 279.212 338.427 274.562 338.654 269.85C338.685 269.195 339.244 268.688 339.898 268.722C340.554 268.747 341.06 269.31 341.027 269.963C340.783 275.052 339.302 280.075 336.742 284.488C335.673 286.333 334.316 288.171 333.002 289.948C330.938 292.743 328.802 295.633 327.738 298.604C327.526 299.196 326.891 299.515 326.294 299.345Z" fill="#E4C26D"/>
<path d="M329.859 278.046C329.752 278.015 329.649 277.969 329.551 277.904C328.997 277.556 328.829 276.822 329.177 276.268C331.311 272.887 334.79 266.153 334.132 259.026C334.074 258.37 334.553 257.794 335.209 257.735C335.865 257.679 336.44 258.158 336.5 258.809C337.219 266.636 333.48 273.901 331.19 277.535C330.901 277.991 330.353 278.187 329.859 278.046Z" fill="#E4C26D"/>
<path d="M335.518 251.412C334.968 251.255 334.595 250.718 334.664 250.132C335.054 246.831 335.141 243.441 334.927 240.052C334.887 239.397 335.384 238.83 336.038 238.79C336.694 238.75 337.258 239.246 337.299 239.9C337.524 243.43 337.431 246.967 337.026 250.407C336.948 251.059 336.357 251.527 335.705 251.45C335.641 251.442 335.579 251.429 335.518 251.412Z" fill="#E4C26D"/>
<path d="M346.19 271.955C346.072 271.922 345.955 271.87 345.851 271.798C345.306 271.428 345.166 270.69 345.534 270.148C346.542 268.656 347.254 266.929 347.592 265.152C347.715 264.507 348.335 264.084 348.983 264.206C349.603 264.341 350.048 264.949 349.926 265.596C349.53 267.69 348.69 269.724 347.5 271.478C347.206 271.915 346.669 272.092 346.19 271.955Z" fill="#E4C26D"/>
<path d="M343.874 260.062C343.309 259.901 342.939 259.348 343.024 258.751L343.67 254.285C343.762 253.638 344.365 253.184 345.014 253.279C345.668 253.368 346.114 253.974 346.024 254.622L345.379 259.087C345.283 259.738 344.681 260.189 344.031 260.097C343.978 260.089 343.923 260.076 343.874 260.062Z" fill="#E4C26D"/>
<path d="M323.925 261.622C323.534 261.51 323.212 261.202 323.103 260.78C320.21 249.789 323.24 237.929 331.203 229.045C331.643 228.558 332.392 228.518 332.88 228.956C333.371 229.395 333.41 230.146 332.972 230.635C325.543 238.919 322.711 249.962 325.398 260.176C325.566 260.809 325.188 261.459 324.55 261.626C324.339 261.682 324.123 261.678 323.925 261.622Z" fill="#E4C26D"/>
<path d="M328.51 269.407C328.063 269.279 327.714 268.89 327.656 268.4C326.774 260.709 327.539 251.654 329.713 244.177C329.895 243.547 330.551 243.185 331.179 243.364C331.179 243.364 331.182 243.365 331.184 243.365C331.813 243.55 332.178 244.21 331.993 244.838C329.907 252.028 329.167 260.733 330.017 268.127C330.09 268.78 329.624 269.368 328.973 269.444C328.812 269.462 328.657 269.449 328.51 269.407Z" fill="#E4C26D"/>
<path d="M325.753 304.744C325.362 304.632 325.04 304.323 324.93 303.903C324.018 300.487 320.431 297.316 317.546 294.773L317.031 294.319C309.451 287.587 303.775 278.949 300.615 269.327C300.41 268.704 300.75 268.032 301.373 267.83C302 267.622 302.667 267.964 302.872 268.588C305.903 277.809 311.345 286.093 318.606 292.54L319.118 292.99C322.243 295.747 326.133 299.179 327.226 303.295C327.394 303.93 327.019 304.578 326.384 304.746C326.169 304.804 325.953 304.801 325.753 304.744Z" fill="#E4C26D"/>
<path d="M327.158 314.778C326.785 314.671 326.47 314.383 326.346 313.986C324.972 309.507 321.775 306.752 318.386 303.834C316.665 302.354 314.887 300.821 313.358 299.045C312.932 298.547 312.99 297.798 313.485 297.37C313.986 296.94 314.732 297.002 315.162 297.494C316.575 299.138 318.207 300.544 319.937 302.032C323.432 305.041 327.045 308.153 328.62 313.287C328.811 313.915 328.46 314.581 327.832 314.772C327.605 314.842 327.371 314.838 327.158 314.778Z" fill="#E4C26D"/>
<path d="M325.311 300.385C324.861 300.257 324.512 299.869 324.454 299.375C324.139 296.514 323.068 293.777 321.368 291.462C320.805 290.701 320.181 289.989 319.559 289.278C318.818 288.429 318.051 287.551 317.374 286.587C314.975 283.201 314.009 279.187 313.067 275.307C312.913 274.671 313.306 274.027 313.944 273.876C314.581 273.717 315.224 274.115 315.379 274.748C316.263 278.411 317.181 282.196 319.319 285.217C319.926 286.083 320.617 286.875 321.348 287.713C322.014 288.474 322.679 289.238 323.281 290.054C325.231 292.707 326.452 295.839 326.819 299.111C326.889 299.763 326.42 300.351 325.77 300.424C325.609 300.442 325.457 300.427 325.311 300.385Z" fill="#E4C26D"/>
<path d="M327.642 292.217C327.18 292.085 326.827 291.68 326.782 291.173C326.316 285.525 324.83 279.987 322.806 276.353C321.868 274.656 320.727 273.114 319.517 271.484C318.613 270.258 317.709 269.038 316.896 267.754C312.328 260.521 310.944 251.783 309.725 244.078C309.622 243.43 310.065 242.819 310.713 242.718C311.353 242.615 311.97 243.056 312.072 243.707C313.257 251.188 314.6 259.664 318.904 266.481C319.686 267.714 320.558 268.891 321.428 270.067C322.63 271.69 323.872 273.369 324.885 275.199C327.062 279.112 328.657 285.01 329.151 290.977C329.205 291.63 328.721 292.205 328.066 292.259C327.919 292.273 327.776 292.255 327.642 292.217Z" fill="#E4C26D"/>
<path d="M312.195 271.175C311.802 271.063 311.477 270.748 311.368 270.323L310.114 265.455C309.957 264.819 310.34 264.172 310.976 264.01C311.613 263.851 312.258 264.238 312.42 264.869L313.674 269.736C313.833 270.373 313.45 271.021 312.812 271.182C312.604 271.236 312.391 271.231 312.195 271.175Z" fill="#E4C26D"/>
<path d="M319.197 230.504C318.762 230.38 318.418 230.012 318.348 229.535C317.84 226.174 315.525 223.502 313.076 220.671C311.574 218.934 310.019 217.137 308.848 215.119C306.325 210.751 305.2 205.55 304.115 200.524C303.631 198.276 303.173 196.155 302.601 194.112C302.424 193.483 302.792 192.824 303.424 192.647C304.059 192.469 304.712 192.838 304.886 193.469C305.483 195.585 305.967 197.841 306.439 200.025C307.485 204.87 308.566 209.884 310.908 213.93C311.961 215.754 313.443 217.461 314.872 219.114C317.436 222.076 320.086 225.139 320.695 229.185C320.793 229.831 320.345 230.436 319.696 230.536C319.522 230.56 319.353 230.549 319.197 230.504Z" fill="#E4C26D"/>
<path d="M318.23 243.488C317.661 243.326 317.289 242.766 317.38 242.168C317.596 240.764 317.115 239.42 316.68 238.539C316.197 237.579 315.554 236.692 314.869 235.751L314.493 235.232C310.415 229.542 307.497 223.086 304.676 216.844C304.405 216.248 304.658 215.517 305.259 215.247C305.857 214.976 306.549 215.219 306.817 215.816L306.842 215.869C309.617 222.002 312.482 228.348 316.423 233.844L316.79 234.354C317.5 235.331 318.235 236.339 318.804 237.477C319.655 239.182 319.974 240.926 319.732 242.524C319.633 243.175 319.026 243.618 318.376 243.523C318.326 243.514 318.277 243.502 318.23 243.488Z" fill="#E4C26D"/>
<path d="M318.695 242.556C318.619 242.534 318.541 242.502 318.467 242.465C317.885 242.162 317.662 241.442 317.968 240.861C319.224 238.47 320.128 235.912 320.655 233.271C320.811 232.502 320.932 231.725 321.055 230.954C321.272 229.572 321.498 228.14 321.898 226.74C323.073 222.576 325.832 218.817 329.467 216.428C330.015 216.072 330.751 216.227 331.112 216.768C331.471 217.317 331.318 218.054 330.77 218.418C327.608 220.495 325.205 223.764 324.181 227.389C323.82 228.655 323.618 229.948 323.4 231.322C323.273 232.129 323.146 232.935 322.987 233.733C322.416 236.603 321.433 239.37 320.071 241.966C319.806 242.471 319.225 242.707 318.695 242.556Z" fill="#E4C26D"/>
<path d="M373.298 293.964C373.227 293.944 373.154 293.915 373.085 293.879C372.499 293.58 372.266 292.865 372.566 292.279C372.971 291.48 372.66 290.31 372.328 289.074C372.086 288.162 371.834 287.22 371.816 286.263C371.812 285.823 371.783 285.361 371.753 284.883C371.667 283.416 371.566 281.75 372.054 280.317C372.261 279.694 372.953 279.39 373.56 279.571C374.181 279.782 374.515 280.457 374.303 281.078C373.969 282.074 374.047 283.431 374.127 284.744C374.157 285.258 374.186 285.758 374.192 286.228C374.205 286.889 374.408 287.65 374.624 288.458C375.035 290 375.503 291.749 374.684 293.36C374.421 293.874 373.836 294.118 373.298 293.964Z" fill="#E4C26D"/>
<path d="M368.13 301.327C367.607 301.177 367.24 300.678 367.271 300.114L367.315 299.349C367.55 295.385 367.772 291.642 366.557 287.979C366.35 287.355 366.69 286.683 367.312 286.476C367.936 286.27 368.607 286.607 368.813 287.228C370.173 291.325 369.938 295.289 369.689 299.487L369.643 300.249C369.605 300.904 369.044 301.405 368.388 301.368C368.3 301.364 368.211 301.35 368.13 301.327Z" fill="#E4C26D"/>
<path d="M353.354 316.423C353.188 316.375 353.029 316.293 352.893 316.167C352.401 315.733 352.359 314.983 352.792 314.491L353.471 313.733C354.955 312.082 356.485 310.372 357.498 308.451C358.73 306.119 359.015 303.665 358.288 301.721C358.058 301.109 358.37 300.423 358.983 300.191C359.601 299.963 360.285 300.272 360.513 300.89C361.48 303.467 361.146 306.627 359.6 309.561C358.452 311.742 356.82 313.56 355.242 315.32L354.571 316.07C354.258 316.425 353.782 316.545 353.354 316.423Z" fill="#E4C26D"/>
<path d="M343.136 323.393C342.923 323.332 342.725 323.21 342.568 323.03C342.137 322.537 342.185 321.787 342.681 321.355C347.385 317.246 350.633 311.618 351.831 305.502C351.954 304.858 352.582 304.436 353.225 304.565C353.88 304.706 354.288 305.314 354.165 305.959C352.865 312.588 349.342 318.691 344.243 323.144C343.929 323.419 343.51 323.5 343.136 323.393Z" fill="#E4C26D"/>
<path d="M353.368 316.477C353.018 316.377 352.72 316.118 352.583 315.755C352.348 315.141 352.655 314.454 353.269 314.223C355.751 313.277 358.469 312.804 361.126 312.859C361.804 312.873 362.482 312.921 363.162 312.967C364.403 313.057 365.577 313.138 366.725 313.014C368.542 312.816 369.99 312.013 370.603 310.865C370.911 310.286 371.632 310.077 372.21 310.374C372.788 310.684 373.009 311.402 372.7 311.983C371.717 313.826 369.582 315.093 366.985 315.375C365.623 315.523 364.285 315.432 362.995 315.338C362.355 315.296 361.715 315.25 361.077 315.235C358.722 315.187 356.316 315.605 354.116 316.442C353.866 316.54 353.605 316.545 353.368 316.477Z" fill="#E4C26D"/>
<path d="M270.437 250.83C269.887 250.673 269.514 250.136 269.584 249.548C270.232 244.026 272.988 239.105 275.597 235.02C276.236 234.013 276.899 233.015 277.56 232.014C279.665 228.834 281.841 225.544 283.35 222.045C285.538 216.944 285.909 211.967 284.386 208.03C284.15 207.421 284.456 206.73 285.068 206.493C285.679 206.26 286.367 206.562 286.603 207.174C288.348 211.693 287.969 217.307 285.532 222.983C283.942 226.677 281.703 230.058 279.54 233.328C278.888 234.315 278.234 235.302 277.598 236.3C275.135 240.157 272.536 244.781 271.943 249.825C271.867 250.478 271.279 250.944 270.628 250.866C270.56 250.861 270.498 250.848 270.437 250.83Z" fill="#E4C26D"/>
<path d="M273.22 221.943C273.017 221.885 272.828 221.77 272.674 221.605C272.228 221.121 272.26 220.371 272.741 219.927C278.545 214.565 281.639 206.968 280.809 200.094C280.731 199.441 281.198 198.851 281.847 198.772C282.494 198.684 283.094 199.157 283.169 199.81C284.086 207.426 280.708 215.806 274.355 221.672C274.039 221.963 273.604 222.053 273.22 221.943Z" fill="#E4C26D"/>
<path d="M266.525 228.608C266.295 228.542 266.083 228.405 265.921 228.205C265.513 227.69 265.597 226.942 266.113 226.533L269.652 223.69C270.165 223.283 270.91 223.367 271.322 223.878C271.731 224.391 271.647 225.139 271.134 225.548L267.594 228.391C267.282 228.641 266.88 228.709 266.525 228.608Z" fill="#E4C26D"/>
<path d="M269.874 279.005C269.385 278.866 269.026 278.422 269.011 277.889C268.738 266.499 272.353 255.223 279.189 246.135C279.586 245.614 280.333 245.507 280.855 245.902C281.377 246.296 281.482 247.04 281.089 247.565C274.572 256.226 271.127 266.975 271.388 277.833C271.405 278.487 270.884 279.031 270.229 279.048C270.104 279.052 269.987 279.038 269.874 279.005Z" fill="#E4C26D"/>
<path d="M281.503 244.019C281.491 244.016 281.479 244.013 281.47 244.008C280.841 243.81 280.498 243.141 280.696 242.515L282.169 237.918C282.366 237.303 283.011 236.958 283.627 237.134C283.639 237.137 283.651 237.141 283.663 237.147C284.289 237.342 284.635 238.011 284.436 238.636L282.962 243.233C282.768 243.85 282.119 244.195 281.503 244.019Z" fill="#E4C26D"/>
<path d="M265.764 202.169C265.598 202.122 265.438 202.034 265.301 201.913C264.812 201.477 264.768 200.724 265.204 200.235C271.638 193.021 275.3 185.385 275.799 178.152C275.843 177.498 276.412 177.005 277.066 177.048C277.715 177.099 278.216 177.658 278.169 178.315C277.629 186.19 273.861 194.094 266.978 201.815C266.666 202.167 266.19 202.291 265.764 202.169Z" fill="#E4C26D"/>
<path d="M262.156 213.432C262.002 213.388 261.857 213.313 261.727 213.206C261.221 212.79 261.144 212.041 261.563 211.537L264.968 207.359C269.994 201.177 275.195 194.784 277.627 187.151C277.823 186.539 278.471 186.195 279.085 186.37C279.097 186.373 279.109 186.377 279.121 186.382C279.749 186.58 280.092 187.247 279.892 187.875C277.319 195.935 271.737 202.798 266.808 208.859L263.399 213.041C263.09 213.421 262.594 213.557 262.156 213.432Z" fill="#E4C26D"/>
<path d="M265.614 217.981C265.416 217.924 265.231 217.813 265.079 217.651C264.628 217.176 264.651 216.42 265.127 215.973C270.996 210.441 276.118 203.037 279.55 195.115C279.81 194.518 280.502 194.261 281.113 194.499C281.713 194.76 281.991 195.461 281.73 196.063C278.174 204.271 272.856 211.955 266.759 217.702C266.444 218.001 266.005 218.093 265.614 217.981Z" fill="#E4C26D"/>
<path d="M258.718 224.389C258.493 224.325 258.281 224.188 258.122 223.992C257.708 223.48 257.79 222.731 258.301 222.32L261.395 219.842C261.905 219.427 262.652 219.515 263.063 220.028C263.472 220.539 263.391 221.288 262.88 221.696L259.792 224.17C259.478 224.421 259.077 224.492 258.718 224.389Z" fill="#E4C26D"/>
<path d="M255.915 202.817C255.711 202.759 255.519 202.645 255.366 202.478C254.923 201.992 254.958 201.241 255.441 200.796L259.371 197.213C259.856 196.769 260.609 196.808 261.051 197.288C261.492 197.773 261.459 198.525 260.974 198.966L257.044 202.552C256.729 202.84 256.298 202.927 255.915 202.817Z" fill="#E4C26D"/>
<path d="M262.609 196.25C262.389 196.187 262.187 196.061 262.029 195.873C261.603 195.373 261.67 194.623 262.168 194.199C263.311 193.236 264.195 191.989 264.725 190.594C264.958 189.981 265.656 189.694 266.257 189.905C266.869 190.141 267.182 190.825 266.945 191.439C266.274 193.209 265.153 194.792 263.704 196.015C263.391 196.28 262.976 196.355 262.609 196.25Z" fill="#E4C26D"/>
<path d="M254.244 194.372C253.727 194.225 253.359 193.733 253.385 193.173C253.729 185.607 255.87 178.991 259.58 174.036C259.973 173.509 260.718 173.401 261.24 173.799C261.767 174.189 261.874 174.936 261.481 175.461C258.06 180.031 256.082 186.194 255.76 193.282C255.728 193.937 255.172 194.444 254.517 194.416C254.422 194.413 254.332 194.397 254.244 194.372Z" fill="#E4C26D"/>
<path d="M262.254 187.761C262.13 187.726 262.011 187.67 261.901 187.594C261.363 187.219 261.229 186.477 261.604 185.939C264.801 181.345 267.52 174.584 268.213 169.498C268.302 168.846 268.902 168.392 269.554 168.48C270.204 168.57 270.658 169.167 270.57 169.819C269.829 175.241 266.945 182.427 263.557 187.297C263.257 187.725 262.73 187.897 262.254 187.761Z" fill="#E4C26D"/>
<path d="M254.177 169.669C254.052 169.634 253.934 169.576 253.824 169.499C253.287 169.124 253.151 168.385 253.528 167.847C255.931 164.39 257.099 160.008 256.729 155.821C256.67 155.167 257.155 154.592 257.806 154.534C258.462 154.473 259.039 154.957 259.096 155.614C259.515 160.346 258.193 165.298 255.48 169.203C255.181 169.633 254.651 169.804 254.177 169.669Z" fill="#E4C26D"/>
<path d="M249.027 163.532C248.559 163.399 248.202 162.983 248.17 162.469C248.001 159.938 249.628 157.983 251.065 156.258C252.271 154.809 253.411 153.44 253.487 151.913C253.52 151.256 254.077 150.751 254.731 150.785C255.39 150.807 255.892 151.373 255.86 152.028C255.745 154.35 254.229 156.169 252.892 157.778C251.628 159.294 250.434 160.728 250.54 162.312C250.584 162.965 250.088 163.533 249.432 163.577C249.292 163.584 249.157 163.569 249.027 163.532Z" fill="#E4C26D"/>
<path d="M246.329 151.932C245.829 151.79 245.462 151.328 245.466 150.784C245.492 146.061 244.891 139.357 241.877 134.25C241.542 133.687 241.729 132.959 242.294 132.625C242.861 132.287 243.589 132.479 243.923 133.045C247.214 138.615 247.872 145.772 247.842 150.797C247.838 151.453 247.305 151.984 246.648 151.978C246.538 151.978 246.431 151.961 246.329 151.932Z" fill="#E4C26D"/>
<path d="M253.006 186.641C252.762 186.571 252.54 186.42 252.378 186.202C249.78 182.677 248.196 178.442 246.797 174.702C245.38 170.93 243.915 167.03 241.529 163.777C238.955 160.295 235.524 158.079 232.124 157.715C231.475 157.638 231.001 157.055 231.07 156.404C231.144 155.751 231.729 155.281 232.383 155.351C236.438 155.805 240.471 158.352 243.44 162.368C246.021 165.887 247.548 169.944 249.023 173.868C250.433 177.637 251.89 181.535 254.29 184.792C254.681 185.321 254.568 186.063 254.04 186.455C253.731 186.681 253.351 186.739 253.006 186.641Z" fill="#E4C26D"/>
<path d="M240.623 158.43C240.389 158.363 240.173 158.222 240.013 158.015C238.107 155.566 235.612 153.579 232.797 152.263C232.202 151.985 231.946 151.277 232.224 150.682C232.499 150.087 233.202 149.83 233.801 150.109C236.957 151.581 239.754 153.812 241.887 156.557C242.289 157.073 242.198 157.82 241.68 158.224C241.369 158.466 240.973 158.53 240.623 158.43Z" fill="#E4C26D"/>
<path d="M251.268 180.536C250.862 180.42 250.531 180.09 250.433 179.644C249.07 173.432 246.922 167.392 244.047 161.691C243.752 161.102 243.986 160.389 244.575 160.095C245.16 159.796 245.874 160.035 246.17 160.619C249.134 166.498 251.348 172.729 252.755 179.136C252.897 179.779 252.489 180.411 251.85 180.552C251.652 180.595 251.452 180.589 251.268 180.536Z" fill="#E4C26D"/>
<path d="M240.795 151.41C240.487 151.322 240.217 151.11 240.062 150.801C238.335 147.38 235.213 143.581 230.518 139.193C230.039 138.744 230.013 137.994 230.46 137.514C230.912 137.034 231.659 137.007 232.141 137.456C237.042 142.038 240.328 146.056 242.183 149.731C242.477 150.317 242.243 151.03 241.658 151.328C241.38 151.468 241.072 151.489 240.795 151.41Z" fill="#E4C26D"/>
<path d="M254.926 207.023C254.654 206.946 254.41 206.77 254.247 206.509C252.642 203.955 251.309 201.235 250.289 198.427C249.866 197.262 249.495 196.083 249.126 194.903C248.551 193.061 248.006 191.326 247.27 189.643C244.69 183.762 239.819 178.922 235.519 174.647C235.055 174.184 235.052 173.433 235.515 172.968C235.978 172.505 236.731 172.498 237.195 172.963C241.643 177.384 246.684 182.397 249.445 188.69C250.235 190.489 250.824 192.371 251.393 194.191C251.754 195.337 252.111 196.486 252.524 197.614C253.487 200.265 254.743 202.833 256.259 205.247C256.609 205.804 256.442 206.536 255.885 206.884C255.589 207.072 255.238 207.112 254.926 207.023Z" fill="#E4C26D"/>
<path d="M257.413 222.978C257.171 222.909 256.95 222.765 256.788 222.544C256.083 221.599 255.341 220.64 254.593 219.667C251.066 215.084 247.417 210.348 245.59 205.065C245.323 204.285 245.085 203.499 244.847 202.714C244.297 200.897 243.776 199.181 242.938 197.614C241.09 194.177 237.719 191.613 234.746 189.352C234.224 188.956 234.122 188.207 234.519 187.686C234.915 187.164 235.664 187.064 236.183 187.46C239.351 189.868 242.94 192.598 245.031 196.492C245.982 198.266 246.562 200.177 247.122 202.023C247.351 202.781 247.581 203.542 247.837 204.292C249.536 209.204 253.063 213.786 256.477 218.217C257.233 219.2 257.979 220.169 258.692 221.125C259.084 221.652 258.975 222.394 258.45 222.788C258.141 223.02 257.757 223.076 257.413 222.978Z" fill="#E4C26D"/>
<path d="M262.987 233.716C262.89 233.688 262.794 233.644 262.699 233.588C261.155 232.661 259.146 231.865 257.022 231.027C254.114 229.877 251.109 228.689 248.986 227.005C246.149 224.751 244.549 221.54 243.003 218.437C242.328 217.084 241.631 215.684 240.85 214.417C240.506 213.86 240.679 213.127 241.239 212.784C241.795 212.437 242.527 212.615 242.874 213.172C243.711 214.529 244.43 215.976 245.128 217.375C246.627 220.381 248.04 223.219 250.465 225.143C252.311 226.61 255.15 227.73 257.894 228.814C260.114 229.695 262.212 230.522 263.924 231.553C264.488 231.894 264.669 232.62 264.331 233.184C264.047 233.652 263.491 233.859 262.987 233.716Z" fill="#E4C26D"/>
<path d="M239.335 208.283C239.058 208.204 238.665 208 238.364 207.462C237.883 206.581 237.402 205.723 236.919 204.858L236.459 204.034L238.478 202.784C241.103 206.629 241.208 206.779 240.92 207.532L240.701 208.11L239.752 208.373L239.335 208.283Z" fill="#E4C26D"/>
<path d="M243.738 230.432C243.459 230.352 243.206 230.168 243.046 229.901L241.848 227.944C241.511 227.38 241.694 226.65 242.256 226.313C242.818 225.972 243.546 226.153 243.887 226.718L245.081 228.674C245.421 229.236 245.239 229.967 244.676 230.309C244.381 230.483 244.043 230.519 243.738 230.432Z" fill="#E4C26D"/>
<path d="M247.72 235.784C247.511 235.725 247.321 235.607 247.165 235.436L245.218 233.299C244.778 232.814 244.814 232.062 245.301 231.62C245.789 231.181 246.537 231.22 246.979 231.705L248.929 233.845C249.37 234.33 249.33 235.081 248.843 235.52C248.529 235.808 248.1 235.892 247.72 235.784Z" fill="#E4C26D"/>
<path d="M270.26 253.487C269.85 253.37 269.516 253.037 269.422 252.59C268.499 248.247 263.676 244.888 259.581 243.899C259.275 243.831 258.96 243.767 258.642 243.706C257.753 243.534 256.825 243.359 255.921 242.939C254.776 242.406 253.885 241.598 253.027 240.816C252.153 240.019 251.324 239.264 250.365 238.948C249.741 238.744 249.402 238.07 249.605 237.449C249.812 236.826 250.479 236.406 251.109 236.691C252.549 237.166 253.604 238.128 254.626 239.057C255.387 239.752 256.107 240.407 256.916 240.78C257.562 241.073 258.307 241.223 259.096 241.374C259.442 241.44 259.783 241.507 260.125 241.586C265.032 242.742 270.607 246.743 271.746 252.098C271.883 252.737 271.475 253.371 270.833 253.508C270.636 253.55 270.441 253.538 270.26 253.487Z" fill="#E4C26D"/>
<path d="M249.481 245.888C249.251 245.822 249.039 245.685 248.877 245.483L247.043 243.167C246.634 242.654 246.721 241.907 247.234 241.498C247.75 241.09 248.498 241.171 248.906 241.689L250.738 244.005C251.147 244.515 251.063 245.263 250.547 245.672C250.238 245.921 249.838 245.99 249.481 245.888Z" fill="#E4C26D"/>
<path d="M268.538 279.075C268.042 278.933 267.676 278.475 267.674 277.935C267.663 273.896 266.704 269.411 264.751 264.214C262.383 257.968 256.693 253.175 252.124 249.325C251.619 248.901 251.558 248.151 251.978 247.65C252.404 247.15 253.152 247.086 253.655 247.508C258.437 251.537 264.388 256.547 266.973 263.374C269.031 268.843 270.039 273.601 270.053 277.926C270.053 278.582 269.522 279.118 268.866 279.119C268.752 279.121 268.641 279.104 268.538 279.075Z" fill="#E4C26D"/>
<path d="M258.58 262.411C258.329 262.339 258.098 262.183 257.934 261.952L254.787 257.445C254.407 256.906 254.537 256.165 255.073 255.787C255.608 255.411 256.348 255.541 256.727 256.075L259.881 260.586C260.257 261.12 260.129 261.865 259.589 262.239C259.286 262.456 258.913 262.506 258.58 262.411Z" fill="#E4C26D"/>
<path d="M161.779 136.097C161.223 135.938 160.851 135.391 160.928 134.802C161.417 131.056 162.447 127.374 163.986 123.859C164.251 123.258 164.944 122.972 165.551 123.251C166.153 123.513 166.428 124.215 166.163 124.816C164.712 128.121 163.744 131.585 163.285 135.107C163.2 135.76 162.603 136.216 161.953 136.131C161.893 136.125 161.834 136.113 161.779 136.097Z" fill="#E4C26D"/>
<path d="M166.901 121.537C166.292 121.363 165.923 120.737 166.073 120.116L167.023 116.134C167.173 115.495 167.815 115.102 168.454 115.254C169.128 115.362 169.487 116.047 169.334 116.685L168.383 120.667C168.232 121.306 167.593 121.7 166.954 121.549C166.933 121.546 166.917 121.541 166.901 121.537Z" fill="#E4C26D"/>
<path d="M153.508 126.028C153.09 125.909 152.756 125.565 152.668 125.109C152.171 122.52 152.809 119.947 153.373 117.676L155.189 110.399C155.349 109.765 155.995 109.375 156.63 109.536C157.297 109.644 157.656 110.339 157.495 110.974L155.68 118.25C155.151 120.383 154.602 122.584 155.001 124.659C155.124 125.305 154.704 125.928 154.06 126.051C153.868 126.089 153.682 126.078 153.508 126.028Z" fill="#E4C26D"/>
<path d="M156.174 106.215C155.706 106.082 155.349 105.668 155.315 105.153L155.07 101.599C155.024 100.944 155.519 100.376 156.172 100.33C156.83 100.28 157.397 100.778 157.44 101.435L157.685 104.989C157.731 105.644 157.235 106.212 156.582 106.257C156.441 106.268 156.303 106.252 156.174 106.215Z" fill="#E4C26D"/>
<path d="M145.024 118.219C144.618 118.103 144.288 117.774 144.189 117.334C143.345 113.536 143.768 109.483 145.382 105.921C145.752 105.104 146.183 104.315 146.614 103.529C146.899 103.012 147.182 102.496 147.442 101.973C149.105 98.6719 149.947 94.9815 149.88 91.2985C149.869 90.6424 150.393 90.0995 151.049 90.0884C151.704 90.0797 152.246 90.5991 152.258 91.2554C152.331 95.3235 151.401 99.396 149.568 103.039C149.293 103.587 148.995 104.129 148.699 104.671C148.297 105.404 147.893 106.141 147.547 106.901C146.143 110 145.776 113.522 146.509 116.82C146.654 117.458 146.247 118.092 145.608 118.235C145.407 118.278 145.208 118.272 145.024 118.219Z" fill="#E4C26D"/>
<path d="M126.471 65.709C125.841 65.5291 125.476 64.87 125.656 64.2393C127.869 56.4857 124.439 48.6945 121.123 41.1631C120.587 39.9396 120.054 38.7273 119.548 37.5282C119.295 36.9222 119.579 36.2258 120.183 35.9726C120.791 35.7154 121.486 36.001 121.739 36.6097C122.239 37.7941 122.767 38.9967 123.3 40.2037C126.783 48.1236 130.389 56.3141 127.941 64.8915C127.761 65.5221 127.104 65.8897 126.471 65.709Z" fill="#E4C26D"/>
<path d="M129.611 80.9757C129.078 80.8237 128.709 80.3166 128.751 79.7418C128.965 76.9504 129.624 74.2359 130.262 71.6133C130.984 68.6391 131.667 65.8285 131.759 62.9098C131.882 59.0272 131.191 55.8351 130.391 52.1359L129.902 49.8499C129.772 49.2046 130.183 48.5766 130.828 48.446C131.465 48.3079 132.097 48.7263 132.229 49.3667L132.713 51.6353C133.512 55.3237 134.267 58.8117 134.135 62.9825C134.033 66.1495 133.29 69.2155 132.572 72.1746C131.958 74.7064 131.32 77.3266 131.121 79.9238C131.072 80.5785 130.501 81.0686 129.847 81.0167C129.765 81.012 129.687 80.9975 129.611 80.9757Z" fill="#E4C26D"/>
<path d="M133.066 95.6414C133.037 95.6332 133.01 95.6222 132.982 95.6123C132.364 95.3884 132.051 94.7044 132.276 94.086L135.733 84.6682C136.459 82.697 137.022 80.936 136.576 79.3627C136.397 78.7301 136.766 78.0741 137.398 77.8948C138.029 77.7179 138.686 78.0853 138.863 78.7146C139.554 81.1589 138.635 83.6617 137.965 85.49L134.508 94.9077C134.29 95.4961 133.658 95.8104 133.066 95.6414Z" fill="#E4C26D"/>
<path d="M136.887 76.3665C136.354 76.2144 135.983 75.7042 136.029 75.1302L136.236 72.5829C136.289 71.9266 136.863 71.4401 137.516 71.4917C138.166 71.5292 138.657 72.1134 138.605 72.7673L138.397 75.3146C138.347 75.9717 137.774 76.4583 137.12 76.4066C137.039 76.4019 136.961 76.3875 136.887 76.3665Z" fill="#E4C26D"/>
<path d="M137.625 69.881C137.102 69.7317 136.734 69.2329 136.765 68.6681L136.895 66.3949C136.932 65.7418 137.496 65.2419 138.152 65.2783C138.802 65.3134 139.305 65.877 139.268 66.5301L139.139 68.8036C139.101 69.4591 138.54 69.9598 137.883 69.9231C137.795 69.919 137.706 69.9042 137.625 69.881Z" fill="#E4C26D"/>
<path d="M139.086 110.024C138.668 109.905 138.334 109.561 138.244 109.11C137.254 104.058 138.829 99.1177 140.354 94.3402C140.763 93.0583 141.171 91.7843 141.526 90.5134C143.304 84.1558 143.779 77.3178 142.896 70.7399C142.809 70.0887 143.266 69.4919 143.916 69.4026C144.572 69.3203 145.164 69.7748 145.252 70.4263C146.177 77.3202 145.679 84.4874 143.814 91.1533C143.451 92.4507 143.035 93.7541 142.618 95.0626C141.12 99.7612 139.702 104.201 140.578 108.65C140.703 109.296 140.283 109.919 139.64 110.045C139.45 110.082 139.26 110.074 139.086 110.024Z" fill="#E4C26D"/>
<path d="M190.358 205.384C189.774 201.34 190.98 196.886 193.94 192.142C195.092 190.303 196.395 188.56 197.654 186.876C198.98 185.102 200.354 183.266 201.511 181.363C203.97 177.343 205.144 172.444 204.501 168.88L206.839 168.458C207.737 173.443 205.724 179.03 203.538 182.6C202.326 184.598 200.918 186.48 199.557 188.3C198.325 189.946 197.053 191.647 195.957 193.4C193.301 197.654 192.208 201.574 192.711 205.044L190.358 205.384Z" fill="#E4C26D"/>
<path d="M196.144 214.279C194.237 208.22 196.613 201.322 198.943 196.603C199.697 195.081 200.519 193.587 201.341 192.09C203.27 188.582 205.09 185.268 206.097 181.594L208.389 182.221C207.306 186.169 205.331 189.76 203.423 193.233C202.617 194.701 201.811 196.166 201.072 197.656C198.939 201.983 196.741 208.261 198.409 213.569L196.144 214.279Z" fill="#E4C26D"/>
<path d="M200.526 220.581C199.418 212.643 202.768 205.018 206.601 197.257L208.733 198.31C205.071 205.724 201.866 212.983 202.879 220.25L200.526 220.581Z" fill="#E4C26D"/>
<path d="M333.501 323.982C328.556 325.219 325.478 331.967 324.321 335.01C323.397 337.461 323.178 340.267 322.964 342.979C322.662 346.844 322.344 350.841 320.066 354.183C318.884 355.913 317.314 357.238 315.795 358.522C314.311 359.775 312.914 360.955 311.914 362.441C310.076 365.186 309.799 368.612 309.504 372.237C309.406 373.425 309.31 374.611 309.156 375.772C308.383 381.621 306.003 387.258 302.38 391.909C305.585 391.565 306.588 390.58 307.495 389.687C308.346 388.854 309.307 387.906 311.467 387.838C312.216 387.818 312.974 387.803 313.735 387.794C317.315 387.736 320.7 387.685 323.712 386.319C330.598 383.198 332.662 374.579 333.281 369.715L333.447 368.327C333.722 365.963 334.002 363.518 335.029 361.247C335.373 360.483 335.801 359.746 336.232 359.013C336.892 357.887 337.514 356.826 337.768 355.687C338.277 353.356 337.246 350.902 336.152 348.3C334.809 345.104 333.419 341.794 334.956 338.476C335.197 337.955 335.508 337.466 335.824 336.98C336.209 336.381 336.577 335.814 336.718 335.239C337.132 333.628 336.636 331.606 335.428 329.956C333.89 327.825 333.476 325.582 333.501 323.982ZM296.985 394.409L298.834 392.415C303.141 387.77 305.971 381.747 306.799 375.462C306.948 374.339 307.04 373.194 307.135 372.044C307.441 368.278 307.76 364.38 309.94 361.116C311.125 359.352 312.719 358.01 314.26 356.705C315.722 355.47 317.107 354.306 318.103 352.842C320.026 350.023 320.301 346.512 320.596 342.794C320.82 339.917 321.057 336.936 322.1 334.17C323.496 330.484 327.447 322.021 334.348 321.44C334.685 321.204 335.079 321.159 335.414 321.255L335.873 321.386L336.715 321.365L336.333 322.266L336.669 323.802L335.884 323.792C335.821 324.8 335.99 326.672 337.35 328.559C338.987 330.798 339.613 333.514 339.024 335.817C338.787 336.768 338.274 337.565 337.817 338.27C337.567 338.663 337.308 339.052 337.113 339.476C336.015 341.842 337.148 344.532 338.344 347.379C339.53 350.208 340.759 353.128 340.086 356.196C339.754 357.702 339.006 358.98 338.281 360.217C337.894 360.876 337.506 361.534 337.195 362.225C336.323 364.159 336.072 366.316 335.807 368.599L335.636 370.019C334.955 375.371 332.633 384.886 324.691 388.483C321.23 390.053 317.438 390.111 313.772 390.167C313.025 390.179 312.284 390.191 311.543 390.215C310.31 390.255 309.902 390.657 309.16 391.384C307.857 392.664 306.072 394.417 299.705 394.411L296.985 394.409Z" fill="#E4C26D"/>
<path d="M380.06 273.588C379.544 277.887 377.728 279.251 374.904 281.012L373.827 281.693C373.428 281.95 373.019 282.189 372.612 282.431C371.762 282.925 370.964 283.396 370.322 284.005C368.61 285.623 368.11 288.1 367.578 290.722C367.169 292.759 366.739 294.865 365.714 296.745C363.834 300.182 360.435 302.081 357.148 303.918C355.941 304.589 354.734 305.262 353.61 306.015C348.167 309.645 344.4 315.723 343.477 322.198L343.528 322.177C350.605 319.302 357.925 316.331 365.496 317.914L365.95 318.016C366.67 318.18 367.35 318.336 367.971 318.292C368.812 318.242 369.731 317.792 370.712 316.957C372.409 315.496 373.634 313.492 374.151 311.327C374.576 309.579 374.569 307.743 374.563 305.798C374.554 303.155 374.544 300.421 375.679 297.869C376.551 295.915 377.934 294.393 379.269 292.922C380.425 291.649 381.516 290.449 382.247 289.027C383.784 286.039 384.379 282.381 383.765 279.705C383.238 277.414 381.8 275.682 380.279 273.852C380.206 273.765 380.133 273.678 380.06 273.588ZM340.812 325.83L340.914 323.973C341.348 316.068 345.707 308.43 352.292 304.036C353.481 303.244 354.755 302.532 355.988 301.842C359.12 300.093 362.077 298.438 363.626 295.602C364.484 294.042 364.854 292.199 365.252 290.248C365.832 287.382 366.429 284.42 368.684 282.279C369.526 281.481 370.484 280.922 371.411 280.377C371.786 280.157 372.166 279.937 372.532 279.698C372.918 279.449 373.291 279.217 373.647 278.996C376.574 277.17 377.911 276.338 377.831 270.293L377.779 266.252L380.011 269.62C380.634 270.561 381.348 271.42 382.105 272.332C383.736 274.296 385.427 276.328 386.08 279.171C386.814 282.363 386.14 286.659 384.36 290.116C383.487 291.815 382.238 293.19 381.028 294.521C379.761 295.914 378.568 297.231 377.851 298.835C376.923 300.92 376.93 303.286 376.937 305.788C376.945 307.791 376.954 309.861 376.464 311.882C375.83 314.529 374.335 316.973 372.256 318.762C370.852 319.961 369.502 320.579 368.127 320.662C367.161 320.731 366.277 320.529 365.422 320.332L364.997 320.237C358.146 318.805 351.17 321.639 344.422 324.379L340.812 325.83Z" fill="#E4C26D"/>
<path d="M97.215 13.0362C102.712 27.9493 102.396 44.5159 102.091 60.6016C101.797 75.9902 101.495 91.9048 106.189 106.472C107.958 111.961 110.477 117.356 112.911 122.574C116.854 131.021 120.931 139.753 122.007 149.215C122.25 151.317 122.339 153.449 122.424 155.515C122.558 158.666 122.695 161.923 123.381 164.992C125.529 174.612 132.807 182.2 140.35 188.969C160.99 207.474 184.314 222.418 209.715 233.412C206.753 222.948 206.576 211.094 206.392 198.599C206.118 180.141 205.833 161.052 196.283 145.131C194.958 142.926 193.432 140.764 191.959 138.671C189.304 134.902 186.56 131.007 184.769 126.616C183.676 123.94 182.958 121.129 182.262 118.411C181.651 116.018 181.02 113.549 180.144 111.235C177.507 104.294 172.421 98.2874 167.934 92.9887C145.173 66.1218 121.403 39.2527 97.215 13.0362ZM213.566 237.629L211.144 236.607C184.586 225.422 160.236 209.99 138.764 190.734C130.928 183.705 123.357 175.781 121.061 165.514C120.329 162.234 120.186 158.87 120.05 155.613C119.966 153.591 119.878 151.502 119.646 149.484C118.615 140.408 114.621 131.851 110.758 123.58C108.293 118.295 105.742 112.833 103.926 107.202C99.1092 92.2577 99.4157 76.1432 99.7128 60.5574C100.075 41.5483 100.416 23.5933 92.2618 7.61501L88.3737 -0.000285212L94.1922 6.27057C120.049 34.1372 145.469 62.7963 169.748 91.4523C174.358 96.8998 179.583 103.067 182.365 110.393C183.289 112.83 183.939 115.368 184.564 117.823C185.239 120.463 185.937 123.192 186.968 125.717C188.658 129.858 191.323 133.643 193.902 137.3C195.401 139.428 196.952 141.628 198.321 143.906C208.201 160.377 208.49 179.789 208.766 198.566C208.963 211.865 209.152 224.431 212.731 235.133L213.566 237.629Z" fill="#E4C26D"/>
<path d="M209.92 234.69L184.226 196.771C179.614 189.959 174.841 182.917 172.172 174.864C170.556 169.993 169.76 164.839 168.991 159.851C167.92 152.907 166.907 146.35 163.878 140.378C160.777 134.262 155.941 129.491 150.823 124.44C146.837 120.506 142.716 116.437 139.534 111.701C133.367 102.531 131.114 91.5127 128.935 80.8587C128.25 77.5097 127.542 74.0481 126.725 70.7167C121.554 49.5868 111.011 29.9976 96.2365 14.0572L97.978 12.4421C113.03 28.6758 123.768 48.6324 129.034 70.1518C129.861 73.5256 130.573 77.0122 131.262 80.381C133.396 90.8133 135.6 101.599 141.508 110.375C144.556 114.913 148.589 118.896 152.494 122.746C157.522 127.71 162.721 132.844 165.995 139.304C169.198 145.614 170.286 152.667 171.338 159.49C172.093 164.379 172.874 169.433 174.428 174.118C176.992 181.857 181.672 188.762 186.193 195.44L211.889 233.356L209.92 234.69Z" fill="#E4C26D"/>
<path d="M350.349 328.852C330.41 323.161 310.459 314.26 290.698 302.215C264.572 286.293 239.194 265.266 210.833 236.053L212.54 234.396C240.755 263.462 265.983 284.369 291.934 300.189C323.96 319.705 356.474 330.888 388.568 333.428L388.381 335.796C375.745 334.799 363.047 332.476 350.349 328.852Z" fill="#E4C26D"/>
<path d="M224.752 127.857C233.066 132.622 234.844 144.132 233.737 152.975C233.387 155.76 232.844 158.575 232.315 161.298C230.994 168.125 229.745 174.57 231.198 180.96C231.496 182.258 231.916 183.581 232.324 184.857C232.974 186.901 233.648 189.015 233.897 191.23C234.241 194.231 233.786 197.229 233.346 200.126C232.829 203.529 232.342 206.745 233.079 209.855C233.553 211.839 234.495 213.667 235.492 215.601C236.049 216.682 236.603 217.766 237.081 218.88C239.119 223.634 239.687 228.871 240.236 233.935C240.927 240.265 241.578 246.244 244.862 251.218C247.056 254.541 250.195 257.012 253.513 259.63C255.147 260.918 256.835 262.248 258.393 263.688C263.501 268.399 267.294 274.328 270.486 280.319C270.359 271.52 274.753 262.855 279.045 254.405C281.082 250.389 283.192 246.236 284.773 242.143L285.475 240.35C287.8 234.436 290.206 228.321 289.642 222.155C289.184 217.21 286.909 212.778 284.499 208.088C282.713 204.604 280.864 201.004 279.809 197.153C279.086 194.515 278.722 191.734 278.371 189.046C277.691 183.834 277.047 178.913 274.004 175.134C272.202 172.89 269.588 171.193 267.059 169.548C263.468 167.215 259.754 164.805 257.995 160.705C257.221 158.893 256.945 156.982 256.678 155.132C256.567 154.37 256.459 153.605 256.31 152.851C254.998 145.977 250.445 139.61 243.82 135.379C242.087 134.275 240.482 132.7 238.928 131.179C236.701 128.996 234.4 126.74 231.859 126.015C229.618 125.375 227.332 125.963 224.752 127.857ZM272.743 290.184C268.689 281.743 264.096 272.177 256.782 265.433C255.292 264.06 253.639 262.756 252.044 261.5C248.721 258.879 245.286 256.169 242.88 252.526C239.276 247.07 238.562 240.525 237.876 234.194C237.344 229.302 236.795 224.241 234.898 219.817C234.442 218.754 233.909 217.722 233.379 216.69C232.36 214.713 231.308 212.67 230.766 210.406C229.924 206.843 230.467 203.247 230.996 199.768C231.432 196.901 231.842 194.186 231.536 191.5C231.312 189.512 230.704 187.602 230.059 185.58C229.639 184.254 229.2 182.884 228.881 181.488C227.318 174.608 228.673 167.613 229.984 160.848C230.501 158.161 231.039 155.386 231.38 152.681C232.541 143.403 230.125 132.542 222.104 129.197L220.346 128.466L221.777 127.209C225.557 123.886 229.068 122.749 232.511 123.732C235.631 124.622 238.153 127.092 240.591 129.477C242.125 130.983 243.573 132.403 245.098 133.375C252.273 137.958 257.21 144.893 258.645 152.403C258.798 153.188 258.914 153.991 259.031 154.794C259.286 156.569 259.528 158.245 260.18 159.768C261.654 163.205 264.908 165.318 268.353 167.557C271.037 169.302 273.814 171.104 275.855 173.643C279.317 177.944 280.035 183.429 280.728 188.734C281.069 191.346 281.423 194.045 282.1 196.526C283.09 200.142 284.881 203.63 286.612 207.002C289.018 211.688 291.508 216.533 292.009 221.937C292.626 228.669 290.115 235.048 287.688 241.22L286.989 243C285.364 247.204 283.229 251.412 281.164 255.48C275.281 267.074 269.721 278.023 274.891 289.168L272.743 290.184Z" fill="#E4C26D"/>
<path d="M306.424 189.425C297.484 215.314 302.258 221.335 306.114 226.192C308.588 229.312 310.926 232.263 308.954 239.099C308.121 242.008 306.984 244.881 305.884 247.663C303.721 253.117 301.681 258.276 301.661 263.791C301.598 288.754 310.757 306.967 328.879 317.92C328.91 317.939 328.94 317.956 328.967 317.974C331.277 309.831 335.905 302.368 342.118 296.811L343.117 295.93C345.053 294.243 346.877 292.646 347.66 290.499C348.234 288.92 348.194 287.061 348.158 285.419C348.029 278.877 347.91 272.337 347.792 265.793L347.762 264.029C347.662 258.542 347.538 251.716 344.147 246.648C342.764 244.585 340.79 242.737 338.882 240.947C335.46 237.74 331.919 234.426 331.34 229.593C331.153 228.064 331.309 226.573 331.457 225.127C331.554 224.192 331.652 223.256 331.65 222.319C331.629 218.456 328.783 215.608 325.77 212.596C323.375 210.198 320.898 207.717 319.584 204.513C316.318 196.531 313.367 194.461 309.944 192.068C308.814 191.278 307.657 190.466 306.424 189.425ZM330.352 322.208L328.863 320.726C328.675 320.561 328.252 320.319 327.65 319.957C308.765 308.537 299.222 289.64 299.287 263.785C299.303 257.818 301.527 252.211 303.673 246.786C304.755 244.06 305.869 241.24 306.672 238.443C308.305 232.778 306.606 230.636 304.251 227.669C299.951 222.249 294.599 215.501 304.775 186.951L305.39 185.222L306.714 186.491C308.338 188.044 309.847 189.102 311.309 190.121C314.88 192.623 318.253 194.985 321.786 203.613C322.914 206.376 325.222 208.683 327.453 210.914C330.673 214.136 334.001 217.47 334.025 222.307C334.029 223.328 333.928 224.351 333.822 225.37C333.68 226.748 333.546 228.043 333.698 229.306C334.176 233.281 337.25 236.162 340.506 239.214C342.51 241.091 344.588 243.038 346.123 245.327C349.901 250.975 350.034 258.188 350.141 263.984L350.171 265.75C350.289 272.293 350.407 278.835 350.534 285.373C350.573 287.126 350.62 289.313 349.892 291.309C348.902 294.036 346.756 295.908 344.678 297.721L343.703 298.582C337.435 304.186 332.872 311.848 330.85 320.157L330.352 322.208Z" fill="#E4C26D"/>
<path d="M83.912 193.519C94.1508 199.929 105.074 207.31 112.617 217.523C120.418 228.082 124.264 241.053 127.981 253.598C132.462 268.716 136.694 282.996 147.229 293.589C152.466 298.847 159.188 302.757 166.674 304.893C175.481 307.407 184.888 307.279 193.164 304.531C194.627 304.044 196.078 303.48 197.536 302.915C201.836 301.251 206.289 299.527 211.042 299.749C212.815 299.832 214.653 300.17 216.427 300.49C220.519 301.241 224.383 301.947 227.042 299.613C228.052 298.727 228.733 297.489 229.452 296.18C230.039 295.112 230.642 294.01 231.466 293.032C234.273 289.68 238.907 288.616 242.287 287.841C243.184 287.634 244.076 287.419 244.978 287.195C250.428 285.853 256.523 284.354 265.852 285.663C263.499 284.117 260.359 283.948 257.031 283.901C253.855 283.857 250.505 283.805 247.174 282.313C238.876 278.591 232.136 272.189 226.637 266.419L224.546 264.205C219.343 258.67 213.967 252.949 207.127 249.888C205.834 249.306 204.445 248.803 202.996 248.389C197.113 246.71 190.635 246.617 184.369 246.528C177.029 246.421 169.427 246.306 162.43 243.727C152.155 239.931 144.809 231.522 137.709 223.387C134.7 219.942 131.59 216.379 128.314 213.239C119.912 205.195 109.512 199.243 98.2351 196.024C93.4913 194.67 88.6909 193.834 83.912 193.519ZM166.021 307.181C158.146 304.934 151.066 300.811 145.545 295.265C134.587 284.247 130.071 269.008 125.703 254.275C122.043 241.924 118.258 229.155 110.706 218.937C102.5 207.826 90.5035 200.392 78.8989 193.2L75.3621 191.011L79.5236 191.004C85.9632 190.988 92.4768 191.912 98.8867 193.741C110.533 197.065 121.278 203.214 129.957 211.525C133.311 214.734 136.457 218.339 139.499 221.825C146.724 230.099 153.547 237.911 163.254 241.499C169.891 243.945 177.258 244.05 184.402 244.153C190.823 244.247 197.462 244.341 203.648 246.106C205.204 246.55 206.702 247.092 208.1 247.719C215.371 250.975 220.915 256.872 226.276 262.576L228.358 264.777C233.697 270.382 240.224 276.591 248.148 280.143C251.064 281.459 254.107 281.484 257.061 281.526C259.358 281.555 261.73 281.589 263.957 282.225C266.56 282.968 268.652 284.456 270.353 286.776L272.176 289.261L269.157 288.642C258.158 286.399 251.747 287.976 245.546 289.501C244.631 289.726 243.726 289.951 242.816 290.157C238.86 291.067 235.41 292.022 233.288 294.56C232.615 295.361 232.089 296.314 231.534 297.323C230.749 298.757 229.933 300.24 228.611 301.401C225.087 304.49 220.468 303.645 216 302.83C214.302 302.52 212.545 302.2 210.929 302.123C206.678 301.925 202.652 303.483 198.392 305.132C196.903 305.709 195.411 306.288 193.913 306.785C185.187 309.682 175.283 309.824 166.021 307.181Z" fill="#E4C26D"/>
<path d="M329.276 319.503C323.191 311.972 324.577 301.185 326.463 292.633L326.735 291.391C328.599 283.017 330.525 274.362 327.031 266.995C326.06 264.943 324.713 263.113 323.289 261.175C321.852 259.225 320.369 257.207 319.296 254.935C316.065 248.104 317.094 240.533 318.087 233.211C318.665 228.935 319.267 224.51 319.002 220.306C318.257 208.725 310.807 198.225 304.823 189.784L306.761 188.412C312.92 197.094 320.586 207.902 321.374 220.155C321.655 224.597 321.036 229.139 320.44 233.534C319.449 240.83 318.515 247.724 321.445 253.92C322.42 255.985 323.772 257.824 325.202 259.769C326.63 261.712 328.11 263.717 329.178 265.976C333.021 274.081 330.915 283.554 329.057 291.909L328.784 293.144C327.012 301.177 325.677 311.265 331.126 318.012L329.276 319.503Z" fill="#E4C26D"/>
<path d="M270.655 282.347C266.783 276.035 267.709 268.604 268.605 261.416C269.26 256.16 269.936 250.725 268.724 245.8C267.665 241.472 265.241 237.73 262.672 233.771C260.592 230.566 258.446 227.249 257.077 223.58C255.172 218.463 254.889 212.979 254.613 207.674C254.55 206.461 254.488 205.249 254.405 204.039C253.873 196.102 252.449 188.084 251.076 180.333L247.806 161.924C246.678 155.61 245.513 149.08 242.547 143.391C238.771 136.167 232.152 130.606 224.381 128.141L225.099 125.875C233.464 128.533 240.59 134.516 244.655 142.293C247.787 148.304 248.988 155.015 250.147 161.506L253.404 179.848C254.801 187.73 256.235 195.814 256.775 203.88C256.859 205.098 256.922 206.325 256.986 207.551C257.252 212.675 257.526 217.977 259.305 222.749C260.582 226.175 262.66 229.379 264.667 232.479C267.227 236.429 269.875 240.517 271.035 245.233C272.351 250.581 271.648 256.238 270.964 261.711C270.079 268.802 269.246 275.501 272.682 281.106L270.655 282.347Z" fill="#E4C26D"/>
<path d="M191.601 281.377C186.263 279.854 180.898 277.739 175.485 275.486C168.345 272.525 159.46 268.834 152.876 262.575C146.992 256.983 143.186 249.701 139.508 242.652C138.018 239.804 136.48 236.855 134.832 234.083C123.488 214.971 104.66 200.729 83.1548 194.959L83.7696 192.66C105.816 198.641 125.215 213.231 136.874 232.868C138.558 235.699 140.111 238.678 141.614 241.552C145.202 248.426 148.914 255.531 154.513 260.853C160.778 266.81 169.076 270.254 176.397 273.293C188.95 278.514 201.215 283.011 213.198 280.719C214.504 280.464 215.804 280.132 217.1 279.805C219.77 279.124 222.533 278.418 225.398 278.385C229.432 278.326 233.278 279.595 236.99 280.826C238.082 281.188 239.172 281.546 240.263 281.871C248.572 284.388 257.477 284.846 266.027 283.297L266.45 285.639C257.535 287.248 248.315 286.752 239.583 284.152C238.468 283.818 237.357 283.45 236.243 283.081C232.551 281.859 229.063 280.71 225.429 280.762C222.844 280.791 220.339 281.43 217.688 282.105C216.343 282.448 214.999 282.79 213.647 283.051C206.315 284.453 198.984 283.484 191.601 281.377Z" fill="#E4C26D"/>
<path d="M345.393 323.364L343.389 322.089C346.011 317.959 350.388 315.737 354.621 313.585C358.531 311.601 362.229 309.722 364.596 306.485C365.716 304.952 366.477 303.184 367.283 301.312C367.741 300.245 368.202 299.177 368.727 298.153C370.056 295.571 371.806 293.256 373.499 291.011C374.464 289.729 375.434 288.452 376.322 287.119C378.389 284.045 381.397 276.703 377.994 270.878L380.047 269.678C384.038 276.508 380.826 284.687 378.297 288.444C377.384 289.809 376.389 291.127 375.395 292.442C373.687 294.705 372.077 296.843 370.841 299.24C370.34 300.218 369.902 301.233 369.464 302.249C368.646 304.16 367.795 306.134 366.515 307.887C363.811 311.582 359.685 313.68 355.697 315.707C351.567 317.803 347.668 319.785 345.393 323.364Z" fill="#E4C26D"/>
<path d="M370.284 305.332C369.064 304.984 367.92 304.38 366.967 303.543L368.539 301.76C370.382 303.386 373.217 303.79 375.439 302.74L376.454 304.889C374.548 305.788 372.313 305.911 370.284 305.332Z" fill="#E4C26D"/>
<path d="M315.163 381.967C314.994 381.919 314.836 381.835 314.699 381.711C314.208 381.274 314.165 380.525 314.602 380.033C315.584 378.934 316.805 377.564 318.434 376.712C319.126 376.352 319.841 376.116 320.514 375.916C321.185 375.713 321.87 375.529 322.559 375.346C325.129 374.658 327.56 374.006 329.367 372.423C329.863 371.991 330.614 372.039 331.046 372.535C331.478 373.031 331.426 373.779 330.934 374.213C328.706 376.158 325.892 376.911 323.173 377.64C322.509 377.82 321.844 377.998 321.197 378.191C320.636 378.359 320.05 378.551 319.532 378.818C318.382 379.421 317.461 380.4 316.376 381.616C316.064 381.968 315.588 382.089 315.163 381.967Z" fill="#E4C26D"/>
<path d="M315.107 380.135C314.835 380.058 314.591 379.886 314.429 379.63C313.645 378.391 313.651 376.937 313.779 375.551L313.822 375.095C313.963 373.62 314.096 372.226 313.834 370.904C313.588 369.68 312.996 368.513 312.373 367.278C311.632 365.81 310.863 364.29 310.626 362.546C310.539 361.896 310.996 361.296 311.645 361.209C312.297 361.125 312.894 361.582 312.982 362.227C313.163 363.575 313.808 364.853 314.495 366.207C315.163 367.526 315.854 368.895 316.163 370.442C316.495 372.104 316.337 373.74 316.19 375.321L316.146 375.769C316.062 376.668 316.011 377.687 316.437 378.353C316.787 378.908 316.622 379.642 316.069 379.996C315.772 380.183 315.419 380.224 315.107 380.135Z" fill="#E4C26D"/>
<path d="M320.788 364.814C320.375 364.696 320.041 364.355 319.947 363.906C319.399 361.177 318.612 358.489 317.609 355.919C317.371 355.307 317.673 354.618 318.286 354.38C318.898 354.143 319.586 354.445 319.822 355.054C320.878 357.756 321.702 360.574 322.279 363.435C322.406 364.079 321.99 364.706 321.348 364.835C321.156 364.875 320.964 364.864 320.788 364.814Z" fill="#E4C26D"/>
<path d="M322.997 360.491C322.762 360.424 322.544 360.28 322.384 360.072C321.983 359.551 322.079 358.807 322.598 358.405C325.453 356.211 328.64 354.53 332.075 353.414C332.697 353.214 333.368 353.551 333.573 354.177C333.775 354.801 333.433 355.473 332.809 355.676C329.633 356.707 326.687 358.258 324.048 360.289C323.737 360.528 323.346 360.591 322.997 360.491Z" fill="#E4C26D"/>
<path d="M328.785 346.314C328.545 346.246 328.323 346.1 328.16 345.884C325.988 342.972 324.778 339.365 324.754 335.718C324.75 335.063 325.281 334.528 325.935 334.525C326.603 334.509 327.128 335.05 327.131 335.704C327.151 338.848 328.194 341.955 330.065 344.458C330.459 344.986 330.35 345.732 329.823 346.124C329.516 346.355 329.13 346.412 328.785 346.314Z" fill="#E4C26D"/>
<path d="M319.043 373.262C318.818 373.198 318.609 373.067 318.449 372.87C318.035 372.364 318.112 371.615 318.619 371.199C319.687 370.329 320.882 369.642 322.173 369.16C322.788 368.928 323.472 369.237 323.705 369.856C323.935 370.469 323.623 371.154 323.007 371.385C321.957 371.776 320.989 372.335 320.123 373.042C319.808 373.296 319.405 373.365 319.043 373.262Z" fill="#E4C26D"/>
<path d="M324.362 370.046C324.069 369.962 323.807 369.767 323.646 369.48C323.329 368.903 323.538 368.18 324.112 367.866L326.003 366.813C326.577 366.49 327.299 366.7 327.62 367.272C327.937 367.846 327.731 368.57 327.161 368.889L325.261 369.943C324.976 370.1 324.653 370.129 324.362 370.046Z" fill="#E4C26D"/>
<path d="M329.121 367.106C328.789 367.012 328.5 366.775 328.351 366.434C328.093 365.83 328.372 365.129 328.977 364.871L330.54 364.202C331.147 363.947 331.843 364.23 332.097 364.831C332.356 365.434 332.074 366.133 331.473 366.39L329.913 367.055C329.654 367.166 329.373 367.178 329.121 367.106Z" fill="#E4C26D"/>
<path d="M312.213 381.484C311.729 381.346 311.367 380.911 311.348 380.382C311.318 379.414 311.007 378.429 310.47 377.606C310.111 377.057 310.266 376.321 310.817 375.963C311.367 375.602 312.1 375.758 312.46 376.311C313.242 377.506 313.679 378.885 313.724 380.301C313.746 380.957 313.232 381.506 312.575 381.53C312.45 381.532 312.328 381.517 312.213 381.484Z" fill="#E4C26D"/>
<path d="M317.464 367.448C317.068 367.335 316.743 367.018 316.636 366.588C316.366 365.496 316.11 364.404 315.852 363.315C315.698 362.677 316.094 362.039 316.733 361.886C317.372 361.733 318.009 362.128 318.163 362.767C318.419 363.85 318.678 364.937 318.944 366.023C319.103 366.66 318.711 367.302 318.074 367.461C317.867 367.51 317.66 367.503 317.464 367.448Z" fill="#E4C26D"/>
<path d="M325.088 354.219C324.67 354.099 324.335 353.755 324.248 353.301C324.053 352.315 323.849 351.329 323.647 350.34L323.45 349.391C323.319 348.748 323.733 348.121 324.377 347.988C325.02 347.865 325.647 348.271 325.778 348.913L325.975 349.863C326.177 350.857 326.383 351.848 326.58 352.846C326.706 353.489 326.284 354.115 325.64 354.241C325.45 354.276 325.262 354.268 325.088 354.219Z" fill="#E4C26D"/>
<path d="M321.06 384.255C320.684 384.148 320.37 383.858 320.248 383.452C320.06 382.823 320.418 382.161 321.045 381.975C324.88 380.828 328.471 379.029 331.709 376.63C332.239 376.246 332.984 376.35 333.371 376.881C333.763 377.408 333.651 378.151 333.125 378.542C329.66 381.106 325.826 383.026 321.725 384.25C321.503 384.316 321.271 384.315 321.06 384.255Z" fill="#E4C26D"/>
<path d="M316.549 385.686C316.185 385.582 315.878 385.307 315.748 384.918C315.539 384.296 315.877 383.623 316.499 383.417L317.779 382.979C318.396 382.761 319.077 383.082 319.298 383.703C319.516 384.32 319.193 385 318.572 385.22C318.14 385.374 317.696 385.522 317.252 385.67C317.015 385.75 316.772 385.75 316.549 385.686Z" fill="#E4C26D"/>
<path d="M193.95 270.089C193.848 270.06 193.746 270.015 193.65 269.952C184.95 264.546 178.098 255.882 174.854 246.185C174.644 245.561 174.981 244.888 175.604 244.678C176.226 244.469 176.9 244.804 177.109 245.427C180.181 254.612 186.667 262.816 194.905 267.937C195.462 268.282 195.633 269.015 195.288 269.572C194.998 270.034 194.45 270.231 193.95 270.089Z" fill="#E4C26D"/>
<path d="M208.866 280.265C208.751 280.232 208.641 280.182 208.537 280.115L199.409 274.087C198.862 273.727 198.709 272.988 199.071 272.441C199.432 271.891 200.164 271.74 200.718 272.1L209.847 278.128C210.394 278.491 210.545 279.229 210.183 279.776C209.891 280.219 209.35 280.403 208.866 280.265Z" fill="#E4C26D"/>
<path d="M214.698 273.895C214.453 273.825 214.227 273.676 214.065 273.455C211.853 270.424 208.536 268.52 205.025 266.505C203.857 265.834 202.687 265.162 201.562 264.449C194.589 260.041 188.805 253.491 185.276 246.01C184.993 245.417 185.249 244.71 185.84 244.43C186.434 244.147 187.144 244.402 187.423 244.997C190.763 252.073 196.236 258.269 202.834 262.441C203.931 263.138 205.069 263.791 206.21 264.444C209.781 266.496 213.473 268.616 215.984 272.049C216.372 272.58 216.255 273.324 215.726 273.712C215.416 273.936 215.037 273.992 214.698 273.895Z" fill="#E4C26D"/>
<path d="M230.528 280.825C230.329 280.768 230.147 280.66 229.995 280.503C225.661 275.953 220.801 271.881 215.55 268.397L213.896 267.317C211.388 265.684 208.792 263.999 206.672 261.729C202.915 257.715 201.067 252.333 199.436 247.585C199.22 246.963 199.553 246.29 200.171 246.072C200.794 245.863 201.469 246.191 201.683 246.81C203.237 251.332 204.999 256.458 208.41 260.107C210.331 262.162 212.69 263.7 215.194 265.322L216.865 266.419C222.262 269.998 227.258 274.186 231.716 278.861C232.168 279.336 232.15 280.09 231.675 280.544C231.36 280.842 230.919 280.936 230.528 280.825Z" fill="#E4C26D"/>
<path d="M244.327 285.344C244.31 285.339 244.295 285.334 244.282 285.327C233.367 281.726 223.104 270.692 220.407 259.663C220.251 259.027 220.644 258.382 221.28 258.226C221.92 258.07 222.56 258.462 222.716 259.099C225.233 269.4 234.823 279.705 245.026 283.071C245.649 283.278 245.986 283.948 245.781 284.574C245.579 285.18 244.936 285.517 244.327 285.344Z" fill="#E4C26D"/>
<path d="M183.229 279.041C183.089 279.001 182.953 278.932 182.83 278.839C175.862 273.465 170.842 265.82 168.69 257.307C168.541 256.723 168.405 256.128 168.268 255.537C167.843 253.665 167.436 251.9 166.626 250.32C165.208 247.55 162.541 245.411 160.187 243.524C159.675 243.113 159.594 242.365 160.003 241.853C160.417 241.339 161.165 241.257 161.675 241.67C164.215 243.706 167.093 246.015 168.74 249.237C169.686 251.083 170.142 253.077 170.586 255.004C170.716 255.58 170.848 256.154 170.994 256.722C173.017 264.722 177.736 271.906 184.281 276.957C184.799 277.356 184.896 278.102 184.495 278.622C184.19 279.021 183.684 279.171 183.229 279.041Z" fill="#E4C26D"/>
<path d="M165.434 267.87C165.136 267.785 164.874 267.583 164.715 267.291C164.073 266.101 162.663 264.369 161.297 262.695C160.659 261.91 160.029 261.132 159.475 260.414C153.951 250.951 152.013 244.959 152.481 238.914C152.532 238.259 153.102 237.77 153.757 237.819C154.415 237.853 154.901 238.442 154.851 239.094C154.497 243.695 155.481 248.856 161.442 259.093C161.9 259.671 162.515 260.425 163.14 261.193C164.576 262.953 166.06 264.776 166.808 266.162C167.117 266.742 166.901 267.463 166.326 267.772C166.041 267.926 165.722 267.952 165.434 267.87Z" fill="#E4C26D"/>
<path d="M143.407 249.362C142.978 249.239 142.634 248.876 142.559 248.406C141.99 244.838 141.401 241.15 142.249 237.489C142.406 236.823 142.608 236.17 142.813 235.514C143.057 234.724 143.305 233.937 143.451 233.127C143.608 232.287 143.748 230.727 142.942 229.628C142.553 229.098 142.67 228.354 143.199 227.966C143.727 227.58 144.471 227.695 144.859 228.223C145.849 229.573 146.179 231.466 145.787 233.553C145.625 234.474 145.348 235.361 145.082 236.22C144.895 236.823 144.705 237.421 144.563 238.028C143.822 241.233 144.374 244.689 144.907 248.032C145.009 248.68 144.569 249.288 143.92 249.391C143.744 249.42 143.57 249.408 143.407 249.362Z" fill="#E4C26D"/>
<path d="M133.254 230.04C132.784 229.906 132.428 229.489 132.393 228.977L131.693 218.222C131.623 217.147 131.478 216.099 130.896 215.697C130.355 215.323 130.22 214.587 130.59 214.044C130.963 213.503 131.697 213.367 132.245 213.74C133.858 214.853 133.991 216.943 134.065 218.066L134.765 228.816C134.81 229.471 134.314 230.038 133.657 230.084C133.518 230.094 133.381 230.076 133.254 230.04Z" fill="#E4C26D"/>
<path d="M121.991 217.485C121.491 212.027 121.248 209.361 121.198 207.999C121.182 207.889 121.164 207.778 121.15 207.671L121.188 207.658C121.175 206.676 121.303 206.569 121.529 206.383L122.013 205.985L123.35 206.367L123.499 207.308C123.995 210.653 124.18 214.036 124.361 217.311L121.991 217.485Z" fill="#E4C26D"/>
<path d="M143.194 291.845C142.602 291.676 142.233 291.076 142.358 290.462C142.489 289.82 143.117 289.407 143.76 289.537C151.921 291.205 160.239 291.525 168.478 290.486C171.589 290.096 175.166 289.455 178.148 287.648C179.117 287.056 180.011 286.347 180.96 285.597C181.815 284.918 182.675 284.241 183.588 283.645C185.795 282.2 190.029 279.739 193.564 279.527C194.22 279.492 194.78 279.988 194.821 280.641C194.86 281.3 194.361 281.861 193.706 281.901C191.558 282.028 188.263 283.425 184.887 285.634C184.034 286.192 183.236 286.825 182.436 287.459C181.473 288.22 180.478 289.01 179.384 289.677C176.017 291.72 172.13 292.424 168.776 292.842C160.278 293.916 151.701 293.589 143.283 291.865C143.254 291.859 143.222 291.853 143.194 291.845Z" fill="#E4C26D"/>
<path d="M169.771 298.482C169.322 298.354 168.975 297.965 168.919 297.474C168.841 296.822 169.308 296.235 169.959 296.156C172.825 295.824 175.726 295.988 178.533 296.147C182.249 296.361 185.76 296.56 189.159 295.693C193.783 294.507 197.861 291.324 201.459 288.518L203.443 286.956C205.549 285.295 207.069 284.092 209.701 282.208C210.232 281.827 210.976 281.945 211.359 282.483C211.742 283.017 211.618 283.759 211.085 284.141C208.499 285.991 206.996 287.18 204.917 288.82L202.922 290.39C199.139 293.341 194.855 296.684 189.749 297.995C185.99 298.954 182.13 298.733 178.395 298.522C175.693 298.366 172.896 298.208 170.236 298.516C170.073 298.536 169.917 298.524 169.771 298.482Z" fill="#E4C26D"/>
<path d="M209.084 295.466C208.566 295.318 208.201 294.827 208.225 294.267C208.256 293.611 208.812 293.107 209.468 293.136C213.765 293.333 217.503 290.221 221.121 287.212C225.2 283.821 235.101 280.675 240.193 281.84C240.826 282.005 241.231 282.623 241.087 283.264C240.942 283.905 240.302 284.303 239.664 284.158C235.443 283.191 226.131 286.138 222.758 288.94C218.86 292.184 214.574 295.75 209.358 295.51C209.264 295.507 209.173 295.491 209.084 295.466Z" fill="#E4C26D"/>
<path d="M201.395 295.445C200.85 295.289 200.48 294.761 200.54 294.177C200.607 293.525 201.192 293.05 201.843 293.12C202.024 293.14 202.429 293.213 202.927 293.304C203.471 293.407 204.581 293.615 205.241 293.687C205.711 293.343 206.377 293.383 206.795 293.808C207.158 294.18 207.312 294.908 207.068 295.364C206.52 296.4 205.339 296.177 202.489 295.641C202.078 295.566 201.747 295.497 201.598 295.482C201.528 295.475 201.459 295.463 201.395 295.445Z" fill="#E4C26D"/>
<path d="M224.315 292.815C223.872 292.689 223.52 292.306 223.461 291.818C223.382 291.169 223.843 290.573 224.495 290.493C227.64 290.103 230.77 289.088 233.543 287.555C233.97 287.318 234.396 287.066 234.819 286.814C235.621 286.34 236.421 285.868 237.255 285.467C240.918 283.71 245.253 283.442 249.11 284.543C249.74 284.736 250.096 285.396 249.903 286.025C249.713 286.654 249.087 287.117 248.421 286.819C245.122 285.789 241.419 286.105 238.283 287.608C237.511 287.977 236.771 288.421 236.03 288.86C235.588 289.123 235.143 289.384 234.697 289.632C231.657 291.312 228.232 292.426 224.787 292.852C224.625 292.874 224.464 292.858 224.315 292.815Z" fill="#E4C26D"/>
<path d="M150.819 282.068C150.408 281.95 150.002 281.829 149.595 281.698C148.971 281.498 148.627 280.827 148.83 280.202C149.031 279.575 149.758 279.13 150.323 279.436C155.866 281.193 161.822 281.642 167.55 280.657C169.213 280.368 170.905 279.949 172.538 279.546C174.482 279.067 176.492 278.57 178.528 278.265C183.213 277.561 187.139 278.111 190.199 279.877C190.768 280.207 190.959 280.936 190.63 281.503C190.302 282.072 189.577 282.262 189.008 281.935C186.424 280.447 183.018 279.996 178.879 280.615C176.952 280.904 174.999 281.385 173.107 281.852C171.433 282.265 169.703 282.694 167.956 282.996C162.271 283.977 156.372 283.652 150.819 282.068Z" fill="#E4C26D"/>
<path d="M142.044 274.39L141.983 274.371C139.278 273.435 136.596 272.418 134.001 271.347L134.811 269.115C144.053 272.008 143.926 272.438 143.584 273.579L143.247 274.705L142.044 274.39Z" fill="#E4C26D"/>
<path d="M146.887 274.87C146.336 274.712 145.965 274.176 146.034 273.588C146.112 272.936 146.703 272.47 147.354 272.545C148.738 272.71 150.119 272.869 151.507 273.016C152.153 273.105 152.633 273.676 152.562 274.325C152.491 274.979 151.908 275.452 151.253 275.382C149.859 275.232 148.467 275.07 147.076 274.908C147.011 274.9 146.949 274.887 146.887 274.87Z" fill="#E4C26D"/>
<path d="M140.154 268.278C137.031 267.387 134.116 265.889 131.459 264.526C130.875 264.226 130.646 263.511 130.944 262.927C131.246 262.341 131.962 262.092 132.545 262.414C136.139 264.256 139.852 266.172 143.852 266.607C145.531 266.793 147.222 266.719 149.013 266.633C150.263 266.576 151.515 266.517 152.762 266.549C157.639 266.685 162.427 268.198 166.649 269.54C167.275 269.737 167.62 270.407 167.421 271.033C167.224 271.658 166.502 272.099 165.931 271.804C161.659 270.456 157.241 269.049 152.698 268.929C151.509 268.896 150.316 268.952 149.123 269.008C147.32 269.091 145.455 269.178 143.588 268.97C142.42 268.84 141.273 268.598 140.154 268.278Z" fill="#E4C26D"/>
<path d="M134.698 257.885C134.652 257.872 134.604 257.857 134.558 257.835L129.215 255.57C128.609 255.316 128.327 254.616 128.583 254.015C128.837 253.408 129.551 253.102 130.14 253.381L135.487 255.65C136.09 255.903 136.374 256.601 136.116 257.207C135.879 257.763 135.268 258.048 134.698 257.885Z" fill="#E4C26D"/>
<path d="M146.666 254.431C146.509 254.387 146.358 254.306 146.224 254.193C142.837 251.305 139.864 249.516 136.845 248.763C135.867 248.494 134.869 248.318 133.872 248.145C132.561 247.91 131.2 247.665 129.872 247.227C127.046 246.275 124.623 244.497 122.484 242.928C121.955 242.541 121.841 241.797 122.227 241.268C122.617 240.739 123.36 240.629 123.892 241.011C125.888 242.477 128.156 244.139 130.628 244.974C131.776 245.359 132.998 245.576 134.286 245.801C135.354 245.99 136.426 246.179 137.471 246.468C140.824 247.448 144.104 249.264 147.765 252.381C148.265 252.807 148.324 253.559 147.898 254.058C147.588 254.425 147.101 254.555 146.666 254.431Z" fill="#E4C26D"/>
<path d="M139.352 242.05C139.075 241.971 138.829 241.793 138.666 241.533C137.978 240.416 136.597 239.728 135.337 239.203C133.835 238.568 132.302 238.035 130.77 237.505C129.184 236.954 127.542 236.386 125.957 235.709C122.09 234.06 119.317 232.029 117.482 229.502C117.095 228.971 117.213 228.227 117.744 227.843C118.276 227.455 119.017 227.574 119.404 228.105C120.979 230.275 123.429 232.048 126.888 233.521C128.401 234.167 130.003 234.722 131.549 235.262C133.131 235.81 134.711 236.359 136.258 237.012C137.863 237.682 139.647 238.595 140.688 240.283C141.036 240.839 140.862 241.573 140.301 241.919C140.007 242.1 139.663 242.139 139.352 242.05Z" fill="#E4C26D"/>
<path d="M125.274 227.084C125.26 227.08 125.246 227.076 125.232 227.069C121.23 225.768 117.261 224.279 113.435 222.645C112.832 222.388 112.551 221.689 112.808 221.086C113.064 220.48 113.749 220.213 114.369 220.458C118.131 222.066 122.034 223.528 125.966 224.813C126.593 225.015 126.934 225.686 126.729 226.31C126.532 226.919 125.885 227.258 125.274 227.084Z" fill="#E4C26D"/>
<path d="M214.73 342.03C214.362 341.925 214.053 341.644 213.926 341.255C213.722 340.632 214.06 339.962 214.685 339.754C226.85 335.771 237.791 328.64 246.326 319.13C250.497 314.483 256.204 308.121 262.463 306.595C263.1 306.436 263.747 306.829 263.898 307.467C264.054 308.104 263.664 308.748 263.025 308.905C257.482 310.254 252.055 316.303 248.093 320.72C239.282 330.538 227.984 337.901 215.423 342.016C215.191 342.09 214.95 342.093 214.73 342.03Z" fill="#E4C26D"/>
<path d="M224.441 345.629C223.984 345.498 223.632 345.102 223.582 344.601C223.517 343.948 223.994 343.368 224.65 343.304C236.097 342.18 246.908 335.884 253.573 326.464C254.467 325.191 255.299 323.861 256.131 322.528C258.208 319.198 260.361 315.755 263.539 313.227C266.888 310.56 271.032 309.194 274.688 307.987C275.313 307.78 275.985 308.122 276.188 308.744C276.393 309.367 276.053 310.04 275.431 310.246C271.965 311.387 268.035 312.682 265.018 315.085C262.158 317.362 260.21 320.481 258.146 323.787C257.29 325.156 256.436 326.525 255.514 327.832C248.457 337.812 237.006 344.477 224.879 345.667C224.73 345.682 224.578 345.668 224.441 345.629Z" fill="#E4C26D"/>
<path d="M245.135 346.211C244.783 346.11 244.48 345.847 244.343 345.474C244.12 344.858 244.436 344.177 245.052 343.954C252.09 341.384 257.951 336.03 261.133 329.261C261.316 328.869 261.493 328.471 261.671 328.069C262.464 326.282 263.288 324.433 264.779 322.977C265.245 322.521 265.999 322.529 266.46 322.999C266.916 323.467 266.907 324.222 266.44 324.68C265.272 325.816 264.577 327.381 263.843 329.036C263.656 329.45 263.475 329.863 263.285 330.271C259.836 337.604 253.488 343.406 245.867 346.184C245.624 346.274 245.367 346.277 245.135 346.211Z" fill="#E4C26D"/>
<path d="M270.953 320.25C270.736 320.188 270.536 320.065 270.377 319.879C269.951 319.379 270.012 318.63 270.509 318.203C274.361 314.912 279.635 310.403 285.923 309.988C286.58 309.945 287.142 310.441 287.185 311.096C287.231 311.751 286.733 312.318 286.078 312.361C280.989 312.696 276.72 316.021 272.055 320.012C271.741 320.278 271.322 320.355 270.953 320.25Z" fill="#E4C26D"/>
<path d="M279.455 319.599C279.015 319.474 278.666 319.094 278.605 318.606C278.521 317.955 278.984 317.36 279.634 317.279C282.475 316.918 285.278 315.739 287.527 313.954C288.038 313.544 288.787 313.626 289.196 314.147C289.604 314.66 289.518 315.408 289.005 315.816C286.381 317.896 283.244 319.216 279.932 319.635C279.77 319.655 279.607 319.642 279.455 319.599Z" fill="#E4C26D"/>
<path d="M241.419 364.897C241.033 364.787 240.712 364.485 240.599 364.068C240.425 363.435 240.799 362.783 241.43 362.609C252.967 359.449 262.609 350.476 266.598 339.195L267.113 337.707C268.396 333.914 269.994 329.197 273.528 327.493C274.118 327.205 274.828 327.449 275.114 328.047C275.401 328.636 275.151 329.347 274.562 329.631C271.925 330.906 270.504 335.097 269.361 338.47L268.838 339.99C264.594 351.99 254.333 361.535 242.061 364.901C241.84 364.959 241.62 364.954 241.419 364.897Z" fill="#E4C26D"/>
<path d="M270.418 349.226C270.167 349.154 269.941 348.998 269.776 348.771C269.398 348.235 269.522 347.493 270.059 347.115C273.619 344.587 275.538 340.542 277.566 336.259C278.435 334.43 279.334 332.537 280.372 330.772C284.068 324.501 291.02 320.008 298.971 318.761C299.622 318.649 300.227 319.102 300.332 319.753C300.433 320.4 299.988 321.006 299.34 321.109C292.085 322.251 285.761 326.311 282.42 331.978C281.435 333.652 280.559 335.497 279.716 337.277C277.643 341.648 275.501 346.164 271.433 349.051C271.128 349.268 270.753 349.322 270.418 349.226Z" fill="#E4C26D"/>
<path d="M281.146 342.61C280.743 342.495 280.414 342.174 280.314 341.739C280.163 341.102 280.56 340.46 281.197 340.311C285.618 339.27 288.772 335.175 291.622 331.064C293.597 328.209 295.533 325.398 298.007 323.054C300.041 321.126 303.336 318.733 307.493 318.309C308.143 318.244 308.727 318.72 308.794 319.373C308.859 320.024 308.385 320.611 307.732 320.678C304.245 321.029 301.406 323.102 299.644 324.777C297.349 326.954 295.483 329.656 293.679 332.274C290.461 336.907 286.982 341.391 281.743 342.624C281.538 342.672 281.335 342.664 281.146 342.61Z" fill="#E4C26D"/>
<path d="M247.992 366.117C247.616 366.01 247.304 365.724 247.18 365.323C246.987 364.695 247.341 364.028 247.969 363.838C251.15 362.861 254.096 361.357 256.715 359.366C257.239 358.968 257.984 359.07 258.38 359.592C258.775 360.115 258.673 360.861 258.152 361.259C255.308 363.418 252.116 365.053 248.665 366.112C248.437 366.181 248.207 366.179 247.992 366.117Z" fill="#E4C26D"/>
<path d="M234.35 361.306C234.01 361.21 233.716 360.961 233.574 360.609C233.329 360.003 233.622 359.309 234.232 359.063C239.744 356.837 244.93 353.828 249.652 350.122C250.164 349.716 250.913 349.805 251.319 350.32C251.724 350.838 251.634 351.586 251.119 351.992C246.221 355.837 240.839 358.958 235.12 361.267C234.864 361.368 234.597 361.377 234.35 361.306Z" fill="#E4C26D"/>
<path d="M223.056 355.689C222.545 355.543 222.181 355.066 222.197 354.51C222.215 353.855 222.764 353.34 223.42 353.358C226.921 353.464 232.591 351.048 234.869 350.001L252.449 341.971C253.045 341.699 253.748 341.957 254.023 342.557C254.295 343.152 254.033 343.858 253.437 344.132L235.86 352.163C232.845 353.547 227.207 355.853 223.347 355.735C223.247 355.73 223.149 355.715 223.056 355.689Z" fill="#E4C26D"/>
<path d="M176.761 334.26C176.461 334.174 176.194 333.969 176.037 333.67C175.729 333.094 175.952 332.375 176.53 332.067L181.983 329.163C182.566 328.857 183.285 329.077 183.59 329.656C183.896 330.235 183.673 330.954 183.095 331.26L177.643 334.166C177.36 334.315 177.046 334.341 176.761 334.26Z" fill="#E4C26D"/>
<path d="M179.004 338.15C178.408 337.98 178.036 337.371 178.171 336.754C178.311 336.114 178.946 335.706 179.584 335.846C181.711 336.31 184.197 335.547 186.827 334.743C189.99 333.775 193.271 332.792 196.244 333.908C196.859 334.141 197.165 334.829 196.932 335.438C196.697 336.054 196.006 336.335 195.399 336.127C193.17 335.277 190.43 336.121 187.525 337.015C184.717 337.874 181.813 338.763 179.079 338.168C179.055 338.161 179.031 338.157 179.004 338.15Z" fill="#E4C26D"/>
<path d="M215.609 334.31C215.218 334.198 214.893 333.887 214.784 333.464C214.62 332.828 215.003 332.182 215.639 332.017C219.869 330.924 223.102 327.562 226.594 323.607L231.385 318.175C231.816 317.686 232.57 317.635 233.059 318.071C233.552 318.503 233.602 319.255 233.165 319.748L228.377 325.179C224.622 329.433 221.113 333.058 216.231 334.32C216.019 334.375 215.805 334.366 215.609 334.31Z" fill="#E4C26D"/>
<path d="M198.87 341.351C198.278 341.182 197.91 340.582 198.032 339.969C198.162 339.327 198.788 338.911 199.433 339.041C201.194 339.399 203.225 339.132 205.376 338.853C208.535 338.443 211.803 338.015 214.519 339.625C215.085 339.958 215.272 340.686 214.937 341.251C214.603 341.817 213.871 342.012 213.309 341.669C211.296 340.487 208.568 340.837 205.682 341.211C203.434 341.503 201.11 341.804 198.962 341.371C198.931 341.365 198.898 341.359 198.87 341.351Z" fill="#E4C26D"/>
<path d="M301.662 393.174L301.235 390.837C308.893 389.44 313.222 381.394 314.727 377.999C315.893 375.377 316.833 372.576 317.738 369.867C318.979 366.157 320.262 362.32 322.18 358.775C322.724 357.778 323.312 356.803 323.901 355.83C324.921 354.148 325.884 352.559 326.604 350.835C328.206 346.981 328.492 342.534 328.768 338.233C329.111 332.853 329.468 327.293 332.345 322.568L332.662 322.048L333.273 322.002L333.572 323.314L334.374 323.803C331.802 328.028 331.479 333.059 331.141 338.383C330.852 342.879 330.553 347.529 328.796 351.749C328.008 353.638 326.956 355.38 325.934 357.062C325.365 358 324.795 358.94 324.271 359.908C322.452 363.27 321.2 367.007 319.992 370.622C319.069 373.382 318.113 376.241 316.899 378.965C313.394 386.868 307.839 392.047 301.662 393.174Z" fill="#E4C26D"/>
<path d="M222.917 345.533C222.007 345.273 221.104 344.983 220.211 344.667C214.743 342.729 209.68 339.793 204.778 336.954C201.865 335.263 198.85 333.514 195.804 332.013C185.988 327.168 175.029 324.464 164.114 324.185L164.175 321.81C175.431 322.098 186.729 324.887 196.856 329.882C199.975 331.419 203.025 333.188 205.973 334.897C210.778 337.683 215.745 340.564 221.007 342.426C234.599 347.245 250.368 345.066 262.134 336.731C264.451 335.096 266.675 333.193 268.832 331.35C272.792 327.96 276.891 324.453 281.826 322.344C285.849 320.623 290.192 319.936 294.397 319.272L312.446 316.45L312.811 318.802L294.797 321.615C290.708 322.261 286.511 322.925 282.759 324.529C278.159 326.494 274.377 329.731 270.376 333.155C268.18 335.034 265.911 336.974 263.509 338.674C251.893 346.9 236.582 349.429 222.917 345.533Z" fill="#E4C26D"/>
<path d="M209.869 345.179C210.28 345.296 210.69 345.424 211.096 345.566C215.221 346.995 218.731 349.611 222.13 352.144C223.095 352.863 224.059 353.582 225.038 354.272C230.651 358.226 236.591 361.114 242.697 362.857C247.019 364.09 251.351 364.713 255.576 364.711C266.989 364.696 277.722 359.918 284.286 351.923C287.373 348.164 289.61 343.661 291.772 339.306C293.579 335.672 295.445 331.911 297.828 328.507C301.534 323.21 306.038 319.359 311.261 317.008L281.448 311.072C272.869 309.359 262.192 307.231 253.132 310.945C251.245 311.715 249.407 312.752 247.631 313.761C245.605 314.904 243.513 316.085 241.262 316.933C239.851 317.466 238.395 317.862 236.985 318.246C235.644 318.611 234.255 318.984 232.961 319.471C229.899 320.622 226.942 322.527 224.082 324.37C219.021 327.631 213.786 331.001 207.625 330.474C205.945 330.337 203.887 329.778 201.78 329.092L199.185 328.243C196.021 327.2 192.75 326.124 189.494 325.194C181.96 323.044 173.262 321.218 164.82 323.31C168.569 325.414 171.728 328.412 174.804 331.33C177.024 333.439 179.321 335.62 181.785 337.396C185.778 340.278 190.426 342.245 195.289 343.125C197.176 343.46 199.153 343.643 201.067 343.816C203.974 344.08 206.98 344.355 209.869 345.179ZM242.045 365.141C235.682 363.326 229.5 360.322 223.667 356.214C222.672 355.513 221.692 354.781 220.711 354.049C217.456 351.626 214.096 349.121 210.315 347.812C207.309 346.769 204.183 346.488 200.852 346.181C198.889 346.005 196.858 345.819 194.869 345.463C189.647 344.522 184.676 342.412 180.395 339.323C177.801 337.454 175.445 335.217 173.169 333.055C169.344 329.428 165.736 325.999 161.117 324.165L158.208 323.009L161.152 321.944C171.101 318.344 181.392 320.413 190.145 322.912C193.446 323.854 196.742 324.934 199.928 325.983L202.515 326.833C204.445 327.458 206.34 327.983 207.826 328.105C213.18 328.565 217.85 325.555 222.793 322.371C225.76 320.462 228.825 318.486 232.127 317.244C233.53 316.72 234.971 316.328 236.364 315.951C237.779 315.567 239.12 315.204 240.423 314.712C242.503 313.927 244.426 312.84 246.462 311.69C248.304 310.652 250.209 309.572 252.235 308.745C261.956 304.758 273.021 306.967 281.91 308.74L320.693 316.462L315.972 317.814C309.534 319.651 304.086 323.708 299.775 329.866C297.496 333.128 295.668 336.807 293.902 340.366C291.679 344.839 289.381 349.464 286.12 353.432C279.114 361.967 267.693 367.074 255.58 367.086C251.133 367.088 246.579 366.436 242.045 365.141Z" fill="#E4C26D"/>
</svg>
